<?xml version="1.0" encoding="UTF-8"?>
<svg xmlns="http://www.w3.org/2000/svg" xmlns:xlink="http://www.w3.org/1999/xlink" width="30px" height="30px" viewBox="0 0 30 30" version="1.1">
<g id="surface1">
<path style=" stroke:none;fill-rule:nonzero;fill:rgb(0%,0%,0%);fill-opacity:1;" d="M 13.535156 26.074219 L 12.894531 26.074219 L 12.894531 25.015625 C 12.894531 24.789062 12.710938 24.605469 12.484375 24.605469 L 11.3125 24.605469 C 11.085938 24.605469 10.902344 24.789062 10.902344 25.015625 C 10.902344 25.242188 11.085938 25.425781 11.3125 25.425781 L 12.074219 25.425781 L 12.074219 26.074219 L 7.644531 26.074219 L 7.644531 25.015625 C 7.644531 24.789062 7.460938 24.605469 7.234375 24.605469 C 7.007812 24.605469 6.824219 24.789062 6.824219 25.015625 L 6.824219 26.074219 L 2.398438 26.074219 L 2.398438 25.425781 L 3.160156 25.425781 C 3.386719 25.425781 3.570312 25.242188 3.570312 25.015625 C 3.570312 24.789062 3.386719 24.605469 3.160156 24.605469 L 1.988281 24.605469 C 1.761719 24.605469 1.578125 24.789062 1.578125 25.015625 L 1.578125 26.074219 L 0.9375 26.074219 C 0.710938 26.074219 0.527344 26.257812 0.527344 26.484375 L 0.527344 29.0625 C 0.527344 29.289062 0.710938 29.472656 0.9375 29.472656 L 13.535156 29.472656 C 13.761719 29.472656 13.945312 29.289062 13.945312 29.0625 L 13.945312 26.484375 C 13.945312 26.257812 13.761719 26.074219 13.535156 26.074219 Z M 13.125 28.652344 L 1.347656 28.652344 L 1.347656 26.894531 L 13.125 26.894531 Z M 1.898438 19.09375 L 2.277344 19.09375 L 2.277344 22.585938 C 2.277344 23.398438 2.9375 24.058594 3.75 24.058594 L 10.71875 24.058594 C 11.53125 24.058594 12.195312 23.398438 12.195312 22.585938 L 12.195312 19.09375 L 12.570312 19.09375 C 12.796875 19.09375 12.980469 18.910156 12.980469 18.683594 L 12.980469 16.878906 C 12.980469 16.652344 12.796875 16.46875 12.570312 16.46875 L 1.898438 16.46875 C 1.671875 16.46875 1.488281 16.652344 1.488281 16.878906 L 1.488281 18.683594 C 1.488281 18.910156 1.671875 19.09375 1.898438 19.09375 Z M 11.375 22.585938 C 11.375 22.945312 11.082031 23.238281 10.71875 23.238281 L 3.75 23.238281 C 3.390625 23.238281 3.097656 22.945312 3.097656 22.585938 L 3.097656 19.09375 L 11.375 19.09375 Z M 2.308594 17.289062 L 12.160156 17.289062 L 12.160156 18.273438 L 2.308594 18.273438 Z M 3.882812 14.5 C 2.972656 12.921875 3.316406 11.71875 3.648438 10.554688 C 3.929688 9.566406 4.21875 8.546875 3.84375 7.140625 C 3.785156 6.921875 3.914062 6.695312 4.132812 6.636719 C 4.351562 6.578125 4.578125 6.707031 4.636719 6.925781 C 5.070312 8.550781 4.734375 9.734375 4.4375 10.777344 C 4.113281 11.914062 3.859375 12.8125 4.59375 14.089844 C 4.707031 14.285156 4.640625 14.539062 4.445312 14.652344 C 4.378906 14.6875 4.308594 14.707031 4.242188 14.707031 C 4.097656 14.707031 3.960938 14.632812 3.886719 14.5 Z M 10.214844 14.5 C 9.304688 12.921875 9.644531 11.71875 9.976562 10.554688 C 10.257812 9.566406 10.550781 8.546875 10.171875 7.140625 C 10.113281 6.921875 10.246094 6.695312 10.464844 6.636719 C 10.683594 6.578125 10.90625 6.707031 10.964844 6.925781 C 11.402344 8.550781 11.0625 9.734375 10.765625 10.777344 C 10.441406 11.914062 10.1875 12.8125 10.925781 14.089844 C 11.039062 14.285156 10.96875 14.539062 10.773438 14.652344 C 10.710938 14.6875 10.640625 14.707031 10.570312 14.707031 C 10.429688 14.707031 10.289062 14.632812 10.214844 14.5 Z M 7.050781 14.5 C 6.136719 12.921875 6.480469 11.71875 6.8125 10.554688 C 7.09375 9.566406 7.386719 8.546875 7.007812 7.140625 C 6.949219 6.921875 7.078125 6.695312 7.296875 6.636719 C 7.515625 6.578125 7.742188 6.707031 7.800781 6.925781 C 8.234375 8.550781 7.898438 9.734375 7.601562 10.777344 C 7.277344 11.914062 7.023438 12.8125 7.761719 14.089844 C 7.875 14.285156 7.804688 14.539062 7.609375 14.652344 C 7.546875 14.6875 7.472656 14.707031 7.40625 14.707031 C 7.261719 14.707031 7.125 14.632812 7.050781 14.5 Z M 16.847656 7.867188 L 16.847656 10.550781 C 16.847656 10.777344 16.664062 10.960938 16.4375 10.960938 C 16.210938 10.960938 16.027344 10.777344 16.027344 10.550781 L 16.027344 7.867188 C 16.027344 7.640625 16.210938 7.457031 16.4375 7.457031 C 16.664062 7.457031 16.847656 7.640625 16.847656 7.867188 Z M 15.394531 7.867188 L 15.394531 10.550781 C 15.394531 10.777344 15.210938 10.960938 14.984375 10.960938 C 14.757812 10.960938 14.574219 10.777344 14.574219 10.550781 L 14.574219 7.867188 C 14.574219 7.640625 14.757812 7.457031 14.984375 7.457031 C 15.210938 7.457031 15.394531 7.640625 15.394531 7.867188 Z M 24.601562 9.238281 C 27 9.238281 28.953125 7.28125 28.953125 4.882812 C 28.953125 2.480469 27 0.527344 24.601562 0.527344 C 22.199219 0.527344 20.246094 2.480469 20.246094 4.882812 C 20.246094 7.28125 22.199219 9.238281 24.601562 9.238281 Z M 24.601562 1.347656 C 26.546875 1.347656 28.132812 2.933594 28.132812 4.882812 C 28.132812 6.832031 26.546875 8.417969 24.601562 8.417969 C 22.652344 8.417969 21.066406 6.832031 21.066406 4.882812 C 21.066406 2.933594 22.652344 1.347656 24.601562 1.347656 Z M 24.601562 10.453125 C 21.914062 10.453125 19.726562 12.640625 19.726562 15.328125 L 19.726562 18.824219 L 16.683594 18.824219 L 16.683594 12.195312 L 17.304688 12.195312 C 17.855469 12.195312 18.300781 11.75 18.300781 11.199219 L 18.300781 7.21875 C 18.300781 6.671875 17.855469 6.222656 17.304688 6.222656 L 14.117188 6.222656 C 13.570312 6.222656 13.121094 6.671875 13.121094 7.21875 L 13.121094 11.199219 C 13.121094 11.75 13.570312 12.195312 14.117188 12.195312 L 14.738281 12.195312 L 14.738281 18.902344 C 13.804688 19.15625 13.113281 20.015625 13.113281 21.03125 C 13.113281 22.246094 14.101562 23.238281 15.316406 23.238281 L 19.726562 23.238281 L 19.726562 29.0625 C 19.726562 29.289062 19.910156 29.472656 20.136719 29.472656 L 29.0625 29.472656 C 29.289062 29.472656 29.472656 29.289062 29.472656 29.0625 L 29.472656 15.328125 C 29.472656 12.640625 27.285156 10.453125 24.601562 10.453125 Z M 13.941406 11.199219 L 13.941406 7.21875 C 13.941406 7.121094 14.019531 7.042969 14.117188 7.042969 L 17.304688 7.042969 C 17.402344 7.042969 17.480469 7.121094 17.480469 7.21875 L 17.480469 11.199219 C 17.480469 11.296875 17.402344 11.375 17.304688 11.375 L 14.117188 11.375 C 14.019531 11.375 13.941406 11.296875 13.941406 11.199219 Z M 15.863281 12.195312 L 15.863281 18.824219 L 15.558594 18.824219 L 15.558594 12.195312 Z M 28.652344 28.652344 L 20.546875 28.652344 L 20.546875 23.238281 L 21.933594 23.238281 C 23.148438 23.238281 24.140625 22.246094 24.140625 21.03125 L 24.140625 15.039062 C 24.140625 14.8125 23.957031 14.628906 23.730469 14.628906 C 23.503906 14.628906 23.320312 14.8125 23.320312 15.039062 L 23.320312 21.03125 C 23.320312 21.796875 22.699219 22.417969 21.933594 22.417969 L 15.316406 22.417969 C 14.554688 22.417969 13.933594 21.796875 13.933594 21.03125 C 13.933594 20.265625 14.554688 19.644531 15.316406 19.644531 L 20.136719 19.644531 C 20.363281 19.644531 20.546875 19.460938 20.546875 19.234375 L 20.546875 15.328125 C 20.546875 13.09375 22.363281 11.273438 24.601562 11.273438 C 26.835938 11.273438 28.652344 13.09375 28.652344 15.328125 Z M 28.652344 28.652344 "/>
</g>
</svg>
