<?xml version="1.0" encoding="UTF-8"?>
<svg xmlns="http://www.w3.org/2000/svg" xmlns:xlink="http://www.w3.org/1999/xlink" width="30px" height="30px" viewBox="0 0 30 30" version="1.1">
<g id="surface1">
<path style=" stroke:none;fill-rule:nonzero;fill:rgb(0%,0%,0%);fill-opacity:1;" d="M 27.171875 5.382812 C 26.6875 5.382812 26.25 5.570312 25.921875 5.882812 C 25.480469 5.644531 24.953125 5.601562 24.464844 5.773438 C 23.523438 6.109375 23.027344 7.144531 23.363281 8.089844 C 24.917969 12.472656 24.832031 12.210938 24.839844 12.28125 L 24.375 12.8125 C 24.277344 12.46875 24.085938 12.160156 23.8125 11.914062 C 23.03125 11.203125 21.835938 11.242188 21.101562 12.003906 L 16.804688 16.441406 C 16.238281 17.03125 15.925781 17.804688 15.925781 18.621094 L 15.925781 22.355469 L 15.609375 22.355469 C 15.378906 22.355469 15.164062 22.429688 14.992188 22.554688 C 14.816406 22.429688 14.601562 22.355469 14.371094 22.355469 L 14.054688 22.355469 L 14.054688 18.621094 C 14.054688 17.804688 13.742188 17.027344 13.175781 16.441406 L 8.882812 12.003906 C 8.144531 11.242188 6.953125 11.203125 6.167969 11.914062 C 5.894531 12.160156 5.703125 12.46875 5.605469 12.8125 L 5.144531 12.28125 C 5.144531 12.25 5.152344 12.21875 5.160156 12.191406 L 6.617188 8.089844 C 7.171875 6.523438 5.503906 5.109375 4.058594 5.882812 C 2.90625 4.789062 0.996094 5.605469 0.996094 7.195312 L 0.996094 11.359375 C 0.996094 12.390625 1.335938 13.414062 1.949219 14.238281 L 5.1875 18.6875 C 5.972656 19.773438 6.476562 21.03125 6.65625 22.355469 L 6.511719 22.355469 C 5.929688 22.355469 5.453125 22.828125 5.453125 23.414062 L 5.453125 28.941406 C 5.453125 29.523438 5.929688 30 6.511719 30 L 14.371094 30 C 14.601562 30 14.816406 29.925781 14.992188 29.796875 C 15.164062 29.925781 15.378906 30 15.609375 30 L 23.46875 30 C 24.054688 30 24.527344 29.523438 24.527344 28.941406 L 24.527344 28.359375 C 24.527344 28.117188 24.332031 27.917969 24.089844 27.917969 C 23.847656 27.917969 23.648438 28.117188 23.648438 28.359375 L 23.648438 28.941406 C 23.648438 29.039062 23.570312 29.121094 23.46875 29.121094 L 15.609375 29.121094 C 15.511719 29.121094 15.429688 29.039062 15.429688 28.941406 L 15.429688 25.542969 L 23.648438 25.542969 L 23.648438 26.308594 C 23.648438 26.550781 23.847656 26.746094 24.089844 26.746094 C 24.332031 26.746094 24.527344 26.550781 24.527344 26.308594 C 24.527344 25.710938 24.527344 24.011719 24.527344 23.414062 C 24.527344 22.828125 24.054688 22.355469 23.46875 22.355469 L 23.328125 22.355469 C 23.503906 21.03125 24.007812 19.773438 24.796875 18.6875 L 28.027344 14.242188 C 28.644531 13.414062 28.984375 12.390625 28.984375 11.359375 L 28.984375 7.195312 C 28.984375 6.195312 28.171875 5.382812 27.171875 5.382812 Z M 5.789062 7.792969 L 4.621094 11.078125 L 4.621094 7.195312 C 4.621094 7 4.589844 6.808594 4.53125 6.625 C 5.269531 6.300781 6.066406 7.015625 5.789062 7.792969 Z M 5.894531 18.171875 L 2.660156 13.71875 C 2.152344 13.039062 1.875 12.203125 1.875 11.359375 L 1.875 7.195312 C 1.875 6.679688 2.292969 6.261719 2.808594 6.261719 C 3.324219 6.261719 3.742188 6.679688 3.742188 7.195312 L 3.742188 11.546875 C 3.742188 11.855469 3.863281 12.148438 4.050781 12.363281 C 7.007812 15.761719 5.167969 13.734375 8.535156 17.378906 C 8.703125 17.554688 8.980469 17.566406 9.15625 17.402344 C 9.335938 17.238281 9.347656 16.960938 9.183594 16.78125 C 6.738281 14.140625 7.253906 14.707031 6.550781 13.898438 C 6.304688 13.476562 6.371094 12.917969 6.757812 12.566406 C 7.1875 12.171875 7.84375 12.195312 8.25 12.613281 L 12.542969 17.054688 C 12.953125 17.476562 13.175781 18.03125 13.175781 18.621094 L 13.175781 22.355469 L 7.542969 22.355469 C 7.359375 20.84375 6.792969 19.40625 5.894531 18.171875 Z M 14.550781 28.941406 C 14.550781 29.039062 14.46875 29.121094 14.371094 29.121094 L 6.511719 29.121094 C 6.414062 29.121094 6.332031 29.039062 6.332031 28.941406 L 6.332031 25.542969 L 14.550781 25.542969 Z M 14.550781 24.664062 L 6.332031 24.664062 L 6.332031 23.414062 C 6.332031 23.3125 6.414062 23.234375 6.511719 23.234375 L 14.371094 23.234375 C 14.46875 23.234375 14.550781 23.3125 14.550781 23.414062 Z M 24.191406 7.792969 C 24.019531 7.308594 24.273438 6.773438 24.761719 6.601562 C 24.988281 6.519531 25.230469 6.53125 25.449219 6.625 C 25.390625 6.808594 25.359375 7.003906 25.359375 7.195312 L 25.359375 11.078125 Z M 23.46875 23.234375 C 23.570312 23.234375 23.648438 23.3125 23.648438 23.414062 L 23.648438 24.664062 L 15.429688 24.664062 L 15.429688 23.414062 C 15.429688 23.3125 15.511719 23.234375 15.609375 23.234375 Z M 28.105469 11.359375 C 28.105469 12.203125 27.828125 13.039062 27.320312 13.722656 L 24.085938 18.171875 C 23.1875 19.40625 22.625 20.84375 22.441406 22.355469 L 16.804688 22.355469 L 16.804688 18.621094 C 16.804688 18.03125 17.027344 17.476562 17.4375 17.054688 L 21.730469 12.613281 C 22.136719 12.195312 22.792969 12.171875 23.222656 12.566406 C 23.613281 12.917969 23.675781 13.476562 23.429688 13.898438 C 22.726562 14.707031 23.242188 14.140625 20.800781 16.78125 C 20.632812 16.960938 20.644531 17.238281 20.824219 17.402344 C 21 17.566406 21.28125 17.554688 21.445312 17.378906 C 24.855469 13.6875 23.125 15.585938 25.84375 12.460938 C 25.945312 12.347656 26.238281 12.058594 26.238281 11.546875 L 26.238281 7.195312 C 26.238281 6.679688 26.65625 6.261719 27.171875 6.261719 C 27.6875 6.261719 28.105469 6.679688 28.105469 7.195312 Z M 28.105469 11.359375 "/>
<path style=" stroke:none;fill-rule:nonzero;fill:rgb(0%,0%,0%);fill-opacity:1;" d="M 15.96875 9.921875 C 15.726562 9.921875 15.53125 10.121094 15.53125 10.363281 C 15.53125 10.605469 15.726562 10.800781 15.96875 10.800781 L 21.617188 10.800781 C 22.042969 10.800781 22.386719 10.457031 22.386719 10.035156 L 22.386719 7.847656 C 22.386719 6.726562 21.746094 5.753906 20.816406 5.269531 C 21.152344 4.929688 21.359375 4.464844 21.359375 3.949219 C 21.359375 2.917969 20.519531 2.074219 19.484375 2.074219 C 18.453125 2.074219 17.609375 2.917969 17.609375 3.949219 C 17.609375 4.464844 17.820312 4.929688 18.15625 5.269531 C 18.113281 5.292969 18.070312 5.3125 18.03125 5.339844 C 17.671875 4.707031 17.121094 4.195312 16.457031 3.886719 C 16.917969 3.480469 17.210938 2.882812 17.210938 2.222656 C 17.210938 0.996094 16.214844 0 14.992188 0 C 13.765625 0 12.769531 0.996094 12.769531 2.222656 C 12.769531 2.882812 13.0625 3.480469 13.523438 3.886719 C 12.859375 4.195312 12.308594 4.707031 11.949219 5.339844 C 11.910156 5.3125 11.867188 5.292969 11.824219 5.269531 C 12.160156 4.929688 12.371094 4.464844 12.371094 3.949219 C 12.371094 2.917969 11.527344 2.074219 10.496094 2.074219 C 9.460938 2.074219 8.621094 2.917969 8.621094 3.949219 C 8.621094 4.464844 8.828125 4.929688 9.164062 5.269531 C 8.234375 5.753906 7.59375 6.726562 7.59375 7.847656 L 7.59375 10.035156 C 7.59375 10.457031 7.941406 10.800781 8.363281 10.800781 L 13.917969 10.800781 C 14.160156 10.800781 14.359375 10.605469 14.359375 10.363281 C 14.359375 10.121094 14.160156 9.921875 13.917969 9.921875 L 12.375 9.921875 L 12.375 7.058594 C 12.375 5.625 13.539062 4.441406 14.992188 4.441406 C 16.4375 4.441406 17.605469 5.617188 17.605469 7.058594 L 17.605469 9.921875 Z M 19.484375 2.953125 C 20.035156 2.953125 20.480469 3.402344 20.480469 3.949219 C 20.480469 4.5 20.035156 4.945312 19.484375 4.945312 C 18.9375 4.945312 18.488281 4.5 18.488281 3.949219 C 18.488281 3.402344 18.9375 2.953125 19.484375 2.953125 Z M 21.507812 7.847656 L 21.507812 9.921875 L 18.484375 9.921875 L 18.484375 7.058594 C 18.484375 6.746094 18.441406 6.4375 18.371094 6.160156 C 19.710938 5.269531 21.507812 6.242188 21.507812 7.847656 Z M 10.496094 2.953125 C 11.042969 2.953125 11.492188 3.402344 11.492188 3.949219 C 11.492188 4.5 11.042969 4.945312 10.496094 4.945312 C 9.945312 4.945312 9.5 4.5 9.5 3.949219 C 9.5 3.402344 9.945312 2.953125 10.496094 2.953125 Z M 11.496094 7.058594 L 11.496094 9.921875 L 8.472656 9.921875 L 8.472656 7.847656 C 8.472656 6.242188 10.269531 5.269531 11.613281 6.160156 C 11.539062 6.433594 11.496094 6.746094 11.496094 7.058594 Z M 14.992188 3.5625 C 14.25 3.5625 13.648438 2.960938 13.648438 2.222656 C 13.648438 1.480469 14.25 0.878906 14.992188 0.878906 C 15.730469 0.878906 16.332031 1.480469 16.332031 2.222656 C 16.332031 2.960938 15.730469 3.5625 14.992188 3.5625 Z M 14.992188 3.5625 "/>
</g>
</svg>
