<?xml version="1.0" encoding="UTF-8"?>
<svg xmlns="http://www.w3.org/2000/svg" xmlns:xlink="http://www.w3.org/1999/xlink" width="70px" height="70px" viewBox="0 0 70 70" version="1.1">
<g id="surface1">
<path style=" stroke:none;fill-rule:nonzero;fill:rgb(0%,0%,0%);fill-opacity:1;" d="M 54.785156 23.578125 C 53.175781 23.578125 51.863281 24.890625 51.863281 26.503906 L 51.863281 33.898438 L 48.839844 35.644531 C 47.042969 36.679688 45.675781 37.210938 44.414062 37.359375 C 42.734375 37.558594 41.742188 37.160156 40.375 36.613281 C 39.855469 36.40625 39.269531 36.167969 38.597656 35.953125 C 36.695312 35.335938 32.519531 35.03125 31.046875 37.753906 C 28.808594 38.335938 24.179688 39.210938 21.160156 37.46875 L 18.136719 35.722656 L 18.136719 28.328125 C 18.136719 26.714844 16.824219 25.402344 15.214844 25.402344 C 13.601562 25.402344 12.289062 26.714844 12.289062 28.328125 L 12.289062 37.34375 C 12.289062 38.429688 12.800781 39.402344 13.695312 40.019531 L 18.679688 43.445312 C 18.789062 43.523438 18.839844 43.617188 18.839844 43.75 L 18.839844 68.496094 C 18.839844 69.023438 19.265625 69.453125 19.796875 69.453125 L 25.308594 69.453125 C 25.78125 69.453125 26.183594 69.109375 26.253906 68.640625 L 26.550781 66.703125 L 26.847656 68.640625 C 26.921875 69.109375 27.324219 69.453125 27.792969 69.453125 L 33.308594 69.453125 C 33.835938 69.453125 34.265625 69.023438 34.265625 68.496094 L 34.265625 46.070312 L 35.023438 46.070312 L 35.023438 68.496094 C 35.023438 69.023438 35.449219 69.453125 35.980469 69.453125 L 41.847656 69.453125 C 42.320312 69.453125 42.722656 69.109375 42.792969 68.640625 L 43.089844 66.703125 L 43.386719 68.640625 C 43.460938 69.109375 43.863281 69.453125 44.335938 69.453125 L 50.203125 69.453125 C 50.730469 69.453125 51.160156 69.023438 51.160156 68.496094 L 51.160156 41.925781 C 51.160156 41.789062 51.210938 41.695312 51.320312 41.621094 L 56.304688 38.195312 C 57.199219 37.578125 57.710938 36.601562 57.710938 35.519531 L 57.710938 26.503906 C 57.710938 24.890625 56.398438 23.578125 54.785156 23.578125 Z M 28.617188 67.539062 L 27.734375 61.777344 C 27.644531 61.191406 27.144531 60.765625 26.550781 60.765625 C 25.957031 60.765625 25.460938 61.191406 25.371094 61.777344 L 24.488281 67.539062 L 20.753906 67.539062 L 20.753906 55.75 L 32.351562 55.75 L 32.351562 67.539062 Z M 33.308594 44.15625 C 32.78125 44.15625 32.351562 44.585938 32.351562 45.113281 L 32.351562 53.835938 L 20.753906 53.835938 L 20.753906 43.75 C 20.753906 42.988281 20.390625 42.300781 19.761719 41.871094 L 14.78125 38.441406 C 14.398438 38.179688 14.203125 37.808594 14.203125 37.34375 L 14.203125 28.328125 C 14.203125 27.769531 14.65625 27.316406 15.214844 27.316406 C 15.769531 27.316406 16.222656 27.769531 16.222656 28.328125 L 16.222656 36 C 16.222656 36.519531 16.492188 36.984375 16.941406 37.246094 L 20.203125 39.125 C 23.738281 41.167969 28.671875 40.359375 31.558594 39.597656 C 34.585938 41.613281 34.90625 42.601562 35 44.15625 Z M 45.15625 67.539062 L 44.273438 61.777344 C 44.183594 61.191406 43.6875 60.765625 43.089844 60.765625 C 42.496094 60.765625 42 61.191406 41.910156 61.777344 L 41.027344 67.539062 L 36.9375 67.539062 L 36.9375 55.75 L 49.246094 55.75 L 49.246094 67.539062 Z M 55.796875 35.519531 C 55.796875 35.984375 55.601562 36.351562 55.21875 36.617188 L 50.234375 40.042969 C 49.605469 40.476562 49.246094 41.164062 49.246094 41.925781 L 49.246094 53.835938 L 36.9375 53.835938 L 36.9375 44.625 C 36.9375 44.609375 36.9375 44.597656 36.933594 44.582031 C 36.832031 42.117188 36.390625 40.613281 33.019531 38.277344 C 34.207031 37.078125 37.019531 37.453125 38.007812 37.773438 C 38.617188 37.972656 39.148438 38.183594 39.660156 38.390625 C 41.105469 38.96875 42.472656 39.515625 44.636719 39.261719 C 46.171875 39.082031 47.761719 38.476562 49.796875 37.300781 L 53.058594 35.417969 C 53.507812 35.160156 53.777344 34.691406 53.777344 34.171875 L 53.777344 26.503906 C 53.777344 25.945312 54.230469 25.492188 54.785156 25.492188 C 55.34375 25.492188 55.796875 25.945312 55.796875 26.503906 Z M 26.488281 38.417969 C 26.511719 38.417969 26.53125 38.417969 26.554688 38.417969 C 28.140625 38.417969 29.636719 37.566406 30.667969 36.066406 C 32.027344 34.101562 32.269531 31.382812 31.261719 29.457031 C 30.382812 27.785156 28.710938 26.863281 26.550781 26.863281 C 24.425781 26.863281 22.765625 27.761719 21.878906 29.390625 C 20.851562 31.277344 21.03125 33.894531 22.324219 35.902344 C 23.339844 37.472656 24.855469 38.390625 26.488281 38.417969 Z M 23.5625 30.304688 C 24.105469 29.308594 25.140625 28.777344 26.550781 28.777344 C 27.984375 28.777344 29.027344 29.320312 29.566406 30.347656 C 30.25 31.648438 30.050781 33.597656 29.09375 34.980469 C 28.40625 35.976562 27.492188 36.519531 26.515625 36.503906 C 25.535156 36.488281 24.59375 35.890625 23.933594 34.863281 C 23.019531 33.449219 22.867188 31.578125 23.5625 30.304688 Z M 38.417969 27.785156 C 37.390625 29.675781 37.570312 32.292969 38.863281 34.296875 C 39.878906 35.871094 41.394531 36.789062 43.027344 36.8125 C 43.050781 36.816406 43.074219 36.816406 43.09375 36.816406 C 44.679688 36.816406 46.175781 35.960938 47.207031 34.464844 C 48.566406 32.496094 48.808594 29.777344 47.800781 27.855469 C 46.921875 26.183594 45.25 25.261719 43.089844 25.261719 C 40.964844 25.261719 39.308594 26.160156 38.417969 27.785156 Z M 46.105469 28.746094 C 46.789062 30.042969 46.589844 31.992188 45.632812 33.378906 C 44.945312 34.375 44.035156 34.914062 43.054688 34.902344 C 42.078125 34.886719 41.132812 34.289062 40.472656 33.261719 C 39.558594 31.847656 39.40625 29.972656 40.101562 28.703125 C 40.644531 27.703125 41.679688 27.175781 43.089844 27.175781 C 44.523438 27.175781 45.566406 27.71875 46.105469 28.746094 Z M 38.09375 42.574219 L 42.207031 42.574219 L 42.207031 44.488281 L 38.09375 44.488281 Z M 32.125 27.800781 C 32.570312 28.066406 33.007812 28.324219 33.421875 28.574219 C 33.574219 28.667969 33.746094 28.714844 33.917969 28.714844 C 34.089844 28.714844 34.261719 28.667969 34.414062 28.574219 C 34.832031 28.324219 35.265625 28.066406 35.710938 27.800781 C 39.0625 25.8125 42.863281 23.558594 44.605469 20.625 C 45.363281 19.351562 45.730469 18 45.730469 16.496094 L 45.730469 5.851562 C 45.730469 5.414062 45.433594 5.03125 45.007812 4.921875 C 42.070312 4.175781 37.851562 2.832031 34.425781 0.691406 C 34.113281 0.5 33.722656 0.5 33.410156 0.691406 C 29.984375 2.832031 25.765625 4.175781 22.828125 4.921875 C 22.40625 5.03125 22.109375 5.414062 22.109375 5.851562 L 22.109375 16.496094 C 22.109375 18.003906 22.476562 19.351562 23.230469 20.625 C 24.972656 23.558594 28.773438 25.8125 32.125 27.800781 Z M 24.023438 6.589844 C 26.886719 5.816406 30.667969 4.546875 33.917969 2.625 C 37.171875 4.546875 40.953125 5.816406 43.816406 6.589844 L 43.816406 16.496094 C 43.816406 17.648438 43.535156 18.679688 42.960938 19.648438 C 41.46875 22.160156 37.890625 24.285156 34.734375 26.15625 C 34.457031 26.320312 34.1875 26.480469 33.917969 26.640625 C 33.652344 26.480469 33.378906 26.320312 33.101562 26.15625 C 29.945312 24.28125 26.371094 22.160156 24.875 19.648438 C 24.300781 18.679688 24.023438 17.648438 24.023438 16.496094 Z M 33.433594 25.519531 C 33.582031 25.605469 33.75 25.652344 33.917969 25.652344 C 34.085938 25.652344 34.253906 25.605469 34.402344 25.519531 C 37.695312 23.582031 41.015625 21.507812 42.339844 19.28125 C 42.855469 18.414062 43.09375 17.527344 43.09375 16.496094 L 43.09375 7.859375 C 43.09375 7.4375 42.8125 7.0625 42.40625 6.941406 C 39.351562 6.046875 36.652344 4.964844 34.378906 3.714844 C 34.09375 3.558594 33.746094 3.558594 33.457031 3.714844 C 31.183594 4.960938 28.484375 6.046875 25.433594 6.941406 C 25.023438 7.0625 24.742188 7.4375 24.742188 7.859375 L 24.742188 16.496094 C 24.742188 17.527344 24.984375 18.414062 25.496094 19.28125 C 26.820312 21.507812 30.144531 23.582031 33.433594 25.519531 Z M 26.65625 8.574219 C 29.363281 7.742188 31.800781 6.757812 33.917969 5.640625 C 36.035156 6.757812 38.472656 7.742188 41.179688 8.574219 L 41.179688 16.496094 C 41.179688 17.179688 41.03125 17.738281 40.695312 18.300781 C 39.59375 20.15625 36.214844 22.226562 33.917969 23.582031 C 31.625 22.226562 28.246094 20.15625 27.144531 18.300781 C 26.808594 17.738281 26.65625 17.179688 26.65625 16.496094 Z M 29.898438 19.085938 C 30.238281 19.675781 30.800781 20.050781 31.476562 20.140625 C 31.574219 20.152344 31.671875 20.160156 31.769531 20.160156 C 32.335938 20.160156 32.859375 19.941406 33.269531 19.53125 L 39.839844 12.960938 C 40.265625 12.535156 40.503906 11.964844 40.503906 11.355469 C 40.503906 10.75 40.265625 10.179688 39.839844 9.753906 C 39.414062 9.328125 38.84375 9.089844 38.238281 9.089844 C 37.628906 9.089844 37.058594 9.328125 36.632812 9.753906 L 32.269531 14.117188 L 31.566406 12.902344 C 31.261719 12.378906 30.773438 12.003906 30.1875 11.84375 C 29.601562 11.6875 28.992188 11.769531 28.46875 12.070312 C 27.945312 12.371094 27.570312 12.863281 27.414062 13.449219 C 27.253906 14.035156 27.335938 14.644531 27.636719 15.167969 Z M 29.261719 13.945312 C 29.273438 13.890625 29.316406 13.789062 29.425781 13.726562 C 29.484375 13.691406 29.546875 13.683594 29.597656 13.683594 C 29.636719 13.683594 29.667969 13.6875 29.691406 13.695312 C 29.746094 13.707031 29.84375 13.75 29.90625 13.859375 L 31.234375 16.15625 C 31.382812 16.414062 31.644531 16.585938 31.9375 16.625 C 32.234375 16.664062 32.527344 16.5625 32.738281 16.355469 L 37.984375 11.105469 C 38.074219 11.019531 38.179688 11.003906 38.238281 11.003906 C 38.292969 11.003906 38.398438 11.019531 38.488281 11.105469 C 38.574219 11.195312 38.589844 11.300781 38.589844 11.355469 C 38.589844 11.414062 38.574219 11.519531 38.488281 11.609375 L 31.917969 18.175781 C 31.859375 18.234375 31.808594 18.253906 31.726562 18.242188 C 31.640625 18.230469 31.597656 18.203125 31.554688 18.128906 L 29.292969 14.210938 C 29.230469 14.101562 29.246094 13.996094 29.261719 13.945312 Z M 29.261719 13.945312 "/>
</g>
</svg>
