<?xml version="1.0" encoding="UTF-8"?>
<svg xmlns="http://www.w3.org/2000/svg" xmlns:xlink="http://www.w3.org/1999/xlink" width="70px" height="70px" viewBox="0 0 70 70" version="1.1">
<g id="surface1">
<path style=" stroke:none;fill-rule:evenodd;fill:rgb(0%,0%,0%);fill-opacity:1;" d="M 14.605469 35.035156 C 15.078125 36.09375 15.707031 36.988281 16.449219 37.621094 C 15.707031 38.253906 15.078125 39.136719 14.605469 40.207031 C 14.132812 39.136719 13.5 38.253906 12.757812 37.621094 C 13.5 36.988281 14.132812 36.09375 14.605469 35.035156 Z M 10.734375 38.457031 C 12.238281 38.996094 13.464844 41.226562 13.71875 43.878906 C 13.761719 44.335938 14.144531 44.683594 14.605469 44.683594 C 15.0625 44.683594 15.449219 44.335938 15.492188 43.878906 C 15.742188 41.226562 16.96875 38.996094 18.472656 38.457031 C 19.257812 38.171875 19.25 37.058594 18.472656 36.777344 C 16.96875 36.238281 15.742188 34.007812 15.492188 31.351562 C 15.449219 30.898438 15.0625 30.550781 14.605469 30.550781 C 14.144531 30.550781 13.761719 30.898438 13.71875 31.351562 C 13.464844 34.007812 12.238281 36.238281 10.734375 36.777344 C 9.960938 37.058594 9.945312 38.167969 10.734375 38.457031 Z M 26.816406 10.402344 C 27.445312 12.015625 28.359375 13.328125 29.460938 14.191406 C 28.359375 15.046875 27.445312 16.363281 26.816406 17.980469 C 26.183594 16.363281 25.269531 15.046875 24.167969 14.191406 C 25.269531 13.328125 26.183594 12.015625 26.816406 10.402344 Z M 22.070312 15.027344 C 24.046875 15.742188 25.601562 18.53125 25.925781 21.976562 C 25.972656 22.433594 26.355469 22.777344 26.816406 22.777344 C 27.273438 22.777344 27.660156 22.429688 27.703125 21.976562 C 28.03125 18.53125 29.582031 15.742188 31.5625 15.027344 C 32.347656 14.742188 32.34375 13.628906 31.5625 13.355469 C 29.582031 12.640625 28.03125 9.84375 27.703125 6.40625 C 27.660156 5.949219 27.273438 5.597656 26.816406 5.597656 C 26.355469 5.597656 25.972656 5.949219 25.925781 6.40625 C 25.601562 9.84375 24.046875 12.640625 22.070312 13.347656 C 21.300781 13.625 21.273438 14.738281 22.070312 15.027344 Z M 52.546875 16.585938 C 52.976562 17.519531 53.539062 18.308594 54.195312 18.878906 C 53.539062 19.453125 52.976562 20.242188 52.546875 21.171875 C 52.117188 20.242188 51.554688 19.453125 50.898438 18.878906 C 51.554688 18.308594 52.117188 17.519531 52.546875 16.585938 Z M 48.898438 19.714844 C 50.289062 20.21875 51.425781 22.289062 51.660156 24.757812 C 51.703125 25.214844 52.085938 25.570312 52.546875 25.570312 C 53.003906 25.570312 53.390625 25.214844 53.433594 24.757812 C 53.667969 22.289062 54.804688 20.21875 56.191406 19.714844 C 56.976562 19.433594 56.976562 18.328125 56.191406 18.042969 C 54.804688 17.539062 53.667969 15.46875 53.433594 13 C 53.390625 12.542969 53.003906 12.191406 52.546875 12.191406 C 52.085938 12.191406 51.703125 12.542969 51.660156 13 C 51.425781 15.46875 50.289062 17.539062 48.898438 18.042969 C 48.117188 18.328125 48.113281 19.429688 48.898438 19.714844 Z M 58.457031 47.179688 C 55.246094 50.242188 50.019531 54.730469 45.875 57.421875 C 42.789062 59.421875 39.515625 61.300781 36.472656 61.550781 C 33.953125 61.757812 31.222656 60.773438 28.601562 60.402344 C 25.175781 59.90625 21.660156 59.871094 17.804688 59.90625 L 17.804688 50.023438 C 18.761719 49.800781 19.738281 49.5625 20.703125 49.304688 C 21.878906 48.984375 22.902344 48.464844 23.890625 47.96875 C 25.691406 47.070312 27.246094 46.289062 29.285156 46.902344 L 37.4375 49.359375 C 38.273438 49.609375 38.757812 50.507812 38.507812 51.351562 C 38.230469 52.269531 37.253906 52.578125 36.4375 52.398438 C 34.78125 52.050781 32.617188 51.488281 31.082031 51.339844 C 29.382812 51.171875 27.566406 51.585938 25.863281 52.230469 C 25.402344 52.40625 25.171875 52.917969 25.34375 53.378906 C 25.515625 53.84375 26.027344 54.074219 26.488281 53.902344 C 27.96875 53.347656 29.460938 52.972656 30.914062 53.113281 C 32.445312 53.261719 34.445312 53.8125 36.074219 54.148438 C 37.632812 54.46875 39.230469 53.828125 39.964844 52.453125 C 40.992188 52.359375 41.984375 52.148438 42.925781 51.835938 C 46.546875 50.628906 51.960938 47.507812 56.722656 44.847656 C 57.316406 44.511719 58.035156 44.640625 58.46875 45.171875 L 58.574219 45.296875 C 59.035156 45.859375 58.984375 46.683594 58.457031 47.179688 Z M 16.019531 62.179688 C 16.019531 62.417969 15.816406 62.621094 15.574219 62.621094 L 11.5625 62.621094 C 11.320312 62.621094 11.113281 62.417969 11.113281 62.179688 L 11.113281 48.800781 C 11.113281 48.554688 11.320312 48.351562 11.5625 48.351562 L 15.574219 48.351562 C 15.816406 48.351562 16.019531 48.554688 16.019531 48.800781 Z M 37.953125 47.65625 C 39.320312 48.066406 40.234375 49.269531 40.34375 50.617188 C 40.933594 50.535156 41.503906 50.40625 42.058594 50.242188 L 42.058594 41.867188 C 42.058594 39.308594 39.976562 37.230469 37.421875 37.230469 C 34.871094 37.230469 32.792969 39.308594 32.792969 41.867188 L 32.792969 46.097656 Z M 26.386719 32.925781 L 37.421875 24.492188 L 48.460938 32.925781 L 48.460938 47.363281 C 46.792969 48.242188 45.210938 49.011719 43.839844 49.582031 L 43.839844 41.867188 C 43.839844 38.328125 40.960938 35.449219 37.421875 35.449219 C 33.886719 35.449219 31.011719 38.328125 31.011719 41.867188 L 31.011719 45.5625 L 29.800781 45.191406 C 28.535156 44.8125 27.417969 44.832031 26.386719 45.058594 Z M 22.335938 33.773438 C 21.4375 34.476562 20.074219 33.742188 20.234375 32.558594 C 20.277344 32.203125 20.457031 31.898438 20.734375 31.6875 L 35.820312 20.160156 C 36.777344 19.429688 38.070312 19.429688 39.027344 20.160156 L 54.113281 31.6875 C 55.023438 32.382812 54.667969 33.875 53.484375 34.035156 C 53.136719 34.082031 52.789062 33.992188 52.511719 33.773438 L 38.394531 22.996094 C 37.816406 22.550781 37.035156 22.550781 36.453125 22.996094 Z M 59.949219 44.164062 L 59.84375 44.035156 C 58.867188 42.851562 57.1875 42.539062 55.847656 43.296875 C 54.003906 44.328125 52.125 45.398438 50.242188 46.410156 L 50.242188 34.285156 L 51.429688 35.191406 C 53.609375 36.859375 56.746094 35.066406 56.382812 32.320312 C 56.273438 31.496094 55.847656 30.765625 55.191406 30.269531 L 40.109375 18.742188 C 38.503906 17.519531 36.34375 17.519531 34.738281 18.742188 L 19.652344 30.269531 C 18.292969 31.304688 18.035156 33.25 19.074219 34.613281 C 20.109375 35.972656 22.058594 36.234375 23.417969 35.191406 L 24.605469 34.285156 L 24.605469 45.65625 C 23.167969 46.28125 21.722656 47.179688 20.234375 47.582031 C 19.40625 47.804688 18.558594 48.015625 17.722656 48.214844 C 17.464844 47.269531 16.601562 46.566406 15.574219 46.566406 L 11.5625 46.566406 C 10.332031 46.566406 9.332031 47.566406 9.332031 48.800781 L 9.332031 62.179688 C 9.332031 63.402344 10.332031 64.402344 11.5625 64.402344 L 15.574219 64.402344 C 16.804688 64.402344 17.804688 63.402344 17.804688 62.179688 L 17.804688 61.6875 C 21.59375 61.648438 25.035156 61.6875 28.347656 62.164062 C 31.136719 62.5625 33.644531 63.554688 36.617188 63.328125 C 40.054688 63.050781 43.566406 61.042969 46.84375 58.917969 C 51.160156 56.117188 56.363281 51.628906 59.683594 48.472656 C 60.882812 47.335938 61.003906 45.445312 59.949219 44.164062 Z M 59.949219 44.164062 "/>
</g>
</svg>
