<?xml version="1.0" encoding="UTF-8"?>
<svg xmlns="http://www.w3.org/2000/svg" xmlns:xlink="http://www.w3.org/1999/xlink" width="45px" height="45px" viewBox="0 0 45 45" version="1.1">
<g id="surface1">
<path style=" stroke:none;fill-rule:nonzero;fill:rgb(0%,0%,0%);fill-opacity:1;" d="M 30.039062 21.058594 L 28.496094 22.605469 L 27.585938 21.695312 C 27.328125 21.4375 26.910156 21.4375 26.652344 21.695312 C 26.394531 21.953125 26.394531 22.371094 26.652344 22.628906 L 28.027344 24.003906 C 28.285156 24.261719 28.703125 24.261719 28.960938 24.003906 L 30.972656 21.992188 C 31.230469 21.734375 31.230469 21.316406 30.972656 21.058594 C 30.714844 20.800781 30.296875 20.800781 30.039062 21.058594 Z M 30.039062 21.058594 "/>
<path style=" stroke:none;fill-rule:nonzero;fill:rgb(0%,0%,0%);fill-opacity:1;" d="M 21.320312 16.539062 L 21.320312 21.632812 L 19.230469 21.632812 C 18.867188 21.632812 18.570312 21.929688 18.570312 22.292969 C 18.570312 22.65625 18.867188 22.953125 19.230469 22.953125 L 23.707031 22.953125 C 24.03125 25.425781 26.148438 27.34375 28.710938 27.34375 C 31.273438 27.34375 33.394531 25.425781 33.71875 22.953125 L 43.269531 22.953125 C 44.222656 22.953125 44.996094 22.179688 44.996094 21.226562 L 44.996094 17.773438 C 44.996094 15.53125 43.6875 13.410156 41.5625 12.433594 C 42.609375 11.679688 43.292969 10.449219 43.292969 9.0625 C 43.292969 6.765625 41.425781 4.898438 39.128906 4.898438 C 36.835938 4.898438 34.96875 6.765625 34.96875 9.0625 C 34.96875 10.453125 35.652344 11.683594 36.703125 12.441406 C 36.230469 12.660156 35.789062 12.941406 35.386719 13.277344 C 34.601562 11.636719 33.195312 10.289062 31.457031 9.585938 C 32.921875 8.667969 33.898438 7.042969 33.898438 5.1875 C 33.898438 2.328125 31.570312 0 28.710938 0 C 25.851562 0 23.523438 2.328125 23.523438 5.1875 C 23.523438 7.046875 24.503906 8.679688 25.976562 9.59375 C 24.265625 10.289062 22.867188 11.617188 22.0625 13.28125 C 21.65625 12.9375 21.207031 12.652344 20.730469 12.433594 C 21.773438 11.675781 22.457031 10.445312 22.457031 9.0625 C 22.457031 6.765625 20.589844 4.898438 18.292969 4.898438 C 15.996094 4.898438 14.128906 6.765625 14.128906 9.0625 C 14.128906 10.449219 14.8125 11.679688 15.863281 12.4375 C 13.828125 13.375 12.425781 15.449219 12.425781 17.851562 L 12.425781 21.226562 C 12.425781 22.179688 13.199219 22.953125 14.152344 22.953125 L 16.152344 22.953125 C 16.519531 22.953125 16.8125 22.65625 16.8125 22.292969 C 16.8125 21.929688 16.519531 21.632812 16.152344 21.632812 L 14.152344 21.632812 C 13.925781 21.632812 13.742188 21.449219 13.742188 21.226562 L 13.742188 17.851562 C 13.742188 15.382812 15.636719 13.355469 18.054688 13.230469 C 19.347656 13.164062 20.621094 13.636719 21.566406 14.625 C 21.398438 15.253906 21.320312 15.921875 21.320312 16.539062 Z M 36.285156 9.0625 C 36.285156 7.492188 37.5625 6.21875 39.128906 6.21875 C 40.699219 6.21875 41.972656 7.492188 41.972656 9.0625 C 41.972656 10.625 40.703125 11.898438 39.140625 11.90625 C 39.132812 11.90625 39.125 11.90625 39.113281 11.90625 C 37.554688 11.898438 36.285156 10.625 36.285156 9.0625 Z M 38.890625 13.230469 C 41.476562 13.09375 43.679688 15.164062 43.679688 17.773438 L 43.679688 21.226562 C 43.679688 21.449219 43.496094 21.632812 43.269531 21.632812 L 36.105469 21.632812 L 36.105469 16.449219 C 36.105469 15.824219 36.015625 15.179688 35.875 14.621094 C 36.675781 13.78125 37.734375 13.289062 38.890625 13.230469 Z M 28.710938 26.027344 C 26.652344 26.027344 24.980469 24.351562 24.980469 22.292969 C 24.980469 20.234375 26.652344 18.5625 28.710938 18.5625 C 30.769531 18.5625 32.445312 20.234375 32.445312 22.292969 C 32.445312 24.351562 30.769531 26.027344 28.710938 26.027344 Z M 24.84375 5.1875 C 24.84375 3.054688 26.578125 1.320312 28.710938 1.320312 C 30.84375 1.320312 32.582031 3.054688 32.582031 5.1875 C 32.582031 7.320312 30.851562 9.050781 28.722656 9.058594 C 28.71875 9.058594 28.714844 9.058594 28.710938 9.058594 C 28.707031 9.058594 28.703125 9.058594 28.695312 9.058594 C 26.570312 9.050781 24.84375 7.316406 24.84375 5.1875 Z M 22.636719 16.539062 C 22.636719 13.164062 25.34375 10.421875 28.628906 10.375 C 32.042969 10.332031 34.785156 13.113281 34.785156 16.449219 L 34.785156 21.632812 L 33.71875 21.632812 C 33.394531 19.148438 31.253906 17.242188 28.710938 17.242188 C 26.15625 17.242188 24.027344 19.15625 23.703125 21.632812 L 22.636719 21.632812 Z M 18.304688 11.90625 C 18.296875 11.90625 18.292969 11.90625 18.289062 11.90625 C 16.722656 11.902344 15.449219 10.628906 15.449219 9.0625 C 15.449219 7.492188 16.726562 6.21875 18.292969 6.21875 C 19.859375 6.21875 21.136719 7.492188 21.136719 9.0625 C 21.136719 10.625 19.867188 11.898438 18.304688 11.90625 Z M 18.304688 11.90625 "/>
<path style=" stroke:none;fill-rule:nonzero;fill:rgb(0%,0%,0%);fill-opacity:1;" d="M 44.683594 31.195312 C 43.769531 29.28125 41.855469 28.929688 39.917969 29.6875 L 29.835938 32.667969 C 29.8125 31.667969 29.34375 30.464844 27.757812 29.832031 C 21.386719 27.289062 20.542969 26.820312 18.804688 26.789062 C 18.796875 26.789062 18.789062 26.789062 18.777344 26.789062 C 13.78125 26.804688 12.757812 26.847656 10.15625 28.011719 C 6.632812 29.585938 6.300781 30.636719 4.097656 31.242188 L 1.074219 32.074219 C 0.441406 32.25 0 32.828125 0 33.484375 L 0 43.539062 C 0 44.019531 0.234375 44.46875 0.632812 44.742188 C 1.027344 45.011719 1.53125 45.074219 1.980469 44.902344 L 12.472656 40.921875 C 14.699219 40.199219 16.953125 40.175781 18.660156 40.855469 L 22.765625 42.496094 C 22.777344 42.5 22.785156 42.503906 22.796875 42.507812 C 23.683594 42.8125 26.007812 43.390625 28.394531 42.171875 L 34.539062 39.453125 C 34.871094 39.308594 35.023438 38.917969 34.875 38.585938 C 34.726562 38.253906 34.339844 38.101562 34.003906 38.25 L 27.847656 40.972656 C 27.835938 40.976562 27.820312 40.984375 27.808594 40.992188 C 25.875 41.980469 23.980469 41.515625 23.242188 41.265625 L 19.148438 39.632812 C 17.125 38.824219 14.605469 38.839844 12.046875 39.671875 C 12.039062 39.675781 12.027344 39.679688 12.019531 39.683594 L 1.511719 43.671875 C 1.453125 43.691406 1.40625 43.675781 1.378906 43.65625 C 1.351562 43.636719 1.316406 43.601562 1.316406 43.539062 L 1.316406 33.484375 C 1.316406 33.417969 1.363281 33.363281 1.421875 33.347656 L 4.445312 32.515625 C 6.902344 31.839844 7.289062 30.738281 10.695312 29.214844 C 13.054688 28.160156 13.929688 28.125 18.765625 28.109375 L 18.769531 28.109375 C 20.242188 28.132812 20.957031 28.535156 27.269531 31.058594 C 28.957031 31.730469 28.425781 33.183594 28.425781 33.375 C 28.425781 33.378906 28.425781 33.382812 28.425781 33.386719 C 28.421875 33.390625 28.421875 33.398438 28.417969 33.402344 C 28.378906 33.535156 28.003906 34.671875 26.742188 34.363281 C 24.855469 33.902344 20.355469 32.820312 20.3125 32.808594 C 19.957031 32.722656 19.601562 32.941406 19.515625 33.292969 C 19.429688 33.648438 19.648438 34.003906 20.003906 34.089844 C 20.046875 34.101562 24.542969 35.183594 26.429688 35.644531 C 27.878906 36 29.007812 35.3125 29.550781 34.128906 C 40.828125 30.792969 40.3125 30.949219 40.398438 30.914062 C 41.242188 30.585938 42.765625 30.257812 43.492188 31.753906 C 44.226562 33.445312 42.554688 34.4375 42.164062 34.640625 C 41.847656 34.78125 39.515625 35.8125 36.820312 37.003906 C 36.484375 37.152344 36.335938 37.542969 36.480469 37.875 C 36.628906 38.207031 37.019531 38.359375 37.351562 38.210938 C 40.109375 36.992188 42.488281 35.9375 42.71875 35.835938 C 42.730469 35.832031 42.738281 35.828125 42.75 35.820312 C 43.953125 35.203125 45.714844 33.539062 44.691406 31.214844 C 44.691406 31.207031 44.6875 31.199219 44.683594 31.195312 Z M 44.683594 31.195312 "/>
</g>
</svg>
