<?xml version="1.0" encoding="UTF-8"?>
<svg xmlns="http://www.w3.org/2000/svg" xmlns:xlink="http://www.w3.org/1999/xlink" width="45px" height="45px" viewBox="0 0 45 45" version="1.1">
<g id="surface1">
<path style=" stroke:none;fill-rule:nonzero;fill:#21a96a;fill-opacity:1;" d="M 41.691406 30.027344 C 41.34375 29.90625 40.992188 29.796875 40.636719 29.707031 L 40.636719 20.953125 C 41.847656 20.792969 42.785156 19.753906 42.785156 18.5 L 42.785156 13.5625 C 42.785156 12.597656 42.230469 11.757812 41.417969 11.351562 L 41.417969 9.972656 C 41.417969 4.757812 37.175781 0.515625 31.960938 0.515625 L 29.355469 0.515625 C 24.140625 0.515625 19.898438 4.757812 19.898438 9.972656 L 19.898438 11.089844 C 18.542969 11.101562 17.445312 12.207031 17.445312 13.5625 L 17.445312 18.5 C 17.445312 19.589844 18.15625 20.515625 19.136719 20.847656 L 19.136719 21.472656 C 19.136719 22.558594 19.765625 23.496094 20.679688 23.941406 L 20.679688 27.992188 L 8.90625 27.992188 C 8.011719 27.992188 7.285156 28.722656 7.285156 29.613281 L 7.285156 42.863281 C 7.285156 43.757812 8.011719 44.484375 8.90625 44.484375 L 44.128906 44.484375 C 44.5625 44.484375 44.910156 44.132812 44.910156 43.699219 L 44.910156 34.589844 C 44.910156 32.511719 43.648438 30.722656 41.691406 30.027344 Z M 37.671875 29.296875 L 36.300781 28.292969 C 35.675781 27.835938 35.34375 27.183594 35.339844 26.40625 L 35.335938 25.445312 C 35.644531 25.277344 35.949219 25.09375 36.242188 24.890625 C 37.394531 24.09375 38.351562 23.074219 39.066406 21.898438 L 39.066406 29.402344 C 38.605469 29.34375 38.140625 29.304688 37.671875 29.296875 Z M 41.21875 18.5 C 41.21875 19 40.8125 19.40625 40.308594 19.40625 L 39.527344 19.40625 C 39.027344 19.40625 38.621094 19 38.621094 18.5 L 38.621094 13.5625 C 38.621094 13.0625 39.027344 12.65625 39.527344 12.65625 L 40.308594 12.65625 C 40.8125 12.65625 41.21875 13.0625 41.21875 13.5625 Z M 29.355469 2.082031 L 31.960938 2.082031 C 36.3125 2.082031 39.851562 5.621094 39.851562 9.972656 L 39.851562 11.089844 L 39.527344 11.089844 C 38.222656 11.089844 37.152344 12.101562 37.0625 13.382812 C 34.9375 13.121094 33.023438 12.011719 31.714844 10.265625 C 31.585938 10.09375 31.390625 9.980469 31.175781 9.957031 C 30.964844 9.929688 30.75 9.996094 30.582031 10.132812 C 29.164062 11.316406 27.375 11.96875 25.539062 11.96875 L 24.535156 11.96875 C 24.101562 11.96875 23.75 12.320312 23.75 12.75 C 23.75 13.183594 24.101562 13.535156 24.535156 13.535156 L 25.539062 13.535156 C 27.476562 13.535156 29.371094 12.929688 30.957031 11.816406 C 32.535156 13.601562 34.695312 14.714844 37.054688 14.960938 L 37.054688 18.5 C 37.054688 19.316406 37.449219 20.039062 38.058594 20.488281 C 36.660156 23.253906 33.769531 25.066406 30.660156 25.066406 C 29.359375 25.066406 28.117188 24.765625 27.007812 24.222656 L 28.589844 24.222656 C 29.023438 24.222656 29.375 23.871094 29.375 23.4375 C 29.375 23.003906 29.023438 22.652344 28.589844 22.652344 L 24.8125 22.652344 C 23.980469 21.824219 23.320312 20.808594 22.890625 19.65625 C 23.074219 19.308594 23.179688 18.917969 23.179688 18.5 L 23.179688 13.5625 C 23.179688 12.464844 22.457031 11.53125 21.464844 11.210938 L 21.464844 9.972656 C 21.464844 5.621094 25.007812 2.082031 29.355469 2.082031 Z M 21.886719 22.652344 C 21.234375 22.652344 20.703125 22.125 20.703125 21.472656 L 20.703125 20.976562 C 21.042969 20.976562 21.367188 20.90625 21.664062 20.78125 C 21.960938 21.441406 22.332031 22.070312 22.765625 22.652344 Z M 19.011719 13.5625 C 19.011719 13.0625 19.421875 12.65625 19.921875 12.65625 L 20.703125 12.65625 C 21.203125 12.65625 21.609375 13.0625 21.609375 13.5625 L 21.609375 18.5 C 21.609375 19 21.203125 19.40625 20.703125 19.40625 L 19.921875 19.40625 C 19.421875 19.40625 19.011719 19 19.011719 18.5 Z M 22.25 24.222656 L 24.214844 24.222656 C 24.40625 24.386719 24.605469 24.546875 24.808594 24.699219 C 25.109375 24.921875 25.425781 25.128906 25.746094 25.316406 L 25.738281 26.40625 C 25.734375 27.03125 25.527344 27.566406 25.121094 27.992188 L 22.25 27.992188 Z M 8.90625 42.917969 C 8.875 42.917969 8.851562 42.890625 8.851562 42.863281 L 8.851562 29.613281 C 8.851562 29.585938 8.875 29.5625 8.90625 29.5625 L 29.445312 29.5625 C 29.472656 29.5625 29.5 29.585938 29.5 29.613281 L 29.5 42.863281 C 29.5 42.890625 29.472656 42.917969 29.445312 42.917969 Z M 31.066406 42.917969 C 31.066406 42.898438 31.066406 42.882812 31.066406 42.863281 L 31.066406 40.28125 L 38.960938 40.28125 L 38.960938 41.597656 C 38.960938 42.324219 38.371094 42.917969 37.644531 42.917969 Z M 43.34375 42.917969 L 40.210938 42.917969 C 40.414062 42.519531 40.53125 42.074219 40.53125 41.597656 L 40.53125 39.496094 C 40.53125 39.0625 40.179688 38.710938 39.746094 38.710938 L 31.066406 38.710938 L 31.066406 29.613281 C 31.066406 28.71875 30.339844 27.992188 29.445312 27.992188 L 26.976562 27.992188 C 27.191406 27.507812 27.304688 26.976562 27.308594 26.414062 L 27.308594 26.046875 C 28.375 26.433594 29.5 26.636719 30.660156 26.636719 C 31.726562 26.636719 32.777344 26.460938 33.773438 26.128906 L 33.773438 26.414062 C 33.78125 27.6875 34.347656 28.804688 35.375 29.558594 L 36.554688 30.421875 C 36.058594 32.632812 34.386719 34.429688 32.191406 35.074219 C 31.773438 35.195312 31.535156 35.628906 31.65625 36.046875 C 31.757812 36.386719 32.070312 36.609375 32.410156 36.609375 C 32.480469 36.609375 32.554688 36.597656 32.628906 36.578125 C 35.335938 35.789062 37.402344 33.59375 38.058594 30.882812 C 39.121094 30.941406 40.164062 31.152344 41.167969 31.503906 C 42.511719 31.980469 43.34375 33.164062 43.34375 34.589844 Z M 25.273438 17.925781 L 25.273438 16.734375 C 25.273438 16.300781 25.625 15.949219 26.058594 15.949219 C 26.492188 15.949219 26.839844 16.300781 26.839844 16.734375 L 26.839844 17.925781 C 26.839844 18.359375 26.492188 18.710938 26.058594 18.710938 C 25.625 18.710938 25.273438 18.359375 25.273438 17.925781 Z M 34.476562 17.925781 L 34.476562 16.734375 C 34.476562 16.300781 34.828125 15.949219 35.257812 15.949219 C 35.691406 15.949219 36.042969 16.300781 36.042969 16.734375 L 36.042969 17.925781 C 36.042969 18.359375 35.691406 18.710938 35.257812 18.710938 C 34.828125 18.710938 34.476562 18.359375 34.476562 17.925781 Z M 27.910156 20.742188 C 28.152344 20.382812 28.640625 20.285156 29 20.523438 C 29.507812 20.867188 30.027344 21.050781 30.539062 21.070312 C 31.050781 21.050781 31.570312 20.867188 32.082031 20.523438 C 32.441406 20.285156 32.929688 20.378906 33.167969 20.742188 C 33.410156 21.101562 33.3125 21.585938 32.953125 21.828125 C 32.1875 22.339844 31.382812 22.613281 30.5625 22.640625 C 30.554688 22.640625 30.546875 22.640625 30.539062 22.640625 C 30.53125 22.640625 30.523438 22.640625 30.511719 22.640625 C 29.695312 22.613281 28.894531 22.339844 28.128906 21.828125 C 27.769531 21.585938 27.671875 21.101562 27.910156 20.742188 Z M 10.390625 15.578125 C 10.542969 15.746094 10.753906 15.835938 10.972656 15.835938 C 11.066406 15.835938 11.164062 15.820312 11.253906 15.785156 C 11.558594 15.667969 11.757812 15.375 11.757812 15.050781 L 11.757812 12.796875 L 15.351562 12.796875 C 16.582031 12.796875 17.585938 11.691406 17.585938 10.332031 L 17.585938 4.464844 C 17.585938 3.105469 16.582031 2 15.351562 2 L 2.316406 2 C 1.089844 2 0.0859375 3.105469 0.0859375 4.464844 L 0.0859375 10.332031 C 0.0859375 11.691406 1.089844 12.796875 2.316406 12.796875 L 7.878906 12.796875 Z M 1.65625 10.332031 L 1.65625 4.464844 C 1.65625 3.988281 1.964844 3.566406 2.316406 3.566406 L 15.351562 3.566406 C 15.707031 3.566406 16.015625 3.988281 16.015625 4.464844 L 16.015625 10.332031 C 16.015625 10.808594 15.707031 11.230469 15.351562 11.230469 L 10.972656 11.230469 C 10.539062 11.230469 10.1875 11.582031 10.1875 12.011719 L 10.1875 13.015625 L 8.808594 11.488281 C 8.660156 11.324219 8.445312 11.230469 8.226562 11.230469 L 2.316406 11.230469 C 1.964844 11.230469 1.65625 10.808594 1.65625 10.332031 Z M 3.203125 5.8125 C 3.203125 5.382812 3.554688 5.03125 3.988281 5.03125 L 13.609375 5.03125 C 14.042969 5.03125 14.394531 5.382812 14.394531 5.8125 C 14.394531 6.246094 14.042969 6.597656 13.609375 6.597656 L 3.988281 6.597656 C 3.554688 6.597656 3.203125 6.246094 3.203125 5.8125 Z M 13.554688 9.765625 L 3.933594 9.765625 C 3.5 9.765625 3.148438 9.417969 3.148438 8.984375 C 3.148438 8.550781 3.5 8.199219 3.933594 8.199219 L 13.554688 8.199219 C 13.988281 8.199219 14.339844 8.550781 14.339844 8.984375 C 14.339844 9.417969 13.988281 9.765625 13.554688 9.765625 Z M 13.554688 9.765625 "/>
</g>
</svg>
