<?xml version="1.0" encoding="UTF-8"?>
<svg xmlns="http://www.w3.org/2000/svg" xmlns:xlink="http://www.w3.org/1999/xlink" width="40px" height="40px" viewBox="0 0 40 40" version="1.1">
<g id="surface1">
<path style=" stroke:none;fill-rule:nonzero;fill:rgb(0%,0%,0%);fill-opacity:1;" d="M 20 13.652344 C 23.246094 13.652344 26.0625 11.34375 26.695312 8.160156 C 26.757812 7.84375 26.550781 7.535156 26.234375 7.472656 C 25.917969 7.410156 25.609375 7.617188 25.546875 7.933594 C 25.023438 10.566406 22.691406 12.480469 20 12.480469 C 16.882812 12.480469 14.347656 9.945312 14.347656 6.824219 C 14.347656 3.707031 16.882812 1.171875 20 1.171875 C 22.601562 1.171875 24.859375 2.933594 25.484375 5.453125 C 25.5625 5.769531 25.882812 5.960938 26.195312 5.882812 C 26.511719 5.800781 26.703125 5.484375 26.621094 5.171875 C 25.863281 2.125 23.140625 0 20 0 C 16.234375 0 13.171875 3.0625 13.171875 6.824219 C 13.175781 10.589844 16.234375 13.652344 20 13.652344 Z M 20 13.652344 "/>
<path style=" stroke:none;fill-rule:nonzero;fill:rgb(0%,0%,0%);fill-opacity:1;" d="M 22.585938 4.855469 L 19.578125 7.867188 L 17.414062 5.699219 C 17.183594 5.472656 16.8125 5.472656 16.582031 5.699219 C 16.355469 5.929688 16.355469 6.300781 16.582031 6.527344 L 19.164062 9.109375 C 19.273438 9.21875 19.421875 9.28125 19.578125 9.28125 C 19.734375 9.28125 19.882812 9.21875 19.992188 9.109375 L 23.417969 5.683594 C 23.644531 5.457031 23.644531 5.085938 23.417969 4.855469 C 23.1875 4.628906 22.816406 4.628906 22.585938 4.855469 Z M 22.585938 4.855469 "/>
<path style=" stroke:none;fill-rule:nonzero;fill:rgb(0%,0%,0%);fill-opacity:1;" d="M 39.386719 16.058594 L 37.472656 14.148438 C 37.246094 13.917969 36.875 13.917969 36.644531 14.148438 C 36.417969 14.375 36.417969 14.746094 36.644531 14.976562 L 38.445312 16.773438 L 34.539062 20.679688 L 27.269531 13.410156 L 31.175781 9.503906 L 34.710938 13.042969 C 34.941406 13.269531 35.3125 13.269531 35.539062 13.042969 C 35.769531 12.8125 35.769531 12.441406 35.539062 12.214844 L 31.890625 8.5625 C 31.496094 8.167969 30.851562 8.167969 30.457031 8.5625 L 26.328125 12.691406 C 25.933594 13.089844 25.933594 13.730469 26.328125 14.125 L 26.699219 14.496094 L 25.441406 15.753906 C 24.566406 16.628906 23.257812 16.898438 22.105469 16.441406 C 20.519531 15.8125 18.714844 16.183594 17.507812 17.390625 L 16.554688 18.34375 L 13.433594 15.222656 L 13.671875 14.984375 C 14.066406 14.589844 14.066406 13.949219 13.667969 13.550781 L 9.542969 9.421875 C 9.144531 9.027344 8.503906 9.027344 8.109375 9.421875 L 0.613281 16.917969 C 0.421875 17.109375 0.316406 17.363281 0.316406 17.632812 C 0.316406 17.90625 0.421875 18.160156 0.613281 18.351562 L 4.742188 22.480469 C 4.933594 22.671875 5.1875 22.777344 5.460938 22.777344 C 5.730469 22.777344 5.984375 22.671875 6.175781 22.480469 L 6.339844 22.316406 L 9.644531 25.621094 C 9.769531 25.742188 9.878906 25.875 9.984375 26.011719 L 6.777344 29.21875 C 5.9375 30.054688 5.9375 31.421875 6.777344 32.257812 C 7.195312 32.679688 7.746094 32.886719 8.296875 32.886719 C 8.316406 32.886719 8.339844 32.886719 8.359375 32.886719 C 8.359375 32.90625 8.359375 32.929688 8.359375 32.949219 C 8.359375 33.523438 8.582031 34.066406 8.988281 34.472656 C 9.394531 34.878906 9.933594 35.101562 10.507812 35.101562 C 10.53125 35.101562 10.550781 35.101562 10.574219 35.097656 C 10.558594 35.671875 10.765625 36.25 11.203125 36.683594 C 11.609375 37.089844 12.148438 37.3125 12.722656 37.3125 C 12.996094 37.3125 13.265625 37.261719 13.511719 37.164062 C 13.597656 37.550781 13.789062 37.917969 14.089844 38.21875 C 14.511719 38.636719 15.0625 38.847656 15.613281 38.847656 C 16.160156 38.847656 16.710938 38.636719 17.132812 38.21875 L 17.59375 37.757812 L 19.125 39.289062 C 19.582031 39.746094 20.195312 40 20.84375 40 C 21.496094 40 22.105469 39.746094 22.566406 39.289062 C 23.023438 38.828125 23.277344 38.214844 23.277344 37.566406 C 23.277344 37.503906 23.277344 37.441406 23.269531 37.378906 C 23.957031 37.429688 24.65625 37.195312 25.179688 36.675781 C 25.699219 36.152344 25.933594 35.449219 25.882812 34.765625 C 26.566406 34.816406 27.269531 34.582031 27.792969 34.0625 C 28.3125 33.539062 28.546875 32.835938 28.496094 32.152344 C 28.574219 32.160156 28.648438 32.160156 28.726562 32.160156 C 29.394531 32.148438 30.011719 31.871094 30.464844 31.382812 C 31.347656 30.4375 31.304688 28.90625 30.375 27.976562 L 28.550781 26.152344 L 33.457031 21.25 L 33.824219 21.621094 C 34.015625 21.8125 34.269531 21.917969 34.539062 21.917969 C 34.8125 21.917969 35.066406 21.8125 35.257812 21.621094 L 39.386719 17.492188 C 39.578125 17.300781 39.683594 17.046875 39.683594 16.773438 C 39.683594 16.503906 39.578125 16.25 39.386719 16.058594 Z M 7.605469 31.429688 C 7.222656 31.046875 7.222656 30.429688 7.605469 30.046875 L 11.230469 26.421875 C 11.417969 26.234375 11.660156 26.132812 11.921875 26.132812 C 11.929688 26.132812 11.9375 26.132812 11.945312 26.132812 C 12.214844 26.140625 12.460938 26.253906 12.644531 26.453125 C 12.992188 26.832031 12.964844 27.453125 12.582031 27.839844 L 8.988281 31.429688 C 8.609375 31.8125 7.988281 31.8125 7.605469 31.429688 Z M 11.203125 33.644531 C 11.015625 33.828125 10.769531 33.929688 10.507812 33.929688 C 10.25 33.929688 10.003906 33.828125 9.816406 33.640625 C 9.632812 33.457031 9.53125 33.210938 9.53125 32.949219 C 9.53125 32.6875 9.632812 32.445312 9.816406 32.257812 L 13.851562 28.222656 C 14.039062 28.039062 14.285156 27.9375 14.542969 27.9375 L 14.550781 27.9375 C 14.816406 27.9375 15.0625 28.042969 15.246094 28.234375 C 15.617188 28.617188 15.613281 29.230469 15.238281 29.605469 L 11.203125 33.640625 C 11.203125 33.640625 11.203125 33.644531 11.203125 33.644531 Z M 14.089844 35.179688 L 13.414062 35.855469 C 13.230469 36.039062 12.984375 36.140625 12.722656 36.140625 C 12.460938 36.140625 12.214844 36.039062 12.03125 35.855469 C 11.84375 35.671875 11.742188 35.425781 11.742188 35.164062 C 11.742188 34.902344 11.84375 34.65625 12.03125 34.472656 L 15.34375 31.15625 C 15.527344 30.972656 15.773438 30.871094 16.035156 30.871094 C 16.039062 30.871094 16.039062 30.871094 16.042969 30.871094 C 16.308594 30.875 16.554688 30.980469 16.738281 31.167969 C 17.105469 31.550781 17.101562 32.167969 16.726562 32.542969 Z M 18.066406 35.625 L 16.304688 37.390625 C 15.921875 37.773438 15.300781 37.773438 14.917969 37.390625 C 14.539062 37.007812 14.539062 36.390625 14.917969 36.007812 L 16.683594 34.242188 C 16.871094 34.054688 17.121094 33.957031 17.382812 33.957031 C 17.648438 33.957031 17.894531 34.0625 18.078125 34.253906 C 18.449219 34.632812 18.441406 35.25 18.066406 35.625 Z M 29.542969 28.804688 C 30.035156 29.296875 30.066406 30.09375 29.609375 30.585938 C 29.371094 30.839844 29.050781 30.984375 28.707031 30.988281 C 28.359375 30.992188 28.035156 30.863281 27.792969 30.621094 C 27.5625 30.390625 27.191406 30.390625 26.960938 30.621094 C 26.847656 30.734375 26.792969 30.882812 26.792969 31.035156 C 26.792969 31.183594 26.847656 31.332031 26.960938 31.449219 C 27.453125 31.941406 27.453125 32.742188 26.960938 33.230469 C 26.472656 33.722656 25.671875 33.722656 25.179688 33.230469 C 24.949219 33.003906 24.578125 33.003906 24.351562 33.230469 C 24.234375 33.347656 24.179688 33.496094 24.179688 33.648438 C 24.179688 33.796875 24.234375 33.945312 24.351562 34.0625 C 24.839844 34.554688 24.839844 35.355469 24.351562 35.84375 C 23.859375 36.335938 23.058594 36.335938 22.566406 35.84375 C 22.335938 35.617188 21.964844 35.617188 21.738281 35.84375 C 21.507812 36.074219 21.507812 36.445312 21.738281 36.675781 C 21.976562 36.914062 22.105469 37.230469 22.105469 37.566406 C 22.105469 37.902344 21.976562 38.21875 21.738281 38.457031 C 21.5 38.695312 21.179688 38.828125 20.84375 38.828125 C 20.507812 38.828125 20.191406 38.695312 19.953125 38.457031 L 18.421875 36.929688 L 18.894531 36.453125 C 19.722656 35.628906 19.734375 34.277344 18.921875 33.4375 C 18.644531 33.152344 18.304688 32.957031 17.933594 32.855469 C 18.355469 32.054688 18.238281 31.035156 17.578125 30.351562 C 17.285156 30.050781 16.921875 29.847656 16.523438 29.753906 C 16.847656 28.984375 16.703125 28.054688 16.089844 27.417969 C 15.683594 27 15.144531 26.769531 14.5625 26.765625 C 14.554688 26.765625 14.550781 26.765625 14.542969 26.765625 C 14.375 26.765625 14.207031 26.785156 14.046875 26.824219 C 13.992188 26.402344 13.816406 25.996094 13.511719 25.660156 C 13.109375 25.222656 12.5625 24.976562 11.96875 24.960938 C 11.578125 24.953125 11.199219 25.050781 10.867188 25.238281 C 10.746094 25.082031 10.617188 24.933594 10.476562 24.792969 L 7.167969 21.488281 L 9.804688 18.847656 C 10.035156 18.621094 10.035156 18.25 9.804688 18.019531 C 9.578125 17.792969 9.207031 17.792969 8.976562 18.019531 L 5.460938 21.539062 L 1.554688 17.632812 L 8.824219 10.363281 L 12.730469 14.269531 L 10.910156 16.085938 C 10.683594 16.316406 10.683594 16.6875 10.910156 16.914062 C 11.140625 17.144531 11.511719 17.144531 11.738281 16.914062 L 12.605469 16.050781 L 15.726562 19.171875 L 15.089844 19.8125 C 14.628906 20.269531 14.375 20.882812 14.375 21.53125 C 14.375 22.183594 14.628906 22.792969 15.089844 23.253906 C 15.546875 23.714844 16.160156 23.964844 16.808594 23.964844 C 17.457031 23.964844 18.070312 23.714844 18.53125 23.253906 L 20.230469 21.554688 C 20.695312 21.085938 21.4375 21.007812 21.992188 21.367188 C 21.996094 21.367188 21.996094 21.367188 21.996094 21.367188 Z M 27.722656 25.324219 L 24.085938 21.6875 C 24.089844 21.683594 24.097656 21.683594 24.105469 21.679688 L 27.148438 20.8125 C 27.460938 20.722656 27.640625 20.398438 27.550781 20.085938 C 27.460938 19.773438 27.136719 19.59375 26.824219 19.683594 L 23.785156 20.554688 C 23.390625 20.664062 22.972656 20.601562 22.628906 20.382812 C 21.613281 19.726562 20.257812 19.871094 19.402344 20.726562 L 17.699219 22.425781 C 17.460938 22.664062 17.144531 22.792969 16.808594 22.792969 C 16.472656 22.792969 16.15625 22.664062 15.917969 22.425781 C 15.425781 21.933594 15.425781 21.132812 15.917969 20.640625 L 18.339844 18.21875 C 19.214844 17.34375 20.523438 17.074219 21.671875 17.53125 C 23.257812 18.160156 25.0625 17.789062 26.269531 16.582031 L 27.527344 15.324219 L 32.625 20.421875 Z M 27.722656 25.324219 "/>
</g>
</svg>
