<?xml version="1.0" encoding="UTF-8"?>
<svg xmlns="http://www.w3.org/2000/svg" xmlns:xlink="http://www.w3.org/1999/xlink" width="40px" height="40px" viewBox="0 0 40 40" version="1.1">
<g id="surface1">
<path style=" stroke:none;fill-rule:nonzero;fill:rgb(0%,0%,0%);fill-opacity:1;" d="M 37.921875 24.988281 C 37.570312 24.402344 36.128906 22.65625 32.335938 24.867188 L 25.695312 28.734375 C 25.390625 28.914062 25.082031 29.042969 24.761719 29.125 C 24.875 28.929688 24.960938 28.714844 25.023438 28.476562 C 25.371094 27.191406 24.605469 25.851562 23.289062 25.421875 C 23.261719 25.414062 23.234375 25.40625 23.207031 25.402344 C 21.300781 25.058594 19.417969 24.378906 17.90625 23.832031 C 17.378906 23.640625 16.882812 23.460938 16.460938 23.324219 C 14.746094 22.769531 13.199219 23.453125 11.914062 24.199219 L 7.003906 27.042969 L 6.558594 26.25 C 6.121094 25.480469 5.140625 25.210938 4.371094 25.644531 L 2.507812 26.699219 C 2.136719 26.910156 1.871094 27.253906 1.753906 27.667969 C 1.640625 28.078125 1.695312 28.511719 1.902344 28.882812 L 7.382812 38.5625 C 7.675781 39.082031 8.21875 39.375 8.777344 39.375 C 9.046875 39.375 9.316406 39.308594 9.566406 39.167969 L 11.429688 38.113281 C 12.199219 37.679688 12.46875 36.699219 12.035156 35.929688 L 11.488281 34.960938 L 12.570312 34.335938 L 21.0625 36.613281 C 21.535156 36.738281 22.003906 36.800781 22.464844 36.800781 C 23.402344 36.800781 24.304688 36.542969 25.128906 36.035156 L 37.179688 28.617188 C 38.296875 27.929688 38.648438 26.203125 37.921875 24.988281 Z M 10.8125 37.027344 L 8.949219 38.078125 C 8.785156 38.175781 8.5625 38.113281 8.46875 37.945312 L 2.992188 28.269531 C 2.945312 28.1875 2.933594 28.089844 2.960938 28 C 2.984375 27.910156 3.042969 27.832031 3.125 27.785156 L 4.988281 26.730469 C 5.042969 26.703125 5.101562 26.6875 5.160156 26.6875 C 5.28125 26.6875 5.40625 26.753906 5.46875 26.867188 L 10.945312 36.542969 C 11.039062 36.710938 10.980469 36.929688 10.8125 37.027344 Z M 36.523438 27.550781 L 24.472656 34.972656 C 23.527344 35.554688 22.488281 35.699219 21.382812 35.40625 L 12.644531 33.0625 C 12.484375 33.019531 12.3125 33.042969 12.167969 33.125 L 10.871094 33.875 L 7.621094 28.128906 L 12.539062 25.28125 C 13.640625 24.644531 14.832031 24.109375 16.074219 24.511719 C 16.476562 24.644531 16.941406 24.8125 17.480469 25.007812 C 19.023438 25.566406 20.945312 26.257812 22.9375 26.625 C 23.613281 26.859375 23.988281 27.511719 23.816406 28.152344 C 23.59375 29 22.886719 29.105469 22.324219 29.039062 C 21.347656 28.839844 20.417969 28.574219 19.4375 28.292969 C 18.972656 28.160156 18.488281 28.023438 17.992188 27.890625 C 17.660156 27.800781 17.316406 27.996094 17.226562 28.332031 C 17.136719 28.664062 17.335938 29.007812 17.667969 29.097656 C 18.15625 29.226562 18.632812 29.363281 19.09375 29.496094 C 20.109375 29.785156 21.066406 30.058594 22.097656 30.269531 C 22.101562 30.269531 22.117188 30.273438 22.125 30.273438 L 22.949219 30.410156 C 24.191406 30.605469 25.296875 30.414062 26.324219 29.816406 L 32.964844 25.949219 C 34.855469 24.84375 36.308594 24.726562 36.851562 25.632812 C 37.222656 26.253906 37.058594 27.222656 36.523438 27.550781 Z M 5.511719 28.570312 C 5.5625 28.933594 5.3125 29.273438 4.949219 29.324219 C 4.585938 29.378906 4.246094 29.125 4.195312 28.761719 C 4.140625 28.398438 4.394531 28.0625 4.757812 28.007812 C 5.121094 27.957031 5.457031 28.207031 5.511719 28.570312 Z M 13.152344 14.847656 L 14.75 15.464844 C 14.980469 16.316406 15.320312 17.132812 15.757812 17.902344 L 15.0625 19.46875 C 14.960938 19.703125 15.011719 19.980469 15.195312 20.164062 L 17.386719 22.359375 C 17.570312 22.542969 17.847656 22.59375 18.082031 22.488281 L 19.648438 21.792969 C 20.417969 22.230469 21.234375 22.570312 22.089844 22.804688 L 22.703125 24.402344 C 22.796875 24.644531 23.027344 24.800781 23.285156 24.800781 L 26.390625 24.800781 C 26.648438 24.800781 26.878906 24.644531 26.972656 24.402344 L 27.589844 22.804688 C 28.441406 22.570312 29.257812 22.230469 30.027344 21.792969 L 31.59375 22.488281 C 31.832031 22.59375 32.105469 22.542969 32.289062 22.359375 L 34.484375 20.164062 C 34.667969 19.980469 34.71875 19.703125 34.613281 19.46875 L 33.917969 17.902344 C 34.355469 17.132812 34.695312 16.316406 34.929688 15.464844 L 36.527344 14.847656 C 36.769531 14.753906 36.925781 14.523438 36.925781 14.265625 L 36.925781 11.160156 C 36.925781 10.902344 36.769531 10.671875 36.527344 10.578125 L 34.929688 9.964844 C 34.695312 9.109375 34.355469 8.292969 33.917969 7.523438 L 34.613281 5.957031 C 34.71875 5.722656 34.667969 5.445312 34.484375 5.261719 L 32.289062 3.070312 C 32.105469 2.886719 31.828125 2.835938 31.59375 2.9375 L 30.027344 3.636719 C 29.257812 3.195312 28.441406 2.855469 27.589844 2.625 L 26.972656 1.027344 C 26.878906 0.785156 26.648438 0.625 26.390625 0.625 L 23.285156 0.625 C 23.027344 0.625 22.796875 0.785156 22.703125 1.027344 L 22.089844 2.625 C 21.234375 2.855469 20.417969 3.195312 19.648438 3.636719 L 18.082031 2.9375 C 17.847656 2.835938 17.570312 2.886719 17.386719 3.070312 L 15.195312 5.261719 C 15.011719 5.445312 14.960938 5.722656 15.0625 5.957031 L 15.761719 7.523438 C 15.320312 8.292969 14.980469 9.109375 14.75 9.964844 L 13.152344 10.578125 C 12.910156 10.671875 12.75 10.902344 12.75 11.160156 L 12.75 14.265625 C 12.75 14.523438 12.910156 14.753906 13.152344 14.847656 Z M 14 11.589844 L 15.5 11.015625 C 15.691406 10.941406 15.835938 10.777344 15.882812 10.574219 C 16.109375 9.628906 16.480469 8.726562 16.996094 7.894531 C 17.101562 7.71875 17.117188 7.5 17.035156 7.3125 L 16.382812 5.84375 L 17.96875 4.257812 L 19.4375 4.910156 C 19.625 4.992188 19.84375 4.976562 20.019531 4.871094 C 20.851562 4.355469 21.753906 3.984375 22.699219 3.757812 C 22.902344 3.710938 23.066406 3.566406 23.140625 3.375 L 23.714844 1.875 L 25.960938 1.875 L 26.539062 3.375 C 26.613281 3.566406 26.777344 3.710938 26.976562 3.757812 C 27.921875 3.984375 28.824219 4.355469 29.65625 4.871094 C 29.832031 4.976562 30.050781 4.992188 30.238281 4.910156 L 31.707031 4.257812 L 33.296875 5.84375 L 32.644531 7.3125 C 32.558594 7.5 32.574219 7.71875 32.683594 7.894531 C 33.195312 8.726562 33.570312 9.628906 33.792969 10.574219 C 33.84375 10.777344 33.984375 10.941406 34.179688 11.015625 L 35.675781 11.589844 L 35.675781 13.835938 L 34.175781 14.414062 C 33.984375 14.488281 33.839844 14.652344 33.792969 14.851562 C 33.570312 15.796875 33.195312 16.699219 32.683594 17.53125 C 32.574219 17.707031 32.558594 17.925781 32.644531 18.113281 L 33.296875 19.582031 L 31.707031 21.171875 L 30.238281 20.519531 C 30.050781 20.433594 29.835938 20.449219 29.660156 20.558594 C 28.828125 21.070312 27.925781 21.445312 26.976562 21.667969 C 26.777344 21.71875 26.613281 21.859375 26.539062 22.054688 L 25.960938 23.550781 L 23.714844 23.550781 L 23.140625 22.050781 C 23.066406 21.859375 22.902344 21.71875 22.699219 21.667969 C 21.753906 21.445312 20.851562 21.070312 20.019531 20.558594 C 19.84375 20.449219 19.625 20.433594 19.4375 20.519531 L 17.96875 21.171875 L 16.382812 19.582031 L 17.035156 18.113281 C 17.117188 17.925781 17.101562 17.710938 16.996094 17.535156 C 16.480469 16.703125 16.109375 15.800781 15.882812 14.851562 C 15.835938 14.652344 15.691406 14.488281 15.5 14.414062 L 14 13.835938 Z M 24.839844 18.75 C 28.167969 18.75 30.875 16.042969 30.875 12.714844 C 30.875 9.386719 28.167969 6.675781 24.839844 6.675781 C 21.511719 6.675781 18.800781 9.386719 18.800781 12.714844 C 18.800781 16.042969 21.511719 18.75 24.839844 18.75 Z M 21.75 16.367188 C 22.050781 14.917969 23.328125 13.859375 24.839844 13.859375 C 26.351562 13.859375 27.625 14.917969 27.925781 16.367188 C 27.09375 17.074219 26.015625 17.5 24.839844 17.5 C 23.664062 17.5 22.585938 17.074219 21.75 16.367188 Z M 24.839844 12.609375 C 24.128906 12.609375 23.554688 12.035156 23.554688 11.324219 C 23.554688 10.617188 24.128906 10.039062 24.839844 10.039062 C 25.546875 10.039062 26.125 10.617188 26.125 11.324219 C 26.125 12.035156 25.546875 12.609375 24.839844 12.609375 Z M 24.839844 7.925781 C 27.476562 7.925781 29.625 10.074219 29.625 12.714844 C 29.625 13.652344 29.351562 14.527344 28.882812 15.269531 C 28.457031 14.277344 27.679688 13.480469 26.714844 13.027344 C 27.125 12.578125 27.375 11.980469 27.375 11.324219 C 27.375 9.925781 26.238281 8.789062 24.839844 8.789062 C 23.441406 8.789062 22.304688 9.925781 22.304688 11.324219 C 22.304688 11.980469 22.554688 12.578125 22.960938 13.027344 C 21.996094 13.480469 21.21875 14.277344 20.792969 15.269531 C 20.324219 14.527344 20.050781 13.652344 20.050781 12.714844 C 20.050781 10.074219 22.199219 7.925781 24.839844 7.925781 Z M 24.839844 7.925781 "/>
</g>
</svg>
