<?xml version="1.0" encoding="UTF-8"?>
<svg xmlns="http://www.w3.org/2000/svg" xmlns:xlink="http://www.w3.org/1999/xlink" width="45px" height="45px" viewBox="0 0 45 45" version="1.1">
<g id="surface1">
<path style=" stroke:none;fill-rule:nonzero;fill:#21a96a;fill-opacity:1;" d="M 37.359375 36.191406 L 44.714844 29.570312 L 43.742188 28.492188 L 37.328125 34.265625 L 34.875 26.292969 L 40.054688 20.175781 C 41.808594 18.101562 42.777344 15.460938 42.777344 12.746094 L 42.777344 11.503906 C 42.777344 5.160156 37.617188 0 31.273438 0 C 28.199219 0 25.3125 1.195312 23.136719 3.371094 L 22.453125 4.054688 L 21.769531 3.371094 C 19.597656 1.195312 16.707031 0 13.632812 0 C 7.292969 0 2.132812 5.160156 2.132812 11.503906 L 2.132812 12.261719 C 2.132812 16.195312 4.105469 19.8125 7.414062 21.9375 L 12.1875 25.007812 L 10.382812 32.230469 L 1.070312 26.246094 L 0.285156 27.464844 L 10.328125 33.921875 C 11.023438 34.9375 11.855469 35.839844 12.808594 36.609375 C 12.164062 37.464844 12.230469 38.683594 13.003906 39.457031 C 13.417969 39.867188 13.964844 40.09375 14.546875 40.09375 C 14.613281 40.09375 14.683594 40.09375 14.75 40.085938 C 14.851562 40.4375 15.039062 40.765625 15.308594 41.035156 C 15.71875 41.445312 16.265625 41.671875 16.847656 41.671875 C 16.917969 41.671875 16.984375 41.667969 17.054688 41.660156 C 17.152344 42.011719 17.339844 42.339844 17.609375 42.609375 C 18.035156 43.035156 18.589844 43.246094 19.148438 43.246094 C 19.195312 43.246094 19.246094 43.242188 19.292969 43.238281 C 19.375 43.65625 19.574219 44.046875 19.886719 44.363281 C 20.296875 44.773438 20.84375 45 21.425781 45 C 22.007812 45 22.554688 44.773438 22.964844 44.363281 L 23.925781 43.402344 L 24.117188 43.550781 L 24.160156 43.582031 C 24.550781 43.839844 25 43.972656 25.457031 43.972656 C 25.660156 43.972656 25.859375 43.949219 26.058594 43.894531 C 26.703125 43.722656 27.246094 43.28125 27.546875 42.683594 C 27.65625 42.464844 27.726562 42.234375 27.761719 42 C 27.957031 42.054688 28.160156 42.082031 28.363281 42.082031 C 28.5625 42.082031 28.761719 42.054688 28.960938 42.003906 C 29.609375 41.832031 30.152344 41.390625 30.449219 40.789062 C 30.730469 40.230469 30.761719 39.605469 30.585938 39.046875 C 30.871094 38.945312 31.128906 38.792969 31.351562 38.597656 Z M 36.078125 35.140625 L 32.144531 36.714844 C 32.132812 36.519531 32.097656 36.328125 32.039062 36.140625 C 32.609375 35.941406 33.082031 35.527344 33.355469 34.984375 L 33.375 34.941406 C 33.890625 33.90625 33.582031 32.667969 32.644531 31.996094 L 29.363281 29.652344 C 28.792969 29.246094 28.125 29.03125 27.425781 29.03125 C 26.910156 29.03125 26.394531 29.152344 25.933594 29.382812 L 22.972656 30.863281 C 22.519531 31.089844 22.015625 31.210938 21.507812 31.210938 C 21.023438 31.210938 20.589844 30.941406 20.375 30.507812 C 20.308594 30.378906 20.277344 30.238281 20.277344 30.09375 C 20.277344 29.734375 20.488281 29.402344 20.816406 29.253906 L 26.019531 26.886719 C 27.128906 26.382812 28.308594 26.128906 29.527344 26.128906 C 30.082031 26.128906 30.640625 26.183594 31.1875 26.292969 L 33.5 26.753906 Z M 33.789062 25.332031 L 31.472656 24.871094 C 30.832031 24.742188 30.179688 24.675781 29.527344 24.675781 C 28.101562 24.675781 26.71875 24.976562 25.417969 25.566406 L 25.371094 25.589844 C 25.359375 25.527344 25.355469 25.464844 25.355469 25.402344 L 25.355469 21.046875 C 25.355469 20.246094 26.007812 19.597656 26.808594 19.597656 L 34.066406 19.597656 C 34.867188 19.597656 35.519531 20.246094 35.519531 21.046875 L 35.519531 23.289062 Z M 25.355469 15.242188 C 24.957031 15.242188 24.632812 14.917969 24.632812 14.515625 C 24.632812 14.117188 24.957031 13.789062 25.355469 13.789062 L 26.082031 13.789062 L 26.082031 15.242188 Z M 24.632812 10.886719 C 24.632812 8.886719 26.257812 7.257812 28.261719 7.257812 L 32.613281 7.257812 C 34.617188 7.257812 36.242188 8.886719 36.242188 10.886719 C 36.242188 11.40625 36.132812 11.910156 35.921875 12.378906 C 35.792969 12.351562 35.65625 12.339844 35.519531 12.339844 L 34.792969 12.339844 L 34.792969 11.613281 C 34.792969 10.414062 33.816406 9.433594 32.613281 9.433594 L 31.890625 9.433594 L 31.890625 10.886719 L 32.613281 10.886719 C 33.015625 10.886719 33.339844 11.210938 33.339844 11.613281 C 33.339844 12.011719 33.015625 12.339844 32.613281 12.339844 C 31.625 12.339844 30.75 11.707031 30.4375 10.769531 L 29.675781 8.480469 L 28.296875 8.9375 L 28.808594 10.472656 L 27.832031 10.667969 C 26.972656 10.839844 26.316406 11.511719 26.136719 12.339844 L 25.355469 12.339844 C 25.21875 12.339844 25.082031 12.351562 24.953125 12.378906 C 24.742188 11.910156 24.632812 11.40625 24.632812 10.886719 Z M 29.105469 18.144531 L 29.023438 18.117188 C 28.132812 17.820312 27.535156 16.992188 27.535156 16.050781 L 27.535156 12.804688 C 27.535156 12.457031 27.78125 12.160156 28.117188 12.089844 L 29.332031 11.847656 C 29.980469 13.03125 31.230469 13.789062 32.613281 13.789062 C 32.871094 13.789062 33.113281 13.746094 33.339844 13.664062 L 33.339844 16.050781 C 33.339844 16.992188 32.742188 17.820312 31.851562 18.117188 L 31.769531 18.144531 Z M 34.792969 13.789062 L 35.519531 13.789062 C 35.917969 13.789062 36.242188 14.117188 36.242188 14.515625 C 36.242188 14.917969 35.917969 15.242188 35.519531 15.242188 L 34.792969 15.242188 Z M 3.582031 12.261719 L 3.582031 11.503906 C 3.582031 5.960938 8.089844 1.453125 13.632812 1.453125 C 16.320312 1.453125 18.84375 2.496094 20.742188 4.394531 L 22.453125 6.105469 L 24.164062 4.394531 C 26.0625 2.496094 28.585938 1.453125 31.273438 1.453125 C 36.816406 1.453125 41.324219 5.960938 41.324219 11.503906 L 41.324219 12.746094 C 41.324219 15.121094 40.480469 17.425781 38.945312 19.238281 L 36.96875 21.574219 L 36.96875 21.046875 C 36.96875 19.46875 35.699219 18.179688 34.128906 18.148438 C 34.429688 17.71875 34.640625 17.222656 34.734375 16.695312 L 35.519531 16.695312 C 36.71875 16.695312 37.695312 15.714844 37.695312 14.515625 C 37.695312 13.980469 37.5 13.492188 37.179688 13.113281 C 37.519531 12.421875 37.695312 11.664062 37.695312 10.886719 C 37.695312 8.085938 35.417969 5.804688 32.613281 5.804688 L 28.261719 5.804688 C 25.457031 5.804688 23.179688 8.085938 23.179688 10.886719 C 23.179688 11.664062 23.355469 12.421875 23.695312 13.113281 C 23.375 13.492188 23.179688 13.980469 23.179688 14.515625 C 23.179688 15.714844 24.15625 16.695312 25.355469 16.695312 L 26.140625 16.695312 C 26.234375 17.222656 26.445312 17.71875 26.746094 18.148438 C 25.175781 18.179688 23.90625 19.46875 23.90625 21.046875 L 23.90625 25.402344 C 23.90625 25.675781 23.945312 25.945312 24.019531 26.203125 L 23.863281 26.273438 L 23.558594 26.089844 C 22.757812 25.609375 21.898438 25.25 21.003906 25.011719 L 21.003906 21.046875 C 21.003906 20.472656 20.832031 19.933594 20.542969 19.484375 C 21.308594 18.476562 21.726562 17.25 21.726562 15.96875 L 21.726562 13.066406 C 21.726562 9.0625 18.472656 5.804688 14.46875 5.804688 C 10.46875 5.804688 7.210938 9.0625 7.210938 13.066406 L 7.210938 15.96875 C 7.210938 17.25 7.628906 18.476562 8.398438 19.484375 C 8.1875 19.808594 8.042969 20.175781 7.976562 20.570312 C 5.222656 18.695312 3.582031 15.609375 3.582031 12.261719 Z M 13.136719 18.144531 L 13.054688 18.117188 C 12.164062 17.820312 11.566406 16.992188 11.566406 16.050781 L 11.566406 13.789062 C 11.566406 12.734375 12.320312 11.851562 13.320312 11.65625 C 14.148438 13.207031 15.652344 14.242188 17.371094 14.46875 L 17.371094 16.050781 C 17.371094 16.992188 16.773438 17.820312 15.882812 18.117188 L 15.804688 18.144531 Z M 18.097656 13.066406 C 16.585938 13.066406 15.222656 12.222656 14.546875 10.867188 L 14.191406 10.160156 L 13.742188 10.160156 C 11.742188 10.160156 10.113281 11.789062 10.113281 13.789062 L 10.113281 16.050781 C 10.113281 16.824219 10.355469 17.546875 10.777344 18.148438 C 10.304688 18.15625 9.859375 18.28125 9.46875 18.492188 C 8.945312 17.757812 8.664062 16.882812 8.664062 15.96875 L 8.664062 13.066406 C 8.664062 9.863281 11.269531 7.257812 14.46875 7.257812 C 17.671875 7.257812 20.277344 9.863281 20.277344 13.066406 L 20.277344 15.96875 C 20.277344 16.882812 19.992188 17.757812 19.472656 18.492188 C 19.078125 18.28125 18.632812 18.15625 18.160156 18.148438 C 18.582031 17.546875 18.824219 16.824219 18.824219 16.050781 L 18.824219 13.066406 Z M 9.390625 21.480469 L 9.390625 21.046875 C 9.390625 20.246094 10.039062 19.597656 10.839844 19.597656 L 18.097656 19.597656 C 18.898438 19.597656 19.550781 20.246094 19.550781 21.046875 L 19.550781 24.738281 C 19.1875 24.699219 18.820312 24.675781 18.453125 24.675781 L 18.132812 24.675781 C 17.667969 24.675781 17.199219 24.640625 16.742188 24.5625 L 13.285156 23.984375 Z M 14.03125 38.429688 C 13.894531 38.292969 13.820312 38.113281 13.820312 37.917969 C 13.820312 37.722656 13.894531 37.542969 14.03125 37.40625 L 15.058594 36.378906 C 15.199219 36.238281 15.386719 36.167969 15.570312 36.167969 C 15.757812 36.167969 15.945312 36.238281 16.085938 36.378906 C 16.222656 36.515625 16.296875 36.699219 16.296875 36.890625 C 16.296875 37.085938 16.222656 37.269531 16.085938 37.40625 L 15.058594 38.429688 C 14.921875 38.570312 14.738281 38.644531 14.546875 38.644531 C 14.351562 38.644531 14.167969 38.566406 14.03125 38.429688 Z M 16.335938 40.007812 C 16.175781 39.847656 16.101562 39.632812 16.128906 39.414062 L 17.113281 38.429688 C 17.292969 38.25 17.4375 38.046875 17.542969 37.820312 C 17.816406 37.679688 18.160156 37.726562 18.386719 37.953125 C 18.523438 38.089844 18.597656 38.273438 18.597656 38.46875 C 18.597656 38.660156 18.523438 38.84375 18.386719 38.980469 L 17.359375 40.007812 C 17.222656 40.144531 17.042969 40.21875 16.847656 40.21875 C 16.652344 40.21875 16.472656 40.144531 16.335938 40.007812 Z M 18.636719 41.582031 C 18.476562 41.425781 18.40625 41.207031 18.429688 40.992188 L 19.414062 40.007812 C 19.59375 39.828125 19.738281 39.621094 19.84375 39.398438 C 20.117188 39.253906 20.460938 39.300781 20.6875 39.53125 C 20.824219 39.667969 20.902344 39.851562 20.902344 40.042969 C 20.902344 40.238281 20.824219 40.421875 20.6875 40.558594 L 19.664062 41.582031 C 19.378906 41.867188 18.917969 41.867188 18.636719 41.582031 Z M 22.964844 42.308594 L 21.941406 43.335938 C 21.804688 43.472656 21.621094 43.546875 21.425781 43.546875 C 21.234375 43.546875 21.050781 43.472656 20.914062 43.335938 C 20.703125 43.125 20.644531 42.804688 20.761719 42.535156 L 21.714844 41.582031 C 21.824219 41.472656 21.921875 41.351562 22.003906 41.226562 C 22.289062 41.003906 22.707031 41.023438 22.964844 41.28125 C 23.105469 41.417969 23.179688 41.601562 23.179688 41.796875 C 23.179688 41.988281 23.105469 42.171875 22.964844 42.308594 Z M 30.039062 37.695312 C 29.847656 37.746094 29.652344 37.734375 29.476562 37.660156 L 25.445312 34.550781 L 24.996094 35.125 L 24.550781 35.699219 L 28.472656 38.753906 L 28.515625 38.785156 C 28.578125 38.824219 28.640625 38.863281 28.703125 38.894531 L 28.8125 38.980469 L 28.851562 39.007812 C 29.222656 39.257812 29.351562 39.742188 29.152344 40.140625 C 29.039062 40.371094 28.835938 40.535156 28.589844 40.601562 C 28.347656 40.664062 28.101562 40.625 27.890625 40.492188 L 23.625 37.167969 L 23.179688 37.742188 L 22.722656 38.308594 L 25.894531 40.863281 L 25.949219 40.902344 C 26.320312 41.148438 26.449219 41.636719 26.25 42.035156 C 26.132812 42.261719 25.933594 42.425781 25.683594 42.492188 C 25.445312 42.558594 25.195312 42.519531 24.988281 42.386719 L 24.609375 42.09375 C 24.625 41.996094 24.632812 41.898438 24.632812 41.796875 C 24.632812 41.214844 24.40625 40.667969 23.992188 40.257812 C 23.535156 39.796875 22.917969 39.589844 22.3125 39.628906 C 22.230469 39.207031 22.027344 38.816406 21.714844 38.503906 C 21.238281 38.027344 20.59375 37.816406 19.96875 37.875 C 19.871094 37.519531 19.679688 37.195312 19.414062 36.929688 C 18.933594 36.449219 18.292969 36.238281 17.667969 36.300781 C 17.566406 35.945312 17.378906 35.621094 17.113281 35.351562 C 16.261719 34.503906 14.882812 34.503906 14.03125 35.351562 L 13.820312 35.5625 C 12.980469 34.898438 12.246094 34.121094 11.625 33.242188 L 13.558594 25.503906 L 16.503906 25.996094 C 17.039062 26.082031 17.589844 26.128906 18.132812 26.128906 L 18.453125 26.128906 C 19.765625 26.128906 21.058594 26.433594 22.230469 27.015625 L 20.214844 27.933594 C 19.371094 28.316406 18.824219 29.164062 18.824219 30.09375 C 18.824219 30.460938 18.910156 30.828125 19.074219 31.15625 C 19.539062 32.085938 20.472656 32.660156 21.507812 32.660156 C 22.238281 32.660156 22.96875 32.488281 23.621094 32.164062 L 26.582031 30.683594 C 26.84375 30.550781 27.132812 30.484375 27.425781 30.484375 C 27.820312 30.484375 28.195312 30.605469 28.519531 30.835938 L 31.800781 33.179688 C 32.15625 33.433594 32.273438 33.902344 32.074219 34.292969 L 32.054688 34.335938 C 31.941406 34.5625 31.742188 34.726562 31.492188 34.792969 C 31.289062 34.847656 31.082031 34.828125 30.894531 34.742188 L 27.238281 32.078125 L 27.234375 32.074219 L 26.808594 32.660156 L 26.378906 33.246094 L 29.941406 35.863281 L 29.96875 35.882812 C 30.019531 35.917969 30.074219 35.949219 30.132812 35.980469 L 30.277344 36.089844 L 30.304688 36.105469 C 30.675781 36.351562 30.804688 36.839844 30.605469 37.238281 C 30.488281 37.46875 30.289062 37.628906 30.039062 37.695312 Z M 30.039062 37.695312 "/>
</g>
</svg>
