<svg id="Capa_1" enable-background="new 0 0 511.5 511.5" height="512" viewBox="0 0 511.5 511.5" width="512" xmlns="http://www.w3.org/2000/svg"><g id="Outline_00000165200934963011257430000011577654773838652823_"><path d="m.25 449.329h15v62.171h-15z"/><path d="m293.623 323.108-72.373-17.51v-23.044c14.135-12.514 23.46-30.384 24.81-50.429 18.846-19.256 29.19-44.57 29.19-71.626v-10.659c0-26.709-10.688-51.809-30.097-70.674-12.084-11.746-27.084-20.428-43.38-25.108l-1.95-.56-8.592 2.183-5.003-4.848-2.58-.269c-3.596-.374-7.263-.564-10.898-.564-56.519 0-102.5 44.789-102.5 99.841v10.659c0 27.056 10.344 52.37 29.19 71.626 1.35 20.045 10.674 37.914 24.81 50.429v23.044l-72.373 17.51c-30.397 7.353-51.627 34.331-51.627 65.606v45.614h15v-45.614c0-24.325 16.512-45.308 40.155-51.028l69.752-16.875c4.355 22.302 24.035 39.188 47.593 39.188s43.238-16.886 47.594-39.188l69.752 16.875c23.643 5.72 40.155 26.703 40.155 51.028v45.614h15v-45.614c-.001-31.275-21.231-58.253-51.628-65.607zm-194.373-159.234v44.12c-9.103-14.008-14-30.335-14-47.494v-10.659c0-46.781 39.252-84.841 87.5-84.841 2.267 0 4.547.086 6.807.256l7.25 7.025 12.733-3.235c13.192 4.114 25.312 11.305 35.159 20.876 16.478 16.017 25.552 37.295 25.552 59.918v10.66c0 17.159-4.897 33.485-14 47.494v-53.329l-5.692-1.414c-13.436-3.336-25.465-11.118-34.788-22.502l-7.76-9.476-4.913 11.219c-10.12 23.108-32.006 36.362-60.046 36.362-9.99 0-17.748-.807-24.414-2.54zm107 147.626c0 18.472-15.028 33.5-33.5 33.5s-33.5-15.028-33.5-33.5v-18.658c10.054 5.201 21.437 8.158 33.5 8.158s23.446-2.956 33.5-8.158zm-33.5-25.5c-32.257 0-58.5-26.429-58.5-58.915v-44.397c5.564.788 11.723 1.165 18.801 1.165 30.16 0 54.605-12.799 68.639-35.509 8.613 8.146 18.631 14.19 29.561 17.816v60.925c-.001 32.486-26.244 58.915-58.501 58.915z"/><path d="m330.25 449.329h15v62.171h-15z"/><path d="m264.25 401.5h15v110h-15z"/><path d="m66.25 401.5h15v110h-15z"/><path d="m172.75 256c-6.893 0-12.5-5.607-12.5-12.5h-15c0 15.164 12.336 27.5 27.5 27.5s27.5-12.336 27.5-27.5h-15c0 6.893-5.607 12.5-12.5 12.5z"/><path d="m491.02 250.114c-2.553-44.061-27.787-81.763-64.428-95.165-3.246-1.188-5.343-4.111-5.343-7.449s2.097-6.262 5.343-7.449c36.64-13.402 61.874-51.104 64.428-95.165 11.344-1.142 20.23-10.745 20.23-22.386 0-12.407-10.093-22.5-22.5-22.5h-72.143v15h72.143c4.136 0 7.5 3.364 7.5 7.5s-3.364 7.5-7.5 7.5h-180c-4.136 0-7.5-3.364-7.5-7.5s3.364-7.5 7.5-7.5h92.857v-15h-92.857c-12.407 0-22.5 10.093-22.5 22.5 0 11.64 8.885 21.244 20.23 22.386 2.553 44.061 27.787 81.763 64.428 95.165 3.246 1.188 5.343 4.111 5.343 7.449s-2.097 6.262-5.343 7.449c-36.64 13.402-61.874 51.104-64.428 95.165-11.344 1.142-20.23 10.745-20.23 22.386 0 12.407 10.093 22.5 22.5 22.5h180c12.407 0 22.5-10.093 22.5-22.5 0-11.64-8.885-21.244-20.23-22.386zm-69.58-81.078c22.149 8.101 39.375 26.964 48.228 50.964h-35.918c-6.893 0-12.5-5.607-12.5-12.5v-38.542c.065.024.126.054.19.078zm-91.621-89.036c-4.602-10.68-7.489-22.526-8.319-35h154.5c-.829 12.474-3.716 24.32-8.319 35zm46.241 89.036c.065-.024.126-.054.19-.078v38.542c0 6.893-5.607 12.5-12.5 12.5h-35.918c8.853-24 26.079-42.863 48.228-50.964zm112.69 110.964h-180c-4.136 0-7.5-3.364-7.5-7.5s3.364-7.5 7.5-7.5h42.857v-15h-30.107c.34-5.118 1.027-10.13 2.036-15h40.214c15.164 0 27.5-12.336 27.5-27.5v-60c0-9.558-6.104-18.213-15.19-21.536-15.526-5.679-28.633-16.648-38.137-30.964h121.655c-9.504 14.316-22.611 25.285-38.137 30.964-9.086 3.323-15.19 11.978-15.19 21.536v60c0 15.164 12.336 27.5 27.5 27.5h40.214c1.009 4.87 1.696 9.882 2.036 15h-109.394v15h122.143c4.136 0 7.5 3.364 7.5 7.5s-3.364 7.5-7.5 7.5z"/><path d="m471.25 332.5h-15v17.5h-17.5v15h17.5v17.5h15v-17.5h17.5v-15h-17.5z"/><path d="m425.25 380.5h-15v17.5h-17.5v15h17.5v17.5h15v-17.5h17.5v-15h-17.5z"/><path d="m408.75 330h-17.5v-17.5h-15v17.5h-17.5v15h17.5v17.5h15v-17.5h17.5z"/><path d="m300.25 377.5h15v15h-15z"/><path d="m300.25 407.5h15v15h-15z"/></g></svg>