<svg id="Image" height="512" viewBox="0 0 64 64" width="512" xmlns="http://www.w3.org/2000/svg"><g><path d="m44 44v15c0 1.324 2 1.323 2 0v-15c0-1.324-2-1.323-2 0z"/><path d="m48.443 13.284c.458-.911.663-1.967.5-3.056l-.296-1.981c-.412-2.759-2.911-4.612-5.546-4.186-2.637.427-4.45 2.988-4.043 5.712l.296 1.981c.085.572.279 1.103.535 1.596-2.989.819-5.475 3.089-6.48 6.16l-1.36 4.18c-.143.439.047.893.417 1.133l-.6 2.481-.668.323-3.873-3.786c.42-.684.675-1.481.675-2.341-.013-.886.031-1.076-.05-1.642.565-1.213.715-3.074-.1-4.527-.552-.982-1.744-2.127-4.231-2.296-.83-1.338-2.347-2.153-3.939-2.057-1.818.102-3.394 1.342-3.919 3.084-.461 1.525-.04 3.172 1.048 4.291-.117.889.131 1.539.518 2.174-5.177 2.876-8.713 8.183-9.336 14.18l-.99 19.24c-.029.577.43 1.053.999 1.053h4v4c0 1.324 2 1.323 2 0v-4h3v4c0 1.324 2 1.323 2 0v-4h3v4c0 1.324 2 1.323 2 0v-4h2c.552 0 1-.447 1-1v-16.475c.997-.522 1.788-1.432 2.192-3.177l1.569.996c.327.209.755.211 1.089-.011l2.262-1.5 2.997 2.248c.275.206.576.361.891.474v22.445c0 1.324 2 1.323 2 0v-19h10v19c0 1.324 2 1.323 2 0v-17.556c2.46 1.435 5-.107 5-2.444v-15c0-5.183-3.644-9.591-8.557-10.716zm-7.084 1.803c1.61 1.168 3.808 1.28 5.586-.03.078.008.155.017.232.027-.664 2.148-1.691 3.413-3.22 4.672-1.885-1.374-2.697-2.788-3.203-4.572.198-.043.402-.068.605-.097zm2.061-9.052c1.53-.247 3.001.844 3.249 2.506l.296 1.981c.246 1.646-.824 3.19-2.385 3.442-1.521.244-2.999-.834-3.249-2.506l-.295-1.981c-.247-1.646.823-3.19 2.384-3.442zm-20.039 13.392c.789.466 1.675.738 2.59.82.052.519.017.578.028 1.253 0 1.379-1.122 2.5-2.5 2.5-1.216 0-2.23-.874-2.452-2.027.949-.678 1.755-1.537 2.334-2.546zm-5.705-4.786c.284-.941 1.135-1.61 2.116-1.666.967-.046 1.902.517 2.289 1.42.141.331.495.61.926.607 1.569.001 2.612.441 3.099 1.309.335.596.371 1.344.262 1.965-.993-.034-1.913-.459-2.686-1.09-.841-.687-1.552-.029-1.617.378-.426 1.125-1.197 2.088-2.173 2.786-.318-.19-.772-.594-.98-1.044-.155-.335-.176-.651-.063-.942.15-.383-.019-.929-.333-1.164-.787-.59-1.125-1.618-.84-2.559zm7.324 38.359h-15.947l.932-18.137c.571-5.489 3.932-10.355 8.813-12.847.087.054.178.097.269.145.323 2.167 2.178 3.839 4.433 3.839.834 0 1.607-.244 2.278-.641.324.696.321 1.517-.05 2.229-1.131 2.167-4.391 1.612-4.738-.813-.186-1.31-2.167-1.028-1.979.283.582 4.074 5.866 5.306 8.195 1.936.273 1.776.549 4.811-.52 6.246-.766 1.03-2.497.818-2.723.487-.345-1.219-2.177-.789-1.945.455.125.675.894 1.818 2.982 1.818zm6.285-19.691-1.843-1.17c.026-1.275-.11-2.577-.299-3.721l1.157 1.132c.272.266.664.341 1.015.222-.082 1.045.33 2.07 1.118 2.776zm2.574-2.164c-.445-.334-.648-.898-.517-1.439l1.016-4.198 2.502.834-.737 2.548c-.114.394.023.815.346 1.067l3.648 2.844c1.143.892-.505 2.661-1.809 1.682zm6.141 6.855v-1.359c2.601-.684 3.342-3.862 1.347-5.419l-3.115-2.428.53-1.834c.557.137 1.033-.187 1.186-.645l1-3c.418-1.254-1.478-1.889-1.897-.633l-.684 2.052-4.109-1.37 1.052-3.234c.61-1.863 1.911-3.354 3.567-4.241.672 2.289 1.823 4.154 4.577 5.948.355.231.82.214 1.156-.046 2.103-1.619 3.612-3.283 4.504-6.236 3.445 1.279 5.886 4.606 5.886 8.445v3h-3v-2c0-1.324-2-1.323-2 0v13zm12 0v-9h3v10c0 1.7-3 1.131-3-1z"/><path d="m20 37.667v-2.667c.552 0 1-.447 1-1v-2c0-1.324-2-1.323-2 0v1h-4v-5c0-1.324-2-1.323-2 0v6c0 .553.448 1 1 1v4c0 .197.059.391.168.555l2.234 3.351c1.265 1.896 3.945 2.16 5.558.55.775-.776.864-2.023.206-2.901zm-.753 4.838c-.482-.048-.913-.307-1.182-.709l-2.065-3.099v-3.697h2v3c0 .217.07.427.2.6l2.365 3.153c.268.359-.712.804-1.318.752z"/></g></svg>