<?xml version="1.0" encoding="UTF-8"?>
<svg xmlns="http://www.w3.org/2000/svg" xmlns:xlink="http://www.w3.org/1999/xlink" width="40px" height="40px" viewBox="0 0 40 40" version="1.1">
<g id="surface1">
<path style=" stroke:none;fill-rule:nonzero;fill:rgb(0%,0%,0%);fill-opacity:1;" d="M 24.035156 19.453125 C 23.230469 19.253906 22.429688 19.117188 21.628906 19.035156 C 22.832031 18.277344 23.660156 16.710938 23.660156 14.90625 C 23.660156 12.574219 22.257812 11.125 20 11.125 C 17.742188 11.125 16.339844 12.574219 16.339844 14.90625 C 16.339844 16.707031 17.164062 18.269531 18.363281 19.03125 C 17.554688 19.109375 16.753906 19.25 15.960938 19.457031 C 13.816406 20.007812 12.632812 21.191406 12.632812 22.789062 L 12.632812 28.914062 C 12.632812 29.261719 12.914062 29.539062 13.257812 29.539062 C 13.605469 29.539062 13.882812 29.261719 13.882812 28.914062 L 13.882812 22.789062 C 13.882812 21.542969 15.179688 20.945312 16.269531 20.667969 C 18.699219 20.042969 21.210938 20.042969 23.734375 20.667969 C 24.625 20.886719 26.117188 21.457031 26.117188 22.789062 L 26.117188 28.914062 C 26.117188 29.261719 26.394531 29.539062 26.742188 29.539062 C 27.085938 29.539062 27.367188 29.261719 27.367188 28.914062 L 27.367188 22.789062 C 27.367188 21.195312 26.152344 19.980469 24.035156 19.453125 Z M 17.589844 14.90625 C 17.589844 12.703125 19.101562 12.375 20 12.375 C 20.898438 12.375 22.410156 12.703125 22.410156 14.90625 C 22.410156 16.761719 21.328125 18.269531 20 18.269531 C 18.671875 18.269531 17.589844 16.761719 17.589844 14.90625 Z M 16.945312 24.199219 L 16.945312 28.914062 C 16.945312 29.261719 16.667969 29.539062 16.320312 29.539062 C 15.976562 29.539062 15.695312 29.261719 15.695312 28.914062 L 15.695312 24.199219 C 15.695312 23.851562 15.976562 23.574219 16.320312 23.574219 C 16.667969 23.574219 16.945312 23.851562 16.945312 24.199219 Z M 24.304688 24.199219 L 24.304688 28.914062 C 24.304688 29.261719 24.023438 29.539062 23.679688 29.539062 C 23.332031 29.539062 23.054688 29.261719 23.054688 28.914062 L 23.054688 24.199219 C 23.054688 23.851562 23.332031 23.574219 23.679688 23.574219 C 24.023438 23.574219 24.304688 23.851562 24.304688 24.199219 Z M 19.375 5.59375 L 19.375 9.554688 C 19.375 9.902344 19.65625 10.179688 20 10.179688 C 20.34375 10.179688 20.625 9.902344 20.625 9.554688 L 20.625 5.59375 C 21.886719 5.308594 22.832031 4.175781 22.832031 2.832031 C 22.832031 1.269531 21.5625 0 20 0 C 18.4375 0 17.167969 1.269531 17.167969 2.832031 C 17.167969 4.175781 18.113281 5.308594 19.375 5.59375 Z M 20 1.25 C 20.871094 1.25 21.582031 1.960938 21.582031 2.832031 C 21.582031 3.703125 20.871094 4.410156 20 4.414062 C 19.128906 4.414062 18.417969 3.703125 18.417969 2.832031 C 18.417969 1.960938 19.128906 1.25 20 1.25 Z M 29.046875 15.402344 C 29.152344 15.402344 29.257812 15.375 29.359375 15.320312 L 32.789062 13.335938 C 33.332031 13.925781 34.09375 14.246094 34.875 14.246094 C 35.351562 14.246094 35.839844 14.125 36.285156 13.867188 C 37.636719 13.085938 38.101562 11.351562 37.320312 10 C 36.539062 8.648438 34.804688 8.183594 33.453125 8.964844 C 32.285156 9.636719 31.78125 11.019531 32.164062 12.253906 L 28.734375 14.238281 C 28.433594 14.410156 28.332031 14.792969 28.503906 15.089844 C 28.621094 15.289062 28.828125 15.402344 29.046875 15.402344 Z M 34.078125 10.046875 C 34.328125 9.902344 34.597656 9.835938 34.867188 9.835938 C 35.414062 9.835938 35.945312 10.117188 36.238281 10.625 C 36.675781 11.378906 36.414062 12.347656 35.660156 12.785156 C 34.902344 13.222656 33.933594 12.960938 33.5 12.207031 C 33.0625 11.453125 33.324219 10.480469 34.078125 10.046875 Z M 36.285156 26.132812 C 35.628906 25.753906 34.867188 25.652344 34.136719 25.851562 C 33.609375 25.992188 33.148438 26.273438 32.789062 26.664062 L 29.359375 24.679688 C 29.058594 24.507812 28.675781 24.609375 28.503906 24.910156 C 28.332031 25.207031 28.433594 25.589844 28.734375 25.761719 L 32.164062 27.746094 C 31.78125 28.980469 32.285156 30.363281 33.453125 31.035156 C 33.898438 31.292969 34.382812 31.414062 34.863281 31.414062 C 35.84375 31.414062 36.796875 30.90625 37.320312 30 C 38.101562 28.648438 37.636719 26.914062 36.285156 26.132812 Z M 36.238281 29.375 C 35.800781 30.128906 34.832031 30.390625 34.078125 29.953125 C 33.324219 29.519531 33.0625 28.550781 33.5 27.792969 C 33.710938 27.429688 34.050781 27.167969 34.460938 27.058594 C 34.59375 27.019531 34.734375 27.003906 34.871094 27.003906 C 35.144531 27.003906 35.414062 27.074219 35.660156 27.214844 C 36.414062 27.652344 36.675781 28.621094 36.238281 29.375 Z M 20.625 34.40625 L 20.625 30.445312 C 20.625 30.097656 20.34375 29.820312 20 29.820312 C 19.65625 29.820312 19.375 30.097656 19.375 30.445312 L 19.375 34.40625 C 18.113281 34.695312 17.167969 35.824219 17.167969 37.167969 C 17.167969 38.730469 18.4375 40 20 40 C 21.5625 40 22.832031 38.730469 22.832031 37.167969 C 22.832031 35.824219 21.886719 34.695312 20.625 34.40625 Z M 20 38.75 C 19.128906 38.75 18.417969 38.039062 18.417969 37.167969 C 18.417969 36.296875 19.128906 35.585938 20 35.585938 C 20.871094 35.585938 21.582031 36.296875 21.582031 37.167969 C 21.582031 38.039062 20.871094 38.75 20 38.75 Z M 10.640625 24.679688 L 7.210938 26.664062 C 6.851562 26.273438 6.390625 25.992188 5.863281 25.851562 C 5.132812 25.652344 4.371094 25.753906 3.714844 26.132812 C 2.363281 26.914062 1.898438 28.648438 2.679688 30 C 3.203125 30.90625 4.15625 31.414062 5.136719 31.414062 C 5.617188 31.414062 6.101562 31.292969 6.546875 31.035156 C 7.714844 30.363281 8.21875 28.980469 7.835938 27.746094 L 11.265625 25.761719 C 11.566406 25.589844 11.667969 25.207031 11.496094 24.910156 C 11.324219 24.609375 10.941406 24.507812 10.640625 24.679688 Z M 5.921875 29.953125 C 5.167969 30.390625 4.199219 30.128906 3.761719 29.375 C 3.324219 28.621094 3.585938 27.652344 4.339844 27.214844 C 4.707031 27.003906 5.132812 26.949219 5.539062 27.058594 C 5.949219 27.167969 6.289062 27.429688 6.5 27.792969 C 6.9375 28.546875 6.675781 29.519531 5.921875 29.953125 Z M 11.265625 14.238281 L 7.835938 12.253906 C 8.21875 11.019531 7.714844 9.636719 6.546875 8.964844 C 5.195312 8.183594 3.460938 8.648438 2.679688 10 C 1.898438 11.351562 2.363281 13.085938 3.714844 13.867188 C 4.160156 14.125 4.648438 14.246094 5.125 14.246094 C 5.90625 14.246094 6.667969 13.925781 7.210938 13.335938 L 10.640625 15.320312 C 10.742188 15.375 10.847656 15.402344 10.953125 15.402344 C 11.171875 15.402344 11.378906 15.289062 11.496094 15.089844 C 11.667969 14.792969 11.566406 14.410156 11.265625 14.238281 Z M 4.339844 12.785156 C 3.585938 12.347656 3.324219 11.378906 3.761719 10.625 C 4.199219 9.871094 5.167969 9.609375 5.921875 10.046875 C 6.675781 10.480469 6.9375 11.453125 6.5 12.207031 C 6.066406 12.960938 5.097656 13.222656 4.339844 12.785156 Z M 4.339844 12.785156 "/>
</g>
</svg>
