<?xml version="1.0" encoding="UTF-8"?>
<svg xmlns="http://www.w3.org/2000/svg" xmlns:xlink="http://www.w3.org/1999/xlink" width="40px" height="40px" viewBox="0 0 40 40" version="1.1">
<g id="surface1">
<path style=" stroke:none;fill-rule:evenodd;fill:rgb(0%,0%,0%);fill-opacity:1;" d="M 27.257812 1.40625 C 29.273438 1.40625 31.054688 2.710938 31.671875 4.628906 C 32.289062 6.546875 31.59375 8.644531 29.953125 9.816406 C 33.695312 10.917969 36.402344 14.167969 36.796875 18.046875 C 36.816406 18.222656 36.757812 18.398438 36.640625 18.527344 C 36.523438 18.65625 36.355469 18.730469 36.179688 18.734375 L 31.609375 18.734375 L 30.554688 19.691406 L 31.195312 22.777344 C 31.257812 23.089844 31.132812 23.410156 30.875 23.601562 C 30.613281 23.789062 30.269531 23.808594 29.992188 23.648438 L 27.257812 22.089844 L 24.519531 23.648438 C 24.242188 23.808594 23.898438 23.789062 23.636719 23.601562 C 23.378906 23.410156 23.253906 23.089844 23.316406 22.777344 L 23.957031 19.691406 L 22.90625 18.734375 L 18.332031 18.734375 C 18.148438 18.734375 17.96875 18.652344 17.851562 18.507812 C 17.734375 18.367188 17.683594 18.175781 17.71875 17.992188 C 18.136719 14.136719 20.835938 10.910156 24.558594 9.816406 C 22.917969 8.644531 22.226562 6.546875 22.839844 4.628906 C 23.457031 2.710938 25.242188 1.40625 27.257812 1.40625 Z M 6.6875 25.984375 C 6.59375 25.839844 6.449219 25.746094 6.28125 25.714844 C 6.117188 25.683594 5.945312 25.71875 5.804688 25.816406 L 1.679688 28.753906 C 1.527344 28.859375 1.429688 29.023438 1.410156 29.207031 C 1.390625 29.386719 1.453125 29.570312 1.582031 29.703125 L 9.933594 38.402344 C 10.148438 38.621094 10.488281 38.65625 10.738281 38.484375 L 13.511719 36.566406 C 13.648438 36.46875 13.742188 36.324219 13.769531 36.160156 C 13.800781 35.992188 13.761719 35.824219 13.664062 35.6875 L 13 34.769531 L 13.445312 34.449219 C 14.117188 33.953125 14.960938 33.753906 15.785156 33.902344 L 23.675781 35.191406 C 24.824219 35.398438 26.007812 35.121094 26.945312 34.425781 L 37.636719 26.742188 C 38.46875 26.144531 38.707031 25.421875 38.546875 24.726562 C 38.152344 22.988281 35.246094 21.878906 33.34375 23.25 L 27.90625 27.15625 C 27.300781 27.589844 26.726562 27.917969 26.15625 28.128906 C 26.75 26.585938 25.839844 24.480469 23.984375 24.175781 L 15.273438 22.75 C 14.125 22.546875 12.941406 22.824219 12.003906 23.519531 L 7.332031 26.878906 Z M 8.058594 27.890625 L 12.273438 33.757812 C 12.957031 33.265625 13.417969 32.917969 14.273438 32.71875 C 14.835938 32.589844 15.417969 32.570312 15.984375 32.671875 L 23.875 33.960938 C 24.699219 34.109375 25.546875 33.910156 26.21875 33.414062 L 36.910156 25.730469 C 37.441406 25.347656 37.449219 24.988281 37.105469 24.605469 C 36.457031 23.882812 35.015625 23.578125 34.070312 24.257812 L 28.632812 28.167969 C 27.128906 29.25 25.652344 29.855469 23.839844 29.566406 L 19.621094 28.878906 C 19.402344 28.84375 19.214844 28.691406 19.132812 28.484375 C 19.054688 28.273438 19.09375 28.039062 19.234375 27.863281 C 19.378906 27.691406 19.601562 27.609375 19.824219 27.648438 L 23.992188 28.328125 C 24.460938 28.316406 24.765625 28.109375 24.925781 27.824219 C 25.363281 27.035156 24.894531 25.589844 23.78125 25.40625 L 15.070312 23.980469 C 14.25 23.832031 13.402344 24.03125 12.730469 24.527344 L 8.058594 27.886719 Z M 12.28125 35.898438 L 10.464844 37.15625 L 2.980469 29.359375 L 6.023438 27.191406 Z M 30.921875 17.671875 L 31.335938 17.292969 L 28.816406 17.015625 C 28.59375 16.996094 28.398438 16.855469 28.304688 16.648438 L 27.257812 14.328125 L 26.210938 16.644531 C 26.121094 16.847656 25.929688 16.988281 25.707031 17.011719 L 23.175781 17.292969 L 25.058594 19.007812 C 25.222656 19.15625 25.292969 19.378906 25.25 19.59375 L 24.734375 22.09375 L 26.9375 20.835938 C 27.128906 20.722656 27.371094 20.71875 27.5625 20.828125 L 29.78125 22.09375 L 29.269531 19.632812 C 29.210938 19.40625 29.28125 19.164062 29.453125 19.007812 Z M 32.96875 17.484375 L 35.460938 17.484375 C 34.71875 13.539062 31.269531 10.683594 27.257812 10.683594 C 23.242188 10.683594 19.796875 13.539062 19.050781 17.484375 L 21.542969 17.484375 C 21.355469 17.253906 21.308594 16.9375 21.421875 16.660156 C 21.535156 16.382812 21.789062 16.191406 22.085938 16.15625 L 25.214844 15.8125 L 26.511719 12.945312 C 26.644531 12.652344 26.933594 12.464844 27.257812 12.464844 C 27.578125 12.464844 27.867188 12.652344 28 12.945312 L 29.296875 15.8125 L 32.425781 16.160156 C 32.722656 16.191406 32.976562 16.382812 33.089844 16.660156 C 33.203125 16.9375 33.15625 17.253906 32.96875 17.484375 Z M 27.257812 2.65625 C 25.386719 2.65625 23.867188 4.175781 23.867188 6.042969 C 23.867188 7.914062 25.386719 9.433594 27.257812 9.433594 C 29.128906 9.433594 30.644531 7.914062 30.644531 6.042969 C 30.644531 4.171875 29.128906 2.65625 27.257812 2.65625 Z M 27.257812 2.65625 "/>
</g>
</svg>
