<?xml version="1.0" encoding="UTF-8"?>
<svg xmlns="http://www.w3.org/2000/svg" xmlns:xlink="http://www.w3.org/1999/xlink" width="40px" height="40px" viewBox="0 0 40 40" version="1.1">
<g id="surface1">
<path style=" stroke:none;fill-rule:nonzero;fill:rgb(100%,100%,100%);fill-opacity:1;" d="M 3.40625 26.785156 L 6.8125 36.273438 C 7.035156 36.894531 7.722656 37.21875 8.34375 36.996094 L 11.535156 35.851562 C 12.15625 35.625 12.480469 34.941406 12.257812 34.320312 L 12.238281 34.265625 L 12.933594 34.015625 C 13.253906 33.902344 13.601562 33.890625 13.929688 33.984375 L 18.585938 35.351562 C 19.394531 35.585938 20.265625 35.457031 20.96875 34.988281 L 30.648438 28.589844 C 31.304688 28.15625 31.753906 27.460938 31.890625 26.683594 C 32.023438 25.910156 31.824219 25.105469 31.351562 24.476562 C 30.460938 23.289062 28.808594 22.984375 27.550781 23.777344 L 22.011719 27.238281 C 21.761719 26.765625 21.363281 26.382812 20.878906 26.152344 L 15.019531 23.390625 C 14.414062 23.109375 13.722656 23.074219 13.09375 23.296875 L 8.847656 24.824219 C 8.617188 24.207031 7.9375 23.886719 7.316406 24.109375 L 4.128906 25.253906 C 3.503906 25.480469 3.183594 26.164062 3.40625 26.785156 Z M 13.515625 24.472656 C 13.832031 24.359375 14.179688 24.378906 14.484375 24.519531 L 20.34375 27.28125 C 20.804688 27.503906 21.089844 27.976562 21.066406 28.488281 C 21.042969 29 20.710938 29.445312 20.230469 29.621094 C 19.914062 29.734375 19.566406 29.71875 19.265625 29.574219 L 16.074219 28.070312 C 15.761719 27.921875 15.390625 28.054688 15.242188 28.367188 C 15.097656 28.679688 15.230469 29.054688 15.542969 29.199219 L 18.730469 30.703125 C 19.066406 30.863281 19.433594 30.945312 19.800781 30.945312 C 20.089844 30.945312 20.375 30.898438 20.65625 30.796875 C 21.285156 30.574219 21.796875 30.105469 22.078125 29.5 C 22.230469 29.183594 22.304688 28.851562 22.316406 28.523438 L 28.214844 24.835938 C 28.921875 24.390625 29.851562 24.5625 30.355469 25.230469 C 30.625 25.589844 30.734375 26.03125 30.65625 26.472656 C 30.582031 26.914062 30.328125 27.300781 29.957031 27.546875 L 20.277344 33.945312 C 19.882812 34.207031 19.394531 34.28125 18.9375 34.148438 L 14.28125 32.785156 C 13.699219 32.613281 13.078125 32.632812 12.511719 32.839844 L 11.816406 33.089844 L 9.269531 25.996094 Z M 7.691406 25.300781 L 7.882812 25.832031 L 11.0625 34.691406 L 7.96875 35.800781 L 4.597656 26.410156 Z M 7.691406 25.300781 "/>
<path style=" stroke:none;fill-rule:nonzero;fill:rgb(100%,100%,100%);fill-opacity:1;" d="M 8.007812 29.191406 L 7.601562 28.0625 C 7.484375 27.734375 7.125 27.566406 6.800781 27.683594 C 6.476562 27.800781 6.308594 28.15625 6.421875 28.484375 L 6.828125 29.613281 C 6.945312 29.9375 7.304688 30.105469 7.628906 29.988281 C 7.953125 29.875 8.121094 29.515625 8.007812 29.191406 Z M 28.5625 11.320312 C 29.054688 10.839844 29.226562 10.136719 29.015625 9.484375 C 28.804688 8.828125 28.25 8.363281 27.570312 8.261719 L 23.730469 7.703125 C 23.554688 7.679688 23.402344 7.570312 23.324219 7.410156 L 21.605469 3.929688 C 21.300781 3.3125 20.6875 2.933594 20 2.933594 C 19.3125 2.933594 18.699219 3.3125 18.394531 3.929688 L 16.675781 7.410156 C 16.597656 7.570312 16.445312 7.679688 16.269531 7.703125 L 12.429688 8.261719 C 11.75 8.363281 11.195312 8.828125 10.984375 9.484375 C 10.773438 10.136719 10.945312 10.839844 11.4375 11.320312 L 14.214844 14.027344 C 14.34375 14.152344 14.402344 14.332031 14.371094 14.507812 L 13.71875 18.328125 C 13.597656 19 13.875 19.683594 14.429688 20.082031 C 14.980469 20.484375 15.710938 20.535156 16.316406 20.21875 L 19.75 18.410156 C 19.90625 18.328125 20.09375 18.328125 20.253906 18.410156 L 23.6875 20.21875 C 24.289062 20.535156 25.023438 20.484375 25.574219 20.082031 C 26.125 19.679688 26.402344 19 26.285156 18.328125 L 25.628906 14.503906 C 25.601562 14.328125 25.660156 14.148438 25.785156 14.027344 L 28.5625 11.316406 Z M 24.914062 13.132812 C 24.488281 13.542969 24.296875 14.136719 24.398438 14.71875 L 25.050781 18.539062 C 25.089844 18.742188 25.007812 18.949219 24.835938 19.070312 C 24.671875 19.195312 24.449219 19.210938 24.265625 19.109375 L 20.832031 17.304688 C 20.3125 17.03125 19.6875 17.03125 19.167969 17.304688 L 15.734375 19.109375 C 15.464844 19.253906 15.246094 19.128906 15.164062 19.070312 C 15.082031 19.011719 14.894531 18.839844 14.949219 18.539062 L 15.601562 14.71875 C 15.703125 14.136719 15.511719 13.542969 15.085938 13.132812 L 12.308594 10.421875 C 12.160156 10.28125 12.105469 10.0625 12.171875 9.867188 C 12.234375 9.671875 12.40625 9.527344 12.609375 9.5 L 16.449219 8.941406 C 17.03125 8.855469 17.539062 8.492188 17.796875 7.960938 L 19.515625 4.484375 C 19.648438 4.210938 19.898438 4.179688 20 4.179688 C 20.101562 4.179688 20.351562 4.210938 20.484375 4.484375 L 22.203125 7.960938 C 22.460938 8.488281 22.96875 8.855469 23.550781 8.941406 L 27.390625 9.5 C 27.691406 9.542969 27.796875 9.773438 27.828125 9.867188 C 27.894531 10.0625 27.839844 10.28125 27.6875 10.421875 L 24.910156 13.128906 Z M 37.890625 4.839844 L 33.722656 6.53125 C 33.402344 6.660156 33.25 7.023438 33.378906 7.34375 C 33.507812 7.664062 33.871094 7.816406 34.191406 7.6875 L 38.359375 6 C 38.679688 5.871094 38.835938 5.503906 38.703125 5.1875 C 38.574219 4.867188 38.210938 4.710938 37.890625 4.839844 Z M 33.957031 12.800781 L 38.125 12.800781 C 38.46875 12.800781 38.75 12.519531 38.75 12.175781 C 38.75 11.828125 38.46875 11.550781 38.125 11.550781 L 33.957031 11.550781 C 33.613281 11.550781 33.332031 11.828125 33.332031 12.175781 C 33.332031 12.519531 33.613281 12.800781 33.957031 12.800781 Z M 38.359375 18.347656 L 34.191406 16.660156 C 33.875 16.539062 33.519531 16.695312 33.390625 17.011719 C 33.265625 17.324219 33.410156 17.683594 33.722656 17.816406 L 37.890625 19.507812 C 38.042969 19.570312 38.214844 19.570312 38.367188 19.503906 C 38.523438 19.441406 38.640625 19.316406 38.703125 19.164062 C 38.832031 18.84375 38.679688 18.476562 38.359375 18.347656 Z M 6.277344 6.53125 L 2.109375 4.839844 C 1.792969 4.722656 1.4375 4.875 1.308594 5.191406 C 1.183594 5.503906 1.328125 5.863281 1.640625 6 L 5.808594 7.6875 C 5.960938 7.75 6.132812 7.75 6.285156 7.6875 C 6.441406 7.621094 6.558594 7.496094 6.621094 7.34375 C 6.75 7.023438 6.597656 6.660156 6.277344 6.53125 Z M 6.042969 11.550781 L 1.875 11.550781 C 1.53125 11.550781 1.25 11.828125 1.25 12.175781 C 1.25 12.519531 1.53125 12.800781 1.875 12.800781 L 6.042969 12.800781 C 6.386719 12.800781 6.667969 12.519531 6.667969 12.175781 C 6.667969 11.828125 6.386719 11.550781 6.042969 11.550781 Z M 1.296875 19.164062 C 1.425781 19.484375 1.789062 19.636719 2.109375 19.507812 L 6.277344 17.820312 C 6.597656 17.6875 6.75 17.324219 6.621094 17.003906 C 6.492188 16.683594 6.128906 16.53125 5.808594 16.660156 L 1.640625 18.347656 C 1.488281 18.410156 1.363281 18.53125 1.300781 18.683594 C 1.234375 18.835938 1.234375 19.007812 1.296875 19.164062 Z M 1.296875 19.164062 "/>
</g>
</svg>
