<?xml version="1.0" encoding="UTF-8"?>
<svg xmlns="http://www.w3.org/2000/svg" xmlns:xlink="http://www.w3.org/1999/xlink" width="45px" height="45px" viewBox="0 0 45 45" version="1.1">
<g id="surface1">
<path style=" stroke:none;fill-rule:nonzero;fill:rgb(0%,0%,0%);fill-opacity:1;" d="M 28.246094 21.507812 C 28.25 21.5 28.253906 21.492188 28.257812 21.488281 C 28.539062 20.847656 29.144531 20.410156 29.839844 20.347656 C 29.847656 20.347656 29.855469 20.347656 29.859375 20.347656 C 31.835938 20.160156 33.234375 18.28125 32.785156 16.292969 C 32.628906 15.605469 32.863281 14.890625 33.40625 14.414062 C 34.898438 13.105469 34.933594 10.757812 33.394531 9.40625 C 32.867188 8.945312 32.636719 8.234375 32.785156 7.554688 C 32.785156 7.546875 32.785156 7.542969 32.789062 7.535156 C 33.234375 5.574219 31.855469 3.671875 29.839844 3.484375 C 29.136719 3.421875 28.527344 2.980469 28.246094 2.324219 C 27.457031 0.480469 25.21875 -0.257812 23.484375 0.777344 C 22.878906 1.140625 22.121094 1.140625 21.515625 0.777344 C 19.792969 -0.25 17.546875 0.464844 16.75 2.328125 C 16.472656 2.980469 15.863281 3.421875 15.152344 3.488281 C 13.148438 3.667969 11.765625 5.574219 12.210938 7.539062 C 12.367188 8.226562 12.136719 8.941406 11.59375 9.417969 C 10.101562 10.726562 10.070312 13.074219 11.609375 14.425781 C 12.136719 14.890625 12.371094 15.605469 12.210938 16.300781 C 11.765625 18.253906 13.140625 20.15625 15.140625 20.347656 C 15.144531 20.347656 15.152344 20.347656 15.160156 20.347656 C 15.863281 20.410156 16.472656 20.855469 16.753906 21.507812 C 17.542969 23.359375 19.789062 24.085938 21.515625 23.050781 C 22.121094 22.6875 22.878906 22.6875 23.484375 23.050781 C 25.210938 24.082031 27.453125 23.359375 28.246094 21.507812 Z M 24.207031 21.847656 C 23.15625 21.21875 21.847656 21.214844 20.792969 21.847656 C 19.800781 22.4375 18.503906 22.027344 18.042969 20.953125 C 17.5625 19.832031 16.515625 19.066406 15.300781 18.949219 C 15.296875 18.949219 15.289062 18.949219 15.28125 18.949219 C 14.128906 18.84375 13.324219 17.75 13.582031 16.605469 C 13.855469 15.414062 13.453125 14.175781 12.523438 13.359375 C 11.660156 12.601562 11.636719 11.25 12.535156 10.464844 C 13.453125 9.65625 13.855469 8.417969 13.582031 7.222656 C 13.324219 6.089844 14.121094 4.992188 15.289062 4.886719 C 16.503906 4.773438 17.5625 4.007812 18.042969 2.878906 C 18.5 1.808594 19.796875 1.386719 20.792969 1.984375 C 21.847656 2.613281 23.152344 2.613281 24.207031 1.984375 C 24.679688 1.699219 25.257812 1.636719 25.785156 1.808594 C 26.308594 1.976562 26.738281 2.367188 26.957031 2.882812 C 27.4375 4.007812 28.492188 4.773438 29.722656 4.886719 C 30.871094 4.992188 31.667969 6.082031 31.421875 7.207031 C 31.417969 7.214844 31.417969 7.21875 31.417969 7.226562 C 31.144531 8.417969 31.546875 9.65625 32.476562 10.472656 C 33.34375 11.234375 33.355469 12.585938 32.464844 13.367188 C 31.546875 14.175781 31.144531 15.414062 31.417969 16.605469 C 31.6875 17.6875 30.90625 18.839844 29.71875 18.949219 C 29.710938 18.949219 29.707031 18.949219 29.699219 18.949219 C 28.484375 19.0625 27.4375 19.828125 26.957031 20.953125 C 26.953125 20.957031 26.949219 20.964844 26.949219 20.972656 C 26.484375 22.023438 25.199219 22.441406 24.207031 21.847656 Z M 24.207031 21.847656 "/>
<path style=" stroke:none;fill-rule:nonzero;fill:rgb(0%,0%,0%);fill-opacity:1;" d="M 19.175781 37.816406 L 18.640625 31.871094 C 18.582031 31.226562 18.445312 30.636719 18.230469 30.117188 C 17.113281 27.425781 14.746094 26.011719 13.433594 25.410156 C 12.917969 25.175781 12.445312 24.847656 12.035156 24.433594 L 8.679688 21.078125 C 7.910156 20.308594 6.8125 19.941406 5.753906 20.074219 L 5.480469 14.136719 C 5.394531 12.304688 3.953125 10.785156 2.125 10.609375 C 0.976562 10.5 0.0078125 11.402344 0.0078125 12.53125 L 0.0078125 23.246094 C 0.0078125 24.390625 0.328125 25.503906 0.9375 26.460938 C 2.65625 29.171875 4.730469 31.601562 7.09375 33.675781 C 8.054688 34.515625 8.605469 35.765625 8.605469 37.097656 L 8.605469 37.722656 C 7.507812 37.722656 6.617188 38.613281 6.617188 39.710938 L 6.617188 42.707031 C 6.617188 43.800781 7.507812 44.695312 8.605469 44.695312 L 18.605469 44.695312 C 19.703125 44.695312 20.59375 43.800781 20.59375 42.707031 L 20.59375 39.710938 C 20.59375 38.8125 19.992188 38.0625 19.175781 37.816406 Z M 8.023438 32.621094 C 5.757812 30.632812 3.773438 28.304688 2.125 25.707031 C 1.660156 24.976562 1.414062 24.125 1.414062 23.246094 L 1.414062 12.53125 C 1.414062 12.234375 1.65625 12.007812 1.9375 12.007812 C 2.902344 12.007812 4.015625 12.925781 4.074219 14.203125 L 4.371094 20.554688 C 4.121094 20.703125 3.894531 20.886719 3.6875 21.09375 C 2.925781 21.867188 2.933594 23.125 3.707031 23.894531 L 11.238281 31.429688 C 11.515625 31.703125 11.960938 31.703125 12.234375 31.429688 C 12.507812 31.15625 12.507812 30.710938 12.234375 30.4375 L 4.699219 22.902344 C 4.472656 22.675781 4.464844 22.304688 4.6875 22.082031 C 4.878906 21.886719 5.101562 21.734375 5.355469 21.625 C 5.363281 21.621094 5.375 21.617188 5.386719 21.613281 C 6.132812 21.296875 7.082031 21.472656 7.6875 22.074219 L 11.039062 25.425781 C 11.570312 25.957031 12.179688 26.382812 12.847656 26.6875 C 13.972656 27.207031 15.996094 28.40625 16.933594 30.65625 C 17.09375 31.042969 17.195312 31.492188 17.242188 31.996094 L 17.753906 37.695312 C 16.960938 37.699219 20.621094 37.6875 10.007812 37.722656 L 10.007812 37.097656 C 10.007812 35.359375 9.285156 33.726562 8.023438 32.621094 Z M 19.1875 42.707031 C 19.1875 43.027344 18.925781 43.289062 18.605469 43.289062 L 8.605469 43.289062 C 8.285156 43.289062 8.023438 43.027344 8.023438 42.707031 L 8.023438 39.710938 C 8.023438 39.390625 8.285156 39.128906 8.605469 39.128906 L 18.605469 39.128906 C 18.925781 39.128906 19.1875 39.390625 19.1875 39.710938 Z M 19.1875 42.707031 "/>
<path style=" stroke:none;fill-rule:nonzero;fill:rgb(0%,0%,0%);fill-opacity:1;" d="M 42.875 10.609375 C 41.046875 10.785156 39.605469 12.304688 39.519531 14.136719 L 39.246094 20.074219 C 38.183594 19.945312 37.089844 20.308594 36.320312 21.078125 L 32.96875 24.433594 C 32.550781 24.847656 32.082031 25.175781 31.566406 25.410156 C 30.253906 26.011719 27.886719 27.425781 26.769531 30.117188 C 26.554688 30.636719 26.414062 31.226562 26.359375 31.871094 L 25.824219 37.816406 C 25.007812 38.0625 24.40625 38.8125 24.40625 39.710938 L 24.40625 42.707031 C 24.40625 43.800781 25.296875 44.695312 26.394531 44.695312 L 36.394531 44.695312 C 37.492188 44.695312 38.382812 43.800781 38.382812 42.707031 L 38.382812 39.710938 C 38.382812 38.613281 37.492188 37.722656 36.394531 37.722656 L 36.394531 37.097656 C 36.394531 35.765625 36.945312 34.519531 37.90625 33.675781 C 40.269531 31.601562 42.34375 29.171875 44.0625 26.460938 C 44.671875 25.503906 44.992188 24.390625 44.992188 23.246094 L 44.992188 12.53125 C 44.992188 11.382812 44 10.5 42.875 10.609375 Z M 36.976562 39.710938 L 36.976562 42.707031 C 36.976562 43.027344 36.714844 43.289062 36.394531 43.289062 L 26.394531 43.289062 C 26.074219 43.289062 25.8125 43.027344 25.8125 42.707031 L 25.8125 39.710938 C 25.8125 39.390625 26.074219 39.128906 26.394531 39.128906 C 39.109375 39.144531 35.214844 39.128906 36.394531 39.128906 C 36.714844 39.128906 36.976562 39.390625 36.976562 39.710938 Z M 43.589844 23.246094 C 43.589844 24.125 43.339844 24.976562 42.875 25.707031 C 41.226562 28.304688 39.242188 30.632812 36.976562 32.621094 C 35.714844 33.726562 34.988281 35.359375 34.988281 37.097656 L 34.988281 37.722656 C 24.378906 37.6875 28.039062 37.699219 27.246094 37.695312 L 27.757812 31.996094 C 27.804688 31.492188 27.90625 31.042969 28.066406 30.65625 C 29.003906 28.40625 31.027344 27.207031 32.152344 26.691406 C 32.820312 26.382812 33.425781 25.960938 33.960938 25.425781 L 37.3125 22.074219 C 37.914062 21.472656 38.851562 21.292969 39.617188 21.613281 C 39.625 21.617188 39.636719 21.621094 39.644531 21.625 C 39.894531 21.734375 40.121094 21.886719 40.3125 22.082031 C 40.535156 22.304688 40.527344 22.675781 40.300781 22.902344 L 32.765625 30.4375 C 32.492188 30.710938 32.492188 31.15625 32.765625 31.429688 C 33.039062 31.703125 33.484375 31.703125 33.761719 31.429688 L 41.292969 23.894531 C 42.066406 23.125 42.074219 21.867188 41.3125 21.09375 C 41.105469 20.882812 40.878906 20.703125 40.628906 20.554688 L 40.925781 14.203125 C 40.976562 13.0625 41.875 12.117188 43.011719 12.007812 C 43.316406 11.980469 43.585938 12.21875 43.585938 12.53125 L 43.585938 23.246094 Z M 43.589844 23.246094 "/>
<path style=" stroke:none;fill-rule:nonzero;fill:rgb(0%,0%,0%);fill-opacity:1;" d="M 29.574219 11.917969 C 29.574219 8.015625 26.398438 4.84375 22.5 4.84375 C 18.601562 4.84375 15.425781 8.015625 15.425781 11.917969 C 15.425781 15.816406 18.601562 18.988281 22.5 18.988281 C 26.398438 18.988281 29.574219 15.816406 29.574219 11.917969 Z M 22.5 17.582031 C 19.375 17.582031 16.832031 15.039062 16.832031 11.917969 C 16.832031 8.792969 19.375 6.25 22.5 6.25 C 25.625 6.25 28.167969 8.792969 28.167969 11.917969 C 28.167969 15.039062 25.625 17.582031 22.5 17.582031 Z M 22.5 17.582031 "/>
<path style=" stroke:none;fill-rule:nonzero;fill:rgb(0%,0%,0%);fill-opacity:1;" d="M 24.777344 10.015625 L 24.058594 9.929688 L 23.71875 9.246094 C 23.214844 8.230469 21.773438 8.238281 21.277344 9.246094 L 20.972656 9.90625 L 20.222656 10.015625 C 19.109375 10.179688 18.660156 11.550781 19.46875 12.339844 L 20 12.835938 L 19.871094 13.578125 C 19.679688 14.691406 20.847656 15.542969 21.847656 15.015625 L 22.476562 14.664062 L 23.15625 15.019531 C 24.15625 15.542969 25.320312 14.695312 25.128906 13.582031 L 25.003906 12.855469 L 25.535156 12.339844 C 26.339844 11.546875 25.890625 10.179688 24.777344 10.015625 Z M 24.003906 11.867188 C 23.683594 12.179688 23.539062 12.628906 23.613281 13.070312 L 23.613281 13.074219 L 23.730469 13.734375 L 23.128906 13.417969 C 22.730469 13.210938 22.261719 13.210938 21.863281 13.421875 L 21.273438 13.730469 L 21.386719 13.070312 C 21.460938 12.628906 21.316406 12.179688 20.996094 11.867188 L 20.511719 11.394531 L 21.175781 11.296875 C 21.617188 11.234375 22 10.957031 22.199219 10.550781 L 22.5 9.949219 L 22.800781 10.554688 C 23 10.957031 23.382812 11.234375 23.824219 11.296875 L 24.488281 11.394531 Z M 24.003906 11.867188 "/>
</g>
</svg>
