<?xml version="1.0" encoding="UTF-8"?>
<svg xmlns="http://www.w3.org/2000/svg" xmlns:xlink="http://www.w3.org/1999/xlink" width="35px" height="35px" viewBox="0 0 35 35" version="1.1">
<g id="surface1">
<path style=" stroke:none;fill-rule:nonzero;fill:rgb(0%,0%,0%);fill-opacity:1;" d="M 27.40625 11.816406 C 24.914062 11.816406 22.71875 13.125 21.46875 15.089844 L 21.46875 10.785156 C 21.46875 10.707031 21.496094 10.648438 21.5625 10.605469 L 24.4375 8.628906 C 24.953125 8.273438 25.246094 7.710938 25.246094 7.089844 L 25.246094 1.886719 C 25.246094 0.960938 24.492188 0.203125 23.566406 0.203125 C 22.636719 0.203125 21.882812 0.960938 21.882812 1.886719 L 21.882812 6.15625 L 20.136719 7.164062 C 19.097656 7.765625 18.3125 8.070312 17.582031 8.15625 C 16.609375 8.269531 16.039062 8.042969 15.246094 7.726562 C 14.949219 7.605469 14.609375 7.46875 14.222656 7.34375 C 13.128906 6.988281 10.71875 6.8125 9.871094 8.382812 C 7.851562 8.921875 6.386719 8.96875 5.011719 8.53125 C 4.027344 8.21875 2.824219 8.457031 1.875 9.148438 C 1.039062 9.761719 0.558594 10.609375 0.558594 11.472656 L 0.558594 18.851562 C 0.558594 19.777344 1.316406 20.53125 2.242188 20.53125 C 2.449219 20.53125 2.648438 20.496094 2.832031 20.425781 L 2.832031 34.25 C 2.832031 34.550781 3.074219 34.796875 3.378906 34.796875 L 6.558594 34.796875 C 6.851562 34.796875 7.089844 34.566406 7.105469 34.273438 L 7.277344 30.835938 L 7.445312 34.273438 C 7.460938 34.566406 7.699219 34.796875 7.992188 34.796875 L 11.171875 34.796875 C 11.476562 34.796875 11.71875 34.550781 11.71875 34.25 L 11.71875 13.171875 L 12.167969 13.171875 L 12.167969 34.25 C 12.167969 34.550781 12.414062 34.796875 12.714844 34.796875 L 16.101562 34.796875 C 16.394531 34.796875 16.632812 34.566406 16.648438 34.273438 L 16.816406 30.769531 L 16.988281 34.273438 C 17.003906 34.566406 17.242188 34.796875 17.535156 34.796875 L 20.921875 34.796875 C 21.222656 34.796875 21.46875 34.550781 21.46875 34.25 L 21.46875 22.613281 C 22.71875 24.578125 24.914062 25.882812 27.40625 25.882812 C 31.285156 25.882812 34.441406 22.726562 34.441406 18.851562 C 34.441406 14.972656 31.285156 11.816406 27.40625 11.816406 Z M 13.886719 8.382812 C 14.238281 8.5 14.542969 8.621094 14.839844 8.742188 C 15.675781 9.074219 16.460938 9.390625 17.710938 9.242188 C 18.59375 9.136719 19.511719 8.789062 20.683594 8.113281 L 22.566406 7.027344 C 22.824219 6.878906 22.976562 6.609375 22.976562 6.3125 L 22.976562 1.886719 C 22.976562 1.5625 23.242188 1.296875 23.566406 1.296875 C 23.890625 1.296875 24.152344 1.5625 24.152344 1.886719 L 24.152344 7.089844 C 24.152344 7.359375 24.042969 7.574219 23.816406 7.726562 L 20.945312 9.703125 C 20.582031 9.953125 20.375 10.347656 20.375 10.785156 L 20.375 18.304688 L 13.261719 18.304688 L 13.261719 12.34375 C 13.261719 12.335938 13.261719 12.328125 13.261719 12.320312 C 13.199219 10.863281 12.953125 10.03125 11 8.679688 C 11.683594 7.984375 13.316406 8.199219 13.886719 8.382812 Z M 10.625 33.703125 L 8.511719 33.703125 L 7.957031 22.519531 C 7.9375 22.15625 7.644531 21.882812 7.277344 21.882812 C 6.90625 21.882812 6.613281 22.15625 6.59375 22.519531 L 6.039062 33.703125 L 3.925781 33.703125 L 3.925781 19.398438 L 10.625 19.398438 Z M 11.171875 12.078125 C 10.871094 12.078125 10.625 12.324219 10.625 12.625 L 10.625 18.304688 L 3.925781 18.304688 L 3.925781 13.085938 C 3.925781 12.78125 3.679688 12.539062 3.378906 12.539062 C 3.074219 12.539062 2.832031 12.78125 2.832031 13.085938 L 2.832031 18.851562 C 2.832031 19.175781 2.566406 19.4375 2.242188 19.4375 C 1.917969 19.4375 1.652344 19.175781 1.652344 18.851562 L 1.652344 11.472656 C 1.652344 10.960938 1.96875 10.4375 2.523438 10.03125 C 3.183594 9.546875 4.03125 9.367188 4.683594 9.574219 C 6.652344 10.199219 8.546875 9.875 10.167969 9.4375 C 11.917969 10.605469 12.101562 11.175781 12.15625 12.078125 Z M 20.375 33.703125 L 18.054688 33.703125 L 17.5 22.296875 C 17.480469 21.933594 17.1875 21.660156 16.816406 21.660156 C 16.445312 21.660156 16.152344 21.933594 16.136719 22.296875 L 15.582031 33.703125 L 13.261719 33.703125 L 13.261719 19.398438 L 20.375 19.398438 Z M 27.40625 24.789062 C 24.132812 24.789062 21.46875 22.125 21.46875 18.851562 L 21.46875 18.847656 C 21.46875 15.574219 24.132812 12.910156 27.40625 12.910156 C 30.679688 12.910156 33.347656 15.574219 33.347656 18.851562 C 33.347656 22.125 30.683594 24.789062 27.40625 24.789062 Z M 31.46875 15.574219 C 30.925781 15.03125 30.046875 15.03125 29.503906 15.574219 L 25.925781 19.152344 L 25.128906 17.773438 C 24.941406 17.453125 24.644531 17.222656 24.285156 17.125 C 23.925781 17.03125 23.550781 17.078125 23.230469 17.265625 C 22.90625 17.449219 22.679688 17.75 22.582031 18.109375 C 22.484375 18.46875 22.535156 18.84375 22.71875 19.164062 L 24.472656 22.203125 C 24.683594 22.5625 25.023438 22.792969 25.4375 22.847656 C 25.5 22.855469 25.558594 22.859375 25.617188 22.859375 C 25.964844 22.859375 26.285156 22.726562 26.535156 22.472656 L 31.46875 17.539062 C 32.011719 16.996094 32.011719 16.113281 31.46875 15.574219 Z M 30.695312 16.765625 L 25.761719 21.699219 C 25.710938 21.753906 25.65625 21.773438 25.582031 21.761719 C 25.507812 21.75 25.457031 21.71875 25.421875 21.65625 L 23.667969 18.617188 C 23.613281 18.523438 23.625 18.4375 23.636719 18.390625 C 23.648438 18.347656 23.683594 18.265625 23.777344 18.210938 C 23.828125 18.179688 23.878906 18.171875 23.921875 18.171875 C 23.953125 18.171875 23.980469 18.175781 24 18.183594 C 24.046875 18.195312 24.128906 18.230469 24.179688 18.320312 L 25.332031 20.316406 C 25.417969 20.464844 25.566406 20.5625 25.734375 20.585938 C 25.902344 20.605469 26.074219 20.550781 26.195312 20.429688 L 30.277344 16.347656 C 30.390625 16.234375 30.582031 16.230469 30.695312 16.347656 C 30.808594 16.460938 30.808594 16.652344 30.695312 16.765625 Z M 13.734375 12.140625 C 13.734375 11.835938 13.980469 11.59375 14.28125 11.59375 L 16.15625 11.59375 C 16.460938 11.59375 16.703125 11.835938 16.703125 12.140625 C 16.703125 12.441406 16.460938 12.6875 16.15625 12.6875 L 14.28125 12.6875 C 13.980469 12.6875 13.734375 12.441406 13.734375 12.140625 Z M 16.816406 7.84375 C 18.660156 7.84375 20.160156 6.347656 20.160156 4.503906 C 20.160156 2.660156 18.660156 1.164062 16.816406 1.164062 C 14.976562 1.164062 13.476562 2.660156 13.476562 4.503906 C 13.476562 6.347656 14.976562 7.84375 16.816406 7.84375 Z M 16.816406 2.257812 C 18.058594 2.257812 19.066406 3.265625 19.066406 4.503906 C 19.066406 5.742188 18.058594 6.75 16.816406 6.75 C 15.578125 6.75 14.570312 5.742188 14.570312 4.503906 C 14.570312 3.265625 15.578125 2.257812 16.816406 2.257812 Z M 7.277344 8.511719 C 9.117188 8.511719 10.617188 7.015625 10.617188 5.171875 C 10.617188 3.328125 9.117188 1.832031 7.277344 1.832031 C 5.433594 1.832031 3.933594 3.328125 3.933594 5.171875 C 3.933594 7.015625 5.433594 8.511719 7.277344 8.511719 Z M 7.277344 2.925781 C 8.515625 2.925781 9.523438 3.933594 9.523438 5.171875 C 9.523438 6.410156 8.515625 7.417969 7.277344 7.417969 C 6.035156 7.417969 5.027344 6.410156 5.027344 5.171875 C 5.027344 3.933594 6.035156 2.925781 7.277344 2.925781 Z M 7.277344 2.925781 "/>
</g>
</svg>
