<?xml version="1.0" encoding="UTF-8"?>
<svg xmlns="http://www.w3.org/2000/svg" xmlns:xlink="http://www.w3.org/1999/xlink" width="40px" height="40px" viewBox="0 0 40 40" version="1.1">
<g id="surface1">
<path style=" stroke:none;fill-rule:nonzero;fill:rgb(0%,0%,0%);fill-opacity:1;" d="M 37.417969 19.996094 C 37.417969 14.941406 33.304688 10.832031 28.25 10.832031 C 23.195312 10.832031 19.085938 14.941406 19.085938 19.996094 C 19.085938 21.453125 19.425781 22.832031 20.035156 24.054688 L 17.289062 25.59375 C 17.167969 25.605469 16.65625 25.429688 15.761719 24.449219 C 14.976562 23.589844 14.125 22.363281 13.355469 20.988281 C 12.589844 19.617188 11.988281 18.246094 11.667969 17.128906 C 11.300781 15.855469 11.417969 15.324219 11.492188 15.226562 L 15.203125 13.152344 C 15.9375 12.742188 16.46875 12.070312 16.699219 11.257812 C 16.929688 10.449219 16.828125 9.59375 16.417969 8.859375 L 12.367188 1.613281 C 11.515625 0.0976562 9.589844 -0.449219 8.070312 0.402344 L 2.253906 3.65625 C 0.839844 4.445312 0.105469 6.015625 0.0742188 8.320312 C 0.0195312 12.34375 2.171875 18.652344 5.828125 25.195312 C 9.488281 31.742188 13.738281 36.878906 17.191406 38.9375 C 18.378906 39.644531 19.472656 40 20.464844 40 C 21.128906 40 21.742188 39.839844 22.308594 39.523438 L 28.128906 36.269531 C 29.648438 35.421875 30.191406 33.496094 29.34375 31.976562 L 27.761719 29.148438 C 27.921875 29.15625 28.085938 29.164062 28.25 29.164062 C 33.304688 29.164062 37.417969 25.050781 37.417969 19.996094 Z M 10.957031 2.402344 L 15.007812 9.648438 C 15.210938 10.007812 15.257812 10.421875 15.148438 10.820312 C 15.035156 11.214844 14.777344 11.546875 14.417969 11.746094 L 13.804688 12.089844 L 8.132812 2.214844 L 8.859375 1.808594 C 9.601562 1.394531 10.542969 1.660156 10.957031 2.402344 Z M 21.523438 38.117188 C 20.648438 38.605469 19.46875 38.417969 18.015625 37.550781 C 14.84375 35.660156 10.710938 30.625 7.238281 24.410156 C 3.761719 18.195312 1.632812 12.039062 1.683594 8.34375 C 1.707031 6.65625 2.164062 5.550781 3.039062 5.0625 L 7.289062 2.683594 L 12.960938 12.5625 L 10.699219 13.824219 C 8.4375 15.089844 11.082031 20.230469 11.949219 21.777344 C 12.714844 23.148438 15.167969 27.207031 17.289062 27.207031 C 17.554688 27.207031 17.816406 27.144531 18.070312 27.003906 L 20.089844 25.875 L 25.757812 35.75 Z M 27.34375 34.863281 L 26.605469 35.277344 L 20.933594 25.402344 L 21.785156 24.925781 C 22.527344 24.511719 23.46875 24.777344 23.882812 25.519531 L 27.9375 32.765625 C 28.351562 33.507812 28.085938 34.449219 27.34375 34.863281 Z M 25.292969 24.730469 C 24.527344 23.363281 22.890625 22.789062 21.464844 23.304688 C 20.972656 22.304688 20.699219 21.183594 20.699219 19.996094 C 20.699219 15.832031 24.085938 12.445312 28.25 12.445312 C 32.414062 12.445312 35.804688 15.832031 35.804688 19.996094 C 35.804688 24.164062 32.414062 27.550781 28.25 27.550781 C 27.75 27.550781 27.261719 27.5 26.785156 27.40625 Z M 25.292969 24.730469 "/>
<path style=" stroke:none;fill-rule:nonzero;fill:rgb(0%,0%,0%);fill-opacity:1;" d="M 30.421875 24.402344 L 30.421875 22.167969 L 32.65625 22.167969 C 33.296875 22.167969 33.816406 21.648438 33.816406 21.007812 L 33.816406 18.988281 C 33.816406 18.347656 33.296875 17.824219 32.65625 17.824219 L 30.421875 17.824219 L 30.421875 15.59375 C 30.421875 14.953125 29.902344 14.433594 29.261719 14.433594 L 27.242188 14.433594 C 26.601562 14.433594 26.078125 14.953125 26.078125 15.59375 L 26.078125 17.824219 L 23.847656 17.824219 C 23.207031 17.824219 22.6875 18.347656 22.6875 18.988281 L 22.6875 21.007812 C 22.6875 21.648438 23.207031 22.167969 23.847656 22.167969 L 26.078125 22.167969 L 26.078125 24.402344 C 26.078125 25.042969 26.601562 25.5625 27.242188 25.5625 L 29.261719 25.5625 C 29.902344 25.5625 30.421875 25.042969 30.421875 24.402344 Z M 27.046875 24.402344 L 27.046875 21.683594 C 27.046875 21.417969 26.832031 21.199219 26.5625 21.199219 L 23.847656 21.199219 C 23.742188 21.199219 23.652344 21.113281 23.652344 21.007812 L 23.652344 18.988281 C 23.652344 18.878906 23.742188 18.792969 23.847656 18.792969 L 26.5625 18.792969 C 26.832031 18.792969 27.046875 18.578125 27.046875 18.308594 L 27.046875 15.59375 C 27.046875 15.488281 27.132812 15.398438 27.242188 15.398438 L 29.261719 15.398438 C 29.367188 15.398438 29.453125 15.488281 29.453125 15.59375 L 29.453125 18.308594 C 29.453125 18.578125 29.671875 18.792969 29.9375 18.792969 L 32.65625 18.792969 C 32.761719 18.792969 32.847656 18.878906 32.847656 18.988281 L 32.847656 21.007812 C 32.847656 21.113281 32.761719 21.199219 32.65625 21.199219 L 29.9375 21.199219 C 29.671875 21.199219 29.453125 21.417969 29.453125 21.683594 L 29.453125 24.402344 C 29.453125 24.507812 29.367188 24.59375 29.261719 24.59375 L 27.242188 24.59375 C 27.132812 24.59375 27.046875 24.507812 27.046875 24.402344 Z M 27.046875 24.402344 "/>
<path style=" stroke:none;fill-rule:nonzero;fill:rgb(0%,0%,0%);fill-opacity:1;" d="M 15.554688 30.226562 C 15.421875 29.996094 15.125 29.914062 14.894531 30.050781 C 14.664062 30.183594 14.582031 30.476562 14.714844 30.710938 L 15.136719 31.441406 C 15.226562 31.597656 15.386719 31.683594 15.554688 31.683594 C 15.636719 31.683594 15.71875 31.664062 15.796875 31.617188 C 16.027344 31.484375 16.109375 31.191406 15.976562 30.957031 Z M 15.554688 30.226562 "/>
<path style=" stroke:none;fill-rule:nonzero;fill:rgb(0%,0%,0%);fill-opacity:1;" d="M 19.621094 30.339844 C 19.488281 30.109375 19.195312 30.027344 18.960938 30.160156 C 18.730469 30.292969 18.652344 30.589844 18.785156 30.820312 L 19.203125 31.550781 C 19.292969 31.707031 19.457031 31.796875 19.625 31.796875 C 19.703125 31.796875 19.789062 31.773438 19.863281 31.730469 C 20.09375 31.597656 20.175781 31.300781 20.042969 31.070312 Z M 19.621094 30.339844 "/>
<path style=" stroke:none;fill-rule:nonzero;fill:rgb(0%,0%,0%);fill-opacity:1;" d="M 19.621094 33.519531 C 19.488281 33.285156 19.195312 33.207031 18.960938 33.339844 C 18.730469 33.472656 18.652344 33.769531 18.785156 34 L 19.203125 34.730469 C 19.292969 34.886719 19.457031 34.972656 19.625 34.972656 C 19.703125 34.972656 19.789062 34.953125 19.863281 34.910156 C 20.09375 34.777344 20.175781 34.480469 20.042969 34.25 Z M 19.621094 33.519531 "/>
<path style=" stroke:none;fill-rule:nonzero;fill:rgb(0%,0%,0%);fill-opacity:1;" d="M 5.113281 14.121094 C 4.796875 14.121094 4.496094 13.933594 4.367188 13.625 C 3.992188 12.710938 3.710938 11.785156 3.542969 10.863281 C 3.460938 10.425781 3.75 10.003906 4.1875 9.925781 C 4.625 9.84375 5.046875 10.132812 5.128906 10.570312 C 5.277344 11.378906 5.523438 12.199219 5.859375 13.007812 C 6.027344 13.417969 5.832031 13.890625 5.421875 14.0625 C 5.320312 14.101562 5.214844 14.121094 5.113281 14.121094 Z M 5.113281 14.121094 "/>
<path style=" stroke:none;fill-rule:nonzero;fill:rgb(0%,0%,0%);fill-opacity:1;" d="M 4.21875 8.59375 C 4.203125 8.59375 4.1875 8.59375 4.171875 8.589844 C 3.726562 8.566406 3.386719 8.183594 3.414062 7.738281 C 3.417969 7.675781 3.417969 7.640625 3.417969 7.613281 C 3.425781 7.480469 3.433594 7.425781 3.464844 7.296875 L 3.480469 7.214844 C 3.578125 6.777344 4.007812 6.503906 4.441406 6.601562 C 4.878906 6.695312 5.152344 7.125 5.058594 7.5625 L 5.035156 7.652344 C 5.035156 7.660156 5.03125 7.671875 5.03125 7.679688 C 5.03125 7.710938 5.027344 7.761719 5.023438 7.835938 C 4.996094 8.261719 4.640625 8.59375 4.21875 8.59375 Z M 4.21875 8.59375 "/>
<path style=" stroke:none;fill-rule:nonzero;fill:rgb(0%,0%,0%);fill-opacity:1;" d="M 22.085938 2.382812 L 22.75 4.246094 C 22.777344 4.324219 22.832031 4.386719 22.90625 4.417969 L 24.558594 5.164062 C 24.792969 5.269531 24.792969 5.640625 24.558594 5.746094 L 22.90625 6.492188 C 22.832031 6.523438 22.777344 6.589844 22.75 6.667969 L 22.085938 8.53125 C 21.992188 8.792969 21.664062 8.792969 21.570312 8.53125 L 20.90625 6.667969 C 20.878906 6.589844 20.820312 6.523438 20.75 6.492188 L 19.097656 5.746094 C 18.863281 5.640625 18.863281 5.269531 19.097656 5.164062 L 20.75 4.417969 C 20.820312 4.386719 20.878906 4.324219 20.90625 4.246094 L 21.570312 2.382812 C 21.664062 2.117188 21.992188 2.117188 22.085938 2.382812 Z M 22.085938 2.382812 "/>
<path style=" stroke:none;fill-rule:nonzero;fill:rgb(0%,0%,0%);fill-opacity:1;" d="M 36.539062 4.386719 L 37.027344 5.769531 C 37.050781 5.828125 37.09375 5.875 37.144531 5.898438 L 38.371094 6.453125 C 38.546875 6.53125 38.546875 6.808594 38.371094 6.886719 L 37.144531 7.4375 C 37.09375 7.460938 37.050781 7.507812 37.027344 7.566406 L 36.539062 8.949219 C 36.46875 9.144531 36.222656 9.144531 36.152344 8.949219 L 35.664062 7.566406 C 35.640625 7.507812 35.601562 7.460938 35.546875 7.4375 L 34.320312 6.886719 C 34.148438 6.808594 34.148438 6.53125 34.320312 6.453125 L 35.546875 5.898438 C 35.601562 5.875 35.640625 5.828125 35.664062 5.769531 L 36.152344 4.386719 C 36.222656 4.195312 36.46875 4.195312 36.539062 4.386719 Z M 36.539062 4.386719 "/>
<path style=" stroke:none;fill-rule:nonzero;fill:rgb(0%,0%,0%);fill-opacity:1;" d="M 37.78125 31.0625 C 37.042969 30.753906 36.199219 31.105469 35.890625 31.84375 C 35.585938 32.582031 35.9375 33.429688 36.671875 33.734375 C 37.410156 34.039062 38.257812 33.691406 38.5625 32.953125 C 38.871094 32.214844 38.519531 31.367188 37.78125 31.0625 Z M 37.78125 31.0625 "/>
<path style=" stroke:none;fill-rule:nonzero;fill:rgb(0%,0%,0%);fill-opacity:1;" d="M 39.890625 12.679688 C 39.757812 12.363281 39.390625 12.210938 39.074219 12.34375 C 38.753906 12.476562 38.605469 12.839844 38.738281 13.160156 C 38.867188 13.476562 39.234375 13.628906 39.550781 13.496094 C 39.871094 13.363281 40.019531 13 39.890625 12.679688 Z M 39.890625 12.679688 "/>
</g>
</svg>
