<?xml version="1.0" encoding="UTF-8"?>
<svg xmlns="http://www.w3.org/2000/svg" xmlns:xlink="http://www.w3.org/1999/xlink" width="35px" height="35px" viewBox="0 0 35 35" version="1.1">
<g id="surface1">
<path style=" stroke:none;fill-rule:nonzero;fill:rgb(0%,0%,0%);fill-opacity:1;" d="M 34.257812 22.675781 C 34.015625 21.964844 33.4375 21.445312 32.632812 21.21875 C 31.765625 20.972656 30.636719 21.050781 29.28125 21.449219 L 23.105469 23.261719 C 23.078125 23.210938 23.050781 23.15625 23.023438 23.105469 C 22.675781 22.507812 22.121094 22.082031 21.460938 21.902344 L 17.070312 20.726562 C 13.871094 18.484375 12.152344 19.128906 9.628906 20.363281 C 8.425781 20.953125 7.226562 21.523438 6.089844 22.058594 L 5.851562 21.488281 C 5.535156 20.730469 4.664062 20.371094 3.90625 20.6875 L 1.535156 21.671875 C 1.164062 21.824219 0.878906 22.109375 0.726562 22.476562 C 0.574219 22.84375 0.578125 23.25 0.730469 23.617188 L 4.746094 33.257812 C 4.984375 33.828125 5.539062 34.171875 6.121094 34.171875 C 6.3125 34.171875 6.503906 34.136719 6.691406 34.058594 L 9.0625 33.074219 C 9.429688 32.921875 9.71875 32.636719 9.871094 32.269531 C 10.019531 31.902344 10.019531 31.496094 9.867188 31.125 L 9.597656 30.480469 L 11.140625 29.730469 C 11.707031 29.457031 12.273438 29.40625 12.875 29.582031 L 17.804688 31.011719 C 18.167969 31.117188 18.542969 31.164062 18.925781 31.164062 C 20.234375 31.164062 21.609375 30.628906 22.765625 30.179688 C 22.867188 30.140625 22.964844 30.101562 23.0625 30.0625 L 32.316406 26.5 C 33.8125 25.921875 34.738281 24.097656 34.257812 22.675781 Z M 8.984375 31.902344 C 8.929688 32.035156 8.828125 32.136719 8.695312 32.191406 L 6.324219 33.175781 C 6.054688 33.289062 5.742188 33.160156 5.628906 32.886719 L 1.613281 23.25 C 1.558594 23.117188 1.558594 22.972656 1.613281 22.84375 C 1.667969 22.710938 1.769531 22.609375 1.902344 22.554688 L 4.273438 21.570312 C 4.339844 21.542969 4.40625 21.527344 4.476562 21.527344 C 4.683594 21.527344 4.882812 21.652344 4.96875 21.855469 L 8.984375 31.496094 C 9.039062 31.628906 9.039062 31.773438 8.984375 31.902344 Z M 31.972656 25.605469 L 22.71875 29.171875 C 22.621094 29.207031 22.519531 29.25 22.417969 29.289062 C 21.0625 29.816406 19.375 30.472656 18.074219 30.09375 L 13.144531 28.664062 C 12.3125 28.421875 11.5 28.492188 10.722656 28.871094 L 9.230469 29.597656 L 6.457031 22.945312 C 7.609375 22.402344 8.824219 21.820312 10.050781 21.222656 C 12.410156 20.070312 13.773438 19.5625 16.589844 21.558594 C 16.636719 21.589844 16.6875 21.617188 16.742188 21.632812 L 21.210938 22.828125 C 21.628906 22.941406 21.976562 23.207031 22.195312 23.585938 C 22.410156 23.960938 22.46875 24.394531 22.355469 24.8125 C 22.246094 25.226562 21.976562 25.574219 21.601562 25.792969 C 21.226562 26.011719 20.789062 26.066406 20.375 25.957031 L 14.433594 24.363281 C 14.179688 24.296875 13.914062 24.449219 13.847656 24.703125 C 13.777344 24.957031 13.929688 25.222656 14.1875 25.289062 L 20.125 26.882812 C 20.789062 27.058594 21.484375 26.964844 22.082031 26.621094 C 22.675781 26.277344 23.105469 25.722656 23.28125 25.058594 C 23.359375 24.769531 23.386719 24.476562 23.363281 24.183594 L 29.550781 22.367188 C 31.597656 21.769531 33.015625 22 33.351562 22.984375 C 33.667969 23.917969 32.984375 25.214844 31.972656 25.605469 Z M 25.636719 7.949219 C 27.601562 7.949219 29.199219 6.351562 29.199219 4.386719 C 29.199219 2.425781 27.601562 0.828125 25.636719 0.828125 C 23.671875 0.828125 22.074219 2.425781 22.074219 4.386719 C 22.074219 6.351562 23.671875 7.949219 25.636719 7.949219 Z M 25.636719 1.785156 C 27.070312 1.785156 28.242188 2.953125 28.242188 4.386719 C 28.242188 5.824219 27.070312 6.992188 25.636719 6.992188 C 24.199219 6.992188 23.03125 5.824219 23.03125 4.386719 C 23.03125 2.953125 24.199219 1.785156 25.636719 1.785156 Z M 14.226562 14.011719 L 16.320312 15.738281 L 15.640625 18.367188 C 15.589844 18.558594 15.664062 18.757812 15.824219 18.875 C 15.90625 18.933594 16.003906 18.964844 16.105469 18.964844 C 16.191406 18.964844 16.28125 18.941406 16.359375 18.890625 L 18.652344 17.429688 L 20.941406 18.890625 C 21.105469 18.996094 21.320312 18.988281 21.480469 18.875 C 21.550781 18.824219 21.601562 18.753906 21.636719 18.679688 C 22.785156 18.992188 24.171875 19.160156 25.617188 19.160156 C 25.933594 19.160156 26.253906 19.152344 26.574219 19.136719 C 28.753906 19.027344 30.609375 18.535156 31.667969 17.792969 C 32.589844 17.148438 32.785156 16.417969 32.785156 15.917969 C 32.785156 11.976562 29.578125 8.769531 25.636719 8.769531 C 23.234375 8.769531 20.996094 9.996094 19.683594 11.960938 L 19.097656 10.472656 C 19.023438 10.289062 18.847656 10.167969 18.652344 10.167969 C 18.453125 10.167969 18.277344 10.289062 18.207031 10.472656 L 17.210938 13 L 14.5 13.164062 C 14.304688 13.175781 14.136719 13.308594 14.074219 13.492188 C 14.011719 13.679688 14.074219 13.886719 14.226562 14.011719 Z M 25.636719 9.726562 C 29.050781 9.726562 31.828125 12.503906 31.828125 15.917969 C 31.828125 16.3125 31.589844 16.679688 31.121094 17.011719 C 29.277344 18.300781 24.414062 18.597656 21.472656 17.632812 L 20.980469 15.738281 L 23.078125 14.011719 C 23.226562 13.886719 23.289062 13.679688 23.226562 13.492188 C 23.167969 13.308594 22.996094 13.175781 22.800781 13.164062 L 20.171875 13.003906 C 21.242188 11.003906 23.355469 9.726562 25.636719 9.726562 Z M 17.574219 13.933594 C 17.757812 13.925781 17.921875 13.804688 17.988281 13.632812 L 18.652344 11.953125 L 19.3125 13.632812 C 19.378906 13.804688 19.542969 13.925781 19.726562 13.933594 L 21.53125 14.046875 L 20.136719 15.195312 C 19.992188 15.3125 19.929688 15.503906 19.976562 15.683594 L 20.429688 17.429688 L 18.90625 16.460938 C 18.828125 16.410156 18.738281 16.386719 18.652344 16.386719 C 18.5625 16.386719 18.472656 16.410156 18.394531 16.460938 L 16.871094 17.429688 L 17.324219 15.683594 C 17.371094 15.503906 17.308594 15.3125 17.164062 15.195312 L 15.769531 14.046875 Z M 17.574219 13.933594 "/>
</g>
</svg>
