<?xml version="1.0" encoding="UTF-8"?>
<svg xmlns="http://www.w3.org/2000/svg" xmlns:xlink="http://www.w3.org/1999/xlink" width="45px" height="45px" viewBox="0 0 45 45" version="1.1">
<g id="surface1">
<path style=" stroke:none;fill-rule:nonzero;fill:rgb(0%,0%,0%);fill-opacity:1;" d="M 15.714844 17.566406 C 15.796875 11.269531 8.433594 7.398438 3.351562 11.097656 C 3.054688 11.308594 2.984375 11.71875 3.195312 12.015625 C 3.402344 12.3125 3.816406 12.382812 4.113281 12.171875 C 8.34375 9.09375 14.464844 12.324219 14.394531 17.566406 C 14.394531 21.195312 11.464844 24.148438 7.863281 24.148438 C 3.039062 24.210938 -0.203125 18.824219 2.054688 14.554688 C 2.21875 14.230469 2.089844 13.832031 1.765625 13.667969 C 1.441406 13.5 1.046875 13.628906 0.878906 13.953125 C -1.832031 19.082031 2.066406 25.539062 7.863281 25.46875 C 12.191406 25.46875 15.714844 21.921875 15.714844 17.566406 Z M 15.714844 17.566406 "/>
<path style=" stroke:none;fill-rule:nonzero;fill:rgb(0%,0%,0%);fill-opacity:1;" d="M 5.652344 21.046875 C 5.917969 21.046875 6.167969 20.882812 6.269531 20.617188 L 6.628906 19.660156 L 9.097656 19.660156 L 9.457031 20.617188 C 9.585938 20.957031 9.964844 21.128906 10.304688 21.003906 C 10.644531 20.875 10.820312 20.496094 10.691406 20.15625 L 8.605469 14.589844 C 8.605469 14.585938 8.601562 14.578125 8.601562 14.574219 C 8.476562 14.277344 8.191406 14.085938 7.871094 14.085938 C 7.550781 14.085938 7.265625 14.277344 7.144531 14.574219 C 7.140625 14.578125 7.140625 14.585938 7.136719 14.589844 L 5.035156 20.152344 C 4.882812 20.554688 5.234375 21.046875 5.652344 21.046875 Z M 7.871094 16.382812 L 8.605469 18.339844 L 7.128906 18.339844 Z M 7.871094 16.382812 "/>
<path style=" stroke:none;fill-rule:nonzero;fill:rgb(0%,0%,0%);fill-opacity:1;" d="M 25.074219 9.207031 C 25.074219 8.507812 24.742188 7.882812 24.234375 7.484375 C 25.113281 6.230469 24.167969 4.40625 22.621094 4.429688 L 20.996094 4.429688 C 20.632812 4.429688 20.335938 4.722656 20.335938 5.089844 L 20.335938 10.730469 C 20.335938 11.058594 20.664062 11.390625 21 11.390625 C 21 11.390625 22.496094 11.382812 22.90625 11.382812 C 24.101562 11.382812 25.074219 10.40625 25.074219 9.207031 Z M 22.621094 5.746094 C 23.457031 5.773438 23.453125 7 22.621094 7.027344 C 22.296875 7.027344 21.976562 7.027344 21.65625 7.027344 L 21.65625 5.746094 Z M 21.65625 8.347656 C 22.070312 8.34375 22.488281 8.34375 22.90625 8.34375 C 24.03125 8.386719 24.03125 10.023438 22.90625 10.066406 C 22.675781 10.066406 22.113281 10.066406 21.65625 10.070312 Z M 21.65625 8.347656 "/>
<path style=" stroke:none;fill-rule:nonzero;fill:rgb(0%,0%,0%);fill-opacity:1;" d="M 37.148438 9.660156 C 32.820312 9.660156 29.296875 13.207031 29.296875 17.566406 C 29.695312 28.035156 44.605469 28.03125 45 17.5625 C 45 13.207031 41.476562 9.660156 37.148438 9.660156 Z M 37.148438 24.148438 C 33.546875 24.148438 30.617188 21.195312 30.617188 17.566406 C 30.945312 8.839844 43.355469 8.84375 43.683594 17.566406 C 43.683594 21.195312 40.75 24.148438 37.148438 24.148438 Z M 37.148438 24.148438 "/>
<path style=" stroke:none;fill-rule:nonzero;fill:rgb(0%,0%,0%);fill-opacity:1;" d="M 39.453125 19.082031 C 39.175781 18.851562 38.761719 18.886719 38.527344 19.167969 C 37.296875 20.5 35.070312 19.273438 35.128906 17.566406 C 35.105469 15.863281 37.070312 14.796875 38.464844 15.769531 C 38.765625 15.972656 39.175781 15.898438 39.378906 15.59375 C 39.585938 15.292969 39.507812 14.886719 39.207031 14.679688 C 36.960938 13.109375 33.773438 14.820312 33.808594 17.566406 C 33.730469 20.480469 37.558594 22.308594 39.539062 20.011719 C 39.773438 19.730469 39.734375 19.316406 39.453125 19.082031 Z M 39.453125 19.082031 "/>
<path style=" stroke:none;fill-rule:nonzero;fill:rgb(0%,0%,0%);fill-opacity:1;" d="M 34.046875 34.585938 C 33.683594 34.585938 33.386719 34.882812 33.386719 35.246094 C 33.386719 36.589844 32.890625 37.871094 31.992188 38.855469 L 30.742188 40.207031 C 30.628906 40.328125 30.566406 40.488281 30.566406 40.652344 L 30.5625 44.335938 C 30.5625 44.699219 30.859375 44.992188 31.222656 44.992188 C 31.585938 44.992188 31.882812 44.699219 31.882812 44.335938 L 31.882812 40.914062 L 32.960938 39.75 C 34.085938 38.519531 34.707031 36.917969 34.707031 35.246094 C 34.707031 34.882812 34.410156 34.585938 34.046875 34.585938 Z M 34.046875 34.585938 "/>
<path style=" stroke:none;fill-rule:nonzero;fill:rgb(0%,0%,0%);fill-opacity:1;" d="M 30.90625 29.421875 L 30.90625 27.773438 C 30.925781 26.117188 33.421875 26.335938 33.382812 27.957031 L 33.386719 31.417969 C 33.386719 31.78125 33.683594 32.078125 34.046875 32.078125 C 34.410156 32.078125 34.703125 31.78125 34.703125 31.417969 L 34.703125 27.957031 C 34.746094 25.902344 32.464844 24.664062 30.742188 25.660156 C 30.195312 24.160156 28.183594 23.605469 26.878906 24.464844 C 26.292969 23.203125 24.558594 22.773438 23.351562 23.394531 L 23.351562 15.765625 C 33.152344 14.34375 32.402344 0.367188 22.503906 0.00390625 C 14.675781 0.0429688 11.730469 10.355469 18.289062 14.578125 C 18.136719 15.265625 18.273438 27.40625 18.234375 32.085938 L 13.96875 28.308594 C 13.019531 27.464844 11.476562 27.75 10.667969 28.617188 C 9.777344 29.566406 9.714844 30.910156 10.515625 31.890625 C 10.519531 31.894531 10.523438 31.898438 10.523438 31.902344 L 18.234375 40.898438 L 18.234375 44.335938 C 18.234375 44.699219 18.53125 44.992188 18.894531 44.992188 C 19.257812 44.992188 19.550781 44.699219 19.550781 44.335938 L 19.550781 40.652344 C 19.550781 40.496094 19.496094 40.34375 19.394531 40.226562 L 11.53125 31.050781 C 11.074219 30.484375 11.296875 29.871094 11.628906 29.519531 C 11.953125 29.171875 12.535156 28.917969 13.125 29.316406 L 18.457031 34.042969 C 18.652344 34.214844 18.925781 34.257812 19.164062 34.152344 C 19.398438 34.042969 19.550781 33.808594 19.550781 33.550781 C 19.550781 32.820312 19.546875 15.625 19.542969 15.171875 C 19.542969 14.714844 19.71875 14.382812 20.070312 14.175781 C 20.492188 13.933594 21.078125 13.933594 21.5 14.175781 C 21.851562 14.378906 22.035156 14.714844 22.035156 15.167969 C 22.035156 15.167969 22.035156 15.171875 22.035156 15.171875 C 22.035156 15.167969 22.035156 27.332031 22.035156 27.332031 C 22.0625 28.203125 23.328125 28.203125 23.355469 27.332031 L 23.355469 25.589844 C 23.355469 24.882812 23.894531 24.429688 24.578125 24.429688 C 25.488281 24.429688 25.8125 25.054688 25.8125 25.589844 L 25.8125 28.234375 C 25.835938 29.105469 27.101562 29.109375 27.128906 28.234375 C 27.128906 28.226562 27.128906 26.511719 27.128906 26.5 C 27.128906 25.667969 27.765625 25.375 28.308594 25.375 C 28.785156 25.375 29.585938 25.632812 29.585938 26.589844 L 29.585938 29.421875 C 29.613281 30.292969 30.878906 30.296875 30.90625 29.421875 Z M 19.410156 13.039062 C 19.226562 13.144531 19.0625 13.269531 18.917969 13.414062 C 13.554688 9.851562 16.039062 1.351562 22.507812 1.324219 C 30.714844 1.621094 31.371094 13.21875 23.253906 14.449219 C 23.089844 13.847656 22.707031 13.351562 22.15625 13.035156 C 21.332031 12.558594 20.230469 12.5625 19.410156 13.039062 Z M 19.410156 13.039062 "/>
</g>
</svg>
