<?xml version="1.0" encoding="UTF-8"?>
<svg xmlns="http://www.w3.org/2000/svg" xmlns:xlink="http://www.w3.org/1999/xlink" width="40px" height="40px" viewBox="0 0 40 40" version="1.1">
<g id="surface1">
<path style=" stroke:none;fill-rule:nonzero;fill:rgb(0%,0%,0%);fill-opacity:1;" d="M 39.003906 22.492188 L 37.730469 11.46875 C 37.550781 9.917969 36.300781 8.808594 34.824219 8.882812 C 33.363281 8.953125 32.253906 10.144531 32.183594 11.71875 L 31.867188 18.890625 C 30.921875 18.636719 29.867188 18.878906 29.121094 19.617188 L 27.0625 21.652344 C 25.324219 23.375 23.714844 25.324219 23.714844 27.914062 L 23.714844 33.652344 C 22.761719 33.828125 22.035156 34.664062 22.035156 35.667969 L 22.035156 37.949219 C 22.035156 39.082031 22.957031 40 24.085938 40 L 32.882812 40 C 34.011719 40 34.929688 39.082031 34.929688 37.949219 L 34.929688 35.667969 C 34.929688 34.664062 34.207031 33.828125 33.253906 33.652344 L 33.253906 32.507812 C 33.253906 31.285156 33.890625 30.363281 36.085938 28.390625 C 37.859375 26.796875 39.390625 25.421875 39.003906 22.492188 Z M 33.367188 35.667969 L 33.367188 37.949219 C 33.367188 38.21875 33.148438 38.4375 32.882812 38.4375 L 24.085938 38.4375 C 23.820312 38.4375 23.597656 38.214844 23.597656 37.949219 L 23.597656 35.667969 C 23.597656 35.398438 23.816406 35.179688 24.085938 35.179688 L 32.882812 35.179688 C 33.148438 35.179688 33.367188 35.398438 33.367188 35.667969 Z M 35.042969 27.226562 C 32.773438 29.265625 31.691406 30.578125 31.691406 32.507812 L 31.691406 33.617188 L 25.277344 33.617188 L 25.277344 27.914062 C 25.277344 26.007812 26.429688 24.476562 28.160156 22.761719 L 30.21875 20.726562 C 30.722656 20.226562 31.539062 20.230469 32.039062 20.730469 C 32.539062 21.234375 32.535156 22.046875 32.035156 22.550781 L 28.882812 25.695312 C 28.578125 26 28.574219 26.496094 28.878906 26.800781 C 29.183594 27.105469 29.679688 27.105469 29.984375 26.800781 L 33.136719 23.65625 C 34.160156 22.632812 34.246094 21.019531 33.386719 19.90625 L 33.746094 11.789062 C 33.773438 11.144531 34.179688 10.476562 34.898438 10.441406 C 35.542969 10.410156 36.09375 10.925781 36.175781 11.648438 L 37.453125 22.679688 C 37.453125 22.683594 37.453125 22.6875 37.453125 22.691406 C 37.722656 24.71875 36.859375 25.59375 35.042969 27.226562 Z M 35.042969 27.226562 "/>
<path style=" stroke:none;fill-rule:nonzero;fill:rgb(0%,0%,0%);fill-opacity:1;" d="M 16.285156 33.652344 L 16.285156 27.914062 C 16.285156 25.324219 14.675781 23.375 12.933594 21.652344 L 10.878906 19.617188 C 10.132812 18.875 9.078125 18.636719 8.132812 18.886719 L 7.816406 11.71875 C 7.746094 10.144531 6.636719 8.953125 5.175781 8.882812 C 3.699219 8.804688 2.449219 9.917969 2.269531 11.46875 L 0.996094 22.492188 C 0.609375 25.421875 2.140625 26.796875 3.914062 28.390625 C 6.109375 30.363281 6.746094 31.285156 6.746094 32.507812 L 6.746094 33.652344 C 5.792969 33.828125 5.066406 34.664062 5.066406 35.667969 L 5.066406 37.949219 C 5.066406 39.082031 5.988281 40 7.117188 40 L 15.914062 40 C 17.042969 40 17.960938 39.082031 17.960938 37.949219 L 17.960938 35.667969 C 17.960938 34.664062 17.238281 33.828125 16.285156 33.652344 Z M 4.957031 27.226562 C 3.140625 25.59375 2.277344 24.71875 2.546875 22.695312 C 2.546875 22.6875 2.546875 22.683594 2.550781 22.679688 L 3.820312 11.648438 C 3.902344 10.925781 4.453125 10.40625 5.101562 10.441406 C 5.820312 10.476562 6.226562 11.144531 6.253906 11.789062 L 6.613281 19.90625 C 5.753906 21.023438 5.839844 22.636719 6.863281 23.65625 L 10.015625 26.800781 C 10.320312 27.105469 10.816406 27.105469 11.121094 26.800781 C 11.425781 26.496094 11.425781 26 11.117188 25.695312 L 7.964844 22.550781 C 7.464844 22.050781 7.460938 21.234375 7.960938 20.730469 C 8.460938 20.226562 9.277344 20.226562 9.78125 20.726562 L 11.835938 22.761719 C 13.566406 24.476562 14.722656 26.007812 14.722656 27.914062 L 14.722656 33.617188 L 8.308594 33.617188 L 8.308594 32.507812 C 8.308594 30.578125 7.230469 29.265625 4.957031 27.226562 Z M 16.398438 37.949219 C 16.398438 38.214844 16.179688 38.4375 15.914062 38.4375 L 7.117188 38.4375 C 6.851562 38.4375 6.628906 38.214844 6.628906 37.949219 L 6.628906 35.667969 C 6.628906 35.402344 6.851562 35.179688 7.117188 35.179688 L 15.914062 35.179688 C 16.179688 35.179688 16.398438 35.402344 16.398438 35.667969 Z M 16.398438 37.949219 "/>
<path style=" stroke:none;fill-rule:nonzero;fill:rgb(0%,0%,0%);fill-opacity:1;" d="M 14.636719 19.050781 L 16.492188 19.050781 C 16.921875 19.050781 17.273438 18.699219 17.273438 18.269531 C 17.273438 17.835938 16.921875 17.488281 16.492188 17.488281 L 14.636719 17.488281 C 14.304688 17.488281 14.03125 17.21875 14.03125 16.886719 L 14.03125 13.824219 C 14.03125 12.210938 14.90625 10.742188 16.289062 9.957031 C 17.285156 10.820312 18.582031 11.34375 20 11.34375 C 21.417969 11.34375 22.714844 10.820312 23.710938 9.957031 C 25.09375 10.742188 25.964844 12.210938 25.964844 13.824219 L 25.964844 16.886719 C 25.964844 17.21875 25.695312 17.488281 25.363281 17.488281 L 23.507812 17.488281 C 23.078125 17.488281 22.726562 17.835938 22.726562 18.269531 C 22.726562 18.699219 23.078125 19.050781 23.507812 19.050781 L 25.363281 19.050781 C 26.554688 19.050781 27.527344 18.078125 27.527344 16.886719 L 27.527344 13.824219 C 27.527344 11.753906 26.464844 9.859375 24.753906 8.765625 C 25.332031 7.875 25.671875 6.8125 25.671875 5.671875 C 25.671875 2.542969 23.128906 0 20 0 C 16.871094 0 14.328125 2.542969 14.328125 5.671875 C 14.328125 6.8125 14.667969 7.871094 15.246094 8.761719 C 13.535156 9.855469 12.472656 11.75 12.472656 13.824219 L 12.472656 16.886719 C 12.46875 18.078125 13.441406 19.050781 14.636719 19.050781 Z M 20 1.5625 C 22.265625 1.5625 24.109375 3.40625 24.109375 5.671875 C 24.109375 7.9375 22.265625 9.78125 20 9.78125 C 17.734375 9.78125 15.890625 7.9375 15.890625 5.671875 C 15.890625 3.40625 17.734375 1.5625 20 1.5625 Z M 20 1.5625 "/>
<path style=" stroke:none;fill-rule:nonzero;fill:rgb(0%,0%,0%);fill-opacity:1;" d="M 20 17.488281 C 19.566406 17.488281 19.21875 17.835938 19.21875 18.269531 C 19.21875 18.699219 19.566406 19.050781 20 19.050781 L 20.003906 19.050781 C 20.433594 19.050781 20.78125 18.699219 20.78125 18.269531 C 20.78125 17.835938 20.429688 17.488281 20 17.488281 Z M 20 17.488281 "/>
</g>
</svg>
