<?xml version="1.0" encoding="UTF-8"?>
<svg xmlns="http://www.w3.org/2000/svg" xmlns:xlink="http://www.w3.org/1999/xlink" width="45px" height="45px" viewBox="0 0 45 45" version="1.1">
<g id="surface1">
<path style=" stroke:none;fill-rule:evenodd;fill:rgb(0%,0%,0%);fill-opacity:1;" d="M 22.609375 36.5 C 22.015625 37.277344 21.019531 37.6875 20.011719 37.503906 L 9.753906 35.648438 C 8.796875 35.476562 7.957031 34.898438 7.457031 34.0625 C 6.957031 33.230469 6.839844 32.21875 7.132812 31.292969 L 7.644531 29.691406 C 7.941406 28.765625 8.621094 28.011719 9.515625 27.621094 C 10.40625 27.234375 11.421875 27.246094 12.304688 27.660156 L 16.054688 29.425781 L 16.054688 27.214844 C 13.929688 27.199219 12.214844 25.46875 12.214844 23.339844 L 12.214844 20.851562 C 12.214844 18.710938 13.949219 16.976562 16.085938 16.976562 L 29.128906 16.976562 C 31.269531 16.976562 33.003906 18.710938 33.003906 20.851562 L 33.003906 23.339844 C 33.003906 25.46875 31.285156 27.199219 29.160156 27.214844 L 29.160156 29.425781 L 32.914062 27.660156 C 33.792969 27.246094 34.8125 27.234375 35.703125 27.621094 C 36.59375 28.011719 37.277344 28.765625 37.570312 29.691406 L 38.082031 31.292969 C 38.378906 32.21875 38.261719 33.230469 37.761719 34.0625 C 37.257812 34.898438 36.421875 35.476562 35.464844 35.648438 L 25.207031 37.503906 C 24.195312 37.6875 23.203125 37.277344 22.609375 36.5 Z M 21.039062 33.128906 L 11.777344 28.777344 C 11.21875 28.515625 10.574219 28.507812 10.007812 28.753906 C 9.441406 29 9.011719 29.480469 8.820312 30.070312 L 8.3125 31.667969 C 8.121094 32.257812 8.199219 32.898438 8.515625 33.429688 C 8.835938 33.957031 9.367188 34.324219 9.972656 34.433594 L 20.230469 36.289062 C 20.941406 36.417969 21.632812 36 21.855469 35.3125 L 21.914062 35.128906 C 22.164062 34.339844 21.792969 33.484375 21.039062 33.128906 Z M 17.292969 30.003906 L 21.566406 32.011719 C 21.984375 32.210938 22.339844 32.496094 22.609375 32.839844 C 22.878906 32.496094 23.230469 32.210938 23.652344 32.011719 L 27.925781 30.003906 L 27.925781 27.214844 L 17.292969 27.214844 Z M 23.226562 25.980469 L 29.128906 25.980469 C 30.585938 25.980469 31.769531 24.796875 31.769531 23.339844 L 31.769531 20.851562 C 31.769531 19.394531 30.585938 18.210938 29.128906 18.210938 L 16.085938 18.210938 C 14.628906 18.210938 13.449219 19.394531 13.449219 20.851562 L 13.449219 23.339844 C 13.449219 24.796875 14.628906 25.980469 16.085938 25.980469 L 21.992188 25.980469 L 21.992188 22.714844 L 17.839844 22.714844 C 17.5 22.714844 17.222656 22.4375 17.222656 22.097656 C 17.222656 21.753906 17.5 21.476562 17.839844 21.476562 L 27.375 21.476562 C 27.714844 21.476562 27.992188 21.753906 27.992188 22.097656 C 27.992188 22.4375 27.714844 22.714844 27.375 22.714844 L 23.226562 22.714844 Z M 33.4375 28.777344 L 24.179688 33.128906 C 23.425781 33.484375 23.050781 34.339844 23.304688 35.128906 L 23.363281 35.3125 C 23.582031 36 24.277344 36.417969 24.988281 36.289062 L 35.246094 34.433594 C 35.851562 34.324219 36.382812 33.957031 36.703125 33.429688 C 37.019531 32.898438 37.09375 32.257812 36.90625 31.667969 L 36.394531 30.070312 C 36.207031 29.480469 35.773438 29 35.210938 28.753906 C 34.644531 28.507812 33.996094 28.515625 33.4375 28.777344 Z M 39.441406 2.523438 C 39.441406 2.183594 39.71875 1.90625 40.058594 1.90625 C 40.402344 1.90625 40.679688 2.183594 40.679688 2.523438 L 40.679688 3.511719 C 40.679688 3.855469 40.402344 4.132812 40.058594 4.132812 C 39.71875 4.132812 39.441406 3.855469 39.441406 3.511719 Z M 42.285156 4.132812 C 42.628906 4.132812 42.902344 4.410156 42.902344 4.75 C 42.902344 5.089844 42.628906 5.367188 42.285156 5.367188 L 41.296875 5.367188 C 40.957031 5.367188 40.679688 5.089844 40.679688 4.75 C 40.679688 4.410156 40.957031 4.132812 41.296875 4.132812 Z M 40.679688 6.976562 C 40.679688 7.316406 40.402344 7.59375 40.058594 7.59375 C 39.71875 7.59375 39.441406 7.316406 39.441406 6.976562 L 39.441406 5.988281 C 39.441406 5.644531 39.71875 5.371094 40.058594 5.371094 C 40.402344 5.371094 40.679688 5.644531 40.679688 5.988281 Z M 37.835938 5.367188 C 37.492188 5.367188 37.214844 5.089844 37.214844 4.75 C 37.214844 4.410156 37.492188 4.132812 37.835938 4.132812 L 38.824219 4.132812 C 39.164062 4.132812 39.441406 4.410156 39.441406 4.75 C 39.441406 5.089844 39.164062 5.367188 38.824219 5.367188 Z M 5.390625 14.679688 C 5.390625 14.339844 5.667969 14.0625 6.011719 14.0625 C 6.351562 14.0625 6.628906 14.339844 6.628906 14.679688 L 6.628906 15.671875 C 6.628906 16.011719 6.351562 16.289062 6.011719 16.289062 C 5.667969 16.289062 5.390625 16.011719 5.390625 15.671875 Z M 8.234375 16.289062 C 8.578125 16.289062 8.855469 16.566406 8.855469 16.90625 C 8.855469 17.246094 8.578125 17.523438 8.234375 17.523438 L 7.246094 17.523438 C 6.90625 17.523438 6.628906 17.246094 6.628906 16.90625 C 6.628906 16.566406 6.90625 16.289062 7.246094 16.289062 Z M 6.628906 19.132812 C 6.628906 19.472656 6.351562 19.75 6.011719 19.75 C 5.667969 19.75 5.390625 19.472656 5.390625 19.132812 L 5.390625 18.144531 C 5.390625 17.800781 5.667969 17.527344 6.011719 17.527344 C 6.351562 17.527344 6.628906 17.800781 6.628906 18.144531 Z M 3.785156 17.523438 C 3.441406 17.523438 3.164062 17.246094 3.164062 16.90625 C 3.164062 16.566406 3.441406 16.289062 3.785156 16.289062 L 4.773438 16.289062 C 5.113281 16.289062 5.390625 16.566406 5.390625 16.90625 C 5.390625 17.246094 5.113281 17.523438 4.773438 17.523438 Z M 13.078125 1.324219 C 13.078125 0.984375 13.355469 0.707031 13.695312 0.707031 C 14.035156 0.707031 14.3125 0.984375 14.3125 1.324219 L 14.3125 2.3125 C 14.3125 2.652344 14.035156 2.929688 13.695312 2.929688 C 13.355469 2.929688 13.078125 2.652344 13.078125 2.3125 Z M 15.921875 2.933594 C 16.261719 2.933594 16.539062 3.207031 16.539062 3.550781 C 16.539062 3.890625 16.261719 4.167969 15.921875 4.167969 L 14.933594 4.167969 C 14.589844 4.167969 14.316406 3.890625 14.316406 3.550781 C 14.316406 3.207031 14.589844 2.933594 14.933594 2.933594 Z M 14.3125 5.777344 C 14.3125 6.117188 14.035156 6.394531 13.695312 6.394531 C 13.355469 6.394531 13.078125 6.117188 13.078125 5.777344 L 13.078125 4.785156 C 13.078125 4.445312 13.355469 4.167969 13.695312 4.167969 C 14.035156 4.167969 14.3125 4.445312 14.3125 4.785156 Z M 11.46875 4.167969 C 11.128906 4.167969 10.851562 3.890625 10.851562 3.550781 C 10.851562 3.207031 11.128906 2.933594 11.46875 2.933594 L 12.457031 2.933594 C 12.800781 2.933594 13.078125 3.207031 13.078125 3.550781 C 13.078125 3.890625 12.800781 4.167969 12.457031 4.167969 Z M 4.320312 5.25 C 4.320312 4.90625 4.597656 4.628906 4.941406 4.628906 C 5.28125 4.628906 5.558594 4.90625 5.558594 5.25 L 5.558594 6.238281 C 5.558594 6.578125 5.28125 6.855469 4.941406 6.855469 C 4.597656 6.855469 4.320312 6.578125 4.320312 6.238281 Z M 7.164062 6.855469 C 7.507812 6.855469 7.785156 7.132812 7.785156 7.472656 C 7.785156 7.816406 7.507812 8.09375 7.164062 8.09375 L 6.175781 8.09375 C 5.835938 8.09375 5.558594 7.816406 5.558594 7.472656 C 5.558594 7.132812 5.835938 6.855469 6.175781 6.855469 Z M 5.558594 9.699219 C 5.558594 10.042969 5.28125 10.316406 4.941406 10.316406 C 4.597656 10.316406 4.320312 10.042969 4.320312 9.699219 L 4.320312 8.710938 C 4.320312 8.371094 4.597656 8.09375 4.941406 8.09375 C 5.28125 8.09375 5.558594 8.371094 5.558594 8.710938 Z M 2.714844 8.09375 C 2.371094 8.09375 2.097656 7.816406 2.097656 7.472656 C 2.097656 7.132812 2.371094 6.855469 2.714844 6.855469 L 3.703125 6.855469 C 4.042969 6.855469 4.320312 7.132812 4.320312 7.472656 C 4.320312 7.816406 4.042969 8.09375 3.703125 8.09375 Z M 33.726562 8.003906 C 33.726562 7.660156 34.003906 7.382812 34.34375 7.382812 C 34.683594 7.382812 34.960938 7.660156 34.960938 8.003906 L 34.960938 8.992188 C 34.960938 9.332031 34.683594 9.609375 34.34375 9.609375 C 34.003906 9.609375 33.726562 9.332031 33.726562 8.992188 Z M 36.570312 9.609375 C 36.910156 9.609375 37.1875 9.886719 37.1875 10.226562 C 37.1875 10.570312 36.910156 10.847656 36.570312 10.847656 L 35.578125 10.847656 C 35.238281 10.847656 34.960938 10.570312 34.960938 10.226562 C 34.960938 9.886719 35.238281 9.609375 35.578125 9.609375 Z M 34.960938 12.453125 C 34.960938 12.796875 34.683594 13.070312 34.34375 13.070312 C 34.003906 13.070312 33.726562 12.796875 33.726562 12.453125 L 33.726562 11.464844 C 33.726562 11.125 34.003906 10.847656 34.34375 10.847656 C 34.683594 10.847656 34.960938 11.125 34.960938 11.464844 Z M 32.117188 10.847656 C 31.777344 10.847656 31.5 10.570312 31.5 10.226562 C 31.5 9.886719 31.777344 9.609375 32.117188 9.609375 L 33.105469 9.609375 C 33.449219 9.609375 33.722656 9.886719 33.722656 10.226562 C 33.722656 10.570312 33.449219 10.847656 33.105469 10.847656 Z M 38.179688 16.90625 C 38.179688 16.566406 38.453125 16.289062 38.796875 16.289062 C 39.136719 16.289062 39.414062 16.566406 39.414062 16.90625 L 39.414062 17.894531 C 39.414062 18.238281 39.136719 18.515625 38.796875 18.515625 C 38.453125 18.515625 38.179688 18.238281 38.179688 17.894531 Z M 41.023438 18.515625 C 41.363281 18.515625 41.640625 18.792969 41.640625 19.132812 C 41.640625 19.472656 41.363281 19.75 41.023438 19.75 L 40.03125 19.75 C 39.691406 19.75 39.414062 19.472656 39.414062 19.132812 C 39.414062 18.792969 39.691406 18.515625 40.03125 18.515625 Z M 39.414062 21.359375 C 39.414062 21.699219 39.136719 21.976562 38.796875 21.976562 C 38.453125 21.976562 38.179688 21.699219 38.179688 21.359375 L 38.179688 20.371094 C 38.179688 20.027344 38.453125 19.753906 38.796875 19.753906 C 39.136719 19.753906 39.414062 20.027344 39.414062 20.371094 Z M 36.570312 19.75 C 36.230469 19.75 35.953125 19.472656 35.953125 19.132812 C 35.953125 18.792969 36.230469 18.515625 36.570312 18.515625 L 37.558594 18.515625 C 37.898438 18.515625 38.175781 18.792969 38.175781 19.132812 C 38.175781 19.472656 37.898438 19.75 37.558594 19.75 Z M 22.609375 4.410156 C 25.882812 4.410156 28.539062 7.070312 28.539062 10.34375 C 28.539062 13.617188 25.882812 16.273438 22.609375 16.273438 C 19.335938 16.273438 16.679688 13.617188 16.679688 10.34375 C 16.679688 7.070312 19.335938 4.410156 22.609375 4.410156 Z M 22.609375 5.648438 C 20.019531 5.648438 17.914062 7.75 17.914062 10.34375 C 17.914062 12.9375 20.019531 15.039062 22.609375 15.039062 C 25.199219 15.039062 27.304688 12.9375 27.304688 10.34375 C 27.304688 7.75 25.199219 5.648438 22.609375 5.648438 Z M 4.074219 39.234375 C 3.734375 39.234375 3.457031 38.957031 3.457031 38.617188 C 3.457031 38.277344 3.734375 38 4.074219 38 L 41.140625 38 C 41.484375 38 41.757812 38.277344 41.757812 38.617188 C 41.757812 38.957031 41.484375 39.234375 41.140625 39.234375 Z M 20.195312 41.765625 C 19.851562 41.765625 19.578125 41.488281 19.578125 41.148438 C 19.578125 40.804688 19.851562 40.53125 20.195312 40.53125 L 38.191406 40.53125 C 38.53125 40.53125 38.808594 40.804688 38.808594 41.148438 C 38.808594 41.488281 38.53125 41.765625 38.191406 41.765625 Z M 6.667969 44.292969 C 6.328125 44.292969 6.050781 44.015625 6.050781 43.675781 C 6.050781 43.335938 6.328125 43.058594 6.667969 43.058594 L 24.664062 43.058594 C 25.007812 43.058594 25.28125 43.335938 25.28125 43.675781 C 25.28125 44.015625 25.007812 44.292969 24.664062 44.292969 Z M 6.667969 44.292969 "/>
</g>
</svg>
