<?xml version="1.0" encoding="UTF-8"?>
<svg xmlns="http://www.w3.org/2000/svg" xmlns:xlink="http://www.w3.org/1999/xlink" width="45px" height="45px" viewBox="0 0 45 45" version="1.1">
<g id="surface1">
<path style=" stroke:none;fill-rule:nonzero;fill:rgb(0%,0%,0%);fill-opacity:1;" d="M 9.140625 18.28125 C 7.199219 18.28125 5.625 16.707031 5.625 14.765625 C 5.625 12.824219 7.199219 11.25 9.140625 11.25 C 11.082031 11.25 12.65625 12.824219 12.65625 14.765625 C 12.652344 16.707031 11.082031 18.277344 9.140625 18.28125 Z M 9.140625 12.65625 C 7.976562 12.65625 7.03125 13.601562 7.03125 14.765625 C 7.03125 15.929688 7.976562 16.875 9.140625 16.875 C 10.304688 16.875 11.25 15.929688 11.25 14.765625 C 11.25 13.601562 10.304688 12.65625 9.140625 12.65625 Z M 9.140625 12.65625 "/>
<path style=" stroke:none;fill-rule:nonzero;fill:rgb(0%,0%,0%);fill-opacity:1;" d="M 7.03125 33.046875 L 1.40625 33.046875 C 1.019531 33.046875 0.703125 32.730469 0.703125 32.34375 C 0.699219 30.394531 1.074219 28.464844 1.796875 26.660156 L 4.09375 20.914062 C 4.730469 19.332031 6.402344 18.421875 8.078125 18.757812 C 9.035156 18.949219 9.867188 19.527344 10.386719 20.351562 L 13.078125 24.664062 L 16.382812 25.132812 C 17.53125 25.296875 18.359375 26.320312 18.277344 27.476562 C 18.195312 28.636719 17.230469 29.53125 16.070312 29.53125 L 10.546875 29.53125 C 10.28125 29.53125 10.035156 29.378906 9.917969 29.140625 L 8.75 26.8125 L 7.722656 32.46875 C 7.660156 32.804688 7.371094 33.046875 7.03125 33.046875 Z M 2.125 31.640625 L 6.445312 31.640625 L 7.746094 24.484375 C 7.800781 24.1875 8.039062 23.957031 8.339844 23.914062 C 8.636719 23.871094 8.929688 24.023438 9.066406 24.296875 L 10.980469 28.125 L 16.070312 28.125 C 16.492188 28.125 16.839844 27.800781 16.871094 27.378906 C 16.902344 26.960938 16.601562 26.589844 16.1875 26.527344 L 12.554688 26.007812 C 12.351562 25.980469 12.167969 25.859375 12.058594 25.683594 L 9.195312 21.097656 C 8.765625 20.417969 7.992188 20.03125 7.195312 20.105469 C 6.394531 20.175781 5.699219 20.691406 5.402344 21.4375 L 3.105469 27.179688 C 2.535156 28.601562 2.203125 30.109375 2.128906 31.640625 Z M 2.125 31.640625 "/>
<path style=" stroke:none;fill-rule:nonzero;fill:rgb(0%,0%,0%);fill-opacity:1;" d="M 35.859375 18.28125 C 33.917969 18.28125 32.34375 16.707031 32.34375 14.765625 C 32.34375 12.824219 33.917969 11.25 35.859375 11.25 C 37.800781 11.25 39.375 12.824219 39.375 14.765625 C 39.371094 16.707031 37.800781 18.277344 35.859375 18.28125 Z M 35.859375 12.65625 C 34.695312 12.65625 33.75 13.601562 33.75 14.765625 C 33.75 15.929688 34.695312 16.875 35.859375 16.875 C 37.023438 16.875 37.96875 15.929688 37.96875 14.765625 C 37.96875 13.601562 37.023438 12.65625 35.859375 12.65625 Z M 35.859375 12.65625 "/>
<path style=" stroke:none;fill-rule:nonzero;fill:rgb(0%,0%,0%);fill-opacity:1;" d="M 43.59375 33.046875 L 37.96875 33.046875 C 37.628906 33.046875 37.339844 32.804688 37.277344 32.46875 L 36.25 26.8125 L 35.085938 29.140625 C 34.964844 29.382812 34.722656 29.53125 34.453125 29.53125 L 28.929688 29.53125 C 27.769531 29.535156 26.804688 28.636719 26.722656 27.480469 C 26.636719 26.320312 27.464844 25.296875 28.613281 25.132812 L 31.917969 24.664062 L 34.613281 20.351562 C 35.132812 19.527344 35.964844 18.949219 36.921875 18.757812 C 38.597656 18.421875 40.269531 19.328125 40.90625 20.914062 L 43.203125 26.660156 C 43.925781 28.464844 44.296875 30.394531 44.296875 32.34375 C 44.296875 32.730469 43.980469 33.046875 43.59375 33.046875 Z M 38.554688 31.640625 L 42.875 31.640625 C 42.796875 30.109375 42.464844 28.601562 41.894531 27.179688 L 39.597656 21.4375 C 39.300781 20.691406 38.609375 20.175781 37.808594 20.105469 C 37.007812 20.03125 36.234375 20.417969 35.808594 21.097656 L 32.941406 25.683594 C 32.832031 25.859375 32.648438 25.980469 32.445312 26.007812 L 28.8125 26.527344 C 28.398438 26.589844 28.097656 26.960938 28.128906 27.378906 C 28.160156 27.800781 28.507812 28.125 28.929688 28.125 L 34.019531 28.125 L 35.933594 24.296875 C 36.070312 24.023438 36.363281 23.871094 36.660156 23.914062 C 36.960938 23.957031 37.199219 24.1875 37.253906 24.484375 Z M 38.554688 31.640625 "/>
<path style=" stroke:none;fill-rule:nonzero;fill:rgb(0%,0%,0%);fill-opacity:1;" d="M 31.382812 22.757812 L 30.457031 20.390625 L 14.542969 20.390625 L 13.890625 22.054688 L 12.585938 21.539062 L 13.410156 19.429688 C 13.515625 19.164062 13.773438 18.984375 14.0625 18.984375 L 30.9375 18.984375 C 31.226562 18.984375 31.488281 19.160156 31.59375 19.429688 L 32.691406 22.242188 Z M 31.382812 22.757812 "/>
<path style=" stroke:none;fill-rule:nonzero;fill:rgb(0%,0%,0%);fill-opacity:1;" d="M 22.5 35.859375 C 20.171875 35.855469 18.285156 33.96875 18.28125 31.640625 L 18.28125 30.9375 C 18.28125 28.609375 20.171875 26.71875 22.5 26.71875 C 24.828125 26.71875 26.71875 28.609375 26.71875 30.9375 L 26.71875 31.640625 C 26.714844 33.96875 24.828125 35.855469 22.5 35.859375 Z M 22.5 28.125 C 20.945312 28.125 19.6875 29.382812 19.6875 30.9375 L 19.6875 31.640625 C 19.6875 33.195312 20.945312 34.453125 22.5 34.453125 C 24.054688 34.453125 25.3125 33.195312 25.3125 31.640625 L 25.3125 30.9375 C 25.3125 29.382812 24.054688 28.125 22.5 28.125 Z M 22.5 28.125 "/>
<path style=" stroke:none;fill-rule:nonzero;fill:rgb(0%,0%,0%);fill-opacity:1;" d="M 30.234375 43.59375 L 28.828125 43.59375 L 28.828125 40.078125 C 28.828125 38.914062 27.882812 37.96875 26.71875 37.96875 L 18.28125 37.96875 C 17.117188 37.96875 16.171875 38.914062 16.171875 40.078125 L 16.171875 43.59375 L 14.765625 43.59375 L 14.765625 40.078125 C 14.769531 38.136719 16.339844 36.566406 18.28125 36.5625 L 26.71875 36.5625 C 28.660156 36.566406 30.230469 38.136719 30.234375 40.078125 Z M 30.234375 43.59375 "/>
<path style=" stroke:none;fill-rule:nonzero;fill:rgb(0%,0%,0%);fill-opacity:1;" d="M 37.265625 39.375 L 30.9375 39.375 L 30.9375 37.96875 L 36.5625 37.96875 L 36.5625 35.992188 L 34.410156 30.492188 L 35.71875 29.976562 L 37.921875 35.601562 C 37.953125 35.683594 37.96875 35.773438 37.96875 35.859375 L 37.96875 38.671875 C 37.96875 39.058594 37.652344 39.375 37.265625 39.375 Z M 37.265625 39.375 "/>
<path style=" stroke:none;fill-rule:nonzero;fill:rgb(0%,0%,0%);fill-opacity:1;" d="M 14.0625 39.375 L 7.734375 39.375 C 7.347656 39.375 7.03125 39.058594 7.03125 38.671875 L 7.03125 35.859375 C 7.03125 35.773438 7.046875 35.683594 7.078125 35.601562 L 9.28125 29.976562 L 10.589844 30.492188 L 8.4375 35.992188 L 8.4375 37.96875 L 14.0625 37.96875 Z M 14.0625 39.375 "/>
<path style=" stroke:none;fill-rule:nonzero;fill:rgb(0%,0%,0%);fill-opacity:1;" d="M 42.1875 19.6875 L 40.78125 19.6875 L 40.78125 2.109375 L 4.21875 2.109375 L 4.21875 19.6875 L 2.8125 19.6875 L 2.8125 1.40625 C 2.8125 1.019531 3.128906 0.703125 3.515625 0.703125 L 41.484375 0.703125 C 41.871094 0.703125 42.1875 1.019531 42.1875 1.40625 Z M 42.1875 19.6875 "/>
<path style=" stroke:none;fill-rule:nonzero;fill:rgb(0%,0%,0%);fill-opacity:1;" d="M 15.261719 15.261719 L 14.269531 14.269531 L 19.191406 9.347656 C 19.464844 9.070312 19.910156 9.070312 20.183594 9.347656 L 23.90625 13.066406 L 32.550781 4.425781 L 33.542969 5.417969 L 24.402344 14.558594 C 24.128906 14.835938 23.683594 14.835938 23.410156 14.558594 L 19.6875 10.839844 Z M 15.261719 15.261719 "/>
<path style=" stroke:none;fill-rule:nonzero;fill:rgb(0%,0%,0%);fill-opacity:1;" d="M 33.75 9.140625 L 32.34375 9.140625 L 32.34375 5.625 L 28.828125 5.625 L 28.828125 4.21875 L 33.046875 4.21875 C 33.433594 4.21875 33.75 4.535156 33.75 4.921875 Z M 33.75 9.140625 "/>
<path style=" stroke:none;fill-rule:nonzero;fill:rgb(0%,0%,0%);fill-opacity:1;" d="M 7.734375 4.21875 L 16.171875 4.21875 L 16.171875 5.625 L 7.734375 5.625 Z M 7.734375 4.21875 "/>
<path style=" stroke:none;fill-rule:nonzero;fill:rgb(0%,0%,0%);fill-opacity:1;" d="M 7.734375 7.03125 L 12.65625 7.03125 L 12.65625 8.4375 L 7.734375 8.4375 Z M 7.734375 7.03125 "/>
</g>
</svg>
