<?xml version="1.0" encoding="UTF-8"?>
<svg xmlns="http://www.w3.org/2000/svg" xmlns:xlink="http://www.w3.org/1999/xlink" width="70px" height="70px" viewBox="0 0 70 70" version="1.1">
<g id="surface1">
<path style=" stroke:none;fill-rule:nonzero;fill:rgb(0%,0%,0%);fill-opacity:1;" d="M 66.882812 26.875 C 65.816406 25.363281 63.929688 24.488281 62.082031 24.65625 C 60.355469 24.8125 58.917969 25.867188 58.136719 27.554688 L 52.425781 39.898438 L 42.535156 45.011719 L 41.265625 45.011719 C 43.675781 43.125 45.230469 40.191406 45.230469 36.902344 C 45.230469 31.230469 40.617188 26.617188 34.941406 26.617188 C 29.269531 26.617188 24.65625 31.230469 24.65625 36.902344 C 24.65625 40.191406 26.210938 43.125 28.621094 45.011719 L 27.464844 45.011719 L 17.570312 39.898438 L 11.859375 27.554688 C 11.078125 25.871094 9.644531 24.8125 7.917969 24.65625 C 6.070312 24.488281 4.1875 25.359375 3.121094 26.875 C 2.125 28.289062 2 30.0625 2.777344 31.746094 L 9.125 45.472656 C 9.640625 46.589844 10.5 47.507812 11.546875 48.046875 L 23.527344 54.238281 L 23.527344 57.183594 C 23.527344 57.785156 24.015625 58.273438 24.617188 58.273438 C 25.222656 58.273438 25.710938 57.785156 25.710938 57.183594 L 25.710938 53.574219 C 25.710938 53.164062 25.480469 52.792969 25.117188 52.605469 L 12.550781 46.109375 C 11.941406 45.796875 11.414062 45.230469 11.105469 44.554688 L 4.757812 30.828125 C 4.179688 29.585938 4.519531 28.675781 4.902344 28.132812 C 5.519531 27.257812 6.652344 26.734375 7.71875 26.832031 C 8.386719 26.890625 9.300781 27.222656 9.878906 28.46875 L 15.746094 41.15625 C 15.847656 41.375 16.019531 41.554688 16.234375 41.667969 L 26.699219 47.070312 C 26.851562 47.148438 27.023438 47.191406 27.199219 47.191406 L 42.800781 47.191406 C 42.976562 47.191406 43.148438 47.148438 43.300781 47.070312 L 53.761719 41.667969 C 53.976562 41.554688 54.148438 41.375 54.25 41.15625 L 60.117188 28.46875 C 60.695312 27.222656 61.613281 26.890625 62.277344 26.828125 C 63.347656 26.734375 64.480469 27.257812 65.097656 28.132812 C 65.480469 28.675781 65.820312 29.585938 65.242188 30.828125 L 58.890625 44.558594 C 58.582031 45.230469 58.054688 45.796875 57.453125 46.109375 L 44.878906 52.605469 C 44.519531 52.792969 44.289062 53.164062 44.289062 53.574219 L 44.289062 67.75 L 25.710938 67.75 L 25.710938 60.203125 C 25.710938 59.601562 25.222656 59.113281 24.617188 59.113281 C 24.015625 59.113281 23.527344 59.601562 23.527344 60.203125 L 23.527344 68.839844 C 23.527344 69.441406 24.015625 69.933594 24.617188 69.933594 L 45.382812 69.933594 C 45.984375 69.933594 46.472656 69.445312 46.472656 68.839844 L 46.472656 54.238281 L 58.457031 48.046875 C 59.496094 47.503906 60.355469 46.589844 60.871094 45.472656 L 67.222656 31.746094 C 68 30.0625 67.878906 28.289062 66.882812 26.875 Z M 26.839844 36.902344 C 26.839844 32.433594 30.472656 28.800781 34.941406 28.800781 C 39.414062 28.800781 43.050781 32.433594 43.050781 36.902344 C 43.050781 41.375 39.414062 45.011719 34.941406 45.011719 C 30.472656 45.011719 26.839844 41.375 26.839844 36.902344 Z M 23.90625 9.550781 L 29.230469 13.960938 L 27.519531 20.664062 C 27.40625 21.09375 27.574219 21.550781 27.933594 21.816406 C 28.296875 22.078125 28.78125 22.09375 29.160156 21.855469 L 35 18.15625 L 40.839844 21.855469 C 41.019531 21.96875 41.222656 22.023438 41.425781 22.023438 C 41.648438 22.023438 41.875 21.953125 42.066406 21.816406 C 42.425781 21.550781 42.59375 21.09375 42.480469 20.664062 L 40.769531 13.960938 L 46.089844 9.550781 C 46.433594 9.265625 46.570312 8.796875 46.429688 8.371094 C 46.292969 7.945312 45.910156 7.648438 45.460938 7.621094 L 38.5625 7.183594 L 36.015625 0.757812 C 35.847656 0.339844 35.449219 0.0703125 35 0.0703125 C 34.554688 0.0703125 34.152344 0.339844 33.988281 0.757812 L 31.433594 7.179688 L 24.535156 7.621094 C 24.085938 7.648438 23.703125 7.945312 23.566406 8.371094 C 23.425781 8.796875 23.5625 9.265625 23.90625 9.550781 Z M 32.261719 9.316406 C 32.683594 9.289062 33.050781 9.019531 33.207031 8.628906 L 35 4.113281 L 36.789062 8.628906 C 36.945312 9.019531 37.3125 9.289062 37.734375 9.316406 L 42.582031 9.625 L 38.84375 12.722656 C 38.519531 12.992188 38.378906 13.425781 38.484375 13.832031 L 39.6875 18.539062 L 35.582031 15.941406 C 35.40625 15.828125 35.203125 15.773438 35 15.773438 C 34.796875 15.773438 34.59375 15.828125 34.417969 15.941406 L 30.3125 18.539062 L 31.515625 13.832031 C 31.621094 13.425781 31.480469 12.992188 31.15625 12.722656 L 27.414062 9.625 Z M 4.507812 12.960938 L 8.25 16.0625 L 7.050781 20.769531 C 6.9375 21.203125 7.101562 21.660156 7.464844 21.921875 C 7.828125 22.183594 8.3125 22.199219 8.6875 21.960938 L 12.792969 19.363281 L 16.898438 21.960938 C 17.078125 22.074219 17.28125 22.132812 17.480469 22.132812 C 17.707031 22.132812 17.933594 22.0625 18.125 21.921875 C 18.484375 21.660156 18.648438 21.203125 18.539062 20.769531 L 17.335938 16.0625 L 21.074219 12.960938 C 21.417969 12.675781 21.554688 12.207031 21.417969 11.785156 C 21.277344 11.359375 20.894531 11.0625 20.449219 11.03125 L 15.597656 10.722656 L 13.808594 6.210938 C 13.644531 5.796875 13.242188 5.523438 12.792969 5.523438 C 12.347656 5.523438 11.945312 5.796875 11.78125 6.210938 L 9.984375 10.722656 L 5.136719 11.03125 C 4.691406 11.0625 4.304688 11.359375 4.167969 11.785156 C 4.03125 12.210938 4.164062 12.675781 4.507812 12.960938 Z M 10.8125 12.859375 C 11.234375 12.832031 11.601562 12.5625 11.757812 12.171875 L 12.792969 9.566406 L 13.828125 12.171875 C 13.980469 12.5625 14.351562 12.832031 14.769531 12.859375 L 17.570312 13.035156 L 15.414062 14.824219 C 15.089844 15.09375 14.949219 15.527344 15.050781 15.933594 L 15.746094 18.652344 L 13.378906 17.152344 C 13.199219 17.039062 12.996094 16.984375 12.792969 16.984375 C 12.589844 16.984375 12.390625 17.039062 12.210938 17.152344 L 9.84375 18.652344 L 10.535156 15.933594 C 10.640625 15.527344 10.5 15.09375 10.175781 14.824219 L 8.015625 13.035156 Z M 48.925781 12.960938 L 52.664062 16.0625 L 51.460938 20.769531 C 51.351562 21.203125 51.515625 21.660156 51.875 21.921875 C 52.066406 22.0625 52.292969 22.132812 52.519531 22.132812 C 52.71875 22.132812 52.921875 22.074219 53.101562 21.960938 L 57.207031 19.363281 L 61.3125 21.960938 C 61.6875 22.203125 62.171875 22.1875 62.535156 21.921875 C 62.898438 21.660156 63.0625 21.203125 62.949219 20.769531 L 61.75 16.0625 L 65.488281 12.960938 C 65.832031 12.675781 65.96875 12.207031 65.828125 11.785156 C 65.691406 11.359375 65.304688 11.0625 64.859375 11.03125 L 60.011719 10.722656 L 58.21875 6.210938 C 58.054688 5.796875 57.652344 5.523438 57.207031 5.523438 C 56.757812 5.523438 56.359375 5.792969 56.191406 6.210938 L 54.398438 10.722656 L 49.550781 11.03125 C 49.105469 11.0625 48.722656 11.359375 48.582031 11.785156 C 48.445312 12.207031 48.582031 12.675781 48.925781 12.960938 Z M 55.226562 12.859375 C 55.644531 12.832031 56.015625 12.5625 56.167969 12.171875 L 57.203125 9.566406 L 58.238281 12.171875 C 58.394531 12.5625 58.761719 12.832031 59.183594 12.859375 L 61.980469 13.035156 L 59.824219 14.824219 C 59.5 15.09375 59.359375 15.527344 59.464844 15.933594 L 60.15625 18.652344 L 57.789062 17.152344 C 57.433594 16.925781 56.980469 16.925781 56.621094 17.152344 L 54.253906 18.652344 L 54.949219 15.933594 C 55.050781 15.527344 54.914062 15.09375 54.585938 14.824219 L 52.429688 13.035156 Z M 55.226562 12.859375 "/>
</g>
</svg>
