<?xml version="1.0" encoding="UTF-8"?>
<svg xmlns="http://www.w3.org/2000/svg" xmlns:xlink="http://www.w3.org/1999/xlink" width="70px" height="70px" viewBox="0 0 70 70" version="1.1">
<g id="surface1">
<path style=" stroke:none;fill-rule:nonzero;fill:rgb(0%,0%,0%);fill-opacity:1;" d="M 18.957031 40.832031 C 18.152344 40.832031 17.5 40.179688 17.5 39.375 L 17.5 24.792969 C 17.5 23.988281 18.152344 23.332031 18.957031 23.332031 C 19.761719 23.332031 20.417969 23.988281 20.417969 24.792969 L 20.417969 39.375 C 20.417969 40.179688 19.761719 40.832031 18.957031 40.832031 Z M 18.957031 40.832031 "/>
<path style=" stroke:none;fill-rule:nonzero;fill:rgb(0%,0%,0%);fill-opacity:1;" d="M 13.125 14.582031 C 9.105469 14.582031 5.832031 11.3125 5.832031 7.292969 C 5.832031 3.269531 9.105469 0 13.125 0 C 17.144531 0 20.417969 3.269531 20.417969 7.292969 C 20.417969 11.3125 17.144531 14.582031 13.125 14.582031 Z M 13.125 2.917969 C 10.710938 2.917969 8.75 4.878906 8.75 7.292969 C 8.75 9.703125 10.710938 11.667969 13.125 11.667969 C 15.539062 11.667969 17.5 9.703125 17.5 7.292969 C 17.5 4.878906 15.539062 2.917969 13.125 2.917969 Z M 13.125 2.917969 "/>
<path style=" stroke:none;fill-rule:nonzero;fill:rgb(0%,0%,0%);fill-opacity:1;" d="M 11.667969 23.332031 L 14.582031 23.332031 L 14.582031 26.25 L 11.667969 26.25 Z M 11.667969 23.332031 "/>
<path style=" stroke:none;fill-rule:nonzero;fill:rgb(0%,0%,0%);fill-opacity:1;" d="M 1.457031 40.832031 C 0.652344 40.832031 0 40.179688 0 39.375 L 0 26.25 C 0 21.425781 3.925781 17.5 8.75 17.5 L 40.832031 17.5 C 41.640625 17.5 42.292969 18.152344 42.292969 18.957031 L 42.292969 24.792969 C 42.292969 25.597656 41.640625 26.25 40.832031 26.25 L 18.957031 26.25 C 18.152344 26.25 17.5 25.597656 17.5 24.792969 C 17.5 23.988281 18.152344 23.332031 18.957031 23.332031 L 39.375 23.332031 L 39.375 20.417969 L 8.75 20.417969 C 5.53125 20.417969 2.917969 23.03125 2.917969 26.25 L 2.917969 39.375 C 2.917969 40.179688 2.261719 40.832031 1.457031 40.832031 Z M 1.457031 40.832031 "/>
<path style=" stroke:none;fill-rule:nonzero;fill:rgb(0%,0%,0%);fill-opacity:1;" d="M 7.292969 40.832031 C 6.488281 40.832031 5.832031 40.179688 5.832031 39.375 L 5.832031 35 C 5.832031 34.195312 6.488281 33.542969 7.292969 33.542969 C 8.097656 33.542969 8.75 34.195312 8.75 35 L 8.75 39.375 C 8.75 40.179688 8.097656 40.832031 7.292969 40.832031 Z M 7.292969 40.832031 "/>
<path style=" stroke:none;fill-rule:nonzero;fill:rgb(0%,0%,0%);fill-opacity:1;" d="M 11.667969 55.417969 C 8.449219 55.417969 5.832031 52.800781 5.832031 49.582031 C 5.832031 46.367188 8.449219 43.75 11.667969 43.75 C 14.882812 43.75 17.5 46.367188 17.5 49.582031 C 17.5 52.800781 14.882812 55.417969 11.667969 55.417969 Z M 11.667969 46.667969 C 10.058594 46.667969 8.75 47.976562 8.75 49.582031 C 8.75 51.191406 10.058594 52.5 11.667969 52.5 C 13.273438 52.5 14.582031 51.191406 14.582031 49.582031 C 14.582031 47.976562 13.273438 46.667969 11.667969 46.667969 Z M 11.667969 46.667969 "/>
<path style=" stroke:none;fill-rule:nonzero;fill:rgb(0%,0%,0%);fill-opacity:1;" d="M 18.957031 70 L 1.457031 70 C 0.652344 70 0 69.347656 0 68.542969 L 0 65.625 C 0 63.679688 0.757812 61.847656 2.136719 60.46875 C 3.511719 59.09375 5.34375 58.332031 7.292969 58.332031 L 16.042969 58.332031 C 17.992188 58.332031 19.820312 59.09375 21.199219 60.46875 C 21.765625 61.042969 21.765625 61.964844 21.195312 62.535156 C 20.625 63.101562 19.703125 63.101562 19.132812 62.53125 C 18.308594 61.703125 17.210938 61.25 16.042969 61.25 L 7.292969 61.25 C 6.125 61.25 5.027344 61.707031 4.199219 62.53125 C 3.371094 63.359375 2.917969 64.457031 2.917969 65.625 L 2.917969 67.082031 L 18.957031 67.082031 C 19.761719 67.082031 20.417969 67.734375 20.417969 68.542969 C 20.417969 69.347656 19.761719 70 18.957031 70 Z M 18.957031 70 "/>
<path style=" stroke:none;fill-rule:nonzero;fill:rgb(0%,0%,0%);fill-opacity:1;" d="M 35 55.417969 C 31.78125 55.417969 29.167969 52.800781 29.167969 49.582031 C 29.167969 46.367188 31.78125 43.75 35 43.75 C 38.21875 43.75 40.832031 46.367188 40.832031 49.582031 C 40.832031 52.800781 38.21875 55.417969 35 55.417969 Z M 35 46.667969 C 33.390625 46.667969 32.082031 47.976562 32.082031 49.582031 C 32.082031 51.191406 33.390625 52.5 35 52.5 C 36.609375 52.5 37.917969 51.191406 37.917969 49.582031 C 37.917969 47.976562 36.609375 46.667969 35 46.667969 Z M 35 46.667969 "/>
<path style=" stroke:none;fill-rule:nonzero;fill:rgb(0%,0%,0%);fill-opacity:1;" d="M 45.207031 70 L 24.792969 70 C 23.988281 70 23.332031 69.347656 23.332031 68.542969 L 23.332031 65.625 C 23.332031 63.679688 24.09375 61.847656 25.46875 60.46875 C 26.847656 59.09375 28.679688 58.332031 30.625 58.332031 L 39.375 58.332031 C 41.324219 58.332031 43.15625 59.09375 44.53125 60.46875 C 45.90625 61.847656 46.667969 63.679688 46.667969 65.625 L 46.667969 68.542969 C 46.667969 69.347656 46.015625 70 45.207031 70 Z M 26.25 67.082031 L 43.75 67.082031 L 43.75 65.625 C 43.75 64.457031 43.292969 63.355469 42.46875 62.53125 C 41.644531 61.703125 40.542969 61.25 39.375 61.25 L 30.625 61.25 C 29.457031 61.25 28.359375 61.707031 27.53125 62.53125 C 26.703125 63.359375 26.25 64.457031 26.25 65.625 Z M 26.25 67.082031 "/>
<path style=" stroke:none;fill-rule:nonzero;fill:rgb(0%,0%,0%);fill-opacity:1;" d="M 58.332031 55.417969 C 55.117188 55.417969 52.5 52.800781 52.5 49.582031 C 52.5 46.367188 55.117188 43.75 58.332031 43.75 C 61.550781 43.75 64.167969 46.367188 64.167969 49.582031 C 64.167969 52.800781 61.550781 55.417969 58.332031 55.417969 Z M 58.332031 46.667969 C 56.726562 46.667969 55.417969 47.976562 55.417969 49.582031 C 55.417969 51.191406 56.726562 52.5 58.332031 52.5 C 59.941406 52.5 61.25 51.191406 61.25 49.582031 C 61.25 47.976562 59.941406 46.667969 58.332031 46.667969 Z M 58.332031 46.667969 "/>
<path style=" stroke:none;fill-rule:nonzero;fill:rgb(0%,0%,0%);fill-opacity:1;" d="M 68.542969 70 L 51.042969 70 C 50.234375 70 49.582031 69.347656 49.582031 68.542969 C 49.582031 67.734375 50.234375 67.082031 51.042969 67.082031 L 67.082031 67.082031 L 67.082031 65.625 C 67.082031 64.457031 66.625 63.355469 65.800781 62.53125 C 64.976562 61.703125 63.878906 61.25 62.707031 61.25 L 53.957031 61.25 C 52.789062 61.25 51.691406 61.707031 50.867188 62.53125 C 50.292969 63.101562 49.375 63.101562 48.804688 62.53125 C 48.234375 61.960938 48.234375 61.039062 48.804688 60.46875 C 50.179688 59.09375 52.011719 58.332031 53.957031 58.332031 L 62.707031 58.332031 C 64.65625 58.332031 66.488281 59.09375 67.863281 60.46875 C 69.238281 61.847656 70 63.679688 70 65.625 L 70 68.542969 C 70 69.347656 69.347656 70 68.542969 70 Z M 68.542969 70 "/>
<path style=" stroke:none;fill-rule:nonzero;fill:rgb(0%,0%,0%);fill-opacity:1;" d="M 65.625 40.832031 L 24.792969 40.832031 C 23.988281 40.832031 23.332031 40.179688 23.332031 39.375 C 23.332031 38.570312 23.988281 37.917969 24.792969 37.917969 L 65.625 37.917969 C 66.429688 37.917969 67.082031 37.261719 67.082031 36.457031 L 67.082031 4.375 C 67.082031 3.570312 66.429688 2.917969 65.625 2.917969 L 24.792969 2.917969 C 23.988281 2.917969 23.332031 2.261719 23.332031 1.457031 C 23.332031 0.652344 23.988281 0 24.792969 0 L 65.625 0 C 68.039062 0 70 1.960938 70 4.375 L 70 36.457031 C 70 38.871094 68.039062 40.832031 65.625 40.832031 Z M 65.625 40.832031 "/>
<path style=" stroke:none;fill-rule:nonzero;fill:rgb(0%,0%,0%);fill-opacity:1;" d="M 62.707031 35 L 24.792969 35 C 23.988281 35 23.332031 34.347656 23.332031 33.542969 C 23.332031 32.738281 23.988281 32.082031 24.792969 32.082031 L 62.707031 32.082031 C 63.515625 32.082031 64.167969 32.738281 64.167969 33.542969 C 64.167969 34.347656 63.515625 35 62.707031 35 Z M 62.707031 35 "/>
<path style=" stroke:none;fill-rule:nonzero;fill:rgb(0%,0%,0%);fill-opacity:1;" d="M 35 5.832031 L 37.917969 5.832031 L 37.917969 8.75 L 35 8.75 Z M 35 5.832031 "/>
<path style=" stroke:none;fill-rule:nonzero;fill:rgb(0%,0%,0%);fill-opacity:1;" d="M 29.167969 5.832031 L 32.082031 5.832031 L 32.082031 8.75 L 29.167969 8.75 Z M 29.167969 5.832031 "/>
<path style=" stroke:none;fill-rule:nonzero;fill:rgb(0%,0%,0%);fill-opacity:1;" d="M 23.332031 5.832031 L 26.25 5.832031 L 26.25 8.75 L 23.332031 8.75 Z M 23.332031 5.832031 "/>
</g>
</svg>
