<?xml version="1.0" encoding="UTF-8"?>
<svg xmlns="http://www.w3.org/2000/svg" xmlns:xlink="http://www.w3.org/1999/xlink" width="70px" height="70px" viewBox="0 0 70 70" version="1.1">
<g id="surface1">
<path style=" stroke:none;fill-rule:nonzero;fill:rgb(0%,0%,0%);fill-opacity:1;" d="M 66.738281 53.640625 L 65.941406 53.640625 C 65.914062 53.640625 65.890625 53.621094 65.878906 53.589844 C 65.722656 53.117188 65.527344 52.648438 65.304688 52.203125 C 65.289062 52.175781 65.292969 52.144531 65.3125 52.121094 L 65.875 51.5625 C 66.273438 51.160156 66.496094 50.628906 66.496094 50.066406 C 66.496094 49.5 66.277344 48.96875 65.875 48.570312 L 64.183594 46.878906 C 63.785156 46.480469 63.253906 46.257812 62.6875 46.257812 C 62.125 46.257812 61.59375 46.480469 61.195312 46.878906 L 60.632812 47.441406 C 60.613281 47.460938 60.582031 47.464844 60.550781 47.449219 C 60.105469 47.226562 59.636719 47.03125 59.164062 46.875 C 59.132812 46.863281 59.113281 46.839844 59.113281 46.8125 L 59.113281 46.015625 C 59.113281 44.851562 58.167969 43.902344 57 43.902344 L 56.121094 43.902344 C 55.246094 43.296875 54.28125 42.847656 53.253906 42.5625 L 40.847656 39.105469 C 40.457031 38.996094 40.039062 39.027344 39.671875 39.179688 C 39.378906 38.773438 39.191406 38.25 39.191406 37.761719 L 39.191406 34.328125 C 39.773438 33.953125 40.339844 33.527344 40.882812 33.058594 C 43.25 31.023438 44.734375 28.082031 45.050781 24.871094 C 46.785156 24.804688 48.171875 23.375 48.171875 21.628906 L 48.171875 19.167969 C 48.171875 18.074219 47.640625 17.09375 46.78125 16.5 L 46.941406 15.902344 C 46.964844 15.804688 46.976562 15.710938 46.976562 15.613281 L 46.976562 10.976562 C 46.976562 10.410156 46.515625 9.949219 45.949219 9.949219 C 45.382812 9.949219 44.925781 10.410156 44.925781 10.976562 L 44.925781 14.183594 C 40.613281 12.726562 36.210938 11.992188 31.820312 11.992188 C 27.429688 11.992188 23.027344 12.726562 18.714844 14.183594 L 18.714844 8.832031 C 18.714844 6.511719 20.292969 4.515625 22.550781 3.976562 L 29.734375 2.269531 C 30.929688 1.984375 32.191406 1.976562 33.390625 2.253906 L 41.050781 4.007812 C 42.511719 4.34375 43.738281 5.308594 44.40625 6.65625 C 44.65625 7.164062 45.273438 7.371094 45.78125 7.117188 C 46.285156 6.867188 46.492188 6.25 46.242188 5.742188 C 45.296875 3.84375 43.574219 2.484375 41.507812 2.011719 L 33.847656 0.253906 C 32.347656 -0.0898438 30.757812 -0.0859375 29.261719 0.273438 L 22.074219 1.984375 C 18.890625 2.742188 16.664062 5.558594 16.664062 8.832031 L 16.664062 15.613281 C 16.664062 15.664062 16.664062 15.714844 16.671875 15.765625 C 16.671875 15.765625 16.671875 15.769531 16.671875 15.773438 C 16.675781 15.777344 16.675781 15.78125 16.675781 15.785156 C 16.675781 15.792969 16.675781 15.796875 16.679688 15.804688 C 16.679688 15.804688 16.679688 15.804688 16.679688 15.808594 C 16.683594 15.847656 16.695312 15.882812 16.703125 15.921875 L 16.859375 16.5 C 16 17.09375 15.46875 18.074219 15.46875 19.167969 L 15.46875 21.628906 C 15.46875 23.375 16.855469 24.804688 18.589844 24.871094 C 18.902344 28.082031 20.390625 31.023438 22.753906 33.058594 C 23.300781 33.527344 23.867188 33.953125 24.449219 34.328125 L 24.449219 37.761719 C 24.449219 38.25 24.261719 38.773438 23.96875 39.179688 C 23.601562 39.027344 23.183594 38.996094 22.792969 39.105469 L 10.386719 42.5625 C 6.8125 43.558594 4.101562 46.5625 3.476562 50.21875 L 2.960938 53.246094 C 2.863281 53.804688 3.238281 54.335938 3.796875 54.429688 C 3.855469 54.441406 3.914062 54.445312 3.972656 54.445312 C 4.460938 54.445312 4.894531 54.09375 4.980469 53.59375 L 5.5 50.5625 C 5.992188 47.6875 8.125 45.320312 10.9375 44.539062 L 16.800781 42.902344 L 22.457031 49.359375 C 22.46875 49.371094 22.480469 49.382812 22.492188 49.398438 C 22.496094 49.398438 22.5 49.402344 22.503906 49.40625 C 22.511719 49.417969 22.523438 49.429688 22.535156 49.441406 C 22.535156 49.441406 22.535156 49.445312 22.539062 49.445312 C 22.550781 49.460938 22.5625 49.472656 22.574219 49.484375 C 22.578125 49.488281 22.582031 49.492188 22.582031 49.492188 L 22.613281 49.527344 C 22.617188 49.527344 22.617188 49.53125 22.621094 49.53125 C 22.632812 49.546875 22.644531 49.558594 22.65625 49.570312 C 22.660156 49.570312 22.660156 49.574219 22.664062 49.578125 C 22.675781 49.585938 22.683594 49.597656 22.695312 49.609375 C 22.699219 49.609375 22.699219 49.613281 22.703125 49.617188 C 22.714844 49.628906 22.730469 49.640625 22.742188 49.652344 C 22.742188 49.652344 22.746094 49.65625 22.746094 49.65625 C 22.757812 49.667969 22.769531 49.675781 22.777344 49.6875 C 22.78125 49.691406 22.785156 49.695312 22.789062 49.695312 C 22.800781 49.707031 22.816406 49.71875 22.828125 49.730469 C 22.828125 49.730469 22.828125 49.734375 22.828125 49.734375 C 22.839844 49.742188 22.855469 49.753906 22.867188 49.765625 C 22.871094 49.769531 22.875 49.773438 22.878906 49.773438 C 22.890625 49.785156 22.898438 49.792969 22.910156 49.804688 C 22.914062 49.804688 22.914062 49.808594 22.914062 49.808594 C 22.929688 49.820312 22.941406 49.832031 22.953125 49.839844 C 22.957031 49.84375 22.960938 49.847656 22.964844 49.851562 C 22.976562 49.859375 22.988281 49.867188 22.996094 49.875 C 23 49.878906 23.003906 49.878906 23.007812 49.882812 C 23.019531 49.894531 23.03125 49.902344 23.046875 49.914062 C 23.050781 49.917969 23.050781 49.917969 23.054688 49.921875 C 23.066406 49.929688 23.078125 49.9375 23.085938 49.945312 C 23.089844 49.949219 23.09375 49.953125 23.097656 49.957031 C 23.113281 49.964844 23.125 49.972656 23.136719 49.984375 C 23.140625 49.984375 23.144531 49.988281 23.148438 49.992188 C 23.160156 50 23.167969 50.007812 23.179688 50.015625 C 23.183594 50.015625 23.1875 50.019531 23.191406 50.023438 C 23.207031 50.03125 23.21875 50.042969 23.230469 50.050781 C 23.234375 50.054688 23.238281 50.054688 23.238281 50.058594 C 23.25 50.0625 23.261719 50.070312 23.273438 50.082031 C 23.277344 50.082031 23.28125 50.085938 23.289062 50.089844 C 23.296875 50.097656 23.308594 50.105469 23.320312 50.109375 C 23.324219 50.113281 23.328125 50.117188 23.332031 50.117188 C 23.34375 50.125 23.355469 50.136719 23.367188 50.144531 C 23.375 50.148438 23.378906 50.148438 23.386719 50.152344 C 23.394531 50.160156 23.402344 50.164062 23.414062 50.171875 C 23.417969 50.175781 23.421875 50.175781 23.425781 50.179688 C 23.441406 50.1875 23.453125 50.195312 23.464844 50.203125 C 23.472656 50.207031 23.476562 50.210938 23.484375 50.214844 C 23.492188 50.21875 23.5 50.222656 23.511719 50.230469 C 23.515625 50.234375 23.519531 50.238281 23.527344 50.238281 C 23.539062 50.246094 23.550781 50.253906 23.566406 50.261719 C 23.570312 50.265625 23.578125 50.269531 23.582031 50.273438 C 23.589844 50.277344 23.597656 50.28125 23.609375 50.285156 C 23.613281 50.289062 23.621094 50.292969 23.628906 50.296875 C 23.636719 50.300781 23.648438 50.308594 23.65625 50.3125 C 23.664062 50.316406 23.675781 50.320312 23.683594 50.328125 C 23.691406 50.332031 23.699219 50.335938 23.710938 50.339844 C 23.714844 50.34375 23.722656 50.347656 23.730469 50.351562 C 23.738281 50.355469 23.746094 50.359375 23.753906 50.363281 C 23.765625 50.367188 23.777344 50.375 23.789062 50.378906 C 23.796875 50.382812 23.800781 50.386719 23.808594 50.390625 C 23.816406 50.394531 23.824219 50.398438 23.832031 50.402344 C 23.839844 50.40625 23.847656 50.410156 23.855469 50.414062 C 23.863281 50.417969 23.875 50.421875 23.886719 50.425781 C 23.894531 50.429688 23.90625 50.4375 23.914062 50.441406 C 23.921875 50.445312 23.929688 50.449219 23.941406 50.453125 C 23.945312 50.453125 23.949219 50.457031 23.957031 50.457031 C 23.964844 50.464844 23.972656 50.46875 23.984375 50.472656 C 23.984375 50.472656 23.988281 50.472656 23.992188 50.476562 C 24.011719 50.480469 24.027344 50.488281 24.046875 50.496094 C 24.050781 50.5 24.058594 50.5 24.0625 50.503906 C 24.070312 50.507812 24.078125 50.511719 24.089844 50.515625 C 24.09375 50.515625 24.101562 50.519531 24.105469 50.523438 C 24.121094 50.527344 24.136719 50.535156 24.152344 50.539062 C 24.160156 50.542969 24.164062 50.542969 24.167969 50.546875 C 24.175781 50.550781 24.1875 50.554688 24.195312 50.554688 C 24.199219 50.558594 24.203125 50.558594 24.207031 50.5625 C 24.226562 50.566406 24.25 50.574219 24.269531 50.582031 C 24.269531 50.582031 24.273438 50.582031 24.273438 50.585938 C 24.285156 50.589844 24.296875 50.59375 24.304688 50.59375 C 24.308594 50.597656 24.3125 50.597656 24.316406 50.597656 C 24.351562 50.609375 24.382812 50.621094 24.417969 50.632812 C 24.417969 50.632812 24.421875 50.632812 24.425781 50.632812 C 24.460938 50.644531 24.492188 50.65625 24.527344 50.664062 C 24.53125 50.664062 24.535156 50.664062 24.535156 50.667969 C 24.570312 50.675781 24.605469 50.683594 24.640625 50.695312 C 24.644531 50.695312 24.644531 50.695312 24.648438 50.695312 C 24.660156 50.699219 24.671875 50.703125 24.683594 50.703125 C 24.683594 50.703125 24.683594 50.703125 24.6875 50.703125 C 24.710938 50.710938 24.734375 50.714844 24.757812 50.722656 C 24.773438 50.722656 24.785156 50.726562 24.796875 50.730469 C 24.796875 50.730469 24.796875 50.730469 24.800781 50.730469 C 24.835938 50.738281 24.871094 50.746094 24.910156 50.75 C 24.910156 50.75 24.914062 50.753906 24.917969 50.753906 C 24.953125 50.757812 24.988281 50.765625 25.023438 50.769531 C 25.027344 50.769531 25.027344 50.769531 25.03125 50.769531 C 25.066406 50.777344 25.101562 50.78125 25.140625 50.785156 C 25.140625 50.785156 25.140625 50.789062 25.144531 50.789062 C 25.15625 50.789062 25.167969 50.789062 25.179688 50.792969 C 25.179688 50.792969 25.183594 50.792969 25.183594 50.792969 C 25.207031 50.792969 25.230469 50.796875 25.257812 50.800781 C 25.269531 50.800781 25.285156 50.800781 25.296875 50.804688 C 25.296875 50.804688 25.296875 50.804688 25.300781 50.804688 C 25.335938 50.808594 25.375 50.808594 25.410156 50.8125 C 25.414062 50.8125 25.414062 50.8125 25.417969 50.8125 C 25.453125 50.816406 25.488281 50.816406 25.523438 50.816406 C 25.527344 50.816406 25.53125 50.816406 25.535156 50.816406 C 25.570312 50.820312 25.605469 50.820312 25.640625 50.820312 L 25.652344 50.820312 C 25.660156 50.820312 25.664062 50.820312 25.671875 50.820312 C 25.792969 50.820312 25.917969 50.816406 26.039062 50.804688 L 26.042969 50.804688 C 26.066406 50.800781 26.09375 50.800781 26.121094 50.796875 C 26.195312 50.789062 26.273438 50.777344 26.351562 50.765625 C 26.351562 50.765625 26.355469 50.765625 26.359375 50.765625 C 26.367188 50.761719 26.378906 50.761719 26.390625 50.757812 C 26.390625 50.757812 26.394531 50.757812 26.398438 50.757812 C 26.40625 50.757812 26.417969 50.753906 26.429688 50.753906 C 26.433594 50.753906 26.433594 50.75 26.4375 50.75 C 26.449219 50.75 26.457031 50.746094 26.46875 50.746094 C 26.472656 50.746094 26.476562 50.742188 26.480469 50.742188 C 26.488281 50.742188 26.5 50.738281 26.507812 50.738281 C 26.511719 50.738281 26.515625 50.734375 26.523438 50.734375 C 26.53125 50.734375 26.539062 50.730469 26.550781 50.730469 C 26.554688 50.730469 26.558594 50.726562 26.5625 50.726562 C 26.570312 50.722656 26.582031 50.722656 26.589844 50.71875 C 26.59375 50.71875 26.597656 50.71875 26.597656 50.71875 C 26.628906 50.710938 26.660156 50.703125 26.691406 50.695312 C 26.699219 50.695312 26.703125 50.691406 26.710938 50.691406 C 26.71875 50.691406 26.726562 50.6875 26.730469 50.6875 C 26.738281 50.683594 26.746094 50.683594 26.75 50.679688 C 26.757812 50.679688 26.765625 50.679688 26.773438 50.675781 C 26.78125 50.675781 26.785156 50.671875 26.792969 50.671875 C 26.800781 50.667969 26.804688 50.667969 26.8125 50.664062 C 26.820312 50.664062 26.828125 50.660156 26.835938 50.660156 C 26.839844 50.65625 26.847656 50.65625 26.855469 50.652344 C 26.859375 50.652344 26.867188 50.648438 26.875 50.648438 C 26.882812 50.644531 26.886719 50.644531 26.894531 50.640625 C 26.902344 50.640625 26.910156 50.636719 26.917969 50.632812 C 26.921875 50.632812 26.929688 50.628906 26.933594 50.628906 C 26.941406 50.625 26.953125 50.625 26.957031 50.621094 C 26.964844 50.621094 26.96875 50.617188 26.976562 50.617188 C 26.984375 50.613281 26.992188 50.609375 27.003906 50.609375 C 27.007812 50.605469 27.011719 50.605469 27.015625 50.601562 C 27.03125 50.597656 27.042969 50.59375 27.058594 50.589844 L 31.820312 48.96875 L 36.582031 50.589844 C 36.597656 50.59375 36.609375 50.597656 36.625 50.601562 C 36.628906 50.605469 36.632812 50.605469 36.636719 50.605469 C 36.644531 50.609375 36.652344 50.613281 36.664062 50.617188 C 36.667969 50.617188 36.675781 50.621094 36.679688 50.621094 L 36.707031 50.628906 C 36.710938 50.628906 36.714844 50.632812 36.722656 50.632812 C 36.730469 50.636719 36.738281 50.640625 36.746094 50.640625 C 36.75 50.644531 36.757812 50.644531 36.765625 50.648438 C 36.769531 50.648438 36.777344 50.652344 36.785156 50.652344 C 36.792969 50.65625 36.800781 50.65625 36.804688 50.660156 C 36.8125 50.660156 36.820312 50.664062 36.828125 50.664062 C 36.832031 50.667969 36.839844 50.667969 36.847656 50.671875 C 36.855469 50.671875 36.859375 50.671875 36.867188 50.675781 C 36.875 50.675781 36.882812 50.679688 36.886719 50.679688 C 36.894531 50.683594 36.902344 50.683594 36.910156 50.6875 C 36.917969 50.6875 36.921875 50.691406 36.929688 50.691406 C 36.933594 50.691406 36.941406 50.695312 36.945312 50.695312 C 36.976562 50.703125 37.007812 50.710938 37.039062 50.71875 C 37.042969 50.71875 37.046875 50.71875 37.050781 50.71875 C 37.058594 50.722656 37.070312 50.722656 37.078125 50.726562 C 37.082031 50.726562 37.085938 50.726562 37.089844 50.730469 C 37.097656 50.730469 37.105469 50.730469 37.117188 50.734375 C 37.121094 50.734375 37.128906 50.734375 37.132812 50.738281 C 37.140625 50.738281 37.148438 50.742188 37.15625 50.742188 C 37.164062 50.742188 37.167969 50.742188 37.175781 50.746094 C 37.179688 50.746094 37.191406 50.75 37.195312 50.75 C 37.203125 50.75 37.210938 50.75 37.214844 50.753906 C 37.222656 50.753906 37.230469 50.753906 37.238281 50.757812 C 37.242188 50.757812 37.25 50.757812 37.253906 50.757812 C 37.261719 50.761719 37.273438 50.761719 37.28125 50.765625 C 37.285156 50.765625 37.289062 50.765625 37.296875 50.765625 C 37.304688 50.765625 37.3125 50.769531 37.320312 50.769531 C 37.324219 50.769531 37.328125 50.769531 37.332031 50.773438 C 37.363281 50.777344 37.398438 50.78125 37.429688 50.785156 C 37.433594 50.785156 37.4375 50.785156 37.441406 50.785156 C 37.449219 50.789062 37.460938 50.789062 37.46875 50.789062 C 37.472656 50.789062 37.476562 50.792969 37.484375 50.792969 C 37.492188 50.792969 37.5 50.792969 37.507812 50.792969 C 37.511719 50.796875 37.519531 50.796875 37.523438 50.796875 C 37.53125 50.796875 37.539062 50.796875 37.546875 50.800781 C 37.554688 50.800781 37.558594 50.800781 37.566406 50.800781 C 37.574219 50.800781 37.582031 50.800781 37.589844 50.804688 L 37.609375 50.804688 C 37.617188 50.804688 37.621094 50.804688 37.628906 50.804688 C 37.636719 50.804688 37.644531 50.808594 37.648438 50.808594 C 37.65625 50.808594 37.664062 50.808594 37.671875 50.808594 C 37.679688 50.808594 37.683594 50.808594 37.691406 50.808594 C 37.699219 50.8125 37.703125 50.8125 37.710938 50.8125 C 37.71875 50.8125 37.726562 50.8125 37.734375 50.8125 C 37.742188 50.8125 37.746094 50.8125 37.753906 50.8125 C 37.765625 50.816406 37.773438 50.816406 37.785156 50.816406 C 37.789062 50.816406 37.792969 50.816406 37.796875 50.816406 C 37.808594 50.816406 37.824219 50.816406 37.835938 50.816406 C 37.839844 50.816406 37.84375 50.816406 37.851562 50.816406 C 37.859375 50.816406 37.867188 50.816406 37.878906 50.820312 L 37.894531 50.820312 C 37.902344 50.820312 37.910156 50.820312 37.917969 50.820312 L 38.027344 50.820312 C 38.042969 50.820312 38.058594 50.820312 38.078125 50.816406 C 38.082031 50.816406 38.085938 50.816406 38.085938 50.816406 C 38.101562 50.816406 38.117188 50.816406 38.132812 50.816406 L 38.140625 50.816406 C 38.15625 50.816406 38.175781 50.816406 38.191406 50.8125 L 38.199219 50.8125 C 38.214844 50.8125 38.230469 50.8125 38.246094 50.808594 C 38.25 50.808594 38.25 50.808594 38.253906 50.808594 C 38.289062 50.808594 38.324219 50.804688 38.359375 50.800781 C 38.363281 50.800781 38.363281 50.800781 38.367188 50.800781 C 38.402344 50.796875 38.4375 50.792969 38.472656 50.789062 C 38.472656 50.789062 38.476562 50.789062 38.480469 50.789062 C 38.515625 50.785156 38.550781 50.78125 38.585938 50.773438 C 38.585938 50.773438 38.589844 50.773438 38.589844 50.773438 C 38.605469 50.769531 38.625 50.769531 38.640625 50.765625 L 38.644531 50.765625 C 38.660156 50.761719 38.679688 50.757812 38.699219 50.757812 C 38.714844 50.753906 38.734375 50.75 38.75 50.746094 C 38.75 50.746094 38.753906 50.746094 38.753906 50.746094 C 38.789062 50.738281 38.824219 50.730469 38.859375 50.726562 C 38.863281 50.722656 38.863281 50.722656 38.867188 50.722656 C 38.902344 50.714844 38.933594 50.707031 38.96875 50.699219 C 38.972656 50.699219 38.972656 50.699219 38.976562 50.699219 C 39.011719 50.691406 39.046875 50.679688 39.082031 50.671875 C 39.082031 50.671875 39.082031 50.671875 39.085938 50.671875 C 39.101562 50.667969 39.117188 50.660156 39.132812 50.65625 C 39.132812 50.65625 39.136719 50.65625 39.136719 50.65625 C 39.152344 50.652344 39.171875 50.644531 39.1875 50.640625 C 39.191406 50.640625 39.191406 50.640625 39.191406 50.640625 C 39.207031 50.632812 39.226562 50.628906 39.242188 50.625 C 39.242188 50.625 39.242188 50.625 39.246094 50.625 C 39.28125 50.613281 39.3125 50.601562 39.347656 50.589844 C 39.347656 50.589844 39.351562 50.589844 39.351562 50.589844 C 39.386719 50.578125 39.417969 50.566406 39.453125 50.550781 C 39.453125 50.550781 39.457031 50.550781 39.460938 50.550781 C 39.492188 50.539062 39.527344 50.523438 39.558594 50.511719 C 39.5625 50.511719 39.5625 50.507812 39.566406 50.507812 C 39.578125 50.503906 39.59375 50.496094 39.609375 50.492188 C 39.613281 50.488281 39.613281 50.488281 39.613281 50.488281 C 39.628906 50.480469 39.648438 50.472656 39.664062 50.46875 C 39.664062 50.46875 39.667969 50.464844 39.667969 50.464844 C 39.683594 50.457031 39.695312 50.453125 39.710938 50.445312 C 39.714844 50.445312 39.714844 50.445312 39.71875 50.441406 C 39.734375 50.4375 39.75 50.429688 39.765625 50.421875 C 39.769531 50.421875 39.769531 50.417969 39.769531 50.417969 C 39.785156 50.414062 39.800781 50.40625 39.8125 50.398438 C 39.816406 50.398438 39.820312 50.394531 39.824219 50.394531 C 39.851562 50.378906 39.882812 50.363281 39.914062 50.347656 C 39.917969 50.347656 39.921875 50.34375 39.925781 50.34375 C 39.9375 50.335938 39.953125 50.328125 39.96875 50.320312 C 39.984375 50.3125 40 50.304688 40.015625 50.296875 C 40.019531 50.292969 40.023438 50.292969 40.027344 50.289062 C 40.039062 50.28125 40.050781 50.273438 40.0625 50.269531 C 40.066406 50.265625 40.070312 50.265625 40.070312 50.265625 C 40.085938 50.257812 40.101562 50.246094 40.113281 50.238281 C 40.117188 50.238281 40.121094 50.234375 40.125 50.234375 C 40.136719 50.226562 40.148438 50.21875 40.160156 50.210938 C 40.164062 50.210938 40.167969 50.207031 40.171875 50.207031 C 40.183594 50.195312 40.199219 50.1875 40.210938 50.179688 C 40.214844 50.179688 40.21875 50.175781 40.222656 50.171875 C 40.234375 50.167969 40.246094 50.160156 40.257812 50.152344 C 40.261719 50.148438 40.265625 50.148438 40.269531 50.144531 C 40.28125 50.136719 40.296875 50.125 40.308594 50.117188 C 40.3125 50.117188 40.3125 50.117188 40.316406 50.113281 C 40.328125 50.105469 40.339844 50.097656 40.351562 50.089844 C 40.355469 50.085938 40.359375 50.085938 40.363281 50.082031 C 40.378906 50.074219 40.390625 50.0625 40.402344 50.054688 C 40.402344 50.054688 40.40625 50.054688 40.40625 50.050781 C 40.421875 50.042969 40.433594 50.035156 40.445312 50.023438 C 40.449219 50.019531 40.457031 50.019531 40.460938 50.015625 C 40.46875 50.007812 40.480469 50 40.488281 49.992188 C 40.496094 49.988281 40.5 49.988281 40.5 49.984375 C 40.515625 49.972656 40.527344 49.964844 40.539062 49.957031 C 40.542969 49.953125 40.546875 49.949219 40.554688 49.945312 C 40.5625 49.9375 40.574219 49.929688 40.582031 49.921875 C 40.585938 49.921875 40.589844 49.917969 40.59375 49.914062 C 40.605469 49.902344 40.621094 49.894531 40.632812 49.882812 C 40.636719 49.878906 40.640625 49.878906 40.644531 49.875 C 40.652344 49.867188 40.660156 49.859375 40.671875 49.851562 C 40.675781 49.847656 40.679688 49.84375 40.683594 49.839844 C 40.699219 49.832031 40.710938 49.820312 40.722656 49.808594 C 40.726562 49.808594 40.726562 49.804688 40.730469 49.800781 C 40.742188 49.792969 40.75 49.785156 40.761719 49.777344 C 40.765625 49.773438 40.769531 49.769531 40.773438 49.765625 C 40.785156 49.753906 40.796875 49.746094 40.804688 49.738281 C 40.808594 49.734375 40.8125 49.730469 40.816406 49.730469 C 40.824219 49.71875 40.835938 49.707031 40.847656 49.699219 C 40.851562 49.695312 40.855469 49.691406 40.859375 49.6875 C 40.871094 49.675781 40.878906 49.667969 40.890625 49.660156 C 40.894531 49.65625 40.894531 49.65625 40.898438 49.652344 C 40.910156 49.640625 40.921875 49.628906 40.933594 49.617188 C 40.9375 49.613281 40.941406 49.609375 40.945312 49.605469 C 40.957031 49.597656 40.964844 49.589844 40.972656 49.582031 C 40.976562 49.578125 40.980469 49.574219 40.984375 49.570312 C 40.996094 49.558594 41.007812 49.546875 41.019531 49.535156 L 41.027344 49.523438 C 41.035156 49.515625 41.046875 49.503906 41.054688 49.496094 C 41.058594 49.492188 41.0625 49.488281 41.066406 49.484375 C 41.078125 49.472656 41.089844 49.460938 41.101562 49.449219 C 41.101562 49.445312 41.105469 49.445312 41.105469 49.441406 C 41.117188 49.429688 41.125 49.417969 41.136719 49.410156 C 41.140625 49.40625 41.144531 49.402344 41.144531 49.398438 C 41.15625 49.386719 41.167969 49.371094 41.179688 49.359375 L 46.835938 42.902344 L 52.703125 44.539062 C 52.804688 44.566406 52.910156 44.597656 53.011719 44.632812 C 52.6875 45.003906 52.492188 45.488281 52.492188 46.019531 L 52.492188 46.8125 C 52.492188 46.839844 52.472656 46.863281 52.445312 46.875 C 51.96875 47.03125 51.503906 47.226562 51.054688 47.449219 C 51.027344 47.464844 50.996094 47.460938 50.976562 47.441406 L 50.414062 46.878906 C 49.589844 46.054688 48.246094 46.054688 47.421875 46.878906 L 45.730469 48.570312 C 44.90625 49.394531 44.90625 50.738281 45.730469 51.5625 L 46.292969 52.125 C 46.3125 52.144531 46.316406 52.175781 46.300781 52.203125 C 46.078125 52.652344 45.886719 53.117188 45.726562 53.59375 C 45.71875 53.621094 45.691406 53.640625 45.664062 53.640625 L 44.871094 53.640625 C 43.703125 53.640625 42.753906 54.589844 42.753906 55.753906 L 42.753906 58.148438 C 42.753906 59.3125 43.703125 60.261719 44.871094 60.261719 L 45.664062 60.261719 C 45.691406 60.261719 45.71875 60.28125 45.726562 60.3125 C 45.886719 60.785156 46.078125 61.253906 46.300781 61.699219 C 46.316406 61.726562 46.3125 61.761719 46.292969 61.78125 L 45.730469 62.34375 C 44.90625 63.167969 44.90625 64.507812 45.730469 65.332031 L 46.222656 65.824219 L 4.511719 65.824219 C 4.109375 65.824219 3.726562 65.648438 3.46875 65.339844 C 3.207031 65.03125 3.097656 64.625 3.164062 64.226562 L 4.164062 58.390625 C 4.257812 57.832031 3.882812 57.300781 3.324219 57.207031 C 2.765625 57.109375 2.234375 57.484375 2.140625 58.042969 L 1.144531 63.882812 C 0.972656 64.875 1.25 65.890625 1.898438 66.660156 C 2.550781 67.433594 3.503906 67.875 4.511719 67.875 L 52.492188 67.875 L 52.492188 67.886719 C 52.492188 69.050781 53.441406 70 54.609375 70 L 57 70 C 58.167969 70 59.113281 69.050781 59.113281 67.886719 L 59.113281 67.089844 C 59.113281 67.0625 59.132812 67.039062 59.164062 67.027344 C 59.636719 66.871094 60.105469 66.675781 60.550781 66.453125 C 60.582031 66.4375 60.613281 66.441406 60.632812 66.460938 L 61.195312 67.023438 C 61.59375 67.421875 62.125 67.644531 62.6875 67.644531 C 63.253906 67.644531 63.785156 67.421875 64.183594 67.023438 L 65.875 65.332031 C 66.273438 64.933594 66.496094 64.402344 66.496094 63.835938 C 66.496094 63.273438 66.277344 62.742188 65.875 62.339844 L 65.3125 61.777344 C 65.292969 61.757812 65.289062 61.726562 65.304688 61.699219 C 65.527344 61.253906 65.722656 60.785156 65.878906 60.3125 C 65.890625 60.28125 65.914062 60.261719 65.941406 60.261719 L 66.738281 60.261719 C 67.902344 60.261719 68.851562 59.3125 68.851562 58.148438 L 68.851562 55.753906 C 68.851562 54.589844 67.902344 53.640625 66.738281 53.640625 Z M 31.820312 14.042969 C 36.136719 14.042969 40.472656 14.792969 44.714844 16.277344 L 44.472656 17.183594 C 44.382812 17.519531 44.164062 17.796875 43.859375 17.964844 C 43.558594 18.128906 43.214844 18.167969 42.886719 18.066406 C 35.613281 15.832031 28.238281 15.8125 20.964844 18.003906 C 20.894531 18.023438 20.824219 18.046875 20.75 18.066406 C 20.425781 18.167969 20.082031 18.128906 19.78125 17.964844 C 19.714844 17.925781 19.652344 17.886719 19.59375 17.839844 C 19.578125 17.824219 19.558594 17.8125 19.542969 17.796875 C 19.527344 17.785156 19.511719 17.769531 19.5 17.753906 C 19.339844 17.597656 19.226562 17.402344 19.167969 17.183594 L 19.136719 17.066406 L 19.058594 16.777344 C 19.058594 16.777344 19.058594 16.773438 19.058594 16.773438 L 18.925781 16.277344 C 23.167969 14.792969 27.5 14.042969 31.820312 14.042969 Z M 24.09375 31.503906 C 21.925781 29.636719 20.644531 26.839844 20.578125 23.828125 C 20.566406 23.269531 20.109375 22.824219 19.554688 22.824219 L 18.714844 22.824219 C 18.054688 22.824219 17.519531 22.289062 17.519531 21.628906 L 17.519531 19.167969 C 17.519531 19 17.554688 18.835938 17.621094 18.683594 C 17.625 18.6875 17.625 18.691406 17.628906 18.695312 C 17.632812 18.699219 17.636719 18.707031 17.640625 18.710938 C 17.644531 18.71875 17.648438 18.726562 17.652344 18.730469 C 17.660156 18.738281 17.664062 18.746094 17.667969 18.753906 C 17.671875 18.761719 17.679688 18.769531 17.683594 18.777344 C 17.691406 18.785156 17.695312 18.792969 17.703125 18.804688 C 17.707031 18.808594 17.710938 18.816406 17.714844 18.820312 C 17.722656 18.828125 17.726562 18.835938 17.730469 18.839844 C 17.734375 18.847656 17.738281 18.851562 17.746094 18.859375 C 17.75 18.863281 17.753906 18.871094 17.757812 18.878906 C 17.761719 18.882812 17.769531 18.890625 17.773438 18.894531 C 17.777344 18.902344 17.78125 18.90625 17.789062 18.914062 C 17.792969 18.917969 17.796875 18.925781 17.800781 18.929688 C 17.804688 18.9375 17.8125 18.945312 17.816406 18.953125 C 17.820312 18.957031 17.828125 18.964844 17.832031 18.96875 C 17.839844 18.980469 17.847656 18.988281 17.855469 19 C 17.859375 19.003906 17.863281 19.007812 17.871094 19.015625 C 17.875 19.019531 17.882812 19.027344 17.886719 19.035156 C 17.890625 19.039062 17.894531 19.042969 17.902344 19.050781 C 17.90625 19.054688 17.910156 19.0625 17.917969 19.066406 C 17.921875 19.074219 17.925781 19.078125 17.933594 19.085938 C 17.9375 19.089844 17.941406 19.097656 17.949219 19.101562 C 17.953125 19.109375 17.957031 19.113281 17.960938 19.117188 C 17.96875 19.125 17.976562 19.132812 17.984375 19.140625 C 17.988281 19.144531 17.992188 19.148438 17.992188 19.152344 C 18.003906 19.160156 18.011719 19.171875 18.023438 19.183594 C 18.027344 19.1875 18.035156 19.191406 18.039062 19.199219 C 18.042969 19.203125 18.050781 19.207031 18.054688 19.214844 C 18.0625 19.21875 18.066406 19.226562 18.074219 19.230469 C 18.078125 19.234375 18.082031 19.242188 18.089844 19.246094 C 18.09375 19.25 18.101562 19.257812 18.105469 19.261719 C 18.109375 19.265625 18.117188 19.273438 18.121094 19.277344 C 18.128906 19.28125 18.132812 19.289062 18.140625 19.292969 C 18.144531 19.300781 18.152344 19.304688 18.15625 19.308594 C 18.167969 19.320312 18.179688 19.328125 18.1875 19.339844 C 18.195312 19.34375 18.199219 19.347656 18.203125 19.351562 C 18.210938 19.359375 18.21875 19.363281 18.222656 19.367188 C 18.230469 19.371094 18.234375 19.378906 18.238281 19.382812 C 18.246094 19.386719 18.25 19.390625 18.257812 19.398438 C 18.261719 19.402344 18.269531 19.40625 18.273438 19.410156 C 18.28125 19.417969 18.289062 19.421875 18.292969 19.425781 C 18.296875 19.429688 18.304688 19.433594 18.308594 19.441406 C 18.316406 19.445312 18.324219 19.449219 18.332031 19.457031 C 18.335938 19.460938 18.339844 19.464844 18.34375 19.464844 C 18.359375 19.476562 18.371094 19.488281 18.386719 19.5 C 18.390625 19.503906 18.394531 19.503906 18.398438 19.507812 C 18.40625 19.515625 18.414062 19.519531 18.421875 19.527344 C 18.425781 19.527344 18.429688 19.53125 18.433594 19.535156 C 18.441406 19.542969 18.449219 19.546875 18.457031 19.550781 C 18.460938 19.554688 18.46875 19.558594 18.472656 19.5625 C 18.480469 19.566406 18.488281 19.574219 18.496094 19.578125 C 18.5 19.582031 18.503906 19.585938 18.507812 19.589844 C 18.515625 19.59375 18.527344 19.597656 18.535156 19.605469 C 18.535156 19.605469 18.539062 19.609375 18.542969 19.609375 C 18.5625 19.625 18.582031 19.636719 18.605469 19.652344 C 18.613281 19.65625 18.625 19.664062 18.632812 19.667969 C 18.636719 19.671875 18.640625 19.675781 18.644531 19.675781 C 18.652344 19.683594 18.660156 19.6875 18.671875 19.691406 C 18.675781 19.695312 18.679688 19.695312 18.683594 19.699219 C 18.691406 19.703125 18.703125 19.710938 18.710938 19.714844 C 18.714844 19.71875 18.714844 19.71875 18.71875 19.722656 C 18.742188 19.734375 18.765625 19.746094 18.789062 19.761719 C 18.800781 19.769531 18.816406 19.777344 18.832031 19.785156 C 18.832031 19.785156 18.835938 19.785156 18.835938 19.785156 C 18.847656 19.792969 18.863281 19.800781 18.878906 19.808594 C 18.878906 19.808594 18.882812 19.808594 18.882812 19.8125 C 18.898438 19.820312 18.914062 19.824219 18.925781 19.832031 C 18.925781 19.832031 18.929688 19.832031 18.929688 19.835938 C 18.960938 19.847656 18.992188 19.863281 19.023438 19.878906 C 19.023438 19.878906 19.027344 19.878906 19.027344 19.878906 C 19.039062 19.886719 19.054688 19.894531 19.066406 19.898438 C 19.070312 19.898438 19.074219 19.902344 19.074219 19.902344 C 19.089844 19.90625 19.101562 19.914062 19.117188 19.917969 C 19.117188 19.921875 19.121094 19.921875 19.121094 19.921875 C 19.152344 19.933594 19.183594 19.945312 19.214844 19.957031 C 19.21875 19.960938 19.222656 19.960938 19.226562 19.960938 C 19.238281 19.96875 19.25 19.972656 19.257812 19.976562 C 19.261719 19.976562 19.269531 19.980469 19.273438 19.980469 C 19.285156 19.984375 19.296875 19.988281 19.308594 19.992188 C 19.3125 19.992188 19.316406 19.996094 19.320312 19.996094 C 19.332031 20 19.347656 20.007812 19.363281 20.011719 C 19.367188 20.011719 19.371094 20.015625 19.375 20.015625 C 19.386719 20.019531 19.398438 20.023438 19.40625 20.027344 C 19.414062 20.027344 19.417969 20.03125 19.425781 20.03125 C 19.433594 20.035156 19.445312 20.035156 19.453125 20.039062 C 19.460938 20.042969 19.464844 20.042969 19.472656 20.046875 C 19.480469 20.046875 19.492188 20.050781 19.503906 20.054688 C 19.507812 20.054688 19.511719 20.058594 19.515625 20.058594 C 19.53125 20.0625 19.546875 20.066406 19.5625 20.070312 C 19.566406 20.070312 19.574219 20.074219 19.578125 20.074219 C 19.585938 20.078125 19.597656 20.078125 19.605469 20.082031 C 19.613281 20.082031 19.621094 20.085938 19.625 20.085938 L 19.652344 20.09375 C 19.660156 20.09375 19.667969 20.09375 19.671875 20.097656 C 19.679688 20.097656 19.691406 20.101562 19.699219 20.101562 C 19.707031 20.105469 19.710938 20.105469 19.71875 20.105469 C 19.734375 20.109375 19.746094 20.113281 19.761719 20.117188 C 19.769531 20.117188 19.773438 20.117188 19.78125 20.121094 C 19.789062 20.121094 19.796875 20.121094 19.808594 20.125 C 19.8125 20.125 19.820312 20.125 19.832031 20.128906 C 19.835938 20.128906 19.84375 20.132812 19.851562 20.132812 C 19.859375 20.132812 19.867188 20.132812 19.875 20.136719 C 19.882812 20.136719 19.890625 20.136719 19.902344 20.140625 C 19.910156 20.140625 19.921875 20.144531 19.933594 20.144531 C 19.941406 20.144531 19.953125 20.148438 19.964844 20.148438 C 19.972656 20.148438 19.980469 20.148438 19.988281 20.152344 C 19.996094 20.152344 20.003906 20.152344 20.007812 20.152344 C 20.019531 20.15625 20.027344 20.15625 20.035156 20.15625 C 20.042969 20.15625 20.046875 20.160156 20.054688 20.160156 C 20.0625 20.160156 20.070312 20.160156 20.082031 20.160156 C 20.085938 20.160156 20.09375 20.164062 20.101562 20.164062 C 20.117188 20.164062 20.132812 20.164062 20.148438 20.167969 C 20.15625 20.167969 20.160156 20.167969 20.167969 20.167969 C 20.175781 20.167969 20.183594 20.167969 20.195312 20.171875 C 20.199219 20.171875 20.207031 20.171875 20.214844 20.171875 C 20.222656 20.171875 20.230469 20.171875 20.238281 20.171875 C 20.246094 20.171875 20.253906 20.171875 20.257812 20.171875 C 20.269531 20.171875 20.277344 20.171875 20.285156 20.171875 C 20.292969 20.171875 20.296875 20.175781 20.304688 20.175781 C 20.320312 20.175781 20.339844 20.175781 20.355469 20.175781 C 20.359375 20.175781 20.367188 20.175781 20.371094 20.175781 L 20.378906 20.175781 C 20.488281 20.175781 20.59375 20.171875 20.699219 20.160156 C 20.738281 20.15625 20.78125 20.152344 20.820312 20.144531 C 20.820312 20.144531 20.824219 20.144531 20.824219 20.144531 C 20.835938 20.144531 20.851562 20.140625 20.863281 20.140625 C 20.878906 20.136719 20.890625 20.136719 20.902344 20.132812 L 20.90625 20.132812 C 20.917969 20.128906 20.929688 20.128906 20.941406 20.125 C 20.945312 20.125 20.945312 20.125 20.949219 20.125 C 20.960938 20.125 20.972656 20.121094 20.984375 20.117188 C 20.984375 20.117188 20.988281 20.117188 20.988281 20.117188 C 21 20.117188 21.011719 20.113281 21.027344 20.109375 C 21.027344 20.109375 21.027344 20.109375 21.03125 20.109375 C 21.042969 20.109375 21.054688 20.105469 21.0625 20.101562 C 21.066406 20.101562 21.070312 20.101562 21.070312 20.101562 C 21.097656 20.097656 21.121094 20.089844 21.148438 20.085938 C 21.148438 20.082031 21.152344 20.082031 21.152344 20.082031 C 21.164062 20.078125 21.175781 20.078125 21.1875 20.074219 C 21.1875 20.074219 21.191406 20.074219 21.195312 20.074219 C 21.21875 20.066406 21.242188 20.058594 21.269531 20.050781 C 21.273438 20.050781 21.273438 20.050781 21.277344 20.050781 C 21.289062 20.046875 21.296875 20.042969 21.304688 20.042969 C 21.308594 20.039062 21.3125 20.039062 21.316406 20.039062 C 21.328125 20.035156 21.339844 20.03125 21.351562 20.027344 C 27.292969 18.203125 33.304688 17.9375 39.269531 19.238281 C 39.382812 19.261719 39.496094 19.285156 39.609375 19.3125 C 39.664062 19.324219 39.71875 19.335938 39.769531 19.351562 C 39.859375 19.371094 39.945312 19.390625 40.03125 19.410156 C 40.128906 19.433594 40.230469 19.460938 40.328125 19.484375 C 40.394531 19.5 40.460938 19.515625 40.523438 19.53125 C 40.632812 19.5625 40.742188 19.589844 40.847656 19.617188 C 41.082031 19.679688 41.316406 19.742188 41.550781 19.808594 C 41.796875 19.878906 42.039062 19.953125 42.285156 20.027344 C 43.148438 20.292969 44.058594 20.199219 44.851562 19.761719 C 44.863281 19.753906 44.878906 19.746094 44.890625 19.738281 C 44.898438 19.734375 44.902344 19.730469 44.90625 19.730469 C 44.914062 19.722656 44.925781 19.71875 44.933594 19.710938 C 44.9375 19.710938 44.941406 19.707031 44.949219 19.703125 C 44.957031 19.699219 44.964844 19.695312 44.972656 19.6875 C 44.980469 19.683594 44.984375 19.683594 44.988281 19.679688 C 45 19.671875 45.007812 19.667969 45.015625 19.660156 C 45.023438 19.660156 45.023438 19.65625 45.027344 19.652344 C 45.054688 19.636719 45.082031 19.621094 45.109375 19.601562 C 45.113281 19.601562 45.117188 19.597656 45.121094 19.59375 C 45.128906 19.589844 45.136719 19.582031 45.148438 19.574219 C 45.152344 19.574219 45.15625 19.570312 45.160156 19.566406 C 45.167969 19.558594 45.175781 19.554688 45.1875 19.546875 C 45.191406 19.542969 45.195312 19.542969 45.199219 19.539062 C 45.207031 19.53125 45.21875 19.527344 45.226562 19.519531 C 45.230469 19.515625 45.234375 19.515625 45.238281 19.511719 C 45.25 19.5 45.261719 19.492188 45.273438 19.484375 C 45.273438 19.480469 45.277344 19.480469 45.277344 19.480469 C 45.289062 19.472656 45.300781 19.464844 45.3125 19.453125 C 45.316406 19.453125 45.320312 19.449219 45.320312 19.445312 C 45.332031 19.4375 45.339844 19.429688 45.347656 19.425781 C 45.351562 19.421875 45.355469 19.417969 45.359375 19.414062 C 45.367188 19.40625 45.375 19.402344 45.382812 19.394531 C 45.386719 19.390625 45.394531 19.386719 45.394531 19.382812 C 45.40625 19.378906 45.414062 19.371094 45.421875 19.363281 C 45.425781 19.359375 45.429688 19.355469 45.433594 19.355469 C 45.457031 19.332031 45.480469 19.3125 45.5 19.292969 C 45.503906 19.289062 45.507812 19.285156 45.511719 19.28125 C 45.519531 19.273438 45.527344 19.265625 45.535156 19.261719 C 45.539062 19.257812 45.542969 19.253906 45.546875 19.25 C 45.554688 19.242188 45.5625 19.234375 45.570312 19.226562 C 45.574219 19.222656 45.578125 19.21875 45.582031 19.214844 C 45.589844 19.207031 45.597656 19.199219 45.605469 19.191406 C 45.605469 19.191406 45.609375 19.1875 45.613281 19.183594 C 45.625 19.171875 45.636719 19.160156 45.644531 19.148438 C 45.644531 19.148438 45.648438 19.148438 45.648438 19.148438 C 45.65625 19.136719 45.667969 19.128906 45.675781 19.117188 C 45.679688 19.113281 45.683594 19.109375 45.6875 19.105469 C 45.695312 19.097656 45.703125 19.089844 45.707031 19.082031 C 45.710938 19.078125 45.714844 19.074219 45.71875 19.070312 C 45.726562 19.0625 45.734375 19.054688 45.742188 19.046875 C 45.742188 19.042969 45.746094 19.039062 45.75 19.035156 C 45.757812 19.027344 45.765625 19.019531 45.773438 19.007812 C 45.777344 19.007812 45.777344 19.003906 45.78125 19 C 45.789062 18.988281 45.800781 18.976562 45.808594 18.964844 C 45.8125 18.964844 45.8125 18.960938 45.8125 18.960938 C 45.824219 18.949219 45.832031 18.941406 45.839844 18.929688 C 45.84375 18.925781 45.84375 18.921875 45.847656 18.917969 C 45.855469 18.910156 45.863281 18.902344 45.867188 18.894531 C 45.871094 18.886719 45.875 18.882812 45.878906 18.882812 C 45.882812 18.871094 45.890625 18.863281 45.898438 18.855469 C 45.902344 18.851562 45.902344 18.847656 45.90625 18.84375 C 45.914062 18.832031 45.921875 18.824219 45.925781 18.816406 C 45.929688 18.8125 45.929688 18.808594 45.933594 18.804688 C 45.941406 18.792969 45.953125 18.78125 45.960938 18.769531 C 45.960938 18.765625 45.964844 18.765625 45.964844 18.761719 C 45.972656 18.753906 45.980469 18.742188 45.988281 18.730469 C 45.988281 18.726562 45.992188 18.722656 45.996094 18.71875 C 46 18.710938 46.007812 18.699219 46.011719 18.691406 C 46.015625 18.691406 46.015625 18.6875 46.015625 18.683594 C 46.082031 18.835938 46.121094 19 46.121094 19.167969 L 46.121094 21.628906 C 46.121094 22.289062 45.585938 22.824219 44.925781 22.824219 L 44.085938 22.824219 C 43.527344 22.824219 43.070312 23.269531 43.058594 23.828125 C 42.996094 26.839844 41.714844 29.636719 39.546875 31.503906 C 38.953125 32.015625 38.335938 32.460938 37.695312 32.839844 C 37.679688 32.847656 37.664062 32.855469 37.648438 32.867188 C 35.902344 33.890625 33.976562 34.429688 31.925781 34.472656 C 31.921875 34.472656 31.914062 34.472656 31.90625 34.472656 C 31.878906 34.472656 31.847656 34.472656 31.820312 34.472656 C 31.789062 34.472656 31.761719 34.472656 31.730469 34.472656 C 31.722656 34.472656 31.71875 34.472656 31.710938 34.472656 C 29.660156 34.429688 27.738281 33.890625 25.992188 32.867188 C 25.976562 32.855469 25.957031 32.847656 25.941406 32.839844 C 25.300781 32.460938 24.683594 32.015625 24.09375 31.503906 Z M 26.394531 48.648438 C 25.539062 48.941406 24.597656 48.6875 24 48.007812 L 18.992188 42.292969 L 23.199219 41.121094 L 29.882812 47.460938 Z M 25.535156 40.507812 C 26.132812 39.730469 26.5 38.734375 26.5 37.761719 L 26.5 35.421875 C 28.078125 36.101562 29.765625 36.46875 31.546875 36.519531 C 31.574219 36.519531 31.597656 36.519531 31.625 36.519531 L 31.636719 36.519531 C 31.660156 36.519531 31.683594 36.523438 31.707031 36.523438 L 31.722656 36.523438 C 31.75 36.523438 31.78125 36.523438 31.808594 36.523438 L 31.832031 36.523438 C 31.859375 36.523438 31.886719 36.523438 31.914062 36.523438 L 31.933594 36.523438 C 31.957031 36.523438 31.980469 36.519531 32.003906 36.519531 L 32.015625 36.519531 C 32.039062 36.519531 32.066406 36.519531 32.09375 36.519531 C 33.875 36.46875 35.5625 36.101562 37.140625 35.421875 L 37.140625 37.761719 C 37.140625 38.734375 37.503906 39.730469 38.105469 40.507812 L 31.820312 46.46875 Z M 39.640625 48.007812 C 39.042969 48.6875 38.101562 48.941406 37.242188 48.648438 L 33.757812 47.460938 L 40.441406 41.121094 L 44.644531 42.292969 Z M 66.800781 58.148438 C 66.800781 58.183594 66.773438 58.210938 66.738281 58.210938 L 65.941406 58.210938 C 65.03125 58.210938 64.222656 58.792969 63.933594 59.664062 C 63.808594 60.042969 63.652344 60.421875 63.472656 60.78125 C 63.0625 61.601562 63.21875 62.582031 63.863281 63.230469 L 64.425781 63.789062 C 64.429688 63.796875 64.445312 63.808594 64.445312 63.835938 C 64.445312 63.863281 64.429688 63.875 64.425781 63.882812 L 62.734375 65.574219 C 62.730469 65.578125 62.714844 65.59375 62.6875 65.59375 C 62.664062 65.59375 62.648438 65.578125 62.644531 65.574219 L 62.082031 65.011719 C 61.4375 64.367188 60.453125 64.207031 59.632812 64.617188 C 59.273438 64.796875 58.898438 64.953125 58.515625 65.082031 C 57.648438 65.371094 57.0625 66.175781 57.0625 67.089844 L 57.0625 67.882812 C 57.0625 67.917969 57.035156 67.949219 57 67.949219 L 54.609375 67.949219 C 54.570312 67.949219 54.542969 67.921875 54.542969 67.882812 L 54.542969 67.089844 C 54.542969 66.175781 53.960938 65.371094 53.09375 65.082031 C 52.710938 64.953125 52.332031 64.796875 51.972656 64.617188 C 51.667969 64.464844 51.34375 64.394531 51.019531 64.394531 C 50.472656 64.394531 49.929688 64.605469 49.527344 65.011719 L 48.964844 65.574219 C 48.9375 65.597656 48.898438 65.597656 48.875 65.574219 L 47.183594 63.882812 C 47.15625 63.855469 47.15625 63.816406 47.179688 63.792969 L 47.742188 63.230469 C 48.386719 62.585938 48.546875 61.601562 48.136719 60.78125 C 47.957031 60.421875 47.800781 60.046875 47.671875 59.664062 C 47.382812 58.792969 46.578125 58.210938 45.664062 58.210938 L 44.871094 58.210938 C 44.835938 58.210938 44.804688 58.183594 44.804688 58.148438 L 44.804688 55.753906 C 44.804688 55.71875 44.835938 55.691406 44.871094 55.691406 L 45.664062 55.691406 C 46.578125 55.691406 47.382812 55.105469 47.671875 54.238281 C 47.800781 53.855469 47.957031 53.480469 48.136719 53.121094 C 48.546875 52.300781 48.386719 51.316406 47.742188 50.671875 L 47.183594 50.109375 C 47.15625 50.085938 47.15625 50.046875 47.179688 50.019531 L 48.875 48.328125 C 48.898438 48.304688 48.9375 48.304688 48.964844 48.328125 L 49.527344 48.890625 C 50.171875 49.535156 51.152344 49.691406 51.972656 49.285156 C 52.332031 49.101562 52.710938 48.945312 53.09375 48.820312 C 53.960938 48.53125 54.542969 47.722656 54.542969 46.8125 L 54.542969 46.015625 C 54.542969 45.980469 54.570312 45.953125 54.609375 45.953125 L 57 45.953125 C 57.035156 45.953125 57.0625 45.980469 57.0625 46.015625 L 57.0625 46.8125 C 57.0625 47.722656 57.648438 48.53125 58.515625 48.820312 C 58.898438 48.945312 59.273438 49.101562 59.632812 49.28125 C 60.453125 49.691406 61.4375 49.535156 62.082031 48.890625 L 62.644531 48.328125 C 62.648438 48.324219 62.664062 48.308594 62.6875 48.308594 C 62.714844 48.308594 62.730469 48.324219 62.734375 48.328125 L 64.425781 50.019531 C 64.429688 50.023438 64.445312 50.039062 64.445312 50.066406 C 64.445312 50.09375 64.429688 50.105469 64.425781 50.109375 L 63.863281 50.671875 C 63.21875 51.316406 63.0625 52.300781 63.472656 53.121094 C 63.652344 53.480469 63.808594 53.855469 63.933594 54.238281 C 64.222656 55.105469 65.03125 55.691406 65.941406 55.691406 L 66.738281 55.691406 C 66.773438 55.691406 66.800781 55.71875 66.800781 55.753906 Z M 66.800781 58.148438 "/>
<path style=" stroke:none;fill-rule:nonzero;fill:rgb(0%,0%,0%);fill-opacity:1;" d="M 55.804688 51.957031 C 53.050781 51.957031 50.808594 54.195312 50.808594 56.949219 C 50.808594 59.707031 53.050781 61.945312 55.804688 61.945312 C 58.558594 61.945312 60.800781 59.707031 60.800781 56.949219 C 60.800781 54.195312 58.558594 51.957031 55.804688 51.957031 Z M 55.804688 59.894531 C 54.179688 59.894531 52.859375 58.574219 52.859375 56.949219 C 52.859375 55.328125 54.179688 54.007812 55.804688 54.007812 C 57.425781 54.007812 58.75 55.328125 58.75 56.949219 C 58.75 58.574219 57.425781 59.894531 55.804688 59.894531 Z M 55.804688 59.894531 "/>
<path style=" stroke:none;fill-rule:nonzero;fill:rgb(0%,0%,0%);fill-opacity:1;" d="M 25.550781 60.511719 C 26.441406 60.511719 27.164062 59.789062 27.164062 58.902344 L 27.164062 56.210938 C 27.164062 55.324219 26.441406 54.601562 25.550781 54.601562 L 17.734375 54.601562 C 16.84375 54.601562 16.121094 55.324219 16.121094 56.210938 L 16.121094 58.902344 C 16.121094 59.789062 16.84375 60.511719 17.734375 60.511719 Z M 18.171875 56.652344 L 25.113281 56.652344 L 25.113281 58.460938 L 18.171875 58.460938 Z M 18.171875 56.652344 "/>
</g>
</svg>
