<?xml version="1.0" encoding="UTF-8"?>
<svg xmlns="http://www.w3.org/2000/svg" xmlns:xlink="http://www.w3.org/1999/xlink" width="50px" height="50px" viewBox="0 0 50 50" version="1.1">
<g id="surface1">
<path style=" stroke:none;fill-rule:nonzero;fill:rgb(0%,0%,0%);fill-opacity:1;" d="M 21.921875 46.433594 L 28.078125 46.433594 C 28.484375 46.433594 28.8125 46.105469 28.8125 45.699219 C 28.8125 45.296875 28.484375 44.96875 28.078125 44.96875 L 21.921875 44.96875 C 21.515625 44.96875 21.1875 45.296875 21.1875 45.699219 C 21.1875 46.105469 21.515625 46.433594 21.921875 46.433594 Z M 21.921875 46.433594 "/>
<path style=" stroke:none;fill-rule:nonzero;fill:rgb(0%,0%,0%);fill-opacity:1;" d="M 29.054688 3.269531 L 20.945312 3.269531 C 20.539062 3.269531 20.210938 3.597656 20.210938 4.003906 C 20.210938 4.40625 20.539062 4.734375 20.945312 4.734375 L 29.054688 4.734375 C 29.460938 4.734375 29.789062 4.40625 29.789062 4.003906 C 29.789062 3.597656 29.460938 3.269531 29.054688 3.269531 Z M 29.054688 3.269531 "/>
<path style=" stroke:none;fill-rule:nonzero;fill:rgb(0%,0%,0%);fill-opacity:1;" d="M 29.4375 36.660156 C 29.84375 36.660156 30.171875 36.332031 30.171875 35.929688 C 30.171875 35.523438 29.84375 35.195312 29.4375 35.195312 L 20.5625 35.195312 C 20.15625 35.195312 19.828125 35.523438 19.828125 35.929688 C 19.828125 36.332031 20.15625 36.660156 20.5625 36.660156 Z M 29.4375 36.660156 "/>
<path style=" stroke:none;fill-rule:nonzero;fill:rgb(0%,0%,0%);fill-opacity:1;" d="M 18.363281 39.03125 C 18.363281 39.433594 18.691406 39.761719 19.097656 39.761719 L 30.902344 39.761719 C 31.308594 39.761719 31.636719 39.433594 31.636719 39.03125 C 31.636719 38.625 31.308594 38.296875 30.902344 38.296875 L 19.097656 38.296875 C 18.691406 38.296875 18.363281 38.625 18.363281 39.03125 Z M 18.363281 39.03125 "/>
<path style=" stroke:none;fill-rule:nonzero;fill:rgb(0%,0%,0%);fill-opacity:1;" d="M 47.628906 33.460938 C 46.992188 33.460938 46.398438 33.707031 45.949219 34.15625 C 45.679688 34.425781 45.484375 34.746094 45.371094 35.101562 L 43.445312 35.101562 C 43.3125 35.101562 43.203125 34.992188 43.203125 34.855469 L 43.203125 30.3125 C 43.203125 29.371094 42.433594 28.605469 41.492188 28.605469 L 39.40625 28.605469 L 39.40625 24.042969 L 43.554688 24.042969 C 43.960938 24.042969 44.289062 23.714844 44.289062 23.308594 C 44.289062 22.90625 43.960938 22.578125 43.554688 22.578125 L 39.40625 22.578125 L 39.40625 17.53125 L 41.492188 17.53125 C 42.433594 17.53125 43.203125 16.765625 43.203125 15.824219 L 43.203125 11.28125 C 43.203125 11.144531 43.3125 11.035156 43.445312 11.035156 L 45.371094 11.035156 C 45.484375 11.390625 45.679688 11.710938 45.949219 11.980469 C 46.398438 12.429688 46.992188 12.675781 47.628906 12.675781 C 48.261719 12.675781 48.855469 12.429688 49.304688 11.980469 C 50.230469 11.054688 50.230469 9.550781 49.304688 8.625 C 48.378906 7.703125 46.875 7.703125 45.949219 8.625 C 45.679688 8.894531 45.484375 9.21875 45.371094 9.570312 L 43.445312 9.570312 C 42.503906 9.570312 41.738281 10.339844 41.738281 11.28125 L 41.738281 15.824219 C 41.738281 15.957031 41.628906 16.066406 41.492188 16.066406 L 39.402344 16.066406 L 39.402344 3.171875 C 39.402344 1.425781 37.980469 0 36.230469 0 L 13.769531 0 C 12.019531 0 10.59375 1.421875 10.59375 3.171875 L 10.59375 16.066406 L 8.507812 16.066406 C 8.371094 16.066406 8.261719 15.957031 8.261719 15.824219 L 8.261719 11.28125 C 8.261719 10.339844 7.496094 9.570312 6.554688 9.570312 L 4.628906 9.570312 C 4.515625 9.21875 4.320312 8.894531 4.050781 8.625 C 3.125 7.703125 1.621094 7.703125 0.695312 8.625 C -0.230469 9.550781 -0.230469 11.054688 0.695312 11.980469 C 1.144531 12.429688 1.738281 12.675781 2.371094 12.675781 C 3.003906 12.675781 3.601562 12.429688 4.050781 11.980469 C 4.320312 11.710938 4.515625 11.390625 4.628906 11.035156 L 6.554688 11.035156 C 6.6875 11.035156 6.796875 11.144531 6.796875 11.28125 L 6.796875 15.824219 C 6.796875 16.765625 7.566406 17.53125 8.507812 17.53125 L 10.59375 17.53125 L 10.59375 22.195312 L 7.53125 22.195312 C 7.125 22.195312 6.796875 22.523438 6.796875 22.925781 C 6.796875 23.332031 7.125 23.660156 7.53125 23.660156 L 10.59375 23.660156 L 10.59375 28.605469 L 8.507812 28.605469 C 7.566406 28.605469 6.796875 29.371094 6.796875 30.3125 L 6.796875 34.855469 C 6.796875 34.992188 6.6875 35.101562 6.554688 35.101562 L 4.628906 35.101562 C 4.515625 34.746094 4.320312 34.425781 4.050781 34.15625 C 3.601562 33.707031 3.003906 33.460938 2.371094 33.460938 C 1.738281 33.460938 1.144531 33.707031 0.695312 34.15625 C -0.230469 35.078125 -0.230469 36.585938 0.695312 37.511719 C 1.144531 37.957031 1.738281 38.203125 2.371094 38.203125 C 3.003906 38.203125 3.601562 37.957031 4.050781 37.511719 C 4.320312 37.242188 4.515625 36.917969 4.628906 36.566406 L 6.554688 36.566406 C 7.496094 36.566406 8.261719 35.796875 8.261719 34.855469 L 8.261719 30.3125 C 8.261719 30.179688 8.371094 30.070312 8.507812 30.070312 L 10.59375 30.070312 L 10.59375 46.828125 C 10.59375 48.578125 12.019531 50 13.769531 50 L 36.230469 50 C 37.980469 50 39.402344 48.578125 39.402344 46.828125 L 39.402344 37.730469 C 39.402344 37.324219 39.078125 36.996094 38.671875 36.996094 C 38.265625 36.996094 37.9375 37.324219 37.9375 37.730469 L 37.9375 41.402344 L 12.058594 41.402344 L 12.058594 23.660156 L 14.507812 23.660156 L 14.507812 30.382812 C 14.507812 32.132812 15.933594 33.558594 17.683594 33.558594 L 32.316406 33.558594 C 34.066406 33.558594 35.492188 32.132812 35.492188 30.382812 L 35.492188 24.042969 L 37.9375 24.042969 L 37.9375 34.539062 C 37.9375 34.941406 38.265625 35.269531 38.671875 35.269531 C 39.078125 35.269531 39.402344 34.941406 39.402344 34.539062 L 39.402344 30.070312 L 41.492188 30.070312 C 41.628906 30.070312 41.738281 30.179688 41.738281 30.3125 L 41.738281 34.855469 C 41.738281 35.796875 42.503906 36.566406 43.445312 36.566406 L 45.371094 36.566406 C 45.484375 36.917969 45.679688 37.242188 45.949219 37.507812 C 46.398438 37.957031 46.992188 38.203125 47.628906 38.203125 C 48.261719 38.203125 48.855469 37.957031 49.304688 37.507812 C 50.230469 36.585938 50.230469 35.078125 49.304688 34.15625 C 48.855469 33.707031 48.261719 33.460938 47.628906 33.460938 Z M 46.984375 9.664062 C 47.164062 9.484375 47.394531 9.398438 47.628906 9.398438 C 47.859375 9.398438 48.09375 9.484375 48.269531 9.664062 C 48.625 10.015625 48.625 10.589844 48.269531 10.945312 C 48.097656 11.117188 47.871094 11.210938 47.628906 11.210938 C 47.386719 11.210938 47.15625 11.117188 46.984375 10.945312 C 46.816406 10.773438 46.71875 10.546875 46.71875 10.304688 C 46.71875 10.0625 46.816406 9.832031 46.984375 9.664062 Z M 3.015625 10.945312 C 2.84375 11.117188 2.613281 11.210938 2.371094 11.210938 C 2.128906 11.210938 1.902344 11.117188 1.730469 10.945312 C 1.375 10.59375 1.375 10.015625 1.730469 9.664062 C 2.085938 9.308594 2.660156 9.308594 3.015625 9.664062 C 3.183594 9.832031 3.28125 10.0625 3.28125 10.304688 C 3.28125 10.546875 3.183594 10.773438 3.015625 10.945312 Z M 3.015625 36.472656 C 2.84375 36.644531 2.613281 36.738281 2.371094 36.738281 C 2.128906 36.738281 1.902344 36.644531 1.730469 36.472656 C 1.375 36.121094 1.375 35.542969 1.730469 35.191406 C 1.902344 35.019531 2.128906 34.925781 2.371094 34.925781 C 2.613281 34.925781 2.84375 35.019531 3.015625 35.191406 C 3.183594 35.363281 3.28125 35.589844 3.28125 35.832031 C 3.28125 36.074219 3.183594 36.300781 3.015625 36.472656 Z M 37.941406 42.863281 L 37.941406 46.824219 C 37.941406 47.769531 37.171875 48.535156 36.230469 48.535156 L 13.769531 48.535156 C 12.828125 48.535156 12.0625 47.769531 12.0625 46.824219 L 12.0625 42.863281 Z M 34.027344 30.382812 C 34.027344 31.328125 33.257812 32.09375 32.316406 32.09375 L 17.683594 32.09375 C 16.742188 32.09375 15.972656 31.328125 15.972656 30.382812 L 15.972656 23.660156 L 18.675781 23.660156 L 24.136719 29.121094 C 24.375 29.359375 24.6875 29.480469 25 29.480469 C 25.3125 29.480469 25.625 29.359375 25.863281 29.121094 L 30.945312 24.042969 L 34.027344 24.042969 Z M 19.496094 18.855469 C 19.984375 18.367188 20.628906 18.121094 21.273438 18.121094 C 21.914062 18.121094 22.558594 18.367188 23.046875 18.855469 L 24.136719 19.945312 C 24.367188 20.175781 24.675781 20.304688 25 20.304688 C 25.324219 20.304688 25.632812 20.175781 25.863281 19.945312 L 26.953125 18.855469 C 27.929688 17.878906 29.523438 17.878906 30.503906 18.855469 C 31.484375 19.835938 31.484375 21.429688 30.503906 22.410156 L 30.335938 22.578125 L 28.21875 22.578125 L 27.414062 21.332031 C 27.273438 21.109375 27.023438 20.984375 26.761719 20.996094 C 26.5 21.011719 26.265625 21.164062 26.144531 21.398438 L 25.027344 23.617188 L 23.660156 20.683594 C 23.542969 20.441406 23.304688 20.277344 23.035156 20.261719 C 22.765625 20.246094 22.511719 20.382812 22.371094 20.613281 L 21.398438 22.195312 L 19.304688 22.195312 C 18.523438 21.210938 18.585938 19.769531 19.496094 18.855469 Z M 28.871094 24.042969 L 25 27.914062 L 20.746094 23.660156 L 21.808594 23.660156 C 22.066406 23.660156 22.300781 23.527344 22.433594 23.308594 L 22.90625 22.539062 L 24.335938 25.605469 C 24.453125 25.859375 24.707031 26.023438 24.988281 26.027344 C 24.992188 26.027344 24.996094 26.027344 25 26.027344 C 25.277344 26.027344 25.527344 25.871094 25.652344 25.625 L 26.878906 23.199219 L 27.203125 23.707031 C 27.339844 23.914062 27.570312 24.042969 27.820312 24.042969 Z M 35.492188 22.578125 L 35.492188 15.75 C 35.492188 14 34.066406 12.578125 32.316406 12.578125 L 23.515625 12.578125 C 23.113281 12.578125 22.785156 12.90625 22.785156 13.308594 C 22.785156 13.714844 23.113281 14.042969 23.515625 14.042969 L 32.316406 14.042969 C 33.257812 14.042969 34.027344 14.808594 34.027344 15.75 L 34.027344 22.578125 L 32.195312 22.578125 C 33.042969 21.0625 32.828125 19.109375 31.539062 17.820312 C 29.988281 16.269531 27.464844 16.269531 25.917969 17.820312 L 25 18.738281 L 24.082031 17.820312 C 22.535156 16.269531 20.011719 16.269531 18.460938 17.820312 C 17.28125 19 17 20.746094 17.617188 22.195312 L 15.972656 22.195312 L 15.972656 15.75 C 15.972656 14.808594 16.742188 14.042969 17.683594 14.042969 L 20.324219 14.042969 C 20.730469 14.042969 21.058594 13.714844 21.058594 13.308594 C 21.058594 12.90625 20.730469 12.578125 20.324219 12.578125 L 17.683594 12.578125 C 15.933594 12.578125 14.507812 14 14.507812 15.75 L 14.507812 22.195312 L 12.058594 22.195312 L 12.058594 3.171875 C 12.058594 2.230469 12.828125 1.464844 13.769531 1.464844 L 36.230469 1.464844 C 37.171875 1.464844 37.9375 2.230469 37.9375 3.171875 L 37.9375 22.578125 Z M 48.269531 36.472656 C 48.097656 36.644531 47.871094 36.738281 47.628906 36.738281 C 47.386719 36.738281 47.15625 36.644531 46.984375 36.472656 C 46.816406 36.300781 46.71875 36.074219 46.71875 35.832031 C 46.71875 35.589844 46.816406 35.363281 46.988281 35.191406 C 47.15625 35.019531 47.386719 34.925781 47.628906 34.925781 C 47.871094 34.925781 48.097656 35.019531 48.269531 35.191406 C 48.625 35.542969 48.625 36.121094 48.269531 36.472656 Z M 48.269531 36.472656 "/>
</g>
</svg>
