<?xml version="1.0" encoding="UTF-8"?>
<svg xmlns="http://www.w3.org/2000/svg" xmlns:xlink="http://www.w3.org/1999/xlink" width="50px" height="50px" viewBox="0 0 50 50" version="1.1">
<g id="surface1">
<path style=" stroke:none;fill-rule:nonzero;fill:rgb(0%,0%,0%);fill-opacity:1;" d="M 15.625 4.6875 L 17.1875 4.6875 L 17.1875 6.25 L 15.625 6.25 Z M 15.625 4.6875 "/>
<path style=" stroke:none;fill-rule:nonzero;fill:rgb(0%,0%,0%);fill-opacity:1;" d="M 18.75 4.6875 L 25 4.6875 L 25 6.25 L 18.75 6.25 Z M 18.75 4.6875 "/>
<path style=" stroke:none;fill-rule:nonzero;fill:rgb(0%,0%,0%);fill-opacity:1;" d="M 23.4375 32.8125 L 20.3125 32.8125 C 19.019531 32.8125 17.96875 33.863281 17.96875 35.15625 C 17.96875 36.449219 19.019531 37.5 20.3125 37.5 L 23.4375 37.5 C 24.730469 37.5 25.78125 36.449219 25.78125 35.15625 C 25.78125 33.863281 24.730469 32.8125 23.4375 32.8125 Z M 23.4375 35.9375 L 20.3125 35.9375 C 19.882812 35.9375 19.53125 35.585938 19.53125 35.15625 C 19.53125 34.726562 19.882812 34.375 20.3125 34.375 L 23.4375 34.375 C 23.867188 34.375 24.21875 34.726562 24.21875 35.15625 C 24.21875 35.585938 23.867188 35.9375 23.4375 35.9375 Z M 23.4375 35.9375 "/>
<path style=" stroke:none;fill-rule:nonzero;fill:rgb(0%,0%,0%);fill-opacity:1;" d="M 3.125 21.875 L 4.6875 21.875 L 4.6875 12.824219 L 5.699219 13.832031 L 6.800781 12.730469 L 4.457031 10.386719 C 4.152344 10.082031 3.660156 10.082031 3.355469 10.386719 L 1.011719 12.730469 L 2.113281 13.832031 L 3.125 12.824219 Z M 3.125 21.875 "/>
<path style=" stroke:none;fill-rule:nonzero;fill:rgb(0%,0%,0%);fill-opacity:1;" d="M 39.0625 12.824219 L 39.0625 21.875 L 40.625 21.875 L 40.625 12.824219 L 41.636719 13.832031 L 42.738281 12.730469 L 40.394531 10.386719 C 40.089844 10.082031 39.597656 10.082031 39.292969 10.386719 L 36.949219 12.730469 L 38.050781 13.832031 Z M 39.0625 12.824219 "/>
<path style=" stroke:none;fill-rule:nonzero;fill:rgb(0%,0%,0%);fill-opacity:1;" d="M 43.75 35.9375 C 43.015625 35.933594 42.300781 36.195312 41.742188 36.671875 C 41.175781 35.734375 40.160156 35.15625 39.0625 35.15625 C 38.328125 35.152344 37.613281 35.414062 37.054688 35.890625 C 36.632812 35.1875 35.949219 34.679688 35.15625 34.476562 L 35.15625 7.03125 C 35.152344 4.011719 32.707031 1.566406 29.6875 1.5625 L 14.0625 1.5625 C 11.042969 1.566406 8.597656 4.011719 8.59375 7.03125 L 8.59375 21.328125 C 8.097656 21.558594 7.695312 21.957031 7.460938 22.453125 L 3.914062 30.148438 C 3.398438 31.277344 3.128906 32.5 3.125 33.742188 L 3.125 48.4375 L 4.6875 48.4375 L 4.6875 33.742188 C 4.691406 32.726562 4.910156 31.726562 5.335938 30.804688 L 8.59375 23.734375 L 8.59375 35.15625 C 8.59375 35.792969 8.707031 36.425781 8.929688 37.023438 L 8.15625 38.359375 L 9.507812 39.140625 L 14.195312 31.023438 C 14.402344 30.664062 14.742188 30.398438 15.140625 30.289062 C 15.542969 30.1875 15.96875 30.242188 16.328125 30.445312 C 17.074219 30.878906 17.332031 31.835938 16.898438 32.585938 L 13.382812 38.671875 C 13.246094 38.921875 13.246094 39.222656 13.390625 39.46875 L 15.0625 42.25 C 15.429688 42.855469 15.625 43.550781 15.625 44.257812 L 15.625 48.429688 L 17.1875 48.429688 L 17.1875 44.257812 C 17.1875 43.265625 16.914062 42.296875 16.40625 41.445312 L 15.914062 40.625 L 20.734375 40.625 C 20.523438 41.425781 20.632812 42.28125 21.046875 43 L 24.414062 48.828125 L 25.765625 48.046875 L 22.398438 42.21875 C 22.078125 41.671875 22.121094 40.984375 22.507812 40.480469 C 22.890625 39.976562 23.542969 39.753906 24.15625 39.921875 C 24.558594 40.027344 24.902344 40.292969 25.101562 40.65625 L 26.664062 43.359375 C 26.84375 43.664062 27.203125 43.8125 27.546875 43.726562 C 27.890625 43.632812 28.125 43.324219 28.125 42.96875 L 28.125 28.125 C 28.125 27.261719 28.824219 26.5625 29.6875 26.5625 C 30.550781 26.5625 31.25 27.261719 31.25 28.125 L 31.25 40.625 C 31.25 41.054688 31.601562 41.40625 32.03125 41.40625 C 32.460938 41.40625 32.8125 41.054688 32.8125 40.625 L 32.8125 37.5 C 32.8125 36.636719 33.511719 35.9375 34.375 35.9375 C 35.238281 35.9375 35.9375 36.636719 35.9375 37.5 L 35.9375 40.625 C 35.9375 41.054688 36.289062 41.40625 36.71875 41.40625 C 37.148438 41.40625 37.5 41.054688 37.5 40.625 L 37.5 38.28125 C 37.5 37.417969 38.199219 36.71875 39.0625 36.71875 C 39.925781 36.71875 40.625 37.417969 40.625 38.28125 L 40.625 40.625 C 40.625 41.054688 40.976562 41.40625 41.40625 41.40625 C 41.835938 41.40625 42.1875 41.054688 42.1875 40.625 L 42.1875 39.0625 C 42.1875 38.199219 42.886719 37.5 43.75 37.5 C 44.613281 37.5 45.3125 38.199219 45.3125 39.0625 L 45.3125 48.4375 L 46.875 48.4375 L 46.875 39.0625 C 46.875 37.335938 45.476562 35.9375 43.75 35.9375 Z M 33.59375 34.476562 C 33.320312 34.546875 33.058594 34.65625 32.8125 34.796875 L 32.8125 28.125 C 32.8125 26.398438 31.414062 25 29.6875 25 C 27.960938 25 26.5625 26.398438 26.5625 28.125 L 26.5625 39.0625 L 25.773438 39.0625 C 25.421875 38.761719 25.007812 38.539062 24.5625 38.414062 C 23.761719 38.203125 22.90625 38.3125 22.1875 38.726562 C 22.023438 38.824219 21.871094 38.9375 21.726562 39.0625 L 14.976562 39.0625 L 14.96875 39.054688 L 18.257812 33.367188 C 19.121094 31.871094 18.609375 29.960938 17.113281 29.097656 C 15.617188 28.234375 13.707031 28.746094 12.84375 30.242188 L 10.15625 34.890625 L 10.15625 7.03125 C 10.15625 4.875 11.90625 3.125 14.0625 3.125 L 29.6875 3.125 C 31.84375 3.125 33.59375 4.875 33.59375 7.03125 Z M 33.59375 34.476562 "/>
<path style=" stroke:none;fill-rule:nonzero;fill:rgb(0%,0%,0%);fill-opacity:1;" d="M 21.09375 16.40625 L 22.65625 16.40625 C 23.085938 16.40625 23.4375 16.757812 23.4375 17.1875 L 25 17.1875 C 25 15.894531 23.949219 14.84375 22.65625 14.84375 L 22.65625 14.0625 L 21.09375 14.0625 L 21.09375 14.84375 C 19.800781 14.84375 18.75 15.894531 18.75 17.1875 C 18.75 18.480469 19.800781 19.53125 21.09375 19.53125 L 22.65625 19.53125 C 23.085938 19.53125 23.4375 19.882812 23.4375 20.3125 C 23.4375 20.742188 23.085938 21.09375 22.65625 21.09375 L 21.09375 21.09375 C 20.664062 21.09375 20.3125 20.742188 20.3125 20.3125 L 18.75 20.3125 C 18.75 21.605469 19.800781 22.65625 21.09375 22.65625 L 21.09375 23.4375 L 22.65625 23.4375 L 22.65625 22.65625 C 23.949219 22.65625 25 21.605469 25 20.3125 C 25 19.019531 23.949219 17.96875 22.65625 17.96875 L 21.09375 17.96875 C 20.664062 17.96875 20.3125 17.617188 20.3125 17.1875 C 20.3125 16.757812 20.664062 16.40625 21.09375 16.40625 Z M 21.09375 16.40625 "/>
<path style=" stroke:none;fill-rule:nonzero;fill:rgb(0%,0%,0%);fill-opacity:1;" d="M 21.875 10.9375 C 17.558594 10.9375 14.0625 14.433594 14.0625 18.75 C 14.0625 23.066406 17.558594 26.5625 21.875 26.5625 C 26.191406 26.5625 29.6875 23.066406 29.6875 18.75 C 29.683594 14.4375 26.1875 10.941406 21.875 10.9375 Z M 21.875 25 C 18.421875 25 15.625 22.203125 15.625 18.75 C 15.625 15.296875 18.421875 12.5 21.875 12.5 C 25.328125 12.5 28.125 15.296875 28.125 18.75 C 28.121094 22.199219 25.324219 24.996094 21.875 25 Z M 21.875 25 "/>
<path style=" stroke:none;fill-rule:nonzero;fill:rgb(0%,0%,0%);fill-opacity:1;" d="M 39.0625 23.4375 L 40.625 23.4375 L 40.625 25 L 39.0625 25 Z M 39.0625 23.4375 "/>
<path style=" stroke:none;fill-rule:nonzero;fill:rgb(0%,0%,0%);fill-opacity:1;" d="M 39.0625 26.5625 L 40.625 26.5625 L 40.625 28.125 L 39.0625 28.125 Z M 39.0625 26.5625 "/>
<path style=" stroke:none;fill-rule:nonzero;fill:rgb(0%,0%,0%);fill-opacity:1;" d="M 3.125 23.4375 L 4.6875 23.4375 L 4.6875 25 L 3.125 25 Z M 3.125 23.4375 "/>
</g>
</svg>
