<?xml version="1.0" encoding="UTF-8"?>
<svg xmlns="http://www.w3.org/2000/svg" xmlns:xlink="http://www.w3.org/1999/xlink" width="50px" height="50px" viewBox="0 0 50 50" version="1.1">
<g id="surface1">
<path style=" stroke:none;fill-rule:nonzero;fill:rgb(0%,0%,0%);fill-opacity:1;" d="M 43.882812 33.566406 C 43.777344 33.164062 43.523438 32.832031 43.164062 32.625 C 42.804688 32.414062 42.386719 32.359375 41.984375 32.46875 L 40.984375 28.726562 C 45.4375 26.546875 48.511719 21.96875 48.511719 16.679688 C 48.511719 9.289062 42.496094 3.277344 35.105469 3.277344 C 33.132812 3.277344 31.257812 3.707031 29.570312 4.472656 C 26.476562 1.585938 22.453125 0 18.171875 0 C 13.699219 0 9.503906 1.730469 6.363281 4.871094 C 3.269531 7.964844 1.539062 12.097656 1.488281 16.503906 C 1.417969 23.128906 7.101562 31.460938 12.417969 38.140625 C 6.429688 39.03125 2.640625 41.21875 2.640625 43.863281 C 2.640625 45.644531 4.355469 47.25 7.472656 48.382812 C 10.34375 49.425781 14.144531 50 18.171875 50 C 22.203125 50 26 49.425781 28.871094 48.382812 C 31.988281 47.253906 33.703125 45.648438 33.703125 43.863281 C 33.703125 41.222656 29.914062 39.03125 23.925781 38.140625 C 26.128906 35.371094 28.390625 32.320312 30.296875 29.195312 C 31.789062 29.773438 33.410156 30.089844 35.101562 30.089844 C 35.417969 30.089844 35.726562 30.078125 36.039062 30.054688 L 37.039062 33.792969 C 36.640625 33.898438 36.304688 34.152344 36.097656 34.511719 C 35.890625 34.871094 35.832031 35.289062 35.941406 35.691406 L 38.503906 45.246094 C 38.785156 46.304688 39.464844 47.191406 40.417969 47.742188 C 41.054688 48.109375 41.757812 48.296875 42.472656 48.296875 C 42.828125 48.296875 43.1875 48.25 43.539062 48.15625 C 45.726562 47.570312 47.03125 45.308594 46.445312 43.117188 Z M 42.390625 33.976562 L 42.1875 33.222656 Z M 32.144531 43.863281 C 32.144531 44.910156 30.71875 46.050781 28.335938 46.914062 C 25.636719 47.898438 22.023438 48.4375 18.171875 48.4375 C 14.320312 48.4375 10.710938 47.898438 8.007812 46.914062 C 5.625 46.050781 4.199219 44.910156 4.199219 43.863281 C 4.199219 42.308594 7.480469 40.300781 13.5625 39.5625 C 14.835938 41.121094 16.058594 42.570312 17.144531 43.859375 L 17.574219 44.367188 C 17.722656 44.542969 17.941406 44.644531 18.171875 44.644531 C 18.402344 44.644531 18.621094 44.542969 18.769531 44.367188 L 19.179688 43.878906 C 20.277344 42.578125 21.507812 41.125 22.78125 39.558594 C 28.863281 40.300781 32.144531 42.308594 32.144531 43.863281 Z M 21.851562 38.226562 C 21.847656 38.234375 21.847656 38.234375 21.84375 38.238281 C 20.550781 39.835938 19.296875 41.324219 18.171875 42.652344 C 17.066406 41.34375 15.808594 39.855469 14.503906 38.242188 C 14.5 38.238281 14.496094 38.234375 14.492188 38.226562 C 12.484375 35.746094 10.359375 32.980469 8.496094 30.144531 C 4.84375 24.597656 3.015625 20.011719 3.050781 16.519531 C 3.09375 12.523438 4.664062 8.777344 7.46875 5.976562 C 10.3125 3.128906 14.113281 1.5625 18.171875 1.5625 C 21.871094 1.5625 25.359375 2.867188 28.101562 5.253906 C 26.597656 6.179688 25.292969 7.390625 24.253906 8.816406 C 22.519531 7.46875 20.390625 6.734375 18.171875 6.734375 C 12.6875 6.734375 8.222656 11.195312 8.222656 16.679688 C 8.222656 22.164062 12.6875 26.628906 18.171875 26.628906 C 20.390625 26.628906 22.519531 25.894531 24.257812 24.550781 C 25.464844 26.207031 27.039062 27.582031 28.867188 28.542969 C 26.773438 31.945312 24.246094 35.273438 21.851562 38.226562 Z M 23.410156 10.136719 C 22.320312 12.074219 21.699219 14.304688 21.699219 16.679688 C 21.699219 19.058594 22.320312 21.289062 23.410156 23.226562 C 21.925781 24.417969 20.089844 25.066406 18.171875 25.066406 C 13.546875 25.066406 9.785156 21.304688 9.785156 16.679688 C 9.785156 12.058594 13.546875 8.296875 18.171875 8.296875 C 20.089844 8.296875 21.925781 8.945312 23.410156 10.136719 Z M 23.257812 16.679688 C 23.257812 10.152344 28.574219 4.839844 35.101562 4.839844 C 41.632812 4.839844 46.949219 10.152344 46.949219 16.679688 C 46.949219 23.210938 41.632812 28.527344 35.101562 28.527344 C 28.574219 28.527344 23.257812 23.210938 23.257812 16.679688 Z M 37.601562 29.855469 C 38.261719 29.730469 38.90625 29.554688 39.53125 29.335938 L 40.476562 32.871094 L 38.550781 33.386719 Z M 43.136719 46.648438 C 42.480469 46.820312 41.792969 46.730469 41.203125 46.390625 C 40.609375 46.046875 40.1875 45.5 40.011719 44.84375 L 37.453125 35.296875 L 42.378906 33.980469 L 44.941406 43.523438 C 45.300781 44.882812 44.492188 46.28125 43.136719 46.648438 Z M 42.550781 9.238281 C 38.445312 5.132812 31.765625 5.132812 27.664062 9.238281 C 25.675781 11.226562 24.578125 13.871094 24.578125 16.683594 C 24.578125 19.492188 25.675781 22.136719 27.664062 24.125 C 29.714844 26.175781 32.410156 27.203125 35.105469 27.203125 C 37.800781 27.203125 40.5 26.175781 42.550781 24.125 C 46.652344 20.023438 46.652344 13.34375 42.550781 9.238281 Z M 41.445312 23.023438 C 39.699219 24.769531 37.402344 25.640625 35.105469 25.640625 C 32.808594 25.640625 30.515625 24.769531 28.765625 23.023438 C 27.074219 21.328125 26.140625 19.078125 26.140625 16.683594 C 26.140625 14.289062 27.074219 12.035156 28.765625 10.34375 C 30.515625 8.59375 32.808594 7.71875 35.105469 7.71875 C 37.402344 7.71875 39.699219 8.59375 41.445312 10.339844 C 44.9375 13.839844 44.9375 19.527344 41.445312 23.023438 Z M 40.324219 16.679688 C 40.324219 17.113281 39.976562 17.460938 39.546875 17.460938 L 35.105469 17.460938 C 34.671875 17.460938 34.324219 17.113281 34.324219 16.679688 L 34.324219 12.242188 C 34.324219 11.808594 34.671875 11.460938 35.105469 11.460938 C 35.535156 11.460938 35.882812 11.808594 35.882812 12.242188 L 35.882812 15.898438 L 39.542969 15.898438 C 39.976562 15.902344 40.324219 16.25 40.324219 16.679688 Z M 40.324219 16.679688 "/>
</g>
</svg>
