<?xml version="1.0" encoding="UTF-8"?>
<svg xmlns="http://www.w3.org/2000/svg" xmlns:xlink="http://www.w3.org/1999/xlink" width="50px" height="50px" viewBox="0 0 50 50" version="1.1">
<g id="surface1">
<path style=" stroke:none;fill-rule:evenodd;fill:rgb(0%,0%,0%);fill-opacity:1;" d="M 42.054688 25 L 43.75 25 C 44.183594 25 44.53125 25.347656 44.53125 25.78125 L 44.53125 31.25 L 34.375 31.25 C 33.945312 31.25 33.59375 31.601562 33.59375 32.03125 C 33.59375 32.460938 33.945312 32.8125 34.375 32.8125 L 46.09375 32.8125 C 47.386719 32.8125 48.4375 33.863281 48.4375 35.15625 L 48.4375 47 C 48.4375 48.277344 46.894531 48.914062 45.992188 48.011719 C 45.992188 48.011719 43.519531 45.542969 43.519531 45.542969 C 43.375 45.394531 43.175781 45.3125 42.96875 45.3125 L 25.78125 45.3125 C 24.488281 45.3125 23.4375 44.265625 23.4375 42.96875 L 23.4375 38.28125 C 23.4375 37.851562 23.085938 37.5 22.65625 37.5 C 22.226562 37.5 21.875 37.851562 21.875 38.28125 L 21.875 39.0625 L 16.40625 39.0625 C 15.976562 39.0625 15.625 38.714844 15.625 38.28125 L 15.625 35.804688 C 16.535156 35.484375 17.1875 34.613281 17.1875 33.59375 C 17.1875 32.296875 16.140625 31.25 14.84375 31.25 C 13.550781 31.25 12.5 32.296875 12.5 33.59375 C 12.5 34.613281 13.152344 35.484375 14.0625 35.804688 L 14.0625 38.28125 C 14.0625 39.578125 15.113281 40.625 16.40625 40.625 L 21.875 40.625 L 21.875 42.96875 C 21.875 45.125 23.625 46.875 25.78125 46.875 L 42.644531 46.875 C 42.644531 46.875 44.886719 49.117188 44.886719 49.117188 C 46.773438 51.003906 50 49.667969 50 47 L 50 35.15625 C 50 33 48.25 31.25 46.09375 31.25 L 46.09375 25.78125 C 46.09375 24.484375 45.046875 23.4375 43.75 23.4375 L 42.054688 23.4375 C 41.730469 22.527344 40.863281 21.875 39.84375 21.875 C 38.550781 21.875 37.5 22.925781 37.5 24.21875 C 37.5 25.511719 38.550781 26.5625 39.84375 26.5625 C 40.863281 26.5625 41.730469 25.910156 42.054688 25 Z M 39.0625 41.40625 L 37.5 41.40625 C 37.070312 41.40625 36.71875 41.757812 36.71875 42.1875 C 36.71875 42.617188 37.070312 42.96875 37.5 42.96875 L 39.0625 42.96875 C 39.492188 42.96875 39.84375 42.617188 39.84375 42.1875 C 39.84375 41.757812 39.492188 41.40625 39.0625 41.40625 Z M 34.375 41.40625 L 32.8125 41.40625 C 32.382812 41.40625 32.03125 41.757812 32.03125 42.1875 C 32.03125 42.617188 32.382812 42.96875 32.8125 42.96875 L 34.375 42.96875 C 34.804688 42.96875 35.15625 42.617188 35.15625 42.1875 C 35.15625 41.757812 34.804688 41.40625 34.375 41.40625 Z M 29.6875 41.40625 L 27.34375 41.40625 C 26.914062 41.40625 26.5625 41.757812 26.5625 42.1875 C 26.5625 42.617188 26.914062 42.96875 27.34375 42.96875 L 29.6875 42.96875 C 30.117188 42.96875 30.46875 42.617188 30.46875 42.1875 C 30.46875 41.757812 30.117188 41.40625 29.6875 41.40625 Z M 42.1875 42.96875 L 44.53125 42.96875 C 44.960938 42.96875 45.3125 42.617188 45.3125 42.1875 C 45.3125 41.757812 44.960938 41.40625 44.53125 41.40625 L 42.1875 41.40625 C 41.757812 41.40625 41.40625 41.757812 41.40625 42.1875 C 41.40625 42.617188 41.757812 42.96875 42.1875 42.96875 Z M 28.90625 38.28125 L 27.34375 38.28125 C 26.914062 38.28125 26.5625 38.632812 26.5625 39.0625 C 26.5625 39.492188 26.914062 39.84375 27.34375 39.84375 L 28.90625 39.84375 C 29.335938 39.84375 29.6875 39.492188 29.6875 39.0625 C 29.6875 38.632812 29.335938 38.28125 28.90625 38.28125 Z M 40.625 39.84375 L 44.53125 39.84375 C 44.960938 39.84375 45.3125 39.492188 45.3125 39.0625 C 45.3125 38.632812 44.960938 38.28125 44.53125 38.28125 L 40.625 38.28125 C 40.195312 38.28125 39.84375 38.632812 39.84375 39.0625 C 39.84375 39.492188 40.195312 39.84375 40.625 39.84375 Z M 32.03125 39.84375 L 37.5 39.84375 C 37.929688 39.84375 38.28125 39.492188 38.28125 39.0625 C 38.28125 38.632812 37.929688 38.28125 37.5 38.28125 L 32.03125 38.28125 C 31.601562 38.28125 31.25 38.632812 31.25 39.0625 C 31.25 39.492188 31.601562 39.84375 32.03125 39.84375 Z M 41.40625 36.71875 L 44.53125 36.71875 C 44.960938 36.71875 45.3125 36.367188 45.3125 35.9375 C 45.3125 35.507812 44.960938 35.15625 44.53125 35.15625 L 41.40625 35.15625 C 40.976562 35.15625 40.625 35.507812 40.625 35.9375 C 40.625 36.367188 40.976562 36.71875 41.40625 36.71875 Z M 32.8125 36.71875 L 33.59375 36.71875 C 34.023438 36.71875 34.375 36.367188 34.375 35.9375 C 34.375 35.507812 34.023438 35.15625 33.59375 35.15625 L 32.8125 35.15625 C 32.382812 35.15625 32.03125 35.507812 32.03125 35.9375 C 32.03125 36.367188 32.382812 36.71875 32.8125 36.71875 Z M 29.6875 35.15625 L 28.90625 35.15625 C 28.476562 35.15625 28.125 35.507812 28.125 35.9375 C 28.125 36.367188 28.476562 36.71875 28.90625 36.71875 L 29.6875 36.71875 C 30.117188 36.71875 30.46875 36.367188 30.46875 35.9375 C 30.46875 35.507812 30.117188 35.15625 29.6875 35.15625 Z M 36.71875 36.71875 L 38.28125 36.71875 C 38.710938 36.71875 39.0625 36.367188 39.0625 35.9375 C 39.0625 35.507812 38.710938 35.15625 38.28125 35.15625 L 36.71875 35.15625 C 36.289062 35.15625 35.9375 35.507812 35.9375 35.9375 C 35.9375 36.367188 36.289062 36.71875 36.71875 36.71875 Z M 26.890625 34.972656 C 33.164062 31.382812 36.660156 24.519531 35.8125 17.484375 C 35.78125 17.242188 35.640625 17.027344 35.429688 16.902344 L 25.394531 11.042969 C 25.152344 10.902344 24.851562 10.902344 24.605469 11.042969 L 14.570312 16.902344 C 14.359375 17.027344 14.21875 17.242188 14.1875 17.484375 C 13.339844 24.519531 16.835938 31.382812 23.109375 34.972656 L 24.613281 35.835938 C 24.851562 35.972656 25.148438 35.972656 25.386719 35.835938 Z M 14.84375 34.375 C 14.414062 34.375 14.0625 34.027344 14.0625 33.59375 C 14.0625 33.160156 14.414062 32.8125 14.84375 32.8125 C 15.277344 32.8125 15.625 33.160156 15.625 33.59375 C 15.625 34.027344 15.277344 34.375 14.84375 34.375 Z M 26.113281 33.617188 L 25 34.257812 C 25 34.257812 23.886719 33.617188 23.886719 33.617188 C 18.277344 30.40625 15.09375 24.335938 15.699219 18.054688 C 15.699219 18.054688 25 12.625 25 12.625 C 25 12.625 34.300781 18.054688 34.300781 18.054688 C 34.90625 24.335938 31.722656 30.40625 26.113281 33.617188 Z M 24.609375 32.230469 C 24.851562 32.371094 25.148438 32.371094 25.390625 32.230469 C 30.066406 29.53125 32.863281 24.628906 32.8125 19.433594 C 32.808594 19.160156 32.660156 18.90625 32.425781 18.769531 L 25.394531 14.664062 C 25.152344 14.519531 24.847656 14.519531 24.605469 14.664062 L 17.574219 18.769531 C 17.339844 18.90625 17.191406 19.160156 17.1875 19.433594 C 17.136719 24.628906 19.933594 29.53125 24.609375 32.230469 Z M 25 30.644531 C 21.183594 28.269531 18.863281 24.21875 18.753906 19.890625 C 18.753906 19.890625 25 16.242188 25 16.242188 C 25 16.242188 31.246094 19.890625 31.246094 19.890625 C 31.136719 24.21875 28.816406 28.269531 25 30.644531 Z M 6.25 16.730469 L 6.25 22.65625 C 6.25 23.953125 7.300781 25 8.59375 25 L 8.726562 25 C 9.050781 25.910156 9.917969 26.5625 10.9375 26.5625 C 12.230469 26.5625 13.28125 25.511719 13.28125 24.21875 C 13.28125 22.925781 12.230469 21.875 10.9375 21.875 C 9.917969 21.875 9.050781 22.527344 8.726562 23.4375 L 8.59375 23.4375 C 8.164062 23.4375 7.8125 23.089844 7.8125 22.65625 L 7.8125 15.625 L 13.28125 15.625 C 13.710938 15.625 14.0625 15.277344 14.0625 14.84375 C 14.0625 14.414062 13.710938 14.0625 13.28125 14.0625 L 7.070312 14.0625 C 7.058594 14.0625 7.042969 14.0625 7.03125 14.0625 C 6.804688 14.0625 6.601562 14.160156 6.460938 14.3125 L 4.007812 16.761719 C 3.105469 17.664062 1.5625 17.027344 1.5625 15.75 L 1.5625 3.90625 C 1.5625 2.613281 2.613281 1.5625 3.90625 1.5625 L 24.21875 1.5625 C 25.511719 1.5625 26.5625 2.613281 26.5625 3.90625 L 26.5625 8.59375 C 26.5625 9.023438 26.914062 9.375 27.34375 9.375 C 27.773438 9.375 28.125 9.023438 28.125 8.59375 L 28.125 6.25 L 33.59375 6.25 C 34.027344 6.25 34.375 6.597656 34.375 7.03125 L 34.375 9.507812 C 33.464844 9.832031 32.8125 10.699219 32.8125 11.71875 C 32.8125 13.011719 33.863281 14.0625 35.15625 14.0625 C 36.449219 14.0625 37.5 13.011719 37.5 11.71875 C 37.5 10.699219 36.847656 9.832031 35.9375 9.507812 L 35.9375 7.03125 C 35.9375 5.734375 34.890625 4.6875 33.59375 4.6875 L 28.125 4.6875 L 28.125 3.90625 C 28.125 1.75 26.375 0 24.21875 0 L 3.90625 0 C 1.75 0 0 1.75 0 3.90625 L 0 15.75 C 0 18.417969 3.226562 19.753906 5.113281 17.867188 Z M 24.21875 24.085938 L 24.21875 25.746094 C 24.21875 26.179688 24.570312 26.527344 25 26.527344 C 25.429688 26.527344 25.78125 26.179688 25.78125 25.746094 L 25.78125 24.085938 C 26.691406 23.761719 27.34375 22.894531 27.34375 21.875 C 27.34375 20.582031 26.292969 19.53125 25 19.53125 C 23.707031 19.53125 22.65625 20.582031 22.65625 21.875 C 22.65625 22.894531 23.308594 23.761719 24.21875 24.085938 Z M 10.15625 24.21875 C 10.15625 23.789062 10.507812 23.4375 10.9375 23.4375 C 11.367188 23.4375 11.71875 23.789062 11.71875 24.21875 C 11.71875 24.648438 11.367188 25 10.9375 25 C 10.507812 25 10.15625 24.648438 10.15625 24.21875 Z M 40.625 24.21875 C 40.625 24.648438 40.273438 25 39.84375 25 C 39.414062 25 39.0625 24.648438 39.0625 24.21875 C 39.0625 23.789062 39.414062 23.4375 39.84375 23.4375 C 40.273438 23.4375 40.625 23.789062 40.625 24.21875 Z M 25.015625 22.65625 C 25.441406 22.648438 25.78125 22.300781 25.78125 21.875 C 25.78125 21.445312 25.429688 21.09375 25 21.09375 C 24.570312 21.09375 24.21875 21.445312 24.21875 21.875 C 24.21875 22.300781 24.558594 22.648438 24.984375 22.65625 C 24.988281 22.65625 24.996094 22.65625 25 22.65625 Z M 35.15625 10.9375 C 35.585938 10.9375 35.9375 11.289062 35.9375 11.71875 C 35.9375 12.148438 35.585938 12.5 35.15625 12.5 C 34.726562 12.5 34.375 12.148438 34.375 11.71875 C 34.375 11.289062 34.726562 10.9375 35.15625 10.9375 Z M 20.3125 11.71875 L 21.09375 11.71875 C 21.523438 11.71875 21.875 11.367188 21.875 10.9375 C 21.875 10.507812 21.523438 10.15625 21.09375 10.15625 L 20.3125 10.15625 C 19.882812 10.15625 19.53125 10.507812 19.53125 10.9375 C 19.53125 11.367188 19.882812 11.71875 20.3125 11.71875 Z M 15.625 11.71875 L 17.1875 11.71875 C 17.617188 11.71875 17.96875 11.367188 17.96875 10.9375 C 17.96875 10.507812 17.617188 10.15625 17.1875 10.15625 L 15.625 10.15625 C 15.195312 10.15625 14.84375 10.507812 14.84375 10.9375 C 14.84375 11.367188 15.195312 11.71875 15.625 11.71875 Z M 7.8125 10.15625 L 5.46875 10.15625 C 5.039062 10.15625 4.6875 10.507812 4.6875 10.9375 C 4.6875 11.367188 5.039062 11.71875 5.46875 11.71875 L 7.8125 11.71875 C 8.242188 11.71875 8.59375 11.367188 8.59375 10.9375 C 8.59375 10.507812 8.242188 10.15625 7.8125 10.15625 Z M 10.9375 11.71875 L 12.5 11.71875 C 12.929688 11.71875 13.28125 11.367188 13.28125 10.9375 C 13.28125 10.507812 12.929688 10.15625 12.5 10.15625 L 10.9375 10.15625 C 10.507812 10.15625 10.15625 10.507812 10.15625 10.9375 C 10.15625 11.367188 10.507812 11.71875 10.9375 11.71875 Z M 21.09375 8.59375 L 22.65625 8.59375 C 23.085938 8.59375 23.4375 8.242188 23.4375 7.8125 C 23.4375 7.382812 23.085938 7.03125 22.65625 7.03125 L 21.09375 7.03125 C 20.664062 7.03125 20.3125 7.382812 20.3125 7.8125 C 20.3125 8.242188 20.664062 8.59375 21.09375 8.59375 Z M 9.375 7.03125 L 5.46875 7.03125 C 5.039062 7.03125 4.6875 7.382812 4.6875 7.8125 C 4.6875 8.242188 5.039062 8.59375 5.46875 8.59375 L 9.375 8.59375 C 9.804688 8.59375 10.15625 8.242188 10.15625 7.8125 C 10.15625 7.382812 9.804688 7.03125 9.375 7.03125 Z M 17.96875 7.03125 L 12.5 7.03125 C 12.070312 7.03125 11.71875 7.382812 11.71875 7.8125 C 11.71875 8.242188 12.070312 8.59375 12.5 8.59375 L 17.96875 8.59375 C 18.398438 8.59375 18.75 8.242188 18.75 7.8125 C 18.75 7.382812 18.398438 7.03125 17.96875 7.03125 Z M 13.28125 3.90625 L 11.71875 3.90625 C 11.289062 3.90625 10.9375 4.257812 10.9375 4.6875 C 10.9375 5.117188 11.289062 5.46875 11.71875 5.46875 L 13.28125 5.46875 C 13.710938 5.46875 14.0625 5.117188 14.0625 4.6875 C 14.0625 4.257812 13.710938 3.90625 13.28125 3.90625 Z M 20.3125 5.46875 L 22.65625 5.46875 C 23.085938 5.46875 23.4375 5.117188 23.4375 4.6875 C 23.4375 4.257812 23.085938 3.90625 22.65625 3.90625 L 20.3125 3.90625 C 19.882812 3.90625 19.53125 4.257812 19.53125 4.6875 C 19.53125 5.117188 19.882812 5.46875 20.3125 5.46875 Z M 8.59375 3.90625 L 5.46875 3.90625 C 5.039062 3.90625 4.6875 4.257812 4.6875 4.6875 C 4.6875 5.117188 5.039062 5.46875 5.46875 5.46875 L 8.59375 5.46875 C 9.023438 5.46875 9.375 5.117188 9.375 4.6875 C 9.375 4.257812 9.023438 3.90625 8.59375 3.90625 Z M 17.1875 3.90625 L 16.40625 3.90625 C 15.976562 3.90625 15.625 4.257812 15.625 4.6875 C 15.625 5.117188 15.976562 5.46875 16.40625 5.46875 L 17.1875 5.46875 C 17.617188 5.46875 17.96875 5.117188 17.96875 4.6875 C 17.96875 4.257812 17.617188 3.90625 17.1875 3.90625 Z M 17.1875 3.90625 "/>
</g>
</svg>
