<?xml version="1.0" encoding="UTF-8"?>
<svg xmlns="http://www.w3.org/2000/svg" xmlns:xlink="http://www.w3.org/1999/xlink" width="40px" height="40px" viewBox="0 0 40 40" version="1.1">
<g id="surface1">
<path style=" stroke:none;fill-rule:nonzero;fill:rgb(0%,0%,0%);fill-opacity:1;" d="M 4.019531 34.585938 C 4.90625 35.910156 5.984375 37.097656 7.21875 38.101562 L 7.234375 38.113281 C 8.589844 39.328125 10.347656 40 12.167969 40 C 12.65625 40 13.140625 39.949219 13.621094 39.851562 C 13.980469 39.78125 14.320312 39.628906 14.613281 39.410156 L 16.6875 37.859375 C 17.546875 37.21875 17.898438 36.105469 17.5625 35.085938 L 15.582031 29.082031 C 15.207031 27.957031 14.09375 27.25 12.914062 27.394531 L 9.941406 27.757812 C 9.828125 27.777344 9.710938 27.714844 9.667969 27.605469 C 7.585938 23.199219 7.585938 16.800781 9.667969 12.394531 C 9.710938 12.285156 9.828125 12.222656 9.941406 12.242188 L 12.914062 12.605469 C 14.09375 12.75 15.207031 12.042969 15.582031 10.917969 L 17.5625 4.914062 C 17.898438 3.894531 17.546875 2.78125 16.6875 2.140625 L 14.613281 0.589844 C 14.320312 0.371094 13.980469 0.21875 13.621094 0.148438 C 11.335938 -0.3125 8.96875 0.332031 7.234375 1.886719 L 7.222656 1.898438 C 5.984375 2.902344 4.90625 4.089844 4.019531 5.414062 C 3.101562 6.785156 2.347656 8.261719 1.773438 9.804688 C 0.613281 12.878906 0 16.402344 0 20 C 0 23.597656 0.613281 27.121094 1.773438 30.195312 C 2.347656 31.738281 3.101562 33.214844 4.019531 34.585938 Z M 13.066406 28.632812 C 13.65625 28.558594 14.210938 28.910156 14.394531 29.476562 L 16.375 35.480469 C 16.546875 35.984375 16.371094 36.542969 15.941406 36.859375 L 15.152344 37.445312 C 14.777344 36.625 14.425781 35.765625 14.105469 34.882812 C 13.382812 32.875 12.820312 30.8125 12.425781 28.710938 Z M 15.152344 2.554688 L 15.941406 3.140625 C 16.371094 3.457031 16.546875 4.015625 16.375 4.519531 L 14.394531 10.527344 C 14.214844 11.089844 13.65625 11.441406 13.066406 11.367188 L 12.425781 11.289062 C 12.820312 9.1875 13.382812 7.125 14.105469 5.117188 C 14.425781 4.234375 14.777344 3.375 15.152344 2.554688 Z M 2.941406 10.246094 C 3.484375 8.792969 4.191406 7.40625 5.054688 6.113281 C 5.871094 4.894531 6.863281 3.800781 8.003906 2.871094 C 8.023438 2.851562 8.046875 2.835938 8.066406 2.816406 C 9.195312 1.808594 10.65625 1.25 12.167969 1.25 C 12.570312 1.25 12.976562 1.292969 13.371094 1.371094 C 13.550781 1.40625 13.71875 1.480469 13.867188 1.59375 L 14.128906 1.789062 C 13.695312 2.714844 13.292969 3.6875 12.929688 4.691406 C 12.175781 6.789062 11.589844 8.941406 11.183594 11.132812 L 10.09375 11 C 9.441406 10.914062 8.8125 11.261719 8.535156 11.859375 C 6.3125 16.578125 6.3125 23.421875 8.535156 28.140625 C 8.808594 28.738281 9.441406 29.085938 10.09375 29 L 11.183594 28.867188 C 11.589844 31.058594 12.175781 33.210938 12.929688 35.308594 C 13.292969 36.308594 13.695312 37.285156 14.128906 38.210938 L 13.867188 38.40625 C 13.71875 38.515625 13.550781 38.59375 13.371094 38.628906 C 11.472656 39.007812 9.507812 38.472656 8.066406 37.183594 C 8.046875 37.164062 8.023438 37.144531 8.003906 37.128906 C 6.863281 36.199219 5.871094 35.105469 5.054688 33.882812 C 4.191406 32.59375 3.484375 31.207031 2.941406 29.75 C 1.835938 26.820312 1.25 23.445312 1.25 20 C 1.25 16.554688 1.835938 13.179688 2.941406 10.246094 Z M 40 18.496094 C 40 17.609375 39.28125 16.890625 38.390625 16.886719 L 31.402344 16.886719 L 31.402344 14.214844 C 31.402344 13.328125 30.679688 12.609375 29.792969 12.605469 L 16.984375 12.605469 C 16.097656 12.609375 15.375 13.328125 15.375 14.214844 L 15.375 23.152344 C 15.375 24.039062 16.097656 24.761719 16.984375 24.761719 L 18.160156 24.761719 L 18.160156 26.820312 C 18.160156 27.042969 18.277344 27.25 18.472656 27.359375 C 18.664062 27.472656 18.902344 27.472656 19.097656 27.359375 L 23.601562 24.761719 L 23.972656 24.761719 L 23.972656 27.433594 C 23.976562 28.324219 24.695312 29.042969 25.582031 29.042969 L 31.777344 29.042969 L 36.277344 31.640625 C 36.472656 31.753906 36.710938 31.753906 36.902344 31.640625 C 37.097656 31.53125 37.214844 31.324219 37.214844 31.101562 L 37.214844 29.042969 L 38.390625 29.042969 C 39.28125 29.042969 40 28.324219 40 27.433594 Z M 23.433594 23.511719 C 23.324219 23.511719 23.214844 23.539062 23.121094 23.59375 L 19.410156 25.738281 L 19.410156 24.136719 C 19.410156 23.792969 19.128906 23.511719 18.785156 23.511719 L 16.984375 23.511719 C 16.785156 23.511719 16.625 23.351562 16.625 23.152344 L 16.625 14.214844 C 16.625 14.015625 16.785156 13.855469 16.984375 13.855469 L 29.792969 13.855469 C 29.992188 13.855469 30.152344 14.015625 30.152344 14.214844 L 30.152344 23.152344 C 30.152344 23.351562 29.992188 23.511719 29.792969 23.511719 Z M 38.75 27.433594 C 38.75 27.632812 38.589844 27.792969 38.390625 27.792969 L 36.589844 27.792969 C 36.246094 27.792969 35.964844 28.074219 35.964844 28.417969 L 35.964844 30.019531 L 32.257812 27.875 C 32.160156 27.820312 32.054688 27.792969 31.945312 27.792969 L 25.582031 27.792969 C 25.382812 27.792969 25.222656 27.632812 25.222656 27.433594 L 25.222656 24.761719 L 29.792969 24.761719 C 30.679688 24.761719 31.402344 24.039062 31.402344 23.152344 L 31.402344 18.136719 L 38.390625 18.136719 C 38.589844 18.136719 38.75 18.296875 38.75 18.496094 Z M 37.152344 26.125 C 37.152344 26.46875 36.871094 26.75 36.527344 26.75 L 28.851562 26.75 C 28.503906 26.75 28.226562 26.46875 28.226562 26.125 C 28.226562 25.777344 28.503906 25.5 28.851562 25.5 L 36.527344 25.5 C 36.871094 25.5 37.152344 25.777344 37.152344 26.125 Z M 37.152344 20.304688 C 37.152344 20.648438 36.871094 20.929688 36.527344 20.929688 L 32.867188 20.929688 C 32.519531 20.929688 32.242188 20.648438 32.242188 20.304688 C 32.242188 19.960938 32.519531 19.679688 32.867188 19.679688 L 36.527344 19.679688 C 36.871094 19.679688 37.152344 19.960938 37.152344 20.304688 Z M 37.152344 23.214844 C 37.152344 23.558594 36.871094 23.839844 36.527344 23.839844 L 32.875 23.839844 C 32.527344 23.839844 32.25 23.558594 32.25 23.214844 C 32.25 22.871094 32.527344 22.589844 32.875 22.589844 L 36.527344 22.589844 C 36.871094 22.589844 37.152344 22.871094 37.152344 23.214844 Z M 20.429688 18.683594 C 20.429688 19.027344 20.148438 19.308594 19.804688 19.308594 C 19.460938 19.308594 19.179688 19.03125 19.179688 18.683594 C 19.179688 18.339844 19.460938 18.058594 19.804688 18.058594 C 20.148438 18.058594 20.429688 18.339844 20.429688 18.683594 Z M 24.015625 18.683594 C 24.015625 19.027344 23.734375 19.308594 23.390625 19.308594 C 23.042969 19.308594 22.765625 19.027344 22.765625 18.683594 C 22.765625 18.339844 23.042969 18.058594 23.390625 18.058594 C 23.734375 18.058594 24.015625 18.339844 24.015625 18.683594 Z M 27.597656 18.683594 C 27.597656 19.027344 27.320312 19.308594 26.972656 19.308594 C 26.628906 19.308594 26.347656 19.03125 26.347656 18.683594 C 26.347656 18.339844 26.628906 18.058594 26.972656 18.058594 C 27.320312 18.058594 27.597656 18.339844 27.597656 18.683594 Z M 27.597656 18.683594 "/>
</g>
</svg>
