<?xml version="1.0" encoding="UTF-8"?>
<svg xmlns="http://www.w3.org/2000/svg" xmlns:xlink="http://www.w3.org/1999/xlink" width="40px" height="40px" viewBox="0 0 40 40" version="1.1">
<g id="surface1">
<path style=" stroke:none;fill-rule:nonzero;fill:rgb(0%,0%,0%);fill-opacity:1;" d="M 18.324219 14.058594 C 17.660156 14.058594 17.027344 14.328125 16.566406 14.808594 C 16.132812 15.253906 15.902344 15.859375 15.925781 16.480469 L 16.199219 22.683594 C 16.25 23.863281 17.183594 24.785156 18.324219 24.785156 C 19.460938 24.785156 20.394531 23.863281 20.449219 22.6875 L 20.722656 16.480469 C 20.75 15.859375 20.515625 15.253906 20.082031 14.808594 C 19.625 14.328125 18.988281 14.058594 18.324219 14.058594 Z M 19.203125 22.628906 C 19.175781 23.136719 18.792969 23.535156 18.324219 23.535156 C 17.855469 23.535156 17.46875 23.136719 17.449219 22.632812 L 17.175781 16.425781 C 17.164062 16.144531 17.273438 15.875 17.46875 15.671875 C 17.691406 15.4375 18 15.308594 18.324219 15.308594 C 18.648438 15.308594 18.957031 15.4375 19.179688 15.671875 C 19.378906 15.871094 19.484375 16.144531 19.472656 16.425781 Z M 18.324219 25.214844 C 17.148438 25.214844 16.195312 26.167969 16.195312 27.34375 C 16.195312 28.523438 17.148438 29.476562 18.324219 29.476562 C 19.5 29.476562 20.453125 28.519531 20.453125 27.34375 C 20.453125 26.167969 19.5 25.21875 18.324219 25.214844 Z M 18.324219 28.226562 C 17.839844 28.226562 17.445312 27.832031 17.445312 27.347656 C 17.445312 26.859375 17.835938 26.464844 18.324219 26.464844 C 18.808594 26.464844 19.203125 26.859375 19.203125 27.34375 C 19.203125 27.832031 18.8125 28.222656 18.324219 28.226562 Z M 37.304688 31.105469 L 36.769531 31.105469 L 36.769531 25.097656 C 36.765625 21.472656 33.910156 18.492188 30.289062 18.332031 L 23.984375 7.414062 C 22.816406 5.390625 20.660156 4.144531 18.324219 4.144531 C 15.988281 4.144531 13.832031 5.390625 12.664062 7.414062 L 1.902344 26.054688 C 0.734375 28.074219 0.734375 30.566406 1.902344 32.589844 C 3.070312 34.609375 5.226562 35.855469 7.5625 35.855469 L 38.359375 35.855469 C 38.703125 35.855469 38.984375 35.574219 38.984375 35.230469 L 38.984375 32.78125 C 38.980469 31.855469 38.230469 31.105469 37.304688 31.105469 Z M 35.519531 25.097656 L 35.519531 31.105469 L 32.097656 31.105469 L 32.097656 26.59375 C 32.097656 25.433594 31.15625 24.496094 30 24.496094 C 28.839844 24.496094 27.898438 25.433594 27.898438 26.59375 L 27.898438 31.105469 L 24.476562 31.105469 L 24.476562 25.097656 C 24.476562 22.046875 26.949219 19.574219 29.996094 19.574219 C 33.046875 19.574219 35.519531 22.046875 35.519531 25.097656 Z M 30.847656 31.105469 L 29.148438 31.105469 L 29.148438 26.59375 C 29.148438 26.125 29.53125 25.746094 30 25.746094 C 30.46875 25.746094 30.847656 26.125 30.847656 26.59375 Z M 21.0625 32.398438 L 7.5625 32.398438 C 6.460938 32.398438 5.445312 31.8125 4.898438 30.859375 C 4.347656 29.90625 4.347656 28.734375 4.898438 27.78125 L 10.277344 18.460938 L 15.660156 9.140625 C 16.210938 8.1875 17.226562 7.601562 18.324219 7.601562 C 19.425781 7.601562 20.441406 8.1875 20.992188 9.140625 L 26.371094 18.460938 L 26.769531 19.144531 C 24.585938 20.332031 23.226562 22.613281 23.226562 25.097656 L 23.226562 31.105469 L 22.691406 31.105469 C 21.914062 31.105469 21.238281 31.640625 21.0625 32.398438 Z M 2.984375 31.964844 C 2.03125 30.332031 2.03125 28.3125 2.984375 26.679688 L 13.75 8.039062 C 14.71875 6.359375 16.386719 5.394531 18.324219 5.394531 C 20.265625 5.394531 21.933594 6.359375 22.902344 8.039062 L 28.894531 18.414062 C 28.566406 18.46875 28.242188 18.546875 27.925781 18.648438 L 27.453125 17.835938 L 22.074219 8.515625 C 21.300781 7.175781 19.871094 6.351562 18.324219 6.351562 C 16.777344 6.351562 15.351562 7.175781 14.578125 8.515625 L 3.8125 27.15625 C 3.042969 28.496094 3.042969 30.144531 3.816406 31.484375 C 4.589844 32.824219 6.015625 33.648438 7.5625 33.648438 L 21.015625 33.648438 L 21.015625 34.605469 L 7.5625 34.605469 C 5.625 34.605469 3.957031 33.644531 2.984375 31.964844 Z M 37.734375 34.605469 L 22.265625 34.605469 L 22.265625 32.78125 C 22.269531 32.546875 22.457031 32.355469 22.691406 32.355469 L 37.304688 32.355469 C 37.539062 32.355469 37.730469 32.546875 37.734375 32.78125 Z M 29.429688 21.050781 C 29.53125 21.378906 29.34375 21.730469 29.011719 21.832031 C 27.707031 22.238281 26.761719 23.378906 26.605469 24.738281 C 26.570312 25.058594 26.304688 25.296875 25.984375 25.296875 C 25.960938 25.296875 25.9375 25.296875 25.917969 25.296875 C 25.574219 25.257812 25.324219 24.949219 25.363281 24.609375 C 25.558594 22.742188 26.855469 21.179688 28.648438 20.632812 C 28.980469 20.535156 29.328125 20.71875 29.429688 21.050781 Z M 23.367188 18.914062 L 21.800781 17.347656 C 21.640625 17.191406 21.578125 16.960938 21.636719 16.742188 C 21.691406 16.527344 21.863281 16.355469 22.078125 16.296875 C 22.296875 16.242188 22.527344 16.304688 22.683594 16.464844 L 24.253906 18.027344 C 24.410156 18.1875 24.476562 18.417969 24.417969 18.632812 C 24.359375 18.851562 24.191406 19.019531 23.972656 19.078125 C 23.757812 19.136719 23.527344 19.074219 23.367188 18.914062 Z M 29.996094 13.066406 C 30.34375 13.066406 30.621094 13.347656 30.621094 13.691406 L 30.621094 16.195312 C 30.621094 16.542969 30.34375 16.820312 29.996094 16.820312 C 29.652344 16.820312 29.371094 16.542969 29.371094 16.195312 L 29.371094 13.691406 C 29.371094 13.347656 29.652344 13.066406 29.996094 13.066406 Z M 38.195312 16.464844 C 38.4375 16.707031 38.4375 17.101562 38.195312 17.347656 L 36.628906 18.914062 C 36.386719 19.15625 35.992188 19.152344 35.75 18.910156 C 35.503906 18.667969 35.503906 18.273438 35.746094 18.027344 L 37.3125 16.464844 C 37.554688 16.21875 37.953125 16.21875 38.195312 16.464844 Z M 38.195312 16.464844 "/>
</g>
</svg>
