<?xml version="1.0" encoding="UTF-8"?>
<svg xmlns="http://www.w3.org/2000/svg" xmlns:xlink="http://www.w3.org/1999/xlink" width="45px" height="45px" viewBox="0 0 45 45" version="1.1">
<g id="surface1">
<path style=" stroke:none;fill-rule:evenodd;fill:#21a96a;fill-opacity:1;" d="M 7.785156 16.234375 L 7.785156 13.84375 C 7.785156 13.527344 8.042969 13.273438 8.359375 13.273438 C 8.675781 13.273438 8.929688 13.527344 8.929688 13.84375 L 8.929688 15.660156 L 10.3125 15.660156 C 10.628906 15.660156 10.886719 15.917969 10.886719 16.234375 C 10.886719 16.546875 10.628906 16.804688 10.3125 16.804688 L 8.359375 16.804688 C 8.042969 16.804688 7.785156 16.546875 7.785156 16.234375 Z M 22.710938 2.339844 L 22.292969 2.339844 C 18.757812 2.449219 15.910156 5.363281 15.910156 8.925781 C 15.910156 12.558594 18.867188 15.515625 22.503906 15.515625 C 26.136719 15.515625 29.09375 12.558594 29.09375 8.925781 C 29.09375 5.363281 26.25 2.449219 22.710938 2.339844 Z M 3.871094 16.804688 C 4.132812 18.84375 5.75 20.460938 7.785156 20.71875 L 7.785156 20.257812 C 7.785156 19.941406 8.042969 19.6875 8.359375 19.6875 C 8.675781 19.6875 8.929688 19.941406 8.929688 20.257812 L 8.929688 20.71875 C 10.96875 20.460938 12.589844 18.84375 12.847656 16.804688 L 12.386719 16.804688 C 12.070312 16.804688 11.8125 16.546875 11.8125 16.234375 C 11.8125 15.917969 12.070312 15.660156 12.386719 15.660156 L 12.847656 15.660156 C 12.589844 13.621094 10.96875 12.003906 8.929688 11.746094 L 8.929688 12.207031 C 8.929688 12.523438 8.675781 12.777344 8.359375 12.777344 C 8.042969 12.777344 7.785156 12.523438 7.785156 12.207031 L 7.785156 11.746094 C 5.75 12.003906 4.132812 13.621094 3.871094 15.660156 L 4.332031 15.660156 C 4.648438 15.660156 4.902344 15.917969 4.902344 16.234375 C 4.902344 16.546875 4.648438 16.804688 4.332031 16.804688 Z M 14.023438 16.234375 C 14.023438 13.109375 11.480469 10.566406 8.359375 10.566406 C 5.230469 10.566406 2.6875 13.109375 2.6875 16.234375 C 2.6875 19.359375 5.230469 21.902344 8.359375 21.902344 C 11.480469 21.898438 14.023438 19.359375 14.023438 16.234375 Z M 37.109375 15.90625 C 37.253906 16.113281 37.25 16.390625 37.089844 16.589844 L 36.097656 17.832031 C 35.898438 18.078125 35.542969 18.117188 35.292969 17.921875 C 35.042969 17.726562 35.007812 17.367188 35.203125 17.117188 L 35.933594 16.210938 L 34.4375 14.074219 C 34.253906 13.816406 34.320312 13.460938 34.578125 13.277344 C 34.835938 13.097656 35.191406 13.160156 35.367188 13.417969 Z M 37.214844 20.71875 C 39.25 20.460938 40.875 18.84375 41.132812 16.804688 L 40.671875 16.804688 C 40.355469 16.804688 40.097656 16.546875 40.097656 16.234375 C 40.097656 15.917969 40.355469 15.660156 40.671875 15.660156 L 41.132812 15.660156 C 40.875 13.621094 39.25 12.003906 37.214844 11.746094 L 37.214844 12.207031 C 37.214844 12.523438 36.960938 12.777344 36.644531 12.777344 C 36.332031 12.777344 36.070312 12.523438 36.070312 12.207031 L 36.070312 11.746094 C 34.035156 12.003906 32.417969 13.621094 32.152344 15.660156 L 32.617188 15.660156 C 32.933594 15.660156 33.1875 15.917969 33.1875 16.234375 C 33.1875 16.546875 32.933594 16.804688 32.617188 16.804688 L 32.152344 16.804688 C 32.417969 18.84375 34.035156 20.460938 36.070312 20.71875 L 36.070312 20.257812 C 36.070312 19.945312 36.332031 19.6875 36.644531 19.6875 C 36.960938 19.6875 37.214844 19.941406 37.214844 20.257812 Z M 36.644531 10.566406 C 33.519531 10.566406 30.976562 13.109375 30.976562 16.234375 C 30.976562 19.359375 33.519531 21.898438 36.644531 21.898438 C 39.769531 21.898438 42.3125 19.359375 42.3125 16.234375 C 42.3125 13.109375 39.769531 10.566406 36.644531 10.566406 Z M 25.179688 24.558594 C 25.179688 26.035156 23.976562 27.238281 22.503906 27.238281 C 21.023438 27.238281 19.820312 26.035156 19.820312 24.558594 C 19.820312 23.082031 21.023438 21.878906 22.503906 21.878906 C 23.976562 21.878906 25.179688 23.082031 25.179688 24.558594 Z M 18.675781 24.558594 C 18.675781 26.667969 20.394531 28.382812 22.503906 28.382812 C 24.605469 28.382812 26.324219 26.667969 26.324219 24.558594 C 26.324219 22.453125 24.605469 20.738281 22.503906 20.738281 C 20.394531 20.738281 18.675781 22.453125 18.675781 24.558594 Z M 32.625 25.464844 C 32.808594 25.25 32.902344 24.972656 32.882812 24.683594 C 32.8125 23.730469 31.625 23.335938 31 24.054688 L 25.820312 30.003906 C 24.957031 30.992188 23.808594 31.515625 22.503906 31.515625 C 21.191406 31.515625 20.042969 30.992188 19.183594 30.003906 L 14.003906 24.054688 C 13.371094 23.332031 12.175781 23.738281 12.117188 24.683594 C 12.101562 24.972656 12.191406 25.25 12.382812 25.464844 L 17.371094 31.523438 C 17.957031 32.234375 18.285156 33.023438 18.363281 33.914062 L 18.449219 33.914062 C 19.230469 33.914062 19.867188 34.550781 19.867188 35.332031 L 19.867188 41.246094 C 19.867188 41.339844 19.855469 41.429688 19.839844 41.519531 L 25.960938 41.519531 C 26.328125 41.519531 26.628906 41.21875 26.628906 40.855469 L 26.628906 34.320312 C 26.628906 33.257812 26.953125 32.339844 27.628906 31.523438 Z M 8.917969 41.515625 C 8.769531 41.515625 8.644531 41.390625 8.644531 41.246094 L 8.644531 36.277344 L 13.109375 38.632812 L 13.109375 38.851562 C 13.109375 39.167969 13.367188 39.421875 13.683594 39.421875 C 14 39.421875 14.253906 39.167969 14.253906 38.851562 L 14.253906 38.632812 L 18.722656 36.277344 L 18.722656 41.246094 C 18.722656 41.390625 18.601562 41.515625 18.449219 41.515625 Z M 18.449219 35.058594 L 18.546875 35.078125 L 14.253906 37.34375 C 14.179688 36.667969 13.1875 36.667969 13.117188 37.34375 L 8.820312 35.078125 L 8.917969 35.058594 Z M 12.648438 33.109375 C 12.648438 32.996094 12.6875 32.917969 12.710938 32.886719 L 14.65625 32.886719 C 14.675781 32.917969 14.71875 32.996094 14.71875 33.109375 L 14.71875 33.914062 L 12.648438 33.914062 Z M 33.269531 23.085938 C 34.195312 23.894531 34.285156 25.265625 33.488281 26.210938 L 28.515625 32.246094 C 28.003906 32.863281 27.769531 33.523438 27.769531 34.320312 L 27.769531 40.855469 C 27.769531 41.851562 26.957031 42.660156 25.960938 42.660156 L 19.039062 42.660156 C 18.9375 42.660156 18.832031 42.648438 18.730469 42.632812 C 18.640625 42.652344 18.546875 42.660156 18.449219 42.660156 L 8.917969 42.660156 C 8.136719 42.660156 7.5 42.023438 7.5 41.246094 L 7.5 35.332031 C 7.5 34.550781 8.136719 33.914062 8.917969 33.914062 L 11.507812 33.914062 L 11.507812 33.109375 C 11.507812 32.34375 12.019531 31.742188 12.664062 31.742188 L 14.695312 31.742188 C 15.347656 31.742188 15.859375 32.34375 15.859375 33.109375 L 15.859375 33.914062 L 17.210938 33.914062 C 17.140625 33.292969 16.910156 32.757812 16.492188 32.25 L 11.511719 26.210938 C 11.128906 25.765625 10.9375 25.195312 10.980469 24.605469 C 11.117188 22.628906 13.578125 21.824219 14.863281 23.304688 L 20.042969 29.253906 C 20.6875 29.996094 21.515625 30.371094 22.503906 30.371094 C 23.484375 30.371094 24.3125 29.996094 24.957031 29.253906 L 30.136719 23.304688 C 30.9375 22.378906 32.34375 22.28125 33.269531 23.085938 Z M 22.054688 9.28125 C 21.898438 9.085938 21.886719 8.804688 22.03125 8.597656 L 24.089844 5.664062 C 24.269531 5.402344 24.628906 5.339844 24.886719 5.523438 C 25.144531 5.703125 25.207031 6.058594 25.023438 6.316406 L 23.214844 8.902344 L 24.121094 10.035156 C 24.421875 10.414062 24.144531 10.964844 23.675781 10.964844 C 23.511719 10.964844 23.339844 10.890625 23.230469 10.75 Z M 21.929688 3.507812 L 21.929688 4.183594 C 21.929688 4.5 22.1875 4.753906 22.503906 4.753906 C 22.816406 4.753906 23.070312 4.5 23.070312 4.183594 L 23.070312 3.507812 C 25.621094 3.777344 27.652344 5.804688 27.917969 8.355469 L 27.242188 8.355469 C 26.925781 8.355469 26.667969 8.609375 26.667969 8.925781 C 26.667969 9.242188 26.925781 9.496094 27.242188 9.496094 L 27.917969 9.496094 C 27.652344 12.046875 25.621094 14.074219 23.070312 14.34375 L 23.070312 13.667969 C 23.070312 13.351562 22.816406 13.097656 22.503906 13.097656 C 22.1875 13.097656 21.929688 13.351562 21.929688 13.667969 L 21.929688 14.34375 C 19.378906 14.074219 17.347656 12.046875 17.085938 9.496094 L 17.757812 9.496094 C 18.078125 9.496094 18.332031 9.242188 18.332031 8.925781 C 18.332031 8.609375 18.078125 8.355469 17.757812 8.355469 L 17.085938 8.355469 C 17.347656 5.804688 19.378906 3.777344 21.929688 3.507812 Z M 21.929688 3.507812 "/>
</g>
</svg>
