<?xml version="1.0" encoding="UTF-8"?>
<svg xmlns="http://www.w3.org/2000/svg" xmlns:xlink="http://www.w3.org/1999/xlink" width="40px" height="40px" viewBox="0 0 40 40" version="1.1">
<g id="surface1">
<path style=" stroke:none;fill-rule:nonzero;fill:rgb(0%,0%,0%);fill-opacity:1;" d="M 28.59375 30.9375 C 28.164062 30.9375 27.8125 31.289062 27.8125 31.71875 C 27.8125 32.148438 28.164062 32.5 28.59375 32.5 C 29.023438 32.5 29.375 32.148438 29.375 31.71875 C 29.375 31.289062 29.023438 30.9375 28.59375 30.9375 Z M 28.59375 30.9375 "/>
<path style=" stroke:none;fill-rule:nonzero;fill:rgb(0%,0%,0%);fill-opacity:1;" d="M 30.515625 28.410156 L 26.804688 27.171875 L 25.472656 24.507812 C 26.671875 23.285156 27.503906 21.667969 27.785156 19.980469 L 27.953125 18.984375 L 29.375 18.984375 C 30.667969 18.984375 31.71875 17.933594 31.71875 16.640625 L 31.71875 11.71875 C 31.71875 5.257812 26.460938 0 20 0 C 13.523438 0 8.28125 5.242188 8.28125 11.71875 L 8.28125 16.640625 C 8.28125 17.660156 8.933594 18.527344 9.84375 18.851562 L 9.84375 19.765625 C 9.84375 21.058594 10.894531 22.109375 12.1875 22.109375 L 12.875 22.109375 C 13.210938 22.84375 13.652344 23.527344 14.183594 24.136719 C 14.292969 24.265625 14.410156 24.390625 14.527344 24.507812 L 13.195312 27.171875 L 9.484375 28.410156 C 5.164062 29.851562 2.03125 34.394531 2.03125 39.21875 C 2.03125 39.648438 2.382812 40 2.8125 40 L 37.1875 40 C 37.617188 40 37.96875 39.648438 37.96875 39.21875 C 37.96875 34.394531 34.835938 29.851562 30.515625 28.410156 Z M 30.15625 16.640625 C 30.15625 17.070312 29.804688 17.421875 29.375 17.421875 L 28.183594 17.421875 C 28.382812 15.882812 28.511719 14.246094 28.566406 12.632812 C 28.566406 12.589844 28.570312 12.542969 28.570312 12.5 L 30.15625 12.5 Z M 10.625 17.421875 C 10.195312 17.421875 9.84375 17.070312 9.84375 16.640625 L 9.84375 12.5 L 11.429688 12.5 C 11.433594 12.582031 11.433594 12.664062 11.4375 12.746094 C 11.4375 12.75 11.4375 12.75 11.4375 12.753906 C 11.492188 14.324219 11.625 15.917969 11.816406 17.421875 Z M 12.1875 20.546875 C 11.757812 20.546875 11.40625 20.195312 11.40625 19.765625 L 11.40625 18.984375 L 12.046875 18.984375 L 12.214844 19.980469 C 12.246094 20.171875 12.285156 20.359375 12.328125 20.546875 Z M 11.40625 10.9375 L 9.875 10.9375 C 10.269531 5.703125 14.640625 1.5625 20 1.5625 C 25.335938 1.5625 29.726562 5.699219 30.125 10.9375 L 28.59375 10.9375 C 28.535156 6.621094 25.023438 3.125 20.699219 3.125 L 19.300781 3.125 C 14.976562 3.125 11.464844 6.621094 11.40625 10.9375 Z M 19.300781 4.6875 L 20.699219 4.6875 C 24.199219 4.6875 27.035156 7.550781 27.03125 11.046875 C 27.03125 11.292969 27.03125 11.507812 27.023438 11.703125 C 27.023438 11.703125 27.023438 11.707031 27.023438 11.710938 L 26.046875 11.570312 C 23.394531 11.191406 20.886719 9.9375 18.988281 8.042969 C 18.84375 7.894531 18.644531 7.8125 18.4375 7.8125 C 16.339844 7.8125 14.332031 8.769531 13.003906 10.382812 C 13.332031 7.203125 16.019531 4.6875 19.300781 4.6875 Z M 13.949219 20.546875 C 13.558594 19.246094 13.109375 15.417969 13.011719 12.964844 L 14.0625 11.5625 C 15.027344 10.273438 16.53125 9.476562 18.128906 9.382812 C 20.230469 11.386719 22.953125 12.707031 25.828125 13.117188 L 26.976562 13.28125 C 26.898438 14.914062 26.742188 16.550781 26.519531 18.054688 C 26.519531 18.058594 26.519531 18.058594 26.519531 18.058594 C 26.445312 18.542969 26.390625 18.855469 26.246094 19.722656 C 25.832031 22.207031 23.980469 24.449219 21.535156 25.0625 C 20.53125 25.3125 19.46875 25.3125 18.464844 25.0625 C 16.9375 24.679688 15.539062 23.625 14.636719 22.109375 L 16.226562 22.109375 C 16.550781 23.019531 17.417969 23.671875 18.4375 23.671875 L 20 23.671875 C 21.296875 23.671875 22.34375 22.625 22.34375 21.328125 C 22.34375 20.035156 21.292969 18.984375 20 18.984375 L 18.4375 18.984375 C 17.394531 18.984375 16.539062 19.65625 16.226562 20.546875 Z M 18.371094 26.640625 C 18.90625 26.753906 19.453125 26.8125 20 26.8125 C 20.425781 26.8125 20.855469 26.777344 21.277344 26.707031 L 19.898438 28.167969 Z M 18.824219 29.304688 L 16.34375 31.921875 C 15.664062 30.617188 15.078125 29.257812 14.597656 27.867188 L 15.527344 26.007812 Z M 24.339844 25.742188 L 25.402344 27.867188 C 24.921875 29.261719 24.335938 30.621094 23.65625 31.925781 L 21.003906 29.273438 Z M 17.65625 21.328125 C 17.65625 20.898438 18.007812 20.546875 18.4375 20.546875 L 20 20.546875 C 20.429688 20.546875 20.78125 20.898438 20.78125 21.328125 C 20.78125 21.757812 20.429688 22.109375 20 22.109375 L 18.4375 22.109375 C 18.007812 22.109375 17.65625 21.757812 17.65625 21.328125 Z M 3.625 38.4375 C 3.933594 34.566406 6.511719 31.050781 9.976562 29.894531 L 13.265625 28.796875 C 13.867188 30.464844 14.613281 32.082031 15.488281 33.621094 C 15.492188 33.625 15.492188 33.625 15.492188 33.628906 C 16.132812 34.753906 16.851562 35.851562 17.632812 36.894531 L 18.59375 38.4375 Z M 20 37.742188 L 18.941406 36.039062 C 18.929688 36.019531 18.914062 36.003906 18.902344 35.984375 C 18.269531 35.140625 17.679688 34.257812 17.140625 33.355469 L 19.929688 30.410156 L 22.863281 33.34375 C 22.324219 34.253906 21.730469 35.140625 21.097656 35.984375 C 21.058594 36.035156 21.113281 35.953125 20 37.742188 Z M 21.40625 38.4375 L 22.367188 36.894531 C 23.152344 35.847656 23.875 34.742188 24.523438 33.601562 C 24.523438 33.597656 24.527344 33.589844 24.53125 33.582031 C 24.535156 33.582031 24.535156 33.582031 24.535156 33.578125 C 25.398438 32.054688 26.136719 30.453125 26.734375 28.796875 L 30.023438 29.894531 C 33.488281 31.050781 36.066406 34.566406 36.375 38.4375 Z M 21.40625 38.4375 "/>
<path style=" stroke:none;fill-rule:nonzero;fill:rgb(0%,0%,0%);fill-opacity:1;" d="M 34.027344 35.277344 C 33.503906 34.230469 32.738281 33.300781 31.816406 32.589844 C 31.472656 32.328125 30.984375 32.390625 30.71875 32.734375 C 30.457031 33.074219 30.519531 33.566406 30.863281 33.828125 C 31.601562 34.398438 32.210938 35.140625 32.628906 35.972656 C 32.824219 36.359375 33.292969 36.515625 33.675781 36.324219 C 34.0625 36.132812 34.21875 35.660156 34.027344 35.277344 Z M 34.027344 35.277344 "/>
</g>
</svg>
