<?xml version="1.0" encoding="UTF-8"?>
<svg xmlns="http://www.w3.org/2000/svg" xmlns:xlink="http://www.w3.org/1999/xlink" width="70px" height="70px" viewBox="0 0 70 70" version="1.1">
<g id="surface1">
<path style=" stroke:none;fill-rule:nonzero;fill:rgb(0%,0%,0%);fill-opacity:1;" d="M 68.511719 45.351562 C 68.03125 43.925781 66.878906 42.890625 65.265625 42.4375 C 63.53125 41.949219 61.277344 42.105469 58.5625 42.902344 L 46.210938 46.523438 C 46.160156 46.417969 46.105469 46.316406 46.042969 46.210938 C 45.355469 45.015625 44.246094 44.164062 42.921875 43.808594 L 34.144531 41.457031 C 27.738281 36.96875 24.308594 38.257812 19.261719 40.726562 C 16.847656 41.90625 14.449219 43.046875 12.179688 44.121094 L 11.703125 42.976562 C 11.074219 41.460938 9.328125 40.742188 7.8125 41.371094 L 3.070312 43.339844 C 2.332031 43.648438 1.757812 44.21875 1.453125 44.953125 C 1.152344 45.6875 1.15625 46.5 1.460938 47.238281 L 9.488281 66.511719 C 9.964844 67.65625 11.078125 68.347656 12.246094 68.347656 C 12.625 68.347656 13.011719 68.273438 13.382812 68.121094 L 18.125 66.152344 C 18.863281 65.84375 19.4375 65.269531 19.738281 64.535156 C 20.042969 63.800781 20.039062 62.992188 19.730469 62.253906 L 19.195312 60.960938 L 22.285156 59.460938 C 23.414062 58.910156 24.546875 58.816406 25.75 59.164062 L 35.613281 62.027344 C 36.335938 62.238281 37.085938 62.328125 37.847656 62.328125 C 40.46875 62.328125 43.21875 61.257812 45.527344 60.359375 C 45.730469 60.28125 45.929688 60.203125 46.125 60.128906 L 64.632812 52.996094 C 67.628906 51.84375 69.476562 48.199219 68.511719 45.351562 Z M 17.96875 63.808594 C 17.863281 64.066406 17.65625 64.273438 17.390625 64.382812 L 12.648438 66.351562 C 12.105469 66.578125 11.480469 66.320312 11.257812 65.777344 L 3.230469 46.503906 C 3.117188 46.234375 3.117188 45.945312 3.222656 45.683594 C 3.332031 45.421875 3.539062 45.21875 3.804688 45.109375 L 8.542969 43.140625 C 8.679688 43.085938 8.816406 43.058594 8.953125 43.058594 C 9.371094 43.058594 9.769531 43.304688 9.9375 43.714844 L 17.964844 62.988281 C 18.074219 63.253906 18.078125 63.546875 17.96875 63.808594 Z M 63.941406 51.210938 L 45.4375 58.339844 C 45.242188 58.417969 45.039062 58.496094 44.832031 58.578125 C 42.121094 59.632812 38.746094 60.945312 36.144531 60.1875 L 26.285156 57.324219 C 24.628906 56.84375 23 56.984375 21.445312 57.738281 L 18.457031 59.191406 L 12.917969 45.890625 C 15.21875 44.800781 17.652344 43.644531 20.101562 42.445312 C 24.820312 40.140625 27.542969 39.121094 33.179688 43.117188 C 33.269531 43.183594 33.375 43.230469 33.484375 43.261719 L 42.425781 45.65625 C 43.257812 45.878906 43.953125 46.417969 44.386719 47.167969 C 44.820312 47.921875 44.9375 48.792969 44.714844 49.625 C 44.492188 50.453125 43.957031 51.152344 43.203125 51.585938 C 42.453125 52.019531 41.578125 52.136719 40.75 51.914062 L 28.867188 48.730469 C 28.355469 48.59375 27.832031 48.898438 27.695312 49.40625 C 27.558594 49.917969 27.859375 50.441406 28.371094 50.578125 L 40.253906 53.761719 C 41.578125 54.117188 42.964844 53.933594 44.160156 53.242188 C 45.355469 52.554688 46.207031 51.445312 46.5625 50.117188 C 46.71875 49.539062 46.769531 48.949219 46.722656 48.371094 L 59.101562 44.738281 C 63.191406 43.539062 66.035156 43.996094 66.699219 45.96875 C 67.332031 47.832031 65.96875 50.429688 63.941406 51.210938 Z M 51.273438 15.898438 C 55.199219 15.898438 58.394531 12.703125 58.394531 8.777344 C 58.394531 4.847656 55.199219 1.652344 51.273438 1.652344 C 47.34375 1.652344 44.148438 4.847656 44.148438 8.777344 C 44.148438 12.703125 47.34375 15.898438 51.273438 15.898438 Z M 51.273438 3.566406 C 54.144531 3.566406 56.480469 5.902344 56.480469 8.773438 C 56.480469 11.648438 54.144531 13.984375 51.273438 13.984375 C 48.398438 13.984375 46.0625 11.648438 46.0625 8.773438 C 46.0625 5.902344 48.398438 3.566406 51.273438 3.566406 Z M 28.449219 28.023438 L 32.640625 31.476562 L 31.28125 36.734375 C 31.183594 37.113281 31.328125 37.515625 31.644531 37.746094 C 31.8125 37.871094 32.007812 37.929688 32.207031 37.929688 C 32.386719 37.929688 32.566406 37.882812 32.722656 37.78125 L 37.300781 34.863281 L 41.882812 37.78125 C 42.214844 37.992188 42.640625 37.980469 42.957031 37.746094 C 43.097656 37.644531 43.203125 37.507812 43.269531 37.359375 C 45.570312 37.984375 48.34375 38.324219 51.234375 38.324219 C 51.867188 38.324219 52.507812 38.304688 53.152344 38.273438 C 57.503906 38.050781 61.21875 37.074219 63.335938 35.589844 C 65.183594 34.296875 65.570312 32.835938 65.570312 31.835938 C 65.570312 23.953125 59.15625 17.539062 51.273438 17.539062 C 46.46875 17.539062 41.992188 19.988281 39.363281 23.921875 L 38.191406 20.945312 C 38.046875 20.578125 37.695312 20.339844 37.300781 20.339844 C 36.910156 20.339844 36.554688 20.578125 36.410156 20.945312 L 34.421875 25.996094 L 29 26.328125 C 28.609375 26.351562 28.269531 26.613281 28.148438 26.988281 C 28.027344 27.363281 28.148438 27.773438 28.449219 28.023438 Z M 51.273438 19.453125 C 58.101562 19.453125 63.65625 25.007812 63.65625 31.835938 C 63.65625 32.628906 63.179688 33.363281 62.238281 34.019531 C 58.554688 36.597656 48.828125 37.191406 42.941406 35.261719 L 41.960938 31.476562 L 46.152344 28.023438 C 46.457031 27.773438 46.574219 27.363281 46.453125 26.988281 C 46.332031 26.613281 45.996094 26.351562 45.601562 26.328125 L 40.34375 26.007812 C 42.484375 22.007812 46.710938 19.453125 51.273438 19.453125 Z M 35.148438 27.871094 C 35.519531 27.847656 35.84375 27.613281 35.980469 27.265625 L 37.300781 23.90625 L 38.625 27.265625 C 38.761719 27.613281 39.085938 27.847656 39.457031 27.871094 L 43.058594 28.089844 L 40.273438 30.386719 C 39.988281 30.625 39.863281 31.003906 39.957031 31.363281 L 40.859375 34.859375 L 37.816406 32.921875 C 37.660156 32.820312 37.480469 32.769531 37.300781 32.769531 C 37.121094 32.769531 36.945312 32.820312 36.789062 32.921875 L 33.742188 34.859375 L 34.648438 31.363281 C 34.738281 31.003906 34.617188 30.625 34.328125 30.386719 L 31.542969 28.089844 Z M 35.148438 27.871094 "/>
</g>
</svg>
