<?xml version="1.0" encoding="UTF-8"?>
<svg xmlns="http://www.w3.org/2000/svg" xmlns:xlink="http://www.w3.org/1999/xlink" width="70px" height="70px" viewBox="0 0 70 70" version="1.1">
<g id="surface1">
<path style=" stroke:none;fill-rule:nonzero;fill:rgb(0%,0%,0%);fill-opacity:1;" d="M 67 10.476562 C 65.234375 10.476562 63.578125 11.164062 62.328125 12.414062 C 61.082031 13.660156 60.394531 15.320312 60.394531 17.085938 L 60.394531 22.945312 C 60.183594 22.882812 59.972656 22.828125 59.757812 22.789062 L 56.828125 22.261719 L 56.519531 20.542969 C 57.757812 19.484375 58.554688 17.988281 58.722656 16.316406 L 58.835938 15.164062 C 58.988281 13.671875 58.496094 12.179688 57.492188 11.070312 C 56.492188 9.964844 55.058594 9.328125 53.566406 9.328125 C 53.566406 9.328125 53.566406 9.328125 53.5625 9.328125 C 52.070312 9.332031 50.636719 9.964844 49.636719 11.074219 C 48.628906 12.183594 48.140625 13.675781 48.285156 15.164062 L 48.402344 16.320312 C 48.566406 17.992188 49.363281 19.492188 50.605469 20.546875 L 50.296875 22.261719 L 48.429688 22.597656 C 48.277344 19.53125 46.035156 16.957031 42.984375 16.40625 L 39.019531 15.6875 L 38.800781 13.875 C 39.253906 13.464844 39.660156 13.007812 40.007812 12.503906 C 40.582031 11.679688 40.988281 10.769531 41.21875 9.796875 C 41.347656 9.246094 41.007812 8.691406 40.457031 8.5625 C 39.90625 8.429688 39.351562 8.773438 39.222656 9.324219 C 39.050781 10.046875 38.75 10.722656 38.324219 11.335938 C 37.753906 12.164062 36.972656 12.835938 36.066406 13.28125 C 35.402344 13.609375 34.605469 13.609375 33.941406 13.28125 C 32.085938 12.363281 30.855469 10.589844 30.648438 8.527344 L 30.496094 7.03125 C 30.367188 5.757812 30.789062 4.484375 31.644531 3.539062 C 32.511719 2.578125 33.703125 2.050781 34.996094 2.050781 C 36.925781 2.050781 38.648438 3.28125 39.28125 5.109375 C 39.464844 5.644531 40.046875 5.929688 40.582031 5.742188 C 41.117188 5.558594 41.402344 4.976562 41.21875 4.4375 C 40.300781 1.785156 37.800781 0 34.996094 0 C 33.140625 0 31.367188 0.789062 30.125 2.160156 C 28.878906 3.539062 28.269531 5.386719 28.457031 7.238281 L 28.605469 8.734375 C 28.808594 10.75 29.742188 12.566406 31.199219 13.878906 L 30.980469 15.6875 L 27.011719 16.40625 C 23.964844 16.953125 21.722656 19.53125 21.570312 22.597656 L 19.703125 22.261719 L 19.394531 20.546875 C 20.636719 19.492188 21.433594 17.992188 21.597656 16.320312 L 21.710938 15.164062 C 21.859375 13.675781 21.371094 12.183594 20.363281 11.074219 C 19.363281 9.964844 17.929688 9.328125 16.4375 9.328125 C 16.433594 9.328125 16.433594 9.328125 16.433594 9.328125 C 14.941406 9.328125 13.507812 9.964844 12.507812 11.070312 C 11.503906 12.179688 11.011719 13.671875 11.164062 15.164062 L 11.277344 16.316406 C 11.445312 17.988281 12.242188 19.484375 13.480469 20.539062 L 13.171875 22.261719 L 10.242188 22.789062 C 10.027344 22.828125 9.816406 22.882812 9.605469 22.945312 L 9.605469 17.085938 C 9.605469 15.320312 8.917969 13.660156 7.671875 12.414062 C 6.421875 11.164062 4.765625 10.476562 3 10.476562 C 1.347656 10.476562 0 11.824219 0 13.480469 L 0 19.867188 C 0 20.433594 0.460938 20.894531 1.023438 20.894531 C 1.589844 20.894531 2.050781 20.433594 2.050781 19.867188 L 2.050781 13.480469 C 2.050781 12.957031 2.476562 12.527344 3 12.527344 C 4.21875 12.527344 5.359375 13.003906 6.222656 13.863281 C 7.082031 14.722656 7.554688 15.867188 7.554688 17.085938 L 7.554688 36.207031 C 7.492188 37.488281 7.925781 38.796875 8.871094 39.820312 L 20.003906 51.9375 C 20.386719 52.355469 21.035156 52.382812 21.453125 52 C 21.871094 51.617188 21.898438 50.96875 21.515625 50.550781 L 10.378906 38.433594 C 9.828125 37.835938 9.582031 37.085938 9.605469 36.328125 C 9.636719 35.613281 9.925781 34.910156 10.476562 34.367188 C 11.617188 33.242188 13.464844 33.246094 14.597656 34.371094 L 30.457031 50.097656 C 32.691406 52.3125 33.976562 55.390625 33.976562 58.535156 C 33.976562 60.304688 33.570312 62.082031 32.804688 63.679688 C 32.011719 65.332031 31.578125 67.105469 31.511719 68.9375 C 31.492188 69.503906 31.933594 69.980469 32.5 70 C 32.511719 70 32.527344 70 32.539062 70 C 33.085938 70 33.542969 69.5625 33.5625 69.011719 C 33.617188 67.460938 33.984375 65.964844 34.65625 64.566406 C 34.777344 64.308594 34.894531 64.046875 35 63.78125 C 35.109375 64.046875 35.222656 64.308594 35.347656 64.566406 C 36.015625 65.960938 36.382812 67.457031 36.4375 69.011719 C 36.457031 69.5625 36.914062 70 37.464844 70 C 37.476562 70 37.488281 70 37.5 70 C 38.066406 69.980469 38.507812 69.503906 38.488281 68.9375 C 38.421875 67.101562 37.988281 65.332031 37.195312 63.675781 C 36.8125 62.878906 36.519531 62.035156 36.320312 61.171875 C 36.125 60.3125 36.027344 59.425781 36.027344 58.539062 C 36.027344 56.960938 36.332031 55.421875 36.941406 53.964844 C 37.546875 52.507812 38.421875 51.207031 39.542969 50.09375 L 40.101562 49.542969 C 40.503906 49.144531 40.503906 48.496094 40.105469 48.09375 C 39.707031 47.691406 39.058594 47.6875 38.65625 48.085938 L 38.101562 48.640625 C 37.300781 49.433594 36.605469 50.3125 36.027344 51.261719 L 36.027344 40.699219 C 36.027344 40.132812 35.566406 39.675781 35 39.675781 C 34.433594 39.675781 33.976562 40.132812 33.976562 40.699219 L 33.976562 51.273438 C 33.394531 50.320312 32.699219 49.433594 31.902344 48.640625 L 25.476562 42.269531 C 25.726562 42.136719 25.957031 41.96875 26.160156 41.761719 C 26.71875 41.210938 27.023438 40.476562 27.023438 39.691406 L 27.023438 28.046875 C 27.023438 25.808594 25.636719 23.851562 23.613281 23.066406 C 23.546875 20.804688 25.148438 18.820312 27.378906 18.421875 L 31.328125 17.710938 C 32.109375 18.964844 33.472656 19.738281 35 19.738281 C 36.527344 19.738281 37.890625 18.964844 38.671875 17.710938 L 42.621094 18.421875 C 44.851562 18.820312 46.453125 20.804688 46.386719 23.066406 C 44.363281 23.851562 42.976562 25.808594 42.976562 28.046875 L 42.976562 39.691406 C 42.976562 40.476562 43.28125 41.210938 43.839844 41.761719 C 44.042969 41.96875 44.277344 42.136719 44.523438 42.269531 L 42.054688 44.71875 C 41.652344 45.117188 41.648438 45.765625 42.046875 46.167969 C 42.449219 46.570312 43.097656 46.574219 43.5 46.175781 L 55.402344 34.371094 C 56.535156 33.246094 58.386719 33.242188 59.523438 34.367188 C 60.082031 34.921875 60.390625 35.660156 60.394531 36.453125 C 60.394531 37.1875 60.117188 37.890625 59.621094 38.433594 L 48.484375 50.550781 C 48.101562 50.964844 48.128906 51.617188 48.546875 52 C 48.742188 52.179688 48.992188 52.269531 49.242188 52.269531 C 49.519531 52.269531 49.792969 52.15625 49.996094 51.9375 L 61.132812 39.820312 C 61.976562 38.898438 62.445312 37.703125 62.445312 36.449219 L 62.445312 17.085938 C 62.445312 15.867188 62.917969 14.722656 63.777344 13.863281 C 64.640625 13.003906 65.78125 12.527344 67 12.527344 C 67.523438 12.527344 67.949219 12.953125 67.949219 13.480469 L 67.949219 39.738281 C 67.949219 40.59375 67.703125 41.417969 67.230469 42.128906 L 65.699219 44.453125 C 65.386719 44.925781 65.515625 45.5625 65.988281 45.871094 C 66.164062 45.988281 66.359375 46.042969 66.554688 46.042969 C 66.886719 46.042969 67.214844 45.878906 67.410156 45.582031 L 68.941406 43.261719 C 69.632812 42.210938 70 40.996094 70 39.738281 L 70 13.480469 C 70 11.824219 68.652344 10.476562 67 10.476562 Z M 15.367188 21.636719 C 15.714844 21.742188 16.078125 21.796875 16.441406 21.796875 C 16.800781 21.796875 17.160156 21.746094 17.507812 21.640625 L 17.753906 23.011719 C 17.371094 23.714844 16.664062 23.773438 16.4375 23.773438 C 16.210938 23.773438 15.503906 23.714844 15.117188 23.011719 Z M 13.203125 14.957031 C 13.109375 14.03125 13.402344 13.136719 14.027344 12.449219 C 14.652344 11.757812 15.503906 11.378906 16.433594 11.378906 C 17.363281 11.378906 18.21875 11.761719 18.84375 12.449219 C 19.46875 13.144531 19.765625 14.035156 19.671875 14.964844 L 19.558594 16.117188 C 19.40625 17.621094 18.511719 18.917969 17.15625 19.582031 C 16.707031 19.804688 16.171875 19.804688 15.726562 19.582031 C 14.371094 18.914062 13.46875 17.617188 13.316406 16.109375 Z M 24.972656 28.046875 L 24.972656 39.691406 C 24.972656 39.925781 24.882812 40.144531 24.71875 40.308594 C 24.550781 40.46875 24.328125 40.558594 24.101562 40.558594 C 23.625 40.554688 23.242188 40.164062 23.242188 39.691406 L 23.242188 30.371094 C 23.242188 29.804688 22.78125 29.347656 22.214844 29.347656 C 21.648438 29.347656 21.191406 29.804688 21.191406 30.371094 L 21.191406 38.019531 L 16.042969 32.914062 C 14.292969 31.179688 11.546875 31.015625 9.605469 32.425781 L 9.605469 25.164062 C 9.917969 24.992188 10.253906 24.871094 10.605469 24.808594 L 13.496094 24.289062 C 14.152344 25.242188 15.234375 25.824219 16.4375 25.824219 C 17.640625 25.824219 18.722656 25.242188 19.375 24.289062 L 22.265625 24.808594 C 23.835938 25.089844 24.972656 26.453125 24.972656 28.046875 Z M 35 17.6875 C 34.285156 17.6875 33.402344 17.347656 32.957031 16.417969 L 33.109375 15.152344 C 33.707031 15.433594 34.355469 15.574219 35.007812 15.574219 C 35.652344 15.574219 36.296875 15.433594 36.890625 15.160156 L 37.042969 16.417969 C 36.597656 17.347656 35.714844 17.6875 35 17.6875 Z M 52.492188 21.640625 C 52.835938 21.746094 53.199219 21.796875 53.558594 21.796875 C 53.921875 21.796875 54.285156 21.742188 54.632812 21.636719 L 54.882812 23.011719 C 54.496094 23.714844 53.789062 23.773438 53.5625 23.773438 C 53.335938 23.773438 52.628906 23.714844 52.242188 23.011719 Z M 50.328125 14.964844 C 50.234375 14.035156 50.53125 13.144531 51.15625 12.449219 C 51.78125 11.761719 52.636719 11.378906 53.566406 11.378906 C 54.496094 11.378906 55.347656 11.757812 55.972656 12.449219 C 56.597656 13.136719 56.890625 14.03125 56.796875 14.957031 L 56.679688 16.109375 C 56.53125 17.617188 55.628906 18.914062 54.273438 19.582031 C 53.828125 19.804688 53.292969 19.804688 52.84375 19.582031 C 51.488281 18.917969 50.59375 17.621094 50.441406 16.117188 Z M 53.957031 32.914062 L 48.808594 38.019531 L 48.808594 30.371094 C 48.808594 29.804688 48.351562 29.347656 47.785156 29.347656 C 47.21875 29.347656 46.757812 29.804688 46.757812 30.371094 L 46.757812 39.691406 C 46.757812 40.164062 46.375 40.554688 45.898438 40.558594 C 45.667969 40.558594 45.449219 40.46875 45.28125 40.308594 C 45.117188 40.144531 45.027344 39.925781 45.027344 39.691406 L 45.027344 28.046875 C 45.027344 26.453125 46.164062 25.089844 47.734375 24.808594 L 50.625 24.289062 C 51.277344 25.242188 52.359375 25.824219 53.5625 25.824219 C 54.765625 25.824219 55.847656 25.242188 56.503906 24.289062 L 59.390625 24.808594 C 59.746094 24.871094 60.082031 24.992188 60.394531 25.164062 L 60.394531 32.421875 C 58.453125 31.015625 55.707031 31.179688 53.957031 32.914062 Z M 53.957031 32.914062 "/>
<path style=" stroke:none;fill-rule:nonzero;fill:rgb(0%,0%,0%);fill-opacity:1;" d="M 64.484375 48.152344 C 64.011719 47.84375 63.375 47.972656 63.0625 48.445312 L 53.921875 62.289062 C 52.625 64.253906 51.820312 66.53125 51.597656 68.878906 C 51.542969 69.441406 51.957031 69.941406 52.523438 69.996094 C 52.554688 70 52.585938 70 52.621094 70 C 53.144531 70 53.589844 69.601562 53.640625 69.070312 C 53.832031 67.058594 54.523438 65.105469 55.636719 63.417969 L 64.773438 49.574219 C 65.085938 49.101562 64.957031 48.464844 64.484375 48.152344 Z M 64.484375 48.152344 "/>
<path style=" stroke:none;fill-rule:nonzero;fill:rgb(0%,0%,0%);fill-opacity:1;" d="M 16.078125 62.289062 L 2.769531 42.132812 C 2.300781 41.417969 2.050781 40.59375 2.050781 39.738281 L 2.050781 24.652344 C 2.050781 24.085938 1.589844 23.628906 1.023438 23.628906 C 0.460938 23.628906 0 24.085938 0 24.652344 L 0 39.738281 C 0 40.996094 0.367188 42.214844 1.058594 43.261719 L 14.363281 63.417969 C 15.476562 65.105469 16.167969 67.058594 16.359375 69.070312 C 16.410156 69.601562 16.855469 70 17.378906 70 C 17.414062 70 17.445312 70 17.476562 69.996094 C 18.042969 69.941406 18.457031 69.441406 18.402344 68.878906 C 18.179688 66.53125 17.375 64.253906 16.078125 62.289062 Z M 16.078125 62.289062 "/>
<path style=" stroke:none;fill-rule:nonzero;fill:rgb(0%,0%,0%);fill-opacity:1;" d="M 35 21.566406 C 33.539062 20.414062 31.414062 20.511719 30.066406 21.859375 C 28.617188 23.308594 28.617188 25.671875 30.066406 27.121094 L 34.273438 31.328125 C 34.476562 31.53125 34.738281 31.628906 35 31.628906 C 35.261719 31.628906 35.523438 31.53125 35.726562 31.328125 L 39.933594 27.121094 C 41.382812 25.671875 41.382812 23.308594 39.933594 21.859375 C 38.585938 20.511719 36.460938 20.414062 35 21.566406 Z M 38.484375 23.308594 C 39.132812 23.960938 39.132812 25.019531 38.484375 25.671875 L 35 29.15625 L 31.515625 25.671875 C 30.867188 25.019531 30.867188 23.960938 31.515625 23.308594 C 31.84375 22.984375 32.269531 22.820312 32.699219 22.820312 C 33.125 22.820312 33.554688 22.984375 33.878906 23.308594 L 34.273438 23.707031 C 34.675781 24.105469 35.324219 24.105469 35.726562 23.707031 L 36.121094 23.308594 C 36.773438 22.65625 37.832031 22.65625 38.484375 23.308594 Z M 38.484375 23.308594 "/>
</g>
</svg>
