<?xml version="1.0" encoding="UTF-8"?>
<svg xmlns="http://www.w3.org/2000/svg" xmlns:xlink="http://www.w3.org/1999/xlink" width="70px" height="70px" viewBox="0 0 70 70" version="1.1">
<g id="surface1">
<path style=" stroke:none;fill-rule:nonzero;fill:rgb(0%,0%,0%);fill-opacity:1;" d="M 57.613281 7.457031 C 54.992188 7.457031 52.859375 9.589844 52.859375 12.210938 C 52.859375 14.832031 54.992188 16.964844 57.613281 16.964844 C 60.238281 16.964844 62.371094 14.832031 62.371094 12.210938 C 62.371094 9.589844 60.238281 7.457031 57.613281 7.457031 Z M 57.613281 14.914062 C 56.125 14.914062 54.910156 13.703125 54.910156 12.210938 C 54.910156 10.722656 56.125 9.507812 57.613281 9.507812 C 59.105469 9.507812 60.320312 10.722656 60.320312 12.210938 C 60.320312 13.703125 59.105469 14.914062 57.613281 14.914062 Z M 57.613281 14.914062 "/>
<path style=" stroke:none;fill-rule:nonzero;fill:rgb(0%,0%,0%);fill-opacity:1;" d="M 68.085938 8.859375 L 66.785156 8.652344 C 66.734375 8.515625 66.675781 8.378906 66.617188 8.246094 L 67.390625 7.179688 C 67.992188 6.355469 67.902344 5.230469 67.179688 4.507812 L 65.320312 2.644531 C 64.597656 1.921875 63.472656 1.835938 62.648438 2.4375 L 61.582031 3.210938 C 61.449219 3.152344 61.3125 3.09375 61.175781 3.039062 L 60.96875 1.742188 C 60.808594 0.730469 59.953125 0 58.933594 0 L 56.296875 0 C 55.277344 0 54.417969 0.730469 54.261719 1.742188 L 54.054688 3.039062 C 53.917969 3.09375 53.78125 3.152344 53.648438 3.210938 L 52.582031 2.4375 C 51.757812 1.835938 50.632812 1.921875 49.910156 2.644531 L 48.050781 4.507812 C 47.328125 5.230469 47.238281 6.355469 47.839844 7.179688 L 48.613281 8.246094 C 48.554688 8.378906 48.496094 8.515625 48.445312 8.652344 L 47.144531 8.855469 C 46.136719 9.015625 45.402344 9.875 45.402344 10.894531 L 45.402344 13.527344 C 45.402344 14.550781 46.136719 15.40625 47.144531 15.566406 L 48.445312 15.773438 C 48.496094 15.90625 48.554688 16.042969 48.613281 16.179688 L 47.839844 17.242188 C 47.238281 18.070312 47.328125 19.195312 48.050781 19.917969 L 49.910156 21.777344 C 50.632812 22.5 51.757812 22.589844 52.582031 21.988281 L 53.648438 21.214844 C 53.78125 21.273438 53.917969 21.332031 54.054688 21.382812 L 54.261719 22.683594 C 54.417969 23.691406 55.277344 24.425781 56.296875 24.425781 L 58.933594 24.425781 C 59.953125 24.425781 60.808594 23.691406 60.96875 22.683594 L 61.175781 21.382812 C 61.3125 21.332031 61.449219 21.273438 61.582031 21.214844 L 62.648438 21.988281 C 63.472656 22.589844 64.597656 22.5 65.320312 21.777344 L 67.179688 19.917969 C 67.902344 19.195312 67.992188 18.070312 67.390625 17.242188 L 66.617188 16.179688 C 66.675781 16.042969 66.734375 15.90625 66.785156 15.773438 L 68.085938 15.566406 C 69.09375 15.40625 69.828125 14.550781 69.828125 13.527344 L 69.828125 10.894531 C 69.828125 9.875 69.09375 9.015625 68.085938 8.859375 Z M 67.777344 13.527344 C 67.777344 13.535156 67.773438 13.539062 67.765625 13.542969 L 66.355469 13.765625 C 65.699219 13.867188 65.144531 14.316406 64.910156 14.933594 C 64.847656 15.101562 64.777344 15.269531 64.703125 15.4375 C 64.425781 16.039062 64.496094 16.753906 64.890625 17.292969 L 65.734375 18.449219 C 65.734375 18.457031 65.734375 18.460938 65.730469 18.464844 L 63.871094 20.328125 C 63.863281 20.332031 63.859375 20.332031 63.851562 20.328125 L 62.695312 19.488281 C 62.15625 19.09375 61.445312 19.023438 60.839844 19.300781 C 60.675781 19.375 60.503906 19.445312 60.339844 19.507812 C 59.71875 19.742188 59.269531 20.292969 59.167969 20.953125 L 58.945312 22.363281 C 58.941406 22.367188 58.9375 22.375 58.933594 22.375 L 56.296875 22.375 C 56.292969 22.375 56.289062 22.367188 56.285156 22.363281 L 56.0625 20.953125 C 55.960938 20.292969 55.511719 19.742188 54.890625 19.507812 C 54.722656 19.445312 54.554688 19.375 54.390625 19.300781 C 54.148438 19.1875 53.886719 19.132812 53.625 19.132812 C 53.242188 19.132812 52.855469 19.253906 52.535156 19.488281 L 51.378906 20.328125 C 51.371094 20.332031 51.367188 20.332031 51.359375 20.328125 L 49.5 18.464844 C 49.496094 18.460938 49.496094 18.453125 49.496094 18.449219 L 50.339844 17.292969 C 50.734375 16.753906 50.804688 16.039062 50.527344 15.4375 C 50.453125 15.269531 50.382812 15.101562 50.320312 14.933594 C 50.085938 14.316406 49.53125 13.867188 48.875 13.761719 L 47.464844 13.542969 C 47.457031 13.539062 47.453125 13.535156 47.453125 13.527344 L 47.453125 10.894531 C 47.453125 10.890625 47.457031 10.882812 47.464844 10.882812 L 48.875 10.660156 C 49.53125 10.554688 50.085938 10.105469 50.320312 9.488281 C 50.382812 9.320312 50.453125 9.152344 50.527344 8.988281 C 50.804688 8.382812 50.734375 7.671875 50.339844 7.128906 L 49.496094 5.972656 C 49.496094 5.96875 49.496094 5.960938 49.5 5.957031 L 51.359375 4.097656 C 51.367188 4.089844 51.371094 4.089844 51.378906 4.09375 L 52.535156 4.9375 C 53.074219 5.328125 53.789062 5.402344 54.390625 5.125 C 54.554688 5.050781 54.726562 4.980469 54.890625 4.914062 C 55.511719 4.683594 55.960938 4.128906 56.0625 3.472656 L 56.285156 2.0625 C 56.289062 2.054688 56.292969 2.050781 56.296875 2.050781 L 58.933594 2.050781 C 58.9375 2.050781 58.945312 2.054688 58.945312 2.0625 L 59.167969 3.472656 C 59.269531 4.128906 59.71875 4.683594 60.339844 4.914062 C 60.507812 4.980469 60.675781 5.050781 60.839844 5.125 C 61.441406 5.402344 62.15625 5.328125 62.695312 4.933594 L 63.851562 4.09375 C 63.859375 4.089844 63.863281 4.089844 63.871094 4.097656 L 65.730469 5.957031 C 65.734375 5.960938 65.734375 5.96875 65.734375 5.972656 L 64.890625 7.128906 C 64.496094 7.671875 64.425781 8.382812 64.703125 8.988281 C 64.777344 9.152344 64.847656 9.324219 64.910156 9.488281 C 65.144531 10.105469 65.699219 10.554688 66.355469 10.660156 L 67.765625 10.882812 C 67.773438 10.882812 67.777344 10.890625 67.777344 10.894531 Z M 67.777344 13.527344 "/>
<path style=" stroke:none;fill-rule:nonzero;fill:rgb(0%,0%,0%);fill-opacity:1;" d="M 6.464844 24.425781 L 9.644531 24.425781 C 10.210938 24.425781 10.671875 23.964844 10.671875 23.398438 C 10.671875 22.832031 10.210938 22.375 9.644531 22.375 L 6.464844 22.375 C 5.765625 22.375 5.195312 21.804688 5.195312 21.105469 L 5.195312 18.480469 C 5.195312 14.710938 8.265625 11.640625 12.039062 11.640625 C 15.8125 11.640625 18.882812 14.710938 18.882812 18.480469 L 18.882812 21.105469 C 18.882812 21.804688 18.3125 22.375 17.613281 22.375 L 14.429688 22.375 C 13.863281 22.375 13.40625 22.832031 13.40625 23.398438 C 13.40625 23.964844 13.863281 24.425781 14.429688 24.425781 L 17.613281 24.425781 C 19.445312 24.425781 20.933594 22.933594 20.933594 21.105469 L 20.933594 18.480469 C 20.933594 14.871094 18.769531 11.757812 15.667969 10.363281 C 17.003906 9.296875 17.859375 7.65625 17.859375 5.820312 C 17.859375 2.609375 15.25 0 12.039062 0 C 8.832031 0 6.21875 2.609375 6.21875 5.820312 C 6.21875 7.65625 7.074219 9.296875 8.410156 10.363281 C 5.308594 11.757812 3.144531 14.871094 3.144531 18.480469 L 3.144531 21.105469 C 3.144531 22.933594 4.636719 24.425781 6.464844 24.425781 Z M 12.039062 2.050781 C 14.117188 2.050781 15.808594 3.742188 15.808594 5.820312 C 15.808594 7.898438 14.117188 9.589844 12.039062 9.589844 C 9.960938 9.589844 8.269531 7.898438 8.269531 5.820312 C 8.269531 3.742188 9.960938 2.050781 12.039062 2.050781 Z M 12.039062 2.050781 "/>
<path style=" stroke:none;fill-rule:nonzero;fill:rgb(0%,0%,0%);fill-opacity:1;" d="M 34.828125 22.789062 C 28.09375 22.789062 22.613281 28.265625 22.613281 35 C 22.613281 41.734375 28.09375 47.210938 34.828125 47.210938 C 41.5625 47.210938 47.039062 41.734375 47.039062 35 C 47.039062 28.265625 41.5625 22.789062 34.828125 22.789062 Z M 34.828125 45.160156 C 29.222656 45.160156 24.664062 40.601562 24.664062 35 C 24.664062 29.398438 29.222656 24.839844 34.828125 24.839844 C 40.429688 24.839844 44.988281 29.398438 44.988281 35 C 44.988281 40.601562 40.429688 45.160156 34.828125 45.160156 Z M 34.828125 45.160156 "/>
<path style=" stroke:none;fill-rule:nonzero;fill:rgb(0%,0%,0%);fill-opacity:1;" d="M 36.738281 30.628906 L 33.753906 33.613281 L 32.914062 32.777344 C 31.65625 31.515625 29.601562 31.515625 28.339844 32.777344 C 27.730469 33.386719 27.394531 34.199219 27.394531 35.0625 C 27.394531 35.929688 27.730469 36.742188 28.339844 37.351562 L 31.464844 40.476562 C 32.078125 41.085938 32.890625 41.425781 33.753906 41.425781 C 34.617188 41.425781 35.429688 41.085938 36.039062 40.476562 L 41.3125 35.203125 C 42.574219 33.941406 42.574219 31.890625 41.3125 30.628906 C 40.050781 29.367188 38 29.367188 36.738281 30.628906 Z M 39.863281 33.753906 L 34.589844 39.027344 C 34.367188 39.25 34.070312 39.375 33.753906 39.375 C 33.4375 39.375 33.140625 39.25 32.914062 39.027344 L 29.789062 35.902344 C 29.566406 35.679688 29.445312 35.378906 29.445312 35.0625 C 29.445312 34.746094 29.566406 34.449219 29.789062 34.226562 C 30.023438 33.996094 30.324219 33.878906 30.628906 33.878906 C 30.929688 33.878906 31.234375 33.996094 31.464844 34.226562 L 33.027344 35.789062 C 33.429688 36.1875 34.078125 36.191406 34.476562 35.789062 L 38.1875 32.078125 C 38.652344 31.617188 39.402344 31.617188 39.863281 32.078125 C 40.324219 32.539062 40.324219 33.292969 39.863281 33.753906 Z M 39.863281 33.753906 "/>
<path style=" stroke:none;fill-rule:nonzero;fill:rgb(0%,0%,0%);fill-opacity:1;" d="M 7.621094 52.046875 L 16.457031 52.046875 C 17.023438 52.046875 17.484375 51.585938 17.484375 51.019531 C 17.484375 50.453125 17.023438 49.996094 16.457031 49.996094 L 7.621094 49.996094 C 7.054688 49.996094 6.59375 50.453125 6.59375 51.019531 C 6.59375 51.585938 7.054688 52.046875 7.621094 52.046875 Z M 7.621094 52.046875 "/>
<path style=" stroke:none;fill-rule:nonzero;fill:rgb(0%,0%,0%);fill-opacity:1;" d="M 7.621094 56.558594 L 16.457031 56.558594 C 17.023438 56.558594 17.484375 56.097656 17.484375 55.53125 C 17.484375 54.964844 17.023438 54.507812 16.457031 54.507812 L 7.621094 54.507812 C 7.054688 54.507812 6.59375 54.964844 6.59375 55.53125 C 6.59375 56.097656 7.054688 56.558594 7.621094 56.558594 Z M 7.621094 56.558594 "/>
<path style=" stroke:none;fill-rule:nonzero;fill:rgb(0%,0%,0%);fill-opacity:1;" d="M 7.621094 61.070312 L 16.457031 61.070312 C 17.023438 61.070312 17.484375 60.609375 17.484375 60.042969 C 17.484375 59.476562 17.023438 59.019531 16.457031 59.019531 L 7.621094 59.019531 C 7.054688 59.019531 6.59375 59.476562 6.59375 60.042969 C 6.59375 60.609375 7.054688 61.070312 7.621094 61.070312 Z M 7.621094 61.070312 "/>
<path style=" stroke:none;fill-rule:nonzero;fill:rgb(0%,0%,0%);fill-opacity:1;" d="M 28.613281 13.238281 L 38.566406 13.238281 L 37.003906 14.800781 C 36.601562 15.203125 36.601562 15.851562 37.003906 16.25 C 37.203125 16.453125 37.464844 16.550781 37.726562 16.550781 C 37.988281 16.550781 38.253906 16.453125 38.453125 16.25 L 41.765625 12.9375 C 42.167969 12.535156 42.167969 11.886719 41.765625 11.488281 L 38.453125 8.171875 C 38.050781 7.773438 37.402344 7.773438 37.003906 8.171875 C 36.601562 8.574219 36.601562 9.222656 37.003906 9.621094 L 38.566406 11.1875 L 28.613281 11.1875 C 28.046875 11.1875 27.585938 11.644531 27.585938 12.210938 C 27.585938 12.777344 28.046875 13.238281 28.613281 13.238281 Z M 28.613281 13.238281 "/>
<path style=" stroke:none;fill-rule:nonzero;fill:rgb(0%,0%,0%);fill-opacity:1;" d="M 57.613281 27.761719 C 57.046875 27.761719 56.589844 28.21875 56.589844 28.785156 L 56.589844 38.738281 L 55.027344 37.175781 C 54.625 36.773438 53.976562 36.773438 53.574219 37.175781 C 53.175781 37.574219 53.175781 38.226562 53.574219 38.625 L 56.890625 41.941406 C 57.089844 42.140625 57.351562 42.238281 57.617188 42.238281 C 57.878906 42.238281 58.140625 42.140625 58.339844 41.941406 L 61.65625 38.625 C 62.054688 38.226562 62.054688 37.574219 61.65625 37.175781 C 61.253906 36.773438 60.605469 36.773438 60.203125 37.175781 L 58.640625 38.738281 L 58.640625 28.785156 C 58.640625 28.21875 58.179688 27.761719 57.613281 27.761719 Z M 57.613281 27.761719 "/>
<path style=" stroke:none;fill-rule:nonzero;fill:rgb(0%,0%,0%);fill-opacity:1;" d="M 41.042969 56.761719 L 31.089844 56.761719 L 32.652344 55.199219 C 33.050781 54.796875 33.050781 54.148438 32.652344 53.75 C 32.25 53.347656 31.601562 53.347656 31.203125 53.75 L 27.886719 57.0625 C 27.488281 57.464844 27.488281 58.113281 27.886719 58.511719 L 31.203125 61.828125 C 31.402344 62.027344 31.664062 62.128906 31.925781 62.128906 C 32.191406 62.128906 32.453125 62.027344 32.652344 61.828125 C 33.050781 61.425781 33.050781 60.777344 32.652344 60.378906 L 31.089844 58.8125 L 41.042969 58.8125 C 41.609375 58.8125 42.066406 58.355469 42.066406 57.789062 C 42.066406 57.222656 41.609375 56.761719 41.042969 56.761719 Z M 41.042969 56.761719 "/>
<path style=" stroke:none;fill-rule:nonzero;fill:rgb(0%,0%,0%);fill-opacity:1;" d="M 22.882812 67.949219 L 21.902344 67.949219 L 21.902344 48.8125 C 21.902344 47.027344 20.453125 45.574219 18.667969 45.574219 L 5.410156 45.574219 C 3.625 45.574219 2.175781 47.027344 2.175781 48.8125 L 2.175781 53.648438 C 2.175781 54.214844 2.632812 54.675781 3.199219 54.675781 C 3.765625 54.675781 4.226562 54.214844 4.226562 53.648438 L 4.226562 48.8125 C 4.226562 48.15625 4.757812 47.625 5.410156 47.625 L 18.667969 47.625 C 19.320312 47.625 19.851562 48.15625 19.851562 48.8125 L 19.851562 67.949219 L 12.71875 67.949219 L 12.71875 64.554688 C 12.71875 63.988281 12.261719 63.53125 11.695312 63.53125 C 11.128906 63.53125 10.667969 63.988281 10.667969 64.554688 L 10.667969 67.949219 L 4.226562 67.949219 L 4.226562 58.433594 C 4.226562 57.867188 3.765625 57.410156 3.199219 57.410156 C 2.632812 57.410156 2.175781 57.867188 2.175781 58.433594 L 2.175781 67.949219 L 1.199219 67.949219 C 0.632812 67.949219 0.171875 68.40625 0.171875 68.976562 C 0.171875 69.542969 0.632812 70 1.199219 70 L 22.882812 70 C 23.449219 70 23.90625 69.542969 23.90625 68.976562 C 23.90625 68.40625 23.449219 67.949219 22.882812 67.949219 Z M 22.882812 67.949219 "/>
<path style=" stroke:none;fill-rule:nonzero;fill:rgb(0%,0%,0%);fill-opacity:1;" d="M 65.074219 49.996094 L 63.332031 49.996094 C 63.320312 49.296875 63.042969 48.644531 62.550781 48.152344 L 60.757812 46.359375 C 60.257812 45.863281 59.570312 45.574219 58.863281 45.574219 L 50.433594 45.574219 C 48.953125 45.574219 47.75 46.777344 47.75 48.257812 L 47.75 52.648438 C 47.75 53.214844 48.210938 53.675781 48.777344 53.675781 C 49.34375 53.675781 49.800781 53.214844 49.800781 52.648438 L 49.800781 48.257812 C 49.800781 47.910156 50.085938 47.625 50.433594 47.625 L 58.863281 47.625 C 59.027344 47.625 59.191406 47.691406 59.308594 47.8125 L 61.101562 49.605469 C 61.21875 49.722656 61.285156 49.878906 61.285156 50.050781 L 61.285156 62.898438 C 61.285156 63.246094 61 63.527344 60.652344 63.527344 L 50.433594 63.527344 C 50.085938 63.527344 49.800781 63.246094 49.800781 62.898438 L 49.800781 57.433594 C 49.800781 56.867188 49.34375 56.410156 48.777344 56.410156 C 48.210938 56.410156 47.75 56.867188 47.75 57.433594 L 47.75 62.898438 C 47.75 64.375 48.953125 65.578125 50.433594 65.578125 L 52.171875 65.578125 L 52.171875 67.316406 C 52.171875 68.796875 53.375 70 54.851562 70 L 65.074219 70 C 66.550781 70 67.753906 68.796875 67.753906 67.316406 L 67.753906 52.679688 C 67.753906 51.199219 66.550781 49.996094 65.074219 49.996094 Z M 65.703125 67.316406 C 65.703125 67.664062 65.421875 67.949219 65.074219 67.949219 L 54.851562 67.949219 C 54.503906 67.949219 54.222656 67.664062 54.222656 67.316406 L 54.222656 65.578125 L 60.652344 65.578125 C 62.132812 65.578125 63.335938 64.375 63.335938 62.898438 L 63.335938 52.046875 L 65.074219 52.046875 C 65.421875 52.046875 65.703125 52.328125 65.703125 52.679688 Z M 65.703125 67.316406 "/>
<path style=" stroke:none;fill-rule:nonzero;fill:rgb(0%,0%,0%);fill-opacity:1;" d="M 53.195312 52.046875 L 57.890625 52.046875 C 58.457031 52.046875 58.917969 51.585938 58.917969 51.019531 C 58.917969 50.453125 58.457031 49.996094 57.890625 49.996094 L 53.195312 49.996094 C 52.628906 49.996094 52.171875 50.453125 52.171875 51.019531 C 52.171875 51.585938 52.628906 52.046875 53.195312 52.046875 Z M 53.195312 52.046875 "/>
<path style=" stroke:none;fill-rule:nonzero;fill:rgb(0%,0%,0%);fill-opacity:1;" d="M 53.195312 56.558594 L 57.890625 56.558594 C 58.457031 56.558594 58.917969 56.097656 58.917969 55.53125 C 58.917969 54.964844 58.457031 54.507812 57.890625 54.507812 L 53.195312 54.507812 C 52.628906 54.507812 52.171875 54.964844 52.171875 55.53125 C 52.171875 56.097656 52.628906 56.558594 53.195312 56.558594 Z M 53.195312 56.558594 "/>
<path style=" stroke:none;fill-rule:nonzero;fill:rgb(0%,0%,0%);fill-opacity:1;" d="M 53.195312 61.070312 L 55.542969 61.070312 C 56.109375 61.070312 56.570312 60.609375 56.570312 60.042969 C 56.570312 59.476562 56.109375 59.019531 55.542969 59.019531 L 53.195312 59.019531 C 52.628906 59.019531 52.171875 59.476562 52.171875 60.042969 C 52.171875 60.609375 52.628906 61.070312 53.195312 61.070312 Z M 53.195312 61.070312 "/>
</g>
</svg>
