<?xml version="1.0" encoding="UTF-8"?>
<svg xmlns="http://www.w3.org/2000/svg" xmlns:xlink="http://www.w3.org/1999/xlink" width="70px" height="70px" viewBox="0 0 70 70" version="1.1">
<g id="surface1">
<path style=" stroke:none;fill-rule:nonzero;fill:rgb(0%,0%,0%);fill-opacity:1;" d="M 34.878906 8.894531 C 35.636719 8.894531 36.253906 8.277344 36.253906 7.519531 L 36.253906 1.375 C 36.253906 0.617188 35.636719 0 34.878906 0 C 34.117188 0 33.5 0.617188 33.5 1.375 L 33.5 7.519531 C 33.5 8.277344 34.117188 8.894531 34.878906 8.894531 Z M 34.878906 8.894531 "/>
<path style=" stroke:none;fill-rule:nonzero;fill:rgb(0%,0%,0%);fill-opacity:1;" d="M 68.535156 47.300781 L 66.101562 44.878906 C 65.238281 44.011719 64.082031 43.535156 62.855469 43.535156 C 62.070312 43.535156 61.316406 43.730469 60.644531 44.097656 L 56.0625 39.519531 L 56.285156 39.296875 C 58.144531 37.433594 58.144531 34.40625 56.285156 32.550781 C 55.621094 31.882812 54.792969 31.441406 53.890625 31.253906 C 54.011719 30.824219 54.078125 30.375 54.078125 29.914062 C 54.078125 28.636719 53.582031 27.4375 52.683594 26.539062 C 52.019531 25.875 51.1875 25.429688 50.285156 25.242188 C 50.410156 24.816406 50.476562 24.363281 50.476562 23.90625 C 50.476562 22.625 49.980469 21.425781 49.078125 20.527344 C 48.398438 19.851562 47.5625 19.417969 46.683594 19.238281 C 47.152344 17.617188 46.75 15.792969 45.476562 14.519531 C 44.417969 13.460938 42.976562 13.007812 41.589844 13.15625 L 32.507812 11.4375 C 31.121094 11.171875 29.390625 11 28.300781 11.996094 C 28.230469 12.058594 28.160156 12.128906 28.09375 12.210938 C 26.398438 11.59375 24.425781 11.960938 23.070312 13.316406 C 22.167969 14.214844 21.671875 15.414062 21.671875 16.691406 C 21.671875 17.152344 21.738281 17.601562 21.863281 18.03125 C 20.960938 18.21875 20.132812 18.660156 19.46875 19.324219 C 18.570312 20.222656 18.070312 21.417969 18.070312 22.695312 C 18.070312 23.15625 18.136719 23.609375 18.261719 24.039062 C 17.359375 24.226562 16.53125 24.667969 15.867188 25.332031 C 14.964844 26.230469 14.46875 27.429688 14.46875 28.707031 C 14.46875 29.6875 14.761719 30.621094 15.300781 31.40625 C 14.617188 31.640625 13.992188 32.023438 13.46875 32.546875 C 11.605469 34.40625 11.605469 37.433594 13.46875 39.300781 L 13.691406 39.523438 L 9.105469 44.097656 C 7.402344 43.296875 5.304688 43.597656 3.898438 45 L 1.464844 47.425781 C 0.597656 48.292969 0.121094 49.445312 0.121094 50.675781 C 0.121094 51.90625 0.597656 53.058594 1.464844 53.921875 L 4.503906 56.957031 C 5.039062 57.492188 5.910156 57.492188 6.449219 56.957031 C 6.988281 56.417969 6.984375 55.546875 6.449219 55.007812 L 3.410156 51.972656 C 3.066406 51.628906 2.875 51.167969 2.875 50.675781 C 2.875 50.179688 3.066406 49.71875 3.410156 49.375 L 5.84375 46.949219 C 6.453125 46.339844 7.382812 46.25 8.089844 46.675781 C 8.140625 46.75 8.195312 46.820312 8.261719 46.886719 C 8.378906 47.003906 8.515625 47.09375 8.660156 47.160156 L 22.617188 61.097656 C 22.683594 61.242188 22.773438 61.378906 22.894531 61.496094 C 23.007812 61.613281 23.140625 61.703125 23.28125 61.769531 C 23.574219 62.101562 23.738281 62.527344 23.738281 62.984375 C 23.738281 63.476562 23.546875 63.9375 23.203125 64.285156 L 20.773438 66.710938 C 20.054688 67.425781 18.886719 67.425781 18.167969 66.714844 L 15.132812 63.675781 C 14.59375 63.140625 13.722656 63.140625 13.183594 63.675781 C 12.648438 64.214844 12.648438 65.085938 13.183594 65.625 L 16.222656 68.664062 C 17.117188 69.554688 18.292969 70 19.46875 70 C 20.644531 70 21.820312 69.554688 22.71875 68.660156 L 25.148438 66.230469 C 26.015625 65.367188 26.492188 64.214844 26.492188 62.984375 C 26.492188 62.105469 26.25 61.269531 25.792969 60.546875 L 30.953125 55.394531 C 30.960938 55.386719 30.964844 55.382812 30.96875 55.375 C 31.5625 54.765625 33.207031 54.878906 34.796875 54.988281 C 35.929688 55.070312 37.1875 55.15625 38.417969 55.015625 L 44.070312 60.65625 C 43.703125 61.324219 43.507812 62.078125 43.507812 62.863281 C 43.507812 64.089844 43.984375 65.242188 44.851562 66.109375 L 47.285156 68.539062 C 48.148438 69.402344 49.300781 69.878906 50.53125 69.878906 C 51.757812 69.878906 52.914062 69.402344 53.777344 68.539062 L 68.535156 53.796875 C 69.402344 52.933594 69.878906 51.78125 69.878906 50.550781 C 69.878906 49.320312 69.402344 48.167969 68.535156 47.300781 Z M 31.996094 14.140625 L 37.96875 15.273438 L 34.394531 18.847656 C 33.839844 18.578125 33.082031 18.085938 32.25 17.289062 C 31.113281 16.199219 30.296875 14.941406 30.222656 14.160156 C 30.222656 14.160156 30.222656 14.15625 30.222656 14.15625 C 30.21875 14.101562 30.214844 14.054688 30.21875 14.019531 C 30.398438 13.976562 30.875 13.929688 31.996094 14.140625 Z M 25.015625 15.265625 C 25.710938 14.566406 26.796875 14.488281 27.582031 15.019531 C 28.03125 16.894531 29.628906 18.589844 30.347656 19.277344 C 30.878906 19.789062 32.589844 21.316406 34.3125 21.734375 C 34.546875 22.070312 34.675781 22.46875 34.675781 22.890625 C 34.675781 23.433594 34.464844 23.9375 34.085938 24.320312 C 33.707031 24.699219 33.199219 24.90625 32.65625 24.90625 C 32.113281 24.90625 31.605469 24.699219 31.222656 24.316406 L 25.015625 18.117188 C 24.636719 17.738281 24.425781 17.234375 24.425781 16.691406 C 24.425781 16.148438 24.636719 15.640625 25.015625 15.265625 Z M 21.417969 21.273438 C 21.796875 20.894531 22.300781 20.683594 22.84375 20.683594 C 23.386719 20.683594 23.894531 20.894531 24.277344 21.273438 L 29.277344 26.265625 C 30.066406 27.054688 30.066406 28.335938 29.28125 29.121094 C 28.898438 29.5 28.390625 29.710938 27.847656 29.710938 C 27.300781 29.710938 26.792969 29.5 26.414062 29.125 L 22.621094 25.332031 C 22.613281 25.324219 22.609375 25.320312 22.601562 25.3125 L 21.414062 24.128906 C 21.035156 23.746094 20.824219 23.238281 20.824219 22.699219 C 20.824219 22.15625 21.035156 21.652344 21.417969 21.273438 Z M 17.8125 27.28125 C 18.191406 26.902344 18.699219 26.691406 19.242188 26.691406 C 19.78125 26.691406 20.285156 26.898438 20.664062 27.269531 L 24.46875 31.074219 C 24.847656 31.449219 25.058594 31.957031 25.058594 32.5 C 25.058594 33.039062 24.847656 33.546875 24.46875 33.925781 C 24.089844 34.304688 23.582031 34.511719 23.039062 34.511719 C 22.492188 34.511719 21.984375 34.304688 21.605469 33.925781 L 20.226562 32.546875 C 20.226562 32.546875 20.226562 32.546875 20.222656 32.546875 L 17.8125 30.136719 C 17.429688 29.757812 17.222656 29.25 17.222656 28.707031 C 17.222656 28.167969 17.429688 27.660156 17.8125 27.28125 Z M 15.414062 34.496094 C 15.792969 34.117188 16.304688 33.90625 16.847656 33.90625 C 17.390625 33.90625 17.898438 34.117188 18.277344 34.496094 L 19.660156 35.875 C 20.039062 36.253906 20.25 36.761719 20.25 37.300781 C 20.25 37.84375 20.039062 38.347656 19.65625 38.730469 C 19.277344 39.109375 18.769531 39.316406 18.226562 39.316406 C 17.683594 39.316406 17.175781 39.109375 16.796875 38.726562 L 16.621094 38.554688 C 16.621094 38.550781 16.617188 38.550781 16.617188 38.546875 C 16.613281 38.546875 16.609375 38.542969 16.609375 38.539062 L 15.414062 37.351562 C 14.628906 36.5625 14.628906 35.28125 15.414062 34.496094 Z M 43.472656 50.144531 C 42.9375 49.605469 42.0625 49.605469 41.527344 50.144531 L 40.300781 51.367188 C 39.136719 52.53125 37.027344 52.382812 34.988281 52.242188 C 32.773438 52.089844 30.484375 51.929688 29 53.453125 L 23.929688 58.515625 L 11.246094 45.855469 L 15.734375 41.375 C 16.476562 41.828125 17.332031 42.070312 18.226562 42.070312 C 19.507812 42.070312 20.707031 41.574219 21.605469 40.679688 C 22.503906 39.78125 23.003906 38.582031 23.003906 37.300781 C 23.003906 37.289062 23.003906 37.277344 23.003906 37.265625 C 23.015625 37.265625 23.027344 37.265625 23.039062 37.265625 C 24.316406 37.265625 25.515625 36.773438 26.410156 35.875 C 27.3125 34.976562 27.8125 33.777344 27.8125 32.5 C 27.8125 32.488281 27.808594 32.476562 27.808594 32.464844 C 27.820312 32.464844 27.835938 32.464844 27.847656 32.464844 C 29.125 32.464844 30.324219 31.96875 31.226562 31.070312 C 32.164062 30.132812 32.628906 28.894531 32.621094 27.660156 C 32.632812 27.660156 32.644531 27.660156 32.65625 27.660156 C 33.9375 27.660156 35.136719 27.164062 36.035156 26.265625 C 36.933594 25.367188 37.429688 24.167969 37.429688 22.890625 C 37.429688 21.996094 37.183594 21.140625 36.730469 20.402344 L 40.664062 16.46875 C 40.957031 16.175781 41.320312 15.996094 41.699219 15.917969 C 41.738281 15.914062 41.78125 15.90625 41.820312 15.898438 C 42.429688 15.816406 43.066406 16.003906 43.53125 16.464844 C 44.320312 17.253906 44.320312 18.539062 43.535156 19.324219 L 42.335938 20.515625 C 42.332031 20.519531 42.328125 20.523438 42.324219 20.527344 L 40.945312 21.90625 C 40.40625 22.445312 40.40625 23.316406 40.941406 23.855469 C 41.480469 24.390625 42.351562 24.390625 42.890625 23.855469 L 44.09375 22.652344 L 44.277344 22.472656 C 45.066406 21.6875 46.34375 21.691406 47.132812 22.480469 C 47.511719 22.855469 47.722656 23.363281 47.722656 23.902344 C 47.722656 24.445312 47.511719 24.953125 47.128906 25.332031 L 45.925781 26.539062 L 44.546875 27.914062 C 44.007812 28.453125 44.003906 29.324219 44.542969 29.863281 C 45.078125 30.402344 45.949219 30.402344 46.488281 29.867188 L 47.875 28.484375 C 48.253906 28.105469 48.761719 27.898438 49.304688 27.898438 C 49.847656 27.898438 50.355469 28.105469 50.738281 28.488281 C 51.117188 28.867188 51.324219 29.371094 51.324219 29.914062 C 51.324219 30.453125 51.117188 30.960938 50.734375 31.339844 L 48.332031 33.746094 C 47.792969 34.28125 47.792969 35.152344 48.332031 35.691406 C 48.601562 35.960938 48.953125 36.09375 49.304688 36.09375 C 49.660156 36.09375 50.011719 35.960938 50.28125 35.691406 L 51.457031 34.511719 C 51.464844 34.507812 51.472656 34.5 51.476562 34.496094 C 51.855469 34.117188 52.363281 33.90625 52.90625 33.90625 C 53.449219 33.90625 53.957031 34.117188 54.339844 34.496094 C 55.125 35.28125 55.125 36.5625 54.339844 37.351562 L 53.140625 38.546875 C 53.140625 38.546875 53.140625 38.546875 53.136719 38.546875 L 51.238281 40.445312 C 50.699219 40.984375 50.699219 41.855469 51.238281 42.394531 C 51.507812 42.664062 51.859375 42.796875 52.210938 42.796875 C 52.5625 42.796875 52.917969 42.664062 53.183594 42.394531 L 54.113281 41.464844 L 58.566406 45.914062 L 45.886719 58.582031 L 41.34375 54.042969 C 41.660156 53.839844 41.960938 53.597656 42.246094 53.316406 L 43.472656 52.09375 C 44.011719 51.554688 44.011719 50.683594 43.472656 50.144531 Z M 66.589844 51.851562 L 51.832031 66.589844 C 51.488281 66.933594 51.023438 67.125 50.53125 67.125 C 50.035156 67.125 49.574219 66.933594 49.230469 66.589844 L 46.796875 64.160156 C 46.449219 63.816406 46.261719 63.355469 46.261719 62.863281 C 46.261719 62.371094 46.449219 61.910156 46.796875 61.566406 L 61.554688 46.824219 C 61.898438 46.480469 62.359375 46.289062 62.855469 46.289062 C 63.347656 46.289062 63.8125 46.480469 64.15625 46.824219 L 66.589844 49.25 C 66.933594 49.597656 67.125 50.058594 67.125 50.550781 C 67.125 51.042969 66.933594 51.507812 66.589844 51.851562 Z M 66.589844 51.851562 "/>
<path style=" stroke:none;fill-rule:nonzero;fill:rgb(0%,0%,0%);fill-opacity:1;" d="M 16.59375 7.734375 C 16.863281 8.003906 17.214844 8.136719 17.566406 8.136719 C 17.921875 8.136719 18.273438 8 18.542969 7.730469 C 19.078125 7.195312 19.078125 6.320312 18.539062 5.785156 L 13.523438 0.777344 C 12.984375 0.242188 12.113281 0.242188 11.574219 0.78125 C 11.039062 1.316406 11.039062 2.191406 11.578125 2.726562 Z M 16.59375 7.734375 "/>
<path style=" stroke:none;fill-rule:nonzero;fill:rgb(0%,0%,0%);fill-opacity:1;" d="M 52.1875 8.136719 C 52.539062 8.136719 52.894531 8.003906 53.160156 7.734375 L 58.175781 2.726562 C 58.714844 2.1875 58.714844 1.316406 58.175781 0.777344 C 57.640625 0.242188 56.765625 0.242188 56.230469 0.777344 L 51.214844 5.785156 C 50.675781 6.324219 50.675781 7.195312 51.214844 7.734375 C 51.484375 8 51.835938 8.136719 52.1875 8.136719 Z M 52.1875 8.136719 "/>
<path style=" stroke:none;fill-rule:nonzero;fill:rgb(0%,0%,0%);fill-opacity:1;" d="M 8.589844 59.226562 C 8.054688 59.769531 8.0625 60.640625 8.605469 61.175781 L 8.609375 61.179688 C 8.875 61.441406 9.222656 61.570312 9.570312 61.570312 C 9.929688 61.570312 10.285156 61.433594 10.554688 61.160156 C 11.085938 60.617188 11.078125 59.742188 10.535156 59.210938 C 9.992188 58.675781 9.121094 58.683594 8.589844 59.226562 Z M 8.589844 59.226562 "/>
<path style=" stroke:none;fill-rule:nonzero;fill:rgb(0%,0%,0%);fill-opacity:1;" d="M 46.839844 48.160156 C 47.050781 48.160156 47.261719 48.113281 47.460938 48.011719 C 48.140625 47.671875 48.414062 46.84375 48.070312 46.164062 C 47.730469 45.484375 46.902344 45.210938 46.222656 45.554688 L 46.214844 45.558594 C 45.535156 45.902344 45.265625 46.726562 45.609375 47.40625 C 45.851562 47.886719 46.335938 48.160156 46.839844 48.160156 Z M 46.839844 48.160156 "/>
</g>
</svg>
