<?xml version="1.0" encoding="UTF-8"?>
<svg xmlns="http://www.w3.org/2000/svg" xmlns:xlink="http://www.w3.org/1999/xlink" width="30px" height="30px" viewBox="0 0 30 30" version="1.1">
<g id="surface1">
<path style=" stroke:none;fill-rule:nonzero;fill:rgb(0%,0%,0%);fill-opacity:1;" d="M 24.394531 9.394531 C 23.125 9.394531 21.953125 9.816406 21.015625 10.53125 L 19.46875 8.984375 C 20.183594 8.042969 20.605469 6.875 20.605469 5.605469 C 20.605469 4.167969 20.0625 2.804688 19.078125 1.757812 C 18.910156 1.582031 18.632812 1.574219 18.457031 1.742188 C 18.28125 1.90625 18.273438 2.1875 18.4375 2.363281 C 19.269531 3.242188 19.726562 4.394531 19.726562 5.605469 C 19.726562 8.210938 17.605469 10.332031 15 10.332031 C 12.394531 10.332031 10.273438 8.210938 10.273438 5.605469 C 10.273438 3 12.394531 0.878906 15 0.878906 C 15.6875 0.878906 16.351562 1.023438 16.972656 1.308594 C 17.191406 1.410156 17.453125 1.3125 17.554688 1.09375 C 17.65625 0.871094 17.5625 0.613281 17.339844 0.511719 C 16.605469 0.171875 15.816406 0 15 0 C 11.910156 0 9.394531 2.515625 9.394531 5.605469 C 9.394531 6.992188 9.902344 8.265625 10.738281 9.246094 L 9.246094 10.738281 C 8.265625 9.902344 6.992188 9.394531 5.605469 9.394531 C 2.515625 9.394531 0 11.910156 0 15 C 0 18.089844 2.515625 20.605469 5.605469 20.605469 C 6.875 20.605469 8.046875 20.183594 8.984375 19.46875 L 10.527344 21.011719 C 10.136719 21.527344 9.835938 22.113281 9.640625 22.746094 C 8.734375 25.699219 10.398438 28.84375 13.351562 29.75 C 13.898438 29.917969 14.453125 30 14.996094 30 C 17.394531 30 19.617188 28.449219 20.359375 26.042969 C 20.796875 24.609375 20.65625 23.09375 19.953125 21.769531 C 19.757812 21.402344 19.527344 21.0625 19.261719 20.753906 L 20.753906 19.261719 C 21.734375 20.097656 23.007812 20.605469 24.394531 20.605469 C 27.484375 20.605469 30 18.089844 30 15 C 30 11.910156 27.484375 9.394531 24.394531 9.394531 Z M 0.878906 15 C 0.878906 12.394531 3 10.273438 5.605469 10.273438 C 8.210938 10.273438 10.332031 12.394531 10.332031 15 C 10.332031 17.605469 8.210938 19.726562 5.605469 19.726562 C 3 19.726562 0.878906 17.605469 0.878906 15 Z M 19.519531 25.785156 C 18.75 28.273438 16.101562 29.679688 13.609375 28.910156 C 11.117188 28.144531 9.714844 25.496094 10.480469 23.003906 C 10.839844 21.84375 11.613281 20.878906 12.667969 20.28125 C 12.878906 20.164062 12.953125 19.894531 12.832031 19.683594 C 12.714844 19.472656 12.445312 19.398438 12.234375 19.515625 C 11.820312 19.75 11.445312 20.03125 11.113281 20.355469 L 9.644531 18.886719 C 10.613281 17.875 11.210938 16.507812 11.210938 15 C 11.210938 13.613281 10.707031 12.339844 9.867188 11.359375 L 11.359375 9.867188 C 12.339844 10.703125 13.613281 11.210938 15 11.210938 C 16.507812 11.210938 17.878906 10.613281 18.886719 9.644531 L 20.355469 11.113281 C 19.386719 12.121094 18.789062 13.492188 18.789062 15 C 18.789062 16.386719 19.292969 17.660156 20.132812 18.640625 L 18.640625 20.128906 C 18.066406 19.636719 17.394531 19.265625 16.648438 19.035156 C 15.867188 18.796875 15.066406 18.726562 14.261719 18.835938 C 14.019531 18.867188 13.851562 19.089844 13.882812 19.328125 C 13.917969 19.570312 14.136719 19.738281 14.378906 19.707031 C 15.054688 19.617188 15.730469 19.671875 16.390625 19.875 C 17.597656 20.246094 18.585938 21.066406 19.179688 22.183594 C 19.769531 23.296875 19.890625 24.578125 19.519531 25.785156 Z M 24.394531 19.726562 C 21.789062 19.726562 19.667969 17.605469 19.667969 15 C 19.667969 12.394531 21.789062 10.273438 24.394531 10.273438 C 27 10.273438 29.121094 12.394531 29.121094 15 C 29.121094 17.605469 27 19.726562 24.394531 19.726562 Z M 24.394531 19.726562 "/>
<path style=" stroke:none;fill-rule:nonzero;fill:rgb(0%,0%,0%);fill-opacity:1;" d="M 13.667969 4.863281 C 13.777344 5.082031 14.042969 5.167969 14.257812 5.058594 C 14.476562 4.949219 14.5625 4.683594 14.453125 4.46875 C 14.234375 4.035156 13.710938 3.757812 13.121094 3.757812 C 12.53125 3.757812 12.007812 4.035156 11.789062 4.46875 C 11.679688 4.683594 11.765625 4.949219 11.984375 5.058594 C 12.046875 5.089844 12.113281 5.105469 12.179688 5.105469 C 12.34375 5.105469 12.496094 5.019531 12.574219 4.863281 C 12.628906 4.753906 12.839844 4.636719 13.121094 4.636719 C 13.402344 4.636719 13.613281 4.753906 13.667969 4.863281 Z M 13.667969 4.863281 "/>
<path style=" stroke:none;fill-rule:nonzero;fill:rgb(0%,0%,0%);fill-opacity:1;" d="M 15.546875 4.46875 C 15.4375 4.683594 15.523438 4.949219 15.742188 5.058594 C 15.957031 5.167969 16.222656 5.082031 16.332031 4.863281 C 16.386719 4.753906 16.597656 4.636719 16.878906 4.636719 C 17.160156 4.636719 17.371094 4.753906 17.425781 4.863281 C 17.503906 5.019531 17.65625 5.105469 17.820312 5.105469 C 17.886719 5.105469 17.953125 5.089844 18.015625 5.058594 C 18.234375 4.949219 18.320312 4.683594 18.210938 4.46875 C 17.992188 4.035156 17.46875 3.757812 16.878906 3.757812 C 16.289062 3.757812 15.765625 4.035156 15.546875 4.46875 Z M 15.546875 4.46875 "/>
<path style=" stroke:none;fill-rule:nonzero;fill:rgb(0%,0%,0%);fill-opacity:1;" d="M 15 8.394531 C 16.007812 8.394531 16.894531 7.988281 17.257812 7.363281 C 17.378906 7.15625 17.308594 6.886719 17.101562 6.761719 C 16.890625 6.640625 16.621094 6.710938 16.5 6.921875 C 16.332031 7.207031 15.792969 7.515625 15 7.515625 C 14.207031 7.515625 13.667969 7.207031 13.5 6.921875 C 13.378906 6.710938 13.109375 6.640625 12.898438 6.761719 C 12.691406 6.886719 12.621094 7.15625 12.742188 7.363281 C 13.105469 7.988281 13.992188 8.394531 15 8.394531 Z M 15 8.394531 "/>
<path style=" stroke:none;fill-rule:nonzero;fill:rgb(0%,0%,0%);fill-opacity:1;" d="M 18.015625 23.0625 C 17.800781 22.953125 17.535156 23.039062 17.425781 23.257812 C 17.371094 23.367188 17.160156 23.484375 16.878906 23.484375 C 16.597656 23.484375 16.386719 23.367188 16.332031 23.257812 C 16.222656 23.039062 15.957031 22.953125 15.742188 23.0625 C 15.523438 23.171875 15.4375 23.433594 15.546875 23.652344 C 15.765625 24.085938 16.289062 24.363281 16.878906 24.363281 C 17.46875 24.363281 17.992188 24.085938 18.210938 23.652344 C 18.320312 23.433594 18.234375 23.171875 18.015625 23.0625 Z M 18.015625 23.0625 "/>
<path style=" stroke:none;fill-rule:nonzero;fill:rgb(0%,0%,0%);fill-opacity:1;" d="M 14.453125 23.652344 C 14.5625 23.433594 14.476562 23.171875 14.257812 23.0625 C 14.042969 22.953125 13.777344 23.039062 13.667969 23.257812 C 13.613281 23.367188 13.402344 23.484375 13.121094 23.484375 C 12.839844 23.484375 12.628906 23.367188 12.574219 23.257812 C 12.464844 23.039062 12.199219 22.953125 11.984375 23.0625 C 11.765625 23.171875 11.679688 23.4375 11.789062 23.652344 C 12.007812 24.085938 12.53125 24.363281 13.121094 24.363281 C 13.710938 24.363281 14.234375 24.085938 14.453125 23.652344 Z M 14.453125 23.652344 "/>
<path style=" stroke:none;fill-rule:nonzero;fill:rgb(0%,0%,0%);fill-opacity:1;" d="M 15 25.488281 C 13.992188 25.488281 13.105469 25.894531 12.742188 26.519531 C 12.621094 26.730469 12.691406 27 12.898438 27.121094 C 13.109375 27.242188 13.378906 27.171875 13.5 26.964844 C 13.667969 26.675781 14.207031 26.367188 15 26.367188 C 15.792969 26.367188 16.332031 26.675781 16.5 26.964844 C 16.582031 27.101562 16.726562 27.179688 16.878906 27.179688 C 16.953125 27.179688 17.03125 27.160156 17.101562 27.121094 C 17.308594 27 17.378906 26.730469 17.257812 26.519531 C 16.894531 25.894531 16.007812 25.488281 15 25.488281 Z M 15 25.488281 "/>
<path style=" stroke:none;fill-rule:nonzero;fill:rgb(0%,0%,0%);fill-opacity:1;" d="M 5.605469 16.097656 C 4.601562 16.097656 3.714844 16.5 3.347656 17.125 C 3.226562 17.335938 3.296875 17.605469 3.507812 17.726562 C 3.714844 17.851562 3.984375 17.78125 4.105469 17.570312 C 4.273438 17.285156 4.816406 16.976562 5.605469 16.976562 C 6.398438 16.976562 6.9375 17.285156 7.105469 17.570312 C 7.1875 17.710938 7.335938 17.789062 7.484375 17.789062 C 7.5625 17.789062 7.636719 17.769531 7.707031 17.726562 C 7.917969 17.605469 7.988281 17.335938 7.863281 17.125 C 7.5 16.5 6.613281 16.097656 5.605469 16.097656 Z M 5.605469 16.097656 "/>
<path style=" stroke:none;fill-rule:nonzero;fill:rgb(0%,0%,0%);fill-opacity:1;" d="M 4.195312 14.5 C 4.359375 14.5 4.511719 14.410156 4.589844 14.257812 C 4.699219 14.039062 4.609375 13.777344 4.394531 13.667969 L 3.453125 13.199219 C 3.238281 13.089844 2.972656 13.175781 2.863281 13.394531 C 2.757812 13.609375 2.84375 13.875 3.0625 13.984375 L 4 14.453125 C 4.0625 14.484375 4.128906 14.5 4.195312 14.5 Z M 4.195312 14.5 "/>
<path style=" stroke:none;fill-rule:nonzero;fill:rgb(0%,0%,0%);fill-opacity:1;" d="M 7.757812 13.199219 L 6.820312 13.667969 C 6.601562 13.777344 6.515625 14.039062 6.621094 14.257812 C 6.699219 14.410156 6.855469 14.5 7.015625 14.5 C 7.082031 14.5 7.148438 14.484375 7.210938 14.453125 L 8.152344 13.984375 C 8.367188 13.875 8.457031 13.609375 8.347656 13.394531 C 8.238281 13.175781 7.976562 13.089844 7.757812 13.199219 Z M 7.757812 13.199219 "/>
<path style=" stroke:none;fill-rule:nonzero;fill:rgb(0%,0%,0%);fill-opacity:1;" d="M 25.804688 16.4375 L 22.984375 16.4375 C 22.742188 16.4375 22.546875 16.636719 22.546875 16.878906 C 22.546875 17.121094 22.742188 17.316406 22.984375 17.316406 L 25.804688 17.316406 C 26.046875 17.316406 26.242188 17.121094 26.242188 16.878906 C 26.242188 16.636719 26.046875 16.4375 25.804688 16.4375 Z M 25.804688 16.4375 "/>
<path style=" stroke:none;fill-rule:nonzero;fill:rgb(0%,0%,0%);fill-opacity:1;" d="M 22.953125 14.53125 L 22.953125 14.058594 C 22.953125 13.816406 22.757812 13.621094 22.515625 13.621094 C 22.273438 13.621094 22.074219 13.816406 22.074219 14.058594 L 22.074219 14.53125 C 22.074219 14.773438 22.273438 14.96875 22.515625 14.96875 C 22.757812 14.96875 22.953125 14.773438 22.953125 14.53125 Z M 22.953125 14.53125 "/>
<path style=" stroke:none;fill-rule:nonzero;fill:rgb(0%,0%,0%);fill-opacity:1;" d="M 26.273438 13.621094 C 26.03125 13.621094 25.832031 13.816406 25.832031 14.058594 L 25.832031 14.53125 C 25.832031 14.773438 26.03125 14.96875 26.273438 14.96875 C 26.515625 14.96875 26.710938 14.773438 26.710938 14.53125 L 26.710938 14.058594 C 26.710938 13.816406 26.515625 13.621094 26.273438 13.621094 Z M 26.273438 13.621094 "/>
</g>
</svg>
