<?xml version="1.0" encoding="UTF-8"?>
<svg xmlns="http://www.w3.org/2000/svg" xmlns:xlink="http://www.w3.org/1999/xlink" width="70px" height="70px" viewBox="0 0 70 70" version="1.1">
<g id="surface1">
<path style=" stroke:none;fill-rule:nonzero;fill:rgb(0%,0%,0%);fill-opacity:1;" d="M 57.6875 4.296875 L 43.378906 4.296875 C 42.898438 1.851562 40.738281 0 38.15625 0 L 31.84375 0 C 29.261719 0 27.101562 1.851562 26.621094 4.296875 L 12.3125 4.296875 C 10.511719 4.296875 9.046875 5.761719 9.046875 7.5625 L 9.046875 14.046875 C 9.046875 14.613281 9.503906 15.070312 10.070312 15.070312 C 10.636719 15.070312 11.097656 14.613281 11.097656 14.046875 L 11.097656 7.5625 C 11.097656 6.894531 11.640625 6.347656 12.3125 6.347656 L 23.121094 6.347656 L 23.121094 9.367188 L 16.652344 9.367188 C 15.390625 9.367188 14.363281 10.394531 14.363281 11.652344 L 14.363281 62.644531 C 14.363281 63.90625 15.390625 64.929688 16.652344 64.929688 L 53.347656 64.929688 C 54.609375 64.929688 55.636719 63.90625 55.636719 62.644531 L 55.636719 56.890625 C 55.636719 56.324219 55.175781 55.863281 54.609375 55.863281 C 54.042969 55.863281 53.585938 56.324219 53.585938 56.890625 L 53.585938 62.644531 C 53.585938 62.773438 53.480469 62.878906 53.347656 62.878906 L 16.652344 62.878906 C 16.519531 62.878906 16.414062 62.773438 16.414062 62.644531 L 16.414062 11.652344 C 16.414062 11.523438 16.519531 11.417969 16.652344 11.417969 L 23.121094 11.417969 C 23.152344 12.597656 24.121094 13.550781 25.308594 13.550781 L 44.691406 13.550781 C 45.878906 13.550781 46.847656 12.597656 46.878906 11.417969 L 53.347656 11.417969 C 53.480469 11.417969 53.585938 11.523438 53.585938 11.652344 L 53.585938 51.96875 C 53.585938 52.535156 54.042969 52.992188 54.609375 52.992188 C 55.175781 52.992188 55.636719 52.535156 55.636719 51.96875 L 55.636719 11.652344 C 55.636719 10.394531 54.609375 9.367188 53.347656 9.367188 L 46.878906 9.367188 L 46.878906 6.347656 L 57.6875 6.347656 C 58.359375 6.347656 58.902344 6.894531 58.902344 7.5625 L 58.902344 66.734375 C 58.902344 67.40625 58.359375 67.949219 57.6875 67.949219 L 12.3125 67.949219 C 11.640625 67.949219 11.097656 67.40625 11.097656 66.734375 L 11.097656 19.105469 C 11.097656 18.539062 10.636719 18.078125 10.070312 18.078125 C 9.503906 18.078125 9.046875 18.539062 9.046875 19.105469 L 9.046875 66.734375 C 9.046875 68.535156 10.511719 70 12.3125 70 L 57.6875 70 C 59.488281 70 60.953125 68.535156 60.953125 66.734375 L 60.953125 7.5625 C 60.953125 5.761719 59.488281 4.296875 57.6875 4.296875 Z M 44.828125 11.359375 C 44.828125 11.4375 44.769531 11.5 44.691406 11.5 L 25.308594 11.5 C 25.230469 11.5 25.171875 11.4375 25.171875 11.359375 L 25.171875 6.347656 L 27.546875 6.347656 C 28.113281 6.347656 28.574219 5.890625 28.574219 5.324219 C 28.574219 3.519531 30.039062 2.050781 31.84375 2.050781 L 38.15625 2.050781 C 39.960938 2.050781 41.425781 3.519531 41.425781 5.324219 C 41.425781 5.890625 41.886719 6.347656 42.453125 6.347656 L 44.828125 6.347656 Z M 44.828125 11.359375 "/>
<path style=" stroke:none;fill-rule:nonzero;fill:rgb(0%,0%,0%);fill-opacity:1;" d="M 30.414062 16.355469 C 30.039062 15.929688 29.394531 15.886719 28.964844 16.257812 L 28.320312 16.824219 C 27.925781 16.324219 27.316406 16.003906 26.632812 16.003906 L 21.945312 16.003906 C 20.761719 16.003906 19.796875 16.972656 19.796875 18.15625 L 19.796875 22.84375 C 19.796875 24.03125 20.761719 24.996094 21.945312 24.996094 L 26.632812 24.996094 C 27.820312 24.996094 28.785156 24.03125 28.785156 22.84375 L 28.785156 19.136719 L 30.316406 17.804688 C 30.742188 17.429688 30.785156 16.785156 30.414062 16.355469 Z M 26.734375 22.84375 C 26.734375 22.898438 26.691406 22.945312 26.632812 22.945312 L 21.945312 22.945312 C 21.890625 22.945312 21.847656 22.898438 21.847656 22.84375 L 21.847656 18.15625 C 21.847656 18.101562 21.890625 18.054688 21.945312 18.054688 L 26.632812 18.054688 C 26.691406 18.054688 26.734375 18.101562 26.734375 18.15625 L 26.734375 18.207031 L 25.007812 19.714844 L 24.667969 19.304688 C 24.304688 18.871094 23.660156 18.8125 23.222656 19.171875 C 22.789062 19.535156 22.730469 20.183594 23.089844 20.617188 L 24.101562 21.832031 C 24.277344 22.046875 24.535156 22.179688 24.808594 22.199219 C 24.835938 22.203125 24.863281 22.203125 24.890625 22.203125 C 25.136719 22.203125 25.378906 22.113281 25.566406 21.949219 L 26.734375 20.929688 Z M 26.734375 22.84375 "/>
<path style=" stroke:none;fill-rule:nonzero;fill:rgb(0%,0%,0%);fill-opacity:1;" d="M 49.179688 17.453125 L 34.191406 17.453125 C 33.625 17.453125 33.167969 17.910156 33.167969 18.476562 C 33.167969 19.042969 33.625 19.503906 34.191406 19.503906 L 49.179688 19.503906 C 49.746094 19.503906 50.203125 19.042969 50.203125 18.476562 C 50.203125 17.910156 49.746094 17.453125 49.179688 17.453125 Z M 49.179688 17.453125 "/>
<path style=" stroke:none;fill-rule:nonzero;fill:rgb(0%,0%,0%);fill-opacity:1;" d="M 34.191406 23.648438 L 42.386719 23.648438 C 42.953125 23.648438 43.410156 23.191406 43.410156 22.625 C 43.410156 22.058594 42.953125 21.597656 42.386719 21.597656 L 34.191406 21.597656 C 33.625 21.597656 33.167969 22.058594 33.167969 22.625 C 33.167969 23.191406 33.625 23.648438 34.191406 23.648438 Z M 34.191406 23.648438 "/>
<path style=" stroke:none;fill-rule:nonzero;fill:rgb(0%,0%,0%);fill-opacity:1;" d="M 30.414062 28.003906 C 30.039062 27.574219 29.394531 27.53125 28.964844 27.90625 L 28.320312 28.46875 C 27.925781 27.972656 27.316406 27.652344 26.632812 27.652344 L 21.945312 27.652344 C 20.761719 27.652344 19.796875 28.617188 19.796875 29.804688 L 19.796875 34.488281 C 19.796875 35.675781 20.761719 36.640625 21.945312 36.640625 L 26.632812 36.640625 C 27.820312 36.640625 28.785156 35.675781 28.785156 34.488281 L 28.785156 30.785156 L 30.316406 29.449219 C 30.742188 29.078125 30.785156 28.429688 30.414062 28.003906 Z M 26.734375 34.492188 C 26.734375 34.546875 26.691406 34.589844 26.632812 34.589844 L 21.945312 34.589844 C 21.890625 34.589844 21.847656 34.546875 21.847656 34.492188 L 21.847656 29.804688 C 21.847656 29.746094 21.890625 29.703125 21.945312 29.703125 L 26.632812 29.703125 C 26.691406 29.703125 26.734375 29.746094 26.734375 29.804688 L 26.734375 29.851562 L 25.007812 31.359375 L 24.667969 30.953125 C 24.304688 30.515625 23.660156 30.457031 23.222656 30.820312 C 22.789062 31.179688 22.730469 31.828125 23.089844 32.261719 L 24.101562 33.480469 C 24.277344 33.691406 24.535156 33.824219 24.808594 33.84375 C 24.835938 33.847656 24.863281 33.847656 24.890625 33.847656 C 25.136719 33.847656 25.378906 33.757812 25.566406 33.597656 L 26.734375 32.574219 Z M 26.734375 34.492188 "/>
<path style=" stroke:none;fill-rule:nonzero;fill:rgb(0%,0%,0%);fill-opacity:1;" d="M 49.179688 29.097656 L 34.191406 29.097656 C 33.625 29.097656 33.167969 29.554688 33.167969 30.121094 C 33.167969 30.6875 33.625 31.148438 34.191406 31.148438 L 49.179688 31.148438 C 49.746094 31.148438 50.203125 30.6875 50.203125 30.121094 C 50.203125 29.554688 49.746094 29.097656 49.179688 29.097656 Z M 49.179688 29.097656 "/>
<path style=" stroke:none;fill-rule:nonzero;fill:rgb(0%,0%,0%);fill-opacity:1;" d="M 34.191406 35.292969 L 42.386719 35.292969 C 42.953125 35.292969 43.410156 34.835938 43.410156 34.269531 C 43.410156 33.703125 42.953125 33.242188 42.386719 33.242188 L 34.191406 33.242188 C 33.625 33.242188 33.167969 33.703125 33.167969 34.269531 C 33.167969 34.835938 33.625 35.292969 34.191406 35.292969 Z M 34.191406 35.292969 "/>
<path style=" stroke:none;fill-rule:nonzero;fill:rgb(0%,0%,0%);fill-opacity:1;" d="M 30.414062 39.648438 C 30.039062 39.222656 29.394531 39.175781 28.964844 39.550781 L 28.320312 40.113281 C 27.925781 39.617188 27.316406 39.296875 26.632812 39.296875 L 21.945312 39.296875 C 20.761719 39.296875 19.796875 40.261719 19.796875 41.449219 L 19.796875 46.136719 C 19.796875 47.324219 20.761719 48.289062 21.945312 48.289062 L 26.632812 48.289062 C 27.820312 48.289062 28.785156 47.324219 28.785156 46.136719 L 28.785156 42.429688 L 30.316406 41.09375 C 30.742188 40.722656 30.785156 40.074219 30.414062 39.648438 Z M 26.734375 46.136719 C 26.734375 46.191406 26.691406 46.238281 26.632812 46.238281 L 21.945312 46.238281 C 21.890625 46.238281 21.847656 46.191406 21.847656 46.136719 L 21.847656 41.449219 C 21.847656 41.394531 21.890625 41.347656 21.945312 41.347656 L 26.632812 41.347656 C 26.691406 41.347656 26.734375 41.394531 26.734375 41.449219 L 26.734375 41.496094 L 25.007812 43.003906 L 24.667969 42.597656 C 24.304688 42.164062 23.660156 42.101562 23.222656 42.464844 C 22.789062 42.828125 22.730469 43.472656 23.089844 43.910156 L 24.101562 45.125 C 24.277344 45.335938 24.535156 45.46875 24.808594 45.492188 C 24.835938 45.492188 24.863281 45.496094 24.890625 45.496094 C 25.136719 45.496094 25.378906 45.40625 25.566406 45.242188 L 26.734375 44.21875 Z M 26.734375 46.136719 "/>
<path style=" stroke:none;fill-rule:nonzero;fill:rgb(0%,0%,0%);fill-opacity:1;" d="M 49.179688 40.742188 L 34.191406 40.742188 C 33.625 40.742188 33.167969 41.203125 33.167969 41.769531 C 33.167969 42.335938 33.625 42.792969 34.191406 42.792969 L 49.179688 42.792969 C 49.746094 42.792969 50.203125 42.335938 50.203125 41.769531 C 50.203125 41.203125 49.746094 40.742188 49.179688 40.742188 Z M 49.179688 40.742188 "/>
<path style=" stroke:none;fill-rule:nonzero;fill:rgb(0%,0%,0%);fill-opacity:1;" d="M 34.191406 46.941406 L 42.386719 46.941406 C 42.953125 46.941406 43.410156 46.480469 43.410156 45.914062 C 43.410156 45.347656 42.953125 44.890625 42.386719 44.890625 L 34.191406 44.890625 C 33.625 44.890625 33.167969 45.347656 33.167969 45.914062 C 33.167969 46.480469 33.625 46.941406 34.191406 46.941406 Z M 34.191406 46.941406 "/>
<path style=" stroke:none;fill-rule:nonzero;fill:rgb(0%,0%,0%);fill-opacity:1;" d="M 28.964844 51.195312 L 28.320312 51.761719 C 27.925781 51.261719 27.316406 50.941406 26.632812 50.941406 L 21.945312 50.941406 C 20.761719 50.941406 19.796875 51.90625 19.796875 53.09375 L 19.796875 57.78125 C 19.796875 58.96875 20.761719 59.933594 21.945312 59.933594 L 26.632812 59.933594 C 27.820312 59.933594 28.785156 58.96875 28.785156 57.78125 L 28.785156 54.074219 L 30.316406 52.742188 C 30.742188 52.367188 30.785156 51.71875 30.414062 51.292969 C 30.039062 50.867188 29.394531 50.824219 28.964844 51.195312 Z M 26.734375 57.78125 C 26.734375 57.835938 26.691406 57.882812 26.632812 57.882812 L 21.945312 57.882812 C 21.890625 57.882812 21.847656 57.835938 21.847656 57.78125 L 21.847656 53.09375 C 21.847656 53.039062 21.890625 52.992188 21.945312 52.992188 L 26.632812 52.992188 C 26.691406 52.992188 26.734375 53.039062 26.734375 53.09375 L 26.734375 53.144531 L 25.007812 54.652344 L 24.667969 54.242188 C 24.304688 53.808594 23.660156 53.75 23.222656 54.109375 C 22.789062 54.472656 22.730469 55.117188 23.089844 55.554688 L 24.101562 56.769531 C 24.277344 56.984375 24.535156 57.113281 24.808594 57.136719 C 24.835938 57.140625 24.863281 57.140625 24.890625 57.140625 C 25.136719 57.140625 25.378906 57.050781 25.566406 56.886719 L 26.734375 55.867188 Z M 26.734375 57.78125 "/>
<path style=" stroke:none;fill-rule:nonzero;fill:rgb(0%,0%,0%);fill-opacity:1;" d="M 50.203125 53.414062 C 50.203125 52.847656 49.746094 52.386719 49.179688 52.386719 L 34.191406 52.386719 C 33.625 52.386719 33.167969 52.847656 33.167969 53.414062 C 33.167969 53.980469 33.625 54.4375 34.191406 54.4375 L 49.179688 54.4375 C 49.746094 54.4375 50.203125 53.980469 50.203125 53.414062 Z M 50.203125 53.414062 "/>
<path style=" stroke:none;fill-rule:nonzero;fill:rgb(0%,0%,0%);fill-opacity:1;" d="M 34.191406 56.535156 C 33.625 56.535156 33.167969 56.992188 33.167969 57.558594 C 33.167969 58.125 33.625 58.585938 34.191406 58.585938 L 42.386719 58.585938 C 42.953125 58.585938 43.410156 58.125 43.410156 57.558594 C 43.410156 56.992188 42.953125 56.535156 42.386719 56.535156 Z M 34.191406 56.535156 "/>
</g>
</svg>
