<?xml version="1.0" encoding="UTF-8"?>
<svg xmlns="http://www.w3.org/2000/svg" xmlns:xlink="http://www.w3.org/1999/xlink" width="70px" height="70px" viewBox="0 0 70 70" version="1.1">
<g id="surface1">
<path style=" stroke:none;fill-rule:nonzero;fill:rgb(0%,0%,0%);fill-opacity:1;" d="M 70 58.457031 L 70 49.929688 L 66.734375 49.09375 C 66.710938 49.039062 66.6875 48.984375 66.664062 48.929688 L 68.382812 46.03125 L 62.355469 40 L 59.457031 41.722656 C 59.402344 41.699219 59.34375 41.675781 59.292969 41.652344 L 58.457031 38.386719 L 49.929688 38.386719 L 49.09375 41.652344 C 49.039062 41.675781 48.984375 41.699219 48.929688 41.722656 L 46.03125 40.003906 L 40 46.03125 L 41.722656 48.929688 C 41.699219 48.988281 41.675781 49.042969 41.652344 49.097656 L 38.386719 49.929688 L 38.386719 58.457031 L 41.652344 59.292969 C 41.675781 59.347656 41.699219 59.402344 41.722656 59.457031 L 40.003906 62.355469 L 46.03125 68.386719 L 48.929688 66.664062 C 48.988281 66.691406 49.042969 66.710938 49.097656 66.734375 L 49.929688 70 L 58.457031 70 L 59.292969 66.734375 C 59.347656 66.710938 59.402344 66.6875 59.457031 66.664062 L 62.355469 68.382812 L 68.386719 62.355469 L 66.664062 59.457031 C 66.691406 59.402344 66.710938 59.34375 66.734375 59.292969 Z M 65.546875 62 L 62 65.546875 L 59.585938 64.117188 L 59.042969 64.375 C 58.691406 64.542969 58.335938 64.691406 57.964844 64.824219 L 57.398438 65.023438 L 56.703125 67.742188 L 51.683594 67.742188 L 50.992188 65.023438 L 50.421875 64.824219 C 50.054688 64.691406 49.695312 64.542969 49.34375 64.375 L 48.800781 64.117188 L 46.390625 65.546875 L 42.839844 62 L 44.273438 59.585938 L 44.011719 59.042969 C 43.847656 58.691406 43.695312 58.335938 43.566406 57.964844 L 43.363281 57.398438 L 40.644531 56.703125 L 40.644531 51.683594 L 43.363281 50.992188 L 43.566406 50.421875 C 43.695312 50.054688 43.84375 49.695312 44.011719 49.34375 L 44.269531 48.800781 L 42.839844 46.390625 L 46.386719 42.839844 L 48.800781 44.273438 L 49.34375 44.011719 C 49.695312 43.847656 50.050781 43.695312 50.421875 43.566406 L 50.988281 43.363281 L 51.683594 40.644531 L 56.703125 40.644531 L 57.398438 43.363281 L 57.964844 43.566406 C 58.332031 43.695312 58.691406 43.84375 59.042969 44.011719 L 59.585938 44.269531 L 61.996094 42.839844 L 65.546875 46.386719 L 64.117188 48.800781 L 64.375 49.34375 C 64.542969 49.695312 64.691406 50.050781 64.820312 50.421875 L 65.023438 50.988281 L 67.742188 51.683594 L 67.742188 56.703125 L 65.023438 57.398438 L 64.824219 57.964844 C 64.691406 58.332031 64.542969 58.691406 64.375 59.042969 L 64.117188 59.585938 Z M 65.546875 62 "/>
<path style=" stroke:none;fill-rule:nonzero;fill:rgb(0%,0%,0%);fill-opacity:1;" d="M 54.195312 45.160156 C 49.214844 45.160156 45.160156 49.214844 45.160156 54.195312 C 45.160156 59.175781 49.214844 63.226562 54.195312 63.226562 C 59.175781 63.226562 63.226562 59.175781 63.226562 54.195312 C 63.226562 49.214844 59.175781 45.160156 54.195312 45.160156 Z M 54.195312 60.96875 C 50.457031 60.96875 47.417969 57.929688 47.417969 54.195312 C 47.417969 50.457031 50.457031 47.417969 54.195312 47.417969 C 57.929688 47.417969 60.96875 50.457031 60.96875 54.195312 C 60.96875 57.929688 57.929688 60.96875 54.195312 60.96875 Z M 54.195312 60.96875 "/>
<path style=" stroke:none;fill-rule:nonzero;fill:rgb(0%,0%,0%);fill-opacity:1;" d="M 54.195312 49.675781 C 51.703125 49.675781 49.675781 51.703125 49.675781 54.195312 C 49.675781 56.683594 51.703125 58.710938 54.195312 58.710938 C 56.683594 58.710938 58.710938 56.683594 58.710938 54.195312 C 58.710938 51.703125 56.683594 49.675781 54.195312 49.675781 Z M 54.195312 56.453125 C 52.949219 56.453125 51.933594 55.4375 51.933594 54.195312 C 51.933594 52.949219 52.949219 51.933594 54.195312 51.933594 C 55.4375 51.933594 56.453125 52.949219 56.453125 54.195312 C 56.453125 55.4375 55.4375 56.453125 54.195312 56.453125 Z M 54.195312 56.453125 "/>
<path style=" stroke:none;fill-rule:nonzero;fill:rgb(0%,0%,0%);fill-opacity:1;" d="M 28.59375 19.117188 C 28.972656 20.226562 29.628906 21.203125 30.484375 21.972656 L 30.484375 22.929688 L 25.117188 24.941406 C 22.925781 25.761719 21.453125 27.886719 21.453125 30.226562 L 21.453125 36.128906 L 48.546875 36.128906 L 48.546875 30.226562 C 48.546875 27.886719 47.074219 25.761719 44.886719 24.941406 L 39.515625 22.925781 L 39.515625 21.972656 C 40.371094 21.203125 41.027344 20.226562 41.40625 19.117188 C 43.535156 18.753906 45.160156 16.90625 45.160156 14.675781 L 45.160156 10.160156 C 45.160156 4.558594 40.601562 0 35 0 C 29.398438 0 24.839844 4.558594 24.839844 10.160156 L 24.839844 14.675781 C 24.839844 16.90625 26.464844 18.753906 28.59375 19.117188 Z M 37.257812 23.398438 L 35 27.160156 L 32.742188 23.398438 L 32.742188 23.3125 C 33.449219 23.566406 34.207031 23.710938 35 23.710938 C 35.792969 23.710938 36.550781 23.566406 37.257812 23.3125 Z M 31.128906 25.097656 L 33.40625 28.890625 L 31.144531 30.019531 L 29.683594 25.640625 Z M 46.289062 30.226562 L 46.289062 33.871094 L 23.710938 33.871094 L 23.710938 30.226562 C 23.710938 28.820312 24.59375 27.546875 25.90625 27.054688 L 27.566406 26.433594 L 29.824219 33.203125 L 35 30.617188 L 40.175781 33.203125 L 42.433594 26.433594 L 44.09375 27.054688 C 45.40625 27.546875 46.289062 28.820312 46.289062 30.226562 Z M 40.316406 25.640625 L 38.855469 30.019531 L 36.59375 28.890625 L 38.871094 25.097656 Z M 35 21.453125 C 32.507812 21.453125 30.484375 19.425781 30.484375 16.933594 L 30.484375 12.34375 C 32.136719 12.167969 33.695312 11.566406 35 10.539062 C 36.304688 11.566406 37.863281 12.167969 39.515625 12.34375 L 39.515625 16.933594 C 39.515625 19.425781 37.492188 21.453125 35 21.453125 Z M 41.773438 16.621094 L 41.773438 12.734375 C 42.445312 13.125 42.902344 13.847656 42.902344 14.679688 C 42.902344 15.511719 42.445312 16.230469 41.773438 16.621094 Z M 35 2.257812 C 39.355469 2.257812 42.902344 5.804688 42.902344 10.160156 L 42.902344 10.789062 C 42.234375 10.402344 41.472656 10.160156 40.644531 10.160156 L 40.449219 10.160156 C 38.691406 10.160156 37.039062 9.476562 35.796875 8.234375 L 35 7.433594 L 34.203125 8.234375 C 32.957031 9.476562 31.308594 10.160156 29.550781 10.160156 L 29.355469 10.160156 C 28.527344 10.160156 27.765625 10.402344 27.097656 10.789062 L 27.097656 10.160156 C 27.097656 5.804688 30.644531 2.257812 35 2.257812 Z M 28.226562 12.734375 L 28.226562 16.621094 C 27.554688 16.230469 27.097656 15.507812 27.097656 14.675781 C 27.097656 13.84375 27.554688 13.125 28.226562 12.734375 Z M 28.226562 12.734375 "/>
<path style=" stroke:none;fill-rule:nonzero;fill:rgb(0%,0%,0%);fill-opacity:1;" d="M 0 70 L 22.582031 70 L 22.582031 40.644531 L 0 40.644531 Z M 2.257812 42.902344 L 20.324219 42.902344 L 20.324219 67.742188 L 2.257812 67.742188 Z M 2.257812 42.902344 "/>
<path style=" stroke:none;fill-rule:nonzero;fill:rgb(0%,0%,0%);fill-opacity:1;" d="M 4.515625 45.160156 L 18.066406 45.160156 L 18.066406 47.417969 L 4.515625 47.417969 Z M 4.515625 45.160156 "/>
<path style=" stroke:none;fill-rule:nonzero;fill:rgb(0%,0%,0%);fill-opacity:1;" d="M 4.515625 49.675781 L 6.773438 49.675781 L 6.773438 51.933594 L 4.515625 51.933594 Z M 4.515625 49.675781 "/>
<path style=" stroke:none;fill-rule:nonzero;fill:rgb(0%,0%,0%);fill-opacity:1;" d="M 9.03125 49.675781 L 18.066406 49.675781 L 18.066406 51.933594 L 9.03125 51.933594 Z M 9.03125 49.675781 "/>
<path style=" stroke:none;fill-rule:nonzero;fill:rgb(0%,0%,0%);fill-opacity:1;" d="M 4.515625 54.195312 L 18.066406 54.195312 L 18.066406 56.453125 L 4.515625 56.453125 Z M 4.515625 54.195312 "/>
<path style=" stroke:none;fill-rule:nonzero;fill:rgb(0%,0%,0%);fill-opacity:1;" d="M 4.515625 58.710938 L 18.066406 58.710938 L 18.066406 60.96875 L 4.515625 60.96875 Z M 4.515625 58.710938 "/>
<path style=" stroke:none;fill-rule:nonzero;fill:rgb(0%,0%,0%);fill-opacity:1;" d="M 15.804688 63.226562 L 18.066406 63.226562 L 18.066406 65.484375 L 15.804688 65.484375 Z M 15.804688 63.226562 "/>
<path style=" stroke:none;fill-rule:nonzero;fill:rgb(0%,0%,0%);fill-opacity:1;" d="M 4.515625 63.226562 L 13.546875 63.226562 L 13.546875 65.484375 L 4.515625 65.484375 Z M 4.515625 63.226562 "/>
<path style=" stroke:none;fill-rule:nonzero;fill:rgb(0%,0%,0%);fill-opacity:1;" d="M 30.152344 50.476562 L 28.554688 48.878906 L 23.242188 54.195312 L 28.554688 59.507812 L 30.152344 57.910156 L 27.5625 55.324219 L 36.128906 55.324219 L 36.128906 53.066406 L 27.5625 53.066406 Z M 30.152344 50.476562 "/>
<path style=" stroke:none;fill-rule:nonzero;fill:rgb(0%,0%,0%);fill-opacity:1;" d="M 12.417969 18.066406 C 12.417969 17.441406 12.925781 16.933594 13.546875 16.933594 L 18.726562 16.933594 L 16.136719 19.523438 L 17.734375 21.121094 L 23.046875 15.804688 L 17.734375 10.492188 L 16.136719 12.089844 L 18.726562 14.675781 L 13.546875 14.675781 C 11.679688 14.675781 10.160156 16.199219 10.160156 18.066406 L 10.160156 38.386719 L 12.417969 38.386719 Z M 12.417969 18.066406 "/>
<path style=" stroke:none;fill-rule:nonzero;fill:rgb(0%,0%,0%);fill-opacity:1;" d="M 54.195312 18.066406 L 54.195312 32.273438 L 51.605469 29.6875 L 50.007812 31.28125 L 55.324219 36.597656 L 60.636719 31.28125 L 59.039062 29.6875 L 56.453125 32.273438 L 56.453125 18.066406 C 56.453125 16.199219 54.933594 14.675781 53.066406 14.675781 L 47.417969 14.675781 L 47.417969 16.933594 L 53.066406 16.933594 C 53.6875 16.933594 54.195312 17.441406 54.195312 18.066406 Z M 54.195312 18.066406 "/>
</g>
</svg>
