<?xml version="1.0" encoding="UTF-8"?>
<svg xmlns="http://www.w3.org/2000/svg" xmlns:xlink="http://www.w3.org/1999/xlink" width="45px" height="45px" viewBox="0 0 45 45" version="1.1">
<g id="surface1">
<path style=" stroke:none;fill-rule:nonzero;fill:#21a96a;fill-opacity:1;" d="M 35.238281 15.195312 C 32.03125 15.195312 29.207031 16.875 27.601562 19.398438 L 27.601562 13.867188 C 27.601562 13.765625 27.640625 13.691406 27.722656 13.636719 L 31.421875 11.09375 C 32.082031 10.636719 32.460938 9.917969 32.460938 9.113281 L 32.460938 2.425781 C 32.460938 1.234375 31.492188 0.261719 30.300781 0.261719 C 29.105469 0.261719 28.136719 1.234375 28.136719 2.425781 L 28.136719 7.917969 L 25.890625 9.210938 C 24.554688 9.984375 23.542969 10.375 22.605469 10.488281 C 21.355469 10.632812 20.621094 10.339844 19.605469 9.933594 C 19.21875 9.777344 18.785156 9.605469 18.289062 9.441406 C 16.878906 8.984375 13.78125 8.761719 12.695312 10.777344 C 10.09375 11.472656 8.210938 11.527344 6.445312 10.96875 C 5.179688 10.566406 3.632812 10.871094 2.410156 11.765625 C 1.335938 12.550781 0.71875 13.640625 0.71875 14.753906 L 0.71875 24.238281 C 0.71875 25.429688 1.691406 26.398438 2.882812 26.398438 C 3.148438 26.398438 3.402344 26.351562 3.640625 26.261719 L 3.640625 44.035156 C 3.640625 44.421875 3.953125 44.738281 4.34375 44.738281 L 8.433594 44.738281 C 8.808594 44.738281 9.117188 44.441406 9.132812 44.066406 L 9.355469 39.648438 L 9.574219 44.066406 C 9.59375 44.441406 9.902344 44.738281 10.277344 44.738281 L 14.367188 44.738281 C 14.753906 44.738281 15.070312 44.421875 15.070312 44.035156 L 15.070312 16.933594 L 15.644531 16.933594 L 15.644531 44.035156 C 15.644531 44.421875 15.957031 44.738281 16.347656 44.738281 L 20.703125 44.738281 C 21.078125 44.738281 21.386719 44.441406 21.402344 44.066406 L 21.625 39.5625 L 21.84375 44.066406 C 21.859375 44.441406 22.171875 44.738281 22.546875 44.738281 L 26.898438 44.738281 C 27.289062 44.738281 27.601562 44.421875 27.601562 44.035156 L 27.601562 29.074219 C 29.207031 31.597656 32.03125 33.277344 35.238281 33.277344 C 40.222656 33.277344 44.28125 29.222656 44.28125 24.234375 C 44.28125 19.25 40.222656 15.195312 35.238281 15.195312 Z M 17.855469 10.78125 C 18.304688 10.925781 18.699219 11.085938 19.082031 11.238281 C 20.152344 11.667969 21.164062 12.074219 22.769531 11.882812 C 23.90625 11.75 25.085938 11.300781 26.59375 10.429688 L 29.011719 9.035156 C 29.34375 8.84375 29.542969 8.5 29.542969 8.117188 L 29.542969 2.425781 C 29.542969 2.007812 29.882812 1.667969 30.300781 1.667969 C 30.714844 1.667969 31.054688 2.007812 31.054688 2.425781 L 31.054688 9.113281 C 31.054688 9.460938 30.910156 9.738281 30.625 9.933594 L 26.925781 12.476562 C 26.460938 12.796875 26.195312 13.304688 26.195312 13.867188 L 26.195312 23.535156 L 17.050781 23.535156 L 17.050781 15.867188 C 17.050781 15.859375 17.050781 15.847656 17.050781 15.839844 C 16.972656 13.96875 16.65625 12.898438 14.144531 11.160156 C 15.023438 10.265625 17.117188 10.539062 17.855469 10.78125 Z M 13.664062 43.332031 L 10.945312 43.332031 L 10.230469 28.953125 C 10.207031 28.488281 9.832031 28.136719 9.355469 28.136719 C 8.878906 28.136719 8.5 28.488281 8.476562 28.953125 L 7.761719 43.332031 L 5.046875 43.332031 L 5.046875 24.941406 L 13.664062 24.941406 Z M 14.367188 15.527344 C 13.976562 15.527344 13.664062 15.84375 13.664062 16.230469 L 13.664062 23.535156 L 5.046875 23.535156 L 5.046875 16.820312 C 5.046875 16.433594 4.730469 16.117188 4.34375 16.117188 C 3.953125 16.117188 3.640625 16.433594 3.640625 16.820312 L 3.640625 24.238281 C 3.640625 24.652344 3.300781 24.992188 2.882812 24.992188 C 2.464844 24.992188 2.125 24.652344 2.125 24.238281 L 2.125 14.753906 C 2.125 14.09375 2.535156 13.417969 3.242188 12.898438 C 4.09375 12.277344 5.183594 12.042969 6.019531 12.308594 C 8.550781 13.113281 10.988281 12.695312 13.070312 12.132812 C 15.324219 13.636719 15.558594 14.367188 15.628906 15.527344 Z M 26.195312 43.332031 L 23.214844 43.332031 L 22.5 28.667969 C 22.476562 28.199219 22.101562 27.847656 21.625 27.847656 C 21.144531 27.847656 20.769531 28.199219 20.746094 28.667969 L 20.03125 43.332031 L 17.050781 43.332031 L 17.050781 24.941406 L 26.195312 24.941406 Z M 35.238281 31.871094 C 31.027344 31.871094 27.605469 28.449219 27.601562 24.238281 L 27.601562 24.234375 C 27.605469 20.023438 31.027344 16.601562 35.238281 16.601562 C 39.445312 16.601562 42.875 20.027344 42.875 24.238281 C 42.875 28.445312 39.449219 31.871094 35.238281 31.871094 Z M 40.460938 20.023438 C 39.765625 19.324219 38.628906 19.324219 37.933594 20.023438 L 33.332031 24.625 L 32.308594 22.851562 C 32.070312 22.4375 31.683594 22.144531 31.222656 22.019531 C 30.761719 21.894531 30.277344 21.957031 29.867188 22.195312 C 29.453125 22.433594 29.15625 22.820312 29.035156 23.28125 C 28.910156 23.746094 28.972656 24.226562 29.210938 24.640625 L 31.464844 28.546875 C 31.734375 29.007812 32.175781 29.304688 32.707031 29.375 C 32.785156 29.382812 32.863281 29.390625 32.9375 29.390625 C 33.382812 29.390625 33.792969 29.21875 34.117188 28.894531 L 40.460938 22.550781 C 41.160156 21.851562 41.160156 20.71875 40.460938 20.023438 Z M 39.464844 21.554688 L 33.121094 27.898438 C 33.054688 27.96875 32.984375 27.992188 32.890625 27.980469 C 32.792969 27.964844 32.730469 27.925781 32.683594 27.84375 L 30.429688 23.9375 C 30.359375 23.820312 30.375 23.703125 30.390625 23.648438 C 30.40625 23.589844 30.449219 23.484375 30.570312 23.414062 C 30.636719 23.375 30.699219 23.363281 30.757812 23.363281 C 30.796875 23.363281 30.832031 23.371094 30.859375 23.378906 C 30.914062 23.394531 31.023438 23.4375 31.089844 23.554688 L 32.570312 26.121094 C 32.679688 26.308594 32.871094 26.4375 33.089844 26.464844 C 33.304688 26.496094 33.523438 26.421875 33.675781 26.265625 L 38.925781 21.015625 C 39.074219 20.871094 39.320312 20.871094 39.464844 21.015625 C 39.613281 21.164062 39.613281 21.410156 39.464844 21.554688 Z M 17.660156 15.609375 C 17.660156 15.21875 17.972656 14.90625 18.363281 14.90625 L 20.773438 14.90625 C 21.160156 14.90625 21.476562 15.21875 21.476562 15.609375 C 21.476562 15.996094 21.160156 16.3125 20.773438 16.3125 L 18.363281 16.3125 C 17.972656 16.3125 17.660156 15.996094 17.660156 15.609375 Z M 21.625 10.085938 C 23.992188 10.085938 25.917969 8.160156 25.917969 5.789062 C 25.917969 3.421875 23.992188 1.496094 21.625 1.496094 C 19.253906 1.496094 17.328125 3.421875 17.328125 5.789062 C 17.328125 8.160156 19.253906 10.085938 21.625 10.085938 Z M 21.625 2.902344 C 23.214844 2.902344 24.511719 4.199219 24.511719 5.789062 C 24.511719 7.382812 23.214844 8.679688 21.625 8.679688 C 20.03125 8.679688 18.734375 7.382812 18.734375 5.789062 C 18.734375 4.199219 20.03125 2.902344 21.625 2.902344 Z M 9.355469 10.945312 C 11.722656 10.945312 13.648438 9.019531 13.648438 6.648438 C 13.648438 4.28125 11.722656 2.355469 9.355469 2.355469 C 6.984375 2.355469 5.058594 4.28125 5.058594 6.648438 C 5.058594 9.019531 6.984375 10.945312 9.355469 10.945312 Z M 9.355469 3.761719 C 10.949219 3.761719 12.242188 5.058594 12.242188 6.648438 C 12.242188 8.242188 10.949219 9.539062 9.355469 9.539062 C 7.761719 9.539062 6.464844 8.242188 6.464844 6.648438 C 6.464844 5.058594 7.761719 3.761719 9.355469 3.761719 Z M 9.355469 3.761719 "/>
</g>
</svg>
