<?xml version="1.0" encoding="UTF-8"?>
<svg xmlns="http://www.w3.org/2000/svg" xmlns:xlink="http://www.w3.org/1999/xlink" width="45px" height="45px" viewBox="0 0 45 45" version="1.1">
<g id="surface1">
<path style=" stroke:none;fill-rule:nonzero;fill:#21a96a;fill-opacity:1;" d="M 22.5 4.21875 C 16.675781 4.21875 11.953125 8.941406 11.953125 14.765625 C 11.953125 20.589844 16.675781 25.3125 22.5 25.3125 C 28.324219 25.3125 33.046875 20.589844 33.046875 14.765625 C 33.046875 8.941406 28.324219 4.21875 22.5 4.21875 Z M 22.5 5.625 C 25.75 5.628906 28.753906 7.359375 30.386719 10.167969 C 32.019531 12.980469 32.039062 16.445312 30.4375 19.273438 C 29.328125 17.75 27.550781 16.855469 25.664062 16.875 C 25.542969 16.875 25.425781 16.90625 25.320312 16.964844 L 22.5 18.5625 L 19.6875 16.964844 C 19.582031 16.90625 19.460938 16.875 19.335938 16.875 C 17.457031 16.882812 15.6875 17.777344 14.570312 19.285156 C 13.777344 17.910156 13.359375 16.351562 13.359375 14.765625 C 13.359375 9.71875 17.453125 5.625 22.5 5.625 Z M 22.5 23.90625 C 19.753906 23.902344 17.152344 22.664062 15.417969 20.53125 C 16.207031 19.195312 17.613281 18.351562 19.160156 18.28125 L 22.15625 19.984375 C 22.371094 20.109375 22.640625 20.109375 22.859375 19.984375 L 25.839844 18.28125 C 26.988281 18.328125 28.078125 18.808594 28.890625 19.625 C 29.164062 19.894531 29.402344 20.203125 29.59375 20.539062 C 27.855469 22.671875 25.25 23.910156 22.5 23.90625 Z M 22.5 23.90625 "/>
<path style=" stroke:none;fill-rule:nonzero;fill:rgb(0%,0%,0%);fill-opacity:1;" d="M 40.78125 12.65625 L 40.78125 8.367188 C 42.550781 8.007812 43.757812 6.363281 43.574219 4.570312 C 43.394531 2.773438 41.882812 1.40625 40.078125 1.40625 C 38.273438 1.40625 36.761719 2.773438 36.582031 4.570312 C 36.398438 6.363281 37.605469 8.007812 39.375 8.367188 L 39.375 11.953125 L 35.558594 11.953125 C 34.226562 5.804688 28.789062 1.417969 22.5 1.417969 C 16.210938 1.417969 10.773438 5.804688 9.441406 11.953125 L 5.625 11.953125 L 5.625 8.367188 C 7.394531 8.007812 8.601562 6.363281 8.417969 4.570312 C 8.238281 2.773438 6.726562 1.40625 4.921875 1.40625 C 3.117188 1.40625 1.605469 2.773438 1.425781 4.570312 C 1.242188 6.363281 2.449219 8.007812 4.21875 8.367188 L 4.21875 12.65625 C 4.21875 13.042969 4.535156 13.359375 4.921875 13.359375 L 9.21875 13.359375 C 9.0625 14.769531 9.140625 16.191406 9.441406 17.578125 L 4.921875 17.578125 C 4.535156 17.578125 4.21875 17.894531 4.21875 18.28125 L 4.21875 21.164062 C 2.449219 21.523438 1.242188 23.167969 1.425781 24.960938 C 1.605469 26.757812 3.117188 28.125 4.921875 28.125 C 6.726562 28.125 8.238281 26.757812 8.417969 24.960938 C 8.601562 23.167969 7.394531 21.523438 5.625 21.164062 L 5.625 18.984375 L 9.84375 18.984375 C 11.570312 24.199219 16.3125 27.824219 21.796875 28.125 L 21.796875 32.34375 L 20.390625 32.34375 C 20.003906 32.34375 19.6875 32.660156 19.6875 33.046875 L 19.6875 40.78125 C 19.6875 42.335938 20.945312 43.59375 22.5 43.59375 C 24.054688 43.59375 25.3125 42.335938 25.3125 40.78125 L 25.3125 33.046875 C 25.3125 32.660156 24.996094 32.34375 24.609375 32.34375 L 23.203125 32.34375 L 23.203125 28.125 C 28.6875 27.824219 33.429688 24.199219 35.15625 18.984375 L 39.375 18.984375 L 39.375 21.164062 C 37.605469 21.523438 36.398438 23.167969 36.582031 24.960938 C 36.761719 26.757812 38.273438 28.125 40.078125 28.125 C 41.882812 28.125 43.394531 26.757812 43.574219 24.960938 C 43.757812 23.167969 42.550781 21.523438 40.78125 21.164062 L 40.78125 18.28125 C 40.78125 17.894531 40.464844 17.578125 40.078125 17.578125 L 35.558594 17.578125 C 35.859375 16.191406 35.9375 14.769531 35.78125 13.359375 L 40.078125 13.359375 C 40.464844 13.359375 40.78125 13.042969 40.78125 12.65625 Z M 2.8125 4.921875 C 2.8125 3.757812 3.757812 2.8125 4.921875 2.8125 C 6.085938 2.8125 7.03125 3.757812 7.03125 4.921875 C 7.03125 6.085938 6.085938 7.03125 4.921875 7.03125 C 3.757812 7.03125 2.8125 6.085938 2.8125 4.921875 Z M 7.03125 24.609375 C 7.03125 25.773438 6.085938 26.71875 4.921875 26.71875 C 3.757812 26.71875 2.8125 25.773438 2.8125 24.609375 C 2.8125 23.445312 3.757812 22.5 4.921875 22.5 C 6.085938 22.5 7.03125 23.445312 7.03125 24.609375 Z M 23.90625 40.78125 C 23.90625 41.558594 23.277344 42.1875 22.5 42.1875 C 21.722656 42.1875 21.09375 41.558594 21.09375 40.78125 L 21.09375 33.75 L 23.90625 33.75 Z M 42.1875 24.609375 C 42.1875 25.773438 41.242188 26.71875 40.078125 26.71875 C 38.914062 26.71875 37.96875 25.773438 37.96875 24.609375 C 37.96875 23.445312 38.914062 22.5 40.078125 22.5 C 41.242188 22.5 42.1875 23.445312 42.1875 24.609375 Z M 22.5 26.71875 C 15.898438 26.71875 10.546875 21.367188 10.546875 14.765625 C 10.546875 8.164062 15.898438 2.8125 22.5 2.8125 C 29.101562 2.8125 34.453125 8.164062 34.453125 14.765625 C 34.453125 21.367188 29.101562 26.71875 22.5 26.71875 Z M 37.96875 4.921875 C 37.96875 3.757812 38.914062 2.8125 40.078125 2.8125 C 41.242188 2.8125 42.1875 3.757812 42.1875 4.921875 C 42.1875 6.085938 41.242188 7.03125 40.078125 7.03125 C 38.914062 7.03125 37.96875 6.085938 37.96875 4.921875 Z M 37.96875 4.921875 "/>
<path style=" stroke:none;fill-rule:nonzero;fill:rgb(0%,0%,0%);fill-opacity:1;" d="M 22.5 16.875 C 25.21875 16.875 27.421875 14.671875 27.421875 11.953125 C 27.421875 9.234375 25.21875 7.03125 22.5 7.03125 C 19.78125 7.03125 17.578125 9.234375 17.578125 11.953125 C 17.578125 14.671875 19.78125 16.875 22.5 16.875 Z M 22.5 8.4375 C 24.441406 8.4375 26.015625 10.011719 26.015625 11.953125 C 26.015625 13.894531 24.441406 15.46875 22.5 15.46875 C 20.558594 15.46875 18.984375 13.894531 18.984375 11.953125 C 18.984375 10.011719 20.558594 8.4375 22.5 8.4375 Z M 22.5 8.4375 "/>
</g>
</svg>
