<?xml version="1.0" encoding="UTF-8"?>
<svg xmlns="http://www.w3.org/2000/svg" xmlns:xlink="http://www.w3.org/1999/xlink" width="45px" height="45px" viewBox="0 0 45 45" version="1.1">
<g id="surface1">
<path style=" stroke:none;fill-rule:nonzero;fill:#21a96a;fill-opacity:1;" d="M 37.519531 26.664062 L 30.121094 30.222656 C 30.003906 28.992188 29.179688 27.945312 28.011719 27.546875 L 19.410156 24.574219 C 18.3125 24.199219 17.109375 24.273438 16.070312 24.785156 L 11.601562 26.960938 L 8.742188 28.378906 L 8.558594 28 C 8.386719 27.652344 7.964844 27.507812 7.617188 27.675781 L 3.207031 29.824219 C 2.859375 29.996094 2.714844 30.417969 2.882812 30.765625 L 8.261719 41.792969 C 8.433594 42.140625 8.851562 42.285156 9.203125 42.117188 L 13.613281 39.964844 C 13.960938 39.792969 14.105469 39.375 13.933594 39.023438 L 13.664062 38.464844 L 16.117188 37.242188 C 16.535156 37.042969 17.015625 37.011719 17.453125 37.160156 L 23.253906 39.15625 C 24.351562 39.53125 25.554688 39.460938 26.601562 38.957031 L 40.414062 32.277344 C 41.246094 31.863281 41.855469 31.109375 42.082031 30.207031 C 42.308594 29.308594 42.128906 28.351562 41.59375 27.59375 C 40.636719 26.34375 38.925781 25.953125 37.519531 26.664062 Z M 9.21875 40.542969 L 4.457031 30.78125 L 7.601562 29.246094 L 12.363281 39.007812 Z M 40.726562 29.871094 C 40.601562 30.367188 40.261719 30.785156 39.800781 31.011719 L 25.988281 37.691406 C 25.277344 38.035156 24.460938 38.082031 23.714844 37.828125 L 17.902344 35.828125 C 16.300781 35.164062 14.429688 36.589844 13.046875 37.203125 L 9.359375 29.644531 L 16.6875 26.046875 C 17.394531 25.707031 18.210938 25.65625 18.957031 25.90625 L 27.554688 28.875 C 28.457031 29.199219 28.929688 30.183594 28.621094 31.089844 C 28.308594 31.996094 27.328125 32.484375 26.417969 32.183594 L 18.296875 29.386719 C 17.929688 29.269531 17.539062 29.464844 17.414062 29.828125 C 17.292969 30.191406 17.480469 30.585938 17.839844 30.71875 L 25.96875 33.515625 C 27.457031 34.011719 29.082031 33.339844 29.789062 31.941406 L 38.132812 27.929688 C 38.746094 27.589844 39.5 27.640625 40.058594 28.058594 C 40.621094 28.476562 40.882812 29.1875 40.726562 29.871094 Z M 40.726562 29.871094 "/>
<path style=" stroke:none;fill-rule:nonzero;fill:rgb(0%,0%,0%);fill-opacity:1;" d="M 30.742188 27.542969 C 31.128906 27.542969 31.445312 27.226562 31.445312 26.839844 L 31.445312 21.832031 C 31.4375 18.523438 29.132812 15.664062 25.898438 14.960938 C 27.601562 13.53125 28.230469 11.191406 27.46875 9.101562 C 26.710938 7.011719 24.722656 5.621094 22.5 5.621094 C 20.277344 5.621094 18.289062 7.011719 17.53125 9.101562 C 16.769531 11.191406 17.398438 13.53125 19.101562 14.960938 C 15.867188 15.664062 13.5625 18.523438 13.554688 21.832031 L 13.554688 23.316406 C 13.554688 23.703125 13.871094 24.019531 14.257812 24.019531 C 14.648438 24.019531 14.960938 23.703125 14.960938 23.316406 L 14.960938 21.832031 C 14.964844 18.726562 17.484375 16.210938 20.585938 16.207031 L 24.414062 16.207031 C 27.515625 16.210938 30.035156 18.726562 30.039062 21.832031 L 30.039062 26.839844 C 30.039062 27.226562 30.351562 27.542969 30.742188 27.542969 Z M 18.617188 10.914062 C 18.617188 8.769531 20.355469 7.03125 22.5 7.03125 C 24.644531 7.03125 26.382812 8.769531 26.382812 10.914062 C 26.382812 13.058594 24.644531 14.796875 22.5 14.796875 C 20.355469 14.796875 18.621094 13.058594 18.617188 10.914062 Z M 18.617188 10.914062 "/>
<path style=" stroke:none;fill-rule:nonzero;fill:rgb(0%,0%,0%);fill-opacity:1;" d="M 5.703125 26.964844 C 5.773438 26.964844 5.84375 26.953125 5.914062 26.933594 C 6.089844 26.875 6.238281 26.753906 6.324219 26.585938 C 6.414062 26.421875 6.429688 26.230469 6.375 26.050781 C 5.871094 24.445312 5.621094 22.773438 5.625 21.09375 C 5.625 11.832031 13.085938 4.300781 22.347656 4.21875 C 31.609375 4.136719 39.203125 11.535156 39.367188 20.796875 L 39.167969 20.597656 C 38.894531 20.324219 38.453125 20.328125 38.179688 20.601562 C 37.90625 20.875 37.902344 21.316406 38.175781 21.589844 L 39.582031 22.996094 C 39.855469 23.273438 40.300781 23.273438 40.574219 22.996094 L 41.980469 21.589844 C 42.160156 21.414062 42.230469 21.152344 42.167969 20.910156 C 42.101562 20.667969 41.910156 20.476562 41.667969 20.410156 C 41.425781 20.347656 41.164062 20.417969 40.988281 20.597656 L 40.773438 20.808594 C 40.617188 10.769531 32.394531 2.738281 22.355469 2.816406 C 12.316406 2.894531 4.21875 11.054688 4.21875 21.09375 C 4.214844 22.917969 4.488281 24.730469 5.03125 26.472656 C 5.125 26.765625 5.394531 26.964844 5.703125 26.964844 Z M 5.703125 26.964844 "/>
</g>
</svg>
