<?xml version="1.0" encoding="UTF-8"?>
<svg xmlns="http://www.w3.org/2000/svg" xmlns:xlink="http://www.w3.org/1999/xlink" width="40px" height="40px" viewBox="0 0 40 40" version="1.1">
<g id="surface1">
<path style=" stroke:none;fill-rule:evenodd;fill:rgb(0%,0%,0%);fill-opacity:1;" d="M 29.523438 35.210938 C 29.886719 35.3125 30.109375 35.371094 30.109375 35.371094 C 30.820312 35.566406 31.230469 36.292969 31.039062 37.007812 C 31.039062 37.007812 31.039062 37.007812 31.035156 37.011719 L 30.632812 38.480469 C 30.441406 39.175781 29.691406 39.597656 28.996094 39.40625 L 28.992188 39.40625 C 28.992188 39.40625 21.347656 37.285156 21.347656 37.285156 C 20.648438 37.09375 20.222656 36.359375 20.429688 35.644531 L 20.835938 34.179688 C 21.027344 33.480469 21.761719 33.058594 22.460938 33.253906 L 22.464844 33.253906 C 22.464844 33.253906 22.632812 33.300781 22.917969 33.378906 L 23.90625 29.648438 C 24.230469 28.433594 24.734375 27.371094 25.855469 26.800781 C 26.894531 26.265625 28.738281 25.53125 30.28125 24.457031 C 30.304688 24.4375 30.332031 24.421875 30.359375 24.410156 C 31.316406 23.929688 32.472656 24.21875 33.019531 25.136719 C 33.019531 25.140625 33.023438 25.148438 33.027344 25.152344 C 33.042969 25.175781 33.054688 25.203125 33.066406 25.230469 C 33.097656 25.152344 33.121094 25.070312 33.144531 24.988281 C 33.144531 24.988281 33.144531 24.988281 33.144531 24.984375 L 34.546875 19.6875 C 35.074219 17.683594 36.019531 16.933594 36.820312 16.773438 C 37.53125 16.632812 38.21875 16.921875 38.6875 17.414062 C 39.15625 17.910156 39.386719 18.605469 39.242188 19.222656 C 39.242188 19.222656 39.242188 19.222656 39.242188 19.226562 C 39.242188 19.226562 36.898438 29.039062 36.898438 29.039062 C 36.648438 30.121094 36.015625 30.945312 35.050781 31.503906 L 29.683594 34.597656 Z M 24.132812 33.714844 C 25.363281 34.058594 27.042969 34.523438 28.308594 34.875 L 28.535156 34.019531 C 28.578125 33.855469 28.683594 33.71875 28.828125 33.636719 L 34.417969 30.414062 C 35.070312 30.035156 35.503906 29.484375 35.671875 28.75 C 35.671875 28.75 35.671875 28.746094 35.675781 28.746094 C 35.675781 28.746094 38.015625 18.933594 38.015625 18.933594 C 38.066406 18.707031 37.945312 18.464844 37.773438 18.28125 C 37.226562 17.707031 36.3125 17.925781 35.765625 20.011719 C 35.765625 20.011719 34.363281 25.308594 34.363281 25.308594 C 34.128906 26.199219 33.640625 26.871094 32.890625 27.410156 L 32.890625 27.414062 C 32.890625 27.414062 32.402344 27.761719 32.402344 27.761719 C 32.398438 27.765625 32.390625 27.769531 32.382812 27.773438 C 31.472656 28.378906 30.542969 28.855469 29.546875 29.421875 C 29.246094 29.59375 28.859375 29.488281 28.6875 29.1875 C 28.515625 28.882812 28.621094 28.5 28.925781 28.328125 C 29.886719 27.777344 30.785156 27.320312 31.667969 26.738281 C 32.011719 26.460938 32.117188 26.113281 31.929688 25.773438 C 31.726562 25.445312 31.308594 25.363281 30.957031 25.519531 C 29.371094 26.613281 27.492188 27.375 26.429688 27.921875 C 25.640625 28.324219 25.351562 29.117188 25.125 29.972656 Z M 22.128906 34.46875 C 22.09375 34.457031 22.058594 34.480469 22.046875 34.511719 L 21.644531 35.980469 C 21.644531 35.984375 21.644531 35.988281 21.640625 35.992188 C 21.632812 36.027344 21.648438 36.0625 21.683594 36.070312 C 21.683594 36.070312 29.328125 38.191406 29.332031 38.191406 C 29.367188 38.203125 29.40625 38.183594 29.417969 38.144531 C 29.417969 38.144531 29.820312 36.679688 29.820312 36.675781 C 29.832031 36.640625 29.816406 36.597656 29.78125 36.589844 C 29.777344 36.589844 29.777344 36.589844 29.773438 36.585938 Z M 22.394531 35.226562 C 22.550781 35.015625 22.855469 34.96875 23.066406 35.125 C 23.269531 35.28125 23.3125 35.585938 23.160156 35.796875 C 23.003906 36.007812 22.707031 36.042969 22.496094 35.890625 C 22.285156 35.734375 22.238281 35.4375 22.394531 35.226562 Z M 10.46875 35.210938 L 10.304688 34.597656 L 4.941406 31.503906 C 4.941406 31.503906 4.9375 31.503906 4.9375 31.503906 C 3.984375 30.945312 3.355469 30.125 3.09375 29.042969 C 3.089844 29.039062 3.089844 29.039062 3.089844 29.039062 L 0.757812 19.222656 C 0.613281 18.605469 0.839844 17.910156 1.3125 17.414062 C 1.777344 16.921875 2.464844 16.632812 3.175781 16.773438 C 3.972656 16.933594 4.917969 17.683594 5.453125 19.6875 L 6.847656 24.988281 C 6.871094 25.074219 6.894531 25.15625 6.925781 25.238281 C 6.941406 25.207031 6.960938 25.175781 6.976562 25.144531 C 7.511719 24.21875 8.683594 23.929688 9.636719 24.410156 C 9.660156 24.425781 9.683594 24.4375 9.707031 24.453125 C 11.261719 25.527344 13.097656 26.265625 14.144531 26.796875 C 14.144531 26.796875 14.144531 26.800781 14.144531 26.800781 C 15.253906 27.371094 15.769531 28.433594 16.09375 29.648438 L 17.082031 33.375 L 17.527344 33.253906 C 18.222656 33.0625 18.953125 33.472656 19.160156 34.164062 C 19.164062 34.171875 19.164062 34.175781 19.167969 34.179688 L 19.570312 35.648438 C 19.570312 35.648438 19.570312 35.652344 19.570312 35.652344 C 19.761719 36.367188 19.339844 37.09375 18.644531 37.285156 L 10.996094 39.40625 C 10.296875 39.597656 9.5625 39.179688 9.367188 38.480469 L 8.953125 37.015625 C 8.953125 37.011719 8.953125 37.007812 8.953125 37.007812 C 8.761719 36.292969 9.183594 35.566406 9.878906 35.375 Z M 15.867188 33.710938 L 14.875 29.972656 C 14.648438 29.113281 14.351562 28.324219 13.570312 27.921875 C 12.496094 27.375 10.628906 26.613281 9.03125 25.519531 C 8.683594 25.359375 8.261719 25.441406 8.070312 25.773438 C 7.875 26.113281 7.984375 26.460938 8.324219 26.738281 C 9.214844 27.320312 10.113281 27.777344 11.074219 28.328125 C 11.378906 28.5 11.484375 28.882812 11.3125 29.1875 C 11.140625 29.488281 10.753906 29.59375 10.453125 29.421875 C 9.457031 28.855469 8.53125 28.378906 7.609375 27.777344 C 7.601562 27.769531 7.589844 27.765625 7.582031 27.757812 C 7.5625 27.742188 7.105469 27.410156 7.105469 27.410156 C 6.359375 26.871094 5.859375 26.195312 5.628906 25.308594 L 4.234375 20.011719 C 3.679688 17.925781 2.769531 17.707031 2.226562 18.28125 C 2.054688 18.464844 1.933594 18.707031 1.984375 18.933594 C 1.984375 18.933594 4.316406 28.746094 4.316406 28.746094 C 4.496094 29.480469 4.925781 30.035156 5.574219 30.414062 L 11.160156 33.636719 C 11.304688 33.71875 11.414062 33.855469 11.457031 34.019531 L 11.683594 34.875 Z M 17.863281 34.46875 L 10.214844 36.585938 C 10.175781 36.597656 10.160156 36.640625 10.167969 36.679688 L 10.582031 38.140625 C 10.582031 38.144531 10.582031 38.144531 10.582031 38.144531 C 10.589844 38.179688 10.628906 38.199219 10.660156 38.191406 L 18.308594 36.070312 C 18.347656 36.058594 18.363281 36.019531 18.355469 35.980469 C 18.355469 35.980469 17.953125 34.523438 17.953125 34.523438 C 17.941406 34.484375 17.902344 34.457031 17.863281 34.46875 Z M 17.59375 35.226562 C 17.75 35.4375 17.714844 35.734375 17.503906 35.890625 C 17.292969 36.042969 16.996094 36.007812 16.84375 35.796875 C 16.675781 35.585938 16.722656 35.28125 16.933594 35.125 C 17.144531 34.96875 17.4375 35.015625 17.59375 35.226562 Z M 20 27.9375 C 16.183594 27.9375 13.066406 24.824219 13.066406 21.007812 C 13.066406 17.191406 16.183594 14.074219 20 14.074219 C 23.816406 14.074219 26.933594 17.191406 26.933594 21.007812 C 26.933594 24.824219 23.816406 27.9375 20 27.9375 Z M 20 26.683594 C 23.125 26.683594 25.675781 24.132812 25.675781 21.007812 C 25.675781 17.882812 23.125 15.328125 20 15.328125 C 16.875 15.328125 14.324219 17.882812 14.324219 21.007812 C 14.324219 24.132812 16.875 26.683594 20 26.683594 Z M 19.371094 17.296875 L 19.371094 16.945312 C 19.371094 16.597656 19.652344 16.316406 20 16.316406 C 20.347656 16.316406 20.628906 16.597656 20.628906 16.945312 L 20.628906 17.289062 C 21.394531 17.457031 22.101562 17.945312 22.46875 18.8125 C 22.601562 19.132812 22.453125 19.5 22.132812 19.636719 C 21.8125 19.769531 21.445312 19.617188 21.3125 19.300781 C 20.972656 18.496094 20.074219 18.335938 19.429688 18.589844 C 19.058594 18.734375 18.761719 19.03125 18.78125 19.464844 C 18.796875 19.804688 19.019531 19.996094 19.28125 20.125 C 19.535156 20.25 19.832031 20.320312 20.109375 20.367188 C 21.25 20.550781 22.503906 21.074219 22.671875 22.433594 C 22.832031 23.761719 21.757812 24.53125 20.628906 24.734375 L 20.628906 25.070312 C 20.628906 25.414062 20.347656 25.695312 20 25.695312 C 19.652344 25.695312 19.371094 25.414062 19.371094 25.070312 L 19.371094 24.726562 C 18.414062 24.53125 17.585938 23.90625 17.332031 22.886719 C 17.25 22.550781 17.453125 22.207031 17.789062 22.125 C 18.125 22.042969 18.464844 22.246094 18.550781 22.582031 C 18.71875 23.261719 19.40625 23.546875 20.070312 23.53125 C 20.425781 23.523438 20.824219 23.4375 21.117188 23.234375 C 21.320312 23.09375 21.460938 22.882812 21.425781 22.585938 C 21.378906 22.199219 21.117188 21.992188 20.8125 21.851562 C 20.527344 21.722656 20.207031 21.652344 19.90625 21.605469 L 19.902344 21.605469 C 18.785156 21.417969 17.59375 20.855469 17.527344 19.527344 C 17.480469 18.511719 18.105469 17.761719 18.96875 17.421875 C 19.097656 17.371094 19.234375 17.328125 19.371094 17.296875 Z M 31.113281 15.125 C 27.296875 15.125 24.183594 12.011719 24.183594 8.195312 C 24.183594 4.378906 27.296875 1.261719 31.113281 1.261719 C 34.933594 1.261719 38.046875 4.378906 38.046875 8.195312 C 38.046875 12.011719 34.933594 15.125 31.113281 15.125 Z M 31.113281 13.871094 C 34.242188 13.871094 36.792969 11.320312 36.792969 8.195312 C 36.792969 5.066406 34.242188 2.515625 31.113281 2.515625 C 27.988281 2.515625 25.4375 5.066406 25.4375 8.195312 C 25.4375 11.320312 27.988281 13.871094 31.113281 13.871094 Z M 30.714844 12.484375 C 29.863281 11.980469 28.578125 11.085938 27.679688 10.039062 C 27.007812 9.257812 26.558594 8.386719 26.542969 7.527344 C 26.519531 6.207031 27.269531 5.257812 28.285156 4.914062 C 29.117188 4.628906 30.160156 4.746094 31.113281 5.480469 C 32.066406 4.75 33.109375 4.628906 33.945312 4.914062 C 34.960938 5.257812 35.710938 6.207031 35.6875 7.527344 C 35.671875 8.386719 35.21875 9.257812 34.550781 10.039062 C 33.648438 11.085938 32.367188 11.980469 31.515625 12.484375 C 31.261719 12.632812 30.96875 12.632812 30.714844 12.484375 Z M 31.113281 11.257812 C 31.867188 10.792969 32.871094 10.066406 33.597656 9.222656 C 34.0625 8.679688 34.421875 8.097656 34.433594 7.503906 C 34.445312 6.804688 34.078125 6.285156 33.539062 6.101562 C 32.949219 5.898438 32.207031 6.097656 31.5625 6.757812 C 31.441406 6.875 31.28125 6.945312 31.113281 6.945312 C 30.945312 6.945312 30.785156 6.875 30.667969 6.757812 C 30.019531 6.097656 29.277344 5.898438 28.691406 6.101562 C 28.152344 6.285156 27.785156 6.804688 27.796875 7.503906 C 27.808594 8.097656 28.167969 8.679688 28.632812 9.222656 C 29.355469 10.066406 30.363281 10.792969 31.113281 11.257812 Z M 8.886719 15.125 C 5.066406 15.125 1.953125 12.011719 1.953125 8.195312 C 1.953125 4.375 5.066406 1.261719 8.886719 1.261719 C 12.703125 1.261719 15.816406 4.375 15.816406 8.195312 C 15.816406 12.011719 12.703125 15.125 8.886719 15.125 Z M 8.886719 13.871094 C 12.011719 13.871094 14.5625 11.320312 14.5625 8.195312 C 14.5625 5.066406 12.011719 2.515625 8.886719 2.515625 C 5.757812 2.515625 3.207031 5.066406 3.207031 8.195312 C 3.207031 11.320312 5.757812 13.871094 8.886719 13.871094 Z M 7.824219 4.285156 L 9.949219 4.285156 C 10.292969 4.285156 10.574219 4.566406 10.574219 4.914062 L 10.574219 6.503906 L 12.167969 6.503906 C 12.511719 6.503906 12.792969 6.785156 12.792969 7.132812 L 12.792969 9.257812 C 12.792969 9.601562 12.511719 9.882812 12.167969 9.882812 L 10.574219 9.882812 L 10.574219 11.476562 C 10.574219 11.824219 10.292969 12.101562 9.949219 12.101562 L 7.824219 12.101562 C 7.476562 12.101562 7.195312 11.824219 7.195312 11.476562 L 7.195312 9.882812 L 5.605469 9.882812 C 5.257812 9.882812 4.976562 9.601562 4.976562 9.257812 L 4.976562 7.132812 C 4.976562 6.785156 5.257812 6.503906 5.605469 6.503906 L 7.195312 6.503906 L 7.195312 4.914062 C 7.195312 4.566406 7.476562 4.285156 7.824219 4.285156 Z M 8.449219 5.539062 L 8.449219 7.132812 C 8.449219 7.480469 8.167969 7.757812 7.824219 7.757812 L 6.230469 7.757812 L 6.230469 8.628906 L 7.824219 8.628906 C 8.167969 8.628906 8.449219 8.910156 8.449219 9.257812 L 8.449219 10.847656 L 9.320312 10.847656 L 9.320312 9.257812 C 9.320312 8.910156 9.601562 8.628906 9.949219 8.628906 L 11.539062 8.628906 L 11.539062 7.757812 L 9.949219 7.757812 C 9.601562 7.757812 9.320312 7.480469 9.320312 7.132812 L 9.320312 5.539062 Z M 19.371094 1.175781 C 19.371094 0.832031 19.652344 0.550781 20 0.550781 C 20.347656 0.550781 20.628906 0.832031 20.628906 1.175781 L 20.628906 3.0625 C 20.628906 3.410156 20.347656 3.691406 20 3.691406 C 19.652344 3.691406 19.371094 3.410156 19.371094 3.0625 Z M 23.132812 3.679688 C 23.476562 3.679688 23.757812 3.960938 23.757812 4.308594 C 23.757812 4.65625 23.476562 4.9375 23.132812 4.9375 L 21.246094 4.9375 C 20.898438 4.9375 20.617188 4.65625 20.617188 4.308594 C 20.617188 3.960938 20.898438 3.679688 21.246094 3.679688 Z M 20.628906 7.441406 C 20.628906 7.785156 20.347656 8.066406 20 8.066406 C 19.652344 8.066406 19.371094 7.785156 19.371094 7.441406 L 19.371094 5.554688 C 19.371094 5.207031 19.652344 4.925781 20 4.925781 C 20.347656 4.925781 20.628906 5.207031 20.628906 5.554688 Z M 16.867188 4.9375 C 16.523438 4.9375 16.242188 4.65625 16.242188 4.308594 C 16.242188 3.960938 16.523438 3.679688 16.867188 3.679688 L 18.753906 3.679688 C 19.101562 3.679688 19.382812 3.960938 19.382812 4.308594 C 19.382812 4.65625 19.101562 4.9375 18.753906 4.9375 Z M 16.867188 4.9375 "/>
</g>
</svg>
