<?xml version="1.0" encoding="UTF-8"?>
<svg xmlns="http://www.w3.org/2000/svg" xmlns:xlink="http://www.w3.org/1999/xlink" width="70px" height="70px" viewBox="0 0 70 70" version="1.1">
<g id="surface1">
<path style=" stroke:none;fill-rule:nonzero;fill:rgb(0%,0%,0%);fill-opacity:1;" d="M 66.214844 26.128906 C 66.375 26.210938 66.546875 26.25 66.71875 26.25 C 66.917969 26.25 67.113281 26.195312 67.289062 26.089844 C 67.613281 25.890625 67.8125 25.539062 67.8125 25.15625 L 67.8125 19.6875 C 67.8125 19.277344 67.582031 18.90625 67.222656 18.714844 L 61.25 15.628906 L 61.25 8.75 L 62.34375 8.75 C 62.949219 8.75 63.4375 8.261719 63.4375 7.65625 L 63.4375 3.28125 C 63.4375 2.675781 62.949219 2.1875 62.34375 2.1875 L 50.3125 2.1875 C 49.707031 2.1875 49.21875 2.675781 49.21875 3.28125 L 49.21875 7.65625 C 49.21875 8.261719 49.707031 8.75 50.3125 8.75 L 51.40625 8.75 L 51.40625 10.535156 L 35.503906 2.308594 C 35.1875 2.148438 34.8125 2.148438 34.496094 2.308594 L 21.679688 8.9375 C 21.144531 9.21875 20.933594 9.875 21.210938 10.414062 C 21.488281 10.949219 22.148438 11.160156 22.6875 10.882812 L 33.90625 5.078125 L 33.90625 8.082031 L 4.375 23.359375 L 4.375 20.351562 L 18.800781 12.890625 C 19.335938 12.613281 19.546875 11.953125 19.269531 11.417969 C 18.992188 10.878906 18.332031 10.667969 17.796875 10.949219 L 2.777344 18.714844 C 2.414062 18.90625 2.1875 19.277344 2.1875 19.6875 L 2.1875 25.15625 C 2.1875 25.539062 2.386719 25.890625 2.710938 26.089844 C 3.039062 26.289062 3.441406 26.300781 3.785156 26.128906 L 5.46875 25.253906 L 5.46875 57.96875 C 5.46875 58.574219 5.957031 59.0625 6.5625 59.0625 C 7.167969 59.0625 7.65625 58.574219 7.65625 57.96875 L 7.65625 24.125 L 35 9.980469 L 62.34375 24.125 L 62.34375 61.25 L 57.96875 61.25 L 57.96875 53.59375 C 57.96875 49.972656 55.027344 47.03125 51.40625 47.03125 L 51.40625 47.003906 C 52.726562 46.003906 53.59375 44.433594 53.59375 42.65625 L 53.59375 38.28125 C 53.59375 37.675781 53.105469 37.1875 52.5 37.1875 C 51.398438 37.1875 50.320312 36.738281 49.539062 35.960938 L 48.898438 35.320312 C 48.46875 34.894531 47.78125 34.894531 47.351562 35.320312 L 46.710938 35.960938 C 45.929688 36.738281 44.851562 37.1875 43.75 37.1875 C 43.144531 37.1875 42.65625 37.675781 42.65625 38.28125 L 42.65625 42.65625 C 42.65625 44.4375 43.523438 46.003906 44.84375 47.003906 L 44.84375 47.03125 C 41.222656 47.03125 38.28125 49.972656 38.28125 53.59375 L 38.28125 61.25 L 32.8125 61.25 L 32.8125 48.125 C 34.621094 48.125 36.09375 46.652344 36.09375 44.84375 L 36.09375 42.792969 L 38.25 34.171875 C 38.332031 33.84375 38.257812 33.5 38.050781 33.234375 C 37.839844 32.96875 37.523438 32.8125 37.1875 32.8125 L 21.875 32.8125 C 21.539062 32.8125 21.21875 32.96875 21.011719 33.234375 C 20.804688 33.5 20.730469 33.84375 20.8125 34.171875 L 22.96875 42.792969 L 22.96875 44.84375 C 22.96875 46.652344 24.441406 48.125 26.25 48.125 L 26.25 61.25 L 22.042969 61.25 L 22.824219 55.78125 L 22.96875 55.78125 C 23.574219 55.78125 24.0625 55.292969 24.0625 54.6875 C 24.0625 54.082031 23.574219 53.59375 22.96875 53.59375 L 12.03125 53.59375 L 12.03125 51.40625 L 22.96875 51.40625 C 23.574219 51.40625 24.0625 50.917969 24.0625 50.3125 C 24.0625 49.707031 23.574219 49.21875 22.96875 49.21875 L 22.96875 48.671875 C 22.96875 45.355469 20.269531 42.65625 16.953125 42.65625 C 13.636719 42.65625 10.9375 45.355469 10.9375 48.671875 L 10.9375 49.21875 C 10.332031 49.21875 9.84375 49.707031 9.84375 50.3125 L 9.84375 54.6875 C 9.84375 55.292969 10.332031 55.78125 10.9375 55.78125 L 11.082031 55.78125 L 11.863281 61.25 L 3.28125 61.25 C 2.675781 61.25 2.1875 61.738281 2.1875 62.34375 L 2.1875 66.71875 C 2.1875 67.324219 2.675781 67.8125 3.28125 67.8125 L 38.28125 67.8125 C 38.886719 67.8125 39.375 67.324219 39.375 66.71875 C 39.375 66.113281 38.886719 65.625 38.28125 65.625 L 4.375 65.625 L 4.375 63.4375 L 65.625 63.4375 L 65.625 65.625 L 42.65625 65.625 C 42.050781 65.625 41.5625 66.113281 41.5625 66.71875 C 41.5625 67.324219 42.050781 67.8125 42.65625 67.8125 L 66.71875 67.8125 C 67.324219 67.8125 67.8125 67.324219 67.8125 66.71875 L 67.8125 62.34375 C 67.8125 61.738281 67.324219 61.25 66.71875 61.25 L 64.53125 61.25 L 64.53125 25.253906 Z M 55.78125 61.25 L 54.519531 61.25 L 53.605469 55.769531 L 54.375 50.398438 C 55.234375 51.199219 55.78125 52.328125 55.78125 53.59375 Z M 47.03125 48.015625 C 47.382812 48.085938 47.75 48.125 48.125 48.125 C 48.5 48.125 48.867188 48.085938 49.21875 48.015625 L 49.21875 48.765625 L 48.125 49.859375 L 47.03125 48.765625 Z M 44.84375 39.277344 C 46.066406 39.0625 47.21875 38.492188 48.125 37.636719 C 49.03125 38.492188 50.183594 39.0625 51.40625 39.277344 L 51.40625 42.65625 C 51.40625 44.464844 49.933594 45.9375 48.125 45.9375 C 46.316406 45.9375 44.84375 44.464844 44.84375 42.65625 Z M 45.164062 49.992188 L 47.351562 52.179688 C 47.566406 52.394531 47.84375 52.5 48.125 52.5 C 48.40625 52.5 48.683594 52.394531 48.898438 52.179688 L 51.085938 49.992188 C 51.292969 49.789062 51.40625 49.507812 51.40625 49.21875 C 51.71875 49.21875 52.023438 49.253906 52.320312 49.316406 L 51.550781 54.6875 L 44.699219 54.6875 L 43.929688 49.316406 C 44.226562 49.253906 44.53125 49.21875 44.84375 49.21875 C 44.84375 49.507812 44.957031 49.789062 45.164062 49.992188 Z M 40.46875 53.59375 C 40.46875 52.328125 41.015625 51.199219 41.875 50.398438 L 42.644531 55.769531 L 41.730469 61.25 L 40.46875 61.25 Z M 30.625 35 L 30.625 36.09375 C 30.625 36.699219 31.113281 37.1875 31.71875 37.1875 C 32.324219 37.1875 32.8125 36.699219 32.8125 36.09375 L 32.8125 35 L 35.785156 35 L 34.144531 41.5625 L 32.8125 41.5625 L 32.8125 39.375 C 32.8125 38.769531 32.324219 38.28125 31.71875 38.28125 C 31.113281 38.28125 30.625 38.769531 30.625 39.375 L 30.625 41.5625 L 29.292969 41.5625 L 28.40625 38.015625 C 28.257812 37.429688 27.664062 37.074219 27.078125 37.21875 C 26.492188 37.367188 26.136719 37.960938 26.28125 38.546875 L 27.035156 41.5625 L 24.917969 41.5625 L 23.277344 35 Z M 25.15625 44.84375 L 25.15625 43.75 L 33.90625 43.75 L 33.90625 44.84375 C 33.90625 45.445312 33.414062 45.9375 32.8125 45.9375 L 26.25 45.9375 C 25.648438 45.9375 25.15625 45.445312 25.15625 44.84375 Z M 13.125 48.671875 C 13.125 46.5625 14.84375 44.84375 16.953125 44.84375 C 19.0625 44.84375 20.78125 46.5625 20.78125 48.671875 L 20.78125 49.21875 L 13.125 49.21875 Z M 14.074219 61.25 L 13.292969 55.78125 L 20.613281 55.78125 L 19.832031 61.25 Z M 28.4375 61.25 L 28.4375 48.125 L 30.625 48.125 L 30.625 61.25 Z M 43.949219 61.25 L 44.675781 56.875 L 51.574219 56.875 L 52.304688 61.25 Z M 65.625 23.359375 L 36.09375 8.082031 L 36.09375 5.078125 L 65.625 20.351562 Z M 51.40625 4.375 L 61.25 4.375 L 61.25 6.5625 L 51.40625 6.5625 Z M 53.59375 8.75 L 59.0625 8.75 L 59.0625 14.496094 L 53.59375 11.667969 Z M 53.59375 8.75 "/>
<path style=" stroke:none;fill-rule:nonzero;fill:rgb(0%,0%,0%);fill-opacity:1;" d="M 39.375 14.21875 L 30.625 14.21875 C 30.019531 14.21875 29.53125 14.707031 29.53125 15.3125 L 29.53125 24.0625 C 29.53125 24.667969 30.019531 25.15625 30.625 25.15625 L 39.375 25.15625 C 39.980469 25.15625 40.46875 24.667969 40.46875 24.0625 L 40.46875 15.3125 C 40.46875 14.707031 39.980469 14.21875 39.375 14.21875 Z M 38.28125 18.59375 L 36.09375 18.59375 L 36.09375 16.40625 L 38.28125 16.40625 Z M 31.71875 16.40625 L 33.90625 16.40625 L 33.90625 18.59375 L 31.71875 18.59375 Z M 31.71875 20.78125 L 33.90625 20.78125 L 33.90625 22.96875 L 31.71875 22.96875 Z M 38.28125 22.96875 L 36.09375 22.96875 L 36.09375 20.78125 L 38.28125 20.78125 Z M 38.28125 22.96875 "/>
<path style=" stroke:none;fill-rule:nonzero;fill:rgb(0%,0%,0%);fill-opacity:1;" d="M 38.28125 39.375 L 38.28125 43.75 C 38.28125 44.355469 38.769531 44.84375 39.375 44.84375 C 39.980469 44.84375 40.46875 44.355469 40.46875 43.75 L 40.46875 39.375 C 40.46875 36.945312 41.628906 34.679688 43.550781 33.246094 L 43.785156 34.171875 C 43.871094 34.515625 44.117188 34.796875 44.449219 34.925781 C 44.777344 35.054688 45.152344 35.011719 45.449219 34.816406 C 47.074219 33.734375 49.175781 33.734375 50.800781 34.816406 C 50.980469 34.9375 51.195312 35 51.40625 35 C 51.539062 35 51.671875 34.976562 51.800781 34.925781 C 52.132812 34.796875 52.378906 34.515625 52.464844 34.171875 L 52.699219 33.246094 C 54.621094 34.679688 55.78125 36.945312 55.78125 39.375 L 55.78125 43.75 C 55.78125 44.355469 56.269531 44.84375 56.875 44.84375 C 57.480469 44.84375 57.96875 44.355469 57.96875 43.75 L 57.96875 39.375 C 57.96875 35.953125 56.167969 32.796875 53.257812 31.007812 L 53.5625 29.796875 C 53.667969 29.367188 53.507812 28.917969 53.15625 28.65625 C 50.195312 26.433594 46.054688 26.433594 43.09375 28.65625 C 42.742188 28.917969 42.582031 29.371094 42.691406 29.796875 L 42.992188 31.007812 C 40.082031 32.796875 38.28125 35.953125 38.28125 39.375 Z M 51.253906 30.011719 L 50.679688 32.300781 C 49.859375 31.976562 48.992188 31.816406 48.125 31.816406 C 47.257812 31.816406 46.390625 31.976562 45.570312 32.300781 L 44.996094 30.011719 C 46.917969 28.894531 49.332031 28.894531 51.253906 30.011719 Z M 51.253906 30.011719 "/>
</g>
</svg>
