<?xml version="1.0" encoding="UTF-8"?>
<svg xmlns="http://www.w3.org/2000/svg" xmlns:xlink="http://www.w3.org/1999/xlink" width="70px" height="70px" viewBox="0 0 70 70" version="1.1">
<g id="surface1">
<path style=" stroke:none;fill-rule:nonzero;fill:rgb(0%,0%,0%);fill-opacity:1;" d="M 35 53.59375 C 33.191406 53.59375 31.71875 55.066406 31.71875 56.875 C 31.71875 58.683594 33.191406 60.15625 35 60.15625 C 36.808594 60.15625 38.28125 58.683594 38.28125 56.875 C 38.28125 55.066406 36.808594 53.59375 35 53.59375 Z M 35 57.96875 C 34.398438 57.96875 33.90625 57.480469 33.90625 56.875 C 33.90625 56.269531 34.398438 55.78125 35 55.78125 C 35.601562 55.78125 36.09375 56.269531 36.09375 56.875 C 36.09375 57.480469 35.601562 57.96875 35 57.96875 Z M 35 57.96875 "/>
<path style=" stroke:none;fill-rule:nonzero;fill:rgb(0%,0%,0%);fill-opacity:1;" d="M 51.40625 43.75 L 68.90625 43.75 L 68.90625 41 C 68.90625 38.105469 68.101562 35.355469 66.675781 32.996094 C 67.214844 32.367188 67.8125 31.507812 67.8125 30.074219 C 67.8125 28.429688 67.019531 27.539062 66.441406 26.886719 C 65.949219 26.332031 65.625 25.964844 65.625 25.152344 C 65.625 24.335938 65.949219 23.96875 66.441406 23.417969 C 67.019531 22.765625 67.8125 21.875 67.8125 20.230469 C 67.8125 18.585938 67.019531 17.695312 66.441406 17.042969 C 65.949219 16.492188 65.625 16.125 65.625 15.3125 L 65.625 12.03125 C 65.625 6 60.71875 1.09375 54.6875 1.09375 C 48.65625 1.09375 43.75 6 43.75 12.03125 L 43.75 15.3125 C 43.75 16.125 43.425781 16.492188 42.933594 17.042969 C 42.355469 17.695312 41.5625 18.582031 41.5625 20.230469 C 41.5625 21.875 42.355469 22.765625 42.933594 23.417969 C 43.34375 23.878906 43.625 24.226562 43.710938 24.796875 C 41.601562 22.335938 38.476562 20.78125 35 20.78125 C 29.769531 20.78125 25.335938 24.292969 23.972656 29.132812 C 22.644531 28.019531 21.136719 27.125 19.511719 26.511719 L 19.242188 25.433594 C 20.515625 24.652344 21.457031 23.382812 21.765625 21.875 L 21.875 21.875 C 24.289062 21.875 26.25 19.914062 26.25 17.5 C 26.25 16.640625 25.992188 15.84375 25.5625 15.164062 C 26.007812 14.238281 26.25 13.226562 26.25 12.191406 L 26.25 11.070312 C 26.25 8.0625 24.304688 5.429688 21.46875 4.527344 L 21.21875 4.152344 C 19.941406 2.238281 17.804688 1.09375 15.503906 1.09375 L 14.375 1.09375 C 8.863281 1.09375 4.375 5.582031 4.375 11.09375 C 4.375 12.429688 4.664062 13.757812 5.179688 14.984375 C 4.675781 15.699219 4.375 16.5625 4.375 17.5 C 4.375 19.914062 6.335938 21.875 8.75 21.875 L 8.859375 21.875 C 9.167969 23.382812 10.109375 24.652344 11.382812 25.433594 L 11.113281 26.507812 C 5.09375 28.777344 1.09375 34.527344 1.09375 41 L 1.09375 43.75 L 18.59375 43.75 L 18.59375 55.414062 C 17.890625 57.375 17.5 59.472656 17.5 61.652344 C 17.5 65.652344 20.753906 68.90625 24.753906 68.90625 L 51.40625 68.90625 L 51.40625 68.894531 C 54.53125 68.835938 57.230469 66.816406 58.152344 63.820312 L 60.964844 54.6875 L 63.4375 54.6875 C 65.246094 54.6875 66.71875 53.214844 66.71875 51.40625 C 66.71875 49.597656 65.246094 48.125 63.4375 48.125 L 62.78125 48.125 C 61.96875 47.417969 60.941406 47.03125 59.851562 47.03125 C 58.3125 47.03125 56.855469 47.847656 56.050781 49.15625 L 51.960938 55.800781 C 51.789062 55.367188 51.605469 54.9375 51.40625 54.519531 Z M 42.484375 45.324219 C 44.683594 44.5 46.332031 43.683594 46.425781 43.636719 L 47.070312 43.316406 L 46.636719 35.078125 C 48.109375 35.398438 49.21875 36.710938 49.21875 38.28125 L 49.21875 50.964844 C 47.425781 48.621094 45.128906 46.691406 42.484375 45.324219 Z M 36.09375 41.5625 L 33.90625 41.5625 C 32.097656 41.5625 30.625 40.089844 30.625 38.28125 L 30.625 33.28125 C 30.625 33.023438 30.835938 32.8125 31.09375 32.8125 L 38.90625 32.8125 C 39.164062 32.8125 39.375 33.023438 39.375 33.28125 L 39.375 38.28125 C 39.375 40.089844 37.902344 41.5625 36.09375 41.5625 Z M 33.90625 43.75 L 36.09375 43.75 C 36.394531 43.75 36.6875 43.707031 36.976562 43.660156 L 37.1875 44.933594 L 37.1875 45.9375 C 37.1875 47.144531 36.207031 48.125 35 48.125 C 33.792969 48.125 32.8125 47.144531 32.8125 45.9375 L 32.8125 44.976562 L 33.140625 43.671875 C 33.390625 43.707031 33.644531 43.75 33.90625 43.75 Z M 66.71875 41.5625 L 51.40625 41.5625 L 51.40625 38.28125 C 51.40625 35.464844 49.257812 33.164062 46.519531 32.871094 L 46.457031 31.722656 C 47.582031 30.570312 48.90625 29.625 50.363281 28.945312 C 50.617188 31.117188 52.449219 32.8125 54.6875 32.8125 C 56.925781 32.8125 58.757812 31.113281 59.011719 28.941406 C 63.671875 31.101562 66.71875 35.769531 66.71875 41 Z M 55.78125 24.0625 L 53.59375 24.0625 C 51.785156 24.0625 50.3125 22.589844 50.3125 20.78125 L 50.3125 15.21875 C 51.597656 15 52.785156 14.386719 53.726562 13.445312 L 53.734375 13.4375 L 54.9375 14.242188 C 55.988281 14.941406 57.210938 15.3125 58.472656 15.3125 L 59.0625 15.3125 L 59.0625 20.78125 C 59.0625 22.589844 57.589844 24.0625 55.78125 24.0625 Z M 53.59375 26.25 L 55.78125 26.25 C 56.042969 26.25 56.296875 26.207031 56.546875 26.171875 L 56.875 27.476562 L 56.875 28.4375 C 56.875 29.644531 55.894531 30.625 54.6875 30.625 C 53.480469 30.625 52.5 29.644531 52.5 28.4375 L 52.5 27.476562 L 52.828125 26.171875 C 53.078125 26.207031 53.332031 26.25 53.59375 26.25 Z M 64.808594 21.964844 C 64.230469 22.613281 63.4375 23.503906 63.4375 25.152344 C 63.4375 26.796875 64.230469 27.6875 64.808594 28.339844 C 65.300781 28.894531 65.625 29.261719 65.625 30.074219 C 65.625 30.527344 65.519531 30.839844 65.347656 31.121094 C 63.664062 29.09375 61.464844 27.480469 58.886719 26.511719 L 58.617188 25.433594 C 59.890625 24.652344 60.832031 23.382812 61.140625 21.875 L 61.25 21.875 C 63.085938 21.875 64.65625 20.734375 65.304688 19.125 C 65.5 19.425781 65.625 19.746094 65.625 20.230469 C 65.625 21.042969 65.300781 21.410156 64.808594 21.964844 Z M 61.25 15.3125 C 62.457031 15.3125 63.4375 16.292969 63.4375 17.5 C 63.4375 18.707031 62.457031 19.6875 61.25 19.6875 Z M 54.6875 3.28125 C 59.511719 3.28125 63.4375 7.207031 63.4375 12.03125 L 63.4375 13.734375 C 62.792969 13.355469 62.050781 13.125 61.25 13.125 L 58.472656 13.125 C 57.644531 13.125 56.839844 12.882812 56.152344 12.421875 L 53.453125 10.625 L 52.179688 11.898438 C 51.390625 12.691406 50.335938 13.125 49.21875 13.125 L 48.125 13.125 C 47.324219 13.125 46.582031 13.355469 45.9375 13.734375 L 45.9375 12.03125 C 45.9375 7.207031 49.863281 3.28125 54.6875 3.28125 Z M 45.9375 17.5 C 45.9375 16.292969 46.917969 15.3125 48.125 15.3125 L 48.125 19.6875 C 46.917969 19.6875 45.9375 18.707031 45.9375 17.5 Z M 44.566406 21.964844 C 44.074219 21.410156 43.75 21.042969 43.75 20.230469 C 43.75 19.746094 43.875 19.425781 44.070312 19.125 C 44.71875 20.734375 46.289062 21.875 48.125 21.875 L 48.234375 21.875 C 48.542969 23.382812 49.484375 24.652344 50.757812 25.433594 L 50.488281 26.507812 C 48.863281 27.125 47.355469 28.019531 46.027344 29.128906 C 45.851562 28.5 45.628906 27.890625 45.351562 27.3125 C 45.671875 26.785156 45.9375 26.101562 45.9375 25.152344 C 45.9375 23.503906 45.144531 22.613281 44.566406 21.964844 Z M 35 22.96875 C 39.9375 22.96875 44.007812 26.832031 44.269531 31.761719 L 44.808594 41.984375 C 43.785156 42.457031 41.667969 43.378906 39.425781 44.046875 C 39.367188 44.027344 39.308594 44.003906 39.25 43.984375 L 39.0625 42.863281 C 40.5625 41.886719 41.5625 40.203125 41.5625 38.28125 L 41.5625 33.28125 C 41.5625 31.816406 40.371094 30.625 38.90625 30.625 L 31.09375 30.625 C 29.628906 30.625 28.4375 31.816406 28.4375 33.28125 L 28.4375 38.28125 C 28.4375 40.253906 29.5 41.972656 31.070312 42.933594 L 30.8125 43.953125 C 30.722656 43.980469 30.640625 44.015625 30.554688 44.039062 C 28.316406 43.371094 26.210938 42.453125 25.191406 41.984375 L 25.730469 31.761719 C 25.992188 26.832031 30.0625 22.96875 35 22.96875 Z M 21.875 19.6875 L 21.875 15.3125 C 23.082031 15.3125 24.0625 16.292969 24.0625 17.5 C 24.0625 18.707031 23.082031 19.6875 21.875 19.6875 Z M 6.5625 17.5 C 6.5625 16.292969 7.542969 15.3125 8.75 15.3125 L 8.75 19.6875 C 7.542969 19.6875 6.5625 18.707031 6.5625 17.5 Z M 8.75 12.03125 L 8.75 13.125 C 8.109375 13.125 7.507812 13.269531 6.960938 13.515625 C 6.707031 12.734375 6.5625 11.917969 6.5625 11.09375 C 6.5625 6.785156 10.066406 3.28125 14.375 3.28125 L 15.503906 3.28125 C 17.074219 3.28125 18.527344 4.058594 19.398438 5.367188 L 20.105469 6.425781 L 20.515625 6.53125 C 22.605469 7.050781 24.0625 8.917969 24.0625 11.070312 L 24.0625 12.191406 C 24.0625 12.675781 23.980469 13.152344 23.835938 13.609375 C 23.242188 13.308594 22.582031 13.125 21.875 13.125 L 12.03125 13.125 C 11.429688 13.125 10.9375 12.632812 10.9375 12.03125 C 10.9375 11.429688 11.429688 10.9375 12.03125 10.9375 L 14.21875 10.9375 L 14.21875 8.75 L 12.03125 8.75 C 10.222656 8.75 8.75 10.222656 8.75 12.03125 Z M 10.9375 15.125 C 11.28125 15.246094 11.648438 15.3125 12.03125 15.3125 L 19.6875 15.3125 L 19.6875 20.78125 C 19.6875 22.589844 18.214844 24.0625 16.40625 24.0625 L 14.21875 24.0625 C 12.410156 24.0625 10.9375 22.589844 10.9375 20.78125 Z M 14.21875 26.25 L 16.40625 26.25 C 16.667969 26.25 16.921875 26.207031 17.175781 26.171875 L 17.5 27.476562 L 17.5 28.4375 C 17.5 29.644531 16.519531 30.625 15.3125 30.625 C 14.105469 30.625 13.125 29.644531 13.125 28.4375 L 13.125 27.476562 L 13.453125 26.171875 C 13.703125 26.207031 13.957031 26.25 14.21875 26.25 Z M 3.28125 41.5625 L 3.28125 41 C 3.28125 35.769531 6.328125 31.101562 10.988281 28.941406 C 11.242188 31.113281 13.074219 32.8125 15.3125 32.8125 C 17.550781 32.8125 19.382812 31.117188 19.636719 28.945312 C 21.09375 29.625 22.417969 30.566406 23.542969 31.722656 L 23.484375 32.871094 C 20.742188 33.164062 18.59375 35.464844 18.59375 38.28125 L 18.59375 41.5625 Z M 20.78125 38.28125 C 20.78125 36.710938 21.890625 35.398438 23.367188 35.078125 L 22.933594 43.3125 L 23.574219 43.632812 C 23.667969 43.679688 25.289062 44.488281 27.460938 45.300781 C 24.757812 46.699219 22.476562 48.722656 20.78125 51.171875 Z M 19.6875 61.652344 C 19.6875 54.65625 24.136719 48.523438 30.660156 46.296875 C 30.757812 47.460938 31.304688 48.492188 32.136719 49.21875 L 29.195312 49.21875 C 26.367188 49.21875 24.0625 51.519531 24.0625 54.351562 C 24.0625 54.636719 24.085938 54.917969 24.132812 55.195312 L 24.960938 60.15625 L 21.875 60.15625 L 21.875 62.34375 L 25.324219 62.34375 L 25.703125 64.617188 C 25.832031 65.402344 26.148438 66.105469 26.582031 66.71875 L 24.753906 66.71875 C 21.960938 66.71875 19.6875 64.445312 19.6875 61.652344 Z M 30.765625 66.71875 C 29.320312 66.71875 28.097656 65.683594 27.859375 64.257812 L 26.289062 54.835938 C 26.261719 54.675781 26.25 54.515625 26.25 54.351562 C 26.25 52.730469 27.570312 51.40625 29.195312 51.40625 L 40.800781 51.40625 C 42.429688 51.40625 43.75 52.730469 43.75 54.351562 C 43.75 54.511719 43.738281 54.675781 43.710938 54.835938 L 42.140625 64.253906 C 41.902344 65.683594 40.679688 66.71875 39.234375 66.71875 Z M 44.519531 64.230469 C 44.875 65.183594 45.4375 66.019531 46.125 66.71875 L 43.421875 66.71875 C 43.851562 66.105469 44.167969 65.402344 44.300781 64.617188 L 44.410156 63.941406 Z M 50.152344 62.917969 L 57.914062 50.300781 C 58.324219 49.632812 59.066406 49.21875 59.851562 49.21875 C 60.460938 49.21875 61.035156 49.457031 61.464844 49.886719 L 61.890625 50.3125 L 63.4375 50.3125 C 64.039062 50.3125 64.53125 50.800781 64.53125 51.40625 C 64.53125 52.011719 64.039062 52.5 63.4375 52.5 L 59.347656 52.5 L 56.0625 63.175781 C 55.410156 65.292969 53.484375 66.71875 51.265625 66.71875 C 49.1875 66.71875 47.300781 65.410156 46.570312 63.460938 L 45.128906 59.625 L 45.867188 55.199219 C 45.914062 54.917969 45.9375 54.636719 45.9375 54.351562 C 45.9375 51.519531 43.632812 49.21875 40.804688 49.21875 L 37.863281 49.21875 C 38.6875 48.496094 39.230469 47.480469 39.335938 46.328125 C 44.714844 48.265625 48.886719 52.695312 50.472656 58.222656 L 48.289062 61.769531 Z M 50.152344 62.917969 "/>
</g>
</svg>
