<?xml version="1.0" encoding="UTF-8"?>
<svg xmlns="http://www.w3.org/2000/svg" xmlns:xlink="http://www.w3.org/1999/xlink" width="40px" height="40px" viewBox="0 0 40 40" version="1.1">
<g id="surface1">
<path style=" stroke:none;fill-rule:nonzero;fill:rgb(0%,0%,0%);fill-opacity:1;" d="M 16.875 23.125 C 14.117188 23.125 11.875 25.367188 11.875 28.125 C 12.148438 34.757812 21.601562 34.757812 21.875 28.125 C 21.875 25.367188 19.632812 23.125 16.875 23.125 Z M 16.875 31.875 C 14.808594 31.875 13.125 30.191406 13.125 28.125 C 13.300781 23.160156 20.449219 23.164062 20.625 28.125 C 20.625 30.191406 18.941406 31.875 16.875 31.875 Z M 16.875 31.875 "/>
<path style=" stroke:none;fill-rule:nonzero;fill:rgb(0%,0%,0%);fill-opacity:1;" d="M 18.640625 26.359375 C 18.398438 26.113281 18.003906 26.113281 17.757812 26.359375 L 16.875 27.242188 L 15.992188 26.359375 C 15.746094 26.113281 15.351562 26.113281 15.109375 26.359375 C 14.863281 26.601562 14.863281 26.996094 15.109375 27.242188 L 15.992188 28.125 L 15.109375 29.007812 C 14.863281 29.253906 14.863281 29.648438 15.109375 29.890625 C 15.351562 30.136719 15.746094 30.136719 15.992188 29.890625 L 16.875 29.007812 L 17.757812 29.890625 C 18.003906 30.136719 18.398438 30.136719 18.640625 29.890625 C 18.886719 29.648438 18.886719 29.253906 18.640625 29.007812 L 17.757812 28.125 L 18.640625 27.242188 C 18.886719 26.996094 18.886719 26.601562 18.640625 26.359375 Z M 18.640625 26.359375 "/>
<path style=" stroke:none;fill-rule:nonzero;fill:rgb(0%,0%,0%);fill-opacity:1;" d="M 16.25 7.5 C 16.25 4.742188 14.007812 2.5 11.25 2.5 C 4.617188 2.773438 4.617188 12.226562 11.25 12.5 C 14.007812 12.5 16.25 10.257812 16.25 7.5 Z M 7.5 7.5 C 7.5 5.433594 9.183594 3.75 11.25 3.75 C 16.214844 3.925781 16.210938 11.074219 11.25 11.25 C 9.183594 11.25 7.5 9.566406 7.5 7.5 Z M 7.5 7.5 "/>
<path style=" stroke:none;fill-rule:nonzero;fill:rgb(0%,0%,0%);fill-opacity:1;" d="M 12.132812 9.265625 C 12.714844 9.84375 13.59375 8.964844 13.015625 8.382812 C 13.015625 8.382812 12.132812 7.5 12.132812 7.5 L 13.015625 6.617188 C 13.261719 6.371094 13.261719 5.976562 13.015625 5.734375 C 12.773438 5.488281 12.378906 5.488281 12.132812 5.734375 L 11.25 6.617188 L 10.367188 5.734375 C 10.121094 5.488281 9.726562 5.488281 9.484375 5.734375 C 9.238281 5.976562 9.238281 6.371094 9.484375 6.617188 L 10.367188 7.5 L 9.484375 8.382812 C 9.238281 8.628906 9.238281 9.023438 9.484375 9.265625 C 9.726562 9.511719 10.121094 9.511719 10.367188 9.265625 L 11.25 8.382812 Z M 12.132812 9.265625 "/>
<path style=" stroke:none;fill-rule:nonzero;fill:rgb(0%,0%,0%);fill-opacity:1;" d="M 28.75 18.75 C 31.507812 18.75 33.75 16.507812 33.75 13.75 C 33.476562 7.117188 24.023438 7.117188 23.75 13.75 C 23.75 16.507812 25.992188 18.75 28.75 18.75 Z M 28.75 10 C 30.816406 10 32.5 11.683594 32.5 13.75 C 32.324219 18.714844 25.175781 18.710938 25 13.75 C 25 11.683594 26.683594 10 28.75 10 Z M 28.75 10 "/>
<path style=" stroke:none;fill-rule:nonzero;fill:rgb(0%,0%,0%);fill-opacity:1;" d="M 26.984375 15.515625 C 27.226562 15.761719 27.621094 15.761719 27.867188 15.515625 L 28.75 14.632812 L 29.632812 15.515625 C 29.878906 15.761719 30.273438 15.761719 30.515625 15.515625 C 30.761719 15.273438 30.761719 14.878906 30.515625 14.632812 L 29.632812 13.75 L 30.515625 12.867188 C 30.761719 12.621094 30.761719 12.226562 30.515625 11.984375 C 30.273438 11.738281 29.878906 11.738281 29.632812 11.984375 L 28.75 12.867188 L 27.867188 11.984375 C 27.621094 11.738281 27.226562 11.738281 26.984375 11.984375 C 26.738281 12.226562 26.738281 12.621094 26.984375 12.867188 L 27.867188 13.75 L 26.984375 14.632812 C 26.738281 14.878906 26.738281 15.273438 26.984375 15.515625 Z M 26.984375 15.515625 "/>
<path style=" stroke:none;fill-rule:nonzero;fill:rgb(0%,0%,0%);fill-opacity:1;" d="M 23.113281 19.9375 C 20.9375 18.3125 18.6875 16.636719 18.234375 14.332031 C 17.757812 11.886719 20.707031 7.320312 22.652344 4.738281 L 22.863281 6.917969 C 22.957031 7.734375 24.171875 7.617188 24.105469 6.796875 C 24.105469 6.796875 23.746094 3.066406 23.746094 3.066406 C 23.722656 2.988281 23.710938 2.910156 23.675781 2.835938 C 23.566406 2.613281 23.3125 2.476562 23.0625 2.503906 C 23.0625 2.503906 19.332031 2.863281 19.332031 2.863281 C 18.515625 2.957031 18.632812 4.171875 19.453125 4.105469 C 19.453125 4.105469 21.730469 3.886719 21.730469 3.886719 C 19.976562 6.203125 16.390625 11.40625 17.007812 14.570312 C 17.550781 17.351562 20 19.175781 22.367188 20.9375 C 24.390625 22.445312 26.304688 23.871094 26.792969 25.710938 C 28.035156 30.355469 21.519531 36.351562 21.453125 36.414062 C 20.851562 36.957031 21.6875 37.886719 22.292969 37.335938 C 22.585938 37.070312 29.441406 30.769531 28 25.386719 C 27.398438 23.128906 25.21875 21.503906 23.113281 19.9375 Z M 23.113281 19.9375 "/>
<path style=" stroke:none;fill-rule:nonzero;fill:rgb(0%,0%,0%);fill-opacity:1;" d="M 12.5 20 L 12.5 19.375 L 13.125 19.375 C 13.46875 19.375 13.75 19.09375 13.75 18.75 C 13.75 18.40625 13.46875 18.125 13.125 18.125 L 12.5 18.125 L 12.5 17.5 C 12.5 17.15625 12.21875 16.875 11.875 16.875 C 11.53125 16.875 11.25 17.15625 11.25 17.5 L 11.25 18.125 L 10.625 18.125 C 10.28125 18.125 10 18.40625 10 18.75 C 10 19.09375 10.28125 19.375 10.625 19.375 L 11.25 19.375 L 11.25 20 C 11.265625 20.820312 12.484375 20.820312 12.5 20 Z M 12.5 20 "/>
<path style=" stroke:none;fill-rule:nonzero;fill:rgb(0%,0%,0%);fill-opacity:1;" d="M 31.875 34.375 L 31.25 34.375 L 31.25 33.75 C 31.25 33.40625 30.96875 33.125 30.625 33.125 C 30.28125 33.125 30 33.40625 30 33.75 L 30 34.375 L 29.375 34.375 C 29.03125 34.375 28.75 34.65625 28.75 35 C 28.75 35.34375 29.03125 35.625 29.375 35.625 L 30 35.625 L 30 36.25 C 30 36.59375 30.28125 36.875 30.625 36.875 C 30.96875 36.875 31.25 36.59375 31.25 36.25 L 31.25 35.625 L 31.875 35.625 C 32.695312 35.609375 32.695312 34.390625 31.875 34.375 Z M 31.875 34.375 "/>
<path style=" stroke:none;fill-rule:nonzero;fill:rgb(0%,0%,0%);fill-opacity:1;" d="M 33.125 23.125 L 32.5 23.125 L 32.5 22.5 C 32.5 22.15625 32.21875 21.875 31.875 21.875 C 31.53125 21.875 31.25 22.15625 31.25 22.5 L 31.25 23.125 L 30.625 23.125 C 30.28125 23.125 30 23.40625 30 23.75 C 30 24.09375 30.28125 24.375 30.625 24.375 L 31.25 24.375 L 31.25 25 C 31.25 25.34375 31.53125 25.625 31.875 25.625 C 32.21875 25.625 32.5 25.34375 32.5 25 L 32.5 24.375 L 33.125 24.375 C 33.945312 24.359375 33.945312 23.140625 33.125 23.125 Z M 33.125 23.125 "/>
</g>
</svg>
