<?xml version="1.0" encoding="UTF-8"?>
<svg xmlns="http://www.w3.org/2000/svg" xmlns:xlink="http://www.w3.org/1999/xlink" width="45px" height="45px" viewBox="0 0 45 45" version="1.1">
<g id="surface1">
<path style=" stroke:none;fill-rule:nonzero;fill:#21a96a;fill-opacity:1;" d="M 26.855469 36.097656 L 23.445312 36.097656 C 22.960938 36.097656 22.566406 36.492188 22.566406 36.976562 C 22.566406 37.460938 22.960938 37.855469 23.445312 37.855469 L 26.855469 37.855469 C 27.382812 37.855469 27.808594 38.285156 27.808594 38.808594 C 27.808594 39.335938 27.382812 39.765625 26.855469 39.765625 L 17.675781 39.765625 C 16.296875 39.765625 15 39.15625 14.117188 38.09375 L 11.921875 35.457031 C 10.742188 34.039062 9.027344 33.210938 7.195312 33.160156 L 7.195312 27.96875 L 10.429688 27.96875 C 12.027344 27.96875 13.535156 28.578125 14.683594 29.6875 L 19.421875 34.257812 C 19.757812 34.582031 19.773438 35.125 19.457031 35.464844 C 19.136719 35.816406 18.589844 35.835938 18.238281 35.515625 L 14.519531 32.109375 C 14.160156 31.78125 13.605469 31.804688 13.277344 32.160156 C 12.949219 32.519531 12.972656 33.074219 13.332031 33.402344 L 17.050781 36.8125 C 17.554688 37.273438 18.1875 37.5 18.820312 37.5 C 19.527344 37.5 20.234375 37.214844 20.75 36.660156 C 21.707031 35.621094 21.660156 33.976562 20.644531 32.996094 L 15.90625 28.421875 C 14.425781 26.996094 12.484375 26.210938 10.429688 26.210938 L 7.023438 26.210938 C 6.691406 25.425781 5.917969 24.878906 5.015625 24.878906 L 0.878906 24.878906 C 0.394531 24.878906 0 25.269531 0 25.753906 L 0 32.183594 C 0 32.667969 0.394531 33.0625 0.878906 33.0625 C 1.363281 33.0625 1.757812 32.667969 1.757812 32.183594 L 1.757812 26.632812 L 5.015625 26.632812 C 5.246094 26.632812 5.4375 26.824219 5.4375 27.054688 L 5.4375 34.097656 C 5.4375 34.332031 5.246094 34.519531 5.015625 34.519531 L 4.101562 34.519531 C 3.617188 34.519531 3.222656 34.914062 3.222656 35.398438 C 3.222656 35.882812 3.617188 36.277344 4.101562 36.277344 L 5.015625 36.277344 C 5.929688 36.277344 6.710938 35.710938 7.035156 34.914062 C 8.40625 34.921875 9.691406 35.527344 10.570312 36.582031 L 12.765625 39.21875 C 13.980469 40.683594 15.773438 41.523438 17.675781 41.523438 L 26.855469 41.523438 C 28.351562 41.523438 29.566406 40.304688 29.566406 38.808594 C 29.566406 37.316406 28.351562 36.097656 26.855469 36.097656 Z M 26.855469 36.097656 "/>
<path style=" stroke:none;fill-rule:nonzero;fill:rgb(0%,0%,0%);fill-opacity:1;" d="M 44.121094 11.597656 C 43.636719 11.597656 43.242188 11.988281 43.242188 12.472656 L 43.242188 18.367188 L 39.984375 18.367188 C 39.753906 18.367188 39.5625 18.175781 39.5625 17.945312 L 39.5625 10.902344 C 39.5625 10.667969 39.753906 10.480469 39.984375 10.480469 L 40.832031 10.480469 C 41.316406 10.480469 41.710938 10.085938 41.710938 9.601562 C 41.710938 9.117188 41.316406 8.722656 40.832031 8.722656 L 39.984375 8.722656 C 39.070312 8.722656 38.285156 9.289062 37.964844 10.085938 C 36.59375 10.078125 35.308594 9.472656 34.429688 8.417969 L 32.234375 5.78125 C 31.019531 4.316406 29.226562 3.476562 27.324219 3.476562 L 18.144531 3.476562 C 16.648438 3.476562 15.433594 4.695312 15.433594 6.191406 C 15.433594 7.683594 16.648438 8.902344 18.144531 8.902344 L 21.898438 8.902344 C 22.382812 8.902344 22.777344 8.507812 22.777344 8.023438 C 22.777344 7.539062 22.382812 7.144531 21.898438 7.144531 L 18.144531 7.144531 C 17.617188 7.144531 17.191406 6.714844 17.191406 6.191406 C 17.191406 5.664062 17.617188 5.234375 18.144531 5.234375 L 27.324219 5.234375 C 28.703125 5.234375 30 5.84375 30.882812 6.90625 L 33.078125 9.542969 C 34.257812 10.957031 35.972656 11.789062 37.804688 11.839844 L 37.804688 17.03125 L 34.570312 17.03125 C 32.972656 17.03125 31.464844 16.421875 30.316406 15.3125 L 25.578125 10.738281 C 25.242188 10.417969 25.226562 9.875 25.542969 9.535156 C 25.863281 9.183594 26.410156 9.160156 26.761719 9.484375 L 30.480469 12.890625 C 30.839844 13.21875 31.394531 13.195312 31.722656 12.839844 C 32.050781 12.480469 32.027344 11.925781 31.667969 11.597656 L 27.949219 8.1875 C 26.886719 7.214844 25.226562 7.285156 24.25 8.339844 C 23.292969 9.378906 23.339844 11.023438 24.355469 12.003906 L 29.09375 16.578125 C 30.570312 18.003906 32.515625 18.789062 34.570312 18.789062 L 37.976562 18.789062 C 38.308594 19.570312 39.082031 20.121094 39.984375 20.121094 L 44.121094 20.121094 C 44.605469 20.121094 45 19.730469 45 19.242188 L 45 12.472656 C 45 11.988281 44.605469 11.597656 44.121094 11.597656 Z M 44.121094 11.597656 "/>
<path style=" stroke:none;fill-rule:nonzero;fill:rgb(0%,0%,0%);fill-opacity:1;" d="M 28.375 33.367188 C 28.175781 32.925781 27.65625 32.726562 27.214844 32.925781 C 26.769531 33.121094 26.566406 33.640625 26.757812 34.082031 C 26.902344 34.414062 27.226562 34.613281 27.566406 34.613281 C 27.679688 34.613281 27.800781 34.589844 27.914062 34.539062 C 27.917969 34.535156 27.929688 34.53125 27.933594 34.53125 C 28.375 34.332031 28.574219 33.808594 28.375 33.367188 Z M 28.375 33.367188 "/>
<path style=" stroke:none;fill-rule:nonzero;fill:rgb(0%,0%,0%);fill-opacity:1;" d="M 30.558594 31.886719 C 30.273438 31.496094 29.71875 31.414062 29.328125 31.703125 C 28.9375 31.988281 28.851562 32.539062 29.140625 32.929688 C 29.3125 33.164062 29.578125 33.289062 29.847656 33.289062 C 30.027344 33.289062 30.210938 33.234375 30.367188 33.121094 C 30.367188 33.121094 30.375 33.113281 30.378906 33.113281 C 30.765625 32.824219 30.847656 32.277344 30.558594 31.886719 Z M 30.558594 31.886719 "/>
<path style=" stroke:none;fill-rule:nonzero;fill:rgb(0%,0%,0%);fill-opacity:1;" d="M 25.917969 34.355469 C 25.816406 33.878906 25.351562 33.578125 24.878906 33.675781 C 24.40625 33.769531 24.097656 34.226562 24.1875 34.703125 C 24.269531 35.125 24.636719 35.414062 25.050781 35.414062 C 25.105469 35.414062 25.160156 35.410156 25.214844 35.398438 C 25.222656 35.398438 25.234375 35.394531 25.242188 35.394531 C 25.714844 35.292969 26.019531 34.828125 25.917969 34.355469 Z M 25.917969 34.355469 "/>
<path style=" stroke:none;fill-rule:nonzero;fill:rgb(0%,0%,0%);fill-opacity:1;" d="M 32.394531 29.976562 C 32.035156 29.652344 31.480469 29.679688 31.152344 30.039062 C 31.148438 30.042969 31.140625 30.054688 31.136719 30.0625 C 30.816406 30.429688 30.859375 30.984375 31.226562 31.300781 C 31.390625 31.445312 31.597656 31.515625 31.800781 31.515625 C 32.042969 31.515625 32.285156 31.414062 32.460938 31.214844 C 32.785156 30.855469 32.753906 30.300781 32.394531 29.976562 Z M 31.902344 30.71875 L 31.804688 30.628906 L 31.910156 30.722656 Z M 31.902344 30.71875 "/>
<path style=" stroke:none;fill-rule:nonzero;fill:rgb(0%,0%,0%);fill-opacity:1;" d="M 34.632812 25.214844 C 34.167969 25.074219 33.675781 25.335938 33.535156 25.800781 C 33.390625 26.265625 33.652344 26.757812 34.117188 26.898438 C 34.203125 26.925781 34.289062 26.941406 34.375 26.941406 C 34.75 26.941406 35.097656 26.695312 35.214844 26.320312 L 35.21875 26.308594 C 35.359375 25.84375 35.097656 25.355469 34.632812 25.214844 Z M 34.632812 25.214844 "/>
<path style=" stroke:none;fill-rule:nonzero;fill:rgb(0%,0%,0%);fill-opacity:1;" d="M 35.757812 20.675781 C 35.753906 20.667969 35.753906 20.65625 35.75 20.644531 C 35.652344 20.167969 35.1875 19.867188 34.710938 19.964844 C 34.238281 20.0625 33.933594 20.527344 34.027344 21 C 34.109375 21.417969 34.476562 21.710938 34.890625 21.710938 C 34.941406 21.710938 34.996094 21.707031 35.046875 21.699219 C 35.523438 21.613281 35.84375 21.15625 35.757812 20.675781 Z M 35.757812 20.675781 "/>
<path style=" stroke:none;fill-rule:nonzero;fill:rgb(0%,0%,0%);fill-opacity:1;" d="M 34.953125 22.585938 C 34.46875 22.542969 34.042969 22.898438 34 23.382812 C 33.996094 23.390625 33.996094 23.410156 33.996094 23.417969 C 33.96875 23.902344 34.335938 24.316406 34.820312 24.347656 C 34.839844 24.347656 34.855469 24.347656 34.875 24.347656 C 35.332031 24.347656 35.714844 23.992188 35.75 23.53125 C 35.789062 23.050781 35.433594 22.628906 34.953125 22.585938 Z M 34.953125 22.585938 "/>
<path style=" stroke:none;fill-rule:nonzero;fill:rgb(0%,0%,0%);fill-opacity:1;" d="M 33.769531 27.714844 C 33.347656 27.476562 32.8125 27.625 32.574219 28.046875 L 32.5625 28.066406 C 32.328125 28.492188 32.484375 29.03125 32.914062 29.261719 C 33.046875 29.335938 33.191406 29.371094 33.332031 29.371094 C 33.644531 29.371094 33.941406 29.207031 34.101562 28.914062 L 33.339844 28.480469 L 34.101562 28.910156 C 34.34375 28.488281 34.195312 27.953125 33.769531 27.714844 Z M 33.769531 27.714844 "/>
<path style=" stroke:none;fill-rule:nonzero;fill:rgb(0%,0%,0%);fill-opacity:1;" d="M 17.832031 10.976562 C 17.617188 10.542969 17.085938 10.367188 16.652344 10.585938 L 16.644531 10.589844 C 16.210938 10.804688 16.039062 11.332031 16.257812 11.765625 C 16.410156 12.074219 16.722656 12.25 17.042969 12.25 C 17.179688 12.25 17.3125 12.21875 17.441406 12.15625 C 17.875 11.941406 18.050781 11.410156 17.832031 10.976562 Z M 17.832031 10.976562 "/>
<path style=" stroke:none;fill-rule:nonzero;fill:rgb(0%,0%,0%);fill-opacity:1;" d="M 20.375 10.246094 C 20.261719 9.773438 19.785156 9.484375 19.3125 9.597656 C 19.308594 9.597656 19.296875 9.601562 19.292969 9.601562 C 18.824219 9.722656 18.539062 10.203125 18.660156 10.671875 C 18.761719 11.070312 19.117188 11.332031 19.507812 11.332031 C 19.582031 11.332031 19.65625 11.324219 19.726562 11.304688 C 20.199219 11.191406 20.488281 10.714844 20.375 10.246094 Z M 20.375 10.246094 "/>
<path style=" stroke:none;fill-rule:nonzero;fill:rgb(0%,0%,0%);fill-opacity:1;" d="M 15.507812 12.246094 C 15.203125 11.867188 14.652344 11.808594 14.273438 12.109375 L 14.816406 12.800781 L 14.269531 12.113281 C 13.890625 12.414062 13.828125 12.96875 14.128906 13.347656 C 14.304688 13.566406 14.558594 13.679688 14.820312 13.679688 C 15.011719 13.679688 15.203125 13.617188 15.367188 13.488281 L 15.378906 13.480469 C 15.753906 13.175781 15.8125 12.621094 15.507812 12.246094 Z M 15.507812 12.246094 "/>
<path style=" stroke:none;fill-rule:nonzero;fill:rgb(0%,0%,0%);fill-opacity:1;" d="M 10.824219 18.496094 C 10.355469 18.371094 9.871094 18.644531 9.742188 19.113281 C 9.742188 19.121094 9.738281 19.140625 9.734375 19.148438 C 9.621094 19.617188 9.910156 20.09375 10.382812 20.207031 C 10.453125 20.222656 10.523438 20.230469 10.589844 20.230469 C 10.984375 20.230469 11.34375 19.964844 11.441406 19.566406 C 11.5625 19.101562 11.289062 18.625 10.824219 18.496094 Z M 10.824219 18.496094 "/>
<path style=" stroke:none;fill-rule:nonzero;fill:rgb(0%,0%,0%);fill-opacity:1;" d="M 10.261719 21.078125 C 9.777344 21.050781 9.363281 21.421875 9.335938 21.90625 C 9.335938 21.917969 9.332031 21.929688 9.332031 21.941406 C 9.320312 22.425781 9.699219 22.828125 10.1875 22.84375 C 10.195312 22.84375 10.203125 22.84375 10.210938 22.84375 C 10.683594 22.84375 11.074219 22.46875 11.089844 21.996094 C 11.113281 21.515625 10.742188 21.109375 10.261719 21.078125 Z M 10.261719 21.078125 "/>
<path style=" stroke:none;fill-rule:nonzero;fill:rgb(0%,0%,0%);fill-opacity:1;" d="M 11.929688 16.097656 C 11.5 15.871094 10.96875 16.035156 10.742188 16.464844 L 10.726562 16.492188 C 10.515625 16.929688 10.695312 17.457031 11.128906 17.667969 C 11.253906 17.730469 11.386719 17.761719 11.515625 17.761719 C 11.839844 17.761719 12.148438 17.582031 12.304688 17.273438 C 12.523438 16.84375 12.355469 16.320312 11.929688 16.097656 Z M 11.929688 16.097656 "/>
<path style=" stroke:none;fill-rule:nonzero;fill:rgb(0%,0%,0%);fill-opacity:1;" d="M 13.515625 13.980469 C 13.144531 13.671875 12.589844 13.722656 12.277344 14.097656 C 12.273438 14.101562 12.265625 14.113281 12.261719 14.117188 C 11.960938 14.5 12.023438 15.050781 12.402344 15.351562 C 12.566406 15.480469 12.757812 15.542969 12.949219 15.542969 C 13.207031 15.542969 13.460938 15.429688 13.636719 15.214844 C 13.941406 14.839844 13.886719 14.289062 13.515625 13.980469 Z M 13.515625 13.980469 "/>
<path style=" stroke:none;fill-rule:nonzero;fill:rgb(0%,0%,0%);fill-opacity:1;" d="M 11.257812 24.4375 C 11.171875 23.957031 10.714844 23.640625 10.238281 23.726562 C 9.757812 23.8125 9.441406 24.269531 9.527344 24.746094 L 9.527344 24.753906 C 9.605469 25.179688 9.972656 25.472656 10.390625 25.472656 C 10.441406 25.472656 10.492188 25.46875 10.546875 25.460938 C 11.023438 25.375 11.34375 24.914062 11.257812 24.4375 Z M 11.257812 24.4375 "/>
<path style=" stroke:none;fill-rule:nonzero;fill:rgb(0%,0%,0%);fill-opacity:1;" d="M 25.515625 17.765625 C 24.375 17.765625 23.3125 18.238281 22.558594 19.03125 C 21.804688 18.238281 20.742188 17.765625 19.597656 17.765625 C 17.347656 17.765625 15.519531 19.59375 15.519531 21.847656 C 15.519531 23.058594 16.054688 24.203125 16.988281 24.980469 C 16.992188 24.984375 17 24.992188 17.003906 24.996094 L 22.011719 28.960938 C 22.171875 29.085938 22.367188 29.148438 22.558594 29.148438 C 22.753906 29.148438 22.945312 29.085938 23.105469 28.957031 L 28.324219 24.800781 C 28.351562 24.78125 28.375 24.757812 28.398438 24.734375 C 29.171875 23.964844 29.597656 22.9375 29.597656 21.847656 C 29.597656 19.59375 27.769531 17.765625 25.515625 17.765625 Z M 27.191406 23.457031 L 22.558594 27.148438 L 18.105469 23.625 C 17.578125 23.179688 17.277344 22.535156 17.277344 21.847656 C 17.277344 20.566406 18.316406 19.523438 19.597656 19.523438 C 20.542969 19.523438 21.386719 20.085938 21.746094 20.957031 C 21.882812 21.285156 22.203125 21.5 22.558594 21.5 C 22.914062 21.5 23.234375 21.285156 23.371094 20.957031 C 23.730469 20.085938 24.574219 19.523438 25.515625 19.523438 C 26.796875 19.523438 27.839844 20.566406 27.839844 21.847656 C 27.839844 22.453125 27.609375 23.023438 27.191406 23.457031 Z M 27.191406 23.457031 "/>
<path style=" stroke:none;fill-rule:nonzero;fill:rgb(0%,0%,0%);fill-opacity:1;" d="M 1.753906 35.398438 C 1.753906 34.914062 1.363281 34.523438 0.878906 34.523438 C 0.394531 34.523438 0.00390625 34.914062 0.00390625 35.398438 C 0.00390625 35.882812 0.394531 36.273438 0.878906 36.273438 C 1.363281 36.273438 1.753906 35.882812 1.753906 35.398438 Z M 1.753906 35.398438 "/>
<path style=" stroke:none;fill-rule:nonzero;fill:rgb(0%,0%,0%);fill-opacity:1;" d="M 44.996094 9.601562 C 44.996094 9.117188 44.605469 8.726562 44.121094 8.726562 C 43.636719 8.726562 43.246094 9.117188 43.246094 9.601562 C 43.246094 10.085938 43.636719 10.476562 44.121094 10.476562 C 44.605469 10.476562 44.996094 10.085938 44.996094 9.601562 Z M 44.996094 9.601562 "/>
</g>
</svg>
