<?xml version="1.0" encoding="UTF-8"?>
<svg xmlns="http://www.w3.org/2000/svg" xmlns:xlink="http://www.w3.org/1999/xlink" width="70px" height="70px" viewBox="0 0 70 70" version="1.1">
<g id="surface1">
<path style=" stroke:none;fill-rule:nonzero;fill:rgb(0%,0%,0%);fill-opacity:1;" d="M 37.789062 13.699219 C 37.488281 14.132812 36.890625 14.234375 36.460938 13.933594 C 36.03125 13.632812 35.925781 13.035156 36.230469 12.605469 C 37.019531 11.480469 38.574219 11.066406 39.816406 11.640625 C 40.296875 11.859375 40.507812 12.425781 40.285156 12.90625 C 40.066406 13.386719 39.496094 13.597656 39.019531 13.375 C 38.613281 13.183594 38.046875 13.335938 37.789062 13.699219 Z M 39.101562 18.328125 C 38.769531 17.917969 38.835938 17.316406 39.246094 16.980469 C 39.65625 16.652344 40.257812 16.71875 40.589844 17.128906 C 42.164062 19.082031 45.324219 18.226562 45.710938 15.757812 C 45.792969 15.238281 46.277344 14.882812 46.796875 14.964844 C 47.316406 15.042969 47.675781 15.53125 47.597656 16.050781 C 47.140625 18.980469 44.167969 20.800781 41.351562 19.882812 C 40.488281 19.597656 39.695312 19.066406 39.101562 18.328125 Z M 45.1875 11.71875 C 44.886719 12.148438 44.289062 12.253906 43.859375 11.949219 C 43.429688 11.644531 43.324219 11.046875 43.625 10.617188 C 44.417969 9.5 45.972656 9.082031 47.214844 9.65625 C 47.695312 9.878906 47.90625 10.445312 47.683594 10.925781 C 47.464844 11.402344 46.894531 11.613281 46.417969 11.390625 C 46.015625 11.203125 45.449219 11.351562 45.1875 11.71875 Z M 39.710938 3.625 C 45.523438 2.066406 51.496094 5.523438 53.050781 11.324219 C 54.609375 17.132812 51.152344 23.109375 45.351562 24.664062 C 41.558594 25.683594 37.636719 24.570312 34.933594 21.949219 C 30.679688 26.09375 23.863281 26.074219 19.632812 21.847656 C 15.382812 17.589844 15.382812 10.695312 19.632812 6.441406 C 23.863281 2.210938 30.679688 2.191406 34.933594 6.339844 C 36.222656 5.078125 37.847656 4.125 39.710938 3.625 Z M 33.683594 20.503906 C 32.015625 18.183594 31.328125 15.273438 31.769531 12.464844 C 31.425781 12.203125 30.867188 12.214844 30.535156 12.488281 C 30.128906 12.828125 29.527344 12.773438 29.191406 12.371094 C 28.851562 11.964844 28.902344 11.363281 29.308594 11.023438 C 30.121094 10.34375 31.273438 10.1875 32.246094 10.566406 C 32.59375 9.574219 33.078125 8.644531 33.6875 7.792969 C 30.1875 4.296875 24.5 4.28125 20.992188 7.796875 C 17.484375 11.300781 17.484375 16.988281 20.992188 20.496094 C 24.5 24.003906 30.183594 23.996094 33.683594 20.503906 Z M 47.027344 6.363281 C 45.035156 5.21875 42.605469 4.828125 40.203125 5.46875 C 35.445312 6.746094 32.5625 11.640625 33.855469 16.472656 C 35.125 21.195312 39.992188 24.121094 44.855469 22.820312 C 49.652344 21.53125 52.492188 16.617188 51.207031 11.820312 C 50.5625 9.421875 49.011719 7.511719 47.027344 6.363281 Z M 22.871094 12.488281 C 22.46875 12.828125 21.867188 12.773438 21.527344 12.371094 C 21.191406 11.960938 21.246094 11.363281 21.648438 11.023438 C 22.703125 10.144531 24.3125 10.144531 25.367188 11.023438 C 25.769531 11.363281 25.824219 11.964844 25.484375 12.371094 C 25.148438 12.773438 24.546875 12.828125 24.140625 12.488281 C 23.800781 12.203125 23.214844 12.203125 22.871094 12.488281 Z M 22.9375 17.296875 C 22.726562 16.8125 22.945312 16.25 23.425781 16.039062 C 23.910156 15.824219 24.476562 16.042969 24.6875 16.523438 C 25.699219 18.816406 28.976562 18.816406 29.988281 16.523438 C 30.195312 16.042969 30.761719 15.824219 31.246094 16.039062 C 31.726562 16.25 31.949219 16.8125 31.734375 17.296875 C 30.550781 19.984375 27.210938 21.003906 24.714844 19.382812 C 23.945312 18.882812 23.324219 18.164062 22.9375 17.296875 Z M 53.496094 64.675781 L 53.496094 57.449219 C 53.496094 56.921875 53.921875 56.492188 54.453125 56.492188 C 54.980469 56.492188 55.410156 56.921875 55.410156 57.449219 L 55.410156 64.675781 L 58.832031 64.675781 C 60.15625 64.675781 61.234375 63.597656 61.234375 62.273438 L 61.234375 58.574219 C 58.378906 58.3125 56.445312 55.515625 57.1875 52.761719 L 58.144531 49.191406 C 58.261719 48.753906 58.5 48.378906 58.816406 48.089844 C 57.105469 46.234375 54.703125 45.148438 52.117188 45.148438 L 41.773438 45.148438 C 38.597656 45.148438 36.015625 47.738281 36.015625 50.910156 L 36.015625 62.273438 C 36.015625 63.597656 37.089844 64.675781 38.414062 64.675781 Z M 14.703125 64.675781 L 14.703125 57.449219 C 14.703125 56.921875 15.128906 56.492188 15.660156 56.492188 C 16.1875 56.492188 16.613281 56.921875 16.613281 57.449219 L 16.613281 64.675781 L 31.695312 64.675781 C 33.019531 64.675781 34.101562 63.597656 34.101562 62.273438 L 34.101562 50.910156 C 34.101562 47.738281 31.511719 45.148438 28.339844 45.148438 L 17.992188 45.148438 C 15.355469 45.148438 12.898438 46.285156 11.179688 48.214844 C 11.4375 48.484375 11.625 48.8125 11.726562 49.191406 L 12.683594 52.761719 C 13.398438 55.421875 11.617188 58.148438 8.878906 58.546875 L 8.878906 62.273438 C 8.878906 63.597656 9.957031 64.675781 11.277344 64.675781 Z M 8.910156 56.589844 C 10.355469 56.203125 11.226562 54.703125 10.835938 53.253906 L 9.882812 49.683594 C 9.851562 49.574219 9.785156 49.496094 9.703125 49.445312 L 9.703125 49.449219 C 9.613281 49.402344 9.507812 49.386719 9.40625 49.414062 L 7.152344 50.015625 C 6.410156 50.214844 5.855469 50.679688 5.496094 51.289062 C 5.148438 51.894531 5.027344 52.628906 5.226562 53.355469 L 5.574219 54.664062 C 5.96875 56.136719 7.484375 56.972656 8.910156 56.589844 Z M 6.964844 58.421875 C 5.417969 57.988281 4.160156 56.773438 3.726562 55.160156 L 3.375 53.851562 C 3.046875 52.617188 3.25 51.363281 3.84375 50.332031 L 3.84375 50.335938 C 4.441406 49.304688 5.425781 48.503906 6.648438 48.171875 C 7.128906 48.042969 8.925781 47.527344 9.296875 47.5 C 11.082031 45.203125 13.699219 43.691406 16.609375 43.320312 C 12.175781 39.988281 11.703125 33.5 15.632812 29.566406 C 19.199219 26.003906 24.976562 26.003906 28.542969 29.566406 C 32.433594 33.457031 32.019531 39.867188 27.683594 43.234375 L 28.339844 43.234375 C 31.191406 43.234375 33.726562 44.804688 35.058594 47.203125 C 36.382812 44.804688 38.925781 43.234375 41.773438 43.234375 L 42.433594 43.234375 C 38.089844 39.867188 37.679688 33.457031 41.566406 29.566406 C 45.132812 26.003906 50.910156 26.003906 54.476562 29.566406 C 58.40625 33.5 57.9375 39.988281 53.5 43.320312 C 54.804688 43.488281 56.039062 43.882812 57.164062 44.464844 C 58.605469 45.207031 59.863281 46.265625 60.847656 47.539062 L 63.21875 48.167969 C 64.445312 48.5 65.429688 49.304688 66.027344 50.335938 L 66.027344 50.332031 C 66.621094 51.363281 66.824219 52.617188 66.496094 53.851562 L 66.144531 55.160156 C 65.734375 56.6875 64.585938 57.859375 63.148438 58.347656 L 63.148438 62.277344 C 63.148438 64.652344 61.214844 66.589844 58.835938 66.589844 L 38.414062 66.589844 C 37.070312 66.589844 35.855469 65.96875 35.058594 64.980469 C 34.257812 65.96875 33.042969 66.589844 31.695312 66.589844 L 11.277344 66.589844 C 8.902344 66.589844 6.964844 64.652344 6.964844 62.277344 Z M 59.308594 55.320312 C 60.523438 57.421875 63.675781 56.992188 64.296875 54.664062 L 64.648438 53.355469 C 64.84375 52.628906 64.726562 51.894531 64.375 51.289062 C 64.015625 50.679688 63.460938 50.214844 62.722656 50.015625 L 60.464844 49.414062 C 60.359375 49.386719 60.257812 49.402344 60.171875 49.449219 L 60.171875 49.445312 C 60.085938 49.496094 60.019531 49.574219 59.992188 49.683594 L 59.039062 53.253906 C 58.839844 53.976562 58.957031 54.714844 59.308594 55.320312 Z M 48.023438 28.804688 C 44.042969 28.804688 40.808594 32.039062 40.808594 36.023438 C 40.808594 40.007812 44.042969 43.234375 48.023438 43.234375 C 52.007812 43.234375 55.238281 40.007812 55.238281 36.023438 C 55.238281 32.039062 52.007812 28.808594 48.023438 28.808594 Z M 27.191406 30.921875 C 24.371094 28.105469 19.804688 28.105469 16.984375 30.921875 C 14.171875 33.738281 14.171875 38.304688 16.984375 41.125 C 19.804688 43.941406 24.371094 43.941406 27.191406 41.125 C 30.003906 38.304688 30.003906 33.738281 27.191406 30.921875 Z M 27.191406 30.921875 "/>
</g>
</svg>
