<?xml version="1.0" encoding="UTF-8"?>
<svg xmlns="http://www.w3.org/2000/svg" xmlns:xlink="http://www.w3.org/1999/xlink" width="70px" height="70px" viewBox="0 0 70 70" version="1.1">
<g id="surface1">
<path style=" stroke:none;fill-rule:nonzero;fill:rgb(0%,0%,0%);fill-opacity:1;" d="M 43.507812 40.195312 C 41.882812 37.707031 41.519531 35.4375 42.425781 33.28125 C 44.742188 31.53125 46.441406 28.972656 47.1875 25.957031 L 48.089844 25.957031 C 49.488281 25.957031 50.628906 24.820312 50.628906 23.417969 L 50.628906 21.269531 C 50.628906 20.242188 50.007812 19.355469 49.125 18.957031 C 51.070312 12.105469 49.460938 6.253906 44.640625 2.832031 C 39.21875 -1.015625 30.847656 -0.933594 25.589844 3.019531 C 21.007812 6.460938 19.632812 12.167969 21.761719 18.730469 L 21.214844 18.730469 C 19.8125 18.730469 18.675781 19.871094 18.675781 21.269531 L 18.675781 23.417969 C 18.675781 24.820312 19.8125 25.957031 21.214844 25.957031 L 22.304688 25.957031 C 23.121094 29.082031 25.050781 31.761719 27.65625 33.527344 C 28.441406 35.609375 28.054688 37.800781 26.492188 40.195312 C 8.289062 40.34375 4.933594 49.363281 4.933594 66.988281 C 4.933594 68.648438 6.285156 70 7.945312 70 L 62.054688 70 C 63.71875 70 65.066406 68.648438 65.066406 66.988281 C 65.066406 50.441406 63.597656 40.347656 43.507812 40.195312 Z M 48.734375 23.417969 C 48.734375 23.777344 48.445312 24.066406 48.089844 24.066406 L 47.527344 24.066406 C 47.585938 23.550781 47.621094 23.027344 47.621094 22.492188 C 47.621094 22.445312 47.617188 22.398438 47.609375 22.351562 L 47.347656 20.625 L 48.089844 20.625 C 48.445312 20.625 48.734375 20.914062 48.734375 21.269531 Z M 21.214844 24.066406 C 20.859375 24.066406 20.566406 23.777344 20.566406 23.417969 L 20.566406 21.269531 C 20.566406 20.914062 20.859375 20.625 21.214844 20.625 L 21.859375 20.625 L 21.859375 22.636719 C 21.859375 23.121094 21.890625 23.597656 21.941406 24.066406 Z M 26.722656 4.53125 C 31.367188 1.042969 38.753906 0.976562 43.546875 4.375 C 47.796875 7.394531 49.089844 12.484375 47.222656 18.730469 L 47.0625 18.730469 L 46.632812 15.882812 C 46.402344 14.34375 45 13.214844 43.386719 13.214844 C 43.292969 13.214844 43.199219 13.21875 43.105469 13.226562 L 42.957031 13.238281 C 38.640625 13.570312 33.75 13.941406 29.773438 12.179688 C 28.496094 11.613281 27.054688 11.972656 26.1875 13.070312 L 23.1875 16.882812 C 21.835938 11.625 23.066406 7.28125 26.722656 4.53125 Z M 23.753906 22.636719 L 23.753906 19.21875 L 27.675781 14.242188 C 27.996094 13.832031 28.53125 13.699219 29.007812 13.910156 C 33.417969 15.867188 38.5625 15.472656 43.101562 15.125 L 43.253906 15.113281 C 43.90625 15.058594 44.652344 15.4375 44.761719 16.164062 L 45.730469 22.5625 C 45.695312 28.914062 40.992188 33.882812 35 33.882812 C 28.796875 33.882812 23.753906 28.835938 23.753906 22.636719 Z M 29.902344 34.742188 C 31.472656 35.40625 33.191406 35.773438 35 35.773438 C 36.828125 35.773438 38.550781 35.375 40.109375 34.671875 C 39.824219 36.890625 40.511719 39.210938 42.160156 41.59375 L 35 59.53125 L 27.839844 41.59375 C 29.46875 39.238281 30.160156 36.945312 29.902344 34.742188 Z M 62.054688 68.109375 L 7.945312 68.109375 C 7.328125 68.109375 6.824219 67.605469 6.824219 66.988281 C 6.824219 50.085938 9.632812 42.375 26.003906 42.09375 L 33.917969 61.925781 C 34.097656 62.371094 34.519531 62.660156 35 62.660156 C 35.480469 62.660156 35.90625 62.371094 36.078125 61.929688 L 43.996094 42.09375 C 61.328125 42.359375 63.175781 49.976562 63.175781 66.988281 C 63.175781 67.605469 62.671875 68.109375 62.054688 68.109375 Z M 20.691406 46.796875 C 20.816406 47.300781 20.511719 47.816406 20.003906 47.945312 C 17.910156 48.472656 16.320312 49.347656 15.140625 50.617188 C 14.550781 51.257812 14.0625 51.992188 13.648438 52.863281 C 13.488281 53.207031 13.148438 53.40625 12.792969 53.40625 C 12.660156 53.40625 12.519531 53.378906 12.390625 53.316406 C 11.917969 53.09375 11.714844 52.53125 11.9375 52.058594 C 12.425781 51.019531 13.039062 50.101562 13.753906 49.332031 C 15.1875 47.785156 17.082031 46.730469 19.542969 46.109375 C 20.050781 45.984375 20.5625 46.289062 20.691406 46.796875 Z M 12.667969 55.871094 C 12.503906 56.636719 12.367188 57.492188 12.265625 58.40625 C 12.214844 58.890625 11.804688 59.246094 11.328125 59.246094 C 11.292969 59.246094 11.257812 59.246094 11.222656 59.242188 C 10.703125 59.183594 10.328125 58.71875 10.386719 58.199219 C 10.492188 57.21875 10.640625 56.300781 10.820312 55.472656 C 10.929688 54.960938 11.433594 54.632812 11.945312 54.746094 C 12.453125 54.859375 12.777344 55.359375 12.667969 55.871094 Z M 56.390625 52.089844 L 53.453125 52.089844 L 53.453125 49.15625 C 53.453125 48.554688 52.964844 48.066406 52.363281 48.066406 L 48.558594 48.066406 C 47.957031 48.066406 47.46875 48.554688 47.46875 49.15625 L 47.46875 52.089844 L 44.535156 52.089844 C 43.933594 52.089844 43.441406 52.582031 43.441406 53.183594 L 43.441406 56.984375 C 43.441406 57.585938 43.933594 58.078125 44.535156 58.078125 L 47.46875 58.078125 L 47.46875 61.011719 C 47.46875 61.613281 47.957031 62.101562 48.558594 62.101562 L 52.363281 62.101562 C 52.964844 62.101562 53.453125 61.613281 53.453125 61.011719 L 53.453125 58.078125 L 56.390625 58.078125 C 56.992188 58.078125 57.480469 57.585938 57.480469 56.984375 L 57.480469 53.183594 C 57.480469 52.582031 56.992188 52.089844 56.390625 52.089844 Z M 55.585938 56.183594 L 52.652344 56.183594 C 52.050781 56.183594 51.5625 56.675781 51.5625 57.277344 L 51.5625 60.210938 L 49.359375 60.210938 L 49.359375 57.277344 C 49.359375 56.675781 48.871094 56.183594 48.269531 56.183594 L 45.335938 56.183594 L 45.335938 53.984375 L 48.269531 53.984375 C 48.871094 53.984375 49.359375 53.496094 49.359375 52.890625 L 49.359375 49.957031 L 51.5625 49.957031 L 51.5625 52.890625 C 51.5625 53.496094 52.050781 53.984375 52.652344 53.984375 L 55.585938 53.984375 Z M 55.585938 56.183594 "/>
</g>
</svg>
