<?xml version="1.0" encoding="UTF-8"?>
<svg xmlns="http://www.w3.org/2000/svg" xmlns:xlink="http://www.w3.org/1999/xlink" width="40px" height="40px" viewBox="0 0 40 40" version="1.1">
<g id="surface1">
<path style=" stroke:none;fill-rule:nonzero;fill:rgb(0%,0%,0%);fill-opacity:1;" d="M 39.667969 15.921875 C 39.546875 15.023438 38.976562 14.410156 38.210938 14.363281 C 37.515625 14.316406 36.675781 14.789062 36.367188 15.945312 C 36.007812 17.277344 34.949219 20.359375 33.96875 22.578125 C 33.722656 22.265625 33.375 22.042969 32.96875 21.9375 C 32.292969 21.765625 31.609375 21.964844 31.136719 22.472656 C 29.148438 24.457031 27.328125 25.210938 25.71875 25.875 C 24.234375 26.488281 22.949219 27.019531 22.128906 28.367188 C 21.3125 29.707031 21.050781 31.730469 21.296875 34.90625 C 20.730469 35.136719 20.332031 35.691406 20.332031 36.339844 L 20.332031 39.140625 C 20.332031 39.441406 20.578125 39.6875 20.878906 39.6875 L 29.542969 39.6875 C 29.6875 39.6875 29.828125 39.628906 29.929688 39.527344 C 30.03125 39.425781 30.089844 39.285156 30.089844 39.140625 L 30.089844 36.339844 C 30.089844 35.925781 29.929688 35.539062 29.636719 35.246094 C 29.523438 35.132812 29.398438 35.042969 29.261719 34.96875 C 29.78125 33.757812 30.726562 32.761719 32.03125 31.601562 C 32.335938 31.332031 32.660156 31.054688 33.003906 30.765625 C 33.820312 30.066406 34.667969 29.347656 35.40625 28.574219 C 36.96875 26.941406 37.503906 25.464844 38.089844 23.5625 C 38.722656 21.503906 39.835938 17.148438 39.667969 15.921875 Z M 21.425781 38.59375 L 21.425781 36.339844 C 21.425781 36.089844 21.628906 35.886719 21.878906 35.886719 L 28.542969 35.886719 C 28.664062 35.886719 28.777344 35.933594 28.863281 36.019531 C 28.949219 36.105469 28.996094 36.21875 28.996094 36.339844 L 28.996094 38.59375 C 28.996094 38.59375 21.425781 38.59375 21.425781 38.59375 Z M 37.042969 23.242188 C 36.488281 25.054688 36.015625 26.355469 34.617188 27.816406 C 33.914062 28.550781 33.089844 29.253906 32.292969 29.929688 C 31.945312 30.226562 31.617188 30.507812 31.304688 30.78125 C 30.113281 31.839844 28.804688 33.101562 28.15625 34.792969 L 22.382812 34.792969 C 22.167969 31.914062 22.382812 30.050781 23.0625 28.9375 C 23.699219 27.894531 24.722656 27.472656 26.136719 26.886719 C 27.757812 26.214844 29.773438 25.382812 31.914062 23.238281 C 31.921875 23.234375 31.925781 23.230469 31.929688 23.222656 C 32.128906 23.011719 32.414062 22.925781 32.699219 23 C 32.984375 23.070312 33.195312 23.28125 33.265625 23.5625 C 33.585938 24.808594 30.207031 27.558594 28.773438 28.011719 C 28.484375 28.101562 28.324219 28.410156 28.417969 28.695312 C 28.507812 28.984375 28.816406 29.144531 29.101562 29.054688 C 30.308594 28.671875 33.339844 26.605469 34.164062 24.652344 L 34.167969 24.65625 C 35.347656 22.5625 36.945312 18.011719 37.421875 16.226562 C 37.570312 15.675781 37.898438 15.4375 38.144531 15.453125 C 38.371094 15.46875 38.535156 15.699219 38.585938 16.066406 C 38.699219 16.898438 37.835938 20.671875 37.042969 23.242188 Z M 18.703125 34.90625 C 18.949219 31.730469 18.6875 29.707031 17.871094 28.367188 C 17.050781 27.019531 15.765625 26.488281 14.28125 25.875 C 12.671875 25.210938 10.851562 24.457031 8.863281 22.472656 C 8.390625 21.964844 7.707031 21.765625 7.03125 21.9375 C 6.625 22.042969 6.277344 22.265625 6.03125 22.578125 C 5.050781 20.359375 3.992188 17.277344 3.632812 15.945312 C 3.324219 14.789062 2.480469 14.320312 1.789062 14.363281 C 1.023438 14.410156 0.453125 15.023438 0.332031 15.921875 C 0.164062 17.148438 1.277344 21.503906 1.910156 23.5625 C 2.496094 25.464844 3.03125 26.941406 4.59375 28.574219 C 5.332031 29.347656 6.179688 30.066406 6.996094 30.761719 C 7.339844 31.054688 7.664062 31.332031 7.96875 31.601562 C 9.273438 32.761719 10.21875 33.757812 10.738281 34.96875 C 10.601562 35.042969 10.476562 35.132812 10.363281 35.246094 C 10.070312 35.539062 9.910156 35.925781 9.910156 36.339844 L 9.910156 39.140625 C 9.910156 39.441406 10.15625 39.6875 10.457031 39.6875 L 19.121094 39.6875 C 19.421875 39.6875 19.667969 39.441406 19.667969 39.140625 L 19.667969 36.339844 C 19.667969 35.691406 19.269531 35.136719 18.703125 34.90625 Z M 8.695312 30.78125 C 8.382812 30.507812 8.054688 30.226562 7.707031 29.929688 C 6.910156 29.253906 6.085938 28.550781 5.382812 27.816406 C 3.984375 26.355469 3.511719 25.054688 2.957031 23.242188 C 2.164062 20.671875 1.300781 16.898438 1.414062 16.066406 C 1.464844 15.699219 1.628906 15.46875 1.855469 15.453125 C 2.101562 15.4375 2.429688 15.675781 2.578125 16.226562 C 3.054688 18.011719 4.652344 22.566406 5.832031 24.65625 L 5.835938 24.652344 C 6.660156 26.605469 9.691406 28.671875 10.898438 29.054688 C 11.183594 29.144531 11.492188 28.984375 11.582031 28.695312 C 11.675781 28.410156 11.515625 28.101562 11.226562 28.011719 C 9.792969 27.558594 6.417969 24.808594 6.734375 23.5625 C 6.804688 23.28125 7.015625 23.070312 7.300781 23 C 7.585938 22.925781 7.871094 23.011719 8.070312 23.222656 C 8.074219 23.230469 8.078125 23.234375 8.085938 23.238281 C 10.226562 25.382812 12.242188 26.214844 13.863281 26.886719 C 15.277344 27.472656 16.300781 27.894531 16.9375 28.9375 C 17.617188 30.050781 17.835938 31.914062 17.617188 34.792969 L 11.847656 34.792969 C 11.195312 33.101562 9.886719 31.839844 8.695312 30.78125 Z M 18.574219 38.59375 L 11.003906 38.59375 L 11.003906 36.339844 C 11.003906 36.21875 11.050781 36.105469 11.136719 36.019531 C 11.222656 35.933594 11.335938 35.886719 11.457031 35.886719 L 18.121094 35.886719 C 18.371094 35.886719 18.574219 36.089844 18.574219 36.339844 Z M 13.75 13.109375 L 26.25 13.109375 C 26.402344 13.109375 26.550781 13.042969 26.652344 12.929688 C 26.757812 12.816406 26.808594 12.667969 26.792969 12.511719 C 26.644531 10.824219 25.867188 9.257812 24.613281 8.109375 C 23.894531 7.445312 23.054688 6.957031 22.144531 6.65625 C 22.992188 6.007812 23.535156 4.992188 23.535156 3.847656 C 23.535156 1.898438 21.949219 0.3125 20 0.3125 C 18.050781 0.3125 16.464844 1.898438 16.464844 3.847656 C 16.464844 4.992188 17.011719 6.007812 17.855469 6.65625 C 16.945312 6.957031 16.105469 7.445312 15.386719 8.109375 C 14.132812 9.257812 13.359375 10.824219 13.207031 12.511719 C 13.191406 12.667969 13.242188 12.816406 13.347656 12.929688 C 13.449219 13.042969 13.597656 13.109375 13.75 13.109375 Z M 20 1.40625 C 21.347656 1.40625 22.441406 2.5 22.441406 3.847656 C 22.441406 5.195312 21.347656 6.289062 20 6.289062 C 18.652344 6.289062 17.558594 5.195312 17.558594 3.847656 C 17.558594 2.5 18.652344 1.40625 20 1.40625 Z M 20 7.402344 C 22.78125 7.402344 25.101562 9.347656 25.621094 12.015625 L 14.378906 12.015625 C 14.898438 9.347656 17.21875 7.402344 20 7.402344 Z M 9.609375 16.835938 L 11.390625 17.1875 L 12.074219 18.835938 L 11.0625 20.34375 C 10.917969 20.5625 10.945312 20.851562 11.128906 21.035156 L 13.550781 23.457031 C 13.734375 23.640625 14.027344 23.671875 14.242188 23.523438 L 15.75 22.511719 L 17.398438 23.195312 L 17.75 24.976562 C 17.800781 25.234375 18.027344 25.417969 18.289062 25.417969 L 21.710938 25.417969 C 21.972656 25.417969 22.199219 25.234375 22.25 24.976562 L 22.601562 23.195312 L 24.25 22.511719 L 25.757812 23.523438 C 25.972656 23.671875 26.265625 23.640625 26.449219 23.457031 L 28.871094 21.035156 C 29.054688 20.851562 29.085938 20.5625 28.9375 20.34375 L 27.925781 18.835938 L 28.609375 17.1875 L 30.390625 16.835938 C 30.648438 16.785156 30.832031 16.558594 30.832031 16.300781 L 30.832031 14.585938 C 30.832031 14.285156 30.589844 14.039062 30.285156 14.039062 L 25.820312 14.039062 C 25.519531 14.039062 25.273438 14.285156 25.273438 14.585938 C 25.273438 17.496094 22.910156 19.859375 20 19.859375 C 17.09375 19.859375 14.726562 17.496094 14.726562 14.585938 C 14.726562 14.285156 14.484375 14.039062 14.179688 14.039062 L 9.714844 14.039062 C 9.414062 14.039062 9.167969 14.285156 9.167969 14.585938 L 9.167969 16.300781 C 9.167969 16.558594 9.351562 16.785156 9.609375 16.835938 Z M 10.261719 15.132812 L 13.65625 15.132812 C 13.933594 18.390625 16.675781 20.953125 20 20.953125 C 23.328125 20.953125 26.066406 18.390625 26.34375 15.132812 L 29.738281 15.132812 L 29.738281 15.847656 L 28.113281 16.171875 C 27.933594 16.207031 27.78125 16.328125 27.710938 16.496094 L 26.804688 18.6875 C 26.734375 18.855469 26.753906 19.050781 26.855469 19.199219 L 27.78125 20.578125 L 25.992188 22.367188 L 24.613281 21.441406 C 24.460938 21.339844 24.269531 21.320312 24.101562 21.390625 L 21.910156 22.296875 C 21.742188 22.367188 21.621094 22.519531 21.582031 22.699219 L 21.261719 24.324219 L 18.738281 24.324219 L 18.417969 22.699219 C 18.378906 22.519531 18.257812 22.367188 18.089844 22.296875 L 15.898438 21.390625 C 15.730469 21.320312 15.539062 21.339844 15.386719 21.441406 L 14.007812 22.367188 L 12.21875 20.578125 L 13.144531 19.199219 C 13.246094 19.050781 13.265625 18.855469 13.195312 18.6875 L 12.289062 16.496094 C 12.21875 16.328125 12.066406 16.207031 11.886719 16.171875 L 10.261719 15.847656 Z M 10.261719 15.132812 "/>
</g>
</svg>
