<?xml version="1.0" encoding="UTF-8"?>
<svg xmlns="http://www.w3.org/2000/svg" xmlns:xlink="http://www.w3.org/1999/xlink" width="40px" height="40px" viewBox="0 0 40 40" version="1.1">
<g id="surface1">
<path style=" stroke:none;fill-rule:nonzero;fill:rgb(0%,0%,0%);fill-opacity:1;" d="M 38.9375 29.164062 L 35.847656 16.003906 C 35.738281 15.550781 35.460938 15.164062 35.0625 14.917969 C 34.664062 14.667969 34.195312 14.59375 33.742188 14.699219 L 30.871094 15.375 C 30.417969 15.480469 30.03125 15.757812 29.785156 16.15625 C 29.535156 16.554688 29.457031 17.023438 29.566406 17.480469 L 29.792969 18.453125 L 29.488281 18.5625 C 28.59375 18.886719 27.707031 18.835938 26.855469 18.40625 L 24.773438 17.359375 C 27.507812 14.4375 28.5625 10.109375 28.5625 6.398438 L 28.5625 4.714844 C 28.5625 4.445312 28.390625 4.207031 28.136719 4.121094 L 20.199219 1.460938 C 20.070312 1.414062 19.929688 1.414062 19.800781 1.460938 L 11.863281 4.121094 C 11.609375 4.207031 11.4375 4.445312 11.4375 4.714844 L 11.4375 6.398438 C 11.4375 10.140625 12.507812 14.511719 15.296875 17.433594 L 10.445312 17.433594 C 10.636719 16.507812 10.054688 15.589844 9.128906 15.375 L 6.257812 14.699219 C 5.804688 14.59375 5.335938 14.667969 4.9375 14.917969 C 4.539062 15.164062 4.261719 15.550781 4.152344 16.003906 L 1.0625 29.164062 C 0.957031 29.617188 1.03125 30.089844 1.28125 30.488281 C 1.527344 30.882812 1.914062 31.164062 2.367188 31.269531 L 5.238281 31.945312 C 5.371094 31.976562 5.503906 31.992188 5.636719 31.992188 C 6.238281 31.992188 6.796875 31.679688 7.117188 31.179688 L 13.773438 37.816406 C 14.261719 38.304688 14.914062 38.574219 15.609375 38.574219 C 16.308594 38.574219 16.960938 38.300781 17.449219 37.8125 C 17.789062 37.472656 18.023438 37.050781 18.132812 36.589844 L 18.785156 37.238281 C 19.300781 37.753906 19.9375 38.027344 20.589844 38.027344 C 20.800781 38.027344 21.015625 37.996094 21.226562 37.941406 C 22.144531 37.691406 22.898438 36.941406 23.15625 36.023438 L 23.207031 36.074219 C 23.761719 36.628906 24.394531 36.863281 25 36.863281 C 25.707031 36.863281 26.378906 36.550781 26.871094 36.058594 C 27.390625 35.539062 27.707031 34.8125 27.664062 34.0625 C 27.710938 34.0625 27.753906 34.066406 27.800781 34.066406 C 28.011719 34.066406 28.222656 34.039062 28.433594 33.980469 C 29.363281 33.730469 30.125 32.96875 30.371094 32.039062 C 30.421875 31.847656 30.445312 31.65625 30.453125 31.46875 C 30.664062 31.515625 30.882812 31.539062 31.101562 31.539062 C 31.535156 31.539062 31.972656 31.449219 32.398438 31.257812 L 32.820312 31.074219 C 33.125 31.636719 33.71875 31.992188 34.359375 31.992188 C 34.492188 31.992188 34.628906 31.976562 34.761719 31.945312 L 37.632812 31.269531 C 38.085938 31.164062 38.472656 30.886719 38.71875 30.488281 C 38.96875 30.089844 39.042969 29.617188 38.9375 29.164062 Z M 12.6875 5.164062 L 20 2.710938 L 27.3125 5.164062 L 27.3125 6.398438 C 27.3125 11.042969 25.5625 16.722656 20.648438 18.730469 L 20 18.996094 L 19.351562 18.726562 C 14.4375 16.722656 12.6875 11.042969 12.6875 6.398438 Z M 5.523438 30.726562 L 2.652344 30.050781 C 2.523438 30.023438 2.414062 29.941406 2.34375 29.828125 C 2.269531 29.714844 2.25 29.578125 2.277344 29.449219 L 5.371094 16.289062 C 5.402344 16.160156 5.480469 16.050781 5.59375 15.980469 C 5.675781 15.929688 5.765625 15.902344 5.859375 15.902344 C 5.894531 15.902344 5.933594 15.90625 5.972656 15.917969 L 8.847656 16.59375 C 9.109375 16.652344 9.277344 16.929688 9.21875 17.191406 L 6.125 30.355469 C 6.0625 30.625 5.792969 30.789062 5.523438 30.726562 Z M 29.164062 31.71875 C 29.03125 32.214844 28.605469 32.640625 28.109375 32.773438 C 27.804688 32.855469 27.339844 32.859375 26.875 32.394531 L 22.191406 27.726562 C 21.949219 27.480469 21.554688 27.480469 21.308594 27.726562 C 21.066406 27.96875 21.066406 28.367188 21.308594 28.609375 L 25.992188 33.28125 C 26.738281 34.023438 26.339844 34.820312 25.984375 35.175781 C 25.632812 35.53125 24.832031 35.933594 24.089844 35.191406 L 19.070312 30.183594 C 18.828125 29.941406 18.429688 29.941406 18.1875 30.1875 C 17.941406 30.429688 17.945312 30.828125 18.1875 31.070312 L 21.570312 34.445312 C 22.035156 34.90625 22.035156 35.371094 21.953125 35.675781 C 21.820312 36.175781 21.398438 36.597656 20.902344 36.734375 C 20.59375 36.816406 20.132812 36.816406 19.667969 36.355469 L 15.949219 32.644531 C 15.707031 32.402344 15.308594 32.402344 15.066406 32.648438 C 14.824219 32.890625 14.824219 33.285156 15.066406 33.53125 L 16.5625 35.023438 C 16.816406 35.277344 16.957031 35.613281 16.957031 35.976562 C 16.957031 36.335938 16.816406 36.675781 16.5625 36.929688 C 16.3125 37.183594 15.972656 37.324219 15.609375 37.324219 C 15.25 37.324219 14.910156 37.183594 14.65625 36.929688 L 7.535156 29.828125 L 10.152344 18.683594 L 16.335938 18.683594 L 12.539062 22.949219 C 12.144531 23.390625 11.984375 23.957031 12.089844 24.539062 C 12.195312 25.117188 12.539062 25.589844 13.0625 25.871094 C 14.769531 26.773438 16.839844 26.664062 18.464844 25.582031 L 20.414062 24.289062 C 21.171875 23.78125 22.15625 23.878906 22.800781 24.523438 L 27.933594 29.640625 C 27.9375 29.644531 27.941406 29.652344 27.949219 29.65625 L 28.785156 30.492188 C 29.246094 30.953125 29.246094 31.410156 29.164062 31.71875 Z M 31.894531 30.117188 C 31.160156 30.441406 30.355469 30.292969 29.789062 29.726562 L 23.683594 23.640625 C 22.613281 22.570312 20.980469 22.410156 19.71875 23.246094 L 17.769531 24.542969 C 16.527344 25.367188 14.949219 25.453125 13.648438 24.765625 C 13.464844 24.667969 13.355469 24.519531 13.320312 24.316406 C 13.285156 24.109375 13.332031 23.933594 13.472656 23.78125 L 17.535156 19.21875 C 17.957031 19.46875 18.402344 19.691406 18.878906 19.886719 L 19.761719 20.25 C 19.839844 20.28125 19.917969 20.296875 20 20.296875 C 20.082031 20.296875 20.160156 20.28125 20.238281 20.25 L 21.121094 19.886719 C 22.132812 19.472656 23.023438 18.925781 23.808594 18.273438 L 26.292969 19.523438 C 26.960938 19.859375 27.640625 20.027344 28.332031 20.027344 C 28.855469 20.027344 29.382812 19.929688 29.914062 19.738281 L 30.082031 19.675781 L 32.472656 29.859375 Z M 37.65625 29.828125 C 37.585938 29.941406 37.476562 30.023438 37.347656 30.050781 L 34.476562 30.726562 C 34.210938 30.789062 33.9375 30.617188 33.875 30.355469 L 30.78125 17.191406 C 30.75 17.0625 30.773438 16.929688 30.84375 16.816406 C 30.917969 16.699219 31.027344 16.621094 31.15625 16.589844 L 34.027344 15.914062 C 34.066406 15.90625 34.105469 15.902344 34.140625 15.902344 C 34.234375 15.902344 34.324219 15.929688 34.40625 15.980469 C 34.519531 16.050781 34.597656 16.160156 34.628906 16.289062 L 37.722656 29.449219 C 37.75 29.578125 37.730469 29.714844 37.65625 29.828125 Z M 19.761719 17.71875 C 19.839844 17.75 19.917969 17.765625 20 17.765625 C 20.082031 17.765625 20.160156 17.75 20.238281 17.71875 C 23.128906 16.535156 26.222656 12.9375 26.222656 6.398438 C 26.222656 6.128906 26.050781 5.890625 25.792969 5.804688 L 20.199219 3.929688 C 20.070312 3.886719 19.929688 3.886719 19.800781 3.929688 L 14.207031 5.804688 C 13.949219 5.890625 13.777344 6.128906 13.777344 6.398438 C 13.777344 12.941406 16.871094 16.535156 19.761719 17.71875 Z M 20 5.183594 L 24.964844 6.847656 C 24.839844 12.300781 22.382812 15.355469 20 16.457031 C 17.617188 15.359375 15.160156 12.300781 15.035156 6.847656 Z M 18.035156 11.542969 C 17.789062 11.300781 17.78125 10.90625 18.019531 10.65625 C 18.257812 10.410156 18.65625 10.402344 18.902344 10.640625 L 19.5 11.214844 L 21.066406 9.492188 C 21.300781 9.238281 21.695312 9.21875 21.953125 9.449219 C 22.207031 9.683594 22.226562 10.078125 21.992188 10.335938 L 19.988281 12.53125 C 19.875 12.65625 19.71875 12.730469 19.546875 12.734375 C 19.542969 12.734375 19.535156 12.734375 19.527344 12.734375 C 19.367188 12.734375 19.210938 12.671875 19.09375 12.558594 Z M 18.035156 11.542969 "/>
</g>
</svg>
