<?xml version="1.0" encoding="UTF-8"?>
<svg xmlns="http://www.w3.org/2000/svg" xmlns:xlink="http://www.w3.org/1999/xlink" width="35px" height="35px" viewBox="0 0 35 35" version="1.1">
<g id="surface1">
<path style=" stroke:none;fill-rule:nonzero;fill:rgb(0%,0%,0%);fill-opacity:1;" d="M 15.523438 30.503906 L 2.683594 30.503906 C 2.417969 30.503906 2.164062 30.398438 1.976562 30.207031 C 1.785156 30.015625 1.6875 29.761719 1.6875 29.496094 C 1.703125 28.257812 1.792969 25.953125 2.226562 24.402344 C 2.359375 23.921875 2.523438 23.53125 2.742188 23.171875 C 2.921875 22.863281 3.449219 22.09375 4.398438 21.558594 C 5.273438 21.066406 6.109375 20.992188 6.660156 21.019531 C 6.753906 21.023438 6.847656 21.058594 6.925781 21.117188 L 9.046875 22.664062 L 11.292969 21.109375 C 11.367188 21.054688 11.460938 21.027344 11.550781 21.019531 C 12.101562 20.996094 12.9375 21.066406 13.8125 21.558594 C 14.757812 22.089844 15.285156 22.863281 15.46875 23.171875 C 15.6875 23.53125 15.851562 23.925781 15.984375 24.402344 C 16.417969 25.953125 16.507812 28.257812 16.523438 29.496094 C 16.527344 29.761719 16.421875 30.015625 16.234375 30.207031 C 16.042969 30.398438 15.792969 30.503906 15.523438 30.503906 Z M 9.085938 29.515625 L 15.523438 29.515625 C 15.527344 29.515625 15.527344 29.515625 15.53125 29.511719 C 15.53125 29.511719 15.53125 29.507812 15.53125 29.507812 C 15.515625 28.320312 15.433594 26.109375 15.03125 24.671875 C 14.921875 24.273438 14.792969 23.964844 14.621094 23.675781 C 14.476562 23.4375 14.066406 22.839844 13.328125 22.421875 C 12.730469 22.085938 12.15625 22.003906 11.742188 22.003906 C 11.738281 22.003906 11.738281 22.003906 11.734375 22.003906 L 9.324219 23.675781 C 9.148438 23.796875 8.917969 23.792969 8.75 23.671875 L 6.46875 22.007812 C 6.054688 22.007812 5.480469 22.085938 4.882812 22.425781 C 4.140625 22.839844 3.730469 23.441406 3.589844 23.679688 C 3.414062 23.96875 3.289062 24.273438 3.175781 24.671875 C 2.773438 26.113281 2.691406 28.320312 2.675781 29.507812 C 2.675781 29.511719 2.675781 29.511719 2.679688 29.515625 C 2.679688 29.515625 2.683594 29.515625 2.683594 29.515625 Z M 9.085938 29.515625 "/>
<path style=" stroke:none;fill-rule:nonzero;fill:rgb(0%,0%,0%);fill-opacity:1;" d="M 5.097656 30.503906 C 4.824219 30.503906 4.605469 30.285156 4.605469 30.007812 L 4.605469 26.121094 C 4.605469 25.847656 4.824219 25.628906 5.097656 25.628906 C 5.371094 25.628906 5.589844 25.847656 5.589844 26.121094 L 5.589844 30.007812 C 5.589844 30.28125 5.371094 30.503906 5.097656 30.503906 Z M 5.097656 30.503906 "/>
<path style=" stroke:none;fill-rule:nonzero;fill:rgb(0%,0%,0%);fill-opacity:1;" d="M 13.109375 30.503906 C 12.835938 30.503906 12.617188 30.285156 12.617188 30.007812 L 12.617188 26.121094 C 12.617188 25.847656 12.835938 25.628906 13.109375 25.628906 C 13.382812 25.628906 13.605469 25.847656 13.605469 26.121094 L 13.605469 30.007812 C 13.605469 30.28125 13.382812 30.503906 13.109375 30.503906 Z M 13.109375 30.503906 "/>
<path style=" stroke:none;fill-rule:nonzero;fill:rgb(0%,0%,0%);fill-opacity:1;" d="M 9.121094 21.253906 C 8.128906 21.253906 7.199219 20.828125 6.503906 20.058594 C 5.820312 19.300781 5.445312 18.296875 5.445312 17.230469 L 5.445312 15.742188 C 5.445312 15.53125 5.578125 15.34375 5.777344 15.273438 C 5.949219 15.210938 6.464844 14.988281 6.742188 14.679688 C 6.914062 14.484375 7.207031 14.460938 7.410156 14.625 C 7.4375 14.640625 7.8125 14.914062 8.453125 15.050781 C 9.339844 15.242188 10.300781 15.097656 11.304688 14.625 C 11.496094 14.535156 11.726562 14.578125 11.875 14.730469 C 11.878906 14.734375 12.242188 15.117188 12.570312 15.320312 C 12.71875 15.414062 12.804688 15.570312 12.804688 15.742188 L 12.804688 17.230469 C 12.804688 18.296875 12.429688 19.300781 11.746094 20.058594 C 11.046875 20.828125 10.113281 21.253906 9.121094 21.253906 Z M 6.433594 16.070312 L 6.433594 17.230469 C 6.433594 18.902344 7.640625 20.265625 9.125 20.265625 C 10.609375 20.265625 11.816406 18.902344 11.816406 17.230469 L 11.816406 16 C 11.664062 15.886719 11.519531 15.761719 11.40625 15.65625 C 10.023438 16.230469 8.898438 16.167969 8.183594 16.003906 C 7.742188 15.902344 7.398438 15.753906 7.164062 15.628906 C 6.910156 15.828125 6.636719 15.972656 6.433594 16.070312 Z M 6.433594 16.070312 "/>
<path style=" stroke:none;fill-rule:nonzero;fill:rgb(0%,0%,0%);fill-opacity:1;" d="M 5.9375 16.234375 C 5.746094 16.234375 5.566406 16.125 5.484375 15.9375 C 5.304688 15.523438 5.277344 15.085938 5.253906 14.703125 C 5.234375 14.386719 5.210938 13.996094 5.300781 13.609375 C 5.382812 13.269531 5.582031 12.910156 5.90625 12.511719 C 5.957031 12.453125 6.007812 12.390625 6.066406 12.332031 C 6.941406 11.398438 8.371094 11.03125 8.652344 10.96875 C 9.195312 10.839844 9.71875 10.796875 10.207031 10.835938 C 10.546875 10.863281 10.835938 10.910156 11.089844 10.980469 C 11.453125 11.082031 11.738281 11.28125 11.914062 11.550781 C 12 11.6875 12.054688 11.820312 12.101562 11.9375 C 12.136719 12.035156 12.167969 12.121094 12.207031 12.164062 C 12.265625 12.234375 12.347656 12.300781 12.445312 12.375 C 12.554688 12.464844 12.683594 12.5625 12.800781 12.695312 C 13.078125 13.007812 13.390625 13.53125 13.441406 14.066406 C 13.484375 14.5625 13.292969 14.996094 13.117188 15.3125 C 13.113281 15.320312 13.101562 15.339844 13.089844 15.367188 C 12.792969 15.9375 12.726562 16.027344 12.644531 16.105469 C 12.445312 16.289062 12.128906 16.273438 11.949219 16.074219 C 11.777344 15.886719 11.777344 15.605469 11.9375 15.417969 C 11.964844 15.378906 12.03125 15.261719 12.210938 14.914062 C 12.230469 14.875 12.246094 14.847656 12.25 14.839844 C 12.410156 14.550781 12.472656 14.339844 12.457031 14.15625 C 12.433594 13.921875 12.273438 13.589844 12.0625 13.351562 C 12.003906 13.285156 11.921875 13.222656 11.835938 13.152344 C 11.714844 13.058594 11.578125 12.949219 11.457031 12.804688 C 11.3125 12.632812 11.238281 12.445312 11.179688 12.296875 C 11.152344 12.214844 11.121094 12.136719 11.089844 12.085938 C 11.03125 12 10.902344 11.953125 10.828125 11.929688 C 10.636719 11.878906 10.40625 11.839844 10.132812 11.820312 C 9.746094 11.789062 9.324219 11.828125 8.875 11.929688 C 8.242188 12.078125 7.316406 12.445312 6.789062 13.007812 C 6.75 13.050781 6.710938 13.09375 6.675781 13.140625 C 6.394531 13.484375 6.296875 13.710938 6.265625 13.839844 C 6.207031 14.085938 6.226562 14.382812 6.242188 14.640625 C 6.261719 14.960938 6.285156 15.289062 6.394531 15.546875 C 6.5 15.796875 6.386719 16.085938 6.136719 16.195312 C 6.070312 16.222656 6 16.234375 5.9375 16.234375 Z M 11.976562 15.375 C 11.976562 15.378906 11.976562 15.378906 11.976562 15.375 Z M 11.976562 15.375 "/>
<path style=" stroke:none;fill-rule:nonzero;fill:rgb(0%,0%,0%);fill-opacity:1;" d="M 7.207031 22.425781 C 7.136719 22.425781 7.0625 22.414062 6.996094 22.378906 C 6.75 22.265625 6.640625 21.96875 6.757812 21.722656 C 6.84375 21.539062 6.992188 21.164062 7.003906 20.765625 C 7.007812 20.613281 6.988281 20.550781 6.953125 20.421875 C 6.945312 20.394531 6.9375 20.363281 6.929688 20.332031 C 6.859375 20.070312 7.019531 19.800781 7.285156 19.730469 C 7.546875 19.660156 7.816406 19.816406 7.886719 20.082031 C 7.894531 20.109375 7.902344 20.136719 7.90625 20.160156 C 7.953125 20.320312 8 20.492188 7.992188 20.792969 C 7.976562 21.347656 7.800781 21.832031 7.65625 22.148438 C 7.570312 22.320312 7.390625 22.425781 7.207031 22.425781 Z M 7.207031 22.425781 "/>
<path style=" stroke:none;fill-rule:nonzero;fill:rgb(0%,0%,0%);fill-opacity:1;" d="M 10.96875 22.429688 C 10.789062 22.429688 10.617188 22.328125 10.527344 22.160156 C 10.285156 21.683594 10.148438 21.1875 10.136719 20.722656 C 10.128906 20.484375 10.160156 20.328125 10.1875 20.207031 C 10.238281 19.984375 10.4375 19.820312 10.671875 19.820312 C 10.945312 19.820312 11.164062 20.039062 11.164062 20.3125 C 11.164062 20.355469 11.160156 20.398438 11.152344 20.4375 C 11.132812 20.5 11.121094 20.566406 11.125 20.699219 C 11.132812 21.097656 11.28125 21.46875 11.40625 21.710938 C 11.53125 21.953125 11.433594 22.25 11.191406 22.375 C 11.121094 22.410156 11.042969 22.429688 10.96875 22.429688 Z M 10.96875 22.429688 "/>
<path style=" stroke:none;fill-rule:nonzero;fill:rgb(0%,0%,0%);fill-opacity:1;" d="M 32.316406 30.503906 L 19.476562 30.503906 C 19.207031 30.503906 18.957031 30.398438 18.769531 30.207031 C 18.578125 30.015625 18.476562 29.761719 18.480469 29.496094 C 18.496094 28.257812 18.582031 25.953125 19.015625 24.402344 C 19.152344 23.921875 19.316406 23.53125 19.53125 23.171875 C 19.714844 22.863281 20.242188 22.09375 21.1875 21.558594 C 22.0625 21.066406 22.902344 20.992188 23.449219 21.019531 C 23.546875 21.023438 23.640625 21.058594 23.71875 21.117188 L 25.839844 22.664062 L 28.085938 21.109375 C 28.160156 21.054688 28.25 21.027344 28.34375 21.019531 C 28.894531 20.996094 29.730469 21.066406 30.605469 21.558594 C 31.550781 22.089844 32.078125 22.863281 32.261719 23.171875 C 32.476562 23.53125 32.644531 23.925781 32.777344 24.402344 C 33.210938 25.953125 33.300781 28.257812 33.3125 29.496094 C 33.316406 29.761719 33.214844 30.015625 33.027344 30.207031 C 32.835938 30.398438 32.582031 30.503906 32.316406 30.503906 Z M 25.878906 29.515625 L 32.316406 29.515625 C 32.316406 29.515625 32.320312 29.515625 32.320312 29.511719 C 32.324219 29.511719 32.324219 29.507812 32.324219 29.507812 C 32.308594 28.320312 32.226562 26.109375 31.824219 24.671875 C 31.710938 24.273438 31.585938 23.964844 31.410156 23.675781 C 31.269531 23.4375 30.859375 22.839844 30.117188 22.421875 C 29.519531 22.085938 28.945312 22.003906 28.53125 22.003906 C 28.527344 22.003906 28.527344 22.003906 28.523438 22.003906 L 26.113281 23.675781 C 25.9375 23.796875 25.707031 23.792969 25.539062 23.671875 L 23.257812 22.007812 C 22.84375 22.007812 22.269531 22.085938 21.671875 22.425781 C 20.933594 22.839844 20.519531 23.441406 20.378906 23.679688 C 20.207031 23.96875 20.078125 24.273438 19.964844 24.671875 C 19.5625 26.113281 19.480469 28.320312 19.464844 29.507812 C 19.464844 29.511719 19.464844 29.511719 19.46875 29.515625 C 19.46875 29.515625 19.472656 29.515625 19.472656 29.515625 Z M 25.878906 29.515625 "/>
<path style=" stroke:none;fill-rule:nonzero;fill:rgb(0%,0%,0%);fill-opacity:1;" d="M 21.890625 30.503906 C 21.617188 30.503906 21.394531 30.285156 21.394531 30.007812 L 21.394531 26.121094 C 21.394531 25.847656 21.617188 25.628906 21.890625 25.628906 C 22.164062 25.628906 22.382812 25.847656 22.382812 26.121094 L 22.382812 30.007812 C 22.382812 30.28125 22.164062 30.503906 21.890625 30.503906 Z M 21.890625 30.503906 "/>
<path style=" stroke:none;fill-rule:nonzero;fill:rgb(0%,0%,0%);fill-opacity:1;" d="M 29.902344 30.503906 C 29.628906 30.503906 29.410156 30.285156 29.410156 30.007812 L 29.410156 26.121094 C 29.410156 25.847656 29.628906 25.628906 29.902344 25.628906 C 30.175781 25.628906 30.394531 25.847656 30.394531 26.121094 L 30.394531 30.007812 C 30.394531 30.28125 30.175781 30.503906 29.902344 30.503906 Z M 29.902344 30.503906 "/>
<path style=" stroke:none;fill-rule:nonzero;fill:rgb(0%,0%,0%);fill-opacity:1;" d="M 25.914062 21.253906 C 24.921875 21.253906 23.992188 20.828125 23.296875 20.058594 C 22.613281 19.300781 22.234375 18.296875 22.234375 17.230469 L 22.234375 15.742188 C 22.234375 15.53125 22.367188 15.34375 22.570312 15.273438 C 22.742188 15.210938 23.257812 14.988281 23.53125 14.679688 C 23.710938 14.484375 24 14.460938 24.203125 14.625 C 24.230469 14.640625 24.601562 14.914062 25.246094 15.050781 C 26.132812 15.242188 27.09375 15.097656 28.09375 14.625 C 28.289062 14.535156 28.515625 14.578125 28.664062 14.730469 C 28.667969 14.734375 29.035156 15.117188 29.363281 15.320312 C 29.507812 15.414062 29.597656 15.570312 29.597656 15.742188 L 29.597656 17.230469 C 29.597656 18.296875 29.222656 19.300781 28.539062 20.058594 C 27.835938 20.828125 26.90625 21.253906 25.914062 21.253906 Z M 23.222656 16.070312 L 23.222656 17.230469 C 23.222656 18.902344 24.433594 20.265625 25.917969 20.265625 C 27.402344 20.265625 28.609375 18.902344 28.609375 17.230469 L 28.609375 16 C 28.457031 15.886719 28.316406 15.761719 28.203125 15.65625 C 26.816406 16.230469 25.695312 16.167969 24.976562 16.003906 C 24.535156 15.902344 24.191406 15.753906 23.957031 15.628906 C 23.703125 15.828125 23.429688 15.972656 23.222656 16.070312 Z M 23.222656 16.070312 "/>
<path style=" stroke:none;fill-rule:nonzero;fill:rgb(0%,0%,0%);fill-opacity:1;" d="M 22.730469 16.234375 C 22.539062 16.234375 22.355469 16.125 22.277344 15.9375 C 22.097656 15.523438 22.070312 15.085938 22.046875 14.703125 C 22.027344 14.386719 22.003906 13.996094 22.09375 13.609375 C 22.171875 13.269531 22.375 12.910156 22.699219 12.511719 C 22.75 12.453125 22.804688 12.390625 22.855469 12.332031 C 23.730469 11.398438 25.164062 11.03125 25.441406 10.96875 C 25.988281 10.839844 26.511719 10.796875 26.996094 10.835938 C 27.339844 10.863281 27.628906 10.910156 27.882812 10.980469 C 28.246094 11.082031 28.53125 11.28125 28.707031 11.550781 C 28.792969 11.6875 28.847656 11.820312 28.890625 11.9375 C 28.929688 12.035156 28.960938 12.121094 29 12.164062 C 29.058594 12.234375 29.140625 12.300781 29.234375 12.375 C 29.347656 12.464844 29.472656 12.5625 29.589844 12.695312 C 29.871094 13.007812 30.183594 13.53125 30.230469 14.066406 C 30.277344 14.5625 30.082031 14.996094 29.910156 15.3125 C 29.90625 15.320312 29.894531 15.339844 29.878906 15.367188 C 29.582031 15.9375 29.519531 16.027344 29.4375 16.105469 C 29.234375 16.289062 28.921875 16.273438 28.738281 16.074219 C 28.566406 15.886719 28.566406 15.605469 28.730469 15.417969 C 28.753906 15.378906 28.824219 15.261719 29.003906 14.914062 C 29.023438 14.875 29.039062 14.847656 29.042969 14.839844 C 29.199219 14.550781 29.265625 14.339844 29.246094 14.15625 C 29.226562 13.921875 29.0625 13.589844 28.851562 13.351562 C 28.792969 13.285156 28.714844 13.222656 28.625 13.152344 C 28.503906 13.058594 28.367188 12.949219 28.246094 12.804688 C 28.101562 12.632812 28.027344 12.445312 27.972656 12.296875 C 27.941406 12.214844 27.910156 12.136719 27.878906 12.085938 C 27.820312 12 27.691406 11.953125 27.617188 11.929688 C 27.425781 11.878906 27.195312 11.839844 26.921875 11.820312 C 26.535156 11.789062 26.113281 11.828125 25.664062 11.929688 C 25.03125 12.078125 24.105469 12.445312 23.578125 13.007812 C 23.539062 13.050781 23.5 13.09375 23.464844 13.140625 C 23.183594 13.484375 23.085938 13.710938 23.054688 13.839844 C 22.996094 14.085938 23.015625 14.382812 23.03125 14.640625 C 23.050781 14.960938 23.074219 15.289062 23.183594 15.546875 C 23.292969 15.796875 23.175781 16.085938 22.925781 16.195312 C 22.859375 16.222656 22.796875 16.234375 22.730469 16.234375 Z M 28.769531 15.375 C 28.769531 15.378906 28.769531 15.378906 28.769531 15.375 Z M 28.769531 15.375 "/>
<path style=" stroke:none;fill-rule:nonzero;fill:rgb(0%,0%,0%);fill-opacity:1;" d="M 23.996094 22.425781 C 23.925781 22.425781 23.855469 22.414062 23.789062 22.378906 C 23.539062 22.265625 23.433594 21.96875 23.546875 21.722656 C 23.636719 21.539062 23.785156 21.164062 23.792969 20.765625 C 23.796875 20.613281 23.78125 20.550781 23.746094 20.421875 C 23.734375 20.394531 23.726562 20.363281 23.71875 20.332031 C 23.652344 20.070312 23.808594 19.800781 24.074219 19.730469 C 24.335938 19.660156 24.605469 19.816406 24.675781 20.082031 C 24.683594 20.109375 24.691406 20.136719 24.699219 20.160156 C 24.742188 20.320312 24.789062 20.492188 24.78125 20.792969 C 24.769531 21.347656 24.589844 21.832031 24.445312 22.148438 C 24.363281 22.320312 24.183594 22.425781 23.996094 22.425781 Z M 23.996094 22.425781 "/>
<path style=" stroke:none;fill-rule:nonzero;fill:rgb(0%,0%,0%);fill-opacity:1;" d="M 27.757812 22.429688 C 27.578125 22.429688 27.40625 22.328125 27.320312 22.160156 C 27.074219 21.683594 26.941406 21.1875 26.925781 20.722656 C 26.921875 20.484375 26.949219 20.328125 26.980469 20.207031 C 27.03125 19.984375 27.226562 19.820312 27.460938 19.820312 C 27.738281 19.820312 27.957031 20.039062 27.957031 20.3125 C 27.957031 20.355469 27.949219 20.398438 27.941406 20.4375 C 27.925781 20.5 27.910156 20.566406 27.914062 20.699219 C 27.925781 21.097656 28.074219 21.46875 28.199219 21.710938 C 28.324219 21.953125 28.226562 22.25 27.984375 22.375 C 27.914062 22.410156 27.835938 22.429688 27.757812 22.429688 Z M 27.757812 22.429688 "/>
<path style=" stroke:none;fill-rule:nonzero;fill:rgb(0%,0%,0%);fill-opacity:1;" d="M 20.261719 8.390625 C 20.054688 8.390625 19.863281 8.261719 19.792969 8.054688 C 19.703125 7.796875 19.839844 7.515625 20.101562 7.429688 C 20.503906 7.289062 20.773438 6.910156 20.773438 6.484375 C 20.773438 5.929688 20.324219 5.484375 19.773438 5.484375 L 17.738281 5.484375 C 17.183594 5.484375 16.738281 5.933594 16.738281 6.484375 C 16.738281 6.867188 16.953125 7.210938 17.296875 7.382812 C 17.542969 7.5 17.644531 7.796875 17.523438 8.042969 C 17.402344 8.285156 17.105469 8.386719 16.863281 8.269531 C 16.535156 8.109375 16.257812 7.859375 16.058594 7.550781 C 15.855469 7.230469 15.75 6.863281 15.75 6.484375 C 15.75 5.390625 16.640625 4.5 17.738281 4.5 L 19.773438 4.5 C 20.871094 4.5 21.761719 5.390625 21.761719 6.484375 C 21.761719 7.332031 21.222656 8.089844 20.421875 8.363281 C 20.367188 8.382812 20.3125 8.390625 20.261719 8.390625 Z M 20.261719 8.390625 "/>
<path style=" stroke:none;fill-rule:nonzero;fill:rgb(0%,0%,0%);fill-opacity:1;" d="M 17.261719 9.960938 L 15.226562 9.960938 C 14.128906 9.960938 13.238281 9.070312 13.238281 7.976562 C 13.238281 7.5625 13.363281 7.171875 13.597656 6.835938 C 13.828125 6.507812 14.144531 6.261719 14.519531 6.117188 C 14.773438 6.023438 15.058594 6.148438 15.15625 6.40625 C 15.253906 6.660156 15.125 6.945312 14.871094 7.042969 C 14.484375 7.1875 14.226562 7.5625 14.226562 7.976562 C 14.226562 8.53125 14.675781 8.976562 15.226562 8.976562 L 17.261719 8.976562 C 17.816406 8.976562 18.261719 8.527344 18.261719 7.976562 C 18.261719 7.574219 18.019531 7.210938 17.648438 7.054688 C 17.398438 6.949219 17.277344 6.660156 17.382812 6.410156 C 17.488281 6.15625 17.78125 6.039062 18.03125 6.144531 C 18.769531 6.457031 19.25 7.175781 19.25 7.976562 C 19.25 9.070312 18.359375 9.960938 17.261719 9.960938 Z M 17.261719 9.960938 "/>
<path style=" stroke:none;fill-rule:nonzero;fill:rgb(0%,0%,0%);fill-opacity:1;" d="M 9.105469 9.179688 C 8.832031 9.179688 8.609375 8.960938 8.609375 8.6875 L 8.609375 6.183594 C 8.609375 5.910156 8.832031 5.691406 9.105469 5.691406 L 11.605469 5.691406 C 11.878906 5.691406 12.097656 5.910156 12.097656 6.183594 C 12.097656 6.457031 11.878906 6.679688 11.605469 6.679688 L 9.597656 6.679688 L 9.597656 8.683594 C 9.597656 8.957031 9.378906 9.179688 9.105469 9.179688 Z M 9.105469 9.179688 "/>
<path style=" stroke:none;fill-rule:nonzero;fill:rgb(0%,0%,0%);fill-opacity:1;" d="M 25.894531 9.179688 C 25.621094 9.179688 25.402344 8.960938 25.402344 8.6875 L 25.402344 6.679688 L 23.394531 6.679688 C 23.121094 6.679688 22.902344 6.460938 22.902344 6.1875 C 22.902344 5.914062 23.121094 5.691406 23.394531 5.691406 L 25.894531 5.691406 C 26.167969 5.691406 26.390625 5.914062 26.390625 6.1875 L 26.390625 8.6875 C 26.390625 8.957031 26.167969 9.179688 25.894531 9.179688 Z M 25.894531 9.179688 "/>
</g>
</svg>
