<?xml version="1.0" encoding="UTF-8"?>
<svg xmlns="http://www.w3.org/2000/svg" xmlns:xlink="http://www.w3.org/1999/xlink" width="35px" height="35px" viewBox="0 0 35 35" version="1.1">
<g id="surface1">
<path style=" stroke:none;fill-rule:nonzero;fill:rgb(0%,0%,0%);fill-opacity:1;" d="M 10.9375 3.28125 L 12.03125 3.28125 L 12.03125 4.375 L 10.9375 4.375 Z M 10.9375 3.28125 "/>
<path style=" stroke:none;fill-rule:nonzero;fill:rgb(0%,0%,0%);fill-opacity:1;" d="M 13.125 3.28125 L 17.5 3.28125 L 17.5 4.375 L 13.125 4.375 Z M 13.125 3.28125 "/>
<path style=" stroke:none;fill-rule:nonzero;fill:rgb(0%,0%,0%);fill-opacity:1;" d="M 16.40625 22.96875 L 14.21875 22.96875 C 13.3125 22.96875 12.578125 23.703125 12.578125 24.609375 C 12.578125 25.515625 13.3125 26.25 14.21875 26.25 L 16.40625 26.25 C 17.3125 26.25 18.046875 25.515625 18.046875 24.609375 C 18.046875 23.703125 17.3125 22.96875 16.40625 22.96875 Z M 16.40625 25.15625 L 14.21875 25.15625 C 13.917969 25.15625 13.671875 24.910156 13.671875 24.609375 C 13.671875 24.308594 13.917969 24.0625 14.21875 24.0625 L 16.40625 24.0625 C 16.707031 24.0625 16.953125 24.308594 16.953125 24.609375 C 16.953125 24.910156 16.707031 25.15625 16.40625 25.15625 Z M 16.40625 25.15625 "/>
<path style=" stroke:none;fill-rule:nonzero;fill:rgb(0%,0%,0%);fill-opacity:1;" d="M 2.1875 15.3125 L 3.28125 15.3125 L 3.28125 8.976562 L 3.988281 9.683594 L 4.761719 8.910156 L 3.121094 7.269531 C 2.90625 7.054688 2.5625 7.054688 2.347656 7.269531 L 0.707031 8.910156 L 1.480469 9.683594 L 2.1875 8.976562 Z M 2.1875 15.3125 "/>
<path style=" stroke:none;fill-rule:nonzero;fill:rgb(0%,0%,0%);fill-opacity:1;" d="M 27.34375 8.976562 L 27.34375 15.3125 L 28.4375 15.3125 L 28.4375 8.976562 L 29.144531 9.683594 L 29.917969 8.910156 L 28.277344 7.269531 C 28.0625 7.054688 27.71875 7.054688 27.503906 7.269531 L 25.863281 8.910156 L 26.636719 9.683594 Z M 27.34375 8.976562 "/>
<path style=" stroke:none;fill-rule:nonzero;fill:rgb(0%,0%,0%);fill-opacity:1;" d="M 30.625 25.15625 C 30.109375 25.152344 29.613281 25.335938 29.21875 25.671875 C 28.824219 25.011719 28.113281 24.609375 27.34375 24.609375 C 26.828125 24.605469 26.332031 24.789062 25.9375 25.125 C 25.644531 24.632812 25.164062 24.277344 24.609375 24.132812 L 24.609375 4.921875 C 24.605469 2.808594 22.894531 1.097656 20.78125 1.09375 L 9.84375 1.09375 C 7.730469 1.097656 6.019531 2.808594 6.015625 4.921875 L 6.015625 14.929688 C 5.667969 15.09375 5.386719 15.371094 5.222656 15.71875 L 2.738281 21.105469 C 2.378906 21.894531 2.1875 22.75 2.1875 23.621094 L 2.1875 33.90625 L 3.28125 33.90625 L 3.28125 23.621094 C 3.28125 22.910156 3.4375 22.207031 3.734375 21.5625 L 6.015625 16.613281 L 6.015625 24.609375 C 6.015625 25.054688 6.097656 25.496094 6.25 25.917969 L 5.710938 26.851562 L 6.65625 27.398438 L 9.9375 21.714844 C 10.082031 21.464844 10.320312 21.277344 10.597656 21.203125 C 10.878906 21.128906 11.175781 21.167969 11.429688 21.3125 C 11.953125 21.617188 12.132812 22.285156 11.828125 22.808594 L 9.367188 27.070312 C 9.269531 27.246094 9.273438 27.457031 9.375 27.628906 L 10.542969 29.574219 C 10.800781 30 10.9375 30.484375 10.9375 30.980469 L 10.9375 33.902344 L 12.03125 33.902344 L 12.03125 30.980469 C 12.03125 30.285156 11.839844 29.605469 11.484375 29.011719 L 11.140625 28.4375 L 14.515625 28.4375 C 14.367188 29 14.445312 29.597656 14.734375 30.101562 L 17.089844 34.179688 L 18.035156 33.632812 L 15.679688 29.554688 C 15.453125 29.167969 15.484375 28.6875 15.753906 28.335938 C 16.023438 27.984375 16.480469 27.828125 16.910156 27.945312 C 17.191406 28.019531 17.429688 28.203125 17.570312 28.460938 L 18.664062 30.351562 C 18.792969 30.566406 19.042969 30.667969 19.28125 30.609375 C 19.523438 30.542969 19.6875 30.328125 19.6875 30.078125 L 19.6875 19.6875 C 19.6875 19.082031 20.175781 18.59375 20.78125 18.59375 C 21.386719 18.59375 21.875 19.082031 21.875 19.6875 L 21.875 28.4375 C 21.875 28.738281 22.121094 28.984375 22.421875 28.984375 C 22.722656 28.984375 22.96875 28.738281 22.96875 28.4375 L 22.96875 26.25 C 22.96875 25.644531 23.457031 25.15625 24.0625 25.15625 C 24.667969 25.15625 25.15625 25.644531 25.15625 26.25 L 25.15625 28.4375 C 25.15625 28.738281 25.402344 28.984375 25.703125 28.984375 C 26.003906 28.984375 26.25 28.738281 26.25 28.4375 L 26.25 26.796875 C 26.25 26.191406 26.738281 25.703125 27.34375 25.703125 C 27.949219 25.703125 28.4375 26.191406 28.4375 26.796875 L 28.4375 28.4375 C 28.4375 28.738281 28.683594 28.984375 28.984375 28.984375 C 29.285156 28.984375 29.53125 28.738281 29.53125 28.4375 L 29.53125 27.34375 C 29.53125 26.738281 30.019531 26.25 30.625 26.25 C 31.230469 26.25 31.71875 26.738281 31.71875 27.34375 L 31.71875 33.90625 L 32.8125 33.90625 L 32.8125 27.34375 C 32.8125 26.136719 31.832031 25.15625 30.625 25.15625 Z M 23.515625 24.132812 C 23.324219 24.183594 23.140625 24.257812 22.96875 24.359375 L 22.96875 19.6875 C 22.96875 18.480469 21.988281 17.5 20.78125 17.5 C 19.574219 17.5 18.59375 18.480469 18.59375 19.6875 L 18.59375 27.34375 L 18.042969 27.34375 C 17.796875 27.132812 17.507812 26.976562 17.195312 26.890625 C 16.632812 26.742188 16.035156 26.820312 15.53125 27.109375 C 15.417969 27.175781 15.308594 27.257812 15.207031 27.34375 L 10.484375 27.34375 L 10.476562 27.339844 L 12.78125 23.355469 C 13.382812 22.308594 13.027344 20.972656 11.980469 20.367188 C 10.933594 19.765625 9.59375 20.121094 8.992188 21.167969 L 7.109375 24.421875 L 7.109375 4.921875 C 7.109375 3.410156 8.332031 2.1875 9.84375 2.1875 L 20.78125 2.1875 C 22.292969 2.1875 23.515625 3.410156 23.515625 4.921875 Z M 23.515625 24.132812 "/>
<path style=" stroke:none;fill-rule:nonzero;fill:rgb(0%,0%,0%);fill-opacity:1;" d="M 14.765625 11.484375 L 15.859375 11.484375 C 16.160156 11.484375 16.40625 11.730469 16.40625 12.03125 L 17.5 12.03125 C 17.5 11.125 16.765625 10.390625 15.859375 10.390625 L 15.859375 9.84375 L 14.765625 9.84375 L 14.765625 10.390625 C 13.859375 10.390625 13.125 11.125 13.125 12.03125 C 13.125 12.9375 13.859375 13.671875 14.765625 13.671875 L 15.859375 13.671875 C 16.160156 13.671875 16.40625 13.917969 16.40625 14.21875 C 16.40625 14.519531 16.160156 14.765625 15.859375 14.765625 L 14.765625 14.765625 C 14.464844 14.765625 14.21875 14.519531 14.21875 14.21875 L 13.125 14.21875 C 13.125 15.125 13.859375 15.859375 14.765625 15.859375 L 14.765625 16.40625 L 15.859375 16.40625 L 15.859375 15.859375 C 16.765625 15.859375 17.5 15.125 17.5 14.21875 C 17.5 13.3125 16.765625 12.578125 15.859375 12.578125 L 14.765625 12.578125 C 14.464844 12.578125 14.21875 12.332031 14.21875 12.03125 C 14.21875 11.730469 14.464844 11.484375 14.765625 11.484375 Z M 14.765625 11.484375 "/>
<path style=" stroke:none;fill-rule:nonzero;fill:rgb(0%,0%,0%);fill-opacity:1;" d="M 15.3125 7.65625 C 12.292969 7.65625 9.84375 10.105469 9.84375 13.125 C 9.84375 16.144531 12.292969 18.59375 15.3125 18.59375 C 18.332031 18.59375 20.78125 16.144531 20.78125 13.125 C 20.777344 10.105469 18.332031 7.660156 15.3125 7.65625 Z M 15.3125 17.5 C 12.894531 17.5 10.9375 15.542969 10.9375 13.125 C 10.9375 10.707031 12.894531 8.75 15.3125 8.75 C 17.730469 8.75 19.6875 10.707031 19.6875 13.125 C 19.683594 15.539062 17.726562 17.496094 15.3125 17.5 Z M 15.3125 17.5 "/>
<path style=" stroke:none;fill-rule:nonzero;fill:rgb(0%,0%,0%);fill-opacity:1;" d="M 27.34375 16.40625 L 28.4375 16.40625 L 28.4375 17.5 L 27.34375 17.5 Z M 27.34375 16.40625 "/>
<path style=" stroke:none;fill-rule:nonzero;fill:rgb(0%,0%,0%);fill-opacity:1;" d="M 27.34375 18.59375 L 28.4375 18.59375 L 28.4375 19.6875 L 27.34375 19.6875 Z M 27.34375 18.59375 "/>
<path style=" stroke:none;fill-rule:nonzero;fill:rgb(0%,0%,0%);fill-opacity:1;" d="M 2.1875 16.40625 L 3.28125 16.40625 L 3.28125 17.5 L 2.1875 17.5 Z M 2.1875 16.40625 "/>
</g>
</svg>
