<?xml version="1.0" encoding="UTF-8"?>
<svg xmlns="http://www.w3.org/2000/svg" xmlns:xlink="http://www.w3.org/1999/xlink" width="35px" height="35px" viewBox="0 0 35 35" version="1.1">
<g id="surface1">
<path style=" stroke:none;fill-rule:nonzero;fill:rgb(0%,0%,0%);fill-opacity:1;" d="M 9.296875 19.140625 C 12.3125 19.140625 14.765625 16.6875 14.765625 13.671875 C 14.765625 10.65625 12.3125 8.203125 9.296875 8.203125 C 6.28125 8.203125 3.828125 10.65625 3.828125 13.671875 C 3.828125 16.6875 6.28125 19.140625 9.296875 19.140625 Z M 9.296875 9.296875 C 11.710938 9.296875 13.671875 11.257812 13.671875 13.671875 C 13.671875 16.085938 11.710938 18.046875 9.296875 18.046875 C 6.882812 18.046875 4.921875 16.085938 4.921875 13.671875 C 4.921875 11.257812 6.882812 9.296875 9.296875 9.296875 Z M 9.296875 9.296875 "/>
<path style=" stroke:none;fill-rule:nonzero;fill:rgb(0%,0%,0%);fill-opacity:1;" d="M 8.117188 15.851562 C 8.144531 15.855469 8.175781 15.859375 8.203125 15.859375 C 8.347656 15.859375 8.488281 15.800781 8.589844 15.699219 L 12.417969 11.871094 L 11.644531 11.097656 L 8.351562 14.390625 L 7.597656 12.878906 L 6.621094 13.371094 L 7.714844 15.558594 C 7.792969 15.714844 7.941406 15.824219 8.117188 15.851562 Z M 8.117188 15.851562 "/>
<path style=" stroke:none;fill-rule:nonzero;fill:rgb(0%,0%,0%);fill-opacity:1;" d="M 1.1875 24.355469 C 1.308594 24.535156 1.515625 24.625 1.730469 24.589844 L 4.578125 24.125 L 5.507812 26.453125 C 5.585938 26.648438 5.773438 26.78125 5.984375 26.796875 C 5.992188 26.796875 6.003906 26.796875 6.015625 26.796875 C 6.214844 26.796875 6.398438 26.6875 6.496094 26.511719 L 8.75 22.378906 L 8.75 31.71875 C 8.75 33.226562 9.976562 34.453125 11.484375 34.453125 L 31.171875 34.453125 C 32.679688 34.453125 33.90625 33.226562 33.90625 31.71875 L 33.90625 4.921875 C 33.90625 3.414062 32.679688 2.1875 31.171875 2.1875 L 27.890625 2.1875 C 27.890625 1.28125 27.15625 0.546875 26.25 0.546875 L 16.40625 0.546875 C 15.5 0.546875 14.765625 1.28125 14.765625 2.1875 L 11.484375 2.1875 C 9.976562 2.1875 8.75 3.414062 8.75 4.921875 L 8.75 6.589844 C 5.117188 6.875 2.21875 9.9375 2.1875 13.667969 C 2.171875 15.546875 2.886719 17.3125 4.199219 18.648438 C 4.210938 18.660156 4.222656 18.667969 4.234375 18.679688 L 1.171875 23.769531 C 1.0625 23.953125 1.070312 24.179688 1.1875 24.355469 Z M 16.40625 7.109375 L 26.25 7.109375 C 27.15625 7.109375 27.890625 6.375 27.890625 5.46875 L 30.078125 5.46875 C 30.378906 5.46875 30.625 5.714844 30.625 6.015625 L 30.625 30.625 C 30.625 30.925781 30.378906 31.171875 30.078125 31.171875 L 12.578125 31.171875 C 12.277344 31.171875 12.03125 30.925781 12.03125 30.625 L 12.03125 26.390625 L 12.097656 26.511719 C 12.195312 26.6875 12.378906 26.796875 12.578125 26.796875 C 12.589844 26.796875 12.601562 26.796875 12.609375 26.796875 C 12.820312 26.785156 13.007812 26.648438 13.085938 26.453125 L 14.015625 24.125 L 16.863281 24.589844 C 17.078125 24.625 17.285156 24.535156 17.40625 24.355469 C 17.527344 24.179688 17.53125 23.953125 17.421875 23.769531 L 14.367188 18.6875 C 15.6875 17.347656 16.414062 15.570312 16.40625 13.667969 C 16.394531 10.722656 14.585938 8.1875 12.03125 7.113281 L 12.03125 6.015625 C 12.03125 5.714844 12.277344 5.46875 12.578125 5.46875 L 14.765625 5.46875 C 14.765625 6.375 15.5 7.109375 16.40625 7.109375 Z M 13.523438 19.40625 L 15.875 23.320312 L 13.761719 22.976562 C 13.503906 22.933594 13.257812 23.074219 13.164062 23.3125 L 12.5 24.96875 L 10.1875 20.726562 C 11.402344 20.582031 12.542969 20.128906 13.523438 19.40625 Z M 31.171875 3.28125 C 32.078125 3.28125 32.8125 4.015625 32.8125 4.921875 L 32.8125 31.71875 C 32.8125 32.625 32.078125 33.359375 31.171875 33.359375 L 11.484375 33.359375 C 10.578125 33.359375 9.84375 32.625 9.84375 31.71875 L 9.84375 22.378906 L 10.9375 24.382812 L 10.9375 30.625 C 10.9375 31.53125 11.671875 32.265625 12.578125 32.265625 L 30.078125 32.265625 C 30.984375 32.265625 31.71875 31.53125 31.71875 30.625 L 31.71875 6.015625 C 31.71875 5.109375 30.984375 4.375 30.078125 4.375 L 27.890625 4.375 L 27.890625 3.28125 Z M 15.859375 2.1875 C 15.859375 1.886719 16.105469 1.640625 16.40625 1.640625 L 26.25 1.640625 C 26.550781 1.640625 26.796875 1.886719 26.796875 2.1875 L 26.796875 5.46875 C 26.796875 5.769531 26.550781 6.015625 26.25 6.015625 L 16.40625 6.015625 C 16.105469 6.015625 15.859375 5.769531 15.859375 5.46875 Z M 11.484375 3.28125 L 14.765625 3.28125 L 14.765625 4.375 L 12.578125 4.375 C 11.671875 4.375 10.9375 5.109375 10.9375 6.015625 L 10.9375 6.761719 C 10.582031 6.679688 10.21875 6.621094 9.84375 6.589844 L 9.84375 4.921875 C 9.84375 4.015625 10.578125 3.28125 11.484375 3.28125 Z M 3.28125 13.675781 C 3.308594 10.355469 6.007812 7.65625 9.296875 7.65625 C 12.601562 7.65625 15.300781 10.355469 15.3125 13.675781 C 15.320312 15.296875 14.695312 16.816406 13.554688 17.953125 C 12.421875 19.082031 10.898438 19.679688 9.300781 19.6875 C 7.648438 19.675781 6.113281 19.035156 4.980469 17.878906 C 3.871094 16.753906 3.269531 15.261719 3.28125 13.675781 Z M 5.078125 19.394531 C 6.054688 20.109375 7.191406 20.5625 8.410156 20.71875 L 6.09375 24.96875 L 5.429688 23.3125 C 5.335938 23.074219 5.089844 22.9375 4.832031 22.976562 L 2.71875 23.320312 Z M 5.078125 19.394531 "/>
<path style=" stroke:none;fill-rule:nonzero;fill:rgb(0%,0%,0%);fill-opacity:1;" d="M 18.957031 13.125 C 19.121094 13.125 19.273438 13.054688 19.378906 12.929688 L 21.203125 10.742188 L 20.359375 10.039062 L 18.957031 11.722656 L 18.46875 11.132812 L 17.628906 11.835938 L 18.539062 12.929688 C 18.640625 13.054688 18.796875 13.125 18.957031 13.125 Z M 18.957031 13.125 "/>
<path style=" stroke:none;fill-rule:nonzero;fill:rgb(0%,0%,0%);fill-opacity:1;" d="M 18.957031 18.59375 C 19.121094 18.59375 19.273438 18.523438 19.378906 18.398438 L 21.203125 16.210938 L 20.359375 15.511719 L 18.957031 17.191406 L 18.46875 16.605469 L 17.628906 17.304688 L 18.539062 18.398438 C 18.640625 18.523438 18.796875 18.59375 18.957031 18.59375 Z M 18.957031 18.59375 "/>
<path style=" stroke:none;fill-rule:nonzero;fill:rgb(0%,0%,0%);fill-opacity:1;" d="M 22.421875 10.390625 L 29.53125 10.390625 L 29.53125 11.484375 L 22.421875 11.484375 Z M 22.421875 10.390625 "/>
<path style=" stroke:none;fill-rule:nonzero;fill:rgb(0%,0%,0%);fill-opacity:1;" d="M 22.421875 12.03125 L 29.53125 12.03125 L 29.53125 13.125 L 22.421875 13.125 Z M 22.421875 12.03125 "/>
<path style=" stroke:none;fill-rule:nonzero;fill:rgb(0%,0%,0%);fill-opacity:1;" d="M 22.421875 15.859375 L 29.53125 15.859375 L 29.53125 16.953125 L 22.421875 16.953125 Z M 22.421875 15.859375 "/>
<path style=" stroke:none;fill-rule:nonzero;fill:rgb(0%,0%,0%);fill-opacity:1;" d="M 22.421875 17.5 L 29.53125 17.5 L 29.53125 18.59375 L 22.421875 18.59375 Z M 22.421875 17.5 "/>
<path style=" stroke:none;fill-rule:nonzero;fill:rgb(0%,0%,0%);fill-opacity:1;" d="M 18.957031 24.0625 C 19.121094 24.0625 19.273438 23.992188 19.378906 23.867188 L 21.203125 21.679688 L 20.359375 20.976562 L 18.957031 22.660156 L 18.46875 22.070312 L 17.628906 22.773438 L 18.539062 23.867188 C 18.640625 23.992188 18.796875 24.0625 18.957031 24.0625 Z M 18.957031 24.0625 "/>
<path style=" stroke:none;fill-rule:nonzero;fill:rgb(0%,0%,0%);fill-opacity:1;" d="M 18.957031 29.53125 C 19.121094 29.53125 19.273438 29.460938 19.378906 29.335938 L 21.203125 27.148438 L 20.359375 26.445312 L 18.957031 28.128906 L 18.46875 27.539062 L 17.628906 28.242188 L 18.539062 29.335938 C 18.640625 29.460938 18.796875 29.53125 18.957031 29.53125 Z M 18.957031 29.53125 "/>
<path style=" stroke:none;fill-rule:nonzero;fill:rgb(0%,0%,0%);fill-opacity:1;" d="M 22.421875 21.328125 L 29.53125 21.328125 L 29.53125 22.421875 L 22.421875 22.421875 Z M 22.421875 21.328125 "/>
<path style=" stroke:none;fill-rule:nonzero;fill:rgb(0%,0%,0%);fill-opacity:1;" d="M 22.421875 22.96875 L 29.53125 22.96875 L 29.53125 24.0625 L 22.421875 24.0625 Z M 22.421875 22.96875 "/>
<path style=" stroke:none;fill-rule:nonzero;fill:rgb(0%,0%,0%);fill-opacity:1;" d="M 22.421875 26.796875 L 29.53125 26.796875 L 29.53125 27.890625 L 22.421875 27.890625 Z M 22.421875 26.796875 "/>
<path style=" stroke:none;fill-rule:nonzero;fill:rgb(0%,0%,0%);fill-opacity:1;" d="M 22.421875 28.4375 L 29.53125 28.4375 L 29.53125 29.53125 L 22.421875 29.53125 Z M 22.421875 28.4375 "/>
</g>
</svg>
