<?xml version="1.0" encoding="UTF-8"?>
<svg xmlns="http://www.w3.org/2000/svg" xmlns:xlink="http://www.w3.org/1999/xlink" width="70px" height="70px" viewBox="0 0 70 70" version="1.1">
<g id="surface1">
<path style=" stroke:none;fill-rule:evenodd;fill:rgb(0%,0%,0%);fill-opacity:1;" d="M 49.304688 48.832031 C 47.964844 50.171875 45.796875 50.171875 44.457031 48.832031 L 41.804688 46.179688 L 41.804688 64.738281 C 41.804688 67.066406 40.070312 68.902344 38 68.902344 C 36.882812 68.902344 35.859375 68.363281 35.15625 67.503906 C 35.121094 67.550781 35.082031 67.59375 35.042969 67.640625 C 34.320312 68.453125 33.332031 68.902344 32.3125 68.902344 C 31.289062 68.902344 30.304688 68.453125 29.582031 67.640625 C 28.898438 66.871094 28.507812 65.828125 28.507812 64.734375 L 28.507812 46.179688 L 25.855469 48.832031 C 24.515625 50.171875 22.34375 50.171875 21.007812 48.832031 C 20.746094 48.574219 20.535156 48.277344 20.371094 47.960938 C 17.382812 48.519531 14.886719 48.550781 13.097656 48.0625 C 12.347656 49.617188 10.574219 50.46875 8.847656 50.003906 C 6.890625 49.480469 5.726562 47.46875 6.253906 45.511719 C 6.691406 43.871094 8.179688 42.785156 9.800781 42.789062 C 10.226562 40.84375 11.632812 38.453125 13.90625 35.878906 C 14.917969 34.738281 16.097656 33.554688 17.425781 32.34375 C 14.726562 30.167969 12.445312 28.003906 10.699219 25.976562 C 8.535156 23.46875 7.183594 21.128906 6.753906 19.195312 C 5.128906 19.195312 3.644531 18.113281 3.207031 16.472656 C 2.679688 14.519531 3.84375 12.503906 5.800781 11.980469 C 7.441406 11.539062 9.121094 12.285156 9.929688 13.691406 C 11.875 13.082031 14.6875 13.101562 18.070312 13.773438 C 20.789062 14.316406 23.894531 15.261719 27.222656 16.582031 C 27.472656 15.4375 27.746094 14.351562 28.039062 13.339844 C 29.019531 9.941406 30.257812 7.320312 31.613281 5.730469 C 31.53125 5.421875 31.484375 5.101562 31.484375 4.769531 C 31.484375 2.742188 33.128906 1.097656 35.15625 1.097656 C 37.179688 1.097656 38.824219 2.742188 38.824219 4.769531 C 38.824219 5.101562 38.78125 5.421875 38.699219 5.730469 C 40.054688 7.320312 41.292969 9.941406 42.273438 13.339844 C 42.566406 14.351562 42.839844 15.433594 43.085938 16.574219 C 46.328125 15.277344 49.355469 14.332031 52.007812 13.769531 C 55.394531 13.050781 58.207031 12.976562 60.152344 13.535156 C 60.988281 12.21875 62.613281 11.53125 64.199219 11.957031 C 66.15625 12.480469 67.320312 14.496094 66.792969 16.453125 C 66.355469 18.089844 64.875 19.167969 63.257812 19.171875 C 62.734375 21.082031 61.300781 23.394531 59.082031 25.871094 C 57.328125 27.832031 55.082031 29.914062 52.4375 32.015625 C 53.855469 33.296875 55.105469 34.558594 56.171875 35.773438 C 58.449219 38.367188 59.871094 40.789062 60.316406 42.78125 C 61.9375 42.78125 63.421875 43.863281 63.863281 45.5 C 64.386719 47.457031 63.222656 49.472656 61.269531 49.996094 C 59.628906 50.4375 57.949219 49.691406 57.136719 48.285156 C 55.332031 48.851562 52.78125 48.875 49.71875 48.335938 C 49.597656 48.511719 49.460938 48.679688 49.304688 48.832031 Z M 10.421875 15.542969 C 10.414062 16.835938 9.71875 18.042969 8.601562 18.691406 C 8.925781 20.390625 10.199219 22.453125 12.152344 24.722656 C 13.894531 26.742188 16.179688 28.894531 18.886719 31.058594 C 20.941406 29.308594 23.289062 27.527344 25.875 25.78125 C 26.101562 23.1875 26.429688 20.742188 26.839844 18.496094 C 23.511719 17.15625 20.40625 16.199219 17.695312 15.660156 C 14.628906 15.050781 12.105469 14.957031 10.421875 15.542969 Z M 32.675781 7.472656 C 31.613281 8.921875 30.675781 11.125 29.882812 13.871094 C 29.574219 14.945312 29.289062 16.101562 29.027344 17.324219 C 31.019531 18.175781 33.078125 19.148438 35.167969 20.242188 C 37.25 19.152344 39.300781 18.175781 41.28125 17.324219 C 41.023438 16.097656 40.738281 14.945312 40.429688 13.871094 C 39.632812 11.125 38.695312 8.921875 37.632812 7.472656 C 36.980469 8.074219 36.109375 8.4375 35.15625 8.4375 C 34.199219 8.4375 33.332031 8.074219 32.675781 7.472656 Z M 59.582031 15.363281 C 57.898438 14.863281 55.414062 15.007812 52.40625 15.648438 C 49.753906 16.210938 46.722656 17.171875 43.46875 18.492188 C 43.882812 20.742188 44.210938 23.191406 44.4375 25.785156 C 46.835938 27.417969 49.03125 29.082031 50.96875 30.730469 C 53.636719 28.632812 55.898438 26.546875 57.652344 24.589844 C 59.636719 22.375 60.96875 20.355469 61.40625 18.675781 C 60.238281 18 59.53125 16.71875 59.582031 15.363281 Z M 58.464844 43.28125 C 58.132812 41.53125 56.789062 39.390625 54.726562 37.039062 C 53.640625 35.800781 52.355469 34.515625 50.894531 33.210938 C 49 34.640625 46.925781 36.070312 44.714844 37.460938 C 44.675781 38.113281 44.621094 38.703125 44.558594 39.238281 L 49.304688 43.984375 C 49.949219 44.628906 50.308594 45.5 50.308594 46.410156 C 50.308594 46.4375 50.308594 46.460938 50.308594 46.488281 C 52.957031 46.9375 55.140625 46.960938 56.648438 46.433594 C 56.652344 45.140625 57.347656 43.933594 58.464844 43.28125 Z M 47.945312 47.472656 C 48.230469 47.191406 48.386719 46.808594 48.386719 46.410156 C 48.386719 46.007812 48.230469 45.625 47.945312 45.34375 L 42.089844 39.484375 C 41.410156 38.804688 40.484375 38.421875 39.519531 38.421875 L 30.789062 38.421875 C 29.828125 38.421875 28.902344 38.804688 28.222656 39.484375 L 22.363281 45.34375 C 22.082031 45.625 21.921875 46.007812 21.921875 46.410156 C 21.921875 46.808594 22.082031 47.191406 22.363281 47.472656 C 22.367188 47.476562 22.367188 47.476562 22.367188 47.476562 C 22.957031 48.0625 23.90625 48.0625 24.496094 47.476562 L 28.789062 43.183594 C 29.0625 42.90625 29.476562 42.824219 29.835938 42.972656 C 30.195312 43.125 30.425781 43.472656 30.425781 43.863281 L 30.425781 50.269531 L 39.882812 50.269531 L 39.882812 43.863281 C 39.882812 43.472656 40.117188 43.125 40.476562 42.972656 C 40.835938 42.824219 41.25 42.90625 41.523438 43.183594 L 45.816406 47.476562 C 46.40625 48.0625 47.359375 48.0625 47.945312 47.476562 M 20.019531 46.070312 C 20.097656 45.285156 20.441406 44.546875 21.007812 43.984375 L 25.625 39.367188 C 25.601562 38.980469 25.582031 38.558594 25.566406 38.105469 C 23.191406 36.621094 20.972656 35.085938 18.957031 33.546875 C 17.585938 34.777344 16.375 35.988281 15.347656 37.152344 C 13.285156 39.488281 11.949219 41.589844 11.652344 43.292969 C 12.691406 43.898438 13.363281 44.984375 13.457031 46.175781 C 15.007812 46.671875 17.269531 46.597656 20.019531 46.070312 Z M 27.925781 37.296875 C 28.78125 36.78125 29.773438 36.5 30.789062 36.5 L 39.519531 36.5 C 40.316406 36.5 41.09375 36.671875 41.804688 36.992188 C 42.152344 36.78125 42.5 36.574219 42.84375 36.363281 C 42.867188 35.722656 42.878906 35.027344 42.878906 34.273438 C 42.878906 31.714844 42.78125 29.230469 42.601562 26.863281 C 41.039062 25.828125 39.394531 24.804688 37.675781 23.8125 C 36.835938 23.328125 36 22.863281 35.167969 22.414062 C 34.308594 22.878906 33.441406 23.359375 32.578125 23.859375 C 30.882812 24.835938 29.257812 25.84375 27.710938 26.863281 C 27.527344 29.230469 27.433594 31.714844 27.433594 34.273438 C 27.433594 35.289062 27.441406 36.203125 27.457031 37.015625 C 27.613281 37.109375 27.769531 37.203125 27.925781 37.296875 Z M 25.691406 28.238281 C 23.785156 29.574219 22.023438 30.925781 20.4375 32.261719 C 22.015625 33.449219 23.714844 34.636719 25.519531 35.800781 C 25.511719 35.320312 25.511719 34.8125 25.511719 34.273438 C 25.511719 32.207031 25.574219 30.1875 25.691406 28.238281 Z M 28.65625 19.253906 C 28.367188 20.882812 28.125 22.613281 27.933594 24.429688 C 29.121094 23.671875 30.347656 22.925781 31.617188 22.195312 C 32.117188 21.90625 32.617188 21.621094 33.117188 21.347656 C 31.601562 20.582031 30.113281 19.882812 28.65625 19.253906 Z M 41.65625 19.253906 C 40.207031 19.886719 38.722656 20.585938 37.21875 21.347656 C 37.691406 21.609375 38.164062 21.875 38.636719 22.148438 C 39.925781 22.894531 41.171875 23.652344 42.378906 24.425781 C 42.1875 22.613281 41.945312 20.882812 41.65625 19.253906 Z M 49.410156 31.925781 C 47.949219 30.699219 46.347656 29.46875 44.621094 28.25 C 44.738281 30.195312 44.800781 32.210938 44.800781 34.273438 C 44.800781 34.570312 44.800781 34.851562 44.796875 35.128906 C 46.425781 34.074219 47.96875 33 49.410156 31.925781 Z M 36.117188 64.738281 C 36.117188 65.945312 36.925781 66.980469 37.996094 66.980469 L 38 66.980469 C 39.074219 66.980469 39.882812 65.945312 39.882812 64.738281 L 39.882812 52.191406 L 30.425781 52.191406 L 30.425781 64.734375 C 30.425781 65.347656 30.636719 65.933594 31.019531 66.363281 C 31.363281 66.753906 31.824219 66.980469 32.3125 66.980469 C 32.796875 66.980469 33.261719 66.753906 33.605469 66.363281 C 33.984375 65.933594 34.195312 65.347656 34.195312 64.738281 L 34.195312 56.304688 C 34.195312 55.773438 34.625 55.34375 35.15625 55.34375 C 35.6875 55.34375 36.117188 55.773438 36.117188 56.304688 Z M 10.25 44.773438 C 9.316406 44.523438 8.359375 45.074219 8.109375 46.007812 C 7.859375 46.941406 8.414062 47.898438 9.34375 48.148438 C 10.277344 48.398438 11.234375 47.84375 11.484375 46.914062 C 11.734375 45.980469 11.179688 45.019531 10.25 44.773438 Z M 59.867188 44.761719 C 58.933594 45.011719 58.378906 45.972656 58.628906 46.90625 C 58.878906 47.835938 59.839844 48.390625 60.769531 48.140625 C 61.703125 47.890625 62.257812 46.929688 62.007812 46 C 61.757812 45.066406 60.796875 44.511719 59.867188 44.761719 Z M 35.15625 3.019531 C 34.191406 3.019531 33.40625 3.804688 33.40625 4.769531 C 33.40625 5.734375 34.191406 6.515625 35.15625 6.515625 C 36.121094 6.515625 36.902344 5.734375 36.902344 4.769531 C 36.902344 3.804688 36.121094 3.019531 35.15625 3.019531 Z M 63.703125 13.8125 C 62.769531 13.5625 61.8125 14.117188 61.5625 15.050781 C 61.3125 15.980469 61.867188 16.941406 62.796875 17.191406 C 63.730469 17.441406 64.6875 16.886719 64.9375 15.953125 C 65.1875 15.023438 64.632812 14.0625 63.703125 13.8125 Z M 35.15625 25.136719 C 38.035156 25.136719 40.371094 27.472656 40.371094 30.351562 C 40.371094 33.230469 38.035156 35.566406 35.15625 35.566406 C 32.277344 35.566406 29.941406 33.230469 29.941406 30.351562 C 29.941406 27.472656 32.277344 25.136719 35.15625 25.136719 Z M 35.15625 27.058594 C 33.339844 27.058594 31.863281 28.535156 31.863281 30.351562 C 31.863281 32.167969 33.339844 33.644531 35.15625 33.644531 C 36.972656 33.644531 38.449219 32.167969 38.449219 30.351562 C 38.449219 28.535156 36.972656 27.058594 35.15625 27.058594 Z M 6.296875 13.835938 C 5.367188 14.085938 4.8125 15.042969 5.0625 15.976562 C 5.3125 16.910156 6.269531 17.460938 7.203125 17.214844 C 8.132812 16.964844 8.6875 16.003906 8.4375 15.070312 C 8.1875 14.140625 7.230469 13.585938 6.296875 13.835938 Z M 6.296875 13.835938 "/>
</g>
</svg>
