<?xml version="1.0" encoding="UTF-8"?>
<svg xmlns="http://www.w3.org/2000/svg" xmlns:xlink="http://www.w3.org/1999/xlink" width="35px" height="35px" viewBox="0 0 35 35" version="1.1">
<g id="surface1">
<path style=" stroke:none;fill-rule:nonzero;fill:rgb(0%,0%,0%);fill-opacity:1;" d="M 28.003906 23 C 27.996094 23 27.988281 23.003906 27.980469 23.007812 L 19.476562 25.996094 C 19.308594 25.179688 18.828125 24.351562 17.980469 23.972656 L 12.234375 21.40625 C 10.835938 20.78125 9.628906 21.027344 8.632812 21.347656 L 5.070312 22.5 L 4.90625 21.933594 C 4.738281 21.367188 4.144531 21.039062 3.574219 21.207031 L 0.773438 22.023438 C 0.203125 22.191406 -0.121094 22.789062 0.0429688 23.355469 L 3.042969 33.609375 C 3.207031 34.179688 3.804688 34.507812 4.375 34.339844 L 7.179688 33.519531 C 7.746094 33.351562 8.070312 32.757812 7.90625 32.191406 L 7.683594 31.433594 L 8.765625 31.148438 L 13.703125 32.957031 C 14.445312 33.226562 15.21875 33.472656 16.007812 33.472656 C 16.542969 33.476562 17.074219 33.351562 17.550781 33.105469 L 28.550781 27.488281 C 28.554688 27.484375 28.558594 27.484375 28.5625 27.480469 C 28.660156 27.425781 28.761719 27.375 28.871094 27.320312 C 29.707031 26.890625 30.972656 26.246094 30.464844 24.515625 C 30.132812 23.378906 29.027344 22.699219 28.003906 23 Z M 6.980469 32.546875 C 6.964844 32.574219 6.9375 32.59375 6.910156 32.605469 L 4.105469 33.421875 C 4.042969 33.441406 3.980469 33.40625 3.960938 33.34375 L 0.960938 23.089844 C 0.953125 23.058594 0.957031 23.027344 0.972656 23 C 0.984375 22.972656 1.011719 22.953125 1.039062 22.941406 L 3.84375 22.121094 C 3.855469 22.121094 3.867188 22.117188 3.875 22.117188 C 3.894531 22.117188 3.914062 22.121094 3.933594 22.132812 C 3.960938 22.148438 3.980469 22.171875 3.988281 22.203125 L 6.988281 32.460938 C 6.996094 32.488281 6.992188 32.519531 6.980469 32.546875 Z M 28.4375 26.46875 C 28.328125 26.523438 28.21875 26.582031 28.109375 26.640625 L 17.117188 32.253906 C 16.222656 32.710938 15.34375 32.539062 14.03125 32.058594 L 8.953125 30.203125 C 8.859375 30.167969 8.761719 30.164062 8.667969 30.1875 L 7.414062 30.515625 L 5.339844 23.417969 L 8.925781 22.257812 C 10.109375 21.875 10.957031 21.878906 11.847656 22.277344 L 17.59375 24.847656 C 18.175781 25.105469 18.585938 25.847656 18.589844 26.648438 C 18.589844 26.652344 18.589844 26.652344 18.589844 26.65625 C 18.589844 26.65625 18.589844 26.660156 18.589844 26.660156 C 18.589844 26.890625 18.546875 27.117188 18.464844 27.332031 C 18.089844 28.328125 17.113281 28.367188 16.390625 28.09375 L 12.523438 26.644531 C 12.277344 26.550781 12 26.675781 11.910156 26.921875 C 11.816406 27.167969 11.941406 27.445312 12.1875 27.539062 L 16.054688 28.988281 C 16.40625 29.125 16.777344 29.195312 17.152344 29.199219 C 18.152344 29.199219 18.988281 28.648438 19.359375 27.671875 C 19.441406 27.453125 19.496094 27.226562 19.523438 26.992188 L 28.285156 23.914062 C 28.792969 23.773438 29.367188 24.167969 29.546875 24.78125 C 29.820312 25.710938 29.355469 26 28.4375 26.46875 Z M 17.964844 9.753906 C 16.726562 9.941406 15.613281 10.535156 14.714844 11.492188 C 13.710938 12.5625 13.023438 14.046875 12.773438 15.683594 L 12.511719 17.410156 C 12.382812 18.1875 12.613281 18.984375 13.136719 19.578125 C 14.378906 21.019531 18.90625 21.132812 20.273438 21.132812 L 20.277344 21.132812 C 21.277344 21.132812 26.34375 21.058594 27.621094 19.578125 C 28.144531 18.984375 28.371094 18.191406 28.242188 17.410156 L 27.980469 15.683594 C 27.734375 14.046875 27.046875 12.5625 26.042969 11.492188 C 25.140625 10.535156 24.03125 9.941406 22.792969 9.753906 C 23.007812 9.574219 23.207031 9.375 23.382812 9.160156 C 24.238281 8.121094 24.691406 6.660156 24.691406 4.929688 C 24.691406 2.546875 22.761719 0.617188 20.378906 0.617188 C 17.996094 0.617188 16.066406 2.546875 16.066406 4.929688 C 16.066406 6.660156 16.519531 8.121094 17.371094 9.160156 C 17.550781 9.375 17.75 9.574219 17.964844 9.753906 Z M 27.035156 15.824219 L 27.296875 17.554688 C 27.386719 18.058594 27.238281 18.574219 26.894531 18.953125 C 26.371094 19.5625 23.929688 20.175781 20.277344 20.179688 L 20.269531 20.179688 C 17.117188 20.179688 14.480469 19.675781 13.859375 18.953125 C 13.519531 18.574219 13.371094 18.058594 13.457031 17.554688 L 13.71875 15.824219 C 14.109375 13.246094 15.84375 10.644531 18.835938 10.644531 L 21.921875 10.644531 C 24.914062 10.644531 26.648438 13.246094 27.035156 15.824219 Z M 20.378906 1.570312 C 22.230469 1.574219 23.734375 3.074219 23.734375 4.929688 C 23.734375 8.199219 21.996094 9.6875 20.378906 9.6875 C 18.761719 9.6875 17.019531 8.199219 17.019531 4.929688 C 17.023438 3.074219 18.523438 1.574219 20.378906 1.570312 Z M 3.261719 23.632812 C 3.304688 23.800781 3.253906 23.976562 3.132812 24.097656 C 3.007812 24.214844 2.832031 24.261719 2.664062 24.214844 C 2.5 24.164062 2.375 24.03125 2.335938 23.863281 L 2.332031 23.859375 C 2.269531 23.601562 2.425781 23.34375 2.679688 23.277344 C 2.9375 23.214844 3.195312 23.371094 3.257812 23.625 Z M 27.003906 5.945312 L 27.003906 10.078125 C 27.007812 10.339844 27.21875 10.550781 27.480469 10.550781 C 27.742188 10.550781 27.957031 10.339844 27.960938 10.078125 L 27.960938 5.945312 C 28.582031 5.742188 29 5.160156 29 4.507812 C 29 3.851562 28.582031 3.269531 27.960938 3.066406 L 27.960938 2.238281 C 27.957031 1.976562 27.742188 1.765625 27.480469 1.765625 C 27.21875 1.765625 27.007812 1.976562 27.003906 2.238281 L 27.003906 3.066406 C 26.382812 3.269531 25.964844 3.851562 25.964844 4.507812 C 25.964844 5.160156 26.382812 5.742188 27.003906 5.949219 Z M 27.480469 3.945312 C 27.792969 3.941406 28.046875 4.195312 28.046875 4.507812 C 28.046875 4.816406 27.792969 5.070312 27.480469 5.070312 C 27.171875 5.070312 26.917969 4.816406 26.917969 4.507812 C 26.917969 4.195312 27.171875 3.945312 27.480469 3.945312 Z M 6.882812 13.285156 C 7.640625 13.285156 8.253906 13.898438 8.253906 14.65625 C 8.253906 14.921875 8.46875 15.132812 8.734375 15.132812 C 8.996094 15.132812 9.210938 14.921875 9.210938 14.65625 C 9.210938 13.898438 9.824219 13.285156 10.585938 13.285156 C 10.757812 13.285156 10.914062 13.195312 11.003906 13.046875 C 11.089844 12.898438 11.089844 12.714844 11.003906 12.566406 C 10.914062 12.417969 10.757812 12.328125 10.585938 12.328125 C 9.828125 12.328125 9.210938 11.714844 9.210938 10.957031 C 9.210938 10.691406 8.996094 10.476562 8.734375 10.476562 C 8.46875 10.476562 8.253906 10.691406 8.253906 10.957031 C 8.253906 11.714844 7.640625 12.328125 6.882812 12.328125 C 6.710938 12.328125 6.550781 12.417969 6.464844 12.566406 C 6.378906 12.714844 6.378906 12.898438 6.464844 13.046875 C 6.550781 13.195312 6.710938 13.285156 6.882812 13.285156 Z M 8.734375 12.367188 C 8.859375 12.53125 9.007812 12.679688 9.171875 12.804688 C 9.007812 12.933594 8.859375 13.082031 8.734375 13.246094 C 8.605469 13.082031 8.460938 12.933594 8.292969 12.804688 C 8.460938 12.679688 8.605469 12.53125 8.734375 12.367188 Z M 33.960938 3.625 L 33.960938 2.238281 C 33.960938 1.976562 33.746094 1.761719 33.480469 1.761719 C 33.21875 1.761719 33.003906 1.976562 33.003906 2.238281 L 33.003906 3.625 C 32.382812 3.832031 31.960938 4.410156 31.960938 5.066406 C 31.960938 5.722656 32.382812 6.300781 33.003906 6.507812 L 33.003906 10.078125 C 33.003906 10.34375 33.21875 10.558594 33.480469 10.558594 C 33.746094 10.558594 33.960938 10.34375 33.960938 10.078125 L 33.960938 6.507812 C 34.582031 6.300781 35 5.722656 35 5.066406 C 35 4.410156 34.582031 3.832031 33.960938 3.625 Z M 33.480469 5.628906 C 33.171875 5.628906 32.917969 5.378906 32.917969 5.066406 C 32.917969 4.753906 33.171875 4.503906 33.480469 4.503906 C 33.792969 4.503906 34.042969 4.753906 34.042969 5.066406 C 34.042969 5.378906 33.792969 5.628906 33.480469 5.628906 Z M 10.140625 8.425781 C 11.140625 8.429688 11.953125 9.238281 11.953125 10.238281 C 11.949219 10.410156 12.042969 10.570312 12.191406 10.65625 C 12.339844 10.742188 12.523438 10.742188 12.671875 10.65625 C 12.820312 10.570312 12.910156 10.410156 12.910156 10.238281 C 12.910156 9.238281 13.722656 8.429688 14.722656 8.425781 C 14.984375 8.425781 15.195312 8.210938 15.195312 7.949219 C 15.195312 7.6875 14.984375 7.476562 14.722656 7.472656 C 13.71875 7.472656 12.910156 6.660156 12.910156 5.660156 C 12.910156 5.488281 12.820312 5.328125 12.671875 5.242188 C 12.523438 5.15625 12.339844 5.15625 12.191406 5.242188 C 12.042969 5.328125 11.949219 5.488281 11.953125 5.660156 C 11.953125 6.660156 11.140625 7.472656 10.140625 7.472656 C 9.96875 7.46875 9.808594 7.5625 9.722656 7.710938 C 9.636719 7.859375 9.636719 8.042969 9.722656 8.191406 C 9.808594 8.339844 9.96875 8.429688 10.140625 8.425781 Z M 12.429688 7.210938 C 12.628906 7.503906 12.878906 7.753906 13.167969 7.949219 C 12.878906 8.148438 12.628906 8.398438 12.429688 8.6875 C 12.234375 8.398438 11.984375 8.148438 11.695312 7.949219 C 11.984375 7.753906 12.234375 7.503906 12.429688 7.210938 Z M 30.960938 6.433594 L 30.960938 2.238281 C 30.960938 1.976562 30.746094 1.761719 30.480469 1.761719 C 30.21875 1.761719 30.003906 1.976562 30.003906 2.238281 L 30.003906 6.433594 C 29.382812 6.640625 28.964844 7.222656 28.964844 7.875 C 28.964844 8.53125 29.382812 9.109375 30.003906 9.316406 L 30.003906 10.078125 C 30.003906 10.34375 30.21875 10.558594 30.480469 10.558594 C 30.746094 10.558594 30.960938 10.34375 30.960938 10.078125 L 30.960938 9.316406 C 31.582031 9.109375 32 8.53125 32 7.875 C 32 7.222656 31.582031 6.640625 30.960938 6.433594 Z M 30.480469 8.4375 C 30.253906 8.441406 30.046875 8.300781 29.960938 8.089844 C 29.871094 7.882812 29.921875 7.636719 30.082031 7.476562 C 30.242188 7.316406 30.488281 7.265625 30.699219 7.355469 C 30.910156 7.441406 31.046875 7.648438 31.046875 7.875 C 31.042969 8.1875 30.792969 8.4375 30.480469 8.4375 Z M 30.480469 8.4375 "/>
</g>
</svg>
