<?xml version="1.0" encoding="UTF-8"?>
<svg xmlns="http://www.w3.org/2000/svg" xmlns:xlink="http://www.w3.org/1999/xlink" width="35px" height="35px" viewBox="0 0 35 35" version="1.1">
<g id="surface1">
<path style=" stroke:none;fill-rule:nonzero;fill:rgb(0%,0%,0%);fill-opacity:1;" d="M 0.972656 16.792969 C 0.972656 16.492188 1.21875 16.246094 1.519531 16.246094 L 4.105469 16.246094 C 4.40625 16.246094 4.652344 16.492188 4.652344 16.792969 C 4.652344 17.097656 4.40625 17.339844 4.105469 17.339844 L 1.519531 17.339844 C 1.21875 17.339844 0.972656 17.097656 0.972656 16.792969 Z M 6.175781 17.339844 L 8.761719 17.339844 C 9.0625 17.339844 9.308594 17.097656 9.308594 16.792969 C 9.308594 16.492188 9.0625 16.246094 8.761719 16.246094 L 6.175781 16.246094 C 5.875 16.246094 5.628906 16.492188 5.628906 16.792969 C 5.628906 17.097656 5.875 17.339844 6.175781 17.339844 Z M 3.832031 18.734375 C 3.53125 18.734375 3.285156 18.980469 3.285156 19.28125 C 3.285156 19.585938 3.53125 19.828125 3.832031 19.828125 L 6.417969 19.828125 C 6.71875 19.828125 6.964844 19.585938 6.964844 19.28125 C 6.964844 18.980469 6.71875 18.734375 6.417969 18.734375 Z M 4.078125 21.769531 C 4.078125 21.46875 3.835938 21.222656 3.53125 21.222656 L 1.09375 21.222656 C 0.792969 21.222656 0.546875 21.46875 0.546875 21.769531 C 0.546875 22.070312 0.792969 22.316406 1.09375 22.316406 L 3.53125 22.316406 C 3.835938 22.316406 4.078125 22.070312 4.078125 21.769531 Z M 8.734375 21.769531 C 8.734375 21.46875 8.492188 21.222656 8.1875 21.222656 L 5.605469 21.222656 C 5.300781 21.222656 5.058594 21.46875 5.058594 21.769531 C 5.058594 22.070312 5.300781 22.316406 5.605469 22.316406 L 8.1875 22.316406 C 8.492188 22.316406 8.734375 22.070312 8.734375 21.769531 Z M 6.417969 23.710938 L 3.832031 23.710938 C 3.53125 23.710938 3.285156 23.957031 3.285156 24.257812 C 3.285156 24.558594 3.53125 24.804688 3.832031 24.804688 L 6.417969 24.804688 C 6.71875 24.804688 6.964844 24.558594 6.964844 24.257812 C 6.964844 23.957031 6.71875 23.710938 6.417969 23.710938 Z M 21.074219 14.78125 C 21.378906 14.78125 21.621094 14.535156 21.621094 14.234375 L 21.621094 13.46875 C 21.621094 13.167969 21.378906 12.921875 21.074219 12.921875 C 20.773438 12.921875 20.527344 13.167969 20.527344 13.46875 L 20.527344 14.234375 C 20.527344 14.535156 20.773438 14.78125 21.074219 14.78125 Z M 25.523438 16.625 C 25.664062 16.625 25.804688 16.570312 25.910156 16.464844 L 26.453125 15.921875 C 26.667969 15.707031 26.667969 15.363281 26.453125 15.148438 C 26.238281 14.9375 25.894531 14.9375 25.679688 15.148438 L 25.136719 15.691406 C 24.925781 15.902344 24.925781 16.25 25.136719 16.464844 C 25.246094 16.570312 25.386719 16.625 25.523438 16.625 Z M 25.910156 24.589844 C 25.699219 24.375 25.351562 24.375 25.136719 24.589844 C 24.925781 24.800781 24.925781 25.148438 25.136719 25.363281 L 25.679688 25.902344 C 25.785156 26.007812 25.925781 26.0625 26.066406 26.0625 C 26.207031 26.0625 26.347656 26.007812 26.453125 25.902344 C 26.667969 25.6875 26.667969 25.34375 26.453125 25.128906 Z M 16.238281 24.589844 L 15.699219 25.128906 C 15.484375 25.34375 15.484375 25.6875 15.699219 25.902344 C 15.804688 26.007812 15.945312 26.0625 16.085938 26.0625 C 16.226562 26.0625 16.367188 26.007812 16.472656 25.902344 L 17.011719 25.363281 C 17.226562 25.148438 17.226562 24.800781 17.011719 24.589844 C 16.800781 24.375 16.453125 24.375 16.238281 24.589844 Z M 16.472656 15.148438 C 16.257812 14.9375 15.914062 14.9375 15.699219 15.148438 C 15.484375 15.363281 15.484375 15.707031 15.699219 15.921875 L 16.238281 16.464844 C 16.347656 16.570312 16.488281 16.625 16.625 16.625 C 16.765625 16.625 16.90625 16.570312 17.011719 16.464844 C 17.226562 16.25 17.226562 15.902344 17.011719 15.691406 Z M 27.367188 21.074219 L 28.132812 21.074219 C 28.433594 21.074219 28.679688 20.828125 28.679688 20.527344 C 28.679688 20.222656 28.433594 19.980469 28.132812 19.980469 L 27.367188 19.980469 C 27.066406 19.980469 26.820312 20.222656 26.820312 20.527344 C 26.820312 20.828125 27.066406 21.074219 27.367188 21.074219 Z M 21.074219 26.269531 C 20.773438 26.269531 20.527344 26.515625 20.527344 26.816406 L 20.527344 27.582031 C 20.527344 27.886719 20.773438 28.128906 21.074219 28.128906 C 21.378906 28.128906 21.621094 27.886719 21.621094 27.582031 L 21.621094 26.816406 C 21.621094 26.515625 21.378906 26.269531 21.074219 26.269531 Z M 14.785156 19.980469 L 14.019531 19.980469 C 13.71875 19.980469 13.472656 20.222656 13.472656 20.527344 C 13.472656 20.828125 13.71875 21.074219 14.019531 21.074219 L 14.785156 21.074219 C 15.085938 21.074219 15.332031 20.828125 15.332031 20.527344 C 15.332031 20.222656 15.085938 19.980469 14.785156 19.980469 Z M 22.75 19.980469 L 25.230469 19.980469 C 25.53125 19.980469 25.777344 20.222656 25.777344 20.527344 C 25.777344 20.828125 25.53125 21.074219 25.230469 21.074219 L 22.75 21.074219 C 22.519531 21.777344 21.855469 22.289062 21.074219 22.289062 C 20.105469 22.289062 19.3125 21.496094 19.3125 20.527344 C 19.3125 19.746094 19.824219 19.082031 20.527344 18.851562 L 20.527344 16.371094 C 20.527344 16.070312 20.773438 15.824219 21.074219 15.824219 C 21.378906 15.824219 21.621094 16.070312 21.621094 16.371094 L 21.621094 18.851562 C 22.15625 19.027344 22.574219 19.445312 22.75 19.980469 Z M 21.742188 20.527344 C 21.742188 20.15625 21.445312 19.859375 21.074219 19.859375 C 20.707031 19.859375 20.40625 20.15625 20.40625 20.527344 C 20.40625 20.894531 20.707031 21.195312 21.074219 21.195312 C 21.445312 21.195312 21.742188 20.894531 21.742188 20.527344 Z M 34.453125 4.492188 L 34.453125 11.285156 C 34.453125 12.335938 33.601562 13.1875 32.550781 13.1875 L 30.425781 13.1875 C 32.066406 15.273438 32.960938 17.835938 32.960938 20.527344 C 32.960938 27.078125 27.628906 32.410156 21.074219 32.410156 C 16.03125 32.410156 11.710938 29.25 9.988281 24.804688 L 9 24.804688 C 8.699219 24.804688 8.453125 24.558594 8.453125 24.257812 C 8.453125 23.957031 8.699219 23.710938 9 23.710938 L 9.625 23.710938 C 9.34375 22.695312 9.191406 21.628906 9.191406 20.527344 C 9.191406 17.972656 10.003906 15.601562 11.378906 13.664062 L 10.765625 13.050781 C 10.34375 12.625 10.34375 11.9375 10.765625 11.511719 L 12.0625 10.214844 C 12.269531 10.011719 12.542969 9.898438 12.832031 9.898438 C 13.121094 9.898438 13.394531 10.011719 13.601562 10.214844 L 14.214844 10.828125 C 15.632812 9.820312 17.285156 9.117188 19.070312 8.8125 L 19.070312 7.753906 L 19.007812 7.753906 C 18.410156 7.753906 17.921875 7.230469 17.921875 6.585938 L 17.921875 5.628906 C 17.921875 4.988281 18.410156 4.464844 19.007812 4.464844 L 20.722656 4.464844 C 20.738281 3.429688 21.582031 2.589844 22.625 2.589844 L 32.550781 2.589844 C 33.601562 2.589844 34.453125 3.445312 34.453125 4.492188 Z M 23.222656 15.402344 L 23.222656 13.1875 L 22.625 13.1875 C 21.910156 13.1875 21.289062 12.792969 20.960938 12.210938 C 16.429688 12.273438 12.757812 15.976562 12.757812 20.527344 C 12.757812 25.113281 16.488281 28.84375 21.074219 28.84375 C 25.660156 28.84375 29.390625 25.113281 29.390625 20.527344 C 29.390625 17.875 28.140625 15.410156 26.027344 13.84375 L 24.164062 15.78125 C 24.058594 15.890625 23.917969 15.949219 23.769531 15.949219 C 23.703125 15.949219 23.632812 15.9375 23.566406 15.910156 C 23.359375 15.824219 23.222656 15.625 23.222656 15.402344 Z M 19.035156 6.660156 L 20.722656 6.660156 L 20.722656 5.558594 L 19.035156 5.558594 C 19.027344 5.570312 19.015625 5.59375 19.015625 5.628906 L 19.015625 6.585938 C 19.015625 6.625 19.027344 6.648438 19.035156 6.660156 Z M 20.164062 8.675781 C 20.347656 8.664062 20.535156 8.652344 20.722656 8.648438 L 20.722656 7.753906 L 20.164062 7.753906 Z M 12.058594 12.796875 C 12.453125 12.335938 12.882812 11.902344 13.34375 11.507812 L 12.832031 10.996094 L 11.542969 12.28125 Z M 28.988281 13.1875 L 26.96875 13.1875 C 29.1875 14.96875 30.484375 17.652344 30.484375 20.527344 C 30.484375 25.714844 26.265625 29.9375 21.074219 29.9375 C 15.886719 29.9375 11.664062 25.714844 11.664062 20.527344 C 11.664062 15.457031 15.695312 11.308594 20.722656 11.121094 L 20.722656 9.742188 C 14.933594 9.929688 10.285156 14.695312 10.285156 20.527344 C 10.285156 26.476562 15.125 31.316406 21.074219 31.316406 C 27.027344 31.316406 31.867188 26.476562 31.867188 20.527344 C 31.867188 17.785156 30.84375 15.191406 28.988281 13.1875 Z M 33.359375 4.492188 C 33.359375 4.046875 32.996094 3.683594 32.550781 3.683594 L 22.625 3.683594 C 22.175781 3.683594 21.816406 4.046875 21.816406 4.492188 L 21.816406 11.285156 C 21.816406 11.730469 22.175781 12.09375 22.625 12.09375 L 23.769531 12.09375 C 24.074219 12.09375 24.316406 12.339844 24.316406 12.640625 L 24.316406 14.042969 L 26.027344 12.261719 C 26.132812 12.15625 26.273438 12.09375 26.421875 12.09375 L 32.550781 12.09375 C 32.996094 12.09375 33.359375 11.730469 33.359375 11.285156 Z M 31.007812 7.34375 L 24.164062 7.34375 C 23.863281 7.34375 23.617188 7.585938 23.617188 7.890625 C 23.617188 8.191406 23.863281 8.4375 24.164062 8.4375 L 31.011719 8.4375 C 31.3125 8.4375 31.558594 8.191406 31.558594 7.890625 C 31.558594 7.585938 31.3125 7.34375 31.007812 7.34375 Z M 31.007812 9.785156 L 24.164062 9.785156 C 23.863281 9.785156 23.617188 10.027344 23.617188 10.332031 C 23.617188 10.632812 23.863281 10.878906 24.164062 10.878906 L 31.011719 10.878906 C 31.3125 10.878906 31.558594 10.632812 31.558594 10.332031 C 31.558594 10.027344 31.3125 9.785156 31.007812 9.785156 Z M 31.007812 4.902344 L 24.164062 4.902344 C 23.863281 4.902344 23.617188 5.144531 23.617188 5.449219 C 23.617188 5.75 23.863281 5.996094 24.164062 5.996094 L 31.011719 5.996094 C 31.3125 5.996094 31.558594 5.75 31.558594 5.449219 C 31.558594 5.144531 31.3125 4.902344 31.007812 4.902344 Z M 31.007812 4.902344 "/>
</g>
</svg>
