<?xml version="1.0" encoding="UTF-8"?>
<svg xmlns="http://www.w3.org/2000/svg" xmlns:xlink="http://www.w3.org/1999/xlink" width="35px" height="35px" viewBox="0 0 35 35" version="1.1">
<g id="surface1">
<path style=" stroke:none;fill-rule:nonzero;fill:rgb(0%,0%,0%);fill-opacity:1;" d="M 19.917969 18.273438 C 19.609375 18.273438 19.40625 18.476562 19.40625 18.785156 C 19.40625 19.09375 19.609375 19.300781 19.917969 19.300781 L 23.46875 19.300781 C 23.78125 19.300781 23.984375 19.09375 23.984375 18.785156 C 23.984375 18.476562 23.78125 18.273438 23.46875 18.273438 Z M 19.917969 18.273438 "/>
<path style=" stroke:none;fill-rule:nonzero;fill:rgb(0%,0%,0%);fill-opacity:1;" d="M 14.207031 13.792969 C 11.425781 13.949219 9.160156 16.265625 9.160156 19.09375 L 9.160156 20.332031 C 9.160156 20.640625 9.367188 20.84375 9.675781 20.84375 C 9.984375 20.84375 10.191406 20.640625 10.191406 20.332031 L 10.191406 19.09375 C 10.191406 16.882812 11.941406 14.976562 14.15625 14.824219 L 17.191406 17.859375 L 17.191406 20.28125 C 17.191406 20.589844 17.398438 20.792969 17.707031 20.792969 C 18.015625 20.792969 18.21875 20.589844 18.21875 20.28125 L 18.21875 17.859375 L 21.257812 14.824219 C 23.46875 14.976562 25.21875 16.882812 25.21875 19.09375 L 25.21875 20.332031 C 25.21875 20.640625 25.425781 20.84375 25.734375 20.84375 C 26.042969 20.84375 26.25 20.640625 26.25 20.332031 L 26.25 19.09375 C 26.25 16.265625 23.984375 13.949219 21.207031 13.792969 C 20.484375 13.382812 20.023438 12.867188 19.714844 12.25 C 20.949219 11.53125 21.71875 10.191406 21.71875 8.648438 L 21.71875 7.976562 C 22.492188 6.640625 22.800781 5.507812 23.007812 4.582031 C 23.523438 2.109375 19.765625 -0.308594 18.117188 2.265625 C 16.523438 1.957031 15.03125 2.160156 13.949219 2.882812 C 13.28125 3.292969 12.867188 3.859375 12.714844 4.476562 C 12.351562 6.332031 13.023438 7.566406 13.28125 8.03125 L 13.28125 8.699219 C 13.28125 10.292969 14.207031 11.683594 15.542969 12.40625 C 15.285156 12.96875 14.824219 13.433594 14.207031 13.792969 Z M 13.84375 6.792969 C 13.691406 6.332031 13.589844 5.609375 13.742188 4.734375 C 13.898438 3.910156 15.59375 2.78125 18.273438 3.398438 C 18.53125 3.449219 18.785156 3.34375 18.890625 3.089844 C 18.890625 3.089844 18.941406 2.933594 19.042969 2.78125 C 20.023438 1.339844 22.285156 3.089844 21.976562 4.375 C 21.824219 5.09375 21.617188 5.917969 21.15625 6.898438 L 20.535156 5.96875 C 20.332031 5.714844 20.023438 5.558594 19.714844 5.558594 L 15.132812 5.558594 C 14.773438 5.558594 14.410156 5.765625 14.257812 6.074219 Z M 14.359375 8.699219 L 14.359375 7.976562 L 15.132812 6.535156 L 19.660156 6.535156 L 20.691406 8.03125 L 20.691406 8.699219 C 20.691406 10.449219 19.25 11.890625 17.550781 11.890625 C 15.851562 11.890625 14.359375 10.5 14.359375 8.699219 Z M 16.574219 12.765625 C 17.34375 12.96875 18.066406 12.917969 18.785156 12.714844 C 19.09375 13.382812 19.558594 13.898438 20.226562 14.410156 L 17.707031 16.933594 L 15.132812 14.410156 C 15.800781 13.949219 16.265625 13.382812 16.574219 12.765625 Z M 16.574219 12.765625 "/>
<path style=" stroke:none;fill-rule:nonzero;fill:rgb(0%,0%,0%);fill-opacity:1;" d="M 33.199219 22.800781 C 32.890625 22.234375 32.324219 21.925781 31.757812 21.773438 C 31.191406 21.667969 30.625 21.773438 30.160156 22.082031 C 29.75 22.285156 28.824219 23.265625 26.765625 24.191406 C 26.507812 24.292969 26.40625 24.601562 26.507812 24.859375 C 26.609375 25.066406 26.765625 25.167969 26.96875 25.167969 C 27.433594 25.167969 29.851562 23.675781 30.726562 22.90625 C 30.933594 22.75 31.242188 22.699219 31.5 22.75 C 31.601562 22.800781 31.5 22.75 32.167969 23.109375 C 32.425781 23.367188 32.425781 23.675781 32.273438 23.984375 C 32.21875 24.089844 30.109375 26.09375 30.058594 26.148438 C 27.589844 28.566406 24.808594 31.34375 22.851562 31.707031 C 18.734375 32.324219 19.457031 32.375 15.59375 30.882812 C 12.96875 29.851562 9.933594 29.59375 7.410156 30.984375 C 7.15625 31.140625 7.050781 31.449219 7.207031 31.707031 C 7.359375 31.964844 7.667969 32.066406 7.925781 31.910156 C 10.089844 30.726562 12.816406 30.984375 15.082031 31.808594 C 17.859375 33.042969 18.734375 33.660156 23.160156 32.734375 C 25.273438 32.273438 27.691406 29.90625 30.78125 26.917969 C 32.476562 25.21875 32.632812 25.117188 32.890625 24.910156 C 33.457031 24.398438 33.609375 23.46875 33.199219 22.800781 Z M 33.199219 22.800781 "/>
<path style=" stroke:none;fill-rule:nonzero;fill:rgb(0%,0%,0%);fill-opacity:1;" d="M 2.109375 30.933594 C 1.800781 30.933594 1.59375 31.140625 1.59375 31.449219 L 1.59375 33.300781 C 1.59375 33.609375 1.800781 33.816406 2.109375 33.816406 L 5.765625 33.816406 C 6.074219 33.816406 6.28125 33.609375 6.28125 33.300781 C 6.28125 32.582031 6.28125 35.875 6.28125 26.40625 C 6.332031 26.40625 6.382812 26.351562 6.433594 26.351562 C 8.90625 24.65625 8.082031 23.523438 10.65625 23.109375 C 14.566406 22.441406 17.035156 24.859375 22.234375 26.09375 C 23.625 26.40625 24.398438 26.457031 24.707031 26.507812 C 25.632812 26.714844 25.941406 27.792969 25.425781 28.15625 C 24.449219 28.464844 22.132812 27.640625 22.183594 27.640625 C 20.023438 27.074219 17.292969 26.96875 15.234375 28 C 14.976562 28.101562 14.875 28.410156 15.03125 28.667969 C 15.132812 28.925781 15.441406 29.03125 15.699219 28.875 C 17.808594 27.84375 20.535156 28.257812 22.03125 28.617188 C 22.957031 28.824219 25.425781 29.957031 26.351562 28.667969 C 27.175781 27.484375 26.40625 25.839844 24.964844 25.53125 C 24.964844 25.53125 23.46875 25.375 22.492188 25.117188 C 17.035156 23.78125 14.773438 21.359375 10.34375 22.082031 C 7.71875 22.542969 7.773438 24.035156 6.28125 25.167969 L 6.28125 24.191406 C 6.28125 23.882812 6.074219 23.675781 5.765625 23.675781 L 2.109375 23.675781 C 1.800781 23.675781 1.59375 23.882812 1.59375 24.191406 L 1.59375 28.976562 C 1.59375 29.285156 1.800781 29.492188 2.109375 29.492188 C 2.417969 29.492188 2.625 29.285156 2.625 28.976562 L 2.625 24.707031 L 5.25 24.707031 C 5.25 24.910156 5.25 33.148438 5.25 32.785156 L 2.625 32.785156 L 2.625 31.449219 C 2.625 31.140625 2.367188 30.933594 2.109375 30.933594 Z M 2.109375 30.933594 "/>
</g>
</svg>
