<?xml version="1.0" encoding="UTF-8"?>
<svg xmlns="http://www.w3.org/2000/svg" xmlns:xlink="http://www.w3.org/1999/xlink" width="35px" height="35px" viewBox="0 0 35 35" version="1.1">
<g id="surface1">
<path style=" stroke:none;fill-rule:nonzero;fill:rgb(0%,0%,0%);fill-opacity:1;" d="M 29.132812 17.808594 L 28.578125 17.808594 C 29.507812 17.128906 30 15.835938 30 14.59375 C 30 12.984375 28.691406 11.675781 27.082031 11.675781 C 25.472656 11.675781 24.160156 12.984375 24.160156 14.59375 C 24.160156 15.835938 24.652344 17.128906 25.585938 17.808594 L 25.027344 17.808594 C 24.789062 17.808594 24.554688 17.832031 24.328125 17.878906 C 23.480469 16.75 22.078125 16.007812 20.496094 16.007812 L 19.378906 16.007812 C 19.839844 15.707031 20.246094 15.292969 20.578125 14.769531 C 21.167969 13.839844 21.507812 12.617188 21.507812 11.417969 C 21.507812 9.207031 19.710938 7.410156 17.5 7.410156 C 15.292969 7.410156 13.492188 9.207031 13.492188 11.417969 C 13.492188 12.570312 13.828125 13.804688 14.394531 14.71875 C 14.730469 15.269531 15.140625 15.699219 15.605469 16.007812 L 14.503906 16.007812 C 12.921875 16.007812 11.523438 16.75 10.675781 17.878906 C 10.445312 17.832031 10.210938 17.808594 9.972656 17.808594 L 9.414062 17.808594 C 10.347656 17.128906 10.839844 15.835938 10.839844 14.59375 C 10.839844 12.984375 9.53125 11.675781 7.921875 11.675781 C 6.3125 11.675781 5 12.984375 5 14.59375 C 5 15.835938 5.492188 17.128906 6.425781 17.808594 L 5.867188 17.808594 C 4.003906 17.808594 2.488281 19.234375 2.488281 20.984375 L 2.488281 24.578125 C 2.488281 24.878906 2.730469 25.125 3.035156 25.125 C 3.335938 25.125 3.582031 24.878906 3.582031 24.578125 L 3.582031 20.984375 C 3.582031 19.835938 4.605469 18.902344 5.867188 18.902344 L 9.972656 18.902344 C 10.015625 18.902344 10.058594 18.90625 10.101562 18.910156 C 9.925781 19.371094 9.828125 19.871094 9.828125 20.390625 L 9.828125 24.578125 C 9.828125 24.878906 10.070312 25.125 10.375 25.125 C 10.675781 25.125 10.921875 24.878906 10.921875 24.578125 L 10.921875 20.390625 C 10.921875 19.828125 11.078125 19.292969 11.351562 18.828125 C 11.367188 18.808594 11.382812 18.785156 11.394531 18.761719 C 12.011719 17.769531 13.175781 17.101562 14.503906 17.101562 L 20.496094 17.101562 C 21.828125 17.101562 22.992188 17.769531 23.609375 18.761719 C 23.621094 18.785156 23.636719 18.808594 23.652344 18.828125 C 23.925781 19.292969 24.082031 19.824219 24.082031 20.390625 L 24.082031 24.578125 C 24.082031 24.878906 24.328125 25.125 24.628906 25.125 C 24.929688 25.125 25.175781 24.878906 25.175781 24.578125 L 25.175781 20.390625 C 25.175781 19.871094 25.078125 19.371094 24.898438 18.910156 C 24.941406 18.90625 24.984375 18.902344 25.027344 18.902344 L 29.132812 18.902344 C 30.394531 18.902344 31.421875 19.835938 31.421875 20.984375 L 31.421875 24.578125 C 31.421875 24.878906 31.664062 25.125 31.96875 25.125 C 32.269531 25.125 32.515625 24.878906 32.515625 24.578125 L 32.515625 20.984375 C 32.515625 19.234375 30.996094 17.808594 29.132812 17.808594 Z M 27.082031 12.769531 C 28.085938 12.769531 28.90625 13.585938 28.90625 14.59375 C 28.90625 15.675781 28.339844 17.195312 27.082031 17.195312 C 25.824219 17.195312 25.253906 15.675781 25.253906 14.59375 C 25.253906 13.585938 26.074219 12.769531 27.082031 12.769531 Z M 14.585938 11.417969 C 14.585938 9.808594 15.894531 8.503906 17.5 8.503906 C 19.109375 8.503906 20.414062 9.808594 20.414062 11.417969 C 20.414062 12.984375 19.625 15.46875 17.5 15.46875 C 16.597656 15.46875 15.863281 15.023438 15.324219 14.148438 C 14.863281 13.398438 14.585938 12.378906 14.585938 11.417969 Z M 7.921875 12.769531 C 8.925781 12.769531 9.746094 13.585938 9.746094 14.59375 C 9.746094 15.675781 9.179688 17.195312 7.921875 17.195312 C 6.660156 17.195312 6.09375 15.675781 6.09375 14.59375 C 6.09375 13.585938 6.914062 12.769531 7.921875 12.769531 Z M 6.023438 7.480469 L 5.8125 8.941406 C 5.785156 9.140625 5.867188 9.339844 6.03125 9.460938 C 6.195312 9.578125 6.414062 9.597656 6.597656 9.507812 L 7.921875 8.859375 L 9.242188 9.507812 C 9.320312 9.546875 9.402344 9.566406 9.484375 9.566406 C 9.597656 9.566406 9.710938 9.53125 9.804688 9.460938 C 9.96875 9.339844 10.054688 9.140625 10.027344 8.941406 L 9.816406 7.480469 L 10.84375 6.421875 C 10.984375 6.277344 11.035156 6.066406 10.972656 5.871094 C 10.910156 5.679688 10.742188 5.539062 10.542969 5.503906 L 9.089844 5.253906 L 8.40625 3.949219 C 8.308594 3.769531 8.125 3.65625 7.921875 3.65625 C 7.71875 3.65625 7.53125 3.769531 7.4375 3.949219 L 6.75 5.253906 L 5.292969 5.503906 C 5.09375 5.539062 4.929688 5.679688 4.867188 5.871094 C 4.804688 6.066406 4.855469 6.277344 4.996094 6.421875 Z M 7.199219 6.285156 C 7.367188 6.253906 7.511719 6.152344 7.589844 6 L 7.921875 5.375 L 8.25 6 C 8.328125 6.148438 8.472656 6.253906 8.640625 6.285156 L 9.335938 6.40625 L 8.84375 6.914062 C 8.726562 7.035156 8.671875 7.203125 8.695312 7.371094 L 8.796875 8.070312 L 8.160156 7.757812 C 8.011719 7.683594 7.832031 7.683594 7.679688 7.757812 L 7.042969 8.070312 L 7.144531 7.371094 C 7.171875 7.203125 7.113281 7.035156 6.996094 6.914062 L 6.503906 6.402344 Z M 15.605469 4.710938 L 15.394531 6.171875 C 15.363281 6.371094 15.449219 6.570312 15.613281 6.691406 C 15.707031 6.761719 15.820312 6.796875 15.933594 6.796875 C 16.019531 6.796875 16.101562 6.777344 16.175781 6.738281 L 17.5 6.089844 L 18.824219 6.738281 C 19.003906 6.828125 19.222656 6.8125 19.386719 6.691406 C 19.550781 6.570312 19.636719 6.371094 19.605469 6.171875 L 19.398438 4.710938 L 20.425781 3.65625 C 20.566406 3.511719 20.613281 3.296875 20.550781 3.105469 C 20.488281 2.914062 20.324219 2.769531 20.125 2.734375 L 18.671875 2.484375 L 17.984375 1.179688 C 17.890625 1 17.703125 0.890625 17.5 0.890625 C 17.296875 0.890625 17.113281 1 17.015625 1.179688 L 16.328125 2.484375 L 14.875 2.734375 C 14.675781 2.769531 14.511719 2.914062 14.449219 3.105469 C 14.386719 3.296875 14.433594 3.511719 14.578125 3.65625 Z M 16.78125 3.515625 C 16.949219 3.488281 17.089844 3.382812 17.171875 3.234375 L 17.5 2.609375 L 17.828125 3.234375 C 17.910156 3.382812 18.054688 3.488281 18.21875 3.515625 L 18.917969 3.636719 L 18.425781 4.144531 C 18.304688 4.265625 18.25 4.433594 18.277344 4.601562 L 18.375 5.300781 L 17.742188 4.988281 C 17.667969 4.953125 17.582031 4.933594 17.5 4.933594 C 17.417969 4.933594 17.335938 4.953125 17.261719 4.988281 L 16.625 5.300781 L 16.726562 4.601562 C 16.75 4.433594 16.695312 4.265625 16.578125 4.144531 L 16.085938 3.636719 Z M 25.1875 7.277344 L 24.976562 8.738281 C 24.945312 8.9375 25.03125 9.140625 25.195312 9.257812 C 25.289062 9.328125 25.402344 9.363281 25.515625 9.363281 C 25.597656 9.363281 25.679688 9.34375 25.757812 9.308594 L 27.082031 8.65625 L 28.402344 9.308594 C 28.585938 9.398438 28.804688 9.378906 28.96875 9.257812 C 29.132812 9.140625 29.214844 8.941406 29.1875 8.738281 L 28.976562 7.277344 L 30.003906 6.222656 C 30.144531 6.074219 30.195312 5.863281 30.132812 5.671875 C 30.070312 5.476562 29.90625 5.335938 29.707031 5.300781 L 28.253906 5.050781 L 27.566406 3.746094 C 27.472656 3.566406 27.285156 3.453125 27.082031 3.453125 C 26.878906 3.453125 26.691406 3.566406 26.597656 3.746094 L 25.910156 5.050781 L 24.457031 5.300781 C 24.257812 5.335938 24.089844 5.476562 24.027344 5.671875 C 23.964844 5.863281 24.015625 6.078125 24.15625 6.222656 Z M 26.359375 6.082031 C 26.527344 6.054688 26.671875 5.949219 26.75 5.800781 L 27.082031 5.175781 L 27.410156 5.796875 C 27.488281 5.949219 27.632812 6.054688 27.800781 6.082031 L 28.496094 6.203125 L 28.003906 6.707031 C 27.886719 6.832031 27.832031 7 27.855469 7.167969 L 27.957031 7.867188 L 27.324219 7.558594 C 27.171875 7.480469 26.992188 7.480469 26.839844 7.554688 L 26.207031 7.867188 L 26.308594 7.167969 C 26.332031 7 26.277344 6.832031 26.15625 6.707031 L 25.664062 6.203125 Z M 17.5 24.3125 C 15.679688 24.3125 14.195312 25.792969 14.195312 27.617188 C 14.195312 29.441406 15.679688 30.921875 17.5 30.921875 C 19.324219 30.921875 20.808594 29.441406 20.808594 27.617188 C 20.808594 25.792969 19.324219 24.3125 17.5 24.3125 Z M 17.5 29.828125 C 16.28125 29.828125 15.289062 28.835938 15.289062 27.617188 C 15.289062 26.398438 16.28125 25.40625 17.5 25.40625 C 18.722656 25.40625 19.714844 26.398438 19.714844 27.617188 C 19.714844 28.835938 18.722656 29.828125 17.5 29.828125 Z M 23.675781 26.355469 L 22.679688 25.894531 L 22.378906 25.171875 L 22.761719 24.140625 C 22.832031 23.941406 22.785156 23.71875 22.632812 23.566406 L 21.898438 22.832031 L 21.898438 21.09375 C 21.898438 20.789062 21.652344 20.546875 21.351562 20.546875 C 21.050781 20.546875 20.804688 20.789062 20.804688 21.09375 L 20.804688 22.421875 L 19.945312 22.738281 L 19.222656 22.4375 L 18.761719 21.441406 C 18.671875 21.246094 18.476562 21.125 18.265625 21.125 L 16.734375 21.125 C 16.523438 21.125 16.328125 21.246094 16.238281 21.441406 L 15.777344 22.4375 L 15.058594 22.738281 L 14.195312 22.421875 L 14.195312 21.09375 C 14.195312 20.789062 13.949219 20.546875 13.648438 20.546875 C 13.347656 20.546875 13.101562 20.789062 13.101562 21.09375 L 13.101562 22.832031 L 12.367188 23.566406 C 12.21875 23.71875 12.167969 23.941406 12.242188 24.140625 L 12.621094 25.171875 L 12.324219 25.894531 L 11.324219 26.355469 C 11.132812 26.445312 11.007812 26.636719 11.007812 26.851562 L 11.007812 28.382812 C 11.007812 28.597656 11.132812 28.789062 11.324219 28.878906 L 12.324219 29.339844 L 12.621094 30.0625 L 12.242188 31.09375 C 12.167969 31.292969 12.21875 31.515625 12.367188 31.667969 L 13.449219 32.75 C 13.601562 32.902344 13.824219 32.949219 14.027344 32.875 L 15.058594 32.496094 L 15.777344 32.796875 L 16.238281 33.792969 C 16.328125 33.988281 16.523438 34.109375 16.734375 34.109375 L 18.265625 34.109375 C 18.476562 34.109375 18.671875 33.988281 18.761719 33.792969 L 19.222656 32.796875 L 19.945312 32.496094 L 20.976562 32.875 C 21.175781 32.949219 21.402344 32.898438 21.550781 32.75 L 22.632812 31.667969 C 22.785156 31.515625 22.832031 31.292969 22.761719 31.09375 L 22.378906 30.0625 L 22.679688 29.339844 L 23.675781 28.878906 C 23.871094 28.789062 23.996094 28.597656 23.996094 28.382812 L 23.996094 26.851562 C 23.996094 26.636719 23.871094 26.445312 23.675781 26.355469 Z M 22.902344 28.03125 L 22.027344 28.4375 C 21.902344 28.492188 21.800781 28.597656 21.75 28.722656 L 21.289062 29.839844 C 21.234375 29.96875 21.234375 30.109375 21.28125 30.238281 L 21.613281 31.140625 L 21.027344 31.730469 L 20.121094 31.394531 C 19.992188 31.347656 19.851562 31.351562 19.722656 31.40625 L 18.605469 31.867188 C 18.480469 31.921875 18.375 32.019531 18.320312 32.144531 L 17.914062 33.015625 L 17.085938 33.015625 L 16.683594 32.144531 C 16.625 32.019531 16.523438 31.921875 16.394531 31.867188 L 15.277344 31.40625 C 15.152344 31.351562 15.007812 31.347656 14.878906 31.394531 L 13.976562 31.730469 L 13.390625 31.140625 L 13.722656 30.238281 C 13.769531 30.109375 13.765625 29.964844 13.714844 29.839844 L 13.25 28.722656 C 13.199219 28.597656 13.101562 28.496094 12.976562 28.4375 L 12.101562 28.03125 L 12.101562 27.203125 L 12.976562 26.796875 C 13.101562 26.742188 13.199219 26.636719 13.25 26.511719 L 13.714844 25.394531 C 13.765625 25.269531 13.769531 25.125 13.722656 24.996094 L 13.390625 24.09375 L 13.976562 23.503906 L 14.878906 23.839844 C 15.007812 23.886719 15.152344 23.882812 15.277344 23.828125 L 16.394531 23.367188 C 16.523438 23.3125 16.625 23.214844 16.683594 23.089844 L 17.085938 22.21875 L 17.914062 22.21875 L 18.320312 23.089844 C 18.375 23.214844 18.480469 23.316406 18.605469 23.367188 L 19.722656 23.832031 C 19.851562 23.882812 19.992188 23.886719 20.121094 23.839844 L 21.027344 23.503906 L 21.613281 24.09375 L 21.28125 24.996094 C 21.234375 25.125 21.234375 25.265625 21.289062 25.394531 L 21.75 26.511719 C 21.800781 26.636719 21.902344 26.742188 22.027344 26.796875 L 22.902344 27.203125 Z M 18.785156 26.554688 C 19.007812 26.757812 19.027344 27.101562 18.820312 27.328125 L 17.621094 28.644531 C 17.523438 28.753906 17.382812 28.816406 17.238281 28.824219 C 17.230469 28.824219 17.222656 28.824219 17.21875 28.824219 C 17.078125 28.824219 16.941406 28.769531 16.839844 28.671875 L 16.203125 28.058594 C 15.984375 27.851562 15.980469 27.503906 16.1875 27.285156 C 16.398438 27.070312 16.742188 27.0625 16.960938 27.269531 L 17.191406 27.492188 L 18.011719 26.589844 C 18.214844 26.367188 18.5625 26.351562 18.785156 26.554688 Z M 18.785156 26.554688 "/>
</g>
</svg>
