<?xml version="1.0" encoding="UTF-8"?>
<svg xmlns="http://www.w3.org/2000/svg" xmlns:xlink="http://www.w3.org/1999/xlink" width="80px" height="80px" viewBox="0 0 80 80" version="1.1">
<g id="surface1">
<path style=" stroke:none;fill-rule:nonzero;fill:rgb(0%,24.705882%,43.921569%);fill-opacity:1;" d="M 23.109375 32.050781 C 23.21875 33.425781 22.710938 36.464844 23.796875 37.5625 C 24.238281 38.078125 25.007812 38.148438 25.53125 37.722656 C 26.058594 37.296875 26.148438 36.53125 25.738281 35.996094 C 25.449219 35.949219 25.671875 32.265625 25.605469 32.050781 C 25.605469 29.644531 27.144531 27.507812 29.429688 26.746094 L 36.824219 24.28125 C 38.871094 23.597656 41.085938 23.597656 43.136719 24.277344 L 50.53125 26.746094 C 52.816406 27.507812 54.355469 29.644531 54.355469 32.050781 L 54.355469 35.582031 C 54.355469 35.730469 54.308594 35.875 54.21875 35.992188 C 54.015625 36.253906 53.925781 36.585938 53.96875 36.914062 C 54.011719 37.242188 54.179688 37.539062 54.445312 37.742188 C 55.820312 38.714844 56.921875 36.816406 56.851562 35.578125 L 56.851562 32.050781 C 56.851562 28.570312 54.625 25.480469 51.324219 24.382812 L 45.035156 22.28125 C 52.828125 17.367188 49.328125 4.992188 39.980469 5 C 30.632812 5 27.132812 17.359375 34.929688 22.28125 L 28.640625 24.382812 C 25.335938 25.480469 23.109375 28.570312 23.109375 32.050781 Z M 33.09375 14.386719 C 33.382812 5.28125 46.582031 5.28125 46.871094 14.386719 C 46.582031 23.488281 33.378906 23.484375 33.09375 14.386719 Z M 70.292969 23.671875 L 65.667969 22.132812 C 68.398438 20.136719 69.539062 16.613281 68.488281 13.398438 C 67.441406 10.1875 64.441406 8.011719 61.0625 8.011719 C 57.679688 8.011719 54.683594 10.1875 53.632812 13.398438 C 52.585938 16.613281 53.722656 20.136719 56.453125 22.132812 C 56.015625 22.25 55.675781 22.59375 55.5625 23.035156 C 55.453125 23.476562 55.589844 23.941406 55.921875 24.25 C 56.253906 24.5625 56.726562 24.667969 57.160156 24.527344 C 58.390625 24.015625 59.699219 23.71875 61.027344 23.644531 C 62.8125 23.503906 67.757812 25.550781 69.5 26.035156 C 71.25 26.621094 72.429688 28.257812 72.433594 30.105469 L 72.433594 32.949219 L 60.59375 33.285156 C 59.90625 33.285156 59.347656 33.84375 59.347656 34.535156 C 59.347656 35.222656 59.90625 35.78125 60.59375 35.78125 L 72.109375 35.78125 C 73.667969 35.777344 74.929688 34.507812 74.925781 32.949219 L 74.925781 30.105469 C 74.925781 27.1875 73.058594 24.597656 70.292969 23.671875 Z M 61.039062 21.152344 C 58.144531 21.082031 55.835938 18.714844 55.839844 15.816406 C 55.847656 12.921875 58.164062 10.558594 61.0625 10.503906 C 63.957031 10.570312 66.265625 12.941406 66.261719 15.839844 C 66.253906 18.734375 63.9375 21.09375 61.039062 21.152344 Z M 20.613281 34.535156 C 20.613281 33.84375 20.054688 33.285156 19.367188 33.285156 L 7.890625 33.285156 L 7.566406 30.105469 C 7.566406 28.261719 8.746094 26.625 10.492188 26.035156 L 16.457031 24.054688 C 18.5625 23.425781 20.824219 23.589844 22.820312 24.515625 C 23.46875 24.71875 24.160156 24.363281 24.375 23.714844 C 24.589844 23.070312 24.242188 22.371094 23.601562 22.148438 C 25.558594 20.628906 26.71875 18.304688 26.757812 15.828125 C 26.761719 12.140625 24.1875 8.953125 20.582031 8.183594 C 16.972656 7.410156 13.320312 9.261719 11.8125 12.628906 C 10.304688 15.992188 11.355469 19.953125 14.328125 22.132812 L 9.699219 23.671875 C 6.9375 24.601562 5.074219 27.1875 5.074219 30.105469 L 5.074219 32.949219 C 5.070312 34.507812 6.332031 35.777344 7.890625 35.78125 L 19.367188 35.78125 C 20.054688 35.78125 20.613281 35.222656 20.613281 34.535156 Z M 18.9375 10.503906 C 21.847656 10.546875 24.183594 12.914062 24.1875 15.824219 C 24.191406 18.730469 21.859375 21.105469 18.949219 21.152344 C 16.007812 21.15625 13.621094 18.773438 13.617188 15.832031 C 13.617188 12.890625 15.996094 10.503906 18.9375 10.503906 Z M 18.9375 10.503906 "/>
<path style=" stroke:none;fill-rule:nonzero;fill:rgb(0%,24.705882%,43.921569%);fill-opacity:1;" d="M 56.964844 50.683594 C 56.539062 49.058594 55.914062 47.492188 55.101562 46.019531 C 55.683594 45.5625 56.039062 44.878906 56.085938 44.140625 C 56.132812 43.40625 55.863281 42.683594 55.34375 42.15625 L 52.882812 39.695312 C 52.335938 39.175781 51.597656 38.90625 50.84375 38.957031 C 50.089844 39.007812 49.390625 39.375 48.917969 39.960938 C 47.464844 39.117188 45.917969 38.453125 44.300781 37.988281 C 44.390625 37.253906 44.160156 36.515625 43.671875 35.960938 C 43.183594 35.40625 42.480469 35.085938 41.742188 35.082031 L 38.257812 35.082031 C 37.515625 35.082031 36.8125 35.402344 36.320312 35.957031 C 35.824219 36.546875 35.582031 37.308594 35.644531 38.074219 C 34.019531 38.503906 32.453125 39.128906 30.980469 39.9375 C 30.523438 39.351562 29.839844 38.992188 29.101562 38.945312 C 28.363281 38.90625 27.640625 39.175781 27.113281 39.695312 L 24.65625 42.15625 C 24.136719 42.703125 23.867188 43.445312 23.917969 44.199219 C 23.96875 44.953125 24.332031 45.648438 24.921875 46.121094 C 24.074219 47.574219 23.410156 49.125 22.945312 50.738281 C 22.210938 50.644531 21.472656 50.875 20.914062 51.363281 C 20.359375 51.855469 20.042969 52.558594 20.042969 53.300781 L 20.042969 56.78125 C 20.042969 57.523438 20.359375 58.230469 20.917969 58.71875 C 21.507812 59.210938 22.265625 59.453125 23.035156 59.398438 C 23.460938 61.023438 24.085938 62.589844 24.898438 64.0625 C 24.3125 64.515625 23.953125 65.199219 23.90625 65.9375 C 23.859375 66.679688 24.132812 67.402344 24.65625 67.925781 L 27.117188 70.386719 C 27.664062 70.90625 28.402344 71.171875 29.15625 71.121094 C 29.910156 71.070312 30.609375 70.707031 31.082031 70.117188 C 32.535156 70.964844 34.082031 71.628906 35.699219 72.09375 C 35.609375 72.828125 35.839844 73.566406 36.328125 74.121094 C 36.816406 74.675781 37.519531 74.996094 38.257812 75 L 41.742188 75 C 42.480469 75 43.1875 74.683594 43.675781 74.125 C 44.171875 73.535156 44.417969 72.777344 44.355469 72.007812 C 45.980469 71.582031 47.546875 70.957031 49.019531 70.144531 C 49.476562 70.730469 50.160156 71.089844 50.898438 71.136719 C 51.636719 71.183594 52.359375 70.910156 52.882812 70.386719 L 55.34375 67.925781 C 55.863281 67.378906 56.132812 66.636719 56.082031 65.882812 C 56.03125 65.128906 55.667969 64.433594 55.078125 63.960938 C 55.894531 62.496094 56.558594 60.949219 57.054688 59.34375 C 57.789062 59.433594 58.523438 59.203125 59.078125 58.714844 C 59.632812 58.222656 59.953125 57.523438 59.957031 56.78125 L 59.957031 53.300781 C 59.941406 52.542969 59.605469 51.832031 59.039062 51.332031 C 58.46875 50.835938 57.71875 50.601562 56.964844 50.683594 Z M 57.464844 56.78125 L 57.363281 56.867188 C 56.078125 56.707031 54.871094 57.527344 54.546875 58.78125 C 54.28125 61.226562 51.023438 63.910156 53.570312 66.03125 C 53.574219 66.035156 53.574219 66.15625 53.578125 66.160156 L 51.121094 68.621094 L 50.988281 68.609375 C 50.191406 67.585938 48.757812 67.3125 47.640625 67.976562 C 45.734375 69.507812 41.515625 69.105469 41.828125 72.40625 L 43.066406 72.25 L 41.742188 72.503906 L 38.257812 72.503906 L 38.171875 72.40625 C 38.335938 71.117188 37.515625 69.910156 36.257812 69.589844 C 34.886719 69.242188 33.574219 68.695312 32.359375 67.976562 C 31.242188 67.3125 29.808594 67.585938 29.011719 68.609375 C 29.007812 68.613281 28.882812 68.613281 28.878906 68.621094 L 26.421875 66.160156 L 25.539062 67.042969 L 26.429688 66.03125 C 27.457031 65.234375 27.726562 63.800781 27.066406 62.683594 C 25.535156 60.773438 25.933594 56.5625 22.632812 56.867188 L 22.535156 56.78125 L 22.535156 53.300781 L 22.636719 53.214844 C 23.921875 53.375 25.128906 52.554688 25.453125 51.296875 C 25.800781 49.929688 26.34375 48.613281 27.066406 47.398438 C 27.726562 46.28125 27.453125 44.847656 26.429688 44.050781 C 26.425781 44.046875 26.425781 43.925781 26.421875 43.921875 L 28.878906 41.460938 L 29.011719 41.472656 C 31.128906 44.015625 33.816406 40.765625 36.257812 40.492188 C 37.515625 40.171875 38.335938 38.960938 38.171875 37.675781 L 38.257812 37.578125 L 41.742188 37.578125 L 41.828125 37.675781 C 41.664062 38.964844 42.484375 40.171875 43.742188 40.492188 C 45.113281 40.839844 46.425781 41.382812 47.640625 42.105469 C 48.757812 42.765625 50.191406 42.496094 50.988281 41.472656 C 50.992188 41.464844 51.117188 41.46875 51.121094 41.460938 L 53.578125 43.921875 L 53.566406 44.050781 C 51.023438 46.171875 54.277344 48.859375 54.546875 51.296875 C 54.875 52.554688 56.078125 53.371094 57.367188 53.214844 L 57.464844 53.300781 Z M 57.464844 56.78125 "/>
<path style=" stroke:none;fill-rule:nonzero;fill:rgb(0%,24.705882%,43.921569%);fill-opacity:1;" d="M 40 43.625 C 33.695312 43.625 28.582031 48.734375 28.582031 55.042969 C 28.582031 61.347656 33.695312 66.457031 40 66.457031 C 46.304688 66.457031 51.417969 61.347656 51.417969 55.042969 C 51.410156 48.738281 46.300781 43.632812 40 43.625 Z M 40 63.960938 C 35.070312 63.960938 31.078125 59.96875 31.078125 55.039062 C 31.078125 50.113281 35.074219 46.117188 40 46.117188 C 44.929688 46.117188 48.921875 50.113281 48.921875 55.042969 C 48.917969 59.964844 44.925781 63.957031 40 63.960938 Z M 40 63.960938 "/>
<path style=" stroke:none;fill-rule:nonzero;fill:rgb(0%,24.705882%,43.921569%);fill-opacity:1;" d="M 42.859375 51.664062 L 38.753906 55.769531 L 37.140625 54.160156 C 36.648438 53.691406 35.875 53.699219 35.398438 54.179688 C 34.917969 54.660156 34.910156 55.433594 35.375 55.921875 L 37.871094 58.417969 C 38.359375 58.902344 39.148438 58.902344 39.632812 58.417969 L 44.625 53.425781 C 44.960938 53.117188 45.101562 52.648438 44.992188 52.203125 C 44.878906 51.757812 44.53125 51.410156 44.085938 51.296875 C 43.640625 51.183594 43.171875 51.328125 42.859375 51.664062 Z M 42.859375 51.664062 "/>
</g>
</svg>
