<?xml version="1.0" encoding="UTF-8"?>
<svg xmlns="http://www.w3.org/2000/svg" xmlns:xlink="http://www.w3.org/1999/xlink" width="45px" height="45px" viewBox="0 0 45 45" version="1.1">
<g id="surface1">
<path style=" stroke:none;fill-rule:nonzero;fill:rgb(0%,0%,0%);fill-opacity:1;" d="M 37.96875 30.234375 C 34.472656 30.234375 31.640625 33.066406 31.640625 36.5625 C 31.640625 40.058594 34.472656 42.890625 37.96875 42.890625 C 41.464844 42.890625 44.296875 40.058594 44.296875 36.5625 C 44.296875 33.066406 41.464844 30.234375 37.96875 30.234375 Z M 37.96875 41.484375 C 35.25 41.484375 33.046875 39.28125 33.046875 36.5625 C 33.046875 33.84375 35.25 31.640625 37.96875 31.640625 C 40.6875 31.640625 42.890625 33.84375 42.890625 36.5625 C 42.890625 39.28125 40.6875 41.484375 37.96875 41.484375 Z M 37.96875 41.484375 "/>
<path style=" stroke:none;fill-rule:nonzero;fill:rgb(0%,0%,0%);fill-opacity:1;" d="M 35.859375 33.75 L 37.265625 33.75 L 37.265625 35.15625 L 35.859375 35.15625 Z M 35.859375 33.75 "/>
<path style=" stroke:none;fill-rule:nonzero;fill:rgb(0%,0%,0%);fill-opacity:1;" d="M 38.671875 33.75 L 40.078125 33.75 L 40.078125 35.15625 L 38.671875 35.15625 Z M 38.671875 33.75 "/>
<path style=" stroke:none;fill-rule:nonzero;fill:rgb(0%,0%,0%);fill-opacity:1;" d="M 35.15625 37.265625 L 40.78125 37.265625 L 40.78125 38.671875 L 35.15625 38.671875 Z M 35.15625 37.265625 "/>
<path style=" stroke:none;fill-rule:nonzero;fill:rgb(0%,0%,0%);fill-opacity:1;" d="M 22.5 2.109375 C 19.003906 2.109375 16.171875 4.941406 16.171875 8.4375 C 16.171875 11.933594 19.003906 14.765625 22.5 14.765625 C 25.996094 14.765625 28.828125 11.933594 28.828125 8.4375 C 28.828125 4.941406 25.996094 2.109375 22.5 2.109375 Z M 22.5 13.359375 C 19.78125 13.359375 17.578125 11.15625 17.578125 8.4375 C 17.578125 5.71875 19.78125 3.515625 22.5 3.515625 C 25.21875 3.515625 27.421875 5.71875 27.421875 8.4375 C 27.421875 11.15625 25.21875 13.359375 22.5 13.359375 Z M 22.5 13.359375 "/>
<path style=" stroke:none;fill-rule:nonzero;fill:rgb(0%,0%,0%);fill-opacity:1;" d="M 20.390625 5.625 L 21.796875 5.625 L 21.796875 7.03125 L 20.390625 7.03125 Z M 20.390625 5.625 "/>
<path style=" stroke:none;fill-rule:nonzero;fill:rgb(0%,0%,0%);fill-opacity:1;" d="M 23.203125 5.625 L 24.609375 5.625 L 24.609375 7.03125 L 23.203125 7.03125 Z M 23.203125 5.625 "/>
<path style=" stroke:none;fill-rule:nonzero;fill:rgb(0%,0%,0%);fill-opacity:1;" d="M 22.5 8.4375 C 20.945312 8.4375 19.6875 9.695312 19.6875 11.25 L 21.09375 11.25 C 21.09375 10.472656 21.722656 9.84375 22.5 9.84375 C 23.277344 9.84375 23.90625 10.472656 23.90625 11.25 L 25.3125 11.25 C 25.3125 9.695312 24.054688 8.4375 22.5 8.4375 Z M 22.5 8.4375 "/>
<path style=" stroke:none;fill-rule:nonzero;fill:rgb(0%,0%,0%);fill-opacity:1;" d="M 7.03125 30.234375 C 3.535156 30.234375 0.703125 33.066406 0.703125 36.5625 C 0.703125 40.058594 3.535156 42.890625 7.03125 42.890625 C 10.527344 42.890625 13.359375 40.058594 13.359375 36.5625 C 13.359375 33.066406 10.527344 30.234375 7.03125 30.234375 Z M 7.03125 41.484375 C 4.3125 41.484375 2.109375 39.28125 2.109375 36.5625 C 2.109375 33.84375 4.3125 31.640625 7.03125 31.640625 C 9.75 31.640625 11.953125 33.84375 11.953125 36.5625 C 11.953125 39.28125 9.75 41.484375 7.03125 41.484375 Z M 7.03125 41.484375 "/>
<path style=" stroke:none;fill-rule:nonzero;fill:rgb(0%,0%,0%);fill-opacity:1;" d="M 4.921875 33.75 L 6.328125 33.75 L 6.328125 35.15625 L 4.921875 35.15625 Z M 4.921875 33.75 "/>
<path style=" stroke:none;fill-rule:nonzero;fill:rgb(0%,0%,0%);fill-opacity:1;" d="M 7.734375 33.75 L 9.140625 33.75 L 9.140625 35.15625 L 7.734375 35.15625 Z M 7.734375 33.75 "/>
<path style=" stroke:none;fill-rule:nonzero;fill:rgb(0%,0%,0%);fill-opacity:1;" d="M 7.03125 38.671875 C 5.867188 38.671875 4.921875 37.726562 4.921875 36.5625 L 3.515625 36.5625 C 3.515625 38.503906 5.089844 40.078125 7.03125 40.078125 C 8.972656 40.078125 10.546875 38.503906 10.546875 36.5625 L 9.140625 36.5625 C 9.140625 37.726562 8.195312 38.671875 7.03125 38.671875 Z M 7.03125 38.671875 "/>
<path style=" stroke:none;fill-rule:nonzero;fill:rgb(0%,0%,0%);fill-opacity:1;" d="M 13.402344 8.4375 L 9.886719 8.21875 L 9.800781 9.625 L 11.003906 9.695312 C 5.484375 14.15625 3.046875 21.40625 4.746094 28.292969 L 6.109375 27.957031 C 5.785156 26.628906 5.625 25.269531 5.625 23.90625 C 5.613281 18.734375 7.992188 13.847656 12.066406 10.660156 L 11.503906 12.214844 L 12.832031 12.683594 L 14.019531 9.378906 C 14.097656 9.171875 14.070312 8.941406 13.949219 8.753906 C 13.828125 8.566406 13.625 8.449219 13.402344 8.4375 Z M 13.402344 8.4375 "/>
<path style=" stroke:none;fill-rule:nonzero;fill:rgb(0%,0%,0%);fill-opacity:1;" d="M 31.273438 7.859375 L 30.570312 9.097656 C 35.996094 12.050781 39.371094 17.730469 39.375 23.90625 C 39.375 24.363281 39.375 24.820312 39.320312 25.261719 L 38.582031 24.046875 L 37.378906 24.75 L 39.191406 27.757812 C 39.308594 27.949219 39.503906 28.074219 39.726562 28.097656 L 39.796875 28.097656 C 39.992188 28.097656 40.175781 28.015625 40.308594 27.871094 L 42.695312 25.3125 L 41.660156 24.355469 L 40.71875 25.382812 C 40.753906 24.898438 40.78125 24.40625 40.78125 23.90625 C 40.785156 17.222656 37.140625 11.070312 31.273438 7.859375 Z M 31.273438 7.859375 "/>
<path style=" stroke:none;fill-rule:nonzero;fill:rgb(0%,0%,0%);fill-opacity:1;" d="M 22.5 40.78125 C 20.886719 40.773438 19.285156 40.539062 17.738281 40.078125 L 19.035156 39.671875 L 18.613281 38.328125 L 15.257812 39.410156 C 15.046875 39.476562 14.878906 39.640625 14.804688 39.847656 C 14.734375 40.058594 14.761719 40.289062 14.886719 40.472656 L 16.875 43.390625 L 18.042969 42.609375 L 17.242188 41.40625 C 18.945312 41.921875 20.71875 42.183594 22.5 42.1875 C 25.289062 42.195312 28.042969 41.5625 30.542969 40.332031 L 29.925781 39.066406 C 27.617188 40.203125 25.074219 40.789062 22.5 40.78125 Z M 22.5 40.78125 "/>
<path style=" stroke:none;fill-rule:nonzero;fill:rgb(0%,0%,0%);fill-opacity:1;" d="M 28.785156 23.835938 C 28.875 23.515625 28.824219 23.171875 28.652344 22.886719 L 27.746094 21.390625 C 27.382812 20.796875 26.621094 20.597656 26.015625 20.9375 L 25.753906 21.078125 C 25.414062 20.839844 25.042969 20.636719 24.660156 20.476562 L 24.660156 20.230469 C 24.652344 19.542969 24.09375 18.988281 23.40625 18.984375 L 21.59375 18.984375 C 20.902344 18.980469 20.335938 19.535156 20.328125 20.230469 L 20.328125 20.476562 C 19.941406 20.636719 19.574219 20.839844 19.230469 21.078125 L 18.96875 20.9375 C 18.371094 20.609375 17.617188 20.804688 17.253906 21.390625 L 16.347656 22.886719 C 16.175781 23.171875 16.125 23.515625 16.214844 23.835938 C 16.300781 24.164062 16.519531 24.445312 16.820312 24.609375 L 17.050781 24.734375 C 17.003906 25.125 17.003906 25.515625 17.050781 25.902344 L 16.820312 26.03125 C 16.519531 26.191406 16.304688 26.46875 16.214844 26.796875 C 16.125 27.117188 16.175781 27.460938 16.347656 27.746094 L 17.253906 29.242188 C 17.617188 29.824219 18.371094 30.023438 18.96875 29.691406 L 19.230469 29.550781 C 19.574219 29.792969 19.941406 29.996094 20.328125 30.15625 L 20.328125 30.402344 C 20.339844 31.09375 20.902344 31.644531 21.59375 31.640625 L 23.40625 31.640625 C 24.097656 31.644531 24.664062 31.089844 24.671875 30.394531 L 24.671875 30.148438 C 25.058594 29.984375 25.425781 29.777344 25.769531 29.53125 L 26.03125 29.671875 C 26.628906 30.003906 27.382812 29.804688 27.746094 29.222656 L 28.652344 27.722656 C 28.824219 27.4375 28.875 27.097656 28.785156 26.773438 C 28.695312 26.449219 28.476562 26.175781 28.179688 26.015625 L 27.949219 25.890625 C 27.996094 25.5 27.996094 25.109375 27.949219 24.722656 L 28.179688 24.59375 C 28.476562 24.433594 28.695312 24.160156 28.785156 23.835938 Z M 26.578125 25.3125 C 26.589844 25.484375 26.589844 25.660156 26.578125 25.832031 C 26.511719 26.335938 26.765625 26.828125 27.210938 27.070312 L 27.386719 27.167969 L 26.640625 28.398438 L 26.417969 28.273438 C 25.96875 28.03125 25.417969 28.074219 25.011719 28.378906 C 24.730469 28.582031 24.425781 28.75 24.101562 28.878906 C 23.621094 29.0625 23.300781 29.523438 23.292969 30.039062 L 23.292969 30.234375 L 21.734375 30.234375 L 21.734375 30.039062 C 21.726562 29.523438 21.40625 29.0625 20.925781 28.878906 C 20.601562 28.75 20.296875 28.582031 20.019531 28.378906 C 19.609375 28.074219 19.0625 28.03125 18.613281 28.273438 L 18.386719 28.398438 L 17.648438 27.167969 L 17.824219 27.070312 C 18.269531 26.828125 18.523438 26.335938 18.457031 25.832031 C 18.410156 25.488281 18.410156 25.136719 18.457031 24.792969 C 18.523438 24.289062 18.269531 23.796875 17.824219 23.554688 L 17.648438 23.457031 L 18.394531 22.226562 L 18.617188 22.351562 C 19.066406 22.59375 19.617188 22.550781 20.023438 22.246094 C 20.304688 22.042969 20.609375 21.875 20.933594 21.746094 C 21.414062 21.5625 21.734375 21.101562 21.742188 20.585938 L 21.742188 20.390625 L 23.273438 20.390625 L 23.273438 20.585938 C 23.28125 21.101562 23.601562 21.5625 24.082031 21.746094 C 24.40625 21.875 24.710938 22.042969 24.988281 22.246094 C 25.398438 22.550781 25.945312 22.59375 26.394531 22.351562 L 26.621094 22.226562 L 27.367188 23.457031 L 27.191406 23.554688 C 26.742188 23.796875 26.492188 24.289062 26.558594 24.792969 C 26.574219 24.964844 26.582031 25.140625 26.578125 25.3125 Z M 26.578125 25.3125 "/>
<path style=" stroke:none;fill-rule:nonzero;fill:rgb(0%,0%,0%);fill-opacity:1;" d="M 22.5 22.5 C 20.945312 22.5 19.6875 23.757812 19.6875 25.3125 C 19.6875 26.867188 20.945312 28.125 22.5 28.125 C 24.054688 28.125 25.3125 26.867188 25.3125 25.3125 C 25.3125 23.757812 24.054688 22.5 22.5 22.5 Z M 22.5 26.71875 C 21.722656 26.71875 21.09375 26.089844 21.09375 25.3125 C 21.09375 24.535156 21.722656 23.90625 22.5 23.90625 C 23.277344 23.90625 23.90625 24.535156 23.90625 25.3125 C 23.90625 26.089844 23.277344 26.71875 22.5 26.71875 Z M 22.5 26.71875 "/>
</g>
</svg>
