<?xml version="1.0" encoding="UTF-8"?>
<svg xmlns="http://www.w3.org/2000/svg" xmlns:xlink="http://www.w3.org/1999/xlink" width="35px" height="35px" viewBox="0 0 35 35" version="1.1">
<g id="surface1">
<path style=" stroke:none;fill-rule:nonzero;fill:rgb(0%,0%,0%);fill-opacity:1;" d="M 33.109375 13.0625 C 33.1875 13.105469 33.273438 13.125 33.359375 13.125 C 33.457031 13.125 33.554688 13.097656 33.644531 13.046875 C 33.808594 12.945312 33.90625 12.769531 33.90625 12.578125 L 33.90625 9.84375 C 33.90625 9.640625 33.792969 9.453125 33.609375 9.359375 L 30.625 7.8125 L 30.625 4.375 L 31.171875 4.375 C 31.472656 4.375 31.71875 4.128906 31.71875 3.828125 L 31.71875 1.640625 C 31.71875 1.339844 31.472656 1.09375 31.171875 1.09375 L 25.15625 1.09375 C 24.855469 1.09375 24.609375 1.339844 24.609375 1.640625 L 24.609375 3.828125 C 24.609375 4.128906 24.855469 4.375 25.15625 4.375 L 25.703125 4.375 L 25.703125 5.269531 L 17.75 1.15625 C 17.59375 1.074219 17.40625 1.074219 17.25 1.15625 L 10.839844 4.46875 C 10.570312 4.609375 10.46875 4.9375 10.605469 5.207031 C 10.746094 5.476562 11.074219 5.582031 11.34375 5.441406 L 16.953125 2.539062 L 16.953125 4.042969 L 2.1875 11.679688 L 2.1875 10.175781 L 9.398438 6.445312 C 9.667969 6.304688 9.773438 5.976562 9.636719 5.707031 C 9.496094 5.441406 9.167969 5.335938 8.898438 5.472656 L 1.390625 9.359375 C 1.207031 9.453125 1.09375 9.640625 1.09375 9.84375 L 1.09375 12.578125 C 1.09375 12.769531 1.191406 12.945312 1.355469 13.046875 C 1.519531 13.144531 1.722656 13.152344 1.890625 13.0625 L 2.734375 12.628906 L 2.734375 28.984375 C 2.734375 29.285156 2.980469 29.53125 3.28125 29.53125 C 3.582031 29.53125 3.828125 29.285156 3.828125 28.984375 L 3.828125 12.0625 L 17.5 4.992188 L 31.171875 12.0625 L 31.171875 30.625 L 28.984375 30.625 L 28.984375 26.796875 C 28.984375 24.988281 27.511719 23.515625 25.703125 23.515625 L 25.703125 23.5 C 26.363281 23 26.796875 22.21875 26.796875 21.328125 L 26.796875 19.140625 C 26.796875 18.839844 26.550781 18.59375 26.25 18.59375 C 25.699219 18.59375 25.160156 18.371094 24.769531 17.980469 L 24.449219 17.660156 C 24.234375 17.445312 23.890625 17.445312 23.675781 17.660156 L 23.355469 17.980469 C 22.964844 18.371094 22.425781 18.59375 21.875 18.59375 C 21.574219 18.59375 21.328125 18.839844 21.328125 19.140625 L 21.328125 21.328125 C 21.328125 22.21875 21.761719 23.003906 22.421875 23.5 L 22.421875 23.515625 C 20.613281 23.515625 19.140625 24.988281 19.140625 26.796875 L 19.140625 30.625 L 16.40625 30.625 L 16.40625 24.0625 C 17.3125 24.0625 18.046875 23.328125 18.046875 22.421875 L 18.046875 21.394531 L 19.125 17.085938 C 19.164062 16.921875 19.128906 16.75 19.023438 16.617188 C 18.921875 16.484375 18.761719 16.40625 18.59375 16.40625 L 10.9375 16.40625 C 10.769531 16.40625 10.609375 16.484375 10.507812 16.617188 C 10.402344 16.75 10.367188 16.921875 10.40625 17.085938 L 11.484375 21.394531 L 11.484375 22.421875 C 11.484375 23.328125 12.21875 24.0625 13.125 24.0625 L 13.125 30.625 L 11.019531 30.625 L 11.410156 27.890625 L 11.484375 27.890625 C 11.785156 27.890625 12.03125 27.644531 12.03125 27.34375 C 12.03125 27.042969 11.785156 26.796875 11.484375 26.796875 L 6.015625 26.796875 L 6.015625 25.703125 L 11.484375 25.703125 C 11.785156 25.703125 12.03125 25.457031 12.03125 25.15625 C 12.03125 24.855469 11.785156 24.609375 11.484375 24.609375 L 11.484375 24.335938 C 11.484375 22.675781 10.136719 21.328125 8.476562 21.328125 C 6.816406 21.328125 5.46875 22.675781 5.46875 24.335938 L 5.46875 24.609375 C 5.167969 24.609375 4.921875 24.855469 4.921875 25.15625 L 4.921875 27.34375 C 4.921875 27.644531 5.167969 27.890625 5.46875 27.890625 L 5.542969 27.890625 L 5.933594 30.625 L 1.640625 30.625 C 1.339844 30.625 1.09375 30.871094 1.09375 31.171875 L 1.09375 33.359375 C 1.09375 33.660156 1.339844 33.90625 1.640625 33.90625 L 19.140625 33.90625 C 19.441406 33.90625 19.6875 33.660156 19.6875 33.359375 C 19.6875 33.058594 19.441406 32.8125 19.140625 32.8125 L 2.1875 32.8125 L 2.1875 31.71875 L 32.8125 31.71875 L 32.8125 32.8125 L 21.328125 32.8125 C 21.027344 32.8125 20.78125 33.058594 20.78125 33.359375 C 20.78125 33.660156 21.027344 33.90625 21.328125 33.90625 L 33.359375 33.90625 C 33.660156 33.90625 33.90625 33.660156 33.90625 33.359375 L 33.90625 31.171875 C 33.90625 30.871094 33.660156 30.625 33.359375 30.625 L 32.265625 30.625 L 32.265625 12.628906 Z M 27.890625 30.625 L 27.261719 30.625 L 26.804688 27.882812 L 27.1875 25.199219 C 27.617188 25.597656 27.890625 26.164062 27.890625 26.796875 Z M 23.515625 24.007812 C 23.691406 24.042969 23.875 24.0625 24.0625 24.0625 C 24.25 24.0625 24.433594 24.042969 24.609375 24.007812 L 24.609375 24.382812 L 24.0625 24.929688 L 23.515625 24.382812 Z M 22.421875 19.640625 C 23.03125 19.53125 23.609375 19.246094 24.0625 18.820312 C 24.515625 19.246094 25.09375 19.53125 25.703125 19.640625 L 25.703125 21.328125 C 25.703125 22.234375 24.96875 22.96875 24.0625 22.96875 C 23.15625 22.96875 22.421875 22.234375 22.421875 21.328125 Z M 22.582031 24.996094 L 23.675781 26.089844 C 23.78125 26.195312 23.921875 26.25 24.0625 26.25 C 24.203125 26.25 24.34375 26.195312 24.449219 26.089844 L 25.542969 24.996094 C 25.644531 24.894531 25.703125 24.753906 25.703125 24.609375 C 25.859375 24.609375 26.011719 24.628906 26.160156 24.660156 L 25.773438 27.34375 L 22.347656 27.34375 L 21.964844 24.660156 C 22.113281 24.628906 22.265625 24.609375 22.421875 24.609375 C 22.421875 24.753906 22.480469 24.894531 22.582031 24.996094 Z M 20.234375 26.796875 C 20.234375 26.164062 20.507812 25.597656 20.9375 25.199219 L 21.320312 27.882812 L 20.863281 30.625 L 20.234375 30.625 Z M 15.3125 17.5 L 15.3125 18.046875 C 15.3125 18.347656 15.558594 18.59375 15.859375 18.59375 C 16.160156 18.59375 16.40625 18.347656 16.40625 18.046875 L 16.40625 17.5 L 17.894531 17.5 L 17.074219 20.78125 L 16.40625 20.78125 L 16.40625 19.6875 C 16.40625 19.386719 16.160156 19.140625 15.859375 19.140625 C 15.558594 19.140625 15.3125 19.386719 15.3125 19.6875 L 15.3125 20.78125 L 14.644531 20.78125 L 14.203125 19.007812 C 14.128906 18.714844 13.832031 18.539062 13.539062 18.609375 C 13.246094 18.683594 13.066406 18.980469 13.140625 19.273438 L 13.519531 20.78125 L 12.457031 20.78125 L 11.636719 17.5 Z M 12.578125 22.421875 L 12.578125 21.875 L 16.953125 21.875 L 16.953125 22.421875 C 16.953125 22.722656 16.707031 22.96875 16.40625 22.96875 L 13.125 22.96875 C 12.824219 22.96875 12.578125 22.722656 12.578125 22.421875 Z M 6.5625 24.335938 C 6.5625 23.28125 7.421875 22.421875 8.476562 22.421875 C 9.53125 22.421875 10.390625 23.28125 10.390625 24.335938 L 10.390625 24.609375 L 6.5625 24.609375 Z M 7.035156 30.625 L 6.644531 27.890625 L 10.308594 27.890625 L 9.917969 30.625 Z M 14.21875 30.625 L 14.21875 24.0625 L 15.3125 24.0625 L 15.3125 30.625 Z M 21.972656 30.625 L 22.339844 28.4375 L 25.789062 28.4375 L 26.152344 30.625 Z M 32.8125 11.679688 L 18.046875 4.042969 L 18.046875 2.539062 L 32.8125 10.175781 Z M 25.703125 2.1875 L 30.625 2.1875 L 30.625 3.28125 L 25.703125 3.28125 Z M 26.796875 4.375 L 29.53125 4.375 L 29.53125 7.25 L 26.796875 5.835938 Z M 26.796875 4.375 "/>
<path style=" stroke:none;fill-rule:nonzero;fill:rgb(0%,0%,0%);fill-opacity:1;" d="M 19.6875 7.109375 L 15.3125 7.109375 C 15.011719 7.109375 14.765625 7.355469 14.765625 7.65625 L 14.765625 12.03125 C 14.765625 12.332031 15.011719 12.578125 15.3125 12.578125 L 19.6875 12.578125 C 19.988281 12.578125 20.234375 12.332031 20.234375 12.03125 L 20.234375 7.65625 C 20.234375 7.355469 19.988281 7.109375 19.6875 7.109375 Z M 19.140625 9.296875 L 18.046875 9.296875 L 18.046875 8.203125 L 19.140625 8.203125 Z M 15.859375 8.203125 L 16.953125 8.203125 L 16.953125 9.296875 L 15.859375 9.296875 Z M 15.859375 10.390625 L 16.953125 10.390625 L 16.953125 11.484375 L 15.859375 11.484375 Z M 19.140625 11.484375 L 18.046875 11.484375 L 18.046875 10.390625 L 19.140625 10.390625 Z M 19.140625 11.484375 "/>
<path style=" stroke:none;fill-rule:nonzero;fill:rgb(0%,0%,0%);fill-opacity:1;" d="M 19.140625 19.6875 L 19.140625 21.875 C 19.140625 22.175781 19.386719 22.421875 19.6875 22.421875 C 19.988281 22.421875 20.234375 22.175781 20.234375 21.875 L 20.234375 19.6875 C 20.234375 18.472656 20.8125 17.339844 21.777344 16.621094 L 21.890625 17.085938 C 21.933594 17.257812 22.058594 17.398438 22.226562 17.464844 C 22.390625 17.527344 22.578125 17.507812 22.726562 17.40625 C 23.539062 16.867188 24.585938 16.867188 25.398438 17.40625 C 25.492188 17.46875 25.597656 17.5 25.703125 17.5 C 25.769531 17.5 25.835938 17.488281 25.898438 17.464844 C 26.066406 17.398438 26.191406 17.257812 26.234375 17.085938 L 26.347656 16.625 C 27.3125 17.339844 27.890625 18.472656 27.890625 19.6875 L 27.890625 21.875 C 27.890625 22.175781 28.136719 22.421875 28.4375 22.421875 C 28.738281 22.421875 28.984375 22.175781 28.984375 21.875 L 28.984375 19.6875 C 28.984375 17.976562 28.082031 16.398438 26.628906 15.503906 L 26.78125 14.898438 C 26.835938 14.683594 26.753906 14.460938 26.578125 14.328125 C 25.097656 13.21875 23.027344 13.21875 21.546875 14.328125 C 21.371094 14.460938 21.292969 14.683594 21.34375 14.898438 L 21.496094 15.503906 C 20.042969 16.398438 19.140625 17.976562 19.140625 19.6875 Z M 25.625 15.007812 L 25.339844 16.148438 C 24.929688 15.988281 24.496094 15.90625 24.0625 15.90625 C 23.628906 15.90625 23.195312 15.988281 22.785156 16.148438 L 22.5 15.007812 C 23.460938 14.449219 24.664062 14.449219 25.625 15.007812 Z M 25.625 15.007812 "/>
</g>
</svg>
