<?xml version="1.0" encoding="UTF-8"?>
<svg xmlns="http://www.w3.org/2000/svg" xmlns:xlink="http://www.w3.org/1999/xlink" width="35px" height="35px" viewBox="0 0 35 35" version="1.1">
<g id="surface1">
<path style=" stroke:none;fill-rule:nonzero;fill:rgb(0%,0%,0%);fill-opacity:1;" d="M 30.011719 14.78125 C 29.757812 14.78125 29.527344 14.601562 29.476562 14.34375 C 29.28125 13.398438 28.59375 12.617188 27.683594 12.308594 L 25.175781 11.457031 C 24.511719 11.226562 24.0625 10.601562 24.0625 9.898438 L 24.0625 8.203125 C 24.0625 7.902344 24.308594 7.65625 24.609375 7.65625 C 24.910156 7.65625 25.15625 7.902344 25.15625 8.203125 L 25.15625 9.898438 C 25.15625 10.136719 25.304688 10.34375 25.527344 10.421875 L 28.035156 11.273438 C 29.3125 11.707031 30.273438 12.796875 30.546875 14.121094 C 30.609375 14.417969 30.417969 14.707031 30.121094 14.769531 C 30.082031 14.777344 30.046875 14.78125 30.011719 14.78125 Z M 30.011719 14.78125 "/>
<path style=" stroke:none;fill-rule:nonzero;fill:rgb(0%,0%,0%);fill-opacity:1;" d="M 16.671875 13.300781 C 16.546875 13.300781 16.417969 13.257812 16.3125 13.167969 C 16.085938 12.964844 16.0625 12.621094 16.261719 12.394531 C 16.703125 11.894531 17.269531 11.511719 17.902344 11.296875 L 20.40625 10.429688 C 20.632812 10.355469 20.78125 10.148438 20.78125 9.921875 L 20.78125 8.203125 C 20.78125 7.902344 21.027344 7.65625 21.328125 7.65625 C 21.628906 7.65625 21.875 7.902344 21.875 8.203125 L 21.875 9.921875 C 21.875 10.617188 21.425781 11.238281 20.761719 11.464844 L 18.257812 12.328125 C 17.804688 12.484375 17.398438 12.757812 17.085938 13.117188 C 16.976562 13.238281 16.824219 13.300781 16.671875 13.300781 Z M 16.671875 13.300781 "/>
<path style=" stroke:none;fill-rule:nonzero;fill:rgb(0%,0%,0%);fill-opacity:1;" d="M 21.324219 8.746094 C 21.207031 8.746094 21.09375 8.710938 20.992188 8.636719 C 20.164062 8.007812 19.6875 7.054688 19.6875 6.015625 L 19.6875 3.828125 C 19.6875 2.320312 20.914062 1.09375 22.421875 1.09375 L 23.515625 1.09375 C 25.023438 1.09375 26.25 2.320312 26.25 3.828125 L 26.25 6.015625 C 26.25 6.316406 26.003906 6.5625 25.703125 6.5625 C 25.402344 6.5625 25.15625 6.316406 25.15625 6.015625 L 25.15625 3.828125 C 25.15625 2.921875 24.421875 2.1875 23.515625 2.1875 L 22.421875 2.1875 C 21.515625 2.1875 20.78125 2.921875 20.78125 3.828125 L 20.78125 6.015625 C 20.78125 6.707031 21.097656 7.34375 21.652344 7.761719 C 21.894531 7.945312 21.941406 8.289062 21.761719 8.527344 C 21.652344 8.671875 21.488281 8.746094 21.324219 8.746094 Z M 21.324219 8.746094 "/>
<path style=" stroke:none;fill-rule:nonzero;fill:rgb(0%,0%,0%);fill-opacity:1;" d="M 23.519531 9.242188 C 23.265625 9.242188 23.039062 9.0625 22.984375 8.804688 C 22.925781 8.507812 23.117188 8.21875 23.410156 8.160156 C 24.421875 7.953125 25.15625 7.050781 25.15625 6.015625 C 25.15625 5.714844 25.402344 5.46875 25.703125 5.46875 C 26.003906 5.46875 26.25 5.714844 26.25 6.015625 C 26.25 7.570312 25.148438 8.917969 23.628906 9.230469 C 23.59375 9.238281 23.554688 9.242188 23.519531 9.242188 Z M 23.519531 9.242188 "/>
<path style=" stroke:none;fill-rule:nonzero;fill:rgb(0%,0%,0%);fill-opacity:1;" d="M 6.5625 14.21875 C 6.519531 14.21875 6.472656 14.214844 6.429688 14.203125 C 6.136719 14.128906 5.957031 13.832031 6.03125 13.539062 L 6.316406 12.410156 C 6.839844 10.308594 7.15625 8.125 7.253906 5.925781 L 7.25 5.742188 C 7.34375 3.738281 8.960938 2.1875 10.9375 2.1875 C 11.902344 2.1875 12.808594 2.554688 13.484375 3.21875 C 14.171875 3.867188 14.574219 4.753906 14.613281 5.71875 L 14.621094 5.921875 C 14.707031 7.800781 14.949219 9.667969 15.34375 11.488281 C 15.40625 11.78125 15.21875 12.074219 14.925781 12.136719 C 14.628906 12.207031 14.339844 12.015625 14.273438 11.71875 C 13.867188 9.839844 13.613281 7.910156 13.527344 5.976562 L 13.519531 5.769531 C 13.492188 5.085938 13.210938 4.464844 12.726562 4.007812 C 12.246094 3.535156 11.613281 3.28125 10.9375 3.28125 C 9.546875 3.28125 8.410156 4.371094 8.34375 5.765625 L 8.34375 5.949219 C 8.242188 8.246094 7.917969 10.503906 7.378906 12.675781 L 7.09375 13.804688 C 7.03125 14.054688 6.808594 14.21875 6.5625 14.21875 Z M 6.5625 14.21875 "/>
<path style=" stroke:none;fill-rule:nonzero;fill:rgb(0%,0%,0%);fill-opacity:1;" d="M 5.597656 15.308594 C 5.496094 15.308594 5.394531 15.285156 5.304688 15.226562 C 5.050781 15.066406 4.972656 14.726562 5.132812 14.472656 C 5.664062 13.628906 6.433594 12.972656 7.351562 12.578125 L 8.414062 12.121094 C 8.617188 12.03125 8.75 11.828125 8.75 11.609375 C 8.75 11.304688 8.996094 11.0625 9.296875 11.0625 C 9.597656 11.0625 9.84375 11.304688 9.84375 11.609375 C 9.84375 12.269531 9.453125 12.863281 8.84375 13.125 L 7.78125 13.582031 C 7.070312 13.886719 6.472656 14.398438 6.058594 15.054688 C 5.957031 15.21875 5.777344 15.308594 5.597656 15.308594 Z M 5.597656 15.308594 "/>
<path style=" stroke:none;fill-rule:nonzero;fill:rgb(0%,0%,0%);fill-opacity:1;" d="M 10.9375 10.9375 C 10.222656 10.9375 9.539062 10.710938 8.964844 10.277344 C 8.722656 10.097656 8.675781 9.753906 8.855469 9.515625 C 9.039062 9.273438 9.382812 9.222656 9.621094 9.40625 C 10.003906 9.691406 10.460938 9.84375 10.9375 9.84375 C 12.144531 9.84375 13.125 8.863281 13.125 7.65625 L 13.125 6.945312 C 11.960938 6.988281 10.894531 6.609375 10.046875 5.929688 C 9.8125 5.738281 9.777344 5.394531 9.964844 5.160156 C 10.152344 4.921875 10.5 4.886719 10.734375 5.074219 C 11.113281 5.382812 11.914062 5.882812 13.125 5.882812 L 13.128906 5.882812 C 13.429688 5.882812 13.707031 5.996094 13.914062 6.199219 C 14.109375 6.398438 14.21875 6.660156 14.21875 6.945312 L 14.21875 7.65625 C 14.21875 9.464844 12.746094 10.9375 10.9375 10.9375 Z M 10.9375 10.9375 "/>
<path style=" stroke:none;fill-rule:nonzero;fill:rgb(0%,0%,0%);fill-opacity:1;" d="M 23.152344 23.347656 C 23.007812 23.347656 22.863281 23.292969 22.757812 23.179688 C 22.519531 22.933594 22.242188 22.734375 21.929688 22.589844 L 20.914062 22.121094 C 20.320312 21.832031 19.960938 21.261719 19.960938 20.628906 L 19.960938 19.90625 C 19.960938 19.605469 20.207031 19.359375 20.507812 19.359375 C 20.808594 19.359375 21.054688 19.605469 21.054688 19.90625 L 21.054688 20.628906 C 21.054688 20.839844 21.179688 21.03125 21.382812 21.132812 L 22.390625 21.597656 C 22.824219 21.800781 23.214844 22.078125 23.546875 22.425781 C 23.753906 22.644531 23.75 22.988281 23.53125 23.199219 C 23.421875 23.300781 23.285156 23.347656 23.152344 23.347656 Z M 23.152344 23.347656 "/>
<path style=" stroke:none;fill-rule:nonzero;fill:rgb(0%,0%,0%);fill-opacity:1;" d="M 14.253906 25.140625 C 14.226562 25.140625 14.199219 25.140625 14.175781 25.136719 C 13.875 25.09375 13.667969 24.816406 13.710938 24.515625 C 13.898438 23.234375 14.714844 22.140625 15.890625 21.597656 L 16.910156 21.125 C 17.101562 21.03125 17.226562 20.839844 17.226562 20.628906 L 17.226562 19.90625 C 17.226562 19.605469 17.472656 19.359375 17.773438 19.359375 C 18.074219 19.359375 18.320312 19.605469 18.320312 19.90625 L 18.320312 20.628906 C 18.320312 21.261719 17.960938 21.832031 17.378906 22.113281 L 16.351562 22.589844 C 15.511719 22.980469 14.925781 23.757812 14.796875 24.675781 C 14.753906 24.949219 14.519531 25.140625 14.253906 25.140625 Z M 14.253906 25.140625 "/>
<path style=" stroke:none;fill-rule:nonzero;fill:rgb(0%,0%,0%);fill-opacity:1;" d="M 19.414062 20.765625 C 19.144531 20.765625 18.910156 20.5625 18.875 20.285156 C 18.835938 19.984375 19.046875 19.710938 19.347656 19.671875 C 20.164062 19.570312 20.78125 18.871094 20.78125 18.046875 L 20.78125 16.953125 C 20.78125 16.511719 20.609375 16.105469 20.300781 15.800781 C 19.988281 15.484375 19.582031 15.3125 19.140625 15.3125 C 18.234375 15.3125 17.5 16.046875 17.5 16.953125 L 17.5 18.046875 C 17.5 18.488281 17.671875 18.894531 17.980469 19.199219 C 18.03125 19.253906 18.082031 19.296875 18.132812 19.335938 C 18.363281 19.527344 18.398438 19.871094 18.207031 20.105469 C 18.015625 20.339844 17.671875 20.375 17.4375 20.183594 C 17.355469 20.113281 17.28125 20.046875 17.207031 19.972656 C 16.695312 19.472656 16.40625 18.785156 16.40625 18.046875 L 16.40625 16.953125 C 16.40625 15.445312 17.632812 14.21875 19.140625 14.21875 C 19.878906 14.21875 20.566406 14.507812 21.074219 15.027344 C 21.585938 15.527344 21.875 16.214844 21.875 16.953125 L 21.875 18.046875 C 21.875 19.421875 20.847656 20.585938 19.484375 20.757812 C 19.460938 20.761719 19.4375 20.765625 19.414062 20.765625 Z M 19.414062 20.765625 "/>
<path style=" stroke:none;fill-rule:nonzero;fill:rgb(0%,0%,0%);fill-opacity:1;" d="M 15.878906 14.769531 C 15.726562 14.769531 15.574219 14.703125 15.464844 14.582031 C 15.085938 14.144531 14.625 13.808594 14.097656 13.578125 L 13.019531 13.113281 C 12.417969 12.855469 12.03125 12.265625 12.03125 11.613281 L 12.03125 9.84375 C 12.03125 9.542969 12.277344 9.296875 12.578125 9.296875 C 12.878906 9.296875 13.125 9.542969 13.125 9.84375 L 13.125 11.613281 C 13.125 11.828125 13.253906 12.023438 13.449219 12.109375 L 14.53125 12.574219 C 15.210938 12.871094 15.804688 13.304688 16.289062 13.863281 C 16.488281 14.089844 16.464844 14.4375 16.238281 14.632812 C 16.132812 14.726562 16.007812 14.769531 15.878906 14.769531 Z M 15.878906 14.769531 "/>
<path style=" stroke:none;fill-rule:nonzero;fill:rgb(0%,0%,0%);fill-opacity:1;" d="M 9.296875 33.90625 C 8.996094 33.90625 8.75 33.660156 8.75 33.359375 L 8.75 32.488281 L 5.0625 29.601562 C 4.601562 29.234375 3.984375 28.511719 3.742188 27.9375 L 1.136719 21.886719 C 1.109375 21.816406 1.09375 21.746094 1.09375 21.671875 L 1.09375 16.398438 C 1.09375 15.71875 1.863281 15.21875 2.609375 15.125 C 3.535156 15.003906 4.691406 15.511719 5.128906 17.257812 C 5.355469 18.164062 5.40625 18.929688 5.453125 19.605469 C 5.472656 19.90625 5.246094 20.191406 4.941406 20.210938 C 4.640625 20.203125 4.382812 20.023438 4.363281 19.722656 C 4.316406 19.046875 4.269531 18.332031 4.070312 17.519531 C 3.929688 16.96875 3.636719 16.296875 3.003906 16.210938 C 2.585938 16.152344 2.230469 16.378906 2.171875 16.480469 L 2.1875 21.558594 L 4.746094 27.511719 C 4.90625 27.890625 5.402344 28.472656 5.742188 28.742188 L 9.636719 31.792969 C 9.765625 31.898438 9.84375 32.058594 9.84375 32.222656 L 9.84375 33.359375 C 9.84375 33.660156 9.597656 33.90625 9.296875 33.90625 Z M 9.296875 33.90625 "/>
<path style=" stroke:none;fill-rule:nonzero;fill:rgb(0%,0%,0%);fill-opacity:1;" d="M 15.859375 33.90625 C 15.558594 33.90625 15.3125 33.660156 15.3125 33.359375 L 15.3125 30.664062 C 15.3125 28.359375 13.722656 26.351562 11.441406 25.777344 C 11.148438 25.707031 10.972656 25.40625 11.042969 25.113281 C 11.117188 24.820312 11.414062 24.648438 11.707031 24.71875 C 14.472656 25.414062 16.40625 27.859375 16.40625 30.664062 L 16.40625 33.359375 C 16.40625 33.660156 16.160156 33.90625 15.859375 33.90625 Z M 15.859375 33.90625 "/>
<path style=" stroke:none;fill-rule:nonzero;fill:rgb(0%,0%,0%);fill-opacity:1;" d="M 9.582031 27.800781 C 9.445312 27.800781 9.304688 27.746094 9.195312 27.640625 L 4.398438 22.847656 C 4.296875 22.746094 4.238281 22.609375 4.238281 22.460938 C 4.238281 22.316406 4.296875 22.179688 4.398438 22.074219 C 4.589844 21.882812 5.171875 21.300781 6.074219 21.105469 C 6.855469 20.933594 8.082031 21.023438 9.484375 22.425781 L 11.949219 24.886719 C 12.164062 25.097656 12.164062 25.445312 11.949219 25.660156 C 11.734375 25.871094 11.390625 25.871094 11.175781 25.660156 L 8.710938 23.199219 C 7.589844 22.078125 6.539062 21.839844 5.589844 22.492188 L 9.96875 26.863281 C 10.183594 27.078125 10.183594 27.425781 9.96875 27.636719 C 9.863281 27.746094 9.722656 27.800781 9.582031 27.800781 Z M 9.582031 27.800781 "/>
<path style=" stroke:none;fill-rule:nonzero;fill:rgb(0%,0%,0%);fill-opacity:1;" d="M 25.703125 33.90625 C 25.402344 33.90625 25.15625 33.660156 25.15625 33.359375 L 25.15625 32.222656 C 25.15625 32.058594 25.234375 31.898438 25.363281 31.792969 L 29.261719 28.738281 C 29.597656 28.472656 30.09375 27.890625 30.25 27.515625 L 32.8125 21.558594 L 32.8125 16.398438 C 32.769531 16.378906 32.410156 16.15625 31.996094 16.210938 C 31.367188 16.296875 31.070312 16.96875 30.929688 17.519531 C 30.730469 18.332031 30.683594 19.046875 30.640625 19.675781 L 30.09375 19.6875 L 29.546875 19.652344 C 29.59375 18.929688 29.644531 18.164062 29.871094 17.257812 C 30.308594 15.511719 31.464844 15.007812 32.390625 15.128906 C 33.136719 15.21875 33.90625 15.71875 33.90625 16.398438 L 33.90625 21.671875 C 33.90625 21.746094 33.890625 21.816406 33.863281 21.886719 L 31.257812 27.941406 C 31.015625 28.511719 30.398438 29.234375 29.941406 29.597656 L 26.25 32.488281 L 26.25 33.359375 C 26.25 33.660156 26.003906 33.90625 25.703125 33.90625 Z M 25.703125 33.90625 "/>
<path style=" stroke:none;fill-rule:nonzero;fill:rgb(0%,0%,0%);fill-opacity:1;" d="M 19.140625 33.90625 C 18.839844 33.90625 18.59375 33.660156 18.59375 33.359375 L 18.59375 30.664062 C 18.59375 27.859375 20.527344 25.414062 23.292969 24.71875 C 23.585938 24.648438 23.882812 24.824219 23.957031 25.113281 C 24.027344 25.40625 23.851562 25.707031 23.558594 25.777344 C 21.277344 26.351562 19.6875 28.359375 19.6875 30.664062 L 19.6875 33.359375 C 19.6875 33.660156 19.441406 33.90625 19.140625 33.90625 Z M 19.140625 33.90625 "/>
<path style=" stroke:none;fill-rule:nonzero;fill:rgb(0%,0%,0%);fill-opacity:1;" d="M 25.417969 27.800781 C 25.277344 27.800781 25.136719 27.746094 25.03125 27.640625 C 24.816406 27.425781 24.816406 27.078125 25.03125 26.867188 L 29.40625 22.496094 C 28.460938 21.84375 27.410156 22.078125 26.289062 23.199219 L 23.820312 25.660156 C 23.609375 25.875 23.261719 25.875 23.046875 25.660156 C 22.835938 25.445312 22.835938 25.101562 23.046875 24.886719 L 25.515625 22.425781 C 26.914062 21.027344 28.144531 20.9375 28.925781 21.105469 C 29.828125 21.304688 30.410156 21.886719 30.601562 22.078125 C 30.703125 22.179688 30.757812 22.320312 30.757812 22.464844 C 30.757812 22.609375 30.703125 22.75 30.601562 22.851562 L 25.800781 27.640625 C 25.695312 27.746094 25.554688 27.800781 25.417969 27.800781 Z M 25.417969 27.800781 "/>
<path style=" stroke:none;fill-rule:nonzero;fill:rgb(0%,0%,0%);fill-opacity:1;" d="M 25.417969 27.800781 C 25.277344 27.800781 25.136719 27.746094 25.03125 27.640625 C 24.816406 27.425781 24.816406 27.078125 25.03125 26.867188 L 29.40625 22.496094 C 28.460938 21.84375 27.410156 22.078125 26.289062 23.199219 L 23.820312 25.660156 C 23.609375 25.875 23.261719 25.875 23.046875 25.660156 C 22.835938 25.445312 22.835938 25.101562 23.046875 24.886719 L 25.515625 22.425781 C 26.914062 21.027344 28.144531 20.9375 28.925781 21.105469 C 29.828125 21.304688 30.410156 21.886719 30.601562 22.078125 C 30.703125 22.179688 30.757812 22.320312 30.757812 22.464844 C 30.757812 22.609375 30.703125 22.75 30.601562 22.851562 L 25.800781 27.640625 C 25.695312 27.746094 25.554688 27.800781 25.417969 27.800781 Z M 25.417969 27.800781 "/>
</g>
</svg>
