<?xml version="1.0" encoding="UTF-8"?>
<svg xmlns="http://www.w3.org/2000/svg" xmlns:xlink="http://www.w3.org/1999/xlink" width="40px" height="40px" viewBox="0 0 40 40" version="1.1">
<g id="surface1">
<path style=" stroke:none;fill-rule:nonzero;fill:rgb(0%,0%,0%);fill-opacity:1;" d="M 35 7.1875 C 35 3.996094 32.480469 1.375 29.289062 1.253906 C 26.101562 1.132812 23.386719 3.554688 23.144531 6.734375 L 20.316406 5.085938 C 20.121094 4.972656 19.878906 4.972656 19.683594 5.085938 L 4.683594 13.835938 C 4.492188 13.945312 4.375 14.152344 4.375 14.375 L 4.375 38.125 C 4.375 38.46875 4.65625 38.75 5 38.75 L 35 38.75 C 35.34375 38.75 35.625 38.46875 35.625 38.125 L 35.625 14.375 C 35.625 14.152344 35.507812 13.945312 35.316406 13.835938 L 32.367188 12.117188 C 34.011719 11.015625 35 9.167969 35 7.1875 Z M 10.625 37.5 L 10.625 31.875 C 10.625 31.53125 10.34375 31.25 10 31.25 C 9.65625 31.25 9.375 31.53125 9.375 31.875 L 9.375 37.5 L 8.125 37.5 L 8.125 25.625 C 8.125 25.121094 8.425781 24.667969 8.890625 24.472656 C 9.902344 25.152344 11.21875 25.175781 12.257812 24.539062 C 12.4375 24.621094 12.601562 24.738281 12.746094 24.878906 L 14.910156 27.042969 L 14.679688 27.730469 L 12.875 26.375 C 12.6875 26.234375 12.433594 26.210938 12.21875 26.316406 C 12.007812 26.421875 11.875 26.636719 11.875 26.875 L 11.875 37.5 Z M 10.625 23.75 C 9.589844 23.75 8.75 22.910156 8.75 21.875 C 8.75 20.839844 9.589844 20 10.625 20 C 11.660156 20 12.5 20.839844 12.5 21.875 C 12.5 22.910156 11.660156 23.75 10.625 23.75 Z M 16.875 37.5 L 13.125 37.5 L 13.125 28.125 L 14.589844 29.222656 L 16.875 31.507812 Z M 20.625 37.5 L 20.625 34.375 C 20.625 34.03125 20.34375 33.75 20 33.75 C 19.65625 33.75 19.375 34.03125 19.375 34.375 L 19.375 37.5 L 18.125 37.5 L 18.125 31.25 C 18.125 31.085938 18.058594 30.925781 17.941406 30.808594 L 15.714844 28.582031 L 15.972656 27.8125 L 17.355469 28.644531 C 18.984375 29.621094 21.015625 29.621094 22.644531 28.644531 L 24.027344 27.8125 L 24.285156 28.582031 L 22.058594 30.808594 C 21.941406 30.925781 21.875 31.085938 21.875 31.25 L 21.875 37.5 Z M 18.125 26.25 C 18.125 25.214844 18.964844 24.375 20 24.375 C 21.035156 24.375 21.875 25.214844 21.875 26.25 C 21.875 27.285156 21.035156 28.125 20 28.125 C 18.964844 28.125 18.125 27.285156 18.125 26.25 Z M 29.375 23.75 C 28.339844 23.75 27.5 22.910156 27.5 21.875 C 27.5 20.839844 28.339844 20 29.375 20 C 30.410156 20 31.25 20.839844 31.25 21.875 C 31.25 22.910156 30.410156 23.75 29.375 23.75 Z M 27.253906 24.878906 C 27.398438 24.738281 27.5625 24.621094 27.742188 24.539062 C 28.78125 25.175781 30.097656 25.152344 31.109375 24.472656 C 31.574219 24.667969 31.875 25.121094 31.875 25.625 C 31.875 25.640625 31.875 25.65625 31.875 25.667969 L 32.453125 33.75 L 27.554688 33.75 L 28.121094 26.925781 C 28.144531 26.683594 28.019531 26.445312 27.800781 26.328125 C 27.585938 26.210938 27.320312 26.226562 27.125 26.375 L 25.320312 27.730469 L 25.089844 27.042969 Z M 26.875 37.5 L 23.125 37.5 L 23.125 31.507812 L 25.410156 29.222656 L 26.761719 28.210938 L 26.253906 34.324219 C 26.238281 34.496094 26.296875 34.667969 26.414062 34.796875 C 26.535156 34.925781 26.699219 35 26.875 35 Z M 28.125 35 L 29.375 35 L 29.375 37.5 L 28.125 37.5 Z M 30.625 37.5 L 30.625 35 L 31.875 35 L 31.875 37.5 Z M 34.375 14.734375 L 34.375 37.5 L 33.125 37.5 L 33.125 35 C 33.296875 35 33.464844 34.929688 33.582031 34.800781 C 33.699219 34.675781 33.761719 34.503906 33.75 34.332031 L 33.125 25.601562 C 33.117188 24.773438 32.699219 24.007812 32.011719 23.546875 C 32.851562 22.226562 32.585938 20.488281 31.386719 19.480469 C 30.191406 18.472656 28.4375 18.507812 27.277344 19.554688 C 26.117188 20.605469 25.914062 22.351562 26.796875 23.640625 C 26.644531 23.746094 26.503906 23.863281 26.371094 23.992188 L 23.988281 26.378906 L 23.046875 26.941406 C 23.332031 25.691406 22.824219 24.390625 21.761719 23.664062 C 20.699219 22.941406 19.300781 22.941406 18.238281 23.664062 C 17.179688 24.390625 16.667969 25.691406 16.953125 26.941406 L 16.011719 26.378906 L 13.628906 23.996094 C 13.496094 23.863281 13.355469 23.746094 13.203125 23.640625 C 14.085938 22.351562 13.882812 20.605469 12.722656 19.554688 C 11.566406 18.507812 9.808594 18.472656 8.613281 19.480469 C 7.414062 20.488281 7.148438 22.226562 7.988281 23.546875 C 7.292969 24.011719 6.875 24.789062 6.875 25.625 L 6.875 37.5 L 5.625 37.5 L 5.625 14.734375 L 20 6.347656 L 23.21875 8.226562 C 23.476562 9.671875 24.261719 10.972656 25.425781 11.875 L 23.125 11.875 C 22.78125 11.875 22.5 12.15625 22.5 12.5 C 22.5 12.84375 22.78125 13.125 23.125 13.125 L 28.75 13.125 C 28.777344 13.125 28.804688 13.121094 28.832031 13.117188 C 28.90625 13.121094 28.984375 13.125 29.0625 13.125 C 29.734375 13.125 30.402344 13.011719 31.035156 12.785156 Z M 29.0625 11.875 C 26.472656 11.875 24.375 9.777344 24.375 7.1875 C 24.375 4.597656 26.472656 2.5 29.0625 2.5 C 31.652344 2.5 33.75 4.597656 33.75 7.1875 C 33.746094 9.773438 31.648438 11.871094 29.0625 11.875 Z M 29.0625 11.875 "/>
<path style=" stroke:none;fill-rule:nonzero;fill:rgb(0%,0%,0%);fill-opacity:1;" d="M 29.0625 3.75 C 27.164062 3.75 25.625 5.289062 25.625 7.1875 C 25.625 9.085938 27.164062 10.625 29.0625 10.625 C 30.960938 10.625 32.5 9.085938 32.5 7.1875 C 32.496094 5.289062 30.960938 3.753906 29.0625 3.75 Z M 29.0625 9.375 C 27.855469 9.375 26.875 8.394531 26.875 7.1875 C 26.875 5.980469 27.855469 5 29.0625 5 C 30.269531 5 31.25 5.980469 31.25 7.1875 C 31.25 8.394531 30.269531 9.375 29.0625 9.375 Z M 29.0625 9.375 "/>
<path style=" stroke:none;fill-rule:nonzero;fill:rgb(0%,0%,0%);fill-opacity:1;" d="M 21.796875 15.625 C 21.28125 15.625 20.785156 15.828125 20.421875 16.195312 L 20 16.617188 L 19.578125 16.195312 C 19.167969 15.78125 18.59375 15.578125 18.011719 15.632812 C 17.433594 15.691406 16.910156 16.003906 16.589844 16.488281 C 15.921875 17.488281 16.117188 18.828125 17.039062 19.597656 L 19.601562 21.730469 C 19.832031 21.921875 20.167969 21.921875 20.398438 21.730469 L 22.960938 19.597656 C 23.882812 18.828125 24.078125 17.488281 23.410156 16.488281 C 23.050781 15.949219 22.445312 15.625 21.796875 15.625 Z M 22.160156 18.636719 L 20 20.4375 L 17.839844 18.636719 C 17.40625 18.277344 17.316406 17.648438 17.628906 17.183594 C 17.742188 17.011719 17.929688 16.898438 18.136719 16.878906 C 18.34375 16.859375 18.546875 16.929688 18.695312 17.078125 L 19.558594 17.941406 C 19.800781 18.1875 20.199219 18.1875 20.441406 17.941406 L 21.304688 17.078125 C 21.453125 16.929688 21.65625 16.859375 21.863281 16.878906 C 22.070312 16.898438 22.253906 17.011719 22.371094 17.183594 C 22.683594 17.648438 22.59375 18.277344 22.160156 18.636719 Z M 22.160156 18.636719 "/>
</g>
</svg>
