<?xml version="1.0" encoding="UTF-8"?>
<svg xmlns="http://www.w3.org/2000/svg" xmlns:xlink="http://www.w3.org/1999/xlink" width="70px" height="70px" viewBox="0 0 70 70" version="1.1">
<g id="surface1">
<path style="fill:none;stroke-width:20;stroke-linecap:round;stroke-linejoin:round;stroke:rgb(0%,0%,0%);stroke-opacity:1;stroke-miterlimit:22.9256;" d="M 170.800672 412.058764 C 170.800672 396.372988 158.086336 383.658652 142.40056 383.658652 C 126.714784 383.658652 114.000448 396.372988 114.000448 412.058764 C 114.000448 427.74454 126.714784 440.458876 142.40056 440.458876 C 158.086336 440.458876 170.800672 427.74454 170.800672 412.058764 Z M 170.800672 412.058764 " transform="matrix(0.136718,0,0,0.136718,0,0)"/>
<path style="fill:none;stroke-width:20;stroke-linecap:round;stroke-linejoin:round;stroke:rgb(0%,0%,0%);stroke-opacity:1;stroke-miterlimit:22.9256;" d="M 85.600337 502.001975 C 85.600337 470.630423 111.029008 445.201751 142.40056 445.201751 C 173.772112 445.201751 199.200784 470.630423 199.200784 502.001975 C 199.200784 470.630423 224.629455 445.201751 256.001007 445.201751 C 287.372559 445.201751 312.801231 470.630423 312.801231 502.001975 C 312.801231 470.630423 338.229902 445.201751 369.601454 445.201751 C 400.973006 445.201751 426.401677 470.630423 426.401677 502.001975 " transform="matrix(0.136718,0,0,0.136718,0,0)"/>
<path style="fill:none;stroke-width:20;stroke-linecap:round;stroke-linejoin:round;stroke:rgb(0%,0%,0%);stroke-opacity:1;stroke-miterlimit:22.9256;" d="M 284.401119 412.058764 C 284.401119 396.372988 271.686783 383.658652 256.001007 383.658652 C 240.315231 383.658652 227.600895 396.372988 227.600895 412.058764 C 227.600895 427.74454 240.315231 440.458876 256.001007 440.458876 C 271.686783 440.458876 284.401119 427.74454 284.401119 412.058764 Z M 284.401119 412.058764 " transform="matrix(0.136718,0,0,0.136718,0,0)"/>
<path style="fill:none;stroke-width:20;stroke-linecap:round;stroke-linejoin:round;stroke:rgb(0%,0%,0%);stroke-opacity:1;stroke-miterlimit:22.9256;" d="M 398.010985 412.077536 C 398.012025 396.389215 385.294791 383.662281 369.60647 383.661241 C 353.918149 383.660201 341.191215 396.377435 341.190175 412.065756 C 341.189135 427.754077 353.906369 440.481011 369.59469 440.482051 C 385.283011 440.483091 398.009945 427.765857 398.010985 412.077536 Z M 398.010985 412.077536 " transform="matrix(0.0219023,-0.134955,0.134955,0.0219023,-13.172827,97.191871)"/>
<path style="fill:none;stroke-width:20;stroke-linecap:round;stroke-linejoin:round;stroke:rgb(0%,0%,0%);stroke-opacity:1;stroke-miterlimit:22.9256;" d="M 227.612462 293.725347 C 227.611159 278.048599 214.895475 265.324405 199.190293 265.328522 C 183.513544 265.329825 170.78935 278.04551 170.793467 293.750692 C 170.79477 309.427441 183.50764 322.123201 199.215637 322.147517 C 214.892386 322.146214 227.588146 309.433344 227.612462 293.725347 Z M 227.612462 293.725347 " transform="matrix(0.0134667,-0.136048,0.136048,0.0134667,-15.41275,63.303732)"/>
<path style="fill:none;stroke-width:20;stroke-linecap:round;stroke-linejoin:round;stroke:rgb(0%,0%,0%);stroke-opacity:1;stroke-miterlimit:22.9256;" d="M 142.40056 382.68722 C 142.943419 351.687098 168.229233 326.858429 199.200784 326.858429 C 230.172334 326.858429 255.458148 351.687098 256.001007 382.68722 C 256.543866 351.687098 281.82968 326.858429 312.801231 326.858429 C 343.772781 326.858429 369.058595 351.687098 369.601454 382.68722 " transform="matrix(0.136718,0,0,0.136718,0,0)"/>
<path style="fill:none;stroke-width:20;stroke-linecap:round;stroke-linejoin:round;stroke:rgb(0%,0%,0%);stroke-opacity:1;stroke-miterlimit:22.9256;" d="M 341.189302 293.721902 C 341.211887 278.06636 328.484954 265.349126 312.801209 265.321964 C 297.112888 265.323004 284.395654 278.049938 284.396694 293.738259 C 284.397734 309.42658 297.124668 322.143814 312.812989 322.142774 C 328.473108 322.137157 341.190342 309.410223 341.189302 293.721902 Z M 341.189302 293.721902 " transform="matrix(0.134955,-0.0219023,0.0219023,0.134955,-5.880565,7.368866)"/>
<path style="fill:none;stroke-width:20;stroke-linecap:round;stroke-linejoin:round;stroke:rgb(0%,0%,0%);stroke-opacity:1;stroke-miterlimit:22.9256;" d="M 93.428939 186.143589 L 73.714576 197.515063 " transform="matrix(0.136718,0,0,0.136718,0,0)"/>
<path style="fill:none;stroke-width:20;stroke-linecap:round;stroke-linejoin:round;stroke:rgb(0%,0%,0%);stroke-opacity:1;stroke-miterlimit:22.9256;" d="M 123.257628 225.000885 L 107.17185 241.086663 " transform="matrix(0.136718,0,0,0.136718,0,0)"/>
<path style="fill:none;stroke-width:20;stroke-linecap:round;stroke-linejoin:round;stroke:rgb(0%,0%,0%);stroke-opacity:1;stroke-miterlimit:22.9256;" d="M 418.573075 186.143589 L 438.287438 197.515063 " transform="matrix(0.136718,0,0,0.136718,0,0)"/>
<path style="fill:none;stroke-width:20;stroke-linecap:round;stroke-linejoin:round;stroke:rgb(0%,0%,0%);stroke-opacity:1;stroke-miterlimit:22.9256;" d="M 388.744386 225.000885 L 404.830164 241.086663 " transform="matrix(0.136718,0,0,0.136718,0,0)"/>
<path style="fill:none;stroke-width:20;stroke-linecap:round;stroke-linejoin:round;stroke:rgb(0%,0%,0%);stroke-opacity:1;stroke-miterlimit:22.9256;" d="M 357.463946 125.001559 C 357.463946 68.957536 312.046872 23.540462 256.002849 23.540462 C 199.958826 23.540462 154.541751 68.957536 154.541751 125.001559 C 154.541751 181.045582 199.958826 226.462657 256.002849 226.462657 C 312.046872 226.462657 357.463946 181.045582 357.463946 125.001559 Z M 357.463946 125.001559 " transform="matrix(0.0966734,-0.0966734,0.0966734,0.0966734,-1.833008,29.75419)"/>
<path style="fill:none;stroke-width:20;stroke-linecap:round;stroke-linejoin:round;stroke:rgb(0%,0%,0%);stroke-opacity:1;stroke-miterlimit:22.9256;" d="M 316.888998 124.988564 C 316.895851 91.376006 289.621976 64.121296 256.009418 64.114442 C 222.359531 64.123051 195.115754 91.37053 195.135297 124.994022 C 195.117509 158.632975 222.364989 185.876752 256.003942 185.894539 C 289.627433 185.874997 316.87121 158.627517 316.888998 124.988564 Z M 316.888998 124.988564 " transform="matrix(0.126314,-0.0523221,0.0523221,0.126314,-3.875756,14.694829)"/>
<path style="fill:none;stroke-width:20;stroke-linecap:round;stroke-linejoin:round;stroke:rgb(0%,0%,0%);stroke-opacity:1;stroke-miterlimit:22.9256;" d="M 276.284704 125.002067 C 276.286064 113.806679 267.197516 104.706589 256.002129 104.705229 C 244.806742 104.703869 235.706651 113.792417 235.705291 124.987804 C 235.714865 136.209587 244.792479 145.283282 255.987866 145.284642 C 267.220583 145.301464 276.283344 136.197454 276.284704 125.002067 Z M 276.284704 125.002067 " transform="matrix(0.0523221,-0.126314,0.126314,0.0523221,5.81721,42.885593)"/>
<path style="fill:none;stroke-width:20;stroke-linecap:round;stroke-linejoin:round;stroke:rgb(0%,0%,0%);stroke-opacity:1;stroke-miterlimit:22.9256;" d="M 256.001007 10.000039 L 256.001007 60.743096 " transform="matrix(0.136718,0,0,0.136718,0,0)"/>
<path style="fill:none;stroke-width:20;stroke-linecap:round;stroke-linejoin:round;stroke:rgb(0%,0%,0%);stroke-opacity:1;stroke-miterlimit:22.9256;" d="M 141.000555 125.000492 L 191.743611 125.000492 " transform="matrix(0.136718,0,0,0.136718,0,0)"/>
<path style="fill:none;stroke-width:20;stroke-linecap:round;stroke-linejoin:round;stroke:rgb(0%,0%,0%);stroke-opacity:1;stroke-miterlimit:22.9256;" d="M 256.001007 240.000944 L 256.001007 189.257887 " transform="matrix(0.136718,0,0,0.136718,0,0)"/>
<path style="fill:none;stroke-width:20;stroke-linecap:round;stroke-linejoin:round;stroke:rgb(0%,0%,0%);stroke-opacity:1;stroke-miterlimit:22.9256;" d="M 371.001459 125.000492 L 320.258403 125.000492 " transform="matrix(0.136718,0,0,0.136718,0,0)"/>
</g>
</svg>
