<?xml version="1.0" encoding="UTF-8"?>
<svg xmlns="http://www.w3.org/2000/svg" xmlns:xlink="http://www.w3.org/1999/xlink" width="35px" height="35px" viewBox="0 0 35 35" version="1.1">
<g id="surface1">
<path style=" stroke:none;fill-rule:nonzero;fill:rgb(0%,0%,0%);fill-opacity:1;" d="M 28.84375 2.148438 L 21.691406 2.148438 C 21.449219 0.925781 20.371094 0 19.078125 0 L 15.921875 0 C 14.628906 0 13.550781 0.925781 13.308594 2.148438 L 6.15625 2.148438 C 5.253906 2.148438 4.523438 2.882812 4.523438 3.78125 L 4.523438 7.023438 C 4.523438 7.304688 4.753906 7.535156 5.035156 7.535156 C 5.320312 7.535156 5.546875 7.304688 5.546875 7.023438 L 5.546875 3.78125 C 5.546875 3.445312 5.820312 3.175781 6.15625 3.175781 L 11.558594 3.175781 L 11.558594 4.683594 L 8.324219 4.683594 C 7.695312 4.683594 7.183594 5.195312 7.183594 5.828125 L 7.183594 31.324219 C 7.183594 31.953125 7.695312 32.464844 8.324219 32.464844 L 26.675781 32.464844 C 27.304688 32.464844 27.816406 31.953125 27.816406 31.324219 L 27.816406 28.445312 C 27.816406 28.160156 27.589844 27.933594 27.304688 27.933594 C 27.023438 27.933594 26.792969 28.160156 26.792969 28.445312 L 26.792969 31.324219 C 26.792969 31.386719 26.738281 31.441406 26.675781 31.441406 L 8.324219 31.441406 C 8.261719 31.441406 8.207031 31.386719 8.207031 31.324219 L 8.207031 5.828125 C 8.207031 5.761719 8.261719 5.710938 8.324219 5.710938 L 11.5625 5.710938 C 11.578125 6.300781 12.0625 6.773438 12.65625 6.773438 L 22.347656 6.773438 C 22.9375 6.773438 23.421875 6.300781 23.4375 5.710938 L 26.675781 5.710938 C 26.738281 5.710938 26.792969 5.761719 26.792969 5.828125 L 26.792969 25.984375 C 26.792969 26.265625 27.023438 26.496094 27.304688 26.496094 C 27.589844 26.496094 27.816406 26.265625 27.816406 25.984375 L 27.816406 5.828125 C 27.816406 5.195312 27.304688 4.683594 26.675781 4.683594 L 23.441406 4.683594 L 23.441406 3.175781 L 28.84375 3.175781 C 29.179688 3.175781 29.453125 3.445312 29.453125 3.78125 L 29.453125 33.367188 C 29.453125 33.703125 29.179688 33.976562 28.84375 33.976562 L 6.15625 33.976562 C 5.820312 33.976562 5.546875 33.703125 5.546875 33.367188 L 5.546875 9.550781 C 5.546875 9.269531 5.320312 9.039062 5.035156 9.039062 C 4.753906 9.039062 4.523438 9.269531 4.523438 9.550781 L 4.523438 33.367188 C 4.523438 34.269531 5.253906 35 6.15625 35 L 28.84375 35 C 29.746094 35 30.476562 34.269531 30.476562 33.367188 L 30.476562 3.78125 C 30.476562 2.882812 29.746094 2.148438 28.84375 2.148438 Z M 22.414062 5.679688 C 22.414062 5.71875 22.382812 5.75 22.34375 5.75 L 12.65625 5.75 C 12.617188 5.75 12.585938 5.71875 12.585938 5.679688 L 12.585938 3.175781 L 13.773438 3.175781 C 14.058594 3.175781 14.285156 2.945312 14.285156 2.660156 C 14.285156 1.757812 15.019531 1.027344 15.921875 1.027344 L 19.078125 1.027344 C 19.980469 1.027344 20.714844 1.757812 20.714844 2.660156 C 20.714844 2.945312 20.941406 3.175781 21.226562 3.175781 L 22.414062 3.175781 Z M 22.414062 5.679688 "/>
<path style=" stroke:none;fill-rule:nonzero;fill:rgb(0%,0%,0%);fill-opacity:1;" d="M 15.207031 8.179688 C 15.019531 7.964844 14.695312 7.941406 14.484375 8.128906 L 14.160156 8.410156 C 13.960938 8.164062 13.660156 8.003906 13.316406 8.003906 L 10.972656 8.003906 C 10.378906 8.003906 9.898438 8.484375 9.898438 9.078125 L 9.898438 11.421875 C 9.898438 12.015625 10.378906 12.5 10.972656 12.5 L 13.316406 12.5 C 13.910156 12.5 14.394531 12.015625 14.394531 11.421875 L 14.394531 9.570312 L 15.15625 8.902344 C 15.371094 8.714844 15.390625 8.390625 15.207031 8.179688 Z M 13.367188 11.421875 C 13.367188 11.449219 13.34375 11.472656 13.316406 11.472656 L 10.972656 11.472656 C 10.945312 11.472656 10.921875 11.449219 10.921875 11.421875 L 10.921875 9.078125 C 10.921875 9.050781 10.945312 9.027344 10.972656 9.027344 L 13.316406 9.027344 C 13.34375 9.027344 13.367188 9.050781 13.367188 9.078125 L 13.367188 9.101562 L 12.503906 9.855469 L 12.335938 9.652344 C 12.152344 9.433594 11.828125 9.40625 11.613281 9.585938 C 11.394531 9.769531 11.363281 10.089844 11.546875 10.308594 L 12.050781 10.917969 C 12.140625 11.023438 12.265625 11.089844 12.40625 11.101562 C 12.417969 11.101562 12.429688 11.101562 12.445312 11.101562 C 12.570312 11.101562 12.6875 11.058594 12.78125 10.976562 L 13.367188 10.464844 Z M 13.367188 11.421875 "/>
<path style=" stroke:none;fill-rule:nonzero;fill:rgb(0%,0%,0%);fill-opacity:1;" d="M 24.589844 8.726562 L 17.097656 8.726562 C 16.8125 8.726562 16.582031 8.957031 16.582031 9.238281 C 16.582031 9.523438 16.8125 9.75 17.097656 9.75 L 24.589844 9.75 C 24.871094 9.75 25.101562 9.523438 25.101562 9.238281 C 25.101562 8.957031 24.871094 8.726562 24.589844 8.726562 Z M 24.589844 8.726562 "/>
<path style=" stroke:none;fill-rule:nonzero;fill:rgb(0%,0%,0%);fill-opacity:1;" d="M 17.097656 11.824219 L 21.191406 11.824219 C 21.476562 11.824219 21.707031 11.59375 21.707031 11.3125 C 21.707031 11.027344 21.476562 10.800781 21.191406 10.800781 L 17.097656 10.800781 C 16.8125 10.800781 16.582031 11.027344 16.582031 11.3125 C 16.582031 11.59375 16.8125 11.824219 17.097656 11.824219 Z M 17.097656 11.824219 "/>
<path style=" stroke:none;fill-rule:nonzero;fill:rgb(0%,0%,0%);fill-opacity:1;" d="M 15.207031 14 C 15.019531 13.789062 14.695312 13.765625 14.484375 13.953125 L 14.160156 14.234375 C 13.960938 13.984375 13.660156 13.824219 13.316406 13.824219 L 10.972656 13.824219 C 10.378906 13.824219 9.898438 14.308594 9.898438 14.902344 L 9.898438 17.246094 C 9.898438 17.839844 10.378906 18.320312 10.972656 18.320312 L 13.316406 18.320312 C 13.910156 18.320312 14.394531 17.839844 14.394531 17.246094 L 14.394531 15.390625 L 15.15625 14.726562 C 15.371094 14.539062 15.390625 14.214844 15.207031 14 Z M 13.367188 17.246094 C 13.367188 17.273438 13.34375 17.296875 13.316406 17.296875 L 10.972656 17.296875 C 10.945312 17.296875 10.921875 17.273438 10.921875 17.246094 L 10.921875 14.902344 C 10.921875 14.875 10.945312 14.851562 10.972656 14.851562 L 13.316406 14.851562 C 13.34375 14.851562 13.367188 14.875 13.367188 14.902344 L 13.367188 14.925781 L 12.503906 15.679688 L 12.335938 15.476562 C 12.152344 15.257812 11.828125 15.226562 11.613281 15.410156 C 11.394531 15.589844 11.363281 15.914062 11.546875 16.132812 L 12.050781 16.738281 C 12.140625 16.84375 12.265625 16.910156 12.40625 16.921875 C 12.417969 16.921875 12.429688 16.925781 12.445312 16.925781 C 12.570312 16.925781 12.6875 16.878906 12.78125 16.796875 L 13.367188 16.285156 Z M 13.367188 17.246094 "/>
<path style=" stroke:none;fill-rule:nonzero;fill:rgb(0%,0%,0%);fill-opacity:1;" d="M 24.589844 14.546875 L 17.097656 14.546875 C 16.8125 14.546875 16.582031 14.777344 16.582031 15.0625 C 16.582031 15.34375 16.8125 15.574219 17.097656 15.574219 L 24.589844 15.574219 C 24.871094 15.574219 25.101562 15.34375 25.101562 15.0625 C 25.101562 14.777344 24.871094 14.546875 24.589844 14.546875 Z M 24.589844 14.546875 "/>
<path style=" stroke:none;fill-rule:nonzero;fill:rgb(0%,0%,0%);fill-opacity:1;" d="M 17.097656 17.648438 L 21.191406 17.648438 C 21.476562 17.648438 21.707031 17.417969 21.707031 17.132812 C 21.707031 16.851562 21.476562 16.621094 21.191406 16.621094 L 17.097656 16.621094 C 16.8125 16.621094 16.582031 16.851562 16.582031 17.132812 C 16.582031 17.417969 16.8125 17.648438 17.097656 17.648438 Z M 17.097656 17.648438 "/>
<path style=" stroke:none;fill-rule:nonzero;fill:rgb(0%,0%,0%);fill-opacity:1;" d="M 15.207031 19.824219 C 15.019531 19.609375 14.695312 19.589844 14.484375 19.773438 L 14.160156 20.058594 C 13.960938 19.808594 13.660156 19.648438 13.316406 19.648438 L 10.972656 19.648438 C 10.378906 19.648438 9.898438 20.132812 9.898438 20.722656 L 9.898438 23.066406 C 9.898438 23.660156 10.378906 24.144531 10.972656 24.144531 L 13.316406 24.144531 C 13.910156 24.144531 14.394531 23.660156 14.394531 23.066406 L 14.394531 21.214844 L 15.15625 20.546875 C 15.371094 20.359375 15.390625 20.039062 15.207031 19.824219 Z M 13.367188 23.066406 C 13.367188 23.097656 13.34375 23.117188 13.316406 23.117188 L 10.972656 23.117188 C 10.945312 23.117188 10.921875 23.097656 10.921875 23.066406 L 10.921875 20.722656 C 10.921875 20.695312 10.945312 20.675781 10.972656 20.675781 L 13.316406 20.675781 C 13.34375 20.675781 13.367188 20.695312 13.367188 20.722656 L 13.367188 20.75 L 12.503906 21.503906 L 12.335938 21.300781 C 12.152344 21.082031 11.828125 21.050781 11.613281 21.230469 C 11.394531 21.414062 11.363281 21.738281 11.546875 21.953125 L 12.050781 22.5625 C 12.140625 22.667969 12.265625 22.734375 12.40625 22.746094 C 12.417969 22.746094 12.429688 22.746094 12.445312 22.746094 C 12.570312 22.746094 12.6875 22.703125 12.78125 22.621094 L 13.367188 22.109375 Z M 13.367188 23.066406 "/>
<path style=" stroke:none;fill-rule:nonzero;fill:rgb(0%,0%,0%);fill-opacity:1;" d="M 24.589844 20.371094 L 17.097656 20.371094 C 16.8125 20.371094 16.582031 20.601562 16.582031 20.882812 C 16.582031 21.167969 16.8125 21.398438 17.097656 21.398438 L 24.589844 21.398438 C 24.871094 21.398438 25.101562 21.167969 25.101562 20.882812 C 25.101562 20.601562 24.871094 20.371094 24.589844 20.371094 Z M 24.589844 20.371094 "/>
<path style=" stroke:none;fill-rule:nonzero;fill:rgb(0%,0%,0%);fill-opacity:1;" d="M 17.097656 23.46875 L 21.191406 23.46875 C 21.476562 23.46875 21.707031 23.242188 21.707031 22.957031 C 21.707031 22.675781 21.476562 22.445312 21.191406 22.445312 L 17.097656 22.445312 C 16.8125 22.445312 16.582031 22.675781 16.582031 22.957031 C 16.582031 23.242188 16.8125 23.46875 17.097656 23.46875 Z M 17.097656 23.46875 "/>
<path style=" stroke:none;fill-rule:nonzero;fill:rgb(0%,0%,0%);fill-opacity:1;" d="M 14.484375 25.597656 L 14.160156 25.878906 C 13.960938 25.632812 13.660156 25.472656 13.316406 25.472656 L 10.972656 25.472656 C 10.378906 25.472656 9.898438 25.953125 9.898438 26.546875 L 9.898438 28.890625 C 9.898438 29.484375 10.378906 29.964844 10.972656 29.964844 L 13.316406 29.964844 C 13.910156 29.964844 14.394531 29.484375 14.394531 28.890625 L 14.394531 27.039062 L 15.15625 26.371094 C 15.371094 26.183594 15.390625 25.859375 15.207031 25.648438 C 15.019531 25.433594 14.695312 25.410156 14.484375 25.597656 Z M 13.367188 28.890625 C 13.367188 28.917969 13.34375 28.941406 13.316406 28.941406 L 10.972656 28.941406 C 10.945312 28.941406 10.921875 28.917969 10.921875 28.890625 L 10.921875 26.546875 C 10.921875 26.519531 10.945312 26.496094 10.972656 26.496094 L 13.316406 26.496094 C 13.34375 26.496094 13.367188 26.519531 13.367188 26.546875 L 13.367188 26.570312 L 12.503906 27.324219 L 12.335938 27.121094 C 12.152344 26.902344 11.828125 26.875 11.613281 27.054688 C 11.394531 27.234375 11.363281 27.558594 11.546875 27.777344 L 12.050781 28.386719 C 12.140625 28.492188 12.265625 28.558594 12.40625 28.566406 C 12.417969 28.570312 12.429688 28.570312 12.445312 28.570312 C 12.570312 28.570312 12.6875 28.523438 12.78125 28.445312 L 13.367188 27.933594 Z M 13.367188 28.890625 "/>
<path style=" stroke:none;fill-rule:nonzero;fill:rgb(0%,0%,0%);fill-opacity:1;" d="M 25.101562 26.707031 C 25.101562 26.421875 24.871094 26.195312 24.589844 26.195312 L 17.097656 26.195312 C 16.8125 26.195312 16.582031 26.421875 16.582031 26.707031 C 16.582031 26.988281 16.8125 27.21875 17.097656 27.21875 L 24.589844 27.21875 C 24.871094 27.21875 25.101562 26.988281 25.101562 26.707031 Z M 25.101562 26.707031 "/>
<path style=" stroke:none;fill-rule:nonzero;fill:rgb(0%,0%,0%);fill-opacity:1;" d="M 17.097656 28.265625 C 16.8125 28.265625 16.582031 28.496094 16.582031 28.78125 C 16.582031 29.0625 16.8125 29.292969 17.097656 29.292969 L 21.191406 29.292969 C 21.476562 29.292969 21.707031 29.0625 21.707031 28.78125 C 21.707031 28.496094 21.476562 28.265625 21.191406 28.265625 Z M 17.097656 28.265625 "/>
</g>
</svg>
