<?xml version="1.0" encoding="UTF-8"?>
<svg xmlns="http://www.w3.org/2000/svg" xmlns:xlink="http://www.w3.org/1999/xlink" width="70px" height="70px" viewBox="0 0 70 70" version="1.1">
<g id="surface1">
<path style=" stroke:none;fill-rule:nonzero;fill:rgb(0%,0%,0%);fill-opacity:1;" d="M 25.039062 22.351562 L 44.960938 22.351562 C 45.269531 22.351562 45.566406 22.21875 45.773438 21.988281 C 45.980469 21.757812 46.082031 21.449219 46.046875 21.140625 C 45.589844 16.875 42.773438 13.402344 38.972656 11.953125 C 40.308594 10.824219 41.160156 9.136719 41.160156 7.253906 C 41.160156 3.855469 38.394531 1.09375 35 1.09375 C 31.605469 1.09375 28.839844 3.855469 28.839844 7.253906 C 28.839844 9.136719 29.691406 10.824219 31.027344 11.953125 C 27.226562 13.402344 24.410156 16.875 23.953125 21.140625 C 23.917969 21.449219 24.019531 21.757812 24.226562 21.988281 C 24.433594 22.21875 24.730469 22.351562 25.039062 22.351562 Z M 35 3.28125 C 37.191406 3.28125 38.972656 5.0625 38.972656 7.253906 C 38.972656 9.441406 37.191406 11.222656 35 11.222656 C 32.808594 11.222656 31.027344 9.441406 31.027344 7.253906 C 31.027344 5.0625 32.808594 3.28125 35 3.28125 Z M 35 13.410156 C 39.15625 13.410156 42.6875 16.238281 43.660156 20.164062 L 26.339844 20.164062 C 27.3125 16.238281 30.84375 13.410156 35 13.410156 Z M 17.09375 14.109375 L 14.511719 14.691406 C 13.925781 14.824219 13.339844 14.457031 13.207031 13.867188 C 13.070312 13.277344 13.441406 12.691406 14.03125 12.558594 L 20.523438 11.085938 C 20.878906 11.007812 21.253906 11.109375 21.515625 11.359375 C 21.78125 11.609375 21.90625 11.972656 21.847656 12.332031 L 20.863281 18.277344 C 20.773438 18.8125 20.308594 19.191406 19.785156 19.191406 C 19.726562 19.191406 19.664062 19.1875 19.605469 19.179688 C 19.007812 19.078125 18.605469 18.515625 18.703125 17.921875 L 19.167969 15.113281 C 12.160156 22.195312 8.542969 32.160156 9.449219 42.117188 C 9.503906 42.71875 9.058594 43.25 8.457031 43.304688 C 8.421875 43.308594 8.390625 43.308594 8.355469 43.308594 C 7.796875 43.308594 7.320312 42.882812 7.269531 42.316406 C 6.328125 31.964844 9.976562 21.605469 17.09375 14.109375 Z M 47.894531 10.359375 C 48.28125 9.894531 48.972656 9.832031 49.4375 10.21875 C 57.417969 16.871094 62.164062 26.777344 62.433594 37.113281 L 63.847656 34.875 C 64.167969 34.363281 64.84375 34.210938 65.355469 34.53125 C 65.867188 34.855469 66.019531 35.53125 65.695312 36.039062 L 62.144531 41.671875 C 61.949219 41.980469 61.613281 42.171875 61.25 42.183594 C 61.242188 42.183594 61.230469 42.183594 61.21875 42.183594 C 60.867188 42.183594 60.535156 42.011719 60.328125 41.726562 L 56.820312 36.828125 C 56.46875 36.335938 56.582031 35.652344 57.074219 35.300781 C 57.566406 34.949219 58.25 35.0625 58.601562 35.554688 L 60.257812 37.867188 C 60.207031 27.90625 55.714844 18.300781 48.035156 11.898438 C 47.570312 11.511719 47.507812 10.824219 47.894531 10.359375 Z M 34.0625 61.648438 C 31.21875 61.648438 28.375 61.3125 25.589844 60.640625 L 27.382812 62.582031 C 27.792969 63.027344 27.769531 63.71875 27.324219 64.128906 C 27.113281 64.320312 26.847656 64.417969 26.582031 64.417969 C 26.289062 64.417969 25.996094 64.300781 25.777344 64.066406 L 21.257812 59.179688 C 21.011719 58.910156 20.914062 58.539062 20.996094 58.183594 C 21.082031 57.828125 21.335938 57.539062 21.675781 57.410156 L 27.316406 55.292969 C 27.882812 55.078125 28.511719 55.363281 28.722656 55.929688 C 28.9375 56.496094 28.652344 57.125 28.085938 57.339844 L 25.417969 58.339844 C 32.730469 60.265625 40.507812 59.699219 47.507812 56.695312 C 48.0625 56.457031 48.707031 56.714844 48.945312 57.269531 C 49.183594 57.828125 48.925781 58.46875 48.371094 58.707031 C 43.8125 60.660156 38.9375 61.648438 34.0625 61.648438 Z M 27.808594 29.222656 C 27.808594 28.617188 28.300781 28.128906 28.902344 28.128906 L 34.808594 28.128906 C 35.414062 28.128906 35.902344 28.617188 35.902344 29.222656 C 35.902344 29.824219 35.414062 30.316406 34.808594 30.316406 L 28.902344 30.316406 C 28.300781 30.316406 27.808594 29.824219 27.808594 29.222656 Z M 22.320312 29.222656 C 22.320312 28.617188 22.808594 28.128906 23.414062 28.128906 L 25.164062 28.128906 C 25.765625 28.128906 26.257812 28.617188 26.257812 29.222656 C 26.257812 29.824219 25.765625 30.316406 25.164062 30.316406 L 23.414062 30.316406 C 22.808594 30.316406 22.320312 29.824219 22.320312 29.222656 Z M 32.625 49.328125 L 42.363281 49.328125 L 46.453125 53.585938 C 46.664062 53.804688 46.953125 53.921875 47.242188 53.921875 C 47.378906 53.921875 47.519531 53.898438 47.652344 53.84375 C 48.066406 53.675781 48.335938 53.277344 48.335938 52.828125 L 48.335938 49.328125 L 49.152344 49.328125 C 51 49.328125 52.503906 47.824219 52.503906 45.976562 L 52.503906 34.667969 C 52.503906 32.820312 51 31.316406 49.152344 31.316406 L 40.726562 31.316406 L 40.726562 27.628906 C 40.726562 25.785156 39.222656 24.28125 37.375 24.28125 L 20.847656 24.28125 C 19 24.28125 17.496094 25.785156 17.496094 27.628906 L 17.496094 38.941406 C 17.496094 40.789062 19 42.289062 20.847656 42.289062 L 21.664062 42.289062 L 21.664062 45.792969 C 21.664062 46.238281 21.933594 46.640625 22.347656 46.808594 C 22.480469 46.863281 22.621094 46.886719 22.757812 46.886719 C 23.046875 46.886719 23.335938 46.769531 23.546875 46.550781 L 27.636719 42.289062 L 29.273438 42.289062 L 29.273438 45.976562 C 29.273438 47.824219 30.777344 49.328125 32.625 49.328125 Z M 49.152344 33.503906 C 49.792969 33.503906 50.316406 34.023438 50.316406 34.667969 L 50.316406 45.976562 C 50.316406 46.617188 49.792969 47.140625 49.152344 47.140625 L 47.242188 47.140625 C 46.640625 47.140625 46.148438 47.628906 46.148438 48.234375 L 46.148438 50.113281 L 43.617188 47.476562 C 43.410156 47.261719 43.125 47.140625 42.828125 47.140625 L 32.625 47.140625 C 31.984375 47.140625 31.460938 46.617188 31.460938 45.976562 L 31.460938 34.667969 C 31.460938 34.023438 31.984375 33.503906 32.625 33.503906 Z M 27.171875 40.101562 C 26.875 40.101562 26.589844 40.222656 26.382812 40.4375 L 23.851562 43.074219 L 23.851562 41.195312 C 23.851562 40.59375 23.359375 40.101562 22.757812 40.101562 L 20.847656 40.101562 C 20.207031 40.101562 19.683594 39.582031 19.683594 38.941406 L 19.683594 27.628906 C 19.683594 26.988281 20.207031 26.46875 20.847656 26.46875 L 37.375 26.46875 C 38.015625 26.46875 38.539062 26.988281 38.539062 27.628906 L 38.539062 31.316406 L 32.625 31.316406 C 31.757812 31.316406 30.964844 31.648438 30.371094 32.191406 L 23.414062 32.191406 C 22.808594 32.191406 22.320312 32.679688 22.320312 33.285156 C 22.320312 33.890625 22.808594 34.378906 23.414062 34.378906 L 29.289062 34.378906 C 29.28125 34.472656 29.273438 34.570312 29.273438 34.667969 L 29.273438 36.257812 L 23.414062 36.257812 C 22.808594 36.257812 22.320312 36.746094 22.320312 37.351562 C 22.320312 37.953125 22.808594 38.445312 23.414062 38.445312 L 29.273438 38.445312 L 29.273438 40.101562 Z M 39.855469 36.257812 C 39.855469 35.652344 40.347656 35.164062 40.949219 35.164062 L 46.585938 35.164062 C 47.191406 35.164062 47.679688 35.652344 47.679688 36.257812 C 47.679688 36.859375 47.191406 37.351562 46.585938 37.351562 L 40.949219 37.351562 C 40.347656 37.351562 39.855469 36.859375 39.855469 36.257812 Z M 34.097656 40.320312 C 34.097656 39.71875 34.585938 39.226562 35.191406 39.226562 L 46.585938 39.226562 C 47.191406 39.226562 47.679688 39.71875 47.679688 40.320312 C 47.679688 40.925781 47.191406 41.414062 46.585938 41.414062 L 35.191406 41.414062 C 34.585938 41.414062 34.097656 40.925781 34.097656 40.320312 Z M 34.097656 44.386719 C 34.097656 43.78125 34.585938 43.292969 35.191406 43.292969 L 46.585938 43.292969 C 47.191406 43.292969 47.679688 43.78125 47.679688 44.386719 C 47.679688 44.988281 47.191406 45.480469 46.585938 45.480469 L 35.191406 45.480469 C 34.585938 45.480469 34.097656 44.988281 34.097656 44.386719 Z M 34.097656 36.257812 C 34.097656 35.652344 34.585938 35.164062 35.191406 35.164062 L 37.210938 35.164062 C 37.8125 35.164062 38.304688 35.652344 38.304688 36.257812 C 38.304688 36.859375 37.8125 37.351562 37.210938 37.351562 L 35.191406 37.351562 C 34.585938 37.351562 34.097656 36.859375 34.097656 36.257812 Z M 16.121094 58.507812 C 17.457031 57.378906 18.308594 55.691406 18.308594 53.808594 C 18.308594 50.410156 15.542969 47.648438 12.148438 47.648438 C 8.75 47.648438 5.988281 50.410156 5.988281 53.808594 C 5.988281 55.691406 6.839844 57.378906 8.175781 58.507812 C 4.375 59.957031 1.554688 63.429688 1.101562 67.695312 C 1.066406 68.003906 1.167969 68.3125 1.375 68.542969 C 1.582031 68.773438 1.878906 68.90625 2.1875 68.90625 L 22.109375 68.90625 C 22.417969 68.90625 22.714844 68.773438 22.921875 68.542969 C 23.128906 68.3125 23.226562 68.003906 23.195312 67.695312 C 22.738281 63.429688 19.921875 59.957031 16.121094 58.507812 Z M 12.148438 49.835938 C 14.335938 49.835938 16.121094 51.617188 16.121094 53.808594 C 16.121094 55.996094 14.339844 57.777344 12.152344 57.777344 C 12.148438 57.777344 12.148438 57.777344 12.148438 57.777344 C 12.148438 57.777344 12.144531 57.777344 12.144531 57.777344 C 9.957031 57.777344 8.175781 55.996094 8.175781 53.808594 C 8.175781 51.617188 9.957031 49.835938 12.148438 49.835938 Z M 3.488281 66.71875 C 4.460938 62.796875 7.988281 59.96875 12.144531 59.964844 L 12.152344 59.964844 C 16.304688 59.96875 19.835938 62.796875 20.808594 66.71875 Z M 68.898438 67.695312 C 68.441406 63.429688 65.625 59.957031 61.824219 58.507812 C 63.160156 57.378906 64.011719 55.691406 64.011719 53.808594 C 64.011719 50.410156 61.25 47.648438 57.851562 47.648438 C 54.457031 47.648438 51.691406 50.410156 51.691406 53.808594 C 51.691406 55.691406 52.542969 57.378906 53.878906 58.507812 C 50.078125 59.957031 47.261719 63.429688 46.804688 67.695312 C 46.769531 68.003906 46.871094 68.3125 47.078125 68.542969 C 47.285156 68.773438 47.582031 68.90625 47.890625 68.90625 L 67.8125 68.90625 C 68.121094 68.90625 68.417969 68.773438 68.625 68.542969 C 68.832031 68.3125 68.933594 68.003906 68.898438 67.695312 Z M 57.851562 49.835938 C 60.042969 49.835938 61.824219 51.617188 61.824219 53.808594 C 61.824219 55.996094 60.042969 57.777344 57.855469 57.777344 C 57.855469 57.777344 57.851562 57.777344 57.851562 57.777344 C 57.851562 57.777344 57.851562 57.777344 57.847656 57.777344 C 55.660156 57.777344 53.878906 55.996094 53.878906 53.808594 C 53.882812 51.617188 55.664062 49.835938 57.851562 49.835938 Z M 49.191406 66.71875 C 50.164062 62.796875 53.695312 59.96875 57.847656 59.964844 L 57.851562 59.964844 C 57.851562 59.964844 57.855469 59.964844 57.855469 59.964844 C 62.011719 59.96875 65.539062 62.796875 66.511719 66.71875 Z M 49.191406 66.71875 "/>
</g>
</svg>
