<?xml version="1.0" encoding="UTF-8"?>
<svg xmlns="http://www.w3.org/2000/svg" xmlns:xlink="http://www.w3.org/1999/xlink" width="70px" height="70px" viewBox="0 0 70 70" version="1.1">
<g id="surface1">
<path style=" stroke:none;fill-rule:nonzero;fill:rgb(0%,0%,0%);fill-opacity:1;" d="M 39.839844 36.542969 C 39.21875 36.542969 38.808594 36.957031 38.808594 37.574219 C 38.808594 38.191406 39.21875 38.601562 39.839844 38.601562 L 46.941406 38.601562 C 47.558594 38.601562 47.96875 38.191406 47.96875 37.574219 C 47.96875 36.957031 47.558594 36.542969 46.941406 36.542969 Z M 39.839844 36.542969 "/>
<path style=" stroke:none;fill-rule:nonzero;fill:rgb(0%,0%,0%);fill-opacity:1;" d="M 28.410156 27.589844 C 22.851562 27.898438 18.324219 32.53125 18.324219 38.191406 L 18.324219 40.660156 C 18.324219 41.28125 18.734375 41.691406 19.351562 41.691406 C 19.96875 41.691406 20.382812 41.28125 20.382812 40.660156 L 20.382812 38.191406 C 20.382812 33.765625 23.882812 29.957031 28.308594 29.648438 L 34.382812 35.71875 L 34.382812 40.558594 C 34.382812 41.175781 34.792969 41.589844 35.410156 41.589844 C 36.03125 41.589844 36.441406 41.175781 36.441406 40.558594 L 36.441406 35.71875 L 42.515625 29.648438 C 46.941406 29.957031 50.441406 33.765625 50.441406 38.191406 L 50.441406 40.660156 C 50.441406 41.28125 50.851562 41.691406 51.46875 41.691406 C 52.089844 41.691406 52.5 41.28125 52.5 40.660156 L 52.5 38.191406 C 52.5 32.53125 47.96875 27.898438 42.410156 27.589844 C 40.96875 26.765625 40.042969 25.734375 39.425781 24.5 C 41.898438 23.058594 43.441406 20.382812 43.441406 17.292969 L 43.441406 15.957031 C 44.984375 13.28125 45.601562 11.015625 46.015625 9.160156 C 47.042969 4.21875 39.53125 -0.617188 36.234375 4.53125 C 33.042969 3.910156 30.058594 4.324219 27.898438 5.765625 C 26.558594 6.589844 25.734375 7.71875 25.425781 8.957031 C 24.707031 12.660156 26.042969 15.132812 26.558594 16.058594 L 26.558594 17.398438 C 26.558594 20.589844 28.410156 23.367188 31.089844 24.808594 C 30.574219 25.941406 29.648438 26.867188 28.410156 27.589844 Z M 27.691406 13.589844 C 27.382812 12.660156 27.175781 11.21875 27.484375 9.46875 C 27.792969 7.824219 31.191406 5.558594 36.542969 6.792969 C 37.058594 6.898438 37.574219 6.691406 37.78125 6.175781 C 37.78125 6.175781 37.882812 5.867188 38.089844 5.558594 C 40.042969 2.675781 44.574219 6.175781 43.957031 8.75 C 43.648438 10.191406 43.234375 11.839844 42.308594 13.792969 L 41.074219 11.941406 C 40.660156 11.425781 40.042969 11.117188 39.425781 11.117188 L 30.265625 11.117188 C 29.542969 11.117188 28.824219 11.53125 28.515625 12.148438 Z M 28.71875 17.398438 L 28.71875 15.957031 L 30.265625 13.074219 L 39.324219 13.074219 L 41.382812 16.058594 L 41.382812 17.398438 C 41.382812 20.898438 38.5 23.78125 35.101562 23.78125 C 31.707031 23.78125 28.71875 21 28.71875 17.398438 Z M 33.148438 25.53125 C 34.691406 25.941406 36.132812 25.839844 37.574219 25.425781 C 38.191406 26.765625 39.117188 27.792969 40.457031 28.824219 L 35.410156 33.867188 L 30.265625 28.824219 C 31.601562 27.898438 32.53125 26.765625 33.148438 25.53125 Z M 33.148438 25.53125 "/>
<path style=" stroke:none;fill-rule:nonzero;fill:rgb(0%,0%,0%);fill-opacity:1;" d="M 66.398438 45.601562 C 65.78125 44.46875 64.648438 43.851562 63.515625 43.542969 C 62.382812 43.339844 61.25 43.542969 60.324219 44.160156 C 59.5 44.574219 57.648438 46.53125 53.53125 48.382812 C 53.015625 48.589844 52.808594 49.207031 53.015625 49.71875 C 53.21875 50.132812 53.53125 50.339844 53.941406 50.339844 C 54.867188 50.339844 59.707031 47.351562 61.457031 45.808594 C 61.867188 45.5 62.484375 45.398438 63 45.5 C 63.207031 45.601562 63 45.5 64.339844 46.21875 C 64.851562 46.734375 64.851562 47.351562 64.542969 47.96875 C 64.441406 48.175781 60.21875 52.191406 60.117188 52.292969 C 55.175781 57.132812 49.617188 62.691406 45.707031 63.410156 C 37.46875 64.648438 38.910156 64.75 31.191406 61.765625 C 25.941406 59.707031 19.867188 59.191406 14.824219 61.96875 C 14.308594 62.28125 14.101562 62.898438 14.410156 63.410156 C 14.71875 63.925781 15.339844 64.132812 15.851562 63.824219 C 20.175781 61.457031 25.632812 61.96875 30.160156 63.617188 C 35.71875 66.089844 37.46875 67.324219 46.324219 65.46875 C 50.542969 64.542969 55.382812 59.808594 61.558594 53.839844 C 64.957031 50.441406 65.265625 50.234375 65.78125 49.824219 C 66.910156 48.792969 67.21875 46.941406 66.398438 45.601562 Z M 66.398438 45.601562 "/>
<path style=" stroke:none;fill-rule:nonzero;fill:rgb(0%,0%,0%);fill-opacity:1;" d="M 4.21875 61.867188 C 3.601562 61.867188 3.191406 62.28125 3.191406 62.898438 L 3.191406 66.601562 C 3.191406 67.21875 3.601562 67.632812 4.21875 67.632812 L 11.53125 67.632812 C 12.148438 67.632812 12.558594 67.21875 12.558594 66.601562 C 12.558594 65.160156 12.558594 71.75 12.558594 52.808594 C 12.660156 52.808594 12.765625 52.707031 12.867188 52.707031 C 17.808594 49.308594 16.160156 47.042969 21.308594 46.21875 C 29.132812 44.882812 34.074219 49.71875 44.46875 52.191406 C 47.25 52.808594 48.792969 52.910156 49.410156 53.015625 C 51.265625 53.425781 51.882812 55.589844 50.851562 56.308594 C 48.898438 56.925781 44.265625 55.28125 44.367188 55.28125 C 40.042969 54.148438 34.589844 53.941406 30.46875 56 C 29.957031 56.207031 29.75 56.824219 30.058594 57.339844 C 30.265625 57.851562 30.882812 58.058594 31.398438 57.75 C 35.617188 55.691406 41.074219 56.515625 44.058594 57.234375 C 45.910156 57.648438 50.851562 59.910156 52.707031 57.339844 C 54.351562 54.96875 52.808594 51.675781 49.925781 51.058594 C 49.925781 51.058594 46.941406 50.75 44.984375 50.234375 C 34.074219 47.558594 29.542969 42.71875 20.691406 44.160156 C 15.441406 45.089844 15.542969 48.074219 12.558594 50.339844 L 12.558594 48.382812 C 12.558594 47.765625 12.148438 47.351562 11.53125 47.351562 L 4.21875 47.351562 C 3.601562 47.351562 3.191406 47.765625 3.191406 48.382812 L 3.191406 57.957031 C 3.191406 58.574219 3.601562 58.984375 4.21875 58.984375 C 4.839844 58.984375 5.25 58.574219 5.25 57.957031 L 5.25 49.410156 L 10.5 49.410156 C 10.5 49.824219 10.5 66.292969 10.5 65.574219 L 5.25 65.574219 L 5.25 62.898438 C 5.25 62.28125 4.734375 61.867188 4.21875 61.867188 Z M 4.21875 61.867188 "/>
</g>
</svg>
