<?xml version="1.0" encoding="UTF-8"?>
<svg xmlns="http://www.w3.org/2000/svg" xmlns:xlink="http://www.w3.org/1999/xlink" width="70px" height="70px" viewBox="0 0 70 70" version="1.1">
<g id="surface1">
<path style=" stroke:none;fill-rule:nonzero;fill:rgb(0%,0%,0%);fill-opacity:1;" d="M 15.992188 12.914062 C 16.558594 12.914062 17.019531 12.457031 17.019531 11.890625 C 17.019531 11.324219 16.558594 10.863281 15.992188 10.863281 C 15.425781 10.863281 14.96875 11.324219 14.96875 11.890625 C 14.96875 12.457031 15.425781 12.914062 15.992188 12.914062 Z M 7.789062 12.914062 C 8.355469 12.914062 8.816406 12.457031 8.816406 11.890625 C 8.816406 11.324219 8.355469 10.863281 7.789062 10.863281 C 7.222656 10.863281 6.765625 11.324219 6.765625 11.890625 C 6.765625 12.457031 7.222656 12.914062 7.789062 12.914062 Z M 11.890625 12.914062 C 12.457031 12.914062 12.917969 12.457031 12.917969 11.890625 C 12.917969 11.324219 12.457031 10.863281 11.890625 10.863281 C 11.324219 10.863281 10.867188 11.324219 10.867188 11.890625 C 10.867188 12.457031 11.324219 12.914062 11.890625 12.914062 Z M 11.664062 23.777344 C 11.671875 23.777344 11.679688 23.777344 11.683594 23.777344 L 20.957031 23.78125 C 21.597656 23.78125 22.140625 23.367188 22.308594 22.75 C 22.480469 22.128906 22.222656 21.496094 21.671875 21.171875 L 20.261719 20.335938 C 22.527344 18.089844 23.800781 15.023438 23.78125 11.8125 C 23.742188 5.394531 18.484375 0.09375 12.066406 0 C 5.414062 -0.09375 0 5.285156 0 11.890625 C 0 18.222656 5.21875 23.640625 11.664062 23.777344 Z M 4.984375 4.882812 C 6.875 3.019531 9.375 2.015625 12.035156 2.050781 C 17.347656 2.128906 21.695312 6.511719 21.730469 11.828125 C 21.75 14.695312 20.519531 17.421875 18.359375 19.304688 C 17.996094 19.621094 17.808594 20.09375 17.851562 20.574219 C 17.894531 21.050781 18.167969 21.480469 18.578125 21.722656 L 18.589844 21.730469 L 11.695312 21.726562 C 6.367188 21.625 2.050781 17.234375 2.050781 11.890625 C 2.050781 9.234375 3.09375 6.746094 4.984375 4.882812 Z M 68.976562 67.949219 L 67.949219 67.949219 L 67.949219 52.679688 C 67.949219 48.679688 65.585938 45.046875 61.914062 43.417969 L 56.511719 41.101562 C 57.824219 40.6875 59.015625 39.949219 59.980469 38.921875 C 61.4375 37.371094 62.273438 35.273438 62.273438 33.15625 C 62.273438 31.214844 61.597656 29.378906 60.3125 27.851562 C 58.703125 25.945312 57.820312 23.519531 57.820312 21.023438 L 57.820312 16.109375 C 57.820312 11.804688 56.144531 7.761719 53.101562 4.71875 C 50.058594 1.675781 46.011719 0 41.707031 0 C 32.824219 0 25.597656 7.226562 25.597656 16.109375 L 25.597656 20.863281 C 25.601562 23.445312 24.585938 25.910156 22.9375 27.898438 C 20.859375 30.398438 20.429688 33.777344 21.8125 36.722656 C 22.835938 38.90625 24.683594 40.472656 26.898438 41.136719 L 21.535156 43.472656 C 17.769531 45.054688 15.335938 48.71875 15.335938 52.800781 L 15.335938 64.875 C 15.335938 65.441406 15.792969 65.898438 16.359375 65.898438 C 16.925781 65.898438 17.386719 65.441406 17.386719 64.875 L 17.386719 52.800781 C 17.386719 49.546875 19.328125 46.625 22.339844 45.355469 L 29.066406 42.429688 L 29.066406 48.601562 L 25.976562 48.601562 C 25.105469 48.601562 24.273438 48.976562 23.6875 49.621094 C 23.105469 50.269531 22.824219 51.136719 22.917969 52.003906 L 24.609375 67.949219 L 1.027344 67.949219 C 0.457031 67.949219 0 68.410156 0 68.972656 C 0 69.539062 0.457031 70 1.027344 70 L 68.976562 70 C 69.542969 70 70 69.539062 70 68.972656 C 70 68.410156 69.542969 67.949219 68.976562 67.949219 Z M 58.742188 29.171875 C 59.710938 30.324219 60.226562 31.703125 60.226562 33.15625 C 60.226562 34.753906 59.589844 36.34375 58.488281 37.515625 C 57.320312 38.757812 55.714844 39.4375 53.96875 39.4375 L 52.628906 39.4375 L 50.875 38.6875 C 49.34375 38.027344 48.292969 36.621094 48.078125 34.996094 C 51.242188 33.292969 53.398438 29.949219 53.398438 26.113281 L 53.398438 18.402344 C 53.699219 18.421875 54 18.433594 54.296875 18.433594 C 54.789062 18.433594 55.28125 18.40625 55.769531 18.351562 L 55.769531 21.023438 C 55.769531 24 56.824219 26.894531 58.742188 29.171875 Z M 41.957031 45.359375 C 38.289062 45.425781 34.648438 44.960938 31.117188 43.980469 L 31.117188 41.539062 L 31.414062 41.410156 C 31.417969 41.410156 31.417969 41.410156 31.421875 41.40625 L 33.25 40.613281 C 35.285156 39.726562 36.726562 37.914062 37.160156 35.792969 C 38.054688 36.054688 38.996094 36.195312 39.972656 36.195312 L 43.3125 36.195312 C 44.292969 36.195312 45.238281 36.054688 46.136719 35.792969 C 46.585938 37.902344 48.03125 39.699219 50.066406 40.570312 L 52.019531 41.410156 C 52.019531 41.410156 52.023438 41.410156 52.023438 41.410156 L 52.167969 41.472656 L 52.167969 43.78125 C 48.847656 44.769531 45.417969 45.300781 41.957031 45.359375 Z M 52.167969 45.914062 L 52.167969 48.605469 L 31.117188 48.605469 L 31.117188 46.105469 C 34.441406 46.976562 37.855469 47.417969 41.289062 47.417969 C 41.523438 47.417969 41.757812 47.414062 41.992188 47.410156 C 45.4375 47.351562 48.855469 46.847656 52.167969 45.914062 Z M 55.769531 16.285156 C 52.945312 16.664062 49.761719 15.910156 47.566406 14.210938 C 47.121094 13.863281 46.476562 13.945312 46.128906 14.390625 C 45.78125 14.839844 45.863281 15.484375 46.3125 15.832031 C 47.746094 16.941406 49.476562 17.722656 51.347656 18.117188 L 51.347656 23.699219 C 50.855469 24.824219 50.304688 25.757812 49.070312 26.777344 C 48.550781 27.207031 47.980469 27.5625 47.367188 27.847656 C 46.871094 26.875 45.859375 26.207031 44.691406 26.207031 L 42.289062 26.207031 C 40.632812 26.207031 39.285156 27.554688 39.285156 29.214844 C 39.285156 30.871094 40.632812 32.21875 42.289062 32.21875 L 44.691406 32.21875 C 46.085938 32.21875 47.261719 31.261719 47.601562 29.972656 C 48.972656 29.449219 51.210938 27.585938 51.210938 27.585938 C 50.515625 31.3125 47.238281 34.144531 43.3125 34.144531 L 39.972656 34.144531 C 35.542969 34.144531 31.9375 30.542969 31.9375 26.113281 L 31.9375 18.183594 C 35.421875 17.640625 38.710938 16.460938 41.730469 14.675781 C 46.324219 11.957031 49.269531 8.40625 51.046875 5.601562 C 54.089844 8.3125 55.824219 12.199219 55.769531 16.285156 Z M 45.648438 29.214844 C 45.644531 29.742188 45.21875 30.167969 44.691406 30.167969 L 42.289062 30.167969 C 41.761719 30.167969 41.335938 29.738281 41.335938 29.214844 C 41.335938 28.6875 41.761719 28.257812 42.289062 28.257812 L 44.691406 28.257812 C 45.21875 28.257812 45.644531 28.683594 45.648438 29.210938 Z M 27.648438 16.109375 C 27.648438 8.359375 33.957031 2.050781 41.707031 2.050781 C 44.488281 2.050781 47.144531 2.851562 49.414062 4.347656 C 47.777344 6.972656 45.023438 10.34375 40.683594 12.910156 C 37.707031 14.671875 34.441406 15.796875 30.980469 16.253906 L 30.914062 16.253906 C 30.914062 16.253906 30.914062 16.253906 30.910156 16.253906 L 27.648438 16.253906 Z M 23.667969 35.847656 C 22.628906 33.632812 22.953125 31.089844 24.511719 29.207031 C 26.472656 26.847656 27.652344 23.933594 27.648438 20.863281 L 27.648438 18.304688 L 29.886719 18.304688 L 29.886719 26.113281 C 29.886719 29.953125 32.046875 33.296875 35.214844 35 C 35.015625 36.632812 33.96875 38.0625 32.433594 38.730469 L 30.804688 39.4375 L 29.316406 39.4375 C 26.871094 39.4375 24.707031 38.0625 23.667969 35.847656 Z M 59.363281 51.789062 L 57.648438 67.949219 L 26.667969 67.949219 L 24.957031 51.789062 C 24.925781 51.496094 25.015625 51.214844 25.214844 50.992188 C 25.410156 50.773438 25.683594 50.65625 25.976562 50.65625 L 58.34375 50.65625 C 58.636719 50.65625 58.90625 50.773438 59.105469 50.992188 C 59.300781 51.214844 59.394531 51.496094 59.363281 51.789062 Z M 65.898438 67.949219 L 59.710938 67.949219 L 61.402344 52.003906 C 61.492188 51.136719 61.210938 50.269531 60.628906 49.621094 C 60.046875 48.976562 59.214844 48.605469 58.34375 48.605469 L 54.21875 48.605469 L 54.21875 42.351562 L 61.09375 45.296875 C 64.011719 46.59375 65.898438 49.488281 65.898438 52.679688 Z M 42.160156 55.40625 C 40.011719 55.40625 38.261719 57.152344 38.261719 59.300781 C 38.261719 61.449219 40.011719 63.199219 42.160156 63.199219 C 44.308594 63.199219 46.054688 61.449219 46.054688 59.300781 C 46.054688 57.152344 44.308594 55.40625 42.160156 55.40625 Z M 42.160156 61.148438 C 41.140625 61.148438 40.3125 60.320312 40.3125 59.300781 C 40.3125 58.285156 41.140625 57.457031 42.160156 57.457031 C 43.175781 57.457031 44.003906 58.285156 44.003906 59.300781 C 44.003906 60.320312 43.175781 61.148438 42.160156 61.148438 Z M 42.160156 61.148438 "/>
</g>
</svg>
