<?xml version="1.0" encoding="UTF-8"?>
<svg xmlns="http://www.w3.org/2000/svg" xmlns:xlink="http://www.w3.org/1999/xlink" width="40px" height="40px" viewBox="0 0 40 40" version="1.1">
<g id="surface1">
<path style=" stroke:none;fill-rule:nonzero;fill:rgb(0%,0%,0%);fill-opacity:1;" d="M 19.925781 20.347656 L 16.085938 19.1875 L 15.671875 18.351562 C 15.539062 18.089844 15.242188 17.96875 14.972656 18.054688 L 14.972656 17.910156 C 16.5625 16.761719 17.640625 14.949219 17.792969 12.882812 C 18.539062 12.671875 19.125 12.066406 19.246094 11.3125 C 19.324219 10.835938 19.222656 10.367188 18.992188 9.980469 C 19.730469 9.589844 20.238281 8.816406 20.238281 7.921875 C 20.238281 7.113281 19.808594 6.375 19.144531 5.960938 C 19.179688 5.808594 19.199219 5.652344 19.199219 5.496094 C 19.199219 4.410156 18.3125 3.523438 17.226562 3.523438 C 16.964844 3.523438 16.714844 3.574219 16.488281 3.667969 C 15.359375 2.640625 13.914062 2.078125 12.375 2.078125 L 9.601562 2.078125 C 8.066406 2.078125 6.613281 2.640625 5.484375 3.667969 C 5.257812 3.574219 5.007812 3.523438 4.746094 3.523438 C 3.660156 3.523438 2.773438 4.410156 2.773438 5.496094 C 2.773438 5.652344 2.792969 5.808594 2.828125 5.960938 C 2.164062 6.375 1.734375 7.113281 1.734375 7.921875 C 1.734375 8.816406 2.238281 9.589844 2.980469 9.976562 C 2.75 10.367188 2.648438 10.835938 2.726562 11.3125 C 2.847656 12.066406 3.433594 12.671875 4.179688 12.882812 C 4.332031 14.945312 5.40625 16.753906 6.992188 17.902344 L 6.992188 18.050781 C 6.726562 17.972656 6.429688 18.09375 6.300781 18.351562 L 5.886719 19.183594 L 1.898438 20.378906 C 0.761719 20.722656 0 21.746094 0 22.933594 L 0 37.332031 C 0 37.65625 0.261719 37.917969 0.585938 37.917969 C 0.910156 37.917969 1.171875 37.65625 1.171875 37.332031 L 1.171875 22.933594 C 1.171875 22.890625 1.171875 22.847656 1.175781 22.804688 L 3.519531 25.148438 C 3.933594 25.5625 4.160156 26.109375 4.160156 26.695312 L 4.160156 37.332031 C 4.160156 37.65625 4.421875 37.917969 4.746094 37.917969 C 5.070312 37.917969 5.332031 37.65625 5.332031 37.332031 L 5.332031 26.695312 C 5.332031 25.796875 4.984375 24.953125 4.347656 24.320312 L 1.769531 21.738281 C 1.90625 21.636719 2.0625 21.554688 2.238281 21.503906 L 4.875 20.710938 C 5.082031 21.292969 6.617188 25.28125 10.660156 27.976562 C 10.757812 28.042969 10.871094 28.074219 10.984375 28.074219 C 11.097656 28.074219 11.210938 28.042969 11.3125 27.976562 C 15.488281 25.191406 16.980469 21.074219 17.101562 20.71875 L 19.585938 21.46875 C 19.640625 21.488281 19.699219 21.496094 19.753906 21.496094 C 20.007812 21.496094 20.238281 21.332031 20.316406 21.078125 C 20.410156 20.769531 20.234375 20.441406 19.925781 20.347656 Z M 15.148438 19.925781 L 13.167969 22.402344 C 13.140625 22.4375 13.109375 22.441406 13.082031 22.441406 C 13.058594 22.441406 13.023438 22.433594 13 22.398438 L 11.875 20.902344 L 14.882812 19.398438 Z M 10.984375 20.039062 L 8.164062 18.628906 L 8.164062 18.585938 C 9.023438 18.980469 9.980469 19.199219 10.984375 19.199219 C 11.988281 19.199219 12.941406 18.980469 13.800781 18.589844 L 13.800781 18.628906 Z M 17.226562 4.695312 C 17.667969 4.695312 18.027344 5.054688 18.027344 5.496094 C 18.027344 5.652344 17.980469 5.804688 17.894531 5.9375 C 17.789062 6.09375 17.769531 6.289062 17.832031 6.464844 C 17.898438 6.640625 18.046875 6.773438 18.226562 6.824219 C 18.722656 6.960938 19.066406 7.414062 19.066406 7.921875 C 19.066406 8.554688 18.550781 9.070312 17.917969 9.070312 C 17.289062 9.070312 16.773438 8.554688 16.773438 7.921875 C 16.773438 7.640625 16.882812 7.363281 17.078125 7.148438 C 17.207031 7.011719 17.257812 6.820312 17.222656 6.636719 C 17.1875 6.453125 17.0625 6.300781 16.894531 6.222656 C 16.609375 6.089844 16.425781 5.804688 16.425781 5.496094 C 16.425781 5.054688 16.785156 4.695312 17.226562 4.695312 Z M 2.90625 7.921875 C 2.90625 7.414062 3.25 6.960938 3.746094 6.824219 C 3.925781 6.773438 4.074219 6.640625 4.140625 6.464844 C 4.203125 6.289062 4.183594 6.09375 4.078125 5.9375 C 3.992188 5.804688 3.945312 5.652344 3.945312 5.496094 C 3.945312 5.054688 4.304688 4.695312 4.746094 4.695312 C 5.1875 4.695312 5.546875 5.054688 5.546875 5.496094 C 5.546875 5.804688 5.363281 6.089844 5.078125 6.222656 C 4.910156 6.300781 4.785156 6.453125 4.75 6.636719 C 4.714844 6.820312 4.765625 7.011719 4.894531 7.148438 C 5.089844 7.363281 5.199219 7.640625 5.199219 7.921875 C 5.199219 8.554688 4.683594 9.070312 4.050781 9.070312 C 3.421875 9.070312 2.90625 8.554688 2.90625 7.921875 Z M 5.332031 12.371094 C 5.332031 12.050781 5.070312 11.785156 4.746094 11.785156 C 4.316406 11.785156 3.945312 11.503906 3.882812 11.125 C 3.8125 10.695312 4.074219 10.300781 4.496094 10.203125 C 4.515625 10.199219 4.539062 10.191406 4.558594 10.1875 C 5.597656 9.953125 6.371094 9.027344 6.371094 7.921875 C 6.371094 7.566406 6.289062 7.214844 6.128906 6.898438 C 6.5 6.53125 6.71875 6.03125 6.71875 5.496094 C 6.71875 5.101562 6.601562 4.730469 6.398438 4.421875 C 7.292969 3.667969 8.417969 3.25 9.597656 3.25 L 12.371094 3.25 C 13.5625 3.25 14.679688 3.664062 15.574219 4.421875 C 15.371094 4.730469 15.253906 5.101562 15.253906 5.496094 C 15.253906 6.03125 15.472656 6.53125 15.84375 6.898438 C 15.683594 7.214844 15.601562 7.566406 15.601562 7.921875 C 15.601562 9.050781 16.410156 9.992188 17.476562 10.199219 C 17.492188 10.207031 17.511719 10.214844 17.53125 10.21875 C 17.867188 10.320312 18.164062 10.664062 18.089844 11.125 C 18.027344 11.503906 17.65625 11.785156 17.226562 11.785156 C 16.902344 11.785156 16.640625 12.050781 16.640625 12.371094 C 16.640625 15.492188 14.105469 18.027344 10.988281 18.027344 C 7.867188 18.027344 5.332031 15.492188 5.332031 12.371094 Z M 6.902344 19.769531 L 7.089844 19.398438 L 10.097656 20.902344 L 8.972656 22.398438 C 8.949219 22.433594 8.914062 22.441406 8.890625 22.441406 C 8.863281 22.445312 8.832031 22.4375 8.804688 22.402344 L 6.839844 19.945312 C 6.871094 19.890625 6.890625 19.832031 6.902344 19.769531 Z M 10.984375 26.777344 C 8.363281 24.914062 6.953125 22.476562 6.351562 21.210938 L 7.890625 23.132812 C 8.132812 23.441406 8.496094 23.613281 8.886719 23.613281 C 8.894531 23.613281 8.902344 23.613281 8.910156 23.613281 C 9.308594 23.609375 9.671875 23.421875 9.910156 23.101562 L 10.398438 22.449219 L 10.398438 24.851562 C 10.398438 25.175781 10.664062 25.4375 10.984375 25.4375 C 11.308594 25.4375 11.570312 25.175781 11.570312 24.851562 L 11.570312 22.449219 L 12.058594 23.101562 C 12.300781 23.421875 12.664062 23.609375 13.0625 23.613281 C 13.070312 23.613281 13.078125 23.613281 13.085938 23.613281 C 13.476562 23.613281 13.839844 23.441406 14.082031 23.132812 L 15.625 21.207031 C 15.03125 22.464844 13.621094 24.90625 10.984375 26.777344 Z M 10.984375 26.777344 "/>
<path style=" stroke:none;fill-rule:nonzero;fill:rgb(0%,0%,0%);fill-opacity:1;" d="M 12.742188 13.996094 C 12.492188 13.792969 12.121094 13.832031 11.917969 14.082031 C 11.667969 14.390625 11.339844 14.558594 10.988281 14.558594 C 10.636719 14.558594 10.304688 14.390625 10.054688 14.082031 C 9.851562 13.832031 9.480469 13.792969 9.230469 13.996094 C 8.980469 14.203125 8.941406 14.570312 9.144531 14.820312 C 9.613281 15.402344 10.285156 15.730469 10.988281 15.730469 C 11.6875 15.730469 12.359375 15.402344 12.828125 14.820312 C 13.03125 14.570312 12.992188 14.203125 12.742188 13.996094 Z M 12.742188 13.996094 "/>
<path style=" stroke:none;fill-rule:nonzero;fill:rgb(0%,0%,0%);fill-opacity:1;" d="M 8.210938 10.398438 C 7.890625 10.398438 7.625 10.664062 7.625 10.984375 L 7.625 11.679688 C 7.625 12.003906 7.890625 12.265625 8.210938 12.265625 C 8.535156 12.265625 8.796875 12.003906 8.796875 11.679688 L 8.796875 10.984375 C 8.796875 10.664062 8.535156 10.398438 8.210938 10.398438 Z M 8.210938 10.398438 "/>
<path style=" stroke:none;fill-rule:nonzero;fill:rgb(0%,0%,0%);fill-opacity:1;" d="M 13.757812 10.398438 C 13.4375 10.398438 13.171875 10.664062 13.171875 10.984375 L 13.171875 11.679688 C 13.171875 12.003906 13.4375 12.265625 13.757812 12.265625 C 14.082031 12.265625 14.34375 12.003906 14.34375 11.679688 L 14.34375 10.984375 C 14.34375 10.664062 14.082031 10.398438 13.757812 10.398438 Z M 13.757812 10.398438 "/>
<path style=" stroke:none;fill-rule:nonzero;fill:rgb(0%,0%,0%);fill-opacity:1;" d="M 19.722656 23.050781 C 19.492188 22.824219 19.121094 22.824219 18.890625 23.050781 L 17.625 24.320312 C 16.988281 24.953125 16.640625 25.796875 16.640625 26.695312 L 16.640625 37.332031 C 16.640625 37.65625 16.902344 37.917969 17.226562 37.917969 C 17.550781 37.917969 17.8125 37.65625 17.8125 37.332031 L 17.8125 26.695312 C 17.8125 26.109375 18.039062 25.5625 18.453125 25.148438 L 19.722656 23.882812 C 19.949219 23.652344 19.949219 23.28125 19.722656 23.050781 Z M 19.722656 23.050781 "/>
<path style=" stroke:none;fill-rule:nonzero;fill:rgb(0%,0%,0%);fill-opacity:1;" d="M 31.460938 18.851562 C 31.210938 18.648438 30.84375 18.6875 30.640625 18.9375 C 30.390625 19.246094 30.058594 19.414062 29.707031 19.414062 C 29.355469 19.414062 29.023438 19.246094 28.777344 18.9375 C 28.570312 18.6875 28.203125 18.648438 27.953125 18.851562 C 27.699219 19.054688 27.660156 19.425781 27.867188 19.675781 C 28.335938 20.253906 29.003906 20.585938 29.707031 20.585938 C 30.410156 20.585938 31.078125 20.253906 31.546875 19.675781 C 31.753906 19.425781 31.714844 19.054688 31.460938 18.851562 Z M 31.460938 18.851562 "/>
<path style=" stroke:none;fill-rule:nonzero;fill:rgb(0%,0%,0%);fill-opacity:1;" d="M 23.464844 29.121094 C 23.144531 29.121094 22.878906 29.382812 22.878906 29.707031 L 22.878906 37.332031 C 22.878906 37.65625 23.144531 37.917969 23.464844 37.917969 C 23.789062 37.917969 24.050781 37.65625 24.050781 37.332031 L 24.050781 29.707031 C 24.050781 29.382812 23.789062 29.121094 23.464844 29.121094 Z M 23.464844 29.121094 "/>
<path style=" stroke:none;fill-rule:nonzero;fill:rgb(0%,0%,0%);fill-opacity:1;" d="M 35.945312 29.121094 C 35.625 29.121094 35.359375 29.382812 35.359375 29.707031 L 35.359375 37.332031 C 35.359375 37.65625 35.625 37.917969 35.945312 37.917969 C 36.269531 37.917969 36.53125 37.65625 36.53125 37.332031 L 36.53125 29.707031 C 36.53125 29.382812 36.269531 29.121094 35.945312 29.121094 Z M 35.945312 29.121094 "/>
<path style=" stroke:none;fill-rule:nonzero;fill:rgb(0%,0%,0%);fill-opacity:1;" d="M 38.042969 25.117188 C 38.40625 24.652344 38.613281 24.074219 38.613281 23.464844 C 38.613281 22.480469 38.070312 21.59375 37.222656 21.136719 C 37.226562 21.105469 37.226562 21.070312 37.226562 21.039062 C 37.226562 20.277344 36.859375 19.582031 36.253906 19.152344 C 36.296875 19.015625 36.332031 18.878906 36.363281 18.742188 C 36.441406 18.410156 36.488281 18.054688 36.511719 17.667969 C 37.433594 16.304688 37.917969 14.71875 37.917969 13.066406 C 37.917969 8.539062 34.234375 4.851562 29.707031 4.851562 C 25.179688 4.851562 21.492188 8.539062 21.492188 13.066406 C 21.492188 14.71875 21.980469 16.308594 22.902344 17.667969 C 22.925781 18.054688 22.972656 18.410156 23.050781 18.742188 C 23.082031 18.878906 23.117188 19.015625 23.15625 19.152344 C 22.554688 19.582031 22.1875 20.277344 22.1875 21.039062 C 22.1875 21.070312 22.1875 21.105469 22.191406 21.136719 C 21.34375 21.59375 20.800781 22.480469 20.800781 23.464844 C 20.800781 24.074219 21.007812 24.652344 21.371094 25.117188 C 20.164062 25.839844 19.414062 27.144531 19.414062 28.585938 L 19.414062 37.335938 C 19.414062 37.65625 19.675781 37.921875 20 37.921875 C 20.324219 37.921875 20.585938 37.65625 20.585938 37.335938 L 20.585938 28.585938 C 20.585938 27.402344 21.296875 26.351562 22.398438 25.914062 L 22.507812 25.867188 C 24.242188 28.210938 26.910156 29.597656 29.707031 29.597656 C 32.539062 29.597656 35.152344 28.242188 36.90625 25.867188 L 37.015625 25.914062 C 38.117188 26.351562 38.828125 27.402344 38.828125 28.585938 L 38.828125 37.332031 C 38.828125 37.65625 39.089844 37.917969 39.414062 37.917969 C 39.738281 37.917969 40 37.65625 40 37.332031 L 40 28.585938 C 40 27.144531 39.25 25.839844 38.042969 25.117188 Z M 22.664062 13.066406 C 22.664062 9.183594 25.824219 6.023438 29.707031 6.023438 C 33.589844 6.023438 36.746094 9.183594 36.746094 13.066406 C 36.746094 14.054688 36.546875 15.015625 36.15625 15.898438 C 35.3125 14.082031 33.433594 13.574219 31.609375 13.082031 C 30.132812 12.679688 28.605469 12.269531 27.300781 11.222656 C 27.160156 11.113281 26.980469 11.070312 26.808594 11.105469 C 26.636719 11.144531 26.488281 11.257812 26.410156 11.417969 C 26.402344 11.429688 25.789062 12.636719 24.589844 13.234375 C 24.300781 13.378906 24.183594 13.730469 24.328125 14.023438 C 24.472656 14.3125 24.824219 14.429688 25.117188 14.285156 C 26.070312 13.808594 26.726562 13.050781 27.097656 12.527344 C 28.460938 13.441406 29.960938 13.847656 31.300781 14.210938 C 31.742188 14.332031 32.148438 14.445312 32.519531 14.5625 C 32.503906 14.5625 32.492188 14.558594 32.480469 14.558594 C 31.765625 14.558594 31.140625 14.941406 30.792969 15.511719 C 30.46875 15.34375 30.097656 15.253906 29.707031 15.253906 C 29.316406 15.253906 28.945312 15.34375 28.621094 15.511719 C 28.273438 14.941406 27.648438 14.558594 26.933594 14.558594 C 25.847656 14.558594 24.960938 15.445312 24.960938 16.53125 C 24.960938 17.621094 25.847656 18.503906 26.933594 18.503906 C 27.949219 18.503906 28.785156 17.738281 28.894531 16.75 C 29.085938 16.546875 29.382812 16.425781 29.707031 16.425781 C 30.03125 16.425781 30.328125 16.546875 30.519531 16.75 C 30.628906 17.738281 31.464844 18.503906 32.480469 18.503906 C 33.566406 18.503906 34.453125 17.621094 34.453125 16.53125 C 34.453125 15.964844 34.210938 15.449219 33.820312 15.089844 C 34.660156 15.546875 35.175781 16.183594 35.367188 17.308594 C 35.355469 17.347656 35.351562 17.390625 35.347656 17.429688 C 35.335938 17.820312 35.292969 18.167969 35.222656 18.484375 C 34.941406 19.710938 34.246094 20.828125 33.257812 21.625 C 32.242188 22.445312 31.015625 22.882812 29.707031 22.882812 C 28.398438 22.882812 27.171875 22.445312 26.15625 21.625 C 25.167969 20.828125 24.472656 19.710938 24.191406 18.484375 C 24.121094 18.167969 24.078125 17.824219 24.066406 17.433594 C 24.058594 17.277344 23.992188 17.136719 23.890625 17.035156 C 23.089844 15.863281 22.664062 14.492188 22.664062 13.066406 Z M 33.28125 16.53125 C 33.28125 16.976562 32.921875 17.332031 32.480469 17.332031 C 32.039062 17.332031 31.679688 16.976562 31.679688 16.53125 C 31.679688 16.089844 32.039062 15.730469 32.480469 15.730469 C 32.921875 15.730469 33.28125 16.089844 33.28125 16.53125 Z M 27.734375 16.53125 C 27.734375 16.976562 27.375 17.332031 26.933594 17.332031 C 26.492188 17.332031 26.132812 16.976562 26.132812 16.53125 C 26.132812 16.089844 26.492188 15.730469 26.933594 15.730469 C 27.375 15.730469 27.734375 16.089844 27.734375 16.53125 Z M 33.074219 24.332031 C 32.164062 25.179688 30.972656 25.652344 29.707031 25.652344 C 28.441406 25.652344 27.25 25.179688 26.339844 24.332031 C 26.703125 24.171875 27.007812 23.910156 27.214844 23.578125 C 28.003906 23.890625 28.851562 24.050781 29.707031 24.050781 C 30.5625 24.050781 31.410156 23.890625 32.199219 23.578125 C 32.40625 23.910156 32.710938 24.171875 33.074219 24.332031 Z M 22.503906 24.609375 C 22.167969 24.324219 21.972656 23.910156 21.972656 23.464844 C 21.972656 22.820312 22.394531 22.25 23.019531 22.050781 C 23.316406 21.957031 23.488281 21.640625 23.40625 21.339844 C 23.375 21.222656 23.359375 21.125 23.359375 21.039062 C 23.359375 20.769531 23.453125 20.511719 23.621094 20.3125 C 24.054688 21.167969 24.664062 21.929688 25.417969 22.539062 C 25.652344 22.726562 25.898438 22.898438 26.152344 23.050781 C 26.070312 23.148438 25.964844 23.222656 25.84375 23.269531 Z M 29.707031 28.425781 C 27.34375 28.425781 25.164062 27.335938 23.640625 25.414062 L 25.160156 24.808594 C 26.320312 26.09375 27.960938 26.824219 29.707031 26.824219 C 31.457031 26.824219 33.09375 26.09375 34.253906 24.808594 L 35.777344 25.414062 C 34.25 27.335938 32.066406 28.425781 29.707031 28.425781 Z M 36.910156 24.609375 L 33.570312 23.269531 C 33.449219 23.222656 33.34375 23.148438 33.261719 23.050781 C 33.515625 22.898438 33.761719 22.726562 33.996094 22.539062 C 34.746094 21.929688 35.359375 21.167969 35.792969 20.3125 C 35.960938 20.511719 36.054688 20.769531 36.054688 21.039062 C 36.054688 21.125 36.039062 21.222656 36.007812 21.339844 C 35.925781 21.640625 36.097656 21.957031 36.394531 22.050781 C 37.019531 22.25 37.441406 22.820312 37.441406 23.464844 C 37.441406 23.910156 37.246094 24.324219 36.910156 24.609375 Z M 36.910156 24.609375 "/>
</g>
</svg>
