<?xml version="1.0" encoding="UTF-8"?>
<svg xmlns="http://www.w3.org/2000/svg" xmlns:xlink="http://www.w3.org/1999/xlink" width="70px" height="70px" viewBox="0 0 70 70" version="1.1">
<g id="surface1">
<path style=" stroke:none;fill-rule:nonzero;fill:rgb(0%,0%,0%);fill-opacity:1;" d="M 35 17.5 C 35 16.894531 34.511719 16.40625 33.90625 16.40625 C 33.300781 16.40625 32.8125 16.894531 32.8125 17.5 C 32.8125 18.105469 33.300781 18.59375 33.90625 18.59375 C 34.511719 18.59375 35 18.105469 35 17.5 Z M 35 17.5 "/>
<path style=" stroke:none;fill-rule:nonzero;fill:rgb(0%,0%,0%);fill-opacity:1;" d="M 41.5625 17.5 C 41.5625 16.894531 41.074219 16.40625 40.46875 16.40625 C 39.863281 16.40625 39.375 16.894531 39.375 17.5 C 39.375 18.105469 39.863281 18.59375 40.46875 18.59375 C 41.074219 18.59375 41.5625 18.105469 41.5625 17.5 Z M 41.5625 17.5 "/>
<path style=" stroke:none;fill-rule:nonzero;fill:rgb(0%,0%,0%);fill-opacity:1;" d="M 34.226562 21.101562 C 33.800781 21.527344 33.800781 22.222656 34.226562 22.648438 C 35.863281 24.28125 38.511719 24.28125 40.148438 22.648438 C 40.5625 22.21875 40.558594 21.535156 40.136719 21.113281 C 39.714844 20.691406 39.03125 20.6875 38.601562 21.101562 C 37.820312 21.882812 36.554688 21.882812 35.773438 21.101562 C 35.347656 20.675781 34.652344 20.675781 34.226562 21.101562 Z M 34.226562 21.101562 "/>
<path style=" stroke:none;fill-rule:nonzero;fill:rgb(0%,0%,0%);fill-opacity:1;" d="M 42.65625 8.75 L 41.375 8.75 C 39.683594 8.753906 38.058594 8.082031 36.867188 6.882812 C 36.4375 6.46875 35.753906 6.472656 35.332031 6.894531 C 34.910156 7.316406 34.90625 8 35.320312 8.429688 C 36.921875 10.039062 39.101562 10.945312 41.375 10.9375 L 42.65625 10.9375 C 43.261719 10.9375 43.75 10.449219 43.75 9.84375 C 43.75 9.238281 43.261719 8.75 42.65625 8.75 Z M 42.65625 8.75 "/>
<path style=" stroke:none;fill-rule:nonzero;fill:rgb(0%,0%,0%);fill-opacity:1;" d="M 66.292969 38.300781 L 66.941406 37.480469 C 68.238281 35.832031 68.078125 33.46875 66.566406 32.015625 C 65.054688 30.558594 62.683594 30.488281 61.089844 31.847656 L 57.359375 35.019531 C 57.292969 34.910156 57.230469 34.800781 57.152344 34.699219 C 55.992188 33.136719 53.882812 32.625 52.136719 33.480469 C 50.984375 29.320312 47.257812 26.394531 42.941406 26.261719 C 44.554688 24.855469 45.59375 22.90625 45.863281 20.78125 L 45.9375 20.78125 C 48.355469 20.78125 50.3125 18.824219 50.3125 16.40625 C 50.308594 15.445312 49.882812 14.535156 49.144531 13.917969 C 49.191406 13.65625 49.214844 13.390625 49.21875 13.125 C 49.230469 10.449219 48.335938 7.84375 46.675781 5.742188 C 46.304688 5.265625 45.613281 5.183594 45.136719 5.558594 C 44.660156 5.933594 44.578125 6.621094 44.953125 7.097656 C 46.308594 8.8125 47.042969 10.9375 47.03125 13.125 L 42.160156 13.125 C 39.21875 13.125 36.382812 12.054688 34.175781 10.117188 C 33.769531 9.761719 33.164062 9.753906 32.753906 10.097656 L 29.132812 13.125 L 27.34375 13.125 C 27.34375 9.636719 29.191406 6.40625 32.199219 4.640625 C 35.203125 2.871094 38.921875 2.824219 41.972656 4.523438 C 42.5 4.800781 43.152344 4.605469 43.441406 4.085938 C 43.730469 3.566406 43.550781 2.910156 43.035156 2.609375 C 39.308594 0.539062 34.761719 0.59375 31.089844 2.753906 C 27.414062 4.914062 25.15625 8.859375 25.15625 13.125 C 25.160156 13.390625 25.183594 13.65625 25.230469 13.917969 C 24.492188 14.535156 24.066406 15.445312 24.0625 16.40625 C 24.0625 18.824219 26.019531 20.78125 28.4375 20.78125 L 28.511719 20.78125 C 28.78125 22.90625 29.820312 24.855469 31.433594 26.265625 C 26.117188 26.417969 21.878906 30.769531 21.875 36.09375 L 21.875 40.429688 C 21.875 41.035156 22.363281 41.523438 22.96875 41.523438 C 23.574219 41.523438 24.0625 41.035156 24.0625 40.429688 L 24.0625 36.09375 C 24.066406 31.867188 27.492188 28.441406 31.71875 28.4375 C 31.71875 31.457031 34.167969 33.90625 37.1875 33.90625 C 40.207031 33.90625 42.65625 31.457031 42.65625 28.4375 C 46.882812 28.441406 50.308594 31.867188 50.3125 36.09375 L 50.3125 47.03125 L 45.9375 47.03125 C 45.332031 47.03125 44.84375 47.519531 44.84375 48.125 C 44.84375 48.730469 45.332031 49.21875 45.9375 49.21875 L 51.089844 49.21875 C 51.34375 49.21875 51.59375 49.128906 51.789062 48.964844 L 62.507812 40.035156 C 63.191406 39.433594 64.207031 39.414062 64.914062 39.984375 C 65.277344 40.3125 65.492188 40.773438 65.5 41.265625 C 65.511719 41.742188 65.324219 42.203125 64.980469 42.539062 L 54.839844 52.679688 C 52.789062 54.722656 50.121094 56.035156 47.25 56.414062 L 42.546875 57.027344 C 41.972656 57.097656 41.554688 57.605469 41.59375 58.179688 C 41.628906 58.757812 42.109375 59.207031 42.6875 59.203125 C 42.734375 59.203125 42.78125 59.203125 42.828125 59.195312 L 47.53125 58.582031 C 50.878906 58.140625 53.988281 56.609375 56.378906 54.226562 L 66.515625 44.089844 C 67.28125 43.328125 67.703125 42.285156 67.679688 41.203125 C 67.65625 40.121094 67.1875 39.097656 66.382812 38.371094 C 66.355469 38.347656 66.324219 38.328125 66.292969 38.300781 Z M 45.9375 18.59375 L 45.9375 15.3125 L 47.03125 15.3125 C 47.636719 15.3125 48.125 15.800781 48.125 16.40625 C 48.125 17.613281 47.144531 18.59375 45.9375 18.59375 Z M 26.25 16.40625 C 26.25 15.800781 26.738281 15.3125 27.34375 15.3125 L 28.4375 15.3125 L 28.4375 18.59375 C 27.230469 18.59375 26.25 17.613281 26.25 16.40625 Z M 30.625 19.6875 L 30.625 14.730469 L 33.457031 12.359375 C 35.953125 14.273438 39.011719 15.3125 42.160156 15.3125 L 43.75 15.3125 L 43.75 19.6875 C 43.75 23.3125 40.8125 26.25 37.1875 26.25 C 33.5625 26.25 30.625 23.3125 30.625 19.6875 Z M 37.1875 31.71875 C 35.375 31.71875 33.90625 30.25 33.90625 28.4375 L 33.90625 27.792969 C 36.007812 28.652344 38.367188 28.652344 40.46875 27.792969 L 40.46875 28.4375 C 40.46875 30.25 39 31.71875 37.1875 31.71875 Z M 52.488281 35.851562 L 52.660156 35.703125 C 53.058594 35.363281 53.578125 35.207031 54.097656 35.261719 C 54.617188 35.320312 55.089844 35.589844 55.402344 36.007812 C 55.507812 36.148438 55.589844 36.304688 55.652344 36.46875 L 52.5 39.148438 Z M 61.105469 38.347656 L 52.5 45.523438 L 52.5 42.023438 L 62.503906 33.519531 C 62.902344 33.183594 63.421875 33.023438 63.941406 33.082031 C 64.460938 33.140625 64.933594 33.410156 65.246094 33.828125 C 65.757812 34.511719 65.75 35.457031 65.21875 36.132812 L 64.203125 37.417969 C 63.085938 37.300781 61.972656 37.636719 61.105469 38.347656 Z M 61.105469 38.347656 "/>
<path style=" stroke:none;fill-rule:nonzero;fill:rgb(0%,0%,0%);fill-opacity:1;" d="M 42.449219 47.960938 C 43.171875 47.152344 43.523438 46.078125 43.417969 44.996094 C 43.15625 43.011719 41.453125 41.535156 39.453125 41.5625 L 32.101562 41.5625 C 31.242188 41.5625 30.386719 41.601562 29.53125 41.6875 L 29.53125 38.28125 C 29.53125 37.675781 29.042969 37.1875 28.4375 37.1875 C 27.832031 37.1875 27.34375 37.675781 27.34375 38.28125 L 27.34375 42.039062 C 25.714844 42.378906 24.144531 42.949219 22.675781 43.726562 L 20.390625 44.9375 C 12.117188 49.3125 5.683594 56.511719 2.261719 65.226562 C 2.042969 65.785156 2.320312 66.421875 2.882812 66.644531 C 3.441406 66.863281 4.078125 66.585938 4.300781 66.023438 C 7.527344 57.796875 13.601562 51.003906 21.414062 46.871094 L 23.699219 45.65625 C 26.292969 44.324219 29.183594 43.667969 32.101562 43.75 L 39.453125 43.75 C 40.332031 43.714844 41.101562 44.34375 41.238281 45.214844 C 41.289062 45.679688 41.140625 46.140625 40.828125 46.488281 C 40.515625 46.835938 40.070312 47.03125 39.605469 47.03125 L 30.308594 47.03125 C 29.703125 47.03125 29.214844 47.519531 29.214844 48.125 C 29.214844 48.730469 29.703125 49.21875 30.308594 49.21875 L 40.152344 49.21875 C 40.359375 49.214844 40.5625 49.148438 40.734375 49.027344 C 41.390625 48.832031 41.980469 48.460938 42.449219 47.960938 Z M 42.449219 47.960938 "/>
<path style=" stroke:none;fill-rule:nonzero;fill:rgb(0%,0%,0%);fill-opacity:1;" d="M 38.214844 57.59375 L 31.335938 58.492188 C 28.199219 58.902344 25.527344 60.976562 24.351562 63.914062 L 23.824219 65.214844 C 23.597656 65.773438 23.871094 66.410156 24.429688 66.636719 C 24.558594 66.691406 24.699219 66.71875 24.839844 66.71875 C 25.285156 66.71875 25.6875 66.449219 25.855469 66.035156 L 26.378906 64.730469 C 27.261719 62.527344 29.265625 60.96875 31.621094 60.660156 L 38.5 59.765625 C 39.097656 59.6875 39.519531 59.136719 39.441406 58.539062 C 39.363281 57.9375 38.816406 57.515625 38.214844 57.59375 Z M 38.214844 57.59375 "/>
</g>
</svg>
