<?xml version="1.0" encoding="UTF-8"?>
<svg xmlns="http://www.w3.org/2000/svg" xmlns:xlink="http://www.w3.org/1999/xlink" width="70px" height="70px" viewBox="0 0 70 70" version="1.1">
<g id="surface1">
<path style=" stroke:none;fill-rule:nonzero;fill:rgb(0%,0%,0%);fill-opacity:1;" d="M 59.671875 2.769531 L 48.636719 2.769531 C 48.550781 2.769531 48.472656 2.792969 48.394531 2.816406 C 48.320312 2.792969 48.242188 2.769531 48.15625 2.769531 L 40.183594 2.769531 L 36.835938 0.152344 C 36.707031 0.0546875 36.550781 0 36.390625 0 L 33.609375 0 C 33.449219 0 33.292969 0.0546875 33.164062 0.152344 L 29.816406 2.769531 L 21.84375 2.769531 C 21.757812 2.769531 21.679688 2.789062 21.605469 2.816406 C 21.527344 2.789062 21.449219 2.769531 21.363281 2.769531 L 10.328125 2.769531 C 9.023438 2.769531 7.964844 3.832031 7.964844 5.136719 L 7.964844 67.632812 C 7.964844 68.9375 9.023438 70 10.328125 70 L 59.671875 70 C 60.976562 70 62.035156 68.9375 62.035156 67.632812 L 62.035156 5.136719 C 62.035156 3.832031 60.976562 2.769531 59.671875 2.769531 Z M 22.566406 4.214844 L 30.066406 4.214844 C 30.226562 4.214844 30.382812 4.160156 30.511719 4.058594 L 33.859375 1.445312 L 36.144531 1.445312 L 39.492188 4.058594 C 39.617188 4.160156 39.773438 4.210938 39.933594 4.210938 L 47.4375 4.210938 L 47.4375 6.058594 L 22.566406 6.058594 Z M 60.59375 67.632812 C 60.59375 68.144531 60.179688 68.558594 59.671875 68.558594 L 10.328125 68.558594 C 9.820312 68.558594 9.40625 68.144531 9.40625 67.632812 L 9.40625 5.136719 C 9.40625 4.628906 9.820312 4.214844 10.328125 4.214844 L 21.121094 4.214844 L 21.121094 6.78125 C 21.121094 7.179688 21.445312 7.503906 21.84375 7.503906 L 48.15625 7.503906 C 48.554688 7.503906 48.878906 7.179688 48.878906 6.78125 L 48.878906 4.214844 L 59.671875 4.214844 C 60.179688 4.214844 60.59375 4.628906 60.59375 5.136719 Z M 60.59375 67.632812 "/>
<path style=" stroke:none;fill-rule:nonzero;fill:rgb(0%,0%,0%);fill-opacity:1;" d="M 26.785156 19.75 L 24.746094 19.75 C 26.121094 18.898438 27.046875 17.382812 27.046875 15.648438 C 27.046875 12.992188 24.882812 10.828125 22.226562 10.828125 C 19.570312 10.828125 17.40625 12.992188 17.40625 15.648438 C 17.40625 17.382812 18.328125 18.898438 19.707031 19.75 L 17.667969 19.75 C 15.160156 19.75 13.125 21.828125 13.125 24.386719 L 13.125 39.402344 C 13.125 40.726562 14.199219 41.800781 15.523438 41.800781 C 15.875 41.800781 16.210938 41.71875 16.511719 41.582031 L 16.480469 61.46875 C 16.480469 62.992188 17.808594 64.054688 19.714844 64.054688 C 20.902344 64.054688 21.734375 63.683594 22.257812 63.144531 C 22.839844 63.703125 23.714844 64.054688 24.742188 64.054688 C 26.648438 64.054688 27.976562 62.992188 27.976562 61.46875 L 27.976562 41.601562 C 28.269531 41.726562 28.59375 41.800781 28.933594 41.800781 C 30.253906 41.800781 31.332031 40.726562 31.332031 39.402344 L 31.332031 24.386719 C 31.328125 21.828125 29.289062 19.75 26.785156 19.75 Z M 22.226562 12.273438 C 24.085938 12.273438 25.601562 13.789062 25.601562 15.648438 C 25.601562 17.511719 24.085938 19.027344 22.226562 19.027344 C 20.363281 19.027344 18.847656 17.511719 18.847656 15.648438 C 18.847656 13.789062 20.363281 12.273438 22.226562 12.273438 Z M 29.886719 39.402344 C 29.886719 39.929688 29.457031 40.359375 28.929688 40.359375 C 28.402344 40.359375 27.976562 39.929688 27.976562 39.402344 L 27.976562 25.886719 C 27.976562 25.488281 27.652344 25.164062 27.253906 25.164062 C 26.855469 25.164062 26.53125 25.488281 26.53125 25.886719 L 26.53125 39.402344 C 26.53125 39.425781 26.539062 39.445312 26.539062 39.464844 C 26.539062 39.476562 26.53125 39.488281 26.53125 39.496094 L 26.53125 61.46875 C 26.53125 62.152344 25.8125 62.609375 24.738281 62.609375 C 23.734375 62.609375 22.949219 62.109375 22.949219 61.46875 L 22.949219 40.148438 C 22.949219 39.75 22.625 39.425781 22.226562 39.425781 C 21.828125 39.425781 21.503906 39.75 21.503906 40.148438 L 21.503906 61.46875 C 21.503906 62.5 20.25 62.609375 19.714844 62.609375 C 18.640625 62.609375 17.921875 62.152344 17.921875 61.472656 L 17.957031 39.5 C 17.957031 39.425781 17.9375 39.363281 17.917969 39.296875 L 17.917969 25.886719 C 17.917969 25.488281 17.59375 25.164062 17.195312 25.164062 C 16.796875 25.164062 16.476562 25.488281 16.476562 25.886719 L 16.476562 39.402344 C 16.476562 39.929688 16.046875 40.359375 15.519531 40.359375 C 14.996094 40.359375 14.566406 39.929688 14.566406 39.402344 L 14.566406 24.386719 C 14.566406 22.625 15.957031 21.191406 17.664062 21.191406 L 26.785156 21.191406 C 28.492188 21.191406 29.882812 22.625 29.882812 24.386719 L 29.882812 39.402344 Z M 29.886719 39.402344 "/>
<path style=" stroke:none;fill-rule:nonzero;fill:rgb(0%,0%,0%);fill-opacity:1;" d="M 40.867188 36.902344 L 35.179688 36.902344 C 34.617188 36.902344 34.15625 37.359375 34.15625 37.925781 L 34.15625 43.613281 C 34.15625 44.179688 34.617188 44.636719 35.179688 44.636719 L 40.867188 44.636719 C 41.433594 44.636719 41.890625 44.179688 41.890625 43.613281 L 41.890625 37.925781 C 41.890625 37.363281 41.433594 36.902344 40.867188 36.902344 Z M 40.449219 43.195312 L 35.597656 43.195312 L 35.597656 38.34375 L 40.449219 38.34375 Z M 40.449219 43.195312 "/>
<path style=" stroke:none;fill-rule:nonzero;fill:rgb(0%,0%,0%);fill-opacity:1;" d="M 56.15625 38.289062 L 44.316406 38.289062 C 43.917969 38.289062 43.597656 38.613281 43.597656 39.011719 C 43.597656 39.410156 43.917969 39.730469 44.316406 39.730469 L 56.15625 39.730469 C 56.554688 39.730469 56.878906 39.410156 56.878906 39.011719 C 56.878906 38.613281 56.554688 38.289062 56.15625 38.289062 Z M 56.15625 38.289062 "/>
<path style=" stroke:none;fill-rule:nonzero;fill:rgb(0%,0%,0%);fill-opacity:1;" d="M 44.316406 43.039062 L 51.25 43.039062 C 51.648438 43.039062 51.972656 42.714844 51.972656 42.316406 C 51.972656 41.917969 51.648438 41.59375 51.25 41.59375 L 44.316406 41.59375 C 43.917969 41.59375 43.597656 41.917969 43.597656 42.316406 C 43.597656 42.714844 43.917969 43.039062 44.316406 43.039062 Z M 44.316406 43.039062 "/>
<path style=" stroke:none;fill-rule:nonzero;fill:rgb(0%,0%,0%);fill-opacity:1;" d="M 36.859375 42.3125 C 36.992188 42.445312 37.175781 42.523438 37.367188 42.523438 C 37.5625 42.523438 37.746094 42.445312 37.878906 42.3125 L 39.9375 40.25 C 40.222656 39.96875 40.222656 39.511719 39.9375 39.230469 C 39.65625 38.949219 39.199219 38.949219 38.917969 39.230469 L 37.367188 40.78125 L 37.128906 40.539062 C 36.847656 40.257812 36.390625 40.257812 36.109375 40.539062 C 35.828125 40.820312 35.828125 41.277344 36.109375 41.5625 Z M 36.859375 42.3125 "/>
<path style=" stroke:none;fill-rule:nonzero;fill:rgb(0%,0%,0%);fill-opacity:1;" d="M 40.867188 27.195312 L 35.179688 27.195312 C 34.617188 27.195312 34.15625 27.652344 34.15625 28.21875 L 34.15625 33.90625 C 34.15625 34.46875 34.617188 34.929688 35.179688 34.929688 L 40.867188 34.929688 C 41.433594 34.929688 41.890625 34.46875 41.890625 33.90625 L 41.890625 28.21875 C 41.890625 27.652344 41.433594 27.195312 40.867188 27.195312 Z M 40.449219 33.488281 L 35.597656 33.488281 L 35.597656 28.636719 L 40.449219 28.636719 Z M 40.449219 33.488281 "/>
<path style=" stroke:none;fill-rule:nonzero;fill:rgb(0%,0%,0%);fill-opacity:1;" d="M 56.15625 28.582031 L 44.316406 28.582031 C 43.917969 28.582031 43.597656 28.90625 43.597656 29.304688 C 43.597656 29.703125 43.917969 30.023438 44.316406 30.023438 L 56.15625 30.023438 C 56.554688 30.023438 56.878906 29.703125 56.878906 29.304688 C 56.878906 28.90625 56.554688 28.582031 56.15625 28.582031 Z M 56.15625 28.582031 "/>
<path style=" stroke:none;fill-rule:nonzero;fill:rgb(0%,0%,0%);fill-opacity:1;" d="M 44.316406 33.332031 L 51.25 33.332031 C 51.648438 33.332031 51.972656 33.007812 51.972656 32.609375 C 51.972656 32.210938 51.648438 31.886719 51.25 31.886719 L 44.316406 31.886719 C 43.917969 31.886719 43.597656 32.210938 43.597656 32.609375 C 43.597656 33.007812 43.917969 33.332031 44.316406 33.332031 Z M 44.316406 33.332031 "/>
<path style=" stroke:none;fill-rule:nonzero;fill:rgb(0%,0%,0%);fill-opacity:1;" d="M 36.859375 32.601562 C 36.992188 32.738281 37.175781 32.8125 37.367188 32.8125 C 37.5625 32.8125 37.746094 32.738281 37.878906 32.601562 L 39.9375 30.542969 C 40.222656 30.261719 40.222656 29.804688 39.9375 29.523438 C 39.65625 29.238281 39.199219 29.238281 38.917969 29.523438 L 37.367188 31.070312 L 37.128906 30.832031 C 36.847656 30.550781 36.390625 30.550781 36.109375 30.832031 C 35.828125 31.113281 35.828125 31.570312 36.109375 31.851562 Z M 36.859375 32.601562 "/>
<path style=" stroke:none;fill-rule:nonzero;fill:rgb(0%,0%,0%);fill-opacity:1;" d="M 40.867188 46.609375 L 35.179688 46.609375 C 34.617188 46.609375 34.15625 47.070312 34.15625 47.632812 L 34.15625 53.324219 C 34.15625 53.886719 34.617188 54.347656 35.179688 54.347656 L 40.867188 54.347656 C 41.433594 54.347656 41.890625 53.886719 41.890625 53.324219 L 41.890625 47.632812 C 41.890625 47.070312 41.433594 46.609375 40.867188 46.609375 Z M 40.449219 52.902344 L 35.597656 52.902344 L 35.597656 48.054688 L 40.449219 48.054688 Z M 40.449219 52.902344 "/>
<path style=" stroke:none;fill-rule:nonzero;fill:rgb(0%,0%,0%);fill-opacity:1;" d="M 56.15625 47.996094 L 44.316406 47.996094 C 43.917969 47.996094 43.597656 48.320312 43.597656 48.71875 C 43.597656 49.117188 43.917969 49.441406 44.316406 49.441406 L 56.15625 49.441406 C 56.554688 49.441406 56.878906 49.117188 56.878906 48.71875 C 56.878906 48.320312 56.554688 47.996094 56.15625 47.996094 Z M 56.15625 47.996094 "/>
<path style=" stroke:none;fill-rule:nonzero;fill:rgb(0%,0%,0%);fill-opacity:1;" d="M 44.316406 52.746094 L 51.25 52.746094 C 51.648438 52.746094 51.972656 52.421875 51.972656 52.023438 C 51.972656 51.625 51.648438 51.304688 51.25 51.304688 L 44.316406 51.304688 C 43.917969 51.304688 43.597656 51.625 43.597656 52.023438 C 43.597656 52.421875 43.917969 52.746094 44.316406 52.746094 Z M 44.316406 52.746094 "/>
<path style=" stroke:none;fill-rule:nonzero;fill:rgb(0%,0%,0%);fill-opacity:1;" d="M 36.859375 52.019531 C 37 52.160156 37.183594 52.230469 37.367188 52.230469 C 37.554688 52.230469 37.738281 52.160156 37.878906 52.019531 L 39.9375 49.957031 C 40.21875 49.675781 40.21875 49.21875 39.9375 48.9375 C 39.65625 48.65625 39.199219 48.65625 38.917969 48.9375 L 37.367188 50.488281 L 37.128906 50.25 C 36.847656 49.964844 36.390625 49.964844 36.109375 50.25 C 35.828125 50.53125 35.828125 50.988281 36.109375 51.269531 Z M 36.859375 52.019531 "/>
<path style=" stroke:none;fill-rule:nonzero;fill:rgb(0%,0%,0%);fill-opacity:1;" d="M 40.867188 56.316406 L 35.179688 56.316406 C 34.617188 56.316406 34.15625 56.777344 34.15625 57.339844 L 34.15625 63.03125 C 34.15625 63.59375 34.617188 64.054688 35.179688 64.054688 L 40.867188 64.054688 C 41.433594 64.054688 41.890625 63.59375 41.890625 63.03125 L 41.890625 57.339844 C 41.890625 56.777344 41.433594 56.316406 40.867188 56.316406 Z M 40.449219 62.609375 L 35.597656 62.609375 L 35.597656 57.761719 L 40.449219 57.761719 Z M 40.449219 62.609375 "/>
<path style=" stroke:none;fill-rule:nonzero;fill:rgb(0%,0%,0%);fill-opacity:1;" d="M 56.15625 57.703125 L 44.316406 57.703125 C 43.917969 57.703125 43.597656 58.027344 43.597656 58.425781 C 43.597656 58.824219 43.917969 59.148438 44.316406 59.148438 L 56.15625 59.148438 C 56.554688 59.148438 56.878906 58.824219 56.878906 58.425781 C 56.878906 58.027344 56.554688 57.703125 56.15625 57.703125 Z M 56.15625 57.703125 "/>
<path style=" stroke:none;fill-rule:nonzero;fill:rgb(0%,0%,0%);fill-opacity:1;" d="M 51.25 61.011719 L 44.316406 61.011719 C 43.917969 61.011719 43.597656 61.335938 43.597656 61.734375 C 43.597656 62.132812 43.917969 62.453125 44.316406 62.453125 L 51.25 62.453125 C 51.648438 62.453125 51.972656 62.132812 51.972656 61.734375 C 51.972656 61.335938 51.648438 61.011719 51.25 61.011719 Z M 51.25 61.011719 "/>
<path style=" stroke:none;fill-rule:nonzero;fill:rgb(0%,0%,0%);fill-opacity:1;" d="M 36.859375 61.726562 C 36.992188 61.863281 37.175781 61.9375 37.367188 61.9375 C 37.5625 61.9375 37.746094 61.863281 37.878906 61.726562 L 39.9375 59.667969 C 40.222656 59.382812 40.222656 58.929688 39.9375 58.644531 C 39.65625 58.363281 39.199219 58.363281 38.917969 58.644531 L 37.367188 60.195312 L 37.128906 59.957031 C 36.847656 59.671875 36.390625 59.671875 36.109375 59.957031 C 35.828125 60.238281 35.828125 60.695312 36.109375 60.976562 Z M 36.859375 61.726562 "/>
<path style=" stroke:none;fill-rule:nonzero;fill:rgb(0%,0%,0%);fill-opacity:1;" d="M 56.15625 15.21875 L 52.488281 15.21875 L 52.488281 11.550781 C 52.488281 11.152344 52.164062 10.828125 51.765625 10.828125 L 48.394531 10.828125 C 47.996094 10.828125 47.671875 11.152344 47.671875 11.550781 L 47.671875 15.21875 L 43.996094 15.21875 C 43.597656 15.21875 43.273438 15.542969 43.273438 15.941406 L 43.273438 19.320312 C 43.273438 19.71875 43.597656 20.042969 43.996094 20.042969 L 47.671875 20.042969 L 47.671875 23.710938 C 47.671875 24.109375 47.996094 24.433594 48.394531 24.433594 L 51.765625 24.433594 C 52.164062 24.433594 52.488281 24.109375 52.488281 23.710938 L 52.488281 20.042969 L 56.15625 20.042969 C 56.554688 20.042969 56.878906 19.71875 56.878906 19.320312 L 56.878906 15.941406 C 56.878906 15.542969 56.554688 15.21875 56.15625 15.21875 Z M 55.433594 18.597656 L 51.765625 18.597656 C 51.367188 18.597656 51.042969 18.921875 51.042969 19.320312 L 51.042969 22.988281 L 49.113281 22.988281 L 49.113281 19.320312 C 49.113281 18.921875 48.792969 18.597656 48.394531 18.597656 L 44.71875 18.597656 L 44.71875 16.664062 L 48.394531 16.664062 C 48.792969 16.664062 49.113281 16.339844 49.113281 15.941406 L 49.113281 12.273438 L 51.042969 12.273438 L 51.042969 15.941406 C 51.042969 16.339844 51.367188 16.664062 51.765625 16.664062 L 55.433594 16.664062 Z M 55.433594 18.597656 "/>
</g>
</svg>
