<?xml version="1.0" encoding="UTF-8"?>
<svg xmlns="http://www.w3.org/2000/svg" xmlns:xlink="http://www.w3.org/1999/xlink" width="45px" height="45px" viewBox="0 0 45 45" version="1.1">
<g id="surface1">
<path style=" stroke:none;fill-rule:nonzero;fill:#21a96a;fill-opacity:1;" d="M 37.125 11.695312 L 37.128906 11.695312 C 37.316406 11.691406 37.496094 11.609375 37.617188 11.46875 L 39.785156 9 C 40.023438 8.726562 39.996094 8.308594 39.722656 8.070312 C 39.449219 7.828125 39.035156 7.855469 38.792969 8.128906 L 37.113281 10.046875 L 36.304688 9.160156 C 36.058594 8.890625 35.640625 8.875 35.375 9.117188 C 35.105469 9.363281 35.085938 9.78125 35.332031 10.050781 L 36.636719 11.480469 C 36.761719 11.617188 36.9375 11.695312 37.125 11.695312 Z M 37.125 11.695312 "/>
<path style=" stroke:none;fill-rule:nonzero;fill:rgb(0%,0%,0%);fill-opacity:1;" d="M 33.542969 8.167969 L 24.050781 8.167969 C 23.683594 8.167969 23.390625 8.464844 23.390625 8.828125 C 23.390625 9.191406 23.683594 9.488281 24.050781 9.488281 L 33.542969 9.488281 C 33.90625 9.488281 34.199219 9.191406 34.199219 8.828125 C 34.199219 8.464844 33.90625 8.167969 33.542969 8.167969 Z M 33.542969 8.167969 "/>
<path style=" stroke:none;fill-rule:nonzero;fill:rgb(0%,0%,0%);fill-opacity:1;" d="M 33.542969 10.640625 L 24.050781 10.640625 C 23.683594 10.640625 23.390625 10.933594 23.390625 11.296875 C 23.390625 11.664062 23.683594 11.957031 24.050781 11.957031 L 33.542969 11.957031 C 33.90625 11.957031 34.199219 11.664062 34.199219 11.296875 C 34.199219 10.933594 33.90625 10.640625 33.542969 10.640625 Z M 33.542969 10.640625 "/>
<path style=" stroke:none;fill-rule:nonzero;fill:rgb(0%,0%,0%);fill-opacity:1;" d="M 35.332031 16.378906 L 36.636719 17.808594 C 36.761719 17.945312 36.9375 18.023438 37.125 18.023438 L 37.128906 18.023438 C 37.316406 18.019531 37.496094 17.9375 37.617188 17.796875 L 39.785156 15.328125 C 40.023438 15.054688 39.996094 14.636719 39.722656 14.398438 C 39.449219 14.15625 39.035156 14.183594 38.792969 14.457031 L 37.113281 16.375 L 36.304688 15.488281 C 36.058594 15.21875 35.640625 15.203125 35.375 15.445312 C 35.105469 15.691406 35.085938 16.109375 35.332031 16.378906 Z M 35.332031 16.378906 "/>
<path style=" stroke:none;fill-rule:nonzero;fill:rgb(0%,0%,0%);fill-opacity:1;" d="M 33.542969 14.496094 L 24.050781 14.496094 C 23.683594 14.496094 23.390625 14.792969 23.390625 15.15625 C 23.390625 15.519531 23.683594 15.816406 24.050781 15.816406 L 33.542969 15.816406 C 33.90625 15.816406 34.199219 15.519531 34.199219 15.15625 C 34.199219 14.792969 33.90625 14.496094 33.542969 14.496094 Z M 33.542969 14.496094 "/>
<path style=" stroke:none;fill-rule:nonzero;fill:rgb(0%,0%,0%);fill-opacity:1;" d="M 34.199219 17.625 C 34.199219 17.261719 33.90625 16.96875 33.542969 16.96875 L 24.050781 16.96875 C 23.683594 16.96875 23.390625 17.261719 23.390625 17.625 C 23.390625 17.992188 23.683594 18.285156 24.050781 18.285156 L 33.542969 18.285156 C 33.90625 18.285156 34.199219 17.988281 34.199219 17.625 Z M 34.199219 17.625 "/>
<path style=" stroke:none;fill-rule:nonzero;fill:rgb(0%,0%,0%);fill-opacity:1;" d="M 29.546875 20.824219 L 24.050781 20.824219 C 23.683594 20.824219 23.390625 21.121094 23.390625 21.484375 C 23.390625 21.847656 23.683594 22.144531 24.050781 22.144531 L 29.546875 22.144531 C 29.910156 22.144531 30.207031 21.847656 30.207031 21.484375 C 30.207031 21.121094 29.910156 20.824219 29.546875 20.824219 Z M 29.546875 20.824219 "/>
<path style=" stroke:none;fill-rule:nonzero;fill:rgb(0%,0%,0%);fill-opacity:1;" d="M 29.546875 23.296875 L 24.050781 23.296875 C 23.683594 23.296875 23.390625 23.589844 23.390625 23.953125 C 23.390625 24.320312 23.683594 24.613281 24.050781 24.613281 L 29.546875 24.613281 C 29.910156 24.613281 30.207031 24.320312 30.207031 23.953125 C 30.207031 23.589844 29.910156 23.296875 29.546875 23.296875 Z M 29.546875 23.296875 "/>
<path style=" stroke:none;fill-rule:nonzero;fill:rgb(0%,0%,0%);fill-opacity:1;" d="M 38.105469 21.371094 C 37.742188 21.371094 37.449219 21.664062 37.449219 22.03125 L 37.449219 26.089844 C 37.449219 26.457031 37.742188 26.75 38.105469 26.75 L 41.507812 26.75 C 41.871094 26.75 42.167969 26.457031 42.167969 26.089844 C 42.167969 25.726562 41.871094 25.433594 41.507812 25.433594 L 38.765625 25.433594 L 38.765625 22.03125 C 38.765625 21.664062 38.472656 21.371094 38.105469 21.371094 Z M 38.105469 21.371094 "/>
<path style=" stroke:none;fill-rule:nonzero;fill:rgb(0%,0%,0%);fill-opacity:1;" d="M 15.949219 19.753906 L 12.992188 19.753906 C 12.628906 19.753906 12.335938 20.046875 12.335938 20.410156 C 12.335938 20.777344 12.628906 21.070312 12.992188 21.070312 L 15.949219 21.070312 C 16.3125 21.070312 16.605469 20.777344 16.605469 20.410156 C 16.605469 20.046875 16.3125 19.753906 15.949219 19.753906 Z M 15.949219 19.753906 "/>
<path style=" stroke:none;fill-rule:nonzero;fill:rgb(0%,0%,0%);fill-opacity:1;" d="M 17.625 15.378906 C 17.625 15.015625 17.328125 14.71875 16.964844 14.71875 C 16.601562 14.71875 16.304688 15.015625 16.304688 15.378906 L 16.304688 16.195312 C 16.304688 16.558594 16.601562 16.855469 16.964844 16.855469 C 17.328125 16.855469 17.625 16.558594 17.625 16.195312 Z M 17.625 15.378906 "/>
<path style=" stroke:none;fill-rule:nonzero;fill:rgb(0%,0%,0%);fill-opacity:1;" d="M 14.40625 18.722656 C 14.429688 18.726562 14.449219 18.726562 14.46875 18.726562 C 14.804688 18.726562 15.089844 18.46875 15.121094 18.128906 C 15.148438 17.835938 14.980469 17.574219 14.726562 17.460938 C 14.984375 17.351562 15.152344 17.085938 15.125 16.792969 C 15.089844 16.429688 14.769531 16.164062 14.40625 16.199219 C 13.742188 16.261719 13.257812 16.792969 13.257812 17.460938 C 13.257812 18.128906 13.742188 18.660156 14.40625 18.722656 Z M 14.40625 18.722656 "/>
<path style=" stroke:none;fill-rule:nonzero;fill:rgb(0%,0%,0%);fill-opacity:1;" d="M 43.636719 38.148438 L 29.664062 38.148438 L 29.664062 35.953125 L 42.171875 35.953125 C 42.921875 35.953125 43.535156 35.339844 43.535156 34.589844 L 43.535156 30.332031 C 44.453125 29.164062 45 27.691406 45 26.089844 C 45 24.492188 44.453125 23.019531 43.535156 21.851562 L 43.535156 4.257812 C 43.535156 3.507812 42.921875 2.894531 42.171875 2.894531 L 27.824219 2.894531 C 27.460938 2.894531 27.167969 3.191406 27.167969 3.554688 C 27.167969 3.917969 27.460938 4.214844 27.824219 4.214844 L 42.171875 4.214844 C 42.195312 4.214844 42.214844 4.234375 42.214844 4.257812 L 42.214844 20.5625 C 41.066406 19.707031 39.644531 19.199219 38.105469 19.199219 C 36.53125 19.199219 34.988281 19.746094 33.765625 20.738281 C 32.5625 21.714844 31.714844 23.085938 31.378906 24.589844 C 31.300781 24.945312 31.523438 25.300781 31.878906 25.378906 C 32.234375 25.457031 32.589844 25.234375 32.667969 24.878906 C 32.9375 23.660156 33.621094 22.554688 34.597656 21.761719 C 35.585938 20.957031 36.832031 20.515625 38.105469 20.515625 C 41.179688 20.515625 43.683594 23.019531 43.683594 26.089844 C 43.683594 29.164062 41.179688 31.664062 38.105469 31.664062 C 35.632812 31.664062 33.429688 30.003906 32.75 27.628906 C 32.648438 27.277344 32.285156 27.078125 31.933594 27.175781 C 31.585938 27.277344 31.382812 27.640625 31.480469 27.992188 C 32.324219 30.929688 35.046875 32.984375 38.105469 32.984375 C 39.644531 32.984375 41.066406 32.476562 42.214844 31.621094 L 42.214844 34.589844 C 42.214844 34.613281 42.195312 34.632812 42.171875 34.632812 L 29.640625 34.632812 C 29.539062 34.132812 29.09375 33.753906 28.5625 33.753906 L 26.5 33.753906 L 26.5 30.941406 L 29.546875 30.941406 C 29.910156 30.941406 30.207031 30.648438 30.207031 30.28125 C 30.207031 29.917969 29.910156 29.625 29.546875 29.625 L 26.5 29.625 L 26.5 29.441406 C 26.5 29.109375 26.46875 28.789062 26.414062 28.472656 L 29.546875 28.472656 C 29.910156 28.472656 30.207031 28.175781 30.207031 27.8125 C 30.207031 27.449219 29.910156 27.152344 29.546875 27.152344 L 26.019531 27.152344 C 25.273438 25.460938 23.726562 24.195312 21.859375 23.84375 C 22.261719 23.160156 22.496094 22.363281 22.496094 21.511719 L 22.496094 19.074219 C 22.839844 18.617188 23.046875 18.050781 23.046875 17.4375 C 23.046875 16.824219 22.839844 16.257812 22.496094 15.800781 L 22.496094 13.597656 C 22.496094 11.960938 22.015625 10.398438 21.121094 9.070312 L 21.121094 4.257812 C 21.121094 4.234375 21.140625 4.214844 21.167969 4.214844 L 24.75 4.214844 C 25.113281 4.214844 25.410156 3.917969 25.410156 3.554688 C 25.410156 3.191406 25.113281 2.894531 24.75 2.894531 L 21.167969 2.894531 C 20.414062 2.894531 19.804688 3.507812 19.804688 4.257812 L 19.804688 7.550781 C 18.289062 6.183594 16.347656 5.441406 14.292969 5.457031 C 9.835938 5.492188 6.210938 9.183594 6.210938 13.691406 L 6.210938 15.800781 C 5.867188 16.257812 5.660156 16.824219 5.660156 17.4375 C 5.660156 18.050781 5.867188 18.617188 6.210938 19.074219 L 6.210938 21.511719 C 6.210938 22.363281 6.445312 23.160156 6.847656 23.84375 C 4.210938 24.34375 2.210938 26.660156 2.210938 29.441406 L 2.210938 38.148438 L 1.363281 38.148438 C 0.609375 38.148438 0 38.757812 0 39.511719 L 0 40.742188 C 0 41.492188 0.609375 42.105469 1.363281 42.105469 L 5.785156 42.105469 C 6.148438 42.105469 6.441406 41.808594 6.441406 41.445312 C 6.441406 41.082031 6.148438 40.785156 5.785156 40.785156 L 1.363281 40.785156 C 1.339844 40.785156 1.316406 40.765625 1.316406 40.742188 L 1.316406 39.511719 C 1.316406 39.488281 1.339844 39.46875 1.363281 39.46875 L 43.636719 39.46875 C 43.660156 39.46875 43.679688 39.488281 43.679688 39.511719 L 43.679688 40.742188 C 43.679688 40.765625 43.660156 40.785156 43.636719 40.785156 L 8.859375 40.785156 C 8.496094 40.785156 8.199219 41.082031 8.199219 41.445312 C 8.199219 41.808594 8.496094 42.105469 8.859375 42.105469 L 43.636719 42.105469 C 44.390625 42.105469 45 41.492188 45 40.742188 L 45 39.511719 C 45 38.757812 44.390625 38.148438 43.636719 38.148438 Z M 21.726562 17.4375 C 21.726562 18.203125 21.101562 18.828125 20.335938 18.828125 L 20.199219 18.828125 L 20.199219 16.042969 L 20.335938 16.042969 C 21.101562 16.042969 21.726562 16.667969 21.726562 17.4375 Z M 14.355469 22.960938 C 11.855469 22.960938 9.824219 20.929688 9.824219 18.433594 L 9.824219 15.847656 C 9.824219 15.519531 10.09375 15.25 10.421875 15.25 L 11.328125 15.25 C 11.320312 15.292969 11.316406 15.335938 11.316406 15.378906 L 11.316406 16.195312 C 11.316406 16.558594 11.613281 16.855469 11.976562 16.855469 C 12.339844 16.855469 12.636719 16.558594 12.636719 16.195312 L 12.636719 15.378906 C 12.636719 15.335938 12.628906 15.292969 12.621094 15.25 L 13.273438 15.25 C 14.148438 15.25 14.96875 14.910156 15.582031 14.296875 L 15.984375 13.894531 C 16.097656 13.78125 16.246094 13.71875 16.40625 13.71875 L 18.285156 13.71875 C 18.613281 13.71875 18.882812 13.988281 18.882812 14.316406 L 18.882812 18.433594 C 18.882812 20.929688 16.851562 22.960938 14.355469 22.960938 Z M 15.847656 24.085938 L 15.847656 25.082031 C 15.847656 25.90625 15.175781 26.578125 14.355469 26.578125 C 13.53125 26.578125 12.859375 25.90625 12.859375 25.082031 L 12.859375 24.085938 C 13.339844 24.210938 13.839844 24.28125 14.355469 24.28125 C 14.871094 24.28125 15.371094 24.210938 15.847656 24.085938 Z M 11.542969 23.558594 L 11.542969 24.808594 L 10.824219 24.808594 C 9.007812 24.808594 7.53125 23.328125 7.53125 21.511719 L 7.53125 20.011719 C 7.796875 20.101562 8.078125 20.148438 8.375 20.148438 L 8.765625 20.148438 C 9.214844 21.609375 10.226562 22.832031 11.542969 23.558594 Z M 17.164062 23.558594 C 18.484375 22.832031 19.492188 21.609375 19.941406 20.148438 L 20.335938 20.148438 C 20.628906 20.148438 20.910156 20.101562 21.175781 20.011719 L 21.175781 21.511719 C 21.175781 23.328125 19.699219 24.808594 17.882812 24.808594 L 17.164062 24.808594 Z M 7.53125 13.691406 C 7.53125 9.90625 10.570312 6.804688 14.300781 6.777344 C 14.320312 6.777344 14.335938 6.777344 14.355469 6.777344 C 16.167969 6.777344 17.871094 7.476562 19.160156 8.757812 C 20.460938 10.046875 21.175781 11.765625 21.175781 13.597656 L 21.175781 14.859375 C 20.910156 14.773438 20.628906 14.726562 20.335938 14.726562 L 20.199219 14.726562 L 20.199219 14.316406 C 20.199219 13.261719 19.34375 12.402344 18.285156 12.402344 L 16.40625 12.402344 C 15.894531 12.402344 15.414062 12.601562 15.050781 12.960938 L 14.652344 13.363281 C 14.285156 13.730469 13.792969 13.933594 13.273438 13.933594 L 10.421875 13.933594 C 9.785156 13.933594 9.21875 14.246094 8.871094 14.726562 L 8.375 14.726562 C 8.078125 14.726562 7.796875 14.773438 7.53125 14.859375 Z M 8.375 16.042969 L 8.507812 16.042969 L 8.507812 18.828125 L 8.375 18.828125 C 7.605469 18.828125 6.980469 18.203125 6.980469 17.4375 C 6.980469 16.667969 7.605469 16.042969 8.375 16.042969 Z M 4.25 38.148438 L 6.914062 34.855469 L 6.914062 37.15625 C 6.914062 37.507812 6.988281 37.84375 7.128906 38.148438 Z M 11.226562 35.726562 C 11.324219 35.796875 11.382812 35.910156 11.382812 36.03125 C 11.382812 36.15625 11.324219 36.265625 11.226562 36.339844 C 11.03125 36.480469 10.914062 36.707031 10.914062 36.945312 C 10.914062 37.183594 11.03125 37.410156 11.222656 37.550781 C 11.332031 37.625 11.390625 37.75 11.382812 37.882812 C 11.375 38 11.308594 38.089844 11.230469 38.148438 L 8.886719 38.148438 C 8.492188 37.980469 8.230469 37.59375 8.230469 37.15625 L 8.230469 33.082031 C 8.230469 32.488281 8.714844 32.003906 9.3125 32.003906 L 10.96875 32.003906 C 11.183594 32.003906 11.367188 32.160156 11.382812 32.355469 C 11.390625 32.488281 11.332031 32.613281 11.222656 32.691406 C 11.03125 32.828125 10.914062 33.054688 10.914062 33.292969 C 10.914062 33.53125 11.03125 33.757812 11.222656 33.898438 C 11.324219 33.972656 11.382812 34.085938 11.382812 34.207031 C 11.382812 34.332031 11.324219 34.441406 11.222656 34.515625 C 11.03125 34.65625 10.914062 34.882812 10.914062 35.121094 C 10.914062 35.359375 11.03125 35.585938 11.226562 35.726562 Z M 8.125 31 L 6.628906 28.410156 L 7.390625 27.96875 L 8.96875 30.707031 C 8.667969 30.753906 8.378906 30.851562 8.125 31 Z M 10.96875 30.683594 L 10.480469 30.683594 L 8.421875 27.121094 C 8.117188 26.597656 7.445312 26.414062 6.921875 26.71875 L 5.777344 27.378906 C 5.253906 27.679688 5.074219 28.355469 5.375 28.878906 L 7.175781 31.992188 C 7.058594 32.21875 6.976562 32.46875 6.941406 32.726562 L 3.527344 36.945312 L 3.527344 29.441406 C 3.527344 27.035156 5.480469 25.074219 7.882812 25.0625 C 8.683594 25.726562 9.707031 26.125 10.824219 26.125 L 11.742188 26.125 C 12.160156 27.160156 13.171875 27.894531 14.355469 27.894531 C 15.535156 27.894531 16.550781 27.160156 16.964844 26.125 L 17.882812 26.125 C 19 26.125 20.027344 25.726562 20.824219 25.0625 C 23.230469 25.074219 25.179688 27.035156 25.179688 29.441406 L 25.179688 33.753906 L 12.636719 33.753906 C 12.59375 33.59375 12.523438 33.4375 12.433594 33.296875 C 12.625 32.996094 12.71875 32.640625 12.695312 32.269531 C 12.640625 31.382812 11.882812 30.683594 10.96875 30.683594 Z M 28.34375 38.148438 L 12.675781 38.148438 C 12.683594 38.089844 12.691406 38.03125 12.695312 37.96875 C 12.710938 37.726562 12.675781 37.488281 12.59375 37.269531 L 28.34375 37.269531 Z M 28.34375 35.953125 L 12.699219 35.953125 C 12.683594 35.652344 12.589844 35.367188 12.433594 35.121094 C 12.441406 35.105469 12.453125 35.089844 12.460938 35.074219 L 28.34375 35.074219 Z M 28.34375 35.953125 "/>
</g>
</svg>
