<?xml version="1.0" encoding="UTF-8"?>
<svg xmlns="http://www.w3.org/2000/svg" xmlns:xlink="http://www.w3.org/1999/xlink" width="45px" height="45px" viewBox="0 0 45 45" version="1.1">
<g id="surface1">
<path style=" stroke:none;fill-rule:nonzero;fill:rgb(0%,0%,0%);fill-opacity:1;" d="M 20.300781 39.109375 L 19.339844 39.109375 L 19.339844 37.523438 C 19.339844 37.183594 19.0625 36.910156 18.722656 36.910156 L 16.964844 36.910156 C 16.625 36.910156 16.351562 37.183594 16.351562 37.523438 C 16.351562 37.863281 16.625 38.140625 16.964844 38.140625 L 18.109375 38.140625 L 18.109375 39.109375 L 11.46875 39.109375 L 11.46875 37.523438 C 11.46875 37.183594 11.195312 36.910156 10.855469 36.910156 C 10.515625 36.910156 10.238281 37.183594 10.238281 37.523438 L 10.238281 39.109375 L 3.597656 39.109375 L 3.597656 38.140625 L 4.742188 38.140625 C 5.082031 38.140625 5.355469 37.863281 5.355469 37.523438 C 5.355469 37.183594 5.082031 36.910156 4.742188 36.910156 L 2.984375 36.910156 C 2.644531 36.910156 2.367188 37.183594 2.367188 37.523438 L 2.367188 39.109375 L 1.40625 39.109375 C 1.066406 39.109375 0.789062 39.386719 0.789062 39.726562 L 0.789062 43.59375 C 0.789062 43.933594 1.066406 44.207031 1.40625 44.207031 L 20.300781 44.207031 C 20.640625 44.207031 20.917969 43.933594 20.917969 43.59375 L 20.917969 39.726562 C 20.917969 39.386719 20.640625 39.109375 20.300781 39.109375 Z M 19.6875 42.976562 L 2.023438 42.976562 L 2.023438 40.339844 L 19.6875 40.339844 Z M 2.847656 28.644531 L 3.414062 28.644531 L 3.414062 33.878906 C 3.414062 35.097656 4.40625 36.089844 5.625 36.089844 L 16.082031 36.089844 C 17.300781 36.089844 18.292969 35.097656 18.292969 33.878906 L 18.292969 28.644531 L 18.859375 28.644531 C 19.199219 28.644531 19.472656 28.367188 19.472656 28.027344 L 19.472656 25.316406 C 19.472656 24.976562 19.199219 24.699219 18.859375 24.699219 L 2.847656 24.699219 C 2.507812 24.699219 2.234375 24.976562 2.234375 25.316406 L 2.234375 28.027344 C 2.234375 28.367188 2.507812 28.644531 2.847656 28.644531 Z M 17.0625 33.878906 C 17.0625 34.417969 16.621094 34.859375 16.082031 34.859375 L 5.625 34.859375 C 5.085938 34.859375 4.644531 34.417969 4.644531 33.878906 L 4.644531 28.644531 L 17.0625 28.644531 Z M 3.464844 25.929688 L 18.242188 25.929688 L 18.242188 27.414062 L 3.464844 27.414062 Z M 5.828125 21.75 C 4.460938 19.382812 4.976562 17.578125 5.472656 15.828125 C 5.894531 14.347656 6.332031 12.816406 5.765625 10.707031 C 5.679688 10.378906 5.871094 10.042969 6.199219 9.957031 C 6.527344 9.867188 6.867188 10.0625 6.953125 10.390625 C 7.609375 12.828125 7.101562 14.601562 6.65625 16.167969 C 6.171875 17.871094 5.785156 19.21875 6.894531 21.136719 C 7.0625 21.429688 6.960938 21.804688 6.667969 21.976562 C 6.570312 22.03125 6.464844 22.058594 6.359375 22.058594 C 6.148438 22.058594 5.941406 21.949219 5.828125 21.75 Z M 15.320312 21.75 C 13.953125 19.382812 14.46875 17.578125 14.96875 15.828125 C 15.390625 14.347656 15.824219 12.816406 15.257812 10.707031 C 15.171875 10.378906 15.367188 10.042969 15.695312 9.957031 C 16.023438 9.867188 16.359375 10.0625 16.449219 10.390625 C 17.101562 12.828125 16.597656 14.601562 16.148438 16.167969 C 15.664062 17.871094 15.28125 19.21875 16.386719 21.136719 C 16.554688 21.429688 16.457031 21.804688 16.160156 21.976562 C 16.066406 22.03125 15.957031 22.058594 15.855469 22.058594 C 15.640625 22.058594 15.433594 21.949219 15.320312 21.75 Z M 10.574219 21.75 C 9.207031 19.382812 9.722656 17.578125 10.21875 15.828125 C 10.640625 14.347656 11.078125 12.816406 10.511719 10.707031 C 10.425781 10.378906 10.621094 10.042969 10.949219 9.957031 C 11.277344 9.867188 11.613281 10.0625 11.699219 10.390625 C 12.355469 12.828125 11.847656 14.601562 11.402344 16.167969 C 10.917969 17.871094 10.535156 19.21875 11.640625 21.136719 C 11.808594 21.429688 11.707031 21.804688 11.414062 21.976562 C 11.316406 22.03125 11.210938 22.058594 11.109375 22.058594 C 10.894531 22.058594 10.6875 21.949219 10.574219 21.75 Z M 25.273438 11.800781 L 25.273438 15.828125 C 25.273438 16.167969 24.996094 16.445312 24.65625 16.445312 C 24.316406 16.445312 24.042969 16.167969 24.042969 15.828125 L 24.042969 11.800781 C 24.042969 11.460938 24.316406 11.183594 24.65625 11.183594 C 24.996094 11.183594 25.273438 11.460938 25.273438 11.800781 Z M 23.09375 11.800781 L 23.09375 15.828125 C 23.09375 16.167969 22.816406 16.445312 22.476562 16.445312 C 22.136719 16.445312 21.863281 16.167969 21.863281 15.828125 L 21.863281 11.800781 C 21.863281 11.460938 22.136719 11.183594 22.476562 11.183594 C 22.816406 11.183594 23.09375 11.460938 23.09375 11.800781 Z M 36.898438 13.855469 C 40.5 13.855469 43.429688 10.925781 43.429688 7.324219 C 43.429688 3.722656 40.5 0.789062 36.898438 0.789062 C 33.296875 0.789062 30.367188 3.722656 30.367188 7.324219 C 30.367188 10.925781 33.296875 13.855469 36.898438 13.855469 Z M 36.898438 2.019531 C 39.824219 2.019531 42.199219 4.398438 42.199219 7.324219 C 42.199219 10.246094 39.824219 12.625 36.898438 12.625 C 33.976562 12.625 31.597656 10.246094 31.597656 7.324219 C 31.597656 4.398438 33.976562 2.019531 36.898438 2.019531 Z M 36.898438 15.679688 C 32.871094 15.679688 29.589844 18.960938 29.589844 22.988281 L 29.589844 28.238281 L 25.027344 28.238281 L 25.027344 18.292969 L 25.957031 18.292969 C 26.78125 18.292969 27.453125 17.625 27.453125 16.800781 L 27.453125 10.828125 C 27.453125 10.003906 26.78125 9.335938 25.957031 9.335938 L 21.175781 9.335938 C 20.351562 9.335938 19.683594 10.003906 19.683594 10.828125 L 19.683594 16.800781 C 19.683594 17.625 20.351562 18.292969 21.175781 18.292969 L 22.109375 18.292969 L 22.109375 28.355469 C 20.703125 28.734375 19.667969 30.023438 19.667969 31.546875 C 19.667969 33.371094 21.152344 34.855469 22.976562 34.855469 L 29.589844 34.855469 L 29.589844 43.59375 C 29.589844 43.933594 29.867188 44.210938 30.207031 44.210938 L 43.59375 44.210938 C 43.933594 44.210938 44.210938 43.933594 44.210938 43.59375 L 44.210938 22.988281 C 44.210938 18.960938 40.929688 15.679688 36.898438 15.679688 Z M 20.914062 16.800781 L 20.914062 10.828125 C 20.914062 10.683594 21.03125 10.566406 21.175781 10.566406 L 25.957031 10.566406 C 26.105469 10.566406 26.222656 10.683594 26.222656 10.828125 L 26.222656 16.800781 C 26.222656 16.945312 26.105469 17.0625 25.957031 17.0625 L 21.175781 17.0625 C 21.03125 17.0625 20.914062 16.945312 20.914062 16.800781 Z M 23.796875 18.292969 L 23.796875 28.238281 L 23.339844 28.238281 L 23.339844 18.292969 Z M 42.976562 42.976562 L 30.820312 42.976562 L 30.820312 34.855469 L 32.898438 34.855469 C 34.726562 34.855469 36.210938 33.371094 36.210938 31.546875 L 36.210938 22.5625 C 36.210938 22.222656 35.933594 21.945312 35.59375 21.945312 C 35.253906 21.945312 34.980469 22.222656 34.980469 22.5625 L 34.980469 31.546875 C 34.980469 32.695312 34.046875 33.625 32.898438 33.625 L 22.976562 33.625 C 21.832031 33.625 20.898438 32.695312 20.898438 31.546875 C 20.898438 30.402344 21.832031 29.46875 22.976562 29.46875 L 30.207031 29.46875 C 30.546875 29.46875 30.820312 29.191406 30.820312 28.851562 L 30.820312 22.988281 C 30.820312 19.636719 33.546875 16.910156 36.898438 16.910156 C 40.25 16.910156 42.976562 19.636719 42.976562 22.988281 Z M 42.976562 42.976562 "/>
</g>
</svg>
