<?xml version="1.0" encoding="UTF-8"?>
<svg xmlns="http://www.w3.org/2000/svg" xmlns:xlink="http://www.w3.org/1999/xlink" width="70px" height="70px" viewBox="0 0 70 70" version="1.1">
<g id="surface1">
<path style=" stroke:none;fill-rule:nonzero;fill:rgb(0%,0%,0%);fill-opacity:1;" d="M 64.097656 36.582031 C 65.382812 35.300781 66.085938 33.59375 66.085938 31.769531 C 66.085938 29.949219 65.382812 28.238281 64.097656 26.957031 C 61.664062 24.523438 57.828125 24.324219 55.160156 26.355469 C 53.984375 25.457031 52.550781 24.96875 51.035156 24.96875 C 50.144531 24.96875 49.285156 25.140625 48.488281 25.460938 C 47.292969 24.882812 46.015625 24.484375 44.703125 24.277344 C 48.554688 22.019531 51.144531 17.835938 51.144531 13.0625 C 51.144531 5.898438 45.3125 0.0664062 38.144531 0.0664062 C 30.980469 0.0664062 25.152344 5.898438 25.152344 13.0625 C 25.152344 17.835938 27.742188 22.015625 31.585938 24.277344 C 25.125 25.277344 20.160156 30.878906 20.160156 37.621094 L 20.160156 45.164062 L 13.984375 48.921875 L 13.433594 48.0625 C 13.296875 47.84375 13.078125 47.691406 12.824219 47.636719 C 12.574219 47.582031 12.3125 47.628906 12.09375 47.765625 L 4.359375 52.699219 C 3.910156 52.988281 3.777344 53.589844 4.066406 54.039062 L 13.914062 69.484375 C 14.097656 69.773438 14.410156 69.929688 14.730469 69.929688 C 14.910156 69.929688 15.09375 69.882812 15.253906 69.777344 L 22.992188 64.84375 C 23.207031 64.707031 23.359375 64.488281 23.417969 64.234375 C 23.472656 63.984375 23.425781 63.722656 23.285156 63.503906 L 22.132812 61.699219 L 25.085938 59.902344 L 37.597656 64.039062 C 38.441406 64.320312 39.28125 64.457031 40.113281 64.457031 C 41.558594 64.457031 42.964844 64.035156 44.269531 63.199219 L 59.09375 53.699219 C 61.132812 52.390625 61.730469 49.664062 60.425781 47.621094 C 59.472656 46.136719 57.773438 45.417969 56.132812 45.636719 L 56.132812 44.550781 Z M 54.472656 28.328125 C 54.851562 28.707031 55.46875 28.707031 55.847656 28.328125 C 57.746094 26.433594 60.832031 26.433594 62.726562 28.328125 C 63.640625 29.246094 64.144531 30.464844 64.144531 31.769531 C 64.144531 33.074219 63.640625 34.292969 62.726562 35.207031 L 55.160156 42.777344 L 47.59375 35.207031 C 45.699219 33.3125 45.699219 30.226562 47.597656 28.328125 C 48.507812 27.414062 49.730469 26.914062 51.035156 26.914062 C 52.339844 26.914062 53.558594 27.414062 54.472656 28.328125 Z M 27.09375 13.0625 C 27.09375 6.96875 32.050781 2.011719 38.144531 2.011719 C 44.242188 2.011719 49.199219 6.96875 49.199219 13.0625 C 49.199219 19.15625 44.242188 24.117188 38.144531 24.117188 C 32.050781 24.117188 27.09375 19.15625 27.09375 13.0625 Z M 33.664062 26.058594 L 42.628906 26.058594 C 43.9375 26.058594 45.242188 26.285156 46.472656 26.71875 C 46.386719 26.796875 46.304688 26.875 46.222656 26.957031 C 43.570312 29.613281 43.570312 33.929688 46.222656 36.582031 L 54.191406 44.550781 L 54.191406 46.394531 L 45.347656 52.0625 C 44.921875 50.769531 43.90625 49.710938 42.546875 49.261719 L 26.835938 44.066406 C 25.226562 43.53125 23.613281 43.5625 22.101562 44.132812 L 22.101562 37.621094 C 22.101562 31.246094 27.289062 26.058594 33.664062 26.058594 Z M 15.027344 67.621094 L 6.222656 53.816406 L 12.320312 49.925781 L 19.945312 61.878906 C 19.949219 61.882812 19.949219 61.886719 19.953125 61.890625 C 19.957031 61.898438 19.960938 61.902344 19.964844 61.910156 L 21.128906 63.730469 Z M 58.789062 48.667969 C 59.519531 49.808594 59.183594 51.332031 58.046875 52.0625 L 43.21875 61.566406 C 41.679688 62.554688 39.945312 62.773438 38.207031 62.195312 L 25.269531 57.917969 C 25 57.828125 24.703125 57.863281 24.460938 58.011719 L 21.089844 60.0625 L 15.027344 50.558594 L 21.851562 46.40625 C 23.222656 45.570312 24.695312 45.402344 26.222656 45.910156 L 41.9375 51.105469 C 42.960938 51.445312 43.65625 52.449219 43.621094 53.519531 C 43.613281 53.554688 43.605469 53.59375 43.601562 53.628906 C 43.507812 54.441406 43.058594 55.195312 42.433594 55.59375 C 41.851562 55.964844 41.164062 56.023438 40.398438 55.769531 L 33.238281 53.402344 C 32.726562 53.234375 32.179688 53.511719 32.011719 54.019531 C 31.84375 54.527344 32.121094 55.078125 32.628906 55.246094 L 39.785156 57.613281 C 40.292969 57.78125 40.796875 57.863281 41.285156 57.863281 C 42.070312 57.863281 42.820312 57.648438 43.476562 57.230469 C 44.480469 56.589844 45.199219 55.515625 45.457031 54.296875 L 55.394531 47.925781 C 56.535156 47.195312 58.058594 47.53125 58.789062 48.667969 Z M 51.175781 33.890625 C 51.175781 33.351562 51.609375 32.917969 52.144531 32.917969 L 54.191406 32.917969 L 54.191406 30.871094 C 54.191406 30.332031 54.625 29.898438 55.160156 29.898438 C 55.695312 29.898438 56.132812 30.332031 56.132812 30.871094 L 56.132812 32.917969 L 58.179688 32.917969 C 58.714844 32.917969 59.152344 33.351562 59.152344 33.890625 C 59.152344 34.425781 58.714844 34.859375 58.179688 34.859375 L 56.132812 34.859375 L 56.132812 36.90625 C 56.132812 37.441406 55.695312 37.875 55.160156 37.875 C 54.625 37.875 54.191406 37.441406 54.191406 36.90625 L 54.191406 34.859375 L 52.144531 34.859375 C 51.609375 34.859375 51.175781 34.425781 51.175781 33.890625 Z M 51.175781 33.890625 "/>
</g>
</svg>
