<?xml version="1.0" encoding="UTF-8"?>
<svg xmlns="http://www.w3.org/2000/svg" xmlns:xlink="http://www.w3.org/1999/xlink" width="70px" height="70px" viewBox="0 0 70 70" version="1.1">
<g id="surface1">
<path style=" stroke:none;fill-rule:nonzero;fill:rgb(0%,0%,0%);fill-opacity:1;" d="M 65.746094 47.558594 C 66.730469 46.351562 66.988281 44.703125 66.421875 43.246094 C 65.855469 41.792969 64.546875 40.757812 63 40.535156 C 62.476562 39.289062 61.503906 38.285156 60.277344 37.714844 C 60.902344 36.949219 61.246094 35.988281 61.25 35 C 61.25 32.582031 59.292969 30.625 56.875 30.625 C 54.457031 30.625 52.5 32.582031 52.5 35 C 52.503906 35.988281 52.847656 36.949219 53.472656 37.714844 C 52.65625 38.097656 51.945312 38.675781 51.40625 39.398438 C 50.867188 38.675781 50.15625 38.097656 49.339844 37.714844 C 49.964844 36.949219 50.308594 35.988281 50.3125 35 C 50.3125 32.582031 48.355469 30.625 45.9375 30.625 C 43.519531 30.625 41.5625 32.582031 41.5625 35 C 41.566406 35.988281 41.910156 36.949219 42.535156 37.714844 C 41.308594 38.285156 40.335938 39.289062 39.8125 40.535156 C 38.265625 40.757812 36.957031 41.792969 36.390625 43.246094 C 35.824219 44.703125 36.082031 46.351562 37.066406 47.558594 C 35.144531 48.453125 33.910156 50.378906 33.90625 52.5 L 33.90625 57.96875 C 33.90625 58.382812 34.140625 58.761719 34.511719 58.945312 L 36.09375 59.738281 L 36.09375 67.8125 C 36.09375 68.417969 36.582031 68.90625 37.1875 68.90625 L 43.75 68.90625 C 44.355469 68.90625 44.84375 68.417969 44.84375 67.8125 L 44.84375 59.738281 L 45.9375 59.191406 L 47.03125 59.738281 L 47.03125 67.8125 C 47.03125 68.417969 47.519531 68.90625 48.125 68.90625 L 54.6875 68.90625 C 55.292969 68.90625 55.78125 68.417969 55.78125 67.8125 L 55.78125 59.738281 L 56.875 59.191406 L 57.96875 59.738281 L 57.96875 67.8125 C 57.96875 68.417969 58.457031 68.90625 59.0625 68.90625 L 65.625 68.90625 C 66.230469 68.90625 66.71875 68.417969 66.71875 67.8125 L 66.71875 59.738281 L 68.300781 58.945312 C 68.671875 58.761719 68.90625 58.382812 68.90625 57.96875 L 68.90625 52.5 C 68.902344 50.378906 67.667969 48.453125 65.746094 47.558594 Z M 64.53125 44.84375 C 64.53125 46.050781 63.550781 47.03125 62.34375 47.03125 C 61.136719 47.03125 60.15625 46.050781 60.15625 44.84375 C 60.15625 43.636719 61.136719 42.65625 62.34375 42.65625 C 63.550781 42.65625 64.53125 43.636719 64.53125 44.84375 Z M 56.875 32.8125 C 58.082031 32.8125 59.0625 33.792969 59.0625 35 C 59.0625 36.207031 58.082031 37.1875 56.875 37.1875 C 55.667969 37.1875 54.6875 36.207031 54.6875 35 C 54.6875 33.792969 55.667969 32.8125 56.875 32.8125 Z M 55.78125 39.375 L 57.96875 39.375 C 59.050781 39.375 60.0625 39.910156 60.675781 40.804688 C 59.039062 41.480469 57.972656 43.074219 57.96875 44.84375 C 57.972656 45.832031 58.316406 46.792969 58.941406 47.558594 C 58.125 47.945312 57.414062 48.527344 56.875 49.253906 C 56.335938 48.527344 55.625 47.945312 54.808594 47.5625 C 55.433594 46.792969 55.777344 45.832031 55.78125 44.84375 C 55.777344 43.074219 54.710938 41.480469 53.074219 40.804688 C 53.6875 39.910156 54.699219 39.375 55.78125 39.375 Z M 49.21875 44.84375 C 49.21875 43.636719 50.199219 42.65625 51.40625 42.65625 C 52.613281 42.65625 53.59375 43.636719 53.59375 44.84375 C 53.59375 46.050781 52.613281 47.03125 51.40625 47.03125 C 50.199219 47.03125 49.21875 46.050781 49.21875 44.84375 Z M 45.9375 32.8125 C 47.144531 32.8125 48.125 33.792969 48.125 35 C 48.125 36.207031 47.144531 37.1875 45.9375 37.1875 C 44.730469 37.1875 43.75 36.207031 43.75 35 C 43.75 33.792969 44.730469 32.8125 45.9375 32.8125 Z M 44.84375 39.375 L 47.03125 39.375 C 48.113281 39.375 49.125 39.910156 49.738281 40.804688 C 48.101562 41.480469 47.035156 43.074219 47.03125 44.84375 C 47.035156 45.832031 47.378906 46.792969 48.003906 47.558594 C 47.1875 47.945312 46.476562 48.527344 45.9375 49.253906 C 45.398438 48.527344 44.6875 47.945312 43.871094 47.5625 C 44.496094 46.792969 44.839844 45.832031 44.84375 44.84375 C 44.839844 43.074219 43.773438 41.480469 42.136719 40.804688 C 42.75 39.910156 43.761719 39.375 44.84375 39.375 Z M 40.46875 42.65625 C 41.675781 42.65625 42.65625 43.636719 42.65625 44.84375 C 42.65625 46.050781 41.675781 47.03125 40.46875 47.03125 C 39.261719 47.03125 38.28125 46.050781 38.28125 44.84375 C 38.28125 43.636719 39.261719 42.65625 40.46875 42.65625 Z M 43.261719 58.085938 C 42.890625 58.269531 42.65625 58.648438 42.65625 59.0625 L 42.65625 66.71875 L 38.28125 66.71875 L 38.28125 59.0625 C 38.28125 58.648438 38.046875 58.269531 37.675781 58.085938 L 36.09375 57.292969 L 36.09375 52.5 C 36.097656 50.6875 37.5625 49.222656 39.375 49.21875 L 41.5625 49.21875 C 43.375 49.222656 44.839844 50.6875 44.84375 52.5 L 44.84375 57.292969 Z M 54.199219 58.085938 C 53.828125 58.269531 53.59375 58.648438 53.59375 59.0625 L 53.59375 66.71875 L 49.21875 66.71875 L 49.21875 59.0625 C 49.21875 58.648438 48.984375 58.269531 48.613281 58.085938 L 47.03125 57.292969 L 47.03125 52.5 C 47.035156 50.6875 48.5 49.222656 50.3125 49.21875 L 52.5 49.21875 C 54.3125 49.222656 55.777344 50.6875 55.78125 52.5 L 55.78125 57.292969 Z M 66.71875 57.292969 L 65.136719 58.085938 C 64.765625 58.269531 64.53125 58.648438 64.53125 59.0625 L 64.53125 66.71875 L 60.15625 66.71875 L 60.15625 59.0625 C 60.15625 58.648438 59.921875 58.269531 59.550781 58.085938 L 57.96875 57.292969 L 57.96875 52.5 C 57.972656 50.6875 59.4375 49.222656 61.25 49.21875 L 63.4375 49.21875 C 65.25 49.222656 66.714844 50.6875 66.71875 52.5 Z M 66.71875 57.292969 "/>
<path style=" stroke:none;fill-rule:nonzero;fill:rgb(0%,0%,0%);fill-opacity:1;" d="M 21.875 4.375 C 12.8125 4.375 5.46875 11.71875 5.46875 20.78125 C 5.46875 29.84375 12.8125 37.1875 21.875 37.1875 C 30.9375 37.1875 38.28125 29.84375 38.28125 20.78125 C 38.269531 11.722656 30.933594 4.386719 21.875 4.375 Z M 17.5 34.304688 L 17.5 31.71875 C 17.503906 29.90625 18.96875 28.441406 20.78125 28.4375 L 22.96875 28.4375 C 24.78125 28.441406 26.246094 29.90625 26.25 31.71875 L 26.25 34.304688 C 23.40625 35.230469 20.34375 35.230469 17.5 34.304688 Z M 21.875 26.25 C 20.667969 26.25 19.6875 25.269531 19.6875 24.0625 C 19.6875 22.855469 20.667969 21.875 21.875 21.875 C 23.082031 21.875 24.0625 22.855469 24.0625 24.0625 C 24.0625 25.269531 23.082031 26.25 21.875 26.25 Z M 28.4375 33.382812 L 28.4375 31.71875 C 28.433594 29.597656 27.199219 27.671875 25.277344 26.777344 C 25.902344 26.011719 26.246094 25.050781 26.25 24.0625 C 26.25 21.644531 24.292969 19.6875 21.875 19.6875 C 19.457031 19.6875 17.5 21.644531 17.5 24.0625 C 17.503906 25.050781 17.847656 26.011719 18.472656 26.777344 C 16.550781 27.671875 15.316406 29.597656 15.3125 31.71875 L 15.3125 33.382812 C 9.5 30.359375 6.507812 23.753906 8.0625 17.390625 C 9.621094 11.027344 15.324219 6.550781 21.875 6.550781 C 28.425781 6.550781 34.128906 11.027344 35.6875 17.390625 C 37.242188 23.753906 34.25 30.359375 28.4375 33.382812 Z M 28.4375 33.382812 "/>
<path style=" stroke:none;fill-rule:nonzero;fill:rgb(0%,0%,0%);fill-opacity:1;" d="M 26.414062 11.011719 L 23.96875 10.636719 L 22.863281 8.285156 C 22.683594 7.902344 22.300781 7.65625 21.875 7.65625 C 21.449219 7.65625 21.066406 7.902344 20.886719 8.285156 L 19.78125 10.636719 L 17.335938 11.011719 C 16.929688 11.074219 16.59375 11.355469 16.460938 11.746094 C 16.332031 12.132812 16.429688 12.5625 16.71875 12.855469 L 18.519531 14.703125 L 18.089844 17.324219 C 18.023438 17.738281 18.199219 18.152344 18.542969 18.394531 C 18.882812 18.636719 19.335938 18.660156 19.703125 18.457031 L 21.875 17.253906 L 24.046875 18.457031 C 24.414062 18.660156 24.867188 18.636719 25.207031 18.394531 C 25.550781 18.152344 25.726562 17.738281 25.660156 17.324219 L 25.230469 14.703125 L 27.03125 12.855469 C 27.320312 12.5625 27.417969 12.132812 27.289062 11.746094 C 27.15625 11.355469 26.820312 11.074219 26.414062 11.011719 Z M 23.28125 13.570312 C 23.039062 13.820312 22.925781 14.167969 22.984375 14.511719 L 23.136719 15.453125 L 22.40625 15.046875 C 22.074219 14.867188 21.675781 14.867188 21.34375 15.046875 L 20.613281 15.453125 L 20.765625 14.511719 C 20.824219 14.167969 20.710938 13.820312 20.46875 13.570312 L 19.769531 12.851562 L 20.6875 12.710938 C 21.046875 12.65625 21.359375 12.425781 21.511719 12.09375 L 21.875 11.324219 L 22.238281 12.09375 C 22.390625 12.425781 22.703125 12.65625 23.0625 12.710938 L 23.980469 12.851562 Z M 23.28125 13.570312 "/>
<path style=" stroke:none;fill-rule:nonzero;fill:rgb(0%,0%,0%);fill-opacity:1;" d="M 41.5625 20.78125 C 41.570312 11.644531 35.292969 3.703125 26.402344 1.605469 C 17.511719 -0.496094 8.34375 3.792969 4.261719 11.96875 C 0.179688 20.140625 2.257812 30.046875 9.277344 35.894531 L 8.351562 37.445312 C 7.984375 37.324219 7.589844 37.3125 7.214844 37.410156 C 6.636719 37.566406 6.144531 37.941406 5.84375 38.460938 L 1.414062 46.007812 C 0.792969 46.996094 1.085938 48.300781 2.070312 48.929688 L 6.984375 51.835938 C 7.285156 52.015625 7.628906 52.109375 7.980469 52.109375 C 8.15625 52.109375 8.328125 52.085938 8.496094 52.042969 C 9.074219 51.886719 9.566406 51.507812 9.867188 50.992188 L 14.296875 43.445312 C 14.816406 42.597656 14.691406 41.503906 13.996094 40.796875 L 14.953125 39.1875 C 20.996094 41.484375 27.78125 40.660156 33.097656 36.980469 C 38.414062 33.304688 41.578125 27.246094 41.5625 20.78125 Z M 12.410156 42.335938 L 7.972656 49.878906 L 3.300781 47.117188 L 7.738281 39.574219 Z M 12.140625 39.632812 L 10.257812 38.519531 L 11.042969 37.203125 C 11.652344 37.605469 12.285156 37.96875 12.9375 38.300781 Z M 21.875 38.28125 C 12.210938 38.28125 4.375 30.445312 4.375 20.78125 C 4.375 11.117188 12.210938 3.28125 21.875 3.28125 C 31.539062 3.28125 39.375 11.117188 39.375 20.78125 C 39.363281 30.441406 31.535156 38.269531 21.875 38.28125 Z M 21.875 38.28125 "/>
</g>
</svg>
