<?xml version="1.0" encoding="UTF-8"?>
<svg xmlns="http://www.w3.org/2000/svg" xmlns:xlink="http://www.w3.org/1999/xlink" width="40px" height="40px" viewBox="0 0 40 40" version="1.1">
<g id="surface1">
<path style=" stroke:none;fill-rule:nonzero;fill:rgb(0%,0%,0%);fill-opacity:1;" d="M 25.414062 13.253906 C 26.84375 11.847656 27.734375 9.894531 27.734375 7.734375 C 27.734375 3.46875 24.265625 0 20 0 C 15.734375 0 12.265625 3.46875 12.265625 7.734375 C 12.265625 9.894531 13.152344 11.847656 14.585938 13.253906 C 14.609375 13.28125 14.636719 13.308594 14.667969 13.332031 C 16.054688 14.65625 17.933594 15.46875 20 15.46875 C 22.066406 15.46875 23.945312 14.65625 25.332031 13.332031 C 25.363281 13.308594 25.386719 13.28125 25.414062 13.253906 Z M 20 1.25 C 23.574219 1.25 26.484375 4.160156 26.484375 7.734375 C 26.484375 9.207031 25.992188 10.5625 25.164062 11.652344 C 24.460938 10.320312 23.0625 9.433594 21.503906 9.433594 L 21.316406 9.433594 C 22.371094 8.9375 23.101562 7.867188 23.101562 6.628906 C 23.101562 4.917969 21.710938 3.527344 20 3.527344 C 18.289062 3.527344 16.898438 4.917969 16.898438 6.628906 C 16.898438 7.867188 17.628906 8.9375 18.679688 9.433594 L 18.492188 9.433594 C 16.9375 9.433594 15.535156 10.320312 14.832031 11.652344 C 14.003906 10.5625 13.511719 9.207031 13.511719 7.734375 C 13.511719 4.160156 16.421875 1.25 20 1.25 Z M 18.148438 6.628906 C 18.148438 5.605469 18.976562 4.773438 20 4.773438 C 21.019531 4.773438 21.851562 5.605469 21.851562 6.628906 C 21.851562 7.648438 21.023438 8.480469 20 8.480469 C 18.976562 8.480469 18.148438 7.648438 18.148438 6.628906 Z M 15.761719 12.640625 C 16.15625 11.488281 17.253906 10.683594 18.492188 10.683594 L 21.503906 10.683594 C 22.742188 10.683594 23.839844 11.488281 24.234375 12.640625 C 23.097656 13.625 21.617188 14.21875 20 14.21875 C 18.378906 14.21875 16.898438 13.621094 15.761719 12.640625 Z M 37.960938 32.265625 C 37.960938 28 34.488281 24.527344 30.222656 24.527344 C 25.960938 24.527344 22.488281 28 22.488281 32.265625 C 22.488281 34.421875 23.378906 36.375 24.808594 37.78125 C 24.832031 37.8125 24.863281 37.839844 24.894531 37.867188 C 26.285156 39.1875 28.160156 40 30.226562 40 C 32.289062 40 34.167969 39.1875 35.554688 37.867188 C 35.585938 37.839844 35.617188 37.8125 35.644531 37.78125 C 37.070312 36.375 37.960938 34.421875 37.960938 32.265625 Z M 30.222656 25.777344 C 33.800781 25.777344 36.710938 28.6875 36.710938 32.265625 C 36.710938 33.734375 36.21875 35.09375 35.390625 36.183594 C 34.6875 34.851562 33.285156 33.964844 31.730469 33.964844 L 31.546875 33.964844 C 32.597656 33.464844 33.328125 32.394531 33.328125 31.15625 C 33.328125 29.449219 31.933594 28.058594 30.222656 28.058594 C 28.515625 28.058594 27.121094 29.449219 27.121094 31.15625 C 27.121094 32.394531 27.851562 33.464844 28.902344 33.964844 L 28.71875 33.964844 C 27.164062 33.964844 25.761719 34.851562 25.058594 36.183594 C 24.230469 35.09375 23.738281 33.734375 23.738281 32.265625 C 23.738281 28.6875 26.648438 25.777344 30.222656 25.777344 Z M 28.371094 31.15625 C 28.371094 30.136719 29.203125 29.304688 30.222656 29.304688 C 31.246094 29.304688 32.078125 30.136719 32.078125 31.15625 C 32.078125 32.179688 31.246094 33.011719 30.222656 33.011719 C 29.203125 33.011719 28.371094 32.179688 28.371094 31.15625 Z M 25.988281 37.167969 C 26.382812 36.015625 27.480469 35.210938 28.71875 35.210938 L 31.730469 35.210938 C 32.96875 35.210938 34.066406 36.015625 34.460938 37.167969 C 33.320312 38.152344 31.839844 38.75 30.222656 38.75 C 28.605469 38.75 27.125 38.152344 25.988281 37.167969 Z M 9.773438 24.527344 C 5.511719 24.527344 2.039062 28 2.039062 32.265625 C 2.039062 34.417969 2.925781 36.367188 4.347656 37.769531 C 4.378906 37.808594 4.414062 37.84375 4.453125 37.871094 C 5.839844 39.191406 7.714844 40 9.773438 40 C 11.839844 40 13.714844 39.1875 15.105469 37.867188 C 15.136719 37.839844 15.164062 37.8125 15.191406 37.78125 C 16.621094 36.375 17.511719 34.421875 17.511719 32.265625 C 17.507812 28 14.039062 24.527344 9.773438 24.527344 Z M 5.539062 37.167969 C 5.933594 36.015625 7.03125 35.210938 8.269531 35.210938 L 11.28125 35.210938 C 12.519531 35.210938 13.617188 36.015625 14.011719 37.167969 C 12.875 38.152344 11.394531 38.75 9.773438 38.75 C 8.15625 38.75 6.675781 38.152344 5.539062 37.167969 Z M 7.921875 31.15625 C 7.921875 30.136719 8.753906 29.304688 9.773438 29.304688 C 10.796875 29.304688 11.628906 30.136719 11.628906 31.15625 C 11.628906 32.179688 10.796875 33.011719 9.773438 33.011719 C 8.753906 33.011719 7.921875 32.179688 7.921875 31.15625 Z M 14.941406 36.179688 C 14.238281 34.851562 12.835938 33.960938 11.28125 33.960938 L 11.097656 33.960938 C 12.148438 33.464844 12.878906 32.394531 12.878906 31.15625 C 12.878906 29.449219 11.484375 28.054688 9.773438 28.054688 C 8.066406 28.054688 6.675781 29.445312 6.675781 31.15625 C 6.675781 32.394531 7.402344 33.464844 8.453125 33.960938 L 8.269531 33.960938 C 6.710938 33.960938 5.3125 34.847656 4.609375 36.179688 C 3.78125 35.089844 3.289062 33.734375 3.289062 32.261719 C 3.289062 28.6875 6.199219 25.777344 9.773438 25.777344 C 13.351562 25.777344 16.261719 28.6875 16.261719 32.261719 C 16.261719 33.734375 15.769531 35.09375 14.941406 36.179688 Z M 8.515625 23.90625 C 8.621094 23.90625 8.726562 23.886719 8.824219 23.847656 C 9.1875 23.707031 9.40625 23.335938 9.351562 22.953125 C 9.097656 21.070312 9.8125 19.183594 11.230469 17.941406 L 11.761719 18.644531 C 11.964844 18.917969 12.3125 19.039062 12.644531 18.953125 C 12.980469 18.867188 13.222656 18.59375 13.269531 18.253906 L 13.863281 14.027344 C 13.921875 13.574219 13.605469 13.152344 13.148438 13.082031 L 8.921875 12.488281 C 8.921875 12.488281 8.917969 12.488281 8.914062 12.484375 C 8.582031 12.445312 8.265625 12.597656 8.085938 12.882812 C 8.082031 12.886719 8.078125 12.894531 8.078125 12.898438 C 7.90625 13.195312 7.929688 13.558594 8.136719 13.828125 L 8.699219 14.578125 C 7.542969 15.679688 6.808594 17.140625 6.617188 18.738281 C 6.414062 20.445312 6.847656 22.152344 7.832031 23.546875 C 7.992188 23.777344 8.25 23.90625 8.515625 23.90625 Z M 9.796875 15.269531 C 9.796875 15.269531 9.800781 15.269531 9.800781 15.265625 C 10.136719 14.972656 10.1875 14.472656 9.917969 14.121094 L 9.722656 13.863281 L 12.570312 14.261719 L 12.167969 17.109375 L 11.976562 16.855469 C 11.839844 16.667969 11.640625 16.550781 11.414062 16.523438 C 11.199219 16.496094 10.980469 16.550781 10.804688 16.679688 C 10.800781 16.679688 10.796875 16.683594 10.792969 16.683594 C 9.289062 17.824219 8.335938 19.515625 8.105469 21.339844 C 7.414062 19.214844 8.027344 16.777344 9.796875 15.269531 Z M 26.136719 14.03125 L 26.730469 18.261719 C 26.78125 18.601562 27.027344 18.871094 27.351562 18.953125 C 27.6875 19.039062 28.035156 18.917969 28.238281 18.644531 L 28.765625 17.941406 C 30.1875 19.183594 30.902344 21.066406 30.644531 22.957031 C 30.59375 23.339844 30.8125 23.707031 31.171875 23.847656 C 31.273438 23.886719 31.378906 23.90625 31.480469 23.90625 C 31.746094 23.90625 32.003906 23.78125 32.164062 23.550781 C 33.152344 22.15625 33.585938 20.445312 33.378906 18.738281 C 33.1875 17.140625 32.453125 15.679688 31.300781 14.578125 L 31.867188 13.824219 C 32.066406 13.558594 32.089844 13.195312 31.921875 12.898438 C 31.917969 12.894531 31.914062 12.886719 31.910156 12.882812 C 31.734375 12.597656 31.417969 12.445312 31.085938 12.484375 C 31.082031 12.484375 31.078125 12.488281 31.074219 12.488281 L 26.84375 13.085938 C 26.394531 13.152344 26.074219 13.574219 26.136719 14.03125 Z M 30.277344 13.863281 L 30.078125 14.125 C 29.808594 14.480469 29.867188 14.980469 30.203125 15.269531 C 31.972656 16.777344 32.585938 19.21875 31.894531 21.34375 C 31.664062 19.515625 30.710938 17.824219 29.203125 16.683594 C 29.199219 16.683594 29.195312 16.679688 29.191406 16.675781 C 29.046875 16.570312 28.875 16.515625 28.699219 16.515625 C 28.660156 16.515625 28.621094 16.519531 28.582031 16.523438 C 28.355469 16.550781 28.160156 16.667969 28.023438 16.855469 L 27.832031 17.109375 L 27.429688 14.261719 Z M 30.277344 13.863281 "/>
</g>
</svg>
