<?xml version="1.0" encoding="UTF-8"?>
<svg xmlns="http://www.w3.org/2000/svg" xmlns:xlink="http://www.w3.org/1999/xlink" width="45px" height="45px" viewBox="0 0 45 45" version="1.1">
<g id="surface1">
<path style=" stroke:none;fill-rule:nonzero;fill:#21a96a;fill-opacity:1;" d="M 6.777344 33.941406 C 6.777344 33.671875 6.671875 33.417969 6.480469 33.226562 L 5.355469 32.097656 C 5.097656 31.84375 4.679688 31.84375 4.421875 32.097656 C 4.164062 32.355469 4.164062 32.773438 4.421875 33.03125 L 5.332031 33.941406 L 4.421875 34.851562 C 4.164062 35.109375 4.164062 35.527344 4.421875 35.785156 C 4.679688 36.042969 5.097656 36.042969 5.355469 35.785156 L 6.480469 34.65625 C 6.671875 34.464844 6.777344 34.210938 6.777344 33.941406 Z M 10.414062 38.714844 C 9.960938 38.441406 9.21875 38.109375 8.261719 38.082031 C 7.199219 38.054688 6.375 38.410156 5.867188 38.714844 C 5.554688 38.898438 5.453125 39.304688 5.640625 39.617188 C 5.828125 39.933594 6.238281 40.027344 6.542969 39.84375 C 6.902344 39.628906 7.480469 39.382812 8.226562 39.402344 C 8.894531 39.421875 9.414062 39.652344 9.734375 39.84375 C 10.046875 40.03125 10.453125 39.929688 10.640625 39.617188 C 10.828125 39.304688 10.726562 38.902344 10.414062 38.714844 Z M 34.359375 13.535156 C 34.550781 13.851562 34.957031 13.945312 35.265625 13.761719 C 35.621094 13.546875 36.203125 13.300781 36.945312 13.320312 C 37.613281 13.335938 38.136719 13.570312 38.453125 13.761719 C 38.765625 13.949219 39.171875 13.847656 39.359375 13.535156 C 39.546875 13.222656 39.445312 12.816406 39.132812 12.628906 C 38.679688 12.359375 37.9375 12.027344 36.980469 12 C 35.917969 11.972656 35.09375 12.328125 34.585938 12.628906 C 34.273438 12.816406 34.171875 13.222656 34.359375 13.535156 Z M 10.335938 6.765625 C 10.003906 6.613281 9.613281 6.753906 9.457031 7.085938 C 9.304688 7.414062 9.445312 7.804688 9.777344 7.960938 C 10.226562 8.171875 10.726562 8.28125 11.222656 8.28125 C 11.722656 8.28125 12.222656 8.171875 12.671875 7.960938 C 13.003906 7.804688 13.144531 7.414062 12.988281 7.085938 C 12.835938 6.753906 12.445312 6.613281 12.113281 6.765625 C 11.84375 6.894531 11.542969 6.960938 11.242188 6.964844 C 10.847656 6.96875 10.53125 6.859375 10.335938 6.765625 Z M 5.867188 13.222656 C 6.355469 13.515625 7.136719 13.855469 8.140625 13.855469 C 9.070312 13.855469 9.957031 13.496094 10.414062 13.222656 C 10.726562 13.035156 10.828125 12.632812 10.640625 12.320312 C 10.453125 12.007812 10.046875 11.90625 9.734375 12.09375 C 9.417969 12.285156 8.894531 12.515625 8.226562 12.535156 C 7.484375 12.554688 6.902344 12.304688 6.546875 12.09375 C 6.234375 11.90625 5.828125 12.007812 5.640625 12.320312 C 5.453125 12.632812 5.554688 13.035156 5.867188 13.222656 Z M 6.824219 7.085938 C 6.667969 6.753906 6.277344 6.613281 5.945312 6.765625 C 5.675781 6.894531 5.375 6.960938 5.078125 6.964844 C 5.070312 6.964844 5.0625 6.964844 5.058594 6.964844 C 4.671875 6.964844 4.359375 6.855469 4.167969 6.765625 C 3.835938 6.613281 3.445312 6.753906 3.289062 7.085938 C 3.136719 7.414062 3.277344 7.804688 3.609375 7.960938 C 4.058594 8.171875 4.558594 8.28125 5.058594 8.28125 C 5.554688 8.28125 6.054688 8.171875 6.503906 7.960938 C 6.835938 7.804688 6.976562 7.414062 6.824219 7.085938 Z M 11.859375 32.097656 C 11.601562 31.84375 11.183594 31.84375 10.925781 32.097656 L 9.800781 33.226562 C 9.609375 33.417969 9.503906 33.671875 9.503906 33.941406 C 9.503906 34.210938 9.609375 34.464844 9.796875 34.65625 L 10.925781 35.785156 C 11.183594 36.042969 11.601562 36.042969 11.859375 35.785156 C 12.117188 35.527344 12.117188 35.109375 11.859375 34.851562 L 10.949219 33.941406 L 11.859375 33.03125 C 12.117188 32.773438 12.117188 32.355469 11.859375 32.097656 Z M 38.496094 7.960938 C 38.945312 8.171875 39.445312 8.28125 39.945312 8.28125 C 40.441406 8.28125 40.941406 8.171875 41.390625 7.960938 C 41.722656 7.804688 41.863281 7.414062 41.710938 7.085938 C 41.554688 6.753906 41.164062 6.613281 40.832031 6.765625 C 40.5625 6.894531 40.261719 6.960938 39.964844 6.964844 C 39.566406 6.96875 39.25 6.859375 39.054688 6.765625 C 38.722656 6.613281 38.332031 6.753906 38.175781 7.085938 C 38.023438 7.414062 38.164062 7.804688 38.496094 7.960938 Z M 32.328125 7.960938 C 32.789062 8.175781 33.300781 8.289062 33.808594 8.28125 C 34.292969 8.277344 34.785156 8.167969 35.222656 7.960938 C 35.554688 7.804688 35.695312 7.414062 35.542969 7.085938 C 35.386719 6.753906 34.996094 6.613281 34.664062 6.765625 C 34.390625 6.894531 34.082031 6.964844 33.777344 6.964844 C 33.390625 6.964844 33.082031 6.855469 32.886719 6.765625 C 32.554688 6.613281 32.164062 6.753906 32.007812 7.085938 C 31.855469 7.414062 31.996094 7.804688 32.328125 7.960938 Z M 19.339844 21.8125 C 19.660156 21.644531 19.785156 21.246094 19.617188 20.921875 C 19.398438 20.511719 19.367188 20.023438 19.527344 19.546875 C 19.644531 19.203125 19.457031 18.828125 19.109375 18.714844 C 18.765625 18.597656 18.390625 18.785156 18.277344 19.128906 C 18.003906 19.949219 18.066406 20.804688 18.449219 21.535156 C 18.621094 21.863281 19.023438 21.980469 19.339844 21.8125 Z M 35.542969 33.167969 C 35.386719 32.835938 34.996094 32.695312 34.664062 32.847656 C 34.394531 32.976562 34.09375 33.042969 33.796875 33.046875 C 33.398438 33.050781 33.082031 32.941406 32.886719 32.847656 C 32.554688 32.695312 32.164062 32.835938 32.007812 33.167969 C 31.855469 33.496094 31.996094 33.890625 32.328125 34.042969 C 32.777344 34.253906 33.277344 34.367188 33.777344 34.367188 C 34.273438 34.367188 34.773438 34.253906 35.222656 34.042969 C 35.554688 33.890625 35.695312 33.496094 35.542969 33.167969 Z M 36.859375 27.402344 C 36.269531 27.402344 35.691406 27.464844 35.136719 27.585938 C 35.78125 25.976562 36.121094 24.246094 36.121094 22.5 C 36.121094 20.753906 35.78125 19.023438 35.136719 17.414062 C 35.691406 17.535156 36.269531 17.597656 36.859375 17.597656 C 41.347656 17.597656 45 13.945312 45 9.457031 C 45 4.96875 41.347656 1.316406 36.859375 1.316406 C 32.371094 1.316406 28.71875 4.96875 28.71875 9.457031 C 28.71875 9.78125 28.738281 10.097656 28.773438 10.410156 C 26.847656 9.40625 24.703125 8.878906 22.5 8.878906 C 20.296875 8.878906 18.152344 9.40625 16.226562 10.410156 C 16.261719 10.097656 16.28125 9.78125 16.28125 9.457031 C 16.28125 7.546875 15.605469 5.6875 14.375 4.226562 C 14.140625 3.949219 13.726562 3.910156 13.449219 4.144531 C 13.167969 4.378906 13.132812 4.796875 13.367188 5.074219 C 14.394531 6.300781 14.960938 7.855469 14.960938 9.457031 C 14.960938 13.21875 11.902344 16.28125 8.140625 16.28125 C 4.378906 16.28125 1.320312 13.21875 1.320312 9.457031 C 1.320312 5.695312 4.378906 2.636719 8.140625 2.636719 C 9.199219 2.636719 10.214844 2.871094 11.15625 3.335938 C 11.484375 3.5 11.878906 3.363281 12.039062 3.039062 C 12.199219 2.710938 12.066406 2.316406 11.738281 2.15625 C 10.613281 1.601562 9.402344 1.316406 8.140625 1.316406 C 3.652344 1.316406 0 4.96875 0 9.457031 C 0 13.945312 3.652344 17.597656 8.140625 17.597656 C 8.730469 17.597656 9.308594 17.535156 9.863281 17.414062 C 9.21875 19.023438 8.878906 20.753906 8.878906 22.5 C 8.878906 24.246094 9.21875 25.976562 9.863281 27.585938 C 9.308594 27.464844 8.730469 27.402344 8.140625 27.402344 C 3.652344 27.402344 0 31.054688 0 35.542969 C 0 40.03125 3.652344 43.679688 8.140625 43.679688 C 12.628906 43.679688 16.28125 40.03125 16.28125 35.542969 C 16.28125 35.21875 16.261719 34.902344 16.226562 34.589844 C 18.152344 35.59375 20.296875 36.121094 22.5 36.121094 C 24.703125 36.121094 26.847656 35.59375 28.773438 34.589844 C 28.738281 34.902344 28.71875 35.21875 28.71875 35.542969 C 28.71875 40.03125 32.371094 43.679688 36.859375 43.679688 C 38.628906 43.679688 40.3125 43.125 41.726562 42.066406 C 42.019531 41.847656 42.078125 41.4375 41.859375 41.144531 C 41.644531 40.851562 41.230469 40.792969 40.9375 41.011719 C 39.753906 41.894531 38.34375 42.363281 36.859375 42.363281 C 33.097656 42.363281 30.039062 39.304688 30.039062 35.542969 C 30.039062 31.78125 33.097656 28.71875 36.859375 28.71875 C 40.621094 28.71875 43.679688 31.78125 43.679688 35.542969 C 43.679688 36.730469 43.371094 37.902344 42.78125 38.929688 C 42.601562 39.246094 42.710938 39.648438 43.027344 39.828125 C 43.34375 40.011719 43.746094 39.902344 43.925781 39.585938 C 44.628906 38.359375 45 36.960938 45 35.542969 C 45 31.054688 41.347656 27.402344 36.859375 27.402344 Z M 36.859375 2.636719 C 40.621094 2.636719 43.683594 5.695312 43.683594 9.457031 C 43.683594 13.21875 40.621094 16.28125 36.859375 16.28125 C 33.097656 16.28125 30.039062 13.21875 30.039062 9.457031 C 30.039062 5.695312 33.097656 2.636719 36.859375 2.636719 Z M 8.140625 42.363281 C 4.378906 42.363281 1.320312 39.304688 1.320312 35.542969 C 1.320312 31.78125 4.378906 28.71875 8.140625 28.71875 C 11.902344 28.71875 14.960938 31.78125 14.960938 35.542969 C 14.960938 39.304688 11.902344 42.363281 8.140625 42.363281 Z M 33.421875 28.164062 C 31.457031 29.082031 29.917969 30.765625 29.1875 32.824219 C 27.195312 34.117188 24.886719 34.800781 22.5 34.800781 C 20.113281 34.800781 17.804688 34.117188 15.8125 32.824219 C 15.082031 30.765625 13.542969 29.082031 11.578125 28.164062 C 10.675781 26.425781 10.199219 24.472656 10.199219 22.5 C 10.199219 20.527344 10.675781 18.574219 11.578125 16.835938 C 13.542969 15.917969 15.082031 14.234375 15.8125 12.175781 C 17.804688 10.882812 20.113281 10.199219 22.5 10.199219 C 24.886719 10.199219 27.195312 10.882812 29.1875 12.175781 C 29.917969 14.234375 31.457031 15.917969 33.421875 16.835938 C 34.324219 18.574219 34.800781 20.527344 34.800781 22.5 C 34.800781 24.472656 34.324219 26.425781 33.421875 28.164062 Z M 41.390625 34.042969 C 41.722656 33.890625 41.863281 33.496094 41.710938 33.167969 C 41.554688 32.835938 41.164062 32.695312 40.832031 32.847656 C 40.5625 32.976562 40.261719 33.042969 39.964844 33.046875 C 39.566406 33.054688 39.25 32.941406 39.054688 32.847656 C 38.722656 32.695312 38.332031 32.835938 38.175781 33.167969 C 38.023438 33.496094 38.164062 33.890625 38.496094 34.042969 C 38.945312 34.253906 39.445312 34.367188 39.945312 34.367188 C 40.441406 34.367188 40.941406 34.253906 41.390625 34.042969 Z M 34.925781 39.402344 L 38.792969 39.402344 C 39.15625 39.402344 39.453125 39.105469 39.453125 38.742188 C 39.453125 38.378906 39.15625 38.082031 38.792969 38.082031 L 34.925781 38.082031 C 34.5625 38.082031 34.265625 38.378906 34.265625 38.742188 C 34.265625 39.105469 34.5625 39.402344 34.925781 39.402344 Z M 29.371094 16.402344 C 28.769531 15.074219 27.34375 14.195312 25.761719 14.195312 C 24.402344 14.195312 23.203125 14.832031 22.5 15.789062 C 21.796875 14.832031 20.597656 14.195312 19.238281 14.195312 C 17.65625 14.195312 16.230469 15.074219 15.628906 16.402344 C 13.609375 16.554688 12.058594 18.082031 12.058594 19.953125 C 12.058594 20.53125 12.210938 21.105469 12.507812 21.613281 C 12.207031 22.242188 12.058594 22.90625 12.058594 23.59375 C 12.058594 25.613281 13.425781 27.460938 15.484375 28.234375 C 15.96875 29.753906 17.488281 30.800781 19.238281 30.800781 C 20.597656 30.800781 21.796875 30.167969 22.5 29.210938 C 23.203125 30.167969 24.402344 30.800781 25.761719 30.800781 C 27.511719 30.800781 29.03125 29.753906 29.515625 28.234375 C 31.574219 27.460938 32.941406 25.613281 32.941406 23.59375 C 32.941406 22.90625 32.792969 22.242188 32.492188 21.613281 C 32.789062 21.101562 32.941406 20.53125 32.941406 19.953125 C 32.941406 18.082031 31.390625 16.554688 29.371094 16.402344 Z M 21.839844 27.230469 C 21.839844 28.472656 20.671875 29.484375 19.238281 29.484375 C 17.960938 29.484375 17.011719 28.742188 16.699219 27.695312 C 16.703125 27.140625 16.988281 26.621094 17.484375 26.261719 C 17.78125 26.050781 17.847656 25.636719 17.632812 25.34375 C 17.417969 25.046875 17.007812 24.980469 16.710938 25.195312 C 16.128906 25.617188 15.71875 26.179688 15.515625 26.8125 C 14.199219 26.160156 13.375 24.945312 13.375 23.59375 C 13.375 22.535156 13.855469 21.480469 14.933594 21.109375 C 15.277344 20.992188 15.460938 20.617188 15.34375 20.273438 C 15.226562 19.925781 14.851562 19.746094 14.507812 19.863281 C 14.113281 19.996094 13.753906 20.195312 13.441406 20.441406 C 13.398438 20.28125 13.375 20.117188 13.375 19.953125 C 13.375 18.859375 14.308594 17.925781 15.515625 17.742188 C 15.632812 18.210938 15.863281 18.65625 16.191406 19.035156 C 16.433594 19.308594 16.851562 19.335938 17.125 19.097656 C 17.398438 18.859375 17.425781 18.441406 17.1875 18.167969 C 16.921875 17.863281 16.773438 17.503906 16.753906 17.125 C 17.179688 16.171875 18.027344 15.515625 19.238281 15.515625 C 20.671875 15.515625 21.839844 16.527344 21.839844 17.769531 Z M 30.066406 21.109375 C 31.113281 21.46875 31.625 22.257812 31.625 23.59375 C 31.625 24.945312 30.800781 26.160156 29.484375 26.8125 C 29.28125 26.179688 28.871094 25.613281 28.289062 25.195312 C 27.992188 24.980469 27.582031 25.046875 27.367188 25.34375 C 27.152344 25.636719 27.21875 26.050781 27.515625 26.261719 C 28.011719 26.621094 28.296875 27.140625 28.300781 27.695312 C 27.988281 28.730469 27.03125 29.484375 25.761719 29.484375 C 24.328125 29.484375 23.160156 28.472656 23.160156 27.230469 L 23.160156 17.769531 C 23.160156 16.527344 24.328125 15.515625 25.761719 15.515625 C 26.960938 15.515625 27.820312 16.167969 28.246094 17.125 C 28.226562 17.503906 28.078125 17.863281 27.8125 18.167969 C 27.574219 18.441406 27.601562 18.859375 27.875 19.097656 C 28.148438 19.335938 28.566406 19.308594 28.808594 19.035156 C 29.136719 18.65625 29.367188 18.210938 29.484375 17.742188 C 30.691406 17.925781 31.625 18.859375 31.625 19.953125 C 31.625 20.117188 31.601562 20.28125 31.558594 20.441406 C 31.246094 20.195312 30.886719 19.996094 30.492188 19.863281 C 30.148438 19.742188 29.773438 19.925781 29.65625 20.273438 C 29.539062 20.617188 29.722656 20.992188 30.066406 21.109375 Z M 18.867188 24.375 C 18.519531 24.488281 18.332031 24.859375 18.445312 25.207031 C 18.585938 25.648438 18.535156 26.136719 18.300781 26.578125 C 18.128906 26.898438 18.25 27.296875 18.570312 27.46875 C 18.886719 27.636719 19.289062 27.523438 19.460938 27.199219 C 19.871094 26.4375 19.953125 25.585938 19.699219 24.800781 C 19.585938 24.453125 19.210938 24.261719 18.867188 24.375 Z M 26.554688 25.207031 C 26.667969 24.859375 26.480469 24.488281 26.132812 24.375 C 25.785156 24.261719 25.414062 24.453125 25.300781 24.800781 C 25.046875 25.585938 25.128906 26.4375 25.539062 27.199219 C 25.710938 27.523438 26.113281 27.640625 26.429688 27.46875 C 26.75 27.296875 26.871094 26.898438 26.699219 26.578125 C 26.464844 26.136719 26.414062 25.648438 26.554688 25.207031 Z M 25.890625 18.714844 C 25.542969 18.828125 25.355469 19.203125 25.472656 19.546875 C 25.632812 20.023438 25.601562 20.511719 25.382812 20.921875 C 25.214844 21.246094 25.339844 21.644531 25.660156 21.8125 C 25.976562 21.980469 26.378906 21.863281 26.550781 21.535156 C 26.933594 20.804688 26.996094 19.949219 26.722656 19.128906 C 26.605469 18.785156 26.234375 18.597656 25.890625 18.714844 Z M 25.890625 18.714844 "/>
</g>
</svg>
