<?xml version="1.0" encoding="UTF-8"?>
<svg xmlns="http://www.w3.org/2000/svg" xmlns:xlink="http://www.w3.org/1999/xlink" width="70px" height="70px" viewBox="0 0 70 70" version="1.1">
<g id="surface1">
<path style=" stroke:none;fill-rule:nonzero;fill:rgb(0%,0%,0%);fill-opacity:1;" d="M 18.492188 25.746094 C 17.925781 25.746094 17.46875 25.289062 17.46875 24.722656 L 17.46875 23.765625 C 17.46875 23.199219 17.925781 22.738281 18.492188 22.738281 C 19.058594 22.738281 19.519531 23.199219 19.519531 23.765625 L 19.519531 24.722656 C 19.519531 25.289062 19.058594 25.746094 18.492188 25.746094 Z M 18.492188 25.746094 "/>
<path style=" stroke:none;fill-rule:nonzero;fill:rgb(0%,0%,0%);fill-opacity:1;" d="M 27.332031 25.746094 C 26.765625 25.746094 26.308594 25.289062 26.308594 24.722656 L 26.308594 23.765625 C 26.308594 23.199219 26.765625 22.738281 27.332031 22.738281 C 27.898438 22.738281 28.359375 23.199219 28.359375 23.765625 L 28.359375 24.722656 C 28.359375 25.289062 27.898438 25.746094 27.332031 25.746094 Z M 27.332031 25.746094 "/>
<path style=" stroke:none;fill-rule:nonzero;fill:rgb(0%,0%,0%);fill-opacity:1;" d="M 22.910156 33.171875 C 21.804688 33.171875 20.761719 32.738281 19.976562 31.953125 C 19.578125 31.554688 19.578125 30.902344 19.976562 30.503906 C 20.378906 30.101562 21.027344 30.105469 21.425781 30.503906 C 21.824219 30.902344 22.351562 31.121094 22.910156 31.121094 C 23.472656 31.121094 24 30.902344 24.394531 30.503906 C 24.796875 30.105469 25.445312 30.105469 25.84375 30.503906 C 26.246094 30.90625 26.246094 31.554688 25.84375 31.953125 C 25.0625 32.738281 24.019531 33.171875 22.910156 33.171875 Z M 22.910156 33.171875 "/>
<path style=" stroke:none;fill-rule:nonzero;fill:rgb(0%,0%,0%);fill-opacity:1;" d="M 70 48.902344 L 70 33.464844 C 70 33.003906 69.898438 32.4375 69.121094 32.132812 C 69.097656 32.125 69.074219 32.117188 69.046875 32.109375 C 65.824219 31.125 60.867188 31.160156 57.757812 32.1875 C 55.304688 32.996094 51.335938 33.097656 48.515625 32.460938 L 48.515625 29.980469 C 48.515625 29.050781 47.757812 28.292969 46.828125 28.292969 L 43.546875 28.292969 C 42.617188 28.292969 41.859375 29.050781 41.859375 29.980469 L 41.859375 35.890625 C 41.859375 36.457031 42.320312 36.917969 42.886719 36.917969 C 43.453125 36.917969 43.910156 36.457031 43.910156 35.890625 L 43.910156 30.34375 L 46.464844 30.34375 L 46.464844 53.816406 L 43.910156 53.816406 L 43.910156 40.628906 C 43.910156 40.0625 43.453125 39.601562 42.886719 39.601562 C 42.320312 39.601562 41.859375 40.0625 41.859375 40.628906 L 41.859375 46.277344 C 41.058594 45.648438 40.136719 45.171875 39.117188 44.859375 L 34.703125 43.496094 L 32.957031 41.859375 C 32.449219 41.382812 31.671875 40.84375 30.5625 41.253906 L 30.5625 37.265625 C 33.164062 35.253906 35.257812 32.480469 36.296875 29.65625 C 38.953125 29.539062 41.558594 27.996094 41.558594 25.175781 L 41.558594 24.019531 C 41.558594 22.3125 40.164062 20.921875 38.449219 20.921875 L 37.160156 20.921875 L 37.972656 15.082031 C 38.425781 11.835938 37.71875 9.035156 35.933594 6.980469 C 34.109375 4.886719 31.230469 3.683594 28.03125 3.683594 L 25.039062 3.683594 C 24.472656 3.683594 24.011719 4.144531 24.011719 4.710938 C 24.011719 5.277344 24.472656 5.734375 25.039062 5.734375 L 28.03125 5.734375 C 30.636719 5.734375 32.953125 6.679688 34.386719 8.328125 C 35.792969 9.941406 36.316406 12.117188 35.941406 14.796875 L 35.089844 20.921875 L 33.828125 20.921875 C 33.535156 20.921875 33.285156 20.671875 33.285156 20.371094 L 33.285156 18.804688 C 33.285156 16.507812 31.417969 14.636719 29.121094 14.636719 L 16.488281 14.636719 C 14.191406 14.636719 12.320312 16.507812 12.320312 18.804688 L 12.320312 20.371094 C 12.320312 20.671875 12.070312 20.921875 11.777344 20.921875 L 10.519531 20.921875 L 9.664062 14.796875 C 9.292969 12.121094 9.816406 9.941406 11.21875 8.328125 C 12.652344 6.679688 14.972656 5.734375 17.578125 5.734375 L 20.308594 5.734375 C 20.875 5.734375 21.332031 5.277344 21.332031 4.710938 C 21.332031 4.144531 20.875 3.683594 20.308594 3.683594 L 17.578125 3.683594 C 14.378906 3.683594 11.496094 4.886719 9.671875 6.980469 C 7.886719 9.035156 7.179688 11.835938 7.632812 15.082031 L 8.445312 20.921875 L 7.15625 20.921875 C 5.441406 20.921875 4.046875 22.3125 4.046875 24.019531 L 4.046875 25.175781 C 4.046875 27.992188 6.652344 29.535156 9.3125 29.65625 C 10.355469 32.480469 12.445312 35.253906 15.046875 37.265625 L 15.046875 41.253906 C 13.933594 40.84375 13.15625 41.382812 12.648438 41.859375 L 10.90625 43.496094 L 6.492188 44.855469 C 2.429688 46.109375 0 50.003906 0 55.273438 L 0 63.203125 C 0 64.140625 0.761719 64.898438 1.699219 64.898438 L 40.230469 64.898438 C 40.808594 65.753906 41.78125 66.3125 42.886719 66.3125 L 47.492188 66.3125 C 49.253906 66.3125 50.691406 64.878906 50.691406 63.113281 L 50.691406 57.015625 C 50.691406 55.609375 49.777344 54.414062 48.515625 53.984375 L 48.515625 50.660156 C 49.785156 50.90625 51.207031 51.03125 52.628906 51.03125 C 54.722656 51.03125 56.8125 50.765625 58.402344 50.242188 C 61.054688 49.363281 65.378906 49.308594 68.246094 50.113281 L 68.335938 50.140625 C 68.621094 50.222656 69.105469 50.359375 69.554688 50.015625 C 70.007812 49.671875 70.003906 49.171875 70 48.902344 Z M 6.097656 25.175781 L 6.097656 24.019531 C 6.097656 23.441406 6.574219 22.972656 7.15625 22.972656 L 8.601562 22.972656 L 8.601562 25.941406 C 8.601562 26.464844 8.648438 27 8.742188 27.535156 C 7.324219 27.296875 6.097656 26.492188 6.097656 25.175781 Z M 31.074219 43.273438 C 31.203125 43.195312 31.28125 43.167969 31.3125 43.160156 C 31.34375 43.179688 31.414062 43.226562 31.554688 43.355469 L 32.820312 44.542969 L 28.664062 50.429688 L 24.589844 47.136719 Z M 25.609375 50.597656 L 24.507812 52.660156 C 24.484375 52.703125 24.460938 52.746094 24.441406 52.789062 L 21.15625 52.789062 L 19.996094 50.597656 L 22.804688 48.328125 Z M 17.097656 42.414062 L 17.097656 38.628906 C 17.765625 39 18.449219 39.324219 19.148438 39.582031 C 20.488281 40.078125 21.648438 40.308594 22.804688 40.308594 C 23.960938 40.308594 25.121094 40.078125 26.460938 39.582031 C 27.160156 39.324219 27.84375 39 28.511719 38.628906 L 28.511719 42.414062 L 22.804688 45.816406 Z M 39.507812 24.019531 L 39.507812 25.175781 C 39.507812 26.496094 38.28125 27.300781 36.867188 27.535156 C 36.960938 27 37.007812 26.464844 37.007812 25.941406 L 37.007812 22.972656 L 38.449219 22.972656 C 39.035156 22.972656 39.507812 23.441406 39.507812 24.019531 Z M 11.054688 28.421875 C 11.042969 28.375 11.03125 28.328125 11.015625 28.285156 C 10.78125 27.488281 10.652344 26.699219 10.652344 25.941406 L 10.652344 22.972656 L 11.777344 22.972656 C 13.207031 22.972656 14.371094 21.804688 14.371094 20.371094 L 14.371094 18.804688 C 14.371094 17.636719 15.320312 16.6875 16.488281 16.6875 L 29.121094 16.6875 C 30.285156 16.6875 31.234375 17.636719 31.234375 18.804688 L 31.234375 20.371094 C 31.234375 21.804688 32.398438 22.972656 33.828125 22.972656 L 34.957031 22.972656 L 34.957031 25.941406 C 34.957031 30.363281 30.65625 35.839844 25.75 37.660156 C 24.644531 38.066406 23.707031 38.257812 22.804688 38.257812 C 21.898438 38.257812 20.964844 38.066406 19.859375 37.660156 C 15.84375 36.167969 12.230469 32.226562 11.054688 28.421875 Z M 14.050781 43.355469 C 14.191406 43.222656 14.265625 43.175781 14.296875 43.160156 C 14.324219 43.167969 14.402344 43.195312 14.535156 43.273438 L 21.015625 47.136719 L 16.945312 50.429688 L 12.789062 44.542969 Z M 17.039062 62.851562 L 10.472656 62.851562 L 10.472656 58.28125 C 10.472656 57.714844 10.011719 57.257812 9.449219 57.257812 C 8.882812 57.257812 8.421875 57.714844 8.421875 58.28125 L 8.421875 62.851562 L 2.050781 62.851562 L 2.050781 55.273438 C 2.050781 53.199219 2.542969 48.21875 7.097656 46.816406 L 11.027344 45.605469 L 15.898438 52.503906 C 16.0625 52.738281 16.316406 52.890625 16.597656 52.929688 C 16.644531 52.9375 16.691406 52.9375 16.738281 52.9375 C 16.972656 52.9375 17.199219 52.859375 17.382812 52.710938 L 18.371094 51.914062 L 19.394531 53.847656 C 19.503906 54.050781 19.636719 54.226562 19.792969 54.371094 Z M 19.195312 62.851562 L 21.796875 54.839844 L 23.8125 54.839844 L 26.414062 62.851562 Z M 39.6875 57.015625 L 39.6875 62.851562 L 37.1875 62.851562 L 37.1875 58.28125 C 37.1875 57.714844 36.726562 57.257812 36.164062 57.257812 C 35.597656 57.257812 35.136719 57.714844 35.136719 58.28125 L 35.136719 62.851562 L 28.570312 62.851562 L 25.820312 54.378906 C 26.042969 54.148438 26.179688 53.886719 26.261719 53.726562 C 26.28125 53.695312 26.296875 53.660156 26.316406 53.625 L 27.234375 51.910156 L 28.226562 52.710938 C 28.410156 52.859375 28.636719 52.9375 28.871094 52.9375 C 28.917969 52.9375 28.964844 52.9375 29.011719 52.929688 C 29.292969 52.890625 29.546875 52.738281 29.710938 52.503906 L 34.582031 45.605469 L 38.511719 46.816406 C 39.902344 47.246094 41.023438 48.046875 41.859375 49.210938 L 41.859375 53.984375 C 40.597656 54.414062 39.6875 55.609375 39.6875 57.015625 Z M 48.640625 57.015625 L 48.640625 63.113281 C 48.640625 63.738281 48.113281 64.261719 47.492188 64.261719 L 42.886719 64.261719 C 42.253906 64.261719 41.738281 63.75 41.738281 63.113281 L 41.738281 57.015625 C 41.738281 56.382812 42.253906 55.867188 42.886719 55.867188 L 47.492188 55.867188 C 48.125 55.867188 48.640625 56.382812 48.640625 57.015625 Z M 67.949219 47.929688 C 64.757812 47.242188 60.539062 47.375 57.757812 48.292969 C 55.300781 49.105469 51.332031 49.203125 48.515625 48.566406 L 48.515625 34.558594 C 51.652344 35.164062 55.730469 35.015625 58.402344 34.132812 C 60.960938 33.289062 65.113281 33.214844 67.949219 33.929688 Z M 67.949219 47.929688 "/>
</g>
</svg>
