<?xml version="1.0" encoding="UTF-8"?>
<svg xmlns="http://www.w3.org/2000/svg" xmlns:xlink="http://www.w3.org/1999/xlink" width="45px" height="45px" viewBox="0 0 45 45" version="1.1">
<g id="surface1">
<path style=" stroke:none;fill-rule:nonzero;fill:#21a96a;fill-opacity:1;" d="M 34.015625 39.003906 C 34.25 39.3125 34.191406 39.753906 33.886719 39.988281 C 30.597656 42.519531 26.660156 43.859375 22.5 43.859375 C 18.339844 43.859375 14.402344 42.519531 11.113281 39.988281 C 10.808594 39.753906 10.75 39.3125 10.984375 39.003906 C 11.222656 38.695312 11.664062 38.636719 11.972656 38.875 C 15.011719 41.214844 18.652344 42.453125 22.5 42.453125 C 26.347656 42.453125 29.988281 41.214844 33.027344 38.875 C 33.335938 38.636719 33.777344 38.695312 34.015625 39.003906 Z M 4.515625 24.316406 C 4.535156 24.316406 4.554688 24.316406 4.574219 24.316406 C 4.9375 24.316406 5.246094 24.042969 5.277344 23.675781 C 5.804688 17.496094 9.640625 12.042969 15.292969 9.445312 C 15.644531 9.28125 15.800781 8.867188 15.636719 8.511719 C 15.476562 8.160156 15.058594 8.003906 14.703125 8.167969 C 8.59375 10.976562 4.445312 16.871094 3.875 23.554688 C 3.839844 23.941406 4.128906 24.28125 4.515625 24.316406 Z M 29.707031 9.441406 C 35.359375 12.039062 39.195312 17.492188 39.722656 23.675781 C 39.753906 24.042969 40.0625 24.316406 40.425781 24.316406 C 40.445312 24.316406 40.464844 24.316406 40.484375 24.316406 C 40.871094 24.28125 41.160156 23.941406 41.125 23.554688 C 40.554688 16.871094 36.40625 10.972656 30.296875 8.164062 C 29.941406 8.003906 29.523438 8.15625 29.363281 8.511719 C 29.199219 8.863281 29.355469 9.28125 29.707031 9.441406 Z M 14.613281 20.800781 L 16.125 21.15625 C 16.480469 21.238281 16.78125 21.453125 16.976562 21.765625 C 17.089844 21.953125 17.15625 22.160156 17.175781 22.371094 L 18.78125 22.371094 C 17.925781 21.023438 17.355469 19.230469 17.355469 16.949219 C 17.355469 16.640625 17.558594 16.367188 17.855469 16.277344 L 22.296875 14.941406 C 22.429688 14.902344 22.570312 14.902344 22.703125 14.941406 L 27.144531 16.277344 C 27.441406 16.367188 27.644531 16.640625 27.644531 16.949219 C 27.644531 19.386719 26.992188 21.265625 26.039062 22.640625 L 26.714844 22.980469 C 27.113281 23.179688 27.507812 23.214844 27.921875 23.089844 L 27.855469 22.804688 C 27.769531 22.449219 27.832031 22.078125 28.023438 21.765625 C 28.21875 21.453125 28.519531 21.238281 28.875 21.15625 L 30.378906 20.800781 C 31.117188 20.632812 31.855469 21.089844 32.03125 21.820312 L 32.03125 21.824219 L 33.863281 29.632812 C 34.039062 30.367188 33.582031 31.105469 32.847656 31.28125 L 31.335938 31.636719 C 31.230469 31.660156 31.125 31.671875 31.019531 31.671875 C 30.769531 31.671875 30.523438 31.605469 30.304688 31.46875 C 30.1875 31.398438 30.085938 31.308594 29.996094 31.210938 C 29.699219 31.339844 29.390625 31.40625 29.089844 31.40625 C 29.085938 31.40625 29.082031 31.40625 29.074219 31.402344 C 29.011719 31.75 28.847656 32.082031 28.582031 32.347656 C 28.296875 32.632812 27.929688 32.8125 27.53125 32.863281 C 27.484375 33.246094 27.316406 33.617188 27.019531 33.910156 C 26.683594 34.25 26.230469 34.4375 25.746094 34.441406 C 25.746094 34.441406 25.742188 34.441406 25.742188 34.441406 C 25.417969 34.441406 25.105469 34.351562 24.832031 34.191406 C 24.753906 34.324219 24.660156 34.449219 24.550781 34.5625 C 24.199219 34.914062 23.734375 35.089844 23.269531 35.089844 C 22.808594 35.089844 22.351562 34.917969 22 34.570312 C 21.929688 34.683594 21.84375 34.789062 21.75 34.882812 C 21.410156 35.226562 20.957031 35.414062 20.472656 35.414062 C 19.988281 35.414062 19.535156 35.226562 19.195312 34.886719 L 15.203125 30.910156 C 15.089844 31.136719 14.917969 31.332031 14.695312 31.46875 C 14.476562 31.601562 14.230469 31.671875 13.980469 31.671875 C 13.875 31.671875 13.769531 31.660156 13.664062 31.636719 L 12.15625 31.28125 C 11.417969 31.105469 10.960938 30.367188 11.136719 29.632812 L 12.96875 21.820312 C 13.144531 21.089844 13.882812 20.628906 14.613281 20.800781 Z M 29.230469 22.515625 L 31.050781 30.257812 L 32.488281 29.921875 L 30.671875 22.175781 Z M 26.085938 24.238281 L 25.105469 23.746094 C 24.371094 24.464844 23.546875 24.964844 22.742188 25.257812 C 22.664062 25.289062 22.582031 25.300781 22.5 25.300781 C 22.417969 25.300781 22.335938 25.289062 22.257812 25.257812 C 21.777344 25.082031 21.289062 24.832031 20.816406 24.507812 L 18.875 26.6875 C 18.863281 26.699219 18.859375 26.707031 18.859375 26.707031 C 18.859375 26.707031 18.859375 26.714844 18.863281 26.726562 C 18.863281 26.738281 18.867188 26.746094 18.867188 26.746094 C 18.867188 26.746094 18.871094 26.75 18.882812 26.757812 C 19.550781 27.109375 20.359375 27.066406 20.996094 26.644531 L 22.148438 25.875 C 23.03125 25.289062 24.171875 25.398438 24.921875 26.148438 L 28.558594 29.777344 C 28.800781 30 29.121094 30.058594 29.425781 29.925781 L 29.515625 29.882812 L 28.242188 24.460938 C 27.980469 24.53125 27.714844 24.570312 27.449219 24.570312 C 26.984375 24.570312 26.527344 24.457031 26.085938 24.238281 Z M 18.773438 17.46875 C 18.933594 21.050781 20.734375 23.082031 22.5 23.84375 C 24.265625 23.082031 26.066406 21.050781 26.226562 17.46875 L 22.5 16.347656 Z M 15.613281 29.332031 L 20.1875 33.890625 C 20.265625 33.96875 20.363281 34.007812 20.472656 34.007812 C 20.535156 34.007812 20.652344 33.992188 20.753906 33.890625 C 20.828125 33.816406 20.871094 33.714844 20.871094 33.609375 C 20.871094 33.546875 20.855469 33.425781 20.753906 33.328125 C 20.652344 33.226562 19.394531 31.96875 19.394531 31.96875 C 19.121094 31.695312 19.121094 31.25 19.394531 30.976562 C 19.667969 30.699219 20.113281 30.699219 20.386719 30.976562 L 22.988281 33.570312 C 23.144531 33.726562 23.398438 33.726562 23.554688 33.570312 C 23.628906 33.492188 23.671875 33.390625 23.667969 33.285156 C 23.667969 33.222656 23.65625 33.105469 23.554688 33.007812 C 23.546875 33 23.539062 32.988281 23.53125 32.980469 L 21.140625 30.59375 C 20.863281 30.320312 20.863281 29.875 21.136719 29.601562 C 21.410156 29.324219 21.855469 29.324219 22.132812 29.597656 L 25.460938 32.917969 C 25.617188 33.074219 25.871094 33.074219 26.023438 32.917969 C 26.179688 32.761719 26.179688 32.503906 26.027344 32.351562 L 22.886719 29.21875 C 22.609375 28.945312 22.609375 28.5 22.882812 28.226562 C 23.160156 27.949219 23.601562 27.949219 23.878906 28.222656 L 27.019531 31.355469 C 27.09375 31.429688 27.195312 31.472656 27.300781 31.472656 C 27.363281 31.476562 27.484375 31.457031 27.585938 31.355469 C 27.738281 31.203125 27.738281 30.945312 27.585938 30.792969 C 27.574219 30.78125 27.5625 30.769531 27.550781 30.757812 L 23.929688 27.144531 C 23.660156 26.875 23.246094 26.832031 22.929688 27.042969 L 21.773438 27.816406 C 20.707031 28.523438 19.347656 28.59375 18.226562 28 C 17.828125 27.789062 17.558594 27.425781 17.476562 26.976562 C 17.398438 26.527344 17.519531 26.089844 17.828125 25.75 L 19.585938 23.777344 L 16.917969 23.777344 Z M 15.769531 22.515625 L 14.328125 22.175781 L 12.511719 29.921875 L 13.949219 30.257812 Z M 22.042969 21.867188 C 22.050781 21.867188 22.058594 21.867188 22.066406 21.867188 C 22.257812 21.859375 22.4375 21.777344 22.5625 21.636719 L 24.492188 19.523438 C 24.753906 19.234375 24.734375 18.789062 24.445312 18.527344 C 24.160156 18.265625 23.714844 18.289062 23.453125 18.574219 L 22.011719 20.15625 L 21.511719 19.675781 C 21.234375 19.40625 20.789062 19.414062 20.519531 19.695312 C 20.25 19.972656 20.257812 20.417969 20.539062 20.6875 L 21.554688 21.667969 C 21.6875 21.796875 21.863281 21.867188 22.042969 21.867188 Z M 16.820312 12.539062 L 16.820312 10.570312 C 16.820312 8.777344 18.226562 7.285156 20.058594 7.027344 C 19.550781 6.273438 19.289062 5.300781 19.289062 4.355469 C 19.289062 2.582031 20.730469 1.140625 22.5 1.140625 C 24.269531 1.140625 25.710938 2.582031 25.710938 4.355469 C 25.710938 5.300781 25.449219 6.273438 24.941406 7.027344 C 26.773438 7.285156 28.179688 8.777344 28.179688 10.570312 L 28.179688 12.539062 C 28.179688 12.925781 27.867188 13.242188 27.476562 13.242188 C 27.089844 13.242188 26.773438 12.925781 26.773438 12.539062 L 26.773438 10.570312 C 26.773438 9.371094 25.699219 8.394531 24.375 8.394531 L 20.625 8.394531 C 19.300781 8.394531 18.226562 9.371094 18.226562 10.570312 L 18.226562 12.539062 C 18.226562 12.925781 17.910156 13.242188 17.523438 13.242188 C 17.132812 13.242188 16.820312 12.925781 16.820312 12.539062 Z M 20.695312 4.355469 C 20.695312 5.449219 21.253906 6.988281 22.5 6.988281 C 23.863281 6.988281 24.304688 5.214844 24.304688 4.355469 C 24.304688 3.359375 23.496094 2.546875 22.5 2.546875 C 21.503906 2.546875 20.695312 3.359375 20.695312 4.355469 Z M 18.960938 10.898438 L 18.960938 12.539062 C 18.960938 12.925781 19.273438 13.242188 19.664062 13.242188 C 20.050781 13.242188 20.367188 12.925781 20.367188 12.539062 L 20.367188 10.898438 C 20.367188 10.507812 20.050781 10.195312 19.664062 10.195312 C 19.273438 10.195312 18.960938 10.507812 18.960938 10.898438 Z M 24.632812 10.898438 L 24.632812 12.539062 C 24.632812 12.925781 24.949219 13.242188 25.335938 13.242188 C 25.726562 13.242188 26.039062 12.925781 26.039062 12.539062 L 26.039062 10.898438 C 26.039062 10.507812 25.726562 10.195312 25.335938 10.195312 C 24.949219 10.195312 24.632812 10.507812 24.632812 10.898438 Z M 11.097656 34.652344 C 11.097656 33.449219 10.023438 32.472656 8.699219 32.472656 L 4.949219 32.472656 C 3.625 32.472656 2.550781 33.449219 2.550781 34.652344 L 2.550781 36.621094 C 2.550781 37.007812 2.234375 37.324219 1.847656 37.324219 C 1.457031 37.324219 1.144531 37.007812 1.144531 36.621094 L 1.144531 34.652344 C 1.144531 32.855469 2.550781 31.367188 4.382812 31.109375 C 3.875 30.355469 3.613281 29.382812 3.613281 28.4375 C 3.613281 26.667969 5.054688 25.226562 6.824219 25.226562 C 8.59375 25.226562 10.035156 26.667969 10.035156 28.4375 C 10.035156 29.382812 9.773438 30.355469 9.269531 31.109375 C 11.097656 31.367188 12.503906 32.855469 12.503906 34.652344 L 12.503906 36.621094 C 12.503906 37.007812 12.191406 37.324219 11.800781 37.324219 C 11.414062 37.324219 11.097656 37.007812 11.097656 36.621094 Z M 5.019531 28.4375 C 5.019531 29.53125 5.578125 31.070312 6.824219 31.070312 C 8.1875 31.070312 8.628906 29.296875 8.628906 28.4375 C 8.628906 27.441406 7.820312 26.632812 6.824219 26.632812 C 5.828125 26.632812 5.019531 27.441406 5.019531 28.4375 Z M 9.664062 34.277344 C 9.273438 34.277344 8.960938 34.59375 8.960938 34.980469 L 8.960938 36.621094 C 8.960938 37.007812 9.273438 37.324219 9.664062 37.324219 C 10.050781 37.324219 10.367188 37.007812 10.367188 36.621094 L 10.367188 34.980469 C 10.367188 34.59375 10.050781 34.277344 9.664062 34.277344 Z M 3.984375 34.277344 C 3.597656 34.277344 3.28125 34.59375 3.28125 34.980469 L 3.28125 36.621094 C 3.28125 37.007812 3.597656 37.324219 3.984375 37.324219 C 4.371094 37.324219 4.6875 37.007812 4.6875 36.621094 L 4.6875 34.980469 C 4.6875 34.59375 4.371094 34.277344 3.984375 34.277344 Z M 43.855469 34.652344 L 43.855469 36.621094 C 43.855469 37.007812 43.542969 37.324219 43.152344 37.324219 C 42.765625 37.324219 42.449219 37.007812 42.449219 36.621094 L 42.449219 34.652344 C 42.449219 33.449219 41.375 32.472656 40.050781 32.472656 L 36.300781 32.472656 C 34.976562 32.472656 33.902344 33.449219 33.902344 34.652344 L 33.902344 36.621094 C 33.902344 37.007812 33.585938 37.324219 33.199219 37.324219 C 32.808594 37.324219 32.496094 37.007812 32.496094 36.621094 L 32.496094 34.652344 C 32.496094 32.855469 33.902344 31.367188 35.730469 31.109375 C 35.226562 30.355469 34.964844 29.382812 34.964844 28.4375 C 34.964844 26.667969 36.40625 25.226562 38.175781 25.226562 C 39.945312 25.226562 41.386719 26.667969 41.386719 28.4375 C 41.386719 29.382812 41.125 30.355469 40.617188 31.109375 C 42.449219 31.367188 43.855469 32.855469 43.855469 34.652344 Z M 36.371094 28.4375 C 36.371094 29.296875 36.8125 31.070312 38.175781 31.070312 C 39.421875 31.070312 39.980469 29.53125 39.980469 28.4375 C 39.980469 27.441406 39.171875 26.632812 38.175781 26.632812 C 37.179688 26.632812 36.371094 27.441406 36.371094 28.4375 Z M 35.335938 34.277344 C 34.949219 34.277344 34.632812 34.59375 34.632812 34.980469 L 34.632812 36.621094 C 34.632812 37.007812 34.949219 37.324219 35.335938 37.324219 C 35.726562 37.324219 36.039062 37.007812 36.039062 36.621094 L 36.039062 34.980469 C 36.039062 34.59375 35.726562 34.277344 35.335938 34.277344 Z M 41.011719 34.277344 C 40.625 34.277344 40.308594 34.59375 40.308594 34.980469 L 40.308594 36.621094 C 40.308594 37.007812 40.625 37.324219 41.011719 37.324219 C 41.402344 37.324219 41.714844 37.007812 41.714844 36.621094 L 41.714844 34.980469 C 41.714844 34.59375 41.402344 34.277344 41.011719 34.277344 Z M 41.011719 34.277344 "/>
</g>
</svg>
