<?xml version="1.0" encoding="UTF-8"?>
<svg xmlns="http://www.w3.org/2000/svg" xmlns:xlink="http://www.w3.org/1999/xlink" width="70px" height="70px" viewBox="0 0 70 70" version="1.1">
<g id="surface1">
<path style=" stroke:none;fill-rule:nonzero;fill:rgb(0%,0%,0%);fill-opacity:1;" d="M 56.703125 50.191406 C 55.257812 49.621094 53.3125 49.554688 50.929688 49.996094 L 41.832031 51.679688 C 44.914062 49.039062 47.683594 45.1875 47.683594 40.945312 L 47.683594 30.929688 C 47.683594 30.488281 47.378906 30.101562 46.945312 30 C 44.296875 29.375 41.675781 28.21875 39.152344 26.554688 C 38.996094 26.453125 38.8125 26.398438 38.625 26.398438 L 32.074219 26.398438 C 31.886719 26.398438 31.707031 26.453125 31.550781 26.554688 C 29.027344 28.21875 26.402344 29.375 23.753906 30 C 23.324219 30.101562 23.015625 30.488281 23.015625 30.929688 L 23.015625 40.945312 C 23.019531 41.792969 23.128906 42.632812 23.339844 43.453125 C 21.597656 43.476562 19.910156 44.039062 17.941406 44.765625 C 15.535156 45.648438 13.136719 46.5 10.703125 47.355469 L 10.636719 47.125 C 10.210938 45.714844 8.722656 44.914062 7.3125 45.332031 L 3.140625 46.582031 C 2.460938 46.78125 1.886719 47.246094 1.550781 47.871094 C 1.214844 48.496094 1.140625 49.230469 1.347656 49.910156 L 6.4375 66.867188 C 6.859375 68.277344 8.347656 69.082031 9.761719 68.65625 L 13.929688 67.410156 C 14.613281 67.210938 15.183594 66.746094 15.523438 66.121094 C 15.859375 65.496094 15.933594 64.761719 15.726562 64.082031 L 15.238281 62.464844 L 18.972656 61.101562 C 19.890625 60.746094 20.910156 60.765625 21.816406 61.148438 L 29.886719 64.417969 C 30.792969 64.769531 31.757812 64.941406 32.726562 64.921875 C 34.6875 64.921875 36.730469 64.359375 38.488281 63.875 C 38.664062 63.828125 38.839844 63.777344 39.011719 63.730469 L 55.238281 59.320312 C 57.933594 58.585938 59.859375 55.589844 59.277344 53.035156 C 58.980469 51.742188 58.066406 50.734375 56.703125 50.191406 Z M 24.929688 31.675781 C 27.566406 30.945312 30.070312 29.808594 32.359375 28.3125 L 38.339844 28.3125 C 40.628906 29.808594 43.136719 30.945312 45.769531 31.675781 L 45.769531 40.945312 C 45.769531 44.277344 43.429688 48.105469 39.730469 50.921875 C 39.222656 50.238281 38.53125 49.714844 37.734375 49.414062 L 30.558594 46.679688 C 28.691406 45.0625 27.050781 44.109375 25.40625 43.695312 C 25.101562 42.8125 24.941406 41.882812 24.933594 40.945312 Z M 13.835938 65.210938 C 13.738281 65.390625 13.578125 65.519531 13.382812 65.578125 L 9.214844 66.824219 C 8.8125 66.941406 8.390625 66.714844 8.269531 66.316406 L 3.179688 49.359375 C 3.121094 49.164062 3.140625 48.957031 3.238281 48.777344 C 3.332031 48.601562 3.496094 48.46875 3.691406 48.414062 L 7.859375 47.167969 C 7.929688 47.148438 8.003906 47.136719 8.078125 47.136719 C 8.410156 47.136719 8.707031 47.355469 8.804688 47.675781 L 13.890625 64.632812 C 13.953125 64.824219 13.929688 65.035156 13.835938 65.210938 Z M 54.734375 57.472656 L 38.507812 61.886719 C 38.335938 61.933594 38.160156 61.980469 37.980469 62.03125 C 35.621094 62.679688 32.6875 63.488281 30.605469 62.644531 L 22.535156 59.375 C 21.1875 58.8125 19.679688 58.785156 18.3125 59.300781 L 14.6875 60.625 L 11.257812 49.191406 C 13.726562 48.324219 16.15625 47.460938 18.605469 46.5625 C 22.84375 45 25.074219 44.421875 29.429688 48.234375 C 29.515625 48.308594 29.613281 48.367188 29.71875 48.40625 L 37.050781 51.203125 C 38.394531 51.714844 39.066406 53.214844 38.554688 54.558594 C 38.042969 55.898438 36.542969 56.574219 35.199219 56.0625 L 25.453125 52.347656 C 25.136719 52.226562 24.773438 52.28125 24.507812 52.5 C 24.242188 52.714844 24.113281 53.054688 24.167969 53.394531 C 24.222656 53.730469 24.453125 54.015625 24.773438 54.136719 L 34.519531 57.851562 C 35.871094 58.367188 37.386719 58.199219 38.597656 57.410156 C 39.808594 56.617188 40.566406 55.292969 40.636719 53.847656 L 51.277344 51.878906 C 54.746094 51.234375 57.039062 51.828125 57.410156 53.460938 C 57.765625 55.023438 56.441406 57.007812 54.734375 57.472656 Z M 68.652344 20.09375 L 63.5625 3.136719 C 63.136719 1.722656 61.652344 0.921875 60.238281 1.34375 L 56.070312 2.589844 C 55.386719 2.789062 54.816406 3.253906 54.480469 3.878906 C 54.140625 4.503906 54.070312 5.238281 54.273438 5.917969 L 54.761719 7.535156 L 51.027344 8.898438 C 50.109375 9.253906 49.089844 9.234375 48.183594 8.851562 L 40.113281 5.582031 C 37.429688 4.496094 34.148438 5.398438 31.511719 6.125 C 31.335938 6.171875 31.160156 6.222656 30.988281 6.269531 L 14.761719 10.679688 C 12.066406 11.414062 10.140625 14.410156 10.722656 16.964844 C 11.019531 18.257812 11.933594 19.265625 13.296875 19.808594 C 14.742188 20.378906 16.6875 20.445312 19.070312 20.003906 L 29.683594 18.039062 C 30.148438 19.214844 31.085938 20.136719 32.265625 20.585938 L 39.441406 23.320312 C 41.816406 25.375 43.824219 26.363281 45.933594 26.523438 C 46.140625 26.539062 46.347656 26.546875 46.554688 26.546875 C 48.335938 26.546875 50.046875 25.976562 52.054688 25.234375 C 54.457031 24.351562 56.855469 23.503906 59.292969 22.644531 L 59.363281 22.875 C 59.785156 24.289062 61.273438 25.089844 62.6875 24.667969 L 66.859375 23.421875 C 67.539062 23.21875 68.109375 22.753906 68.449219 22.128906 C 68.785156 21.503906 68.859375 20.769531 68.652344 20.089844 Z M 51.394531 23.441406 C 47.15625 25 44.925781 25.578125 40.570312 21.765625 C 40.484375 21.691406 40.386719 21.632812 40.28125 21.59375 L 32.949219 18.796875 C 32.074219 18.472656 31.445312 17.703125 31.292969 16.78125 C 31.144531 15.859375 31.5 14.929688 32.222656 14.34375 C 32.949219 13.757812 33.929688 13.601562 34.800781 13.9375 L 44.546875 17.652344 C 45.039062 17.839844 45.589844 17.589844 45.777344 17.097656 C 45.964844 16.605469 45.71875 16.054688 45.226562 15.863281 L 35.480469 12.148438 C 34.128906 11.636719 32.613281 11.800781 31.402344 12.589844 C 30.191406 13.382812 29.433594 14.707031 29.363281 16.152344 L 18.722656 18.121094 C 15.253906 18.765625 12.960938 18.171875 12.589844 16.539062 C 12.234375 14.976562 13.558594 12.992188 15.265625 12.527344 L 31.492188 8.113281 C 31.664062 8.066406 31.839844 8.019531 32.019531 7.96875 C 34.378906 7.320312 37.3125 6.511719 39.394531 7.355469 L 47.464844 10.625 C 48.8125 11.1875 50.320312 11.214844 51.6875 10.699219 L 55.3125 9.375 L 58.742188 20.808594 C 56.269531 21.679688 53.835938 22.542969 51.394531 23.441406 Z M 66.761719 21.222656 C 66.667969 21.398438 66.503906 21.53125 66.308594 21.585938 L 62.140625 22.832031 C 61.738281 22.953125 61.316406 22.726562 61.195312 22.324219 L 56.109375 5.367188 C 56.046875 5.175781 56.066406 4.964844 56.164062 4.789062 C 56.257812 4.609375 56.421875 4.480469 56.617188 4.421875 L 60.785156 3.175781 C 61.1875 3.058594 61.609375 3.285156 61.730469 3.683594 L 66.820312 20.640625 C 66.878906 20.835938 66.859375 21.042969 66.761719 21.222656 Z M 28.859375 39.039062 C 28.660156 38.753906 28.632812 38.386719 28.78125 38.074219 C 28.933594 37.761719 29.238281 37.558594 29.585938 37.535156 C 29.929688 37.515625 30.261719 37.683594 30.449219 37.972656 L 32.839844 41.535156 L 40.445312 35.359375 C 40.710938 35.136719 41.074219 35.078125 41.394531 35.199219 C 41.71875 35.320312 41.949219 35.605469 42.003906 35.945312 C 42.054688 36.285156 41.921875 36.628906 41.652344 36.84375 L 33.230469 43.679688 C 33.023438 43.851562 32.753906 43.921875 32.488281 43.882812 C 32.21875 43.84375 31.984375 43.695312 31.832031 43.472656 Z M 28.859375 39.039062 "/>
</g>
</svg>
