<?xml version="1.0" encoding="UTF-8"?>
<svg xmlns="http://www.w3.org/2000/svg" xmlns:xlink="http://www.w3.org/1999/xlink" width="40px" height="40px" viewBox="0 0 40 40" version="1.1">
<g id="surface1">
<path style=" stroke:none;fill-rule:nonzero;fill:rgb(0%,0%,0%);fill-opacity:1;" d="M 11.554688 16.023438 C 11.609375 16.714844 11.355469 18.230469 11.898438 18.78125 C 12.117188 19.042969 12.503906 19.082031 12.769531 18.867188 C 13.035156 18.652344 13.078125 18.265625 12.871094 17.996094 C 12.722656 17.972656 12.835938 16.132812 12.800781 16.027344 C 12.804688 14.820312 13.574219 13.753906 14.714844 13.375 L 18.410156 12.140625 C 19.4375 11.800781 20.542969 11.800781 21.566406 12.140625 L 25.265625 13.375 C 26.40625 13.753906 27.179688 14.820312 27.179688 16.023438 L 27.179688 17.789062 C 27.179688 17.863281 27.152344 17.9375 27.109375 17.996094 C 26.898438 18.269531 26.949219 18.660156 27.222656 18.871094 C 27.910156 19.355469 28.460938 18.410156 28.425781 17.789062 L 28.425781 16.023438 C 28.425781 14.285156 27.3125 12.742188 25.660156 12.191406 L 22.515625 11.140625 C 26.414062 8.683594 24.664062 2.496094 19.992188 2.5 C 15.316406 2.5 13.566406 8.679688 17.464844 11.140625 L 14.320312 12.191406 C 12.667969 12.742188 11.554688 14.285156 11.554688 16.023438 Z M 16.546875 7.191406 C 16.691406 2.640625 23.292969 2.640625 23.4375 7.191406 C 23.289062 11.746094 16.691406 11.742188 16.546875 7.191406 Z M 16.546875 7.191406 "/>
<path style=" stroke:none;fill-rule:nonzero;fill:rgb(0%,0%,0%);fill-opacity:1;" d="M 35.148438 11.835938 L 32.835938 11.066406 C 34.199219 10.070312 34.769531 8.304688 34.246094 6.699219 C 33.71875 5.089844 32.222656 4.003906 30.53125 4.003906 C 28.839844 4.003906 27.339844 5.09375 26.816406 6.699219 C 26.292969 8.308594 26.863281 10.070312 28.226562 11.066406 C 28.007812 11.125 27.839844 11.296875 27.785156 11.519531 C 27.730469 11.738281 27.800781 11.96875 27.964844 12.125 C 28.128906 12.277344 28.363281 12.332031 28.578125 12.261719 C 29.195312 12.007812 29.847656 11.859375 30.515625 11.824219 C 31.40625 11.75 33.878906 12.773438 34.75 13.019531 C 35.625 13.3125 36.214844 14.128906 36.214844 15.050781 L 36.214844 16.472656 L 30.296875 16.644531 C 29.953125 16.644531 29.671875 16.921875 29.671875 17.265625 C 29.671875 17.609375 29.953125 17.890625 30.296875 17.890625 L 36.054688 17.890625 C 36.835938 17.886719 37.464844 17.253906 37.464844 16.472656 L 37.464844 15.050781 C 37.464844 13.59375 36.53125 12.296875 35.148438 11.835938 Z M 30.519531 10.574219 C 29.0625 10.558594 27.890625 9.367188 27.890625 7.910156 C 27.894531 6.449219 29.070312 5.265625 30.53125 5.25 C 31.988281 5.269531 33.160156 6.460938 33.160156 7.917969 C 33.15625 9.378906 31.980469 10.5625 30.519531 10.574219 Z M 30.519531 10.574219 "/>
<path style=" stroke:none;fill-rule:nonzero;fill:rgb(0%,0%,0%);fill-opacity:1;" d="M 10.308594 17.265625 C 10.308594 16.921875 10.027344 16.644531 9.683594 16.644531 L 3.945312 16.644531 L 3.785156 15.050781 C 3.785156 14.128906 4.371094 13.3125 5.246094 13.019531 L 8.226562 12.027344 C 9.28125 11.710938 10.414062 11.796875 11.410156 12.257812 C 11.734375 12.359375 12.078125 12.179688 12.1875 11.859375 C 12.292969 11.535156 12.121094 11.1875 11.800781 11.074219 C 12.777344 10.3125 13.359375 9.152344 13.378906 7.914062 C 13.378906 6.070312 12.09375 4.476562 10.289062 4.089844 C 8.488281 3.703125 6.660156 4.632812 5.90625 6.3125 C 5.152344 7.996094 5.675781 9.976562 7.164062 11.066406 L 4.851562 11.835938 C 3.46875 12.300781 2.535156 13.59375 2.535156 15.050781 L 2.535156 16.472656 C 2.535156 17.253906 3.164062 17.886719 3.945312 17.890625 L 9.683594 17.890625 C 10.027344 17.890625 10.308594 17.609375 10.308594 17.265625 Z M 9.46875 5.25 C 10.929688 5.265625 12.105469 6.453125 12.109375 7.910156 C 12.109375 9.371094 10.933594 10.558594 9.472656 10.578125 C 8.015625 10.5625 6.835938 9.375 6.835938 7.917969 C 6.835938 6.457031 8.007812 5.269531 9.46875 5.25 Z M 9.46875 5.25 "/>
<path style=" stroke:none;fill-rule:nonzero;fill:rgb(0%,0%,0%);fill-opacity:1;" d="M 28.484375 25.34375 C 28.269531 24.53125 27.957031 23.746094 27.550781 23.011719 C 27.839844 22.78125 28.019531 22.441406 28.042969 22.070312 C 28.066406 21.703125 27.929688 21.339844 27.671875 21.078125 L 26.441406 19.847656 C 26.167969 19.585938 25.796875 19.453125 25.421875 19.480469 C 25.042969 19.503906 24.695312 19.6875 24.457031 19.980469 C 23.734375 19.558594 22.957031 19.226562 22.152344 18.992188 C 22.195312 18.625 22.082031 18.257812 21.835938 17.980469 C 21.589844 17.703125 21.242188 17.542969 20.871094 17.542969 L 19.128906 17.542969 C 18.757812 17.542969 18.40625 17.699219 18.160156 17.976562 C 17.914062 18.273438 17.792969 18.652344 17.820312 19.039062 C 17.007812 19.25 16.226562 19.5625 15.488281 19.96875 C 15.261719 19.675781 14.921875 19.496094 14.550781 19.472656 C 14.183594 19.453125 13.820312 19.589844 13.558594 19.847656 L 12.328125 21.078125 C 12.066406 21.351562 11.933594 21.722656 11.957031 22.097656 C 11.984375 22.476562 12.167969 22.824219 12.460938 23.0625 C 12.039062 23.785156 11.707031 24.5625 11.472656 25.367188 C 11.105469 25.324219 10.734375 25.4375 10.457031 25.679688 C 10.179688 25.925781 10.019531 26.277344 10.019531 26.648438 L 10.019531 28.390625 C 10.019531 28.761719 10.179688 29.113281 10.457031 29.359375 C 10.753906 29.605469 11.132812 29.726562 11.515625 29.699219 C 11.730469 30.511719 12.042969 31.292969 12.449219 32.03125 C 12.15625 32.257812 11.976562 32.601562 11.953125 32.96875 C 11.929688 33.339844 12.066406 33.699219 12.328125 33.960938 L 13.558594 35.191406 C 13.832031 35.453125 14.203125 35.585938 14.578125 35.5625 C 14.957031 35.535156 15.304688 35.355469 15.542969 35.058594 C 16.265625 35.484375 17.042969 35.8125 17.847656 36.046875 C 17.804688 36.414062 17.917969 36.78125 18.164062 37.058594 C 18.410156 37.335938 18.757812 37.496094 19.128906 37.5 L 20.871094 37.5 C 21.242188 37.5 21.59375 37.339844 21.839844 37.0625 C 22.085938 36.769531 22.207031 36.386719 22.179688 36.003906 C 22.992188 35.789062 23.773438 35.476562 24.511719 35.070312 C 24.738281 35.363281 25.078125 35.542969 25.449219 35.566406 C 25.820312 35.589844 26.179688 35.453125 26.441406 35.191406 L 27.671875 33.960938 C 27.933594 33.6875 28.066406 33.320312 28.042969 32.941406 C 28.015625 32.566406 27.832031 32.214844 27.539062 31.980469 C 27.949219 31.246094 28.277344 30.472656 28.527344 29.671875 C 28.894531 29.714844 29.261719 29.601562 29.539062 29.355469 C 29.816406 29.113281 29.976562 28.761719 29.980469 28.390625 L 29.980469 26.648438 C 29.96875 26.273438 29.804688 25.914062 29.519531 25.667969 C 29.234375 25.417969 28.859375 25.300781 28.484375 25.34375 Z M 28.730469 28.390625 L 28.683594 28.433594 C 28.039062 28.351562 27.433594 28.761719 27.273438 29.390625 C 27.140625 30.613281 25.511719 31.953125 26.785156 33.015625 C 26.785156 33.015625 26.785156 33.078125 26.789062 33.082031 L 25.558594 34.308594 L 25.496094 34.304688 C 25.097656 33.792969 24.378906 33.65625 23.820312 33.988281 C 22.867188 34.753906 20.757812 34.554688 20.914062 36.203125 L 21.53125 36.125 L 20.871094 36.253906 L 19.128906 36.253906 L 19.085938 36.203125 C 19.167969 35.558594 18.757812 34.957031 18.128906 34.792969 C 17.445312 34.621094 16.785156 34.347656 16.179688 33.988281 C 15.621094 33.65625 14.902344 33.792969 14.503906 34.304688 C 14.503906 34.308594 14.441406 34.308594 14.441406 34.308594 L 13.210938 33.082031 L 12.769531 33.523438 L 13.214844 33.015625 C 13.726562 32.617188 13.863281 31.898438 13.53125 31.339844 C 12.769531 30.386719 12.964844 28.28125 11.316406 28.433594 L 11.269531 28.390625 L 11.269531 26.648438 L 11.316406 26.605469 C 11.960938 26.6875 12.5625 26.277344 12.726562 25.648438 C 12.898438 24.964844 13.171875 24.308594 13.53125 23.699219 C 13.863281 23.140625 13.726562 22.425781 13.214844 22.027344 C 13.214844 22.023438 13.214844 21.960938 13.210938 21.960938 L 14.441406 20.730469 L 14.503906 20.734375 C 15.566406 22.007812 16.910156 20.382812 18.128906 20.246094 C 18.757812 20.085938 19.167969 19.480469 19.085938 18.835938 L 19.128906 18.789062 L 20.871094 18.789062 L 20.914062 18.839844 C 20.832031 19.480469 21.242188 20.085938 21.871094 20.246094 C 22.554688 20.421875 23.214844 20.691406 23.820312 21.054688 C 24.378906 21.382812 25.097656 21.246094 25.496094 20.734375 C 25.496094 20.734375 25.558594 20.734375 25.558594 20.730469 L 26.789062 21.960938 L 26.785156 22.027344 C 25.511719 23.085938 27.136719 24.429688 27.273438 25.648438 C 27.4375 26.277344 28.039062 26.6875 28.683594 26.605469 L 28.730469 26.648438 Z M 28.730469 28.390625 "/>
<path style=" stroke:none;fill-rule:nonzero;fill:rgb(0%,0%,0%);fill-opacity:1;" d="M 20 21.8125 C 16.847656 21.8125 14.292969 24.367188 14.292969 27.519531 C 14.292969 30.671875 16.847656 33.230469 20 33.230469 C 23.152344 33.230469 25.707031 30.671875 25.707031 27.519531 C 25.703125 24.371094 23.152344 21.816406 20 21.8125 Z M 20 31.980469 C 17.535156 31.980469 15.539062 29.984375 15.539062 27.519531 C 15.539062 25.058594 17.535156 23.058594 20 23.058594 C 22.464844 23.058594 24.460938 25.058594 24.460938 27.519531 C 24.457031 29.984375 22.460938 31.980469 20 31.980469 Z M 20 31.980469 "/>
<path style=" stroke:none;fill-rule:nonzero;fill:rgb(0%,0%,0%);fill-opacity:1;" d="M 21.429688 25.832031 L 19.375 27.886719 L 18.570312 27.078125 C 18.328125 26.835938 17.929688 26.835938 17.6875 27.078125 C 17.445312 27.324219 17.445312 27.71875 17.6875 27.960938 L 18.933594 29.207031 C 19.179688 29.453125 19.574219 29.453125 19.816406 29.207031 L 22.3125 26.714844 C 22.554688 26.46875 22.554688 26.074219 22.3125 25.832031 C 22.070312 25.589844 21.671875 25.589844 21.429688 25.832031 Z M 21.429688 25.832031 "/>
</g>
</svg>
