<?xml version="1.0" encoding="UTF-8"?>
<svg xmlns="http://www.w3.org/2000/svg" xmlns:xlink="http://www.w3.org/1999/xlink" width="70px" height="70px" viewBox="0 0 70 70" version="1.1">
<g id="surface1">
<path style=" stroke:none;fill-rule:nonzero;fill:rgb(0%,0%,0%);fill-opacity:1;" d="M 54.660156 56.421875 C 54.179688 56.867188 53.675781 57.292969 53.160156 57.703125 L 53.160156 56.839844 C 53.160156 53.78125 51.074219 51.183594 48.085938 50.523438 L 45.136719 49.871094 L 44.097656 48.121094 C 43.632812 47.332031 42.808594 46.828125 41.890625 46.777344 C 41.570312 46.757812 41.257812 46.796875 40.960938 46.882812 C 40.957031 46.796875 40.96875 44.304688 40.957031 44.222656 L 41.5 43.796875 C 42.8125 42.773438 43.761719 41.410156 44.265625 39.878906 L 44.453125 39.878906 C 46.9375 39.878906 48.957031 37.859375 48.957031 35.378906 L 48.957031 34.402344 C 48.957031 33.726562 48.71875 33.105469 48.324219 32.617188 C 48.742188 31.46875 48.957031 30.269531 48.957031 29.046875 C 48.957031 28.652344 48.933594 28.257812 48.890625 27.875 C 48.828125 27.3125 48.320312 26.910156 47.757812 26.972656 C 47.195312 27.035156 46.789062 27.542969 46.851562 28.105469 C 46.886719 28.414062 46.90625 28.730469 46.90625 29.046875 C 46.90625 29.910156 46.773438 30.757812 46.511719 31.578125 C 46.375 31.558594 46.238281 31.542969 46.097656 31.542969 L 44.679688 31.542969 C 44.664062 30.074219 43.464844 28.886719 41.992188 28.886719 L 38.78125 28.886719 C 37.125 28.886719 35.777344 27.539062 35.777344 25.882812 C 35.777344 25.316406 35.316406 24.855469 34.75 24.855469 C 34.183594 24.855469 33.726562 25.316406 33.726562 25.882812 C 33.726562 27.632812 34.625 29.183594 35.984375 30.089844 C 35.160156 31.003906 33.984375 31.542969 32.71875 31.542969 C 31.140625 31.542969 27.375 31.542969 25.839844 31.542969 C 25.703125 31.542969 25.566406 31.554688 25.4375 31.574219 C 25.175781 30.757812 25.042969 29.910156 25.042969 29.046875 C 25.042969 23.796875 29.949219 19.527344 35.976562 19.527344 C 39.773438 19.527344 43.242188 21.203125 45.253906 24.015625 C 45.582031 24.476562 46.222656 24.582031 46.683594 24.253906 C 47.144531 23.925781 47.25 23.285156 46.921875 22.824219 C 44.523438 19.472656 40.433594 17.476562 35.976562 17.476562 C 28.816406 17.476562 22.992188 22.667969 22.992188 29.046875 C 22.992188 30.265625 23.207031 31.457031 23.621094 32.601562 C 23.21875 33.09375 22.976562 33.722656 22.976562 34.402344 L 22.976562 35.378906 C 22.976562 37.859375 25 39.878906 27.480469 39.878906 L 27.683594 39.878906 C 28.1875 41.410156 29.136719 42.773438 30.449219 43.796875 L 30.992188 44.21875 L 30.992188 46.882812 C 30.691406 46.796875 30.378906 46.757812 30.058594 46.777344 C 29.144531 46.828125 28.316406 47.332031 27.851562 48.121094 L 26.816406 49.871094 L 23.863281 50.523438 C 20.878906 51.183594 18.792969 53.78125 18.792969 56.839844 L 18.792969 57.695312 C 16.027344 55.496094 13.691406 52.773438 11.941406 49.714844 C 13.878906 48.765625 16.191406 48.832031 18.078125 49.90625 C 18.464844 50.125 18.945312 50.125 19.332031 49.898438 C 19.71875 49.675781 19.960938 49.257812 19.960938 48.8125 L 19.960938 38.976562 C 19.960938 38.527344 19.714844 38.109375 19.324219 37.882812 C 16.710938 36.292969 13.402344 36.203125 10.71875 37.664062 C 9.960938 37.253906 9.152344 36.964844 8.328125 36.796875 C 8.3125 36.292969 8.3125 35.695312 8.328125 35.191406 C 8.347656 34.625 7.90625 34.152344 7.339844 34.132812 C 6.773438 34.117188 6.300781 34.558594 6.28125 35.121094 C 6.261719 35.59375 6.261719 36.148438 6.269531 36.632812 C 4.824219 36.683594 3.378906 37.117188 2.113281 37.882812 C 1.71875 38.109375 1.476562 38.527344 1.476562 38.976562 L 1.476562 48.8125 C 1.476562 49.257812 1.71875 49.675781 2.105469 49.898438 C 2.492188 50.125 2.972656 50.125 3.359375 49.90625 C 5.292969 48.800781 7.679688 48.765625 9.644531 49.792969 C 11.8125 53.929688 14.972656 57.542969 18.792969 60.257812 L 18.792969 68.972656 C 18.792969 69.539062 19.25 70 19.816406 70 C 20.382812 70 20.84375 69.539062 20.84375 68.972656 L 20.84375 56.839844 C 20.84375 54.75 22.265625 52.976562 24.308594 52.523438 L 27.1875 51.886719 L 31.539062 55.828125 C 31.953125 56.203125 32.492188 56.402344 33.039062 56.402344 C 33.328125 56.402344 33.617188 56.347656 33.890625 56.234375 L 34.929688 55.800781 L 34.929688 68.976562 C 34.929688 69.539062 35.390625 70 35.957031 70 C 36.523438 70 36.980469 69.539062 36.980469 68.976562 L 36.980469 55.785156 L 38.058594 56.234375 C 38.335938 56.347656 38.625 56.402344 38.910156 56.402344 C 39.457031 56.402344 39.996094 56.203125 40.414062 55.828125 L 44.761719 51.890625 L 47.644531 52.527344 C 49.683594 52.976562 51.109375 54.75 51.109375 56.839844 L 51.109375 68.972656 C 51.109375 69.539062 51.566406 70 52.132812 70 C 52.699219 70 53.160156 69.539062 53.160156 68.972656 L 53.160156 60.269531 C 54.167969 59.554688 55.136719 58.769531 56.046875 57.933594 C 56.464844 57.550781 56.492188 56.902344 56.109375 56.484375 C 55.726562 56.070312 55.078125 56.039062 54.660156 56.421875 Z M 44.679688 37.289062 L 44.679688 33.59375 L 46.097656 33.59375 C 46.542969 33.59375 46.90625 33.957031 46.90625 34.402344 L 46.90625 35.378906 C 46.90625 36.660156 45.917969 37.710938 44.664062 37.820312 C 44.675781 37.644531 44.679688 37.464844 44.679688 37.289062 Z M 25.027344 35.378906 L 25.027344 34.402344 C 25.027344 33.957031 25.390625 33.59375 25.839844 33.59375 L 27.269531 33.59375 L 27.269531 37.289062 C 27.269531 37.464844 27.277344 37.644531 27.289062 37.820312 C 26.027344 37.722656 25.027344 36.664062 25.027344 35.378906 Z M 9.691406 47.566406 C 7.714844 46.8125 5.507812 46.808594 3.527344 47.566406 L 3.527344 39.441406 C 5.445312 38.421875 7.773438 38.425781 9.691406 39.445312 Z M 11.742188 39.441406 C 13.664062 38.421875 15.992188 38.421875 17.910156 39.441406 L 17.910156 47.566406 C 15.929688 46.808594 13.722656 46.808594 11.742188 47.566406 Z M 29.320312 37.289062 L 29.320312 33.59375 L 32.71875 33.59375 C 34.832031 33.59375 36.78125 32.566406 37.980469 30.871094 C 38.242188 30.914062 38.507812 30.9375 38.78125 30.9375 L 41.992188 30.9375 C 42.34375 30.9375 42.628906 31.222656 42.628906 31.574219 L 42.628906 37.289062 C 42.628906 39.214844 41.757812 40.996094 40.238281 42.179688 L 38.371094 43.636719 C 36.960938 44.734375 34.992188 44.734375 33.582031 43.636719 L 31.710938 42.179688 C 30.191406 40.996094 29.320312 39.214844 29.320312 37.289062 Z M 33.101562 54.339844 C 33.039062 54.367188 32.964844 54.355469 32.914062 54.308594 L 28.785156 50.570312 L 29.617188 49.164062 C 29.789062 48.875 30.066406 48.828125 30.175781 48.824219 C 30.289062 48.816406 30.570312 48.832031 30.773438 49.097656 L 34.355469 53.820312 Z M 35.976562 52.5625 L 33.042969 48.695312 L 33.042969 45.734375 C 33.949219 46.25 34.960938 46.511719 35.976562 46.511719 C 36.988281 46.511719 38 46.25 38.910156 45.734375 L 38.910156 48.695312 Z M 39.035156 54.308594 C 38.984375 54.355469 38.910156 54.367188 38.847656 54.339844 L 37.59375 53.820312 L 41.175781 49.097656 C 41.378906 48.832031 41.664062 48.816406 41.773438 48.824219 C 41.886719 48.828125 42.164062 48.875 42.335938 49.164062 L 43.164062 50.570312 Z M 39.035156 54.308594 "/>
<path style=" stroke:none;fill-rule:nonzero;fill:rgb(0%,0%,0%);fill-opacity:1;" d="M 65.695312 36.277344 C 65.734375 32.339844 65.003906 28.5 63.542969 24.886719 L 67.089844 21.335938 C 69 19.425781 69 16.320312 67.089844 14.410156 C 65.113281 12.417969 61.84375 12.53125 59.96875 14.605469 C 58.683594 13.1875 56.714844 12.660156 54.976562 13.164062 C 52.070312 10.746094 48.792969 8.933594 45.21875 7.765625 L 45.21875 2.292969 C 45.21875 1.027344 44.191406 0 42.925781 0 L 36.449219 0 C 35.882812 0 35.425781 0.460938 35.425781 1.023438 C 35.425781 1.589844 35.882812 2.050781 36.449219 2.050781 L 42.925781 2.050781 C 43.058594 2.050781 43.167969 2.160156 43.167969 2.292969 L 43.167969 9.476562 C 43.167969 9.609375 43.058594 9.71875 42.925781 9.71875 L 29.023438 9.71875 C 28.890625 9.71875 28.78125 9.609375 28.78125 9.476562 L 28.78125 2.292969 C 28.78125 2.160156 28.890625 2.050781 29.023438 2.050781 L 31.5625 2.050781 C 32.128906 2.050781 32.589844 1.589844 32.589844 1.023438 C 32.589844 0.460938 32.128906 0 31.5625 0 L 29.023438 0 C 27.761719 0 26.730469 1.027344 26.730469 2.292969 L 26.730469 7.769531 C 23.335938 8.878906 20.203125 10.574219 17.410156 12.820312 C 17.292969 12.792969 17.175781 12.78125 17.054688 12.78125 L 7.605469 12.78125 C 6.667969 12.78125 5.90625 13.542969 5.90625 14.480469 L 5.90625 14.90625 L 5.28125 14.90625 C 3.601562 14.90625 2.230469 16.277344 2.230469 17.960938 C 2.230469 19.640625 3.601562 21.011719 5.28125 21.011719 L 5.953125 21.011719 C 6.019531 21.550781 6.164062 22.074219 6.378906 22.566406 L 4.957031 22.566406 C 4.390625 22.566406 3.933594 23.027344 3.933594 23.59375 L 3.933594 24.957031 C 3.929688 26.796875 5.464844 28.28125 7.300781 28.226562 C 7.132812 28.851562 6.980469 29.476562 6.855469 30.101562 C 6.746094 30.65625 7.105469 31.195312 7.660156 31.308594 C 7.726562 31.320312 7.796875 31.328125 7.863281 31.328125 C 8.339844 31.328125 8.769531 30.992188 8.867188 30.503906 C 9.019531 29.742188 9.207031 28.980469 9.429688 28.226562 L 17.457031 28.226562 C 19.261719 28.226562 20.730469 26.761719 20.730469 24.957031 L 20.730469 23.59375 C 20.730469 23.027344 20.269531 22.566406 19.703125 22.566406 L 18.285156 22.566406 C 18.59375 21.859375 18.753906 21.085938 18.753906 20.300781 C 18.753906 20.1875 18.753906 14.472656 18.753906 14.367188 C 21.179688 12.433594 23.871094 10.945312 26.777344 9.917969 C 26.984375 10.972656 27.914062 11.769531 29.023438 11.769531 L 34.949219 11.769531 L 34.949219 13.324219 L 32.597656 13.324219 C 32.03125 13.324219 31.574219 13.785156 31.574219 14.351562 C 31.574219 14.917969 32.03125 15.375 32.597656 15.375 L 39.351562 15.375 C 39.917969 15.375 40.378906 14.917969 40.378906 14.351562 C 40.378906 13.785156 39.917969 13.324219 39.351562 13.324219 L 37 13.324219 L 37 11.769531 L 42.925781 11.769531 C 44.039062 11.769531 44.96875 10.96875 45.175781 9.914062 C 48.019531 10.914062 50.65625 12.363281 53.035156 14.230469 C 50.953125 16.089844 50.867188 19.367188 52.847656 21.335938 L 59.242188 27.734375 C 59.445312 27.933594 59.707031 28.03125 59.96875 28.03125 C 60.230469 28.03125 60.492188 27.933594 60.695312 27.734375 L 61.957031 26.46875 C 63.046875 29.433594 63.613281 32.546875 63.644531 35.742188 C 63.46875 35.742188 55.648438 35.742188 55.46875 35.742188 C 52.804688 35.742188 50.636719 37.910156 50.636719 40.574219 L 50.636719 44.128906 C 50.636719 46.792969 52.804688 48.960938 55.46875 48.960938 L 60.4375 48.960938 C 59.699219 50.359375 58.832031 51.699219 57.859375 52.953125 C 57.511719 53.402344 57.59375 54.046875 58.039062 54.394531 C 58.226562 54.539062 58.449219 54.609375 58.667969 54.609375 C 58.972656 54.609375 59.277344 54.472656 59.480469 54.210938 C 60.441406 52.972656 61.304688 51.652344 62.054688 50.28125 L 62.472656 50.644531 C 62.835938 50.957031 63.277344 51.121094 63.730469 51.121094 C 64.003906 51.121094 64.277344 51.0625 64.535156 50.945312 C 65.230469 50.628906 65.664062 49.957031 65.664062 49.191406 L 65.664062 48.445312 C 67.28125 47.636719 68.324219 45.984375 68.324219 44.128906 L 68.324219 40.574219 C 68.324219 38.703125 67.253906 37.082031 65.695312 36.277344 Z M 5.90625 18.960938 L 5.28125 18.960938 C 4.730469 18.960938 4.28125 18.511719 4.28125 17.960938 C 4.28125 17.40625 4.730469 16.957031 5.28125 16.957031 L 5.90625 16.957031 Z M 7.957031 14.832031 L 16.703125 14.832031 L 16.703125 20.300781 C 16.703125 21.128906 16.421875 21.925781 15.90625 22.566406 L 8.75 22.566406 C 8.238281 21.925781 7.957031 21.128906 7.957031 20.300781 Z M 18.679688 24.617188 L 18.679688 24.957031 C 18.679688 25.628906 18.132812 26.175781 17.457031 26.175781 L 7.203125 26.175781 C 6.53125 26.175781 5.984375 25.628906 5.984375 24.957031 L 5.984375 24.617188 Z M 59.96875 25.558594 L 54.296875 19.886719 C 53.1875 18.777344 53.1875 16.96875 54.296875 15.859375 C 54.851562 15.304688 55.582031 15.027344 56.308594 15.027344 C 57.039062 15.027344 57.769531 15.304688 58.324219 15.859375 L 59.242188 16.78125 C 59.4375 16.972656 59.695312 17.082031 59.96875 17.082031 C 60.242188 17.082031 60.5 16.972656 60.695312 16.78125 L 61.617188 15.859375 C 62.726562 14.75 64.53125 14.75 65.640625 15.859375 C 66.75 16.96875 66.75 18.777344 65.640625 19.886719 Z M 66.273438 44.128906 C 66.273438 45.347656 65.492188 46.414062 64.328125 46.78125 C 63.902344 46.914062 63.613281 47.3125 63.613281 47.757812 L 63.613281 48.917969 L 61.597656 47.160156 C 61.410156 47 61.171875 46.910156 60.925781 46.910156 L 55.46875 46.910156 C 53.9375 46.910156 52.6875 45.664062 52.6875 44.128906 L 52.6875 40.574219 C 52.6875 39.039062 53.9375 37.792969 55.46875 37.792969 L 63.492188 37.792969 C 65.023438 37.792969 66.273438 39.039062 66.273438 40.574219 Z M 66.273438 44.128906 "/>
<path style=" stroke:none;fill-rule:nonzero;fill:rgb(0%,0%,0%);fill-opacity:1;" d="M 33.496094 40.378906 C 34.261719 40.816406 35.117188 41.035156 35.976562 41.035156 C 36.832031 41.035156 37.691406 40.816406 38.457031 40.378906 C 38.949219 40.101562 39.117188 39.472656 38.839844 38.980469 C 38.558594 38.488281 37.929688 38.320312 37.441406 38.597656 C 36.535156 39.113281 35.414062 39.113281 34.511719 38.597656 C 34.019531 38.320312 33.394531 38.488281 33.113281 38.980469 C 32.832031 39.472656 33.003906 40.101562 33.496094 40.378906 Z M 33.496094 40.378906 "/>
<path style=" stroke:none;fill-rule:nonzero;fill:rgb(0%,0%,0%);fill-opacity:1;" d="M 46.109375 60.277344 C 45.542969 60.277344 45.085938 60.734375 45.085938 61.300781 L 45.085938 68.976562 C 45.085938 69.539062 45.542969 70 46.109375 70 C 46.675781 70 47.136719 69.539062 47.136719 68.976562 L 47.136719 61.300781 C 47.136719 60.734375 46.675781 60.277344 46.109375 60.277344 Z M 46.109375 60.277344 "/>
<path style=" stroke:none;fill-rule:nonzero;fill:rgb(0%,0%,0%);fill-opacity:1;" d="M 25.839844 60.277344 C 25.273438 60.277344 24.8125 60.734375 24.8125 61.300781 L 24.8125 68.976562 C 24.8125 69.539062 25.273438 70 25.839844 70 C 26.40625 70 26.863281 69.539062 26.863281 68.976562 L 26.863281 61.300781 C 26.863281 60.734375 26.40625 60.277344 25.839844 60.277344 Z M 25.839844 60.277344 "/>
<path style=" stroke:none;fill-rule:nonzero;fill:rgb(0%,0%,0%);fill-opacity:1;" d="M 33.425781 59.4375 C 33.425781 58.871094 32.964844 58.410156 32.398438 58.410156 C 31.832031 58.410156 31.375 58.871094 31.375 59.4375 C 31.375 60.003906 31.832031 60.460938 32.398438 60.460938 C 32.964844 60.460938 33.425781 60.003906 33.425781 59.4375 Z M 33.425781 59.4375 "/>
<path style=" stroke:none;fill-rule:nonzero;fill:rgb(0%,0%,0%);fill-opacity:1;" d="M 33.425781 63.722656 C 33.425781 63.15625 32.964844 62.699219 32.398438 62.699219 C 31.832031 62.699219 31.375 63.15625 31.375 63.722656 C 31.375 64.289062 31.832031 64.75 32.398438 64.75 C 32.964844 64.75 33.425781 64.289062 33.425781 63.722656 Z M 33.425781 63.722656 "/>
<path style=" stroke:none;fill-rule:nonzero;fill:rgb(0%,0%,0%);fill-opacity:1;" d="M 33.425781 68.011719 C 33.425781 67.445312 32.964844 66.984375 32.398438 66.984375 C 31.832031 66.984375 31.375 67.445312 31.375 68.011719 C 31.375 68.578125 31.832031 69.035156 32.398438 69.035156 C 32.964844 69.035156 33.425781 68.578125 33.425781 68.011719 Z M 33.425781 68.011719 "/>
</g>
</svg>
