<?xml version="1.0" encoding="UTF-8"?>
<svg xmlns="http://www.w3.org/2000/svg" xmlns:xlink="http://www.w3.org/1999/xlink" width="45px" height="45px" viewBox="0 0 45 45" version="1.1">
<g id="surface1">
<path style=" stroke:none;fill-rule:nonzero;fill:#21a96a;fill-opacity:1;" d="M 43.609375 14.757812 L 37.894531 4.855469 C 37.75 4.605469 37.425781 4.515625 37.171875 4.664062 L 33.480469 6.792969 C 33.359375 6.863281 33.273438 6.980469 33.234375 7.113281 C 33.199219 7.25 33.21875 7.390625 33.289062 7.515625 L 33.734375 8.285156 L 32.828125 8.804688 C 32.3125 9.105469 31.78125 9.179688 31.203125 9.042969 C 30.398438 8.851562 29.5625 8.972656 28.847656 9.382812 L 22.304688 13.160156 L 20.207031 11.949219 C 21.21875 11.597656 22.242188 11.011719 23.183594 10.238281 C 23.863281 9.683594 24.074219 8.769531 23.703125 7.972656 C 23.691406 7.9375 23.675781 7.90625 23.65625 7.871094 C 23.414062 7.375 23.003906 7.035156 22.472656 6.882812 C 21.941406 6.734375 21.414062 6.808594 20.945312 7.101562 C 19.394531 8.070312 17.203125 8.761719 16.015625 8.199219 C 15.828125 8.109375 15.65625 8.050781 15.453125 8.011719 C 14.585938 7.847656 13.734375 7.917969 12.988281 8.222656 C 12.730469 8.328125 12.480469 8.3125 12.242188 8.171875 L 11.265625 7.609375 L 11.710938 6.835938 C 11.855469 6.585938 11.769531 6.261719 11.515625 6.117188 L 7.824219 3.984375 C 7.574219 3.839844 7.25 3.925781 7.105469 4.179688 L 1.386719 14.082031 C 1.242188 14.335938 1.328125 14.65625 1.582031 14.804688 L 5.273438 16.933594 C 5.355469 16.980469 5.445312 17.003906 5.539062 17.003906 C 5.582031 17.003906 5.628906 17 5.671875 16.988281 C 5.808594 16.953125 5.921875 16.863281 5.992188 16.742188 L 6.4375 15.972656 L 7.34375 16.496094 C 7.859375 16.792969 8.191406 17.214844 8.359375 17.785156 C 8.597656 18.578125 9.121094 19.242188 9.832031 19.652344 L 16.375 23.429688 L 16.375 25.851562 C 15.566406 25.15625 14.546875 24.5625 13.40625 24.128906 C 12.582031 23.820312 11.6875 24.09375 11.179688 24.8125 C 11.160156 24.84375 11.140625 24.871094 11.117188 24.902344 C 10.8125 25.363281 10.722656 25.890625 10.855469 26.425781 C 10.992188 26.960938 11.320312 27.378906 11.808594 27.640625 C 13.421875 28.496094 15.113281 30.050781 15.222656 31.359375 C 15.238281 31.566406 15.277344 31.746094 15.34375 31.9375 C 15.632812 32.773438 16.121094 33.476562 16.757812 33.96875 C 16.976562 34.136719 17.085938 34.363281 17.085938 34.636719 L 17.085938 35.769531 L 16.199219 35.769531 C 15.90625 35.769531 15.671875 36.003906 15.671875 36.296875 L 15.671875 40.558594 C 15.671875 40.851562 15.90625 41.085938 16.199219 41.085938 L 27.632812 41.085938 C 27.921875 41.085938 28.160156 40.851562 28.160156 40.558594 L 28.160156 36.296875 C 28.160156 36.003906 27.921875 35.769531 27.632812 35.769531 L 26.742188 35.769531 L 26.742188 34.722656 C 26.742188 34.128906 26.941406 33.628906 27.351562 33.199219 C 27.917969 32.597656 28.230469 31.8125 28.230469 30.988281 L 28.230469 23.433594 L 30.332031 22.222656 C 30.132812 23.273438 30.125 24.453125 30.324219 25.65625 C 30.464844 26.523438 31.148438 27.160156 32.027344 27.242188 C 32.0625 27.246094 32.097656 27.246094 32.136719 27.25 C 32.183594 27.253906 32.226562 27.253906 32.269531 27.253906 C 32.769531 27.253906 33.21875 27.070312 33.582031 26.71875 C 33.980469 26.332031 34.179688 25.835938 34.160156 25.285156 C 34.09375 23.457031 34.59375 21.214844 35.675781 20.46875 C 35.84375 20.351562 35.980469 20.230469 36.113281 20.074219 C 36.691406 19.40625 37.054688 18.632812 37.164062 17.832031 C 37.203125 17.558594 37.34375 17.351562 37.582031 17.214844 L 38.558594 16.648438 L 39.003906 17.417969 C 39.101562 17.589844 39.277344 17.683594 39.460938 17.683594 C 39.550781 17.683594 39.640625 17.660156 39.722656 17.613281 L 43.414062 15.480469 C 43.535156 15.410156 43.625 15.296875 43.660156 15.160156 C 43.699219 15.023438 43.679688 14.878906 43.613281 14.757812 Z M 5.34375 15.757812 L 2.566406 14.152344 L 7.753906 5.164062 L 10.535156 6.769531 Z M 10.359375 18.738281 C 9.882812 18.460938 9.53125 18.015625 9.371094 17.480469 C 9.125 16.652344 8.621094 16.011719 7.871094 15.578125 L 6.964844 15.054688 L 10.738281 8.523438 L 11.71875 9.085938 C 12.238281 9.386719 12.832031 9.429688 13.386719 9.199219 C 13.941406 8.972656 14.589844 8.921875 15.253906 9.046875 C 15.367188 9.070312 15.457031 9.101562 15.566406 9.148438 C 17.402344 10.019531 20.164062 8.832031 21.503906 7.996094 C 21.71875 7.859375 21.941406 7.828125 22.183594 7.898438 C 22.425781 7.96875 22.597656 8.109375 22.710938 8.335938 C 22.722656 8.363281 22.734375 8.386719 22.746094 8.414062 C 22.910156 8.769531 22.816406 9.175781 22.515625 9.421875 C 21.324219 10.398438 19.945312 11.058594 18.738281 11.234375 C 18.519531 11.265625 18.339844 11.433594 18.296875 11.65625 C 18.253906 11.875 18.359375 12.101562 18.550781 12.210938 L 26.261719 16.664062 C 26.449219 16.773438 26.585938 16.949219 26.644531 17.164062 C 26.699219 17.378906 26.671875 17.597656 26.5625 17.789062 C 26.527344 17.851562 26.480469 17.90625 26.433594 17.957031 C 26.40625 17.957031 26.378906 17.953125 26.355469 17.953125 C 26.054688 17.953125 25.773438 18.023438 25.523438 18.148438 C 25.457031 17.175781 24.644531 16.402344 23.652344 16.402344 C 23.335938 16.402344 23.03125 16.484375 22.769531 16.628906 C 22.558594 15.820312 21.824219 15.222656 20.953125 15.222656 C 20.8125 15.222656 20.679688 15.238281 20.546875 15.265625 L 19.046875 14.398438 C 18.796875 14.253906 18.472656 14.339844 18.328125 14.59375 C 18.179688 14.84375 18.269531 15.167969 18.519531 15.3125 L 19.519531 15.890625 C 19.347656 16.09375 19.21875 16.335938 19.144531 16.597656 C 18.878906 16.453125 18.574219 16.375 18.253906 16.375 C 17.21875 16.375 16.375 17.214844 16.375 18.25 L 16.375 19.09375 L 16.347656 19.078125 C 16.09375 18.933594 15.773438 19.019531 15.625 19.273438 C 15.480469 19.523438 15.566406 19.847656 15.820312 19.992188 L 16.375 20.3125 L 16.375 22.214844 Z M 27.105469 40.027344 L 16.726562 40.027344 L 16.726562 36.820312 L 27.105469 36.820312 Z M 27.179688 30.988281 C 27.179688 31.539062 26.96875 32.066406 26.585938 32.46875 C 25.988281 33.097656 25.6875 33.855469 25.6875 34.722656 L 25.6875 35.765625 L 18.140625 35.765625 L 18.140625 34.636719 C 18.140625 34.035156 17.882812 33.5 17.40625 33.132812 C 16.933594 32.765625 16.5625 32.230469 16.339844 31.59375 C 16.304688 31.480469 16.285156 31.386719 16.273438 31.273438 C 16.109375 29.242188 13.699219 27.449219 12.304688 26.707031 C 12.082031 26.585938 11.941406 26.410156 11.878906 26.164062 C 11.820312 25.917969 11.855469 25.699219 11.996094 25.488281 C 12.011719 25.464844 12.027344 25.441406 12.042969 25.417969 C 12.269531 25.097656 12.667969 24.976562 13.035156 25.117188 C 14.476562 25.660156 15.734375 26.523438 16.492188 27.480469 C 16.628906 27.65625 16.867188 27.722656 17.078125 27.652344 C 17.289062 27.578125 17.433594 27.378906 17.433594 27.152344 L 17.433594 18.25 C 17.433594 17.796875 17.800781 17.429688 18.253906 17.429688 C 18.710938 17.429688 19.078125 17.796875 19.078125 18.25 L 19.078125 25.628906 C 19.078125 25.921875 19.316406 26.15625 19.605469 26.15625 C 19.898438 26.15625 20.132812 25.921875 20.132812 25.628906 L 20.132812 17.101562 C 20.132812 16.648438 20.503906 16.277344 20.957031 16.277344 C 21.410156 16.277344 21.777344 16.644531 21.777344 17.101562 L 21.777344 25.628906 C 21.777344 25.921875 22.015625 26.15625 22.304688 26.15625 C 22.597656 26.15625 22.832031 25.921875 22.832031 25.628906 L 22.832031 18.269531 C 22.839844 17.824219 23.210938 17.460938 23.65625 17.460938 C 24.109375 17.460938 24.476562 17.828125 24.476562 18.28125 L 24.476562 25.628906 C 24.476562 25.921875 24.714844 26.15625 25.003906 26.15625 C 25.296875 26.15625 25.53125 25.921875 25.53125 25.628906 L 25.53125 19.832031 C 25.53125 19.378906 25.902344 19.011719 26.355469 19.011719 C 26.808594 19.011719 27.179688 19.378906 27.179688 19.832031 Z M 37.054688 16.296875 C 36.535156 16.597656 36.203125 17.09375 36.121094 17.6875 C 36.042969 18.273438 35.757812 18.875 35.320312 19.378906 C 35.242188 19.46875 35.171875 19.53125 35.074219 19.597656 C 33.402344 20.757812 33.050781 23.738281 33.105469 25.320312 C 33.117188 25.574219 33.03125 25.78125 32.851562 25.957031 C 32.667969 26.132812 32.457031 26.210938 32.207031 26.195312 C 32.175781 26.191406 32.148438 26.191406 32.121094 26.1875 C 31.730469 26.152344 31.425781 25.867188 31.363281 25.480469 C 31.113281 23.960938 31.230469 22.4375 31.683594 21.308594 C 31.765625 21.097656 31.707031 20.859375 31.539062 20.714844 C 31.367188 20.566406 31.125 20.542969 30.929688 20.65625 L 28.230469 22.210938 L 28.230469 20.3125 L 28.785156 19.992188 C 29.039062 19.84375 29.125 19.523438 28.980469 19.269531 C 28.835938 19.019531 28.511719 18.933594 28.257812 19.078125 L 28.109375 19.164062 C 27.980469 18.828125 27.757812 18.535156 27.472656 18.324219 C 27.472656 18.320312 27.476562 18.316406 27.476562 18.316406 C 27.726562 17.882812 27.792969 17.375 27.664062 16.890625 C 27.53125 16.40625 27.222656 16 26.789062 15.75 L 26.058594 15.328125 L 26.085938 15.3125 C 26.339844 15.167969 26.425781 14.84375 26.28125 14.59375 C 26.136719 14.339844 25.8125 14.253906 25.558594 14.398438 L 25.003906 14.71875 L 23.359375 13.769531 L 29.375 10.296875 C 29.855469 10.019531 30.417969 9.9375 30.957031 10.066406 C 31.800781 10.269531 32.605469 10.152344 33.355469 9.71875 L 34.261719 9.195312 L 38.035156 15.730469 Z M 39.65625 16.433594 L 34.464844 7.445312 L 37.246094 5.839844 L 42.433594 14.828125 Z M 39.65625 16.433594 "/>
</g>
</svg>
