<?xml version="1.0" encoding="UTF-8"?>
<svg xmlns="http://www.w3.org/2000/svg" xmlns:xlink="http://www.w3.org/1999/xlink" width="30px" height="px" viewBox="0 0 30 30" version="1.1">
<g id="surface1">
<path style=" stroke:none;fill-rule:evenodd;fill:rgb(0%,0%,0%);fill-opacity:1;" d="M 20.472656 17.511719 C 20.496094 17.296875 20.6875 17.144531 20.902344 17.164062 L 20.910156 17.167969 C 21.125 17.1875 21.28125 17.382812 21.257812 17.597656 C 21.238281 17.8125 21.042969 17.96875 20.828125 17.945312 L 20.820312 17.941406 C 20.605469 17.921875 20.453125 17.726562 20.472656 17.511719 Z M 19.011719 16.839844 C 19.035156 16.625 19.226562 16.46875 19.441406 16.492188 L 19.449219 16.492188 C 19.664062 16.515625 19.820312 16.707031 19.796875 16.921875 C 19.773438 17.136719 19.582031 17.292969 19.367188 17.269531 L 19.359375 17.269531 C 19.144531 17.246094 18.988281 17.054688 19.011719 16.839844 Z M 17.742188 17.253906 L 17.734375 17.253906 C 17.519531 17.230469 17.363281 17.039062 17.386719 16.824219 C 17.410156 16.609375 17.601562 16.453125 17.816406 16.476562 L 17.824219 16.476562 C 18.039062 16.5 18.195312 16.691406 18.171875 16.90625 C 18.148438 17.121094 17.957031 17.277344 17.742188 17.253906 Z M 16.75 17.523438 C 16.726562 17.734375 16.535156 17.890625 16.320312 17.871094 L 16.3125 17.867188 C 16.097656 17.84375 15.941406 17.652344 15.964844 17.4375 C 15.988281 17.222656 16.179688 17.066406 16.394531 17.089844 L 16.402344 17.089844 C 16.617188 17.113281 16.773438 17.308594 16.75 17.523438 Z M 21.882812 20.042969 C 23.777344 19.15625 23.761719 18.320312 23.730469 16.5 L 23.726562 16.273438 C 23.726562 16.1875 23.726562 16.101562 23.730469 16.015625 C 23.695312 16.035156 23.664062 16.054688 23.636719 16.070312 C 23.363281 16.230469 23.074219 16.425781 22.746094 16.644531 C 22.726562 16.65625 22.707031 16.667969 22.691406 16.683594 C 22.714844 16.734375 22.742188 16.785156 22.761719 16.839844 C 22.886719 17.152344 22.929688 17.492188 22.894531 17.820312 C 22.855469 18.148438 22.742188 18.46875 22.546875 18.75 C 22.335938 19.054688 22.03125 19.3125 21.644531 19.464844 C 21.296875 19.605469 20.929688 19.640625 20.578125 19.585938 C 20.234375 19.53125 19.90625 19.390625 19.625 19.164062 C 19.472656 19.074219 19.308594 19.003906 19.140625 18.949219 C 18.96875 18.894531 18.789062 18.863281 18.609375 18.847656 C 18.429688 18.855469 18.253906 18.886719 18.082031 18.933594 C 17.914062 18.980469 17.746094 19.046875 17.585938 19.132812 C 17.300781 19.347656 16.96875 19.480469 16.628906 19.523438 C 16.273438 19.566406 15.90625 19.519531 15.566406 19.371094 C 15.363281 19.28125 15.179688 19.160156 15.023438 19.019531 C 14.617188 19.402344 14.308594 19.800781 14.089844 20.214844 C 14.085938 20.226562 14.082031 20.234375 14.078125 20.242188 C 14.070312 20.253906 14.0625 20.269531 14.058594 20.28125 C 13.804688 20.796875 13.6875 21.335938 13.714844 21.90625 L 13.992188 24.199219 C 14.210938 24.410156 14.445312 24.554688 14.699219 24.628906 C 14.84375 24.671875 15 24.691406 15.160156 24.691406 C 15.1875 24.667969 15.210938 24.644531 15.238281 24.621094 L 15.242188 24.621094 C 15.261719 24.605469 15.28125 24.582031 15.304688 24.5625 C 15.296875 24.3125 15.285156 24.066406 15.273438 23.832031 C 15.195312 22.1875 15.148438 21.203125 16.480469 20.027344 C 16.640625 19.882812 16.890625 19.898438 17.03125 20.0625 C 17.175781 20.222656 17.160156 20.46875 16.996094 20.613281 C 15.949219 21.539062 15.988281 22.382812 16.054688 23.796875 C 16.066406 24.03125 16.078125 24.28125 16.085938 24.558594 C 16.289062 24.742188 16.507812 24.867188 16.742188 24.933594 C 16.9375 24.988281 17.148438 25.003906 17.371094 24.980469 C 17.4375 24.71875 17.488281 24.523438 17.53125 24.339844 C 17.890625 22.878906 18.054688 22.21875 18.476562 21.742188 C 18.832031 21.339844 19.292969 21.148438 20.136719 20.800781 C 20.589844 20.613281 21.160156 20.378906 21.882812 20.042969 Z M 24.023438 25.632812 L 20.003906 25.632812 L 20.871094 21.34375 C 21.246094 21.1875 21.6875 20.996094 22.214844 20.75 C 22.492188 20.617188 22.738281 20.488281 22.957031 20.359375 Z M 17.507812 26.546875 L 14.570312 26.925781 C 14.554688 26.882812 14.542969 26.839844 14.53125 26.800781 C 14.527344 26.785156 14.523438 26.769531 14.515625 26.757812 C 14.476562 26.625 14.445312 26.515625 14.425781 26.421875 C 14.421875 26.414062 14.421875 26.402344 14.417969 26.394531 C 14.726562 26.308594 15.078125 26.15625 15.378906 25.929688 C 15.574219 25.78125 15.746094 25.601562 15.878906 25.386719 C 16.085938 25.519531 16.300781 25.621094 16.527344 25.6875 C 16.820312 25.769531 17.132812 25.792969 17.457031 25.757812 C 17.488281 25.894531 17.515625 26.027344 17.527344 26.15625 C 17.539062 26.292969 17.535156 26.425781 17.507812 26.546875 Z M 12.660156 25.710938 C 12.90625 25.550781 13.238281 25.332031 13.667969 24.953125 C 13.917969 25.152344 14.191406 25.292969 14.480469 25.378906 C 14.558594 25.402344 14.632812 25.417969 14.714844 25.433594 C 14.464844 25.578125 14.195312 25.660156 13.992188 25.683594 C 13.828125 25.703125 13.699219 25.820312 13.660156 25.96875 C 13.605469 26.132812 13.605469 26.316406 13.65625 26.554688 L 12.480469 26.691406 C 12.253906 25.976562 12.320312 25.933594 12.660156 25.710938 Z M 5.734375 15.433594 L 5.734375 19.65625 L 13.507812 19.65625 C 13.769531 19.210938 14.117188 18.789062 14.554688 18.386719 C 14.449219 18.167969 14.382812 17.933594 14.363281 17.683594 C 14.335938 17.316406 14.40625 16.953125 14.566406 16.632812 C 14.722656 16.3125 14.964844 16.039062 15.273438 15.835938 C 15.519531 15.652344 15.78125 15.496094 16.050781 15.359375 C 15.796875 15.046875 15.5625 14.746094 15.324219 14.449219 C 14.835938 13.832031 14.347656 13.21875 13.855469 12.632812 L 11.3125 15.542969 C 11.167969 15.707031 10.921875 15.722656 10.761719 15.582031 C 10.746094 15.570312 10.734375 15.554688 10.722656 15.539062 L 8.179688 12.632812 Z M 11.316406 9.558594 C 11.277344 9.59375 11.238281 9.625 11.199219 9.652344 C 11 9.800781 10.777344 9.871094 10.554688 9.871094 L 10.554688 9.875 C 10.332031 9.875 10.109375 9.800781 9.910156 9.652344 C 9.871094 9.625 9.832031 9.59375 9.792969 9.558594 C 9.832031 9.523438 9.871094 9.492188 9.910156 9.460938 C 10.109375 9.316406 10.332031 9.246094 10.554688 9.246094 L 10.554688 9.242188 C 10.773438 9.242188 11 9.316406 11.199219 9.460938 C 11.238281 9.492188 11.277344 9.523438 11.316406 9.558594 Z M 22.351562 3.039062 L 22.351562 5.230469 C 21.765625 5.238281 21.230469 5.472656 20.839844 5.855469 C 20.4375 6.242188 20.183594 6.78125 20.164062 7.378906 C 20.164062 7.394531 20.160156 7.40625 20.160156 7.421875 L 20.164062 7.421875 C 20.15625 7.941406 20.328125 8.417969 20.617188 8.800781 C 20.5625 8.808594 20.507812 8.816406 20.449219 8.828125 C 20.039062 8.898438 19.59375 9.007812 19.109375 9.152344 C 19.070312 9.164062 19.035156 9.183594 19 9.207031 C 18.363281 9.214844 17.816406 9.1875 17.355469 9.125 C 16.90625 9.066406 16.550781 8.972656 16.289062 8.847656 C 16.066406 8.585938 15.769531 8.421875 15.449219 8.359375 C 15.101562 8.296875 14.730469 8.359375 14.410156 8.5625 C 14.171875 8.714844 13.992188 8.925781 13.878906 9.167969 L 12.019531 9.167969 C 11.90625 9.035156 11.785156 8.925781 11.65625 8.832031 C 11.320312 8.585938 10.9375 8.460938 10.554688 8.460938 C 10.171875 8.460938 9.789062 8.585938 9.449219 8.832031 C 9.273438 8.960938 9.109375 9.125 8.964844 9.320312 C 8.863281 9.453125 8.855469 9.644531 8.957031 9.789062 C 9.105469 9.988281 9.269531 10.152344 9.449219 10.285156 C 9.789062 10.53125 10.167969 10.652344 10.554688 10.652344 L 10.554688 10.65625 C 10.9375 10.65625 11.320312 10.53125 11.65625 10.285156 C 11.785156 10.191406 11.90625 10.078125 12.019531 9.949219 L 13.753906 9.949219 C 13.773438 10.128906 13.828125 10.304688 13.917969 10.472656 C 14.101562 10.808594 14.398438 11.042969 14.734375 11.152344 C 15.019531 11.25 15.339844 11.253906 15.644531 11.152344 C 16.359375 11.367188 17.027344 11.53125 17.644531 11.644531 C 18.121094 11.730469 18.5625 11.785156 18.976562 11.808594 C 18.90625 12.074219 18.816406 12.332031 18.722656 12.59375 C 18.488281 13.242188 18.253906 13.90625 18.261719 14.761719 C 17.796875 14.789062 17.328125 14.871094 16.878906 15.015625 C 16.851562 15.027344 16.828125 15.035156 16.800781 15.042969 C 16.527344 14.703125 16.230469 14.335938 15.9375 13.964844 C 15.355469 13.230469 14.773438 12.496094 14.148438 11.78125 C 14.007812 11.617188 13.761719 11.601562 13.597656 11.742188 C 13.585938 11.757812 13.570312 11.769531 13.558594 11.785156 L 11.019531 14.695312 L 8.472656 11.78125 C 8.332031 11.617188 8.085938 11.601562 7.921875 11.742188 C 7.910156 11.757812 7.894531 11.769531 7.882812 11.785156 L 5.734375 14.246094 L 5.734375 3.039062 Z M 23.828125 7.476562 C 23.835938 7.078125 23.679688 6.714844 23.421875 6.449219 C 23.226562 6.246094 22.972656 6.101562 22.6875 6.039062 C 22.671875 6.039062 22.660156 6.035156 22.648438 6.03125 C 22.578125 6.019531 22.507812 6.011719 22.4375 6.011719 C 22.429688 6.011719 22.421875 6.011719 22.414062 6.011719 L 22.414062 6.007812 L 22.410156 6.007812 C 22.011719 6.003906 21.648438 6.160156 21.382812 6.414062 C 21.125 6.667969 20.957031 7.011719 20.945312 7.398438 C 20.945312 7.40625 20.945312 7.414062 20.945312 7.421875 L 20.945312 7.429688 C 20.9375 7.828125 21.09375 8.191406 21.351562 8.457031 C 21.601562 8.714844 21.949219 8.878906 22.332031 8.894531 C 22.339844 8.894531 22.347656 8.894531 22.355469 8.894531 L 22.363281 8.894531 C 22.761719 8.902344 23.125 8.746094 23.390625 8.488281 C 23.648438 8.238281 23.816406 7.890625 23.828125 7.503906 C 23.828125 7.496094 23.828125 7.488281 23.828125 7.480469 Z M 14.535156 9.660156 C 14.507812 9.804688 14.527344 9.960938 14.605469 10.097656 C 14.6875 10.25 14.824219 10.359375 14.976562 10.410156 C 15.132812 10.460938 15.304688 10.457031 15.464844 10.382812 C 15.558594 10.339844 15.664062 10.335938 15.757812 10.371094 C 16.492188 10.59375 17.167969 10.765625 17.785156 10.875 C 18.257812 10.960938 18.695312 11.015625 19.101562 11.035156 C 19.113281 10.714844 19.078125 10.371094 18.964844 9.988281 C 18.308594 9.996094 17.734375 9.964844 17.25 9.902344 C 16.667969 9.820312 16.203125 9.6875 15.851562 9.5 C 15.796875 9.472656 15.753906 9.433594 15.722656 9.386719 C 15.617188 9.246094 15.46875 9.160156 15.308594 9.128906 C 15.148438 9.101562 14.976562 9.128906 14.828125 9.222656 C 14.683594 9.316406 14.585938 9.457031 14.542969 9.617188 C 14.542969 9.632812 14.539062 9.644531 14.535156 9.660156 Z M 23.421875 10.234375 C 23.226562 9.984375 22.957031 9.789062 22.609375 9.664062 C 22.527344 9.671875 22.441406 9.675781 22.355469 9.675781 C 22.34375 9.675781 22.328125 9.675781 22.3125 9.675781 C 22.035156 9.664062 21.769531 9.605469 21.523438 9.5 C 21.242188 9.507812 20.929688 9.539062 20.585938 9.597656 C 20.316406 9.644531 20.027344 9.710938 19.722656 9.792969 C 20.097656 11.066406 19.785156 11.945312 19.460938 12.859375 C 19.25 13.441406 19.035156 14.042969 19.042969 14.769531 C 19.527344 14.808594 20.003906 14.910156 20.46875 15.074219 C 20.480469 15.078125 20.496094 15.085938 20.511719 15.089844 L 22.148438 13.964844 L 22.15625 11.941406 C 22.15625 11.785156 22.25 11.648438 22.382812 11.585938 C 22.382812 11.585938 22.949219 11.324219 23.75 10.878906 C 23.675781 10.636719 23.566406 10.417969 23.421875 10.234375 Z M 22.207031 16.066406 C 22.160156 16.027344 22.109375 15.988281 22.058594 15.953125 C 21.828125 15.769531 21.585938 15.613281 21.339844 15.472656 L 22.761719 14.496094 C 22.878906 14.414062 22.9375 14.28125 22.929688 14.148438 L 22.933594 12.1875 C 23.144531 12.085938 23.484375 11.914062 23.90625 11.683594 C 24.183594 13.328125 24.320312 14.132812 24.25 14.558594 C 24.203125 14.851562 23.976562 14.976562 23.53125 15.230469 C 23.453125 15.273438 23.371094 15.324219 23.242188 15.398438 C 22.941406 15.570312 22.648438 15.769531 22.3125 15.996094 C 22.277344 16.019531 22.242188 16.042969 22.207031 16.066406 Z M 17.1875 18.460938 C 17.40625 18.339844 17.636719 18.246094 17.875 18.179688 C 18.113281 18.113281 18.359375 18.074219 18.605469 18.066406 C 18.617188 18.066406 18.632812 18.066406 18.644531 18.066406 C 18.890625 18.085938 19.136719 18.128906 19.375 18.203125 C 19.609375 18.277344 19.835938 18.378906 20.050781 18.503906 C 20.070312 18.515625 20.085938 18.527344 20.101562 18.542969 C 20.277344 18.6875 20.484375 18.78125 20.699219 18.816406 C 20.914062 18.847656 21.140625 18.828125 21.351562 18.742188 C 21.589844 18.644531 21.777344 18.492188 21.90625 18.304688 C 22.023438 18.136719 22.09375 17.9375 22.117188 17.734375 C 22.140625 17.53125 22.113281 17.320312 22.039062 17.128906 C 21.996094 17.027344 21.941406 16.929688 21.871094 16.839844 C 21.859375 16.828125 21.847656 16.816406 21.839844 16.804688 C 21.769531 16.722656 21.691406 16.648438 21.597656 16.582031 C 21.589844 16.578125 21.582031 16.570312 21.574219 16.566406 C 21.152344 16.234375 20.691406 15.984375 20.207031 15.8125 C 19.707031 15.632812 19.191406 15.542969 18.671875 15.53125 C 18.667969 15.53125 18.667969 15.53125 18.664062 15.53125 C 18.144531 15.523438 17.621094 15.601562 17.117188 15.761719 C 16.628906 15.917969 16.160156 16.15625 15.722656 16.476562 C 15.71875 16.480469 15.710938 16.484375 15.703125 16.488281 C 15.511719 16.613281 15.363281 16.78125 15.269531 16.976562 C 15.171875 17.171875 15.125 17.394531 15.144531 17.625 C 15.164062 17.851562 15.242188 18.0625 15.371094 18.242188 C 15.496094 18.417969 15.671875 18.5625 15.878906 18.65625 C 16.085938 18.746094 16.3125 18.777344 16.53125 18.75 C 16.746094 18.722656 16.957031 18.636719 17.136719 18.496094 C 17.152344 18.480469 17.171875 18.46875 17.1875 18.460938 Z M 24.546875 15.515625 C 24.804688 15.316406 24.957031 15.085938 25.023438 14.6875 C 25.113281 14.128906 24.96875 13.273438 24.675781 11.53125 L 24.617188 11.179688 C 24.539062 10.640625 24.351562 10.148438 24.035156 9.75 C 23.910156 9.589844 23.765625 9.445312 23.597656 9.316406 C 23.71875 9.238281 23.832031 9.148438 23.933594 9.050781 C 24.335938 8.660156 24.589844 8.125 24.609375 7.527344 C 24.609375 7.511719 24.609375 7.496094 24.609375 7.480469 C 24.617188 6.871094 24.378906 6.3125 23.984375 5.90625 C 23.75 5.664062 23.460938 5.472656 23.136719 5.359375 L 23.136719 2.648438 C 23.136719 2.429688 22.960938 2.253906 22.746094 2.253906 L 5.34375 2.253906 C 5.125 2.253906 4.953125 2.429688 4.953125 2.648438 L 4.953125 20.050781 C 4.953125 20.265625 5.125 20.441406 5.34375 20.441406 L 13.144531 20.441406 C 12.976562 20.929688 12.90625 21.4375 12.933594 21.96875 C 12.933594 21.976562 12.9375 21.984375 12.9375 21.996094 L 13.21875 24.308594 C 12.800781 24.683594 12.46875 24.898438 12.230469 25.058594 C 11.382812 25.609375 11.3125 25.660156 11.839844 27.238281 C 11.898438 27.417969 12.074219 27.523438 12.253906 27.503906 L 13.878906 27.320312 C 13.894531 27.371094 13.914062 27.421875 13.929688 27.476562 C 13.992188 27.65625 14.167969 27.765625 14.351562 27.742188 L 17.832031 27.289062 C 17.960938 27.273438 18.066406 27.199219 18.125 27.09375 C 18.300781 26.78125 18.335938 26.433594 18.304688 26.085938 C 18.273438 25.773438 18.195312 25.480469 18.121094 25.214844 C 18.175781 24.996094 18.234375 24.753906 18.289062 24.527344 C 18.617188 23.191406 18.765625 22.589844 19.058594 22.257812 C 19.246094 22.050781 19.53125 21.902344 20 21.703125 L 19.152344 25.914062 C 19.140625 25.949219 19.132812 25.988281 19.132812 26.027344 C 19.132812 26.242188 19.308594 26.417969 19.527344 26.417969 L 24.5 26.417969 C 24.527344 26.417969 24.550781 26.414062 24.578125 26.410156 C 24.789062 26.367188 24.925781 26.160156 24.882812 25.949219 L 23.652344 19.851562 C 24.554688 19.023438 24.539062 18.066406 24.511719 16.488281 L 24.507812 16.261719 C 24.507812 16.128906 24.511719 15.984375 24.523438 15.828125 C 24.53125 15.71875 24.539062 15.617188 24.546875 15.515625 Z M 8.066406 5.074219 C 7.847656 5.292969 7.714844 5.589844 7.714844 5.921875 C 7.714844 6.253906 7.847656 6.554688 8.066406 6.769531 C 8.28125 6.988281 8.582031 7.121094 8.914062 7.121094 C 9.246094 7.121094 9.546875 6.988281 9.761719 6.769531 C 9.980469 6.554688 10.113281 6.253906 10.113281 5.921875 C 10.113281 5.589844 9.980469 5.289062 9.761719 5.074219 C 9.546875 4.855469 9.246094 4.722656 8.914062 4.722656 C 8.582031 4.722656 8.28125 4.855469 8.066406 5.074219 Z M 8.914062 7.90625 C 9.460938 7.90625 9.957031 7.683594 10.316406 7.324219 C 10.675781 6.964844 10.898438 6.46875 10.898438 5.921875 C 10.898438 5.375 10.675781 4.878906 10.316406 4.519531 C 9.957031 4.160156 9.460938 3.9375 8.914062 3.9375 C 8.367188 3.9375 7.871094 4.160156 7.511719 4.519531 C 7.152344 4.878906 6.929688 5.375 6.929688 5.921875 C 6.929688 6.46875 7.152344 6.964844 7.511719 7.324219 C 7.871094 7.683594 8.367188 7.90625 8.914062 7.90625 Z M 8.914062 7.90625 "/>
</g>
</svg>
