<?xml version="1.0" encoding="UTF-8"?>
<svg xmlns="http://www.w3.org/2000/svg" xmlns:xlink="http://www.w3.org/1999/xlink" width="40px" height="40px" viewBox="0 0 40 40" version="1.1">
<g id="surface1">
<path style=" stroke:none;fill-rule:nonzero;fill:rgb(0%,0%,0%);fill-opacity:1;" d="M 13.28125 11.003906 C 12.71875 11.121094 12.3125 11.621094 12.3125 12.195312 L 12.3125 13.457031 L 12.265625 13.457031 C 11.332031 13.457031 10.574219 14.214844 10.574219 15.148438 L 10.574219 16.765625 C 10.574219 18.132812 11.453125 19.328125 12.757812 19.734375 L 13.113281 19.84375 C 13.234375 21.734375 14.117188 23.488281 15.582031 24.710938 L 16.492188 25.46875 L 16.492188 27.269531 L 9.671875 28.882812 C 7.773438 29.332031 6.332031 30.863281 6.007812 32.789062 L 5.765625 34.214844 C 5.710938 34.53125 5.925781 34.835938 6.246094 34.886719 C 6.277344 34.894531 6.3125 34.898438 6.34375 34.898438 C 6.625 34.898438 6.871094 34.695312 6.921875 34.410156 L 7.164062 32.984375 C 7.410156 31.527344 8.5 30.363281 9.941406 30.023438 L 14.113281 29.039062 C 14.710938 31.773438 17.136719 33.765625 20 33.765625 C 22.863281 33.765625 25.289062 31.773438 25.886719 29.039062 L 30.058594 30.023438 C 31.5 30.363281 32.589844 31.527344 32.835938 32.984375 L 33.078125 34.410156 C 33.125 34.695312 33.375 34.898438 33.65625 34.898438 C 33.6875 34.898438 33.722656 34.894531 33.753906 34.886719 C 34.074219 34.835938 34.289062 34.53125 34.234375 34.210938 L 33.992188 32.789062 C 33.667969 30.863281 32.226562 29.332031 30.328125 28.882812 L 23.507812 27.269531 L 23.507812 25.46875 L 24.417969 24.710938 C 25.882812 23.488281 26.765625 21.734375 26.886719 19.84375 L 27.242188 19.734375 C 28.546875 19.324219 29.425781 18.132812 29.425781 16.765625 L 29.425781 15.148438 C 29.425781 14.214844 28.667969 13.457031 27.734375 13.457031 L 27.6875 13.457031 L 27.6875 12.195312 C 27.6875 11.621094 27.28125 11.121094 26.71875 11.003906 L 25.78125 10.808594 C 25.699219 10.566406 25.601562 10.328125 25.488281 10.097656 L 26.011719 9.296875 C 26.328125 8.816406 26.261719 8.175781 25.855469 7.769531 L 25.019531 6.933594 C 24.613281 6.527344 23.96875 6.460938 23.492188 6.773438 L 22.6875 7.300781 C 22.457031 7.1875 22.222656 7.089844 21.980469 7.007812 L 21.78125 6.066406 C 21.667969 5.507812 21.164062 5.097656 20.589844 5.097656 L 19.410156 5.097656 C 18.835938 5.097656 18.332031 5.507812 18.214844 6.066406 L 18.019531 7.007812 C 17.777344 7.089844 17.542969 7.1875 17.3125 7.300781 L 16.507812 6.773438 C 16.03125 6.460938 15.386719 6.527344 14.980469 6.933594 L 14.144531 7.769531 C 13.738281 8.175781 13.671875 8.816406 13.988281 9.296875 L 14.511719 10.097656 C 14.398438 10.328125 14.300781 10.566406 14.21875 10.808594 Z M 11.746094 16.765625 L 11.746094 15.148438 C 11.746094 14.863281 11.980469 14.628906 12.265625 14.628906 L 13.101562 14.628906 L 13.101562 18.613281 C 12.289062 18.355469 11.746094 17.613281 11.746094 16.765625 Z M 17.664062 26.414062 C 18.164062 26.730469 18.742188 26.898438 19.335938 26.898438 L 20.664062 26.898438 C 21.257812 26.898438 21.835938 26.730469 22.332031 26.414062 L 22.332031 27.734375 C 22.332031 29.019531 21.285156 30.066406 20 30.066406 C 18.710938 30.066406 17.664062 29.019531 17.664062 27.734375 Z M 20 32.59375 C 17.6875 32.59375 15.730469 30.980469 15.253906 28.769531 L 16.570312 28.457031 C 16.902344 30.042969 18.3125 31.238281 20 31.238281 C 21.683594 31.238281 23.097656 30.042969 23.429688 28.457031 L 24.746094 28.769531 C 24.269531 30.980469 22.3125 32.59375 20 32.59375 Z M 25.726562 19.410156 C 25.726562 21.117188 24.976562 22.71875 23.667969 23.8125 L 21.90625 25.277344 C 21.558594 25.566406 21.117188 25.726562 20.664062 25.726562 L 19.335938 25.726562 C 18.882812 25.726562 18.441406 25.566406 18.09375 25.277344 L 16.332031 23.8125 C 15.023438 22.71875 14.273438 21.117188 14.273438 19.410156 L 14.273438 14.628906 L 25.726562 14.628906 Z M 18.058594 12.789062 C 18.058594 11.71875 18.929688 10.847656 20 10.847656 C 21.070312 10.847656 21.9375 11.71875 21.9375 12.789062 C 21.9375 13.019531 21.898438 13.246094 21.820312 13.457031 L 18.179688 13.457031 C 18.101562 13.246094 18.058594 13.019531 18.058594 12.789062 Z M 28.253906 15.148438 L 28.253906 16.765625 C 28.253906 17.613281 27.710938 18.355469 26.898438 18.613281 L 26.898438 14.628906 L 27.734375 14.628906 C 28.019531 14.628906 28.253906 14.863281 28.253906 15.148438 Z M 14.796875 11.886719 C 15.011719 11.839844 15.183594 11.679688 15.242188 11.46875 C 15.347656 11.082031 15.503906 10.707031 15.703125 10.355469 C 15.808594 10.164062 15.804688 9.929688 15.683594 9.746094 L 14.96875 8.65625 C 14.957031 8.636719 14.957031 8.613281 14.972656 8.597656 L 15.808594 7.761719 C 15.824219 7.746094 15.847656 7.742188 15.867188 7.753906 L 16.957031 8.46875 C 17.140625 8.589844 17.378906 8.597656 17.570312 8.488281 C 17.917969 8.292969 18.292969 8.136719 18.679688 8.027344 C 18.890625 7.96875 19.054688 7.796875 19.097656 7.582031 L 19.363281 6.308594 C 19.367188 6.285156 19.386719 6.269531 19.410156 6.269531 L 20.589844 6.269531 C 20.613281 6.269531 20.632812 6.285156 20.636719 6.308594 L 20.902344 7.582031 C 20.945312 7.796875 21.109375 7.96875 21.320312 8.027344 C 21.707031 8.136719 22.082031 8.292969 22.429688 8.488281 C 22.621094 8.597656 22.859375 8.589844 23.042969 8.46875 L 24.132812 7.753906 C 24.152344 7.742188 24.175781 7.746094 24.191406 7.761719 L 25.027344 8.597656 C 25.042969 8.613281 25.042969 8.636719 25.03125 8.65625 L 24.316406 9.746094 C 24.195312 9.929688 24.1875 10.164062 24.296875 10.355469 C 24.496094 10.707031 24.652344 11.082031 24.757812 11.46875 C 24.816406 11.679688 24.988281 11.839844 25.203125 11.886719 L 26.480469 12.152344 C 26.5 12.15625 26.515625 12.175781 26.515625 12.195312 L 26.515625 13.457031 L 23.035156 13.457031 C 23.085938 13.238281 23.109375 13.015625 23.109375 12.789062 C 23.109375 11.070312 21.714844 9.675781 20 9.675781 C 18.285156 9.675781 16.886719 11.070312 16.886719 12.789062 C 16.886719 13.015625 16.914062 13.238281 16.964844 13.457031 L 13.484375 13.457031 L 13.484375 12.195312 C 13.484375 12.175781 13.5 12.15625 13.519531 12.152344 Z M 14.796875 11.886719 "/>
<path style=" stroke:none;fill-rule:nonzero;fill:rgb(0%,0%,0%);fill-opacity:1;" d="M 34.691406 36.917969 C 34.636719 36.597656 34.335938 36.382812 34.015625 36.4375 C 33.695312 36.492188 33.480469 36.792969 33.535156 37.113281 L 33.828125 38.828125 L 28.953125 38.828125 L 28.953125 36.238281 L 29.679688 34.78125 C 29.824219 34.492188 29.707031 34.140625 29.417969 33.996094 C 29.125 33.851562 28.773438 33.96875 28.628906 34.257812 L 27.839844 35.835938 C 27.800781 35.917969 27.78125 36.007812 27.78125 36.097656 L 27.78125 38.828125 L 12.21875 38.828125 L 12.21875 36.097656 C 12.21875 36.007812 12.199219 35.917969 12.160156 35.835938 L 11.371094 34.257812 C 11.226562 33.96875 10.871094 33.851562 10.582031 33.996094 C 10.292969 34.140625 10.175781 34.492188 10.320312 34.78125 L 11.046875 36.238281 L 11.046875 38.828125 L 6.171875 38.828125 L 6.464844 37.113281 C 6.519531 36.792969 6.304688 36.492188 5.984375 36.4375 C 5.664062 36.382812 5.363281 36.597656 5.308594 36.917969 L 4.902344 39.316406 C 4.871094 39.484375 4.917969 39.660156 5.03125 39.792969 C 5.140625 39.925781 5.304688 40 5.480469 40 L 34.519531 40 C 34.695312 40 34.855469 39.925781 34.96875 39.792969 C 35.078125 39.660156 35.128906 39.484375 35.097656 39.316406 Z M 34.691406 36.917969 "/>
<path style=" stroke:none;fill-rule:nonzero;fill:rgb(0%,0%,0%);fill-opacity:1;" d="M 13.105469 5.636719 C 13.105469 2.527344 10.578125 0 7.46875 0 C 4.363281 0 1.832031 2.527344 1.832031 5.636719 C 1.832031 8.746094 4.363281 11.273438 7.46875 11.273438 C 10.578125 11.273438 13.105469 8.746094 13.105469 5.636719 Z M 3.003906 5.636719 C 3.003906 3.175781 5.007812 1.171875 7.46875 1.171875 C 9.933594 1.171875 11.933594 3.175781 11.933594 5.636719 C 11.933594 8.097656 9.933594 10.101562 7.46875 10.101562 C 5.007812 10.101562 3.003906 8.097656 3.003906 5.636719 Z M 3.003906 5.636719 "/>
<path style=" stroke:none;fill-rule:nonzero;fill:rgb(0%,0%,0%);fill-opacity:1;" d="M 10.582031 5.761719 C 10.582031 5.4375 10.320312 5.175781 9.996094 5.175781 C 9.671875 5.175781 9.410156 5.4375 9.410156 5.761719 C 9.410156 6.832031 8.539062 7.703125 7.46875 7.703125 C 6.402344 7.703125 5.53125 6.832031 5.53125 5.761719 C 5.53125 5.4375 5.269531 5.175781 4.945312 5.175781 C 4.621094 5.175781 4.359375 5.4375 4.359375 5.761719 C 4.359375 7.476562 5.753906 8.875 7.46875 8.875 C 9.1875 8.875 10.582031 7.476562 10.582031 5.761719 Z M 10.582031 5.761719 "/>
<path style=" stroke:none;fill-rule:nonzero;fill:rgb(0%,0%,0%);fill-opacity:1;" d="M 32.53125 0 C 31.359375 0 30.234375 0.355469 29.28125 1.03125 C 29.015625 1.21875 28.953125 1.582031 29.140625 1.847656 C 29.328125 2.109375 29.691406 2.175781 29.957031 1.988281 C 30.710938 1.453125 31.601562 1.171875 32.53125 1.171875 C 34.992188 1.171875 36.996094 3.175781 36.996094 5.636719 C 36.996094 8.097656 34.992188 10.101562 32.53125 10.101562 C 30.066406 10.101562 28.066406 8.097656 28.066406 5.636719 C 28.066406 5.015625 28.1875 4.417969 28.433594 3.859375 C 28.5625 3.5625 28.425781 3.214844 28.128906 3.085938 C 27.832031 2.957031 27.488281 3.09375 27.359375 3.390625 C 27.050781 4.097656 26.894531 4.855469 26.894531 5.636719 C 26.894531 8.746094 29.421875 11.273438 32.53125 11.273438 C 35.636719 11.273438 38.167969 8.746094 38.167969 5.636719 C 38.167969 2.527344 35.636719 0 32.53125 0 Z M 32.53125 0 "/>
<path style=" stroke:none;fill-rule:nonzero;fill:rgb(0%,0%,0%);fill-opacity:1;" d="M 30.652344 8.175781 C 30.976562 8.175781 31.238281 7.914062 31.238281 7.589844 C 31.238281 6.878906 31.816406 6.300781 32.527344 6.300781 C 33.238281 6.300781 33.820312 6.878906 33.820312 7.589844 C 33.820312 7.914062 34.082031 8.175781 34.40625 8.175781 C 34.726562 8.175781 34.992188 7.914062 34.992188 7.589844 C 34.992188 6.234375 33.886719 5.128906 32.527344 5.128906 C 31.171875 5.128906 30.066406 6.234375 30.066406 7.589844 C 30.066406 7.914062 30.332031 8.175781 30.652344 8.175781 Z M 30.652344 8.175781 "/>
<path style=" stroke:none;fill-rule:nonzero;fill:rgb(0%,0%,0%);fill-opacity:1;" d="M 9.40625 3.710938 C 9.40625 3.386719 9.144531 3.125 8.820312 3.125 C 8.496094 3.125 8.234375 3.386719 8.234375 3.710938 C 8.234375 4.035156 8.496094 4.296875 8.820312 4.296875 C 9.144531 4.296875 9.40625 4.035156 9.40625 3.710938 Z M 9.40625 3.710938 "/>
<path style=" stroke:none;fill-rule:nonzero;fill:rgb(0%,0%,0%);fill-opacity:1;" d="M 31.765625 3.488281 C 31.765625 3.164062 31.5 2.902344 31.179688 2.902344 C 30.855469 2.902344 30.59375 3.164062 30.59375 3.488281 C 30.59375 3.808594 30.855469 4.074219 31.179688 4.074219 C 31.5 4.074219 31.765625 3.808594 31.765625 3.488281 Z M 31.765625 3.488281 "/>
<path style=" stroke:none;fill-rule:nonzero;fill:rgb(0%,0%,0%);fill-opacity:1;" d="M 34.464844 3.488281 C 34.464844 3.164062 34.203125 2.902344 33.878906 2.902344 C 33.558594 2.902344 33.292969 3.164062 33.292969 3.488281 C 33.292969 3.808594 33.558594 4.074219 33.878906 4.074219 C 34.203125 4.074219 34.464844 3.808594 34.464844 3.488281 Z M 34.464844 3.488281 "/>
<path style=" stroke:none;fill-rule:nonzero;fill:rgb(0%,0%,0%);fill-opacity:1;" d="M 6.707031 3.710938 C 6.707031 3.386719 6.441406 3.125 6.121094 3.125 C 5.796875 3.125 5.535156 3.386719 5.535156 3.710938 C 5.535156 4.035156 5.796875 4.296875 6.121094 4.296875 C 6.441406 4.296875 6.707031 4.035156 6.707031 3.710938 Z M 6.707031 3.710938 "/>
</g>
</svg>
