<?xml version="1.0" encoding="UTF-8"?>
<svg xmlns="http://www.w3.org/2000/svg" xmlns:xlink="http://www.w3.org/1999/xlink" width="45px" height="45px" viewBox="0 0 45 45" version="1.1">
<g id="surface1">
<path style=" stroke:none;fill-rule:nonzero;fill:#21a96a;fill-opacity:1;" d="M 21.703125 12.308594 C 21.703125 7.125 17.488281 2.910156 12.308594 2.910156 C 7.125 2.910156 2.910156 7.125 2.910156 12.308594 C 2.910156 17.488281 7.125 21.703125 12.308594 21.703125 C 17.488281 21.703125 21.703125 17.488281 21.703125 12.308594 Z M 10.054688 20.066406 L 10.054688 18.132812 C 10.054688 17.769531 9.757812 17.472656 9.394531 17.472656 C 9.03125 17.472656 8.734375 17.769531 8.734375 18.132812 L 8.734375 19.550781 C 8.164062 19.265625 7.628906 18.917969 7.144531 18.511719 L 7.144531 16.675781 C 7.144531 15.433594 8.152344 14.421875 9.394531 14.421875 L 15.21875 14.421875 C 16.460938 14.421875 17.472656 15.433594 17.472656 16.675781 L 17.472656 18.511719 C 16.988281 18.917969 16.453125 19.265625 15.878906 19.550781 L 15.878906 18.132812 C 15.878906 17.769531 15.582031 17.472656 15.21875 17.472656 C 14.855469 17.472656 14.5625 17.769531 14.5625 18.132812 L 14.5625 20.066406 C 13.84375 20.273438 13.089844 20.382812 12.308594 20.382812 C 11.527344 20.382812 10.769531 20.273438 10.054688 20.066406 Z M 12.308594 13.105469 C 10.664062 13.105469 9.328125 11.765625 9.328125 10.125 C 9.328125 8.480469 10.664062 7.144531 12.308594 7.144531 C 13.953125 7.144531 15.289062 8.480469 15.289062 10.125 C 15.289062 11.765625 13.953125 13.105469 12.308594 13.105469 Z M 4.230469 12.308594 C 4.230469 7.855469 7.855469 4.230469 12.308594 4.230469 C 16.761719 4.230469 20.382812 7.855469 20.382812 12.308594 C 20.382812 14.109375 19.792969 15.773438 18.789062 17.121094 L 18.789062 16.675781 C 18.789062 14.765625 17.285156 13.203125 15.398438 13.109375 C 16.144531 12.335938 16.605469 11.28125 16.605469 10.125 C 16.605469 7.753906 14.679688 5.824219 12.308594 5.824219 C 9.9375 5.824219 8.007812 7.753906 8.007812 10.125 C 8.007812 11.28125 8.46875 12.335938 9.21875 13.109375 C 7.332031 13.203125 5.824219 14.765625 5.824219 16.675781 L 5.824219 17.121094 C 4.824219 15.773438 4.230469 14.109375 4.230469 12.308594 Z M 4.230469 12.308594 "/>
<path style=" stroke:none;fill-rule:nonzero;fill:rgb(0%,0%,0%);fill-opacity:1;" d="M 32.691406 42.089844 C 37.875 42.089844 42.089844 37.875 42.089844 32.691406 C 42.089844 27.511719 37.875 23.296875 32.691406 23.296875 C 27.511719 23.296875 23.296875 27.511719 23.296875 32.691406 C 23.296875 37.875 27.511719 42.089844 32.691406 42.089844 Z M 30.4375 40.449219 L 30.4375 38.515625 C 30.4375 38.152344 30.144531 37.855469 29.78125 37.855469 C 29.417969 37.855469 29.121094 38.152344 29.121094 38.515625 L 29.121094 39.9375 C 28.546875 39.652344 28.011719 39.304688 27.527344 38.898438 L 27.527344 37.058594 C 27.527344 35.816406 28.539062 34.808594 29.78125 34.808594 L 35.605469 34.808594 C 36.847656 34.808594 37.855469 35.816406 37.855469 37.058594 L 37.855469 38.898438 C 37.371094 39.304688 36.835938 39.652344 36.265625 39.9375 L 36.265625 38.515625 C 36.265625 38.152344 35.96875 37.855469 35.605469 37.855469 C 35.242188 37.855469 34.945312 38.152344 34.945312 38.515625 L 34.945312 40.449219 C 34.230469 40.65625 33.472656 40.769531 32.691406 40.769531 C 31.910156 40.769531 31.15625 40.65625 30.4375 40.449219 Z M 32.691406 33.488281 C 31.046875 33.488281 29.710938 32.152344 29.710938 30.507812 C 29.710938 28.863281 31.046875 27.527344 32.691406 27.527344 C 34.335938 27.527344 35.671875 28.863281 35.671875 30.507812 C 35.671875 32.152344 34.335938 33.488281 32.691406 33.488281 Z M 32.691406 24.617188 C 37.144531 24.617188 40.769531 28.238281 40.769531 32.691406 C 40.769531 34.492188 40.175781 36.160156 39.175781 37.503906 L 39.175781 37.0625 C 39.175781 35.152344 37.667969 33.585938 35.78125 33.492188 C 36.53125 32.71875 36.992188 31.667969 36.992188 30.507812 C 36.992188 28.136719 35.0625 26.210938 32.691406 26.210938 C 30.320312 26.210938 28.394531 28.136719 28.394531 30.507812 C 28.394531 31.667969 28.855469 32.71875 29.601562 33.492188 C 27.714844 33.585938 26.210938 35.152344 26.210938 37.0625 L 26.210938 37.503906 C 25.207031 36.160156 24.617188 34.492188 24.617188 32.691406 C 24.617188 28.238281 28.238281 24.617188 32.691406 24.617188 Z M 32.691406 24.617188 "/>
<path style=" stroke:none;fill-rule:nonzero;fill:rgb(0%,0%,0%);fill-opacity:1;" d="M 39.898438 22.722656 L 39.898438 10.851562 C 39.898438 10.085938 39.277344 9.464844 38.511719 9.464844 L 33.109375 9.464844 L 33.109375 8.667969 C 33.109375 8.277344 32.890625 7.925781 32.542969 7.753906 C 32.195312 7.578125 31.785156 7.613281 31.472656 7.847656 L 26.617188 11.488281 C 26.359375 11.683594 26.210938 11.984375 26.210938 12.308594 C 26.210938 12.632812 26.359375 12.929688 26.617188 13.125 L 31.472656 16.765625 C 31.785156 17 32.195312 17.039062 32.542969 16.863281 C 32.890625 16.6875 33.109375 16.335938 33.109375 15.949219 L 33.109375 15.152344 L 34.210938 15.152344 L 34.210938 20.476562 C 33.714844 20.417969 33.207031 20.382812 32.691406 20.382812 C 30.554688 20.382812 28.449219 20.941406 26.601562 21.996094 C 26.285156 22.175781 26.175781 22.578125 26.355469 22.894531 C 26.535156 23.210938 26.9375 23.320312 27.253906 23.140625 C 28.902344 22.199219 30.78125 21.703125 32.691406 21.703125 C 38.75 21.703125 43.679688 26.632812 43.679688 32.691406 C 43.679688 38.75 38.75 43.679688 32.691406 43.679688 C 26.632812 43.679688 21.703125 38.75 21.703125 32.691406 C 21.703125 29.753906 22.847656 26.992188 24.925781 24.917969 C 25.183594 24.660156 25.183594 24.242188 24.925781 23.984375 C 24.667969 23.726562 24.25 23.726562 23.996094 23.984375 C 21.667969 26.308594 20.382812 29.402344 20.382812 32.691406 C 20.382812 39.480469 25.90625 45 32.691406 45 C 39.480469 45 45 39.480469 45 32.691406 C 45 28.59375 42.988281 24.960938 39.898438 22.722656 Z M 34.507812 13.832031 L 32.8125 13.832031 C 32.25 13.832031 31.789062 14.292969 31.789062 14.855469 L 31.789062 15.355469 L 27.722656 12.308594 L 31.789062 9.257812 L 31.789062 9.757812 C 31.789062 10.324219 32.25 10.78125 32.8125 10.78125 L 38.511719 10.78125 C 38.546875 10.78125 38.578125 10.8125 38.578125 10.851562 L 38.578125 21.886719 C 37.632812 21.367188 36.609375 20.96875 35.53125 20.714844 L 35.53125 14.855469 C 35.53125 14.292969 35.070312 13.832031 34.507812 13.832031 Z M 34.507812 13.832031 "/>
<path style=" stroke:none;fill-rule:nonzero;fill:rgb(0%,0%,0%);fill-opacity:1;" d="M 18.375 31.875 L 13.523438 28.234375 C 13.210938 28 12.800781 27.960938 12.449219 28.136719 C 12.101562 28.3125 11.886719 28.660156 11.886719 29.050781 L 11.886719 29.847656 L 10.78125 29.847656 L 10.78125 24.519531 C 11.28125 24.582031 11.792969 24.613281 12.308594 24.613281 C 19.09375 24.613281 24.617188 19.09375 24.617188 12.308594 C 24.617188 5.519531 19.09375 0 12.308594 0 C 5.519531 0 0 5.519531 0 12.308594 C 0 16.402344 2.011719 20.035156 5.097656 22.273438 L 5.097656 24.710938 C 5.097656 25.074219 5.390625 25.367188 5.753906 25.367188 C 6.121094 25.367188 6.414062 25.074219 6.414062 24.710938 L 6.414062 23.109375 C 7.363281 23.628906 8.386719 24.027344 9.464844 24.28125 L 9.464844 30.144531 C 9.464844 30.707031 9.921875 31.167969 10.488281 31.167969 L 12.179688 31.167969 C 12.746094 31.167969 13.203125 30.707031 13.203125 30.144531 L 13.203125 29.640625 L 17.269531 32.691406 L 13.203125 35.742188 L 13.203125 35.242188 C 13.203125 34.675781 12.746094 34.21875 12.179688 34.21875 L 6.484375 34.21875 C 6.445312 34.21875 6.414062 34.1875 6.414062 34.148438 L 6.414062 27.785156 C 6.414062 27.421875 6.121094 27.125 5.753906 27.125 C 5.390625 27.125 5.097656 27.421875 5.097656 27.785156 L 5.097656 34.148438 C 5.097656 34.914062 5.71875 35.535156 6.484375 35.535156 L 11.886719 35.535156 L 11.886719 36.332031 C 11.886719 36.722656 12.101562 37.074219 12.449219 37.246094 C 12.597656 37.320312 12.753906 37.355469 12.910156 37.355469 C 13.125 37.355469 13.339844 37.285156 13.523438 37.152344 L 18.375 33.511719 C 18.636719 33.316406 18.785156 33.015625 18.785156 32.691406 C 18.785156 32.367188 18.636719 32.070312 18.375 31.875 Z M 1.320312 12.308594 C 1.320312 6.25 6.25 1.320312 12.308594 1.320312 C 18.367188 1.320312 23.296875 6.25 23.296875 12.308594 C 23.296875 18.367188 18.367188 23.296875 12.308594 23.296875 C 6.25 23.296875 1.320312 18.367188 1.320312 12.308594 Z M 1.320312 12.308594 "/>
</g>
</svg>
