<?xml version="1.0" encoding="UTF-8"?>
<svg xmlns="http://www.w3.org/2000/svg" xmlns:xlink="http://www.w3.org/1999/xlink" width="70px" height="70px" viewBox="0 0 70 70" version="1.1">
<g id="surface1">
<path style=" stroke:none;fill-rule:nonzero;fill:rgb(0%,0%,0%);fill-opacity:1;" d="M 64.042969 46.714844 L 62.605469 46.714844 C 61.390625 46.714844 60.230469 46.335938 59.273438 45.667969 C 60.753906 42.300781 61.507812 38.71875 61.507812 35 C 61.507812 31.007812 60.640625 27.171875 58.933594 23.59375 C 58.6875 23.082031 58.078125 22.867188 57.566406 23.109375 C 57.054688 23.355469 56.839844 23.964844 57.082031 24.476562 C 58.65625 27.777344 59.457031 31.316406 59.457031 35 C 59.457031 38.144531 58.875 41.183594 57.722656 44.058594 C 57.640625 43.929688 57.5625 43.792969 57.488281 43.65625 L 50.671875 30.984375 C 50.253906 30.210938 49.449219 29.726562 48.566406 29.726562 L 47.410156 29.726562 C 45.832031 29.726562 44.40625 30.535156 43.597656 31.890625 C 42.785156 33.246094 42.75 34.882812 43.496094 36.273438 L 46.554688 41.964844 C 46.636719 42.113281 46.585938 42.238281 46.546875 42.300781 C 46.511719 42.363281 46.421875 42.46875 46.253906 42.46875 L 33.125 42.46875 C 31.429688 42.46875 30.050781 43.847656 30.050781 45.542969 L 30.050781 47.8125 C 30.050781 48.601562 30.347656 49.320312 30.835938 49.863281 C 30.347656 50.410156 30.050781 51.128906 30.050781 51.914062 L 30.050781 54.183594 C 30.050781 54.96875 30.347656 55.6875 30.835938 56.234375 C 30.347656 56.777344 30.050781 57.496094 30.050781 58.285156 L 30.050781 58.953125 C 18.847656 56.640625 10.542969 46.550781 10.542969 35 C 10.542969 31.855469 11.125 28.816406 12.277344 25.941406 C 12.359375 26.070312 12.4375 26.207031 12.511719 26.34375 L 19.328125 39.015625 C 19.746094 39.789062 20.550781 40.273438 21.433594 40.273438 L 22.589844 40.273438 C 24.167969 40.273438 25.59375 39.464844 26.402344 38.109375 C 27.214844 36.753906 27.25 35.117188 26.503906 33.726562 L 23.984375 29.042969 C 23.738281 28.582031 23.917969 28.183594 24.007812 28.03125 C 24.097656 27.882812 24.363281 27.53125 24.890625 27.53125 L 36.875 27.53125 C 38.570312 27.53125 39.949219 26.152344 39.949219 24.457031 L 39.949219 22.1875 C 39.949219 21.402344 39.652344 20.679688 39.164062 20.136719 C 39.652344 19.59375 39.949219 18.875 39.949219 18.085938 L 39.949219 15.816406 C 39.949219 15.03125 39.652344 14.3125 39.164062 13.765625 C 39.652344 13.222656 39.949219 12.503906 39.949219 11.714844 L 39.949219 11.046875 C 45.898438 12.261719 51.117188 15.613281 54.746094 20.570312 C 54.945312 20.84375 55.257812 20.988281 55.574219 20.988281 C 55.785156 20.988281 55.996094 20.925781 56.179688 20.789062 C 56.636719 20.457031 56.734375 19.8125 56.402344 19.359375 C 54.355469 16.5625 51.824219 14.226562 48.878906 12.414062 C 46.109375 10.707031 43.09375 9.542969 39.910156 8.949219 C 39.710938 7.734375 38.796875 6.753906 37.617188 6.460938 C 37.753906 6.117188 37.828125 5.738281 37.828125 5.34375 L 37.828125 3.078125 C 37.828125 1.378906 36.449219 0 34.75 0 L 16.03125 0 C 13.273438 0 10.761719 1.40625 9.320312 3.765625 C 9.140625 4.0625 8.808594 4.246094 8.453125 4.246094 L 5.957031 4.246094 C 5.011719 4.246094 4.246094 5.015625 4.246094 5.957031 L 4.246094 9.324219 C 4.246094 9.890625 4.707031 10.351562 5.273438 10.351562 C 5.839844 10.351562 6.296875 9.890625 6.296875 9.324219 L 6.296875 6.296875 L 8.453125 6.296875 C 9.515625 6.296875 10.519531 5.738281 11.070312 4.835938 C 12.136719 3.09375 13.992188 2.050781 16.03125 2.050781 L 34.75 2.050781 C 35.316406 2.050781 35.777344 2.511719 35.777344 3.078125 L 35.777344 5.34375 C 35.777344 5.910156 35.316406 6.371094 34.75 6.371094 L 30.433594 6.371094 C 29.867188 6.371094 29.40625 6.828125 29.40625 7.394531 C 29.40625 7.960938 29.867188 8.421875 30.433594 8.421875 L 36.875 8.421875 C 37.441406 8.421875 37.898438 8.882812 37.898438 9.445312 L 37.898438 11.714844 C 37.898438 12.28125 37.441406 12.742188 36.875 12.742188 L 30.433594 12.742188 C 29.867188 12.742188 29.40625 13.199219 29.40625 13.765625 C 29.40625 14.332031 29.867188 14.792969 30.433594 14.792969 L 36.875 14.792969 C 37.441406 14.792969 37.898438 15.25 37.898438 15.816406 L 37.898438 18.085938 C 37.898438 18.652344 37.441406 19.109375 36.875 19.109375 L 30.433594 19.109375 C 29.867188 19.109375 29.40625 19.570312 29.40625 20.136719 C 29.40625 20.703125 29.867188 21.160156 30.433594 21.160156 L 36.875 21.160156 C 37.441406 21.160156 37.898438 21.621094 37.898438 22.1875 L 37.898438 24.457031 C 37.898438 25.023438 37.441406 25.480469 36.875 25.480469 C 29.804688 25.480469 31.613281 25.480469 19.816406 25.480469 C 19.25 25.480469 18.789062 25.941406 18.789062 26.507812 C 18.789062 27.074219 19.25 27.53125 19.816406 27.53125 L 21.988281 27.53125 C 21.699219 28.34375 21.761719 29.234375 22.179688 30.015625 L 24.699219 34.695312 C 25.101562 35.445312 25.078125 36.328125 24.644531 37.058594 C 24.207031 37.785156 23.441406 38.222656 22.589844 38.222656 L 21.433594 38.222656 C 21.308594 38.222656 21.191406 38.152344 21.132812 38.042969 L 14.320312 25.371094 C 12.945312 22.820312 10.292969 21.234375 7.394531 21.234375 L 6.296875 21.234375 L 6.296875 14.113281 C 6.296875 13.546875 5.839844 13.085938 5.273438 13.085938 C 4.707031 13.085938 4.246094 13.546875 4.246094 14.113281 L 4.246094 21.578125 C 4.246094 22.519531 5.011719 23.285156 5.957031 23.285156 L 7.394531 23.285156 C 8.609375 23.285156 9.769531 23.664062 10.726562 24.335938 C 9.246094 27.699219 8.492188 31.28125 8.492188 35 C 8.492188 47.886719 17.722656 58.730469 30.089844 61.050781 C 30.289062 62.265625 31.203125 63.246094 32.382812 63.539062 C 32.246094 63.886719 32.171875 64.261719 32.171875 64.65625 L 32.171875 66.925781 C 32.171875 68.621094 33.550781 70 35.25 70 L 53.96875 70 C 56.726562 70 59.238281 68.59375 60.679688 66.234375 C 60.859375 65.9375 61.191406 65.753906 61.546875 65.753906 L 64.042969 65.753906 C 64.988281 65.753906 65.753906 64.984375 65.753906 64.042969 L 65.753906 48.421875 C 65.753906 47.480469 64.988281 46.714844 64.042969 46.714844 Z M 32.101562 45.542969 C 32.101562 44.980469 32.558594 44.519531 33.125 44.519531 L 41.765625 44.519531 C 42.328125 44.519531 42.789062 44.980469 42.789062 45.542969 L 42.789062 47.8125 C 42.789062 48.378906 42.328125 48.839844 41.765625 48.839844 L 38.78125 48.839844 C 38.214844 48.839844 37.753906 49.296875 37.753906 49.863281 C 37.753906 50.429688 38.214844 50.890625 38.78125 50.890625 L 41.765625 50.890625 C 42.328125 50.890625 42.789062 51.347656 42.789062 51.914062 L 42.789062 54.183594 C 42.789062 54.75 42.328125 55.207031 41.765625 55.207031 L 33.125 55.207031 C 32.558594 55.207031 32.101562 54.75 32.101562 54.183594 L 32.101562 51.914062 C 32.101562 51.347656 32.558594 50.890625 33.125 50.890625 L 33.996094 50.890625 C 34.5625 50.890625 35.019531 50.429688 35.019531 49.863281 C 35.019531 49.296875 34.5625 48.839844 33.996094 48.839844 L 33.125 48.839844 C 32.558594 48.839844 32.101562 48.378906 32.101562 47.8125 Z M 32.101562 60.191406 C 32.101562 60.183594 32.101562 60.175781 32.101562 60.164062 L 32.101562 58.285156 C 32.101562 57.71875 32.558594 57.257812 33.125 57.257812 L 41.765625 57.257812 C 42.328125 57.257812 42.789062 57.71875 42.789062 58.285156 L 42.789062 60.554688 C 42.789062 61.121094 42.328125 61.578125 41.765625 61.578125 L 33.125 61.578125 C 32.558594 61.578125 32.101562 61.121094 32.101562 60.554688 Z M 34.222656 66.921875 L 34.222656 64.65625 C 34.222656 64.089844 34.683594 63.628906 35.25 63.628906 L 41.765625 63.628906 C 42.328125 63.628906 42.789062 64.089844 42.789062 64.65625 L 42.789062 66.921875 C 42.789062 67.488281 42.328125 67.949219 41.765625 67.949219 L 35.25 67.949219 C 34.683594 67.949219 34.222656 67.488281 34.222656 66.921875 Z M 63.703125 63.703125 L 61.546875 63.703125 C 60.484375 63.703125 59.480469 64.261719 58.929688 65.164062 C 57.863281 66.910156 56.007812 67.949219 53.96875 67.949219 L 44.664062 67.949219 C 44.777344 67.628906 44.839844 67.285156 44.839844 66.925781 L 44.839844 64.65625 C 44.839844 63.867188 44.542969 63.148438 44.054688 62.605469 C 44.542969 62.058594 44.839844 61.339844 44.839844 60.554688 L 44.839844 58.285156 C 44.839844 57.496094 44.542969 56.777344 44.054688 56.234375 C 44.542969 55.691406 44.839844 54.96875 44.839844 54.183594 L 44.839844 51.914062 C 44.839844 51.128906 44.542969 50.410156 44.054688 49.863281 C 44.542969 49.320312 44.839844 48.601562 44.839844 47.8125 L 44.839844 45.542969 C 44.839844 45.183594 44.777344 44.839844 44.664062 44.519531 L 46.253906 44.519531 C 46.78125 44.519531 47.273438 44.351562 47.679688 44.050781 L 47.933594 44.53125 C 48.527344 45.628906 48.839844 46.867188 48.839844 48.117188 L 48.839844 50.695312 C 48.839844 54.449219 51.230469 57.769531 54.792969 58.957031 L 55.910156 59.332031 C 56.445312 59.507812 57.027344 59.21875 57.207031 58.683594 C 57.386719 58.144531 57.09375 57.5625 56.558594 57.382812 L 55.441406 57.011719 C 52.71875 56.105469 50.890625 53.566406 50.890625 50.695312 L 50.890625 48.117188 C 50.890625 46.53125 50.492188 44.953125 49.742188 43.558594 L 45.300781 35.304688 C 44.898438 34.554688 44.917969 33.671875 45.355469 32.941406 C 45.792969 32.214844 46.558594 31.777344 47.410156 31.777344 L 48.566406 31.777344 C 48.691406 31.777344 48.808594 31.847656 48.867188 31.957031 L 55.679688 44.628906 C 57.054688 47.179688 59.707031 48.765625 62.605469 48.765625 L 63.703125 48.765625 Z M 63.703125 63.703125 "/>
</g>
</svg>
