<?xml version="1.0" encoding="UTF-8"?>
<svg xmlns="http://www.w3.org/2000/svg" xmlns:xlink="http://www.w3.org/1999/xlink" width="45px" height="45px" viewBox="0 0 45 45" version="1.1">
<g id="surface1">
<path style=" stroke:none;fill-rule:nonzero;fill:#21a96a;fill-opacity:1;" d="M 9.242188 17.34375 C 8.898438 17.230469 8.527344 17.421875 8.414062 17.765625 C 7.933594 19.242188 7.691406 20.785156 7.691406 22.34375 C 7.691406 24.980469 8.390625 27.570312 9.71875 29.832031 C 9.84375 30.039062 10.0625 30.15625 10.289062 30.15625 C 10.402344 30.15625 10.519531 30.128906 10.621094 30.066406 C 10.9375 29.882812 11.042969 29.476562 10.859375 29.164062 C 9.648438 27.105469 9.007812 24.746094 9.007812 22.34375 C 9.007812 20.921875 9.230469 19.519531 9.667969 18.175781 C 9.78125 17.828125 9.589844 17.457031 9.242188 17.34375 Z M 9.242188 17.34375 "/>
<path style=" stroke:none;fill-rule:nonzero;fill:rgb(0%,0%,0%);fill-opacity:1;" d="M 37.296875 21.769531 C 37.246094 20.40625 37.007812 19.058594 36.585938 17.765625 C 36.472656 17.421875 36.101562 17.230469 35.757812 17.34375 C 35.410156 17.457031 35.21875 17.828125 35.332031 18.175781 C 35.714844 19.351562 35.933594 20.578125 35.980469 21.820312 C 35.996094 22.175781 36.285156 22.457031 36.640625 22.457031 C 36.648438 22.457031 36.65625 22.457031 36.664062 22.453125 C 37.027344 22.441406 37.3125 22.136719 37.296875 21.769531 Z M 37.296875 21.769531 "/>
<path style=" stroke:none;fill-rule:nonzero;fill:rgb(0%,0%,0%);fill-opacity:1;" d="M 35.773438 24.753906 C 35.492188 26.316406 34.945312 27.800781 34.144531 29.164062 C 33.957031 29.476562 34.0625 29.882812 34.378906 30.066406 C 34.480469 30.128906 34.597656 30.15625 34.710938 30.15625 C 34.9375 30.15625 35.15625 30.039062 35.28125 29.832031 C 36.160156 28.332031 36.761719 26.703125 37.070312 24.988281 C 37.136719 24.632812 36.898438 24.289062 36.539062 24.222656 C 36.183594 24.160156 35.839844 24.398438 35.773438 24.753906 Z M 35.773438 24.753906 "/>
<path style=" stroke:none;fill-rule:nonzero;fill:rgb(0%,0%,0%);fill-opacity:1;" d="M 14.175781 17.382812 C 13.851562 17.21875 13.453125 17.347656 13.289062 17.671875 C 12.546875 19.128906 12.171875 20.699219 12.171875 22.34375 C 12.171875 23.761719 12.457031 25.136719 13.011719 26.429688 C 13.121094 26.679688 13.363281 26.828125 13.617188 26.828125 C 13.707031 26.828125 13.792969 26.8125 13.878906 26.773438 C 14.214844 26.628906 14.367188 26.242188 14.222656 25.90625 C 13.738281 24.78125 13.492188 23.582031 13.492188 22.34375 C 13.492188 20.910156 13.820312 19.539062 14.464844 18.269531 C 14.628906 17.945312 14.5 17.546875 14.175781 17.382812 Z M 14.175781 17.382812 "/>
<path style=" stroke:none;fill-rule:nonzero;fill:rgb(0%,0%,0%);fill-opacity:1;" d="M 31.121094 26.773438 C 31.207031 26.8125 31.292969 26.828125 31.382812 26.828125 C 31.636719 26.828125 31.878906 26.679688 31.988281 26.429688 C 32.542969 25.136719 32.828125 23.761719 32.828125 22.34375 C 32.828125 20.699219 32.453125 19.128906 31.710938 17.671875 C 31.546875 17.347656 31.148438 17.21875 30.824219 17.382812 C 30.5 17.546875 30.371094 17.945312 30.535156 18.269531 C 31.183594 19.539062 31.507812 20.910156 31.507812 22.34375 C 31.507812 23.582031 31.261719 24.78125 30.777344 25.90625 C 30.632812 26.242188 30.785156 26.628906 31.121094 26.773438 Z M 31.121094 26.773438 "/>
<path style=" stroke:none;fill-rule:nonzero;fill:rgb(0%,0%,0%);fill-opacity:1;" d="M 28.757812 26.34375 L 28.757812 16.175781 C 28.757812 16.113281 28.761719 16.054688 28.769531 15.992188 L 38.859375 15.992188 C 40.257812 15.992188 41.398438 14.855469 41.398438 13.453125 C 41.398438 12.054688 40.257812 10.914062 38.859375 10.914062 L 33.382812 10.914062 L 39.964844 4.332031 C 40.445312 3.851562 40.707031 3.214844 40.707031 2.539062 C 40.707031 1.859375 40.445312 1.222656 39.964844 0.742188 C 38.976562 -0.246094 37.363281 -0.246094 36.375 0.742188 L 27.664062 9.453125 C 27.875 8.867188 27.992188 8.238281 27.992188 7.578125 C 27.992188 4.550781 25.527344 2.085938 22.5 2.085938 C 19.472656 2.085938 17.007812 4.550781 17.007812 7.578125 C 17.007812 8.238281 17.125 8.867188 17.335938 9.453125 L 8.625 0.742188 C 7.636719 -0.246094 6.023438 -0.246094 5.035156 0.742188 C 4.046875 1.730469 4.046875 3.34375 5.035156 4.332031 L 7.503906 6.800781 C 7.761719 7.058594 8.175781 7.058594 8.433594 6.800781 C 8.691406 6.542969 8.691406 6.125 8.433594 5.867188 L 5.96875 3.402344 C 5.492188 2.925781 5.492188 2.152344 5.96875 1.675781 C 6.441406 1.199219 7.21875 1.199219 7.691406 1.675781 L 17.671875 11.652344 C 18.046875 12.027344 18.542969 12.234375 19.070312 12.234375 L 19.585938 12.234375 C 20.433594 12.765625 21.429688 13.074219 22.5 13.074219 C 23.570312 13.074219 24.566406 12.765625 25.414062 12.234375 L 25.929688 12.234375 C 26.457031 12.234375 26.953125 12.027344 27.328125 11.652344 L 37.308594 1.675781 C 37.78125 1.199219 38.558594 1.199219 39.03125 1.675781 C 39.261719 1.90625 39.390625 2.210938 39.390625 2.539062 C 39.390625 2.863281 39.261719 3.171875 39.03125 3.402344 L 28.277344 14.15625 C 27.738281 14.695312 27.441406 15.414062 27.441406 16.175781 L 27.441406 31.929688 C 27.441406 31.933594 27.441406 31.933594 27.441406 31.933594 L 27.441406 42.460938 C 27.441406 43.132812 26.890625 43.679688 26.21875 43.679688 C 25.546875 43.679688 25 43.132812 25 42.460938 L 25 38.40625 C 25 38.042969 24.703125 37.75 24.339844 37.75 C 23.976562 37.75 23.679688 38.042969 23.679688 38.40625 L 23.679688 42.460938 C 23.679688 43.859375 24.820312 45 26.21875 45 C 27.621094 45 28.757812 43.859375 28.757812 42.460938 L 28.757812 33.523438 L 36.375 41.140625 C 36.855469 41.617188 37.492188 41.882812 38.167969 41.882812 C 38.847656 41.882812 39.484375 41.617188 39.964844 41.140625 C 40.445312 40.660156 40.707031 40.023438 40.707031 39.34375 C 40.707031 38.664062 40.445312 38.027344 39.964844 37.546875 Z M 18.324219 7.578125 C 18.324219 5.277344 20.199219 3.40625 22.5 3.40625 C 24.800781 3.40625 26.675781 5.277344 26.675781 7.578125 C 26.675781 9.882812 24.800781 11.753906 22.5 11.753906 C 20.199219 11.753906 18.324219 9.882812 18.324219 7.578125 Z M 38.859375 12.234375 C 39.53125 12.234375 40.078125 12.78125 40.078125 13.453125 C 40.078125 14.128906 39.53125 14.675781 38.859375 14.675781 L 29.625 14.675781 L 32.066406 12.234375 Z M 39.03125 40.207031 C 38.800781 40.4375 38.496094 40.5625 38.167969 40.5625 C 37.84375 40.5625 37.535156 40.4375 37.304688 40.207031 L 28.757812 31.660156 L 28.757812 28.207031 L 39.03125 38.480469 C 39.261719 38.710938 39.390625 39.015625 39.390625 39.34375 C 39.390625 39.667969 39.261719 39.976562 39.03125 40.207031 Z M 39.03125 40.207031 "/>
<path style=" stroke:none;fill-rule:nonzero;fill:rgb(0%,0%,0%);fill-opacity:1;" d="M 21.476562 6.835938 L 21.476562 6.152344 C 21.476562 5.789062 21.179688 5.492188 20.816406 5.492188 C 20.453125 5.492188 20.15625 5.789062 20.15625 6.152344 L 20.15625 6.835938 C 20.15625 7.203125 20.453125 7.496094 20.816406 7.496094 C 21.179688 7.496094 21.476562 7.203125 21.476562 6.835938 Z M 21.476562 6.835938 "/>
<path style=" stroke:none;fill-rule:nonzero;fill:rgb(0%,0%,0%);fill-opacity:1;" d="M 24.144531 5.492188 C 23.78125 5.492188 23.484375 5.789062 23.484375 6.152344 L 23.484375 6.835938 C 23.484375 7.203125 23.78125 7.496094 24.144531 7.496094 C 24.507812 7.496094 24.804688 7.203125 24.804688 6.835938 L 24.804688 6.152344 C 24.804688 5.789062 24.507812 5.492188 24.144531 5.492188 Z M 24.144531 5.492188 "/>
<path style=" stroke:none;fill-rule:nonzero;fill:rgb(0%,0%,0%);fill-opacity:1;" d="M 24.261719 8.5 C 23.953125 8.308594 23.546875 8.410156 23.359375 8.722656 C 23.167969 9.035156 22.839844 9.21875 22.480469 9.21875 C 22.117188 9.21875 21.789062 9.035156 21.601562 8.722656 C 21.414062 8.410156 21.007812 8.308594 20.699219 8.5 C 20.386719 8.6875 20.285156 9.09375 20.472656 9.402344 C 20.902344 10.113281 21.652344 10.539062 22.480469 10.539062 C 23.308594 10.539062 24.058594 10.113281 24.488281 9.402344 C 24.675781 9.09375 24.574219 8.6875 24.261719 8.5 Z M 24.261719 8.5 "/>
<path style=" stroke:none;fill-rule:nonzero;fill:rgb(0%,0%,0%);fill-opacity:1;" d="M 23.679688 35.332031 C 23.679688 35.695312 23.976562 35.992188 24.339844 35.992188 C 24.703125 35.992188 25 35.695312 25 35.332031 L 25 28.863281 C 25 27.769531 24.113281 26.882812 23.019531 26.882812 L 21.980469 26.882812 C 20.886719 26.882812 20 27.769531 20 28.863281 L 20 42.460938 C 20 43.132812 19.453125 43.679688 18.78125 43.679688 C 18.105469 43.679688 17.558594 43.132812 17.558594 42.460938 L 17.558594 31.933594 C 17.558594 31.933594 17.558594 31.933594 17.558594 31.929688 L 17.558594 16.175781 C 17.558594 15.414062 17.261719 14.695312 16.722656 14.15625 L 10.609375 8.042969 C 10.351562 7.785156 9.933594 7.785156 9.675781 8.042969 C 9.421875 8.300781 9.421875 8.71875 9.675781 8.976562 L 11.617188 10.914062 L 6.140625 10.914062 C 4.742188 10.914062 3.601562 12.054688 3.601562 13.453125 C 3.601562 14.855469 4.742188 15.992188 6.140625 15.992188 L 16.230469 15.992188 C 16.238281 16.054688 16.242188 16.113281 16.242188 16.175781 L 16.242188 26.34375 L 5.035156 37.546875 C 4.554688 38.027344 4.292969 38.664062 4.292969 39.34375 C 4.292969 40.023438 4.554688 40.660156 5.035156 41.140625 C 5.515625 41.617188 6.152344 41.882812 6.832031 41.882812 C 7.507812 41.882812 8.144531 41.617188 8.625 41.140625 L 16.242188 33.523438 L 16.242188 42.460938 C 16.242188 43.859375 17.378906 45 18.78125 45 C 20.179688 45 21.320312 43.859375 21.320312 42.460938 L 21.320312 28.863281 C 21.320312 28.496094 21.613281 28.203125 21.980469 28.203125 L 23.019531 28.203125 C 23.386719 28.203125 23.679688 28.496094 23.679688 28.863281 Z M 4.921875 13.453125 C 4.921875 12.78125 5.46875 12.234375 6.140625 12.234375 L 12.9375 12.234375 L 15.375 14.675781 L 6.140625 14.675781 C 5.46875 14.675781 4.921875 14.128906 4.921875 13.453125 Z M 7.695312 40.207031 C 7.464844 40.4375 7.15625 40.5625 6.832031 40.5625 C 6.503906 40.5625 6.199219 40.4375 5.96875 40.207031 C 5.738281 39.976562 5.609375 39.667969 5.609375 39.34375 C 5.609375 39.015625 5.738281 38.710938 5.96875 38.480469 L 16.242188 28.207031 L 16.242188 31.660156 Z M 7.695312 40.207031 "/>
</g>
</svg>
