<?xml version="1.0" encoding="UTF-8"?>
<svg xmlns="http://www.w3.org/2000/svg" xmlns:xlink="http://www.w3.org/1999/xlink" width="70px" height="70px" viewBox="0 0 70 70" version="1.1">
<g id="surface1">
<path style=" stroke:none;fill-rule:nonzero;fill:rgb(0%,0%,0%);fill-opacity:1;" d="M 68.703125 25.550781 C 67.566406 21.476562 65.714844 17.683594 63.199219 14.265625 L 64.253906 13.207031 C 64.683594 12.777344 64.832031 12.15625 64.640625 11.578125 C 64.449219 11.003906 63.957031 10.59375 63.355469 10.507812 L 59.4375 9.949219 C 52.988281 3.65625 44.5 0.128906 35.488281 0.00390625 C 27.042969 -0.117188 18.824219 2.851562 12.359375 8.351562 C 11.929688 8.71875 11.878906 9.367188 12.246094 9.796875 C 12.613281 10.230469 13.257812 10.28125 13.691406 9.914062 C 19.773438 4.738281 27.507812 1.949219 35.460938 2.054688 C 42.941406 2.15625 50.039062 4.753906 55.773438 9.425781 L 54.757812 9.28125 C 54.082031 9.183594 53.414062 9.40625 52.929688 9.890625 C 52.445312 10.375 52.222656 11.042969 52.316406 11.722656 L 52.480469 12.855469 C 47.351562 8.792969 41.023438 6.652344 34.386719 6.796875 C 28.574219 6.921875 23.019531 8.8125 18.328125 12.273438 C 13.9375 15.507812 10.609375 19.867188 8.667969 24.914062 L 3.640625 24.914062 C 5.039062 20.601562 7.347656 16.5625 10.386719 13.148438 C 10.761719 12.726562 10.722656 12.078125 10.300781 11.699219 C 9.878906 11.324219 9.230469 11.363281 8.851562 11.785156 C 5.335938 15.738281 2.734375 20.488281 1.308594 25.542969 C 0.515625 26.128906 0 27.070312 0 28.128906 L 0 41.871094 C 0 42.925781 0.511719 43.863281 1.296875 44.449219 C 2.4375 48.527344 4.285156 52.320312 6.800781 55.734375 L 5.746094 56.792969 C 5.316406 57.222656 5.167969 57.84375 5.359375 58.421875 C 5.550781 58.996094 6.046875 59.40625 6.644531 59.492188 L 10.5625 60.054688 C 17.011719 66.34375 25.5 69.875 34.507812 69.996094 C 34.675781 70 34.839844 70 35.003906 70 C 42.753906 70 50.09375 67.5 56.269531 62.757812 C 62.261719 58.152344 66.660156 51.664062 68.695312 44.457031 C 69.484375 43.871094 70 42.929688 70 41.871094 L 70 28.128906 C 70 27.074219 69.492188 26.136719 68.703125 25.550781 Z M 54.261719 43.035156 C 53.695312 43.035156 53.234375 43.492188 53.234375 44.058594 C 53.234375 44.625 53.695312 45.085938 54.261719 45.085938 L 59.121094 45.085938 C 55.140625 54.539062 45.855469 60.933594 35.566406 61.152344 C 28.65625 61.296875 22.097656 58.777344 17.078125 54.050781 L 16.453125 49.683594 C 16.367188 49.082031 15.957031 48.589844 15.382812 48.398438 C 14.804688 48.207031 14.183594 48.355469 13.753906 48.785156 L 13.152344 49.386719 C 12.253906 48.027344 11.488281 46.585938 10.859375 45.085938 L 49.476562 45.085938 C 50.042969 45.085938 50.5 44.625 50.5 44.058594 C 50.5 43.492188 50.042969 43.035156 49.476562 43.035156 L 3.214844 43.035156 C 2.570312 43.035156 2.050781 42.511719 2.050781 41.871094 L 2.050781 28.128906 C 2.050781 27.488281 2.570312 26.964844 3.214844 26.964844 L 9.371094 26.964844 C 9.375 26.964844 9.378906 26.964844 9.378906 26.964844 C 9.378906 26.964844 9.382812 26.964844 9.382812 26.964844 L 66.785156 26.964844 C 67.429688 26.964844 67.949219 27.488281 67.949219 28.128906 L 67.949219 41.871094 C 67.949219 42.511719 67.429688 43.035156 66.785156 43.035156 Z M 54.378906 11.339844 C 54.417969 11.300781 54.457031 11.308594 54.46875 11.308594 L 62.15625 12.40625 L 61.464844 13.097656 C 60.910156 13.65625 60.847656 14.550781 61.324219 15.183594 C 63.558594 18.144531 65.25 21.414062 66.375 24.914062 L 61.347656 24.914062 C 60.546875 22.828125 59.5 20.835938 58.230469 18.992188 C 57.960938 18.601562 57.535156 18.355469 57.0625 18.3125 C 56.589844 18.269531 56.128906 18.4375 55.792969 18.769531 L 55.445312 19.117188 L 54.347656 11.429688 C 54.347656 11.417969 54.339844 11.378906 54.378906 11.339844 Z M 34.433594 8.847656 C 41.351562 8.703125 47.902344 11.222656 52.921875 15.949219 L 53.546875 20.316406 C 53.632812 20.917969 54.042969 21.410156 54.617188 21.601562 C 55.191406 21.792969 55.816406 21.644531 56.246094 21.214844 L 56.847656 20.613281 C 57.746094 21.972656 58.511719 23.414062 59.140625 24.914062 L 10.878906 24.914062 C 14.859375 15.460938 24.148438 9.066406 34.433594 8.847656 Z M 8.96875 55.199219 C 6.589844 52.136719 4.796875 48.742188 3.625 45.085938 L 8.652344 45.085938 C 9.453125 47.171875 10.5 49.164062 11.773438 51.007812 C 12.039062 51.398438 12.464844 51.644531 12.9375 51.6875 C 13.410156 51.730469 13.871094 51.5625 14.207031 51.230469 L 14.554688 50.882812 L 15.652344 58.570312 C 15.652344 58.582031 15.660156 58.621094 15.621094 58.660156 C 15.582031 58.699219 15.542969 58.691406 15.53125 58.691406 L 7.84375 57.59375 L 8.882812 56.554688 C 9.25 56.1875 9.285156 55.605469 8.96875 55.199219 Z M 34.996094 67.949219 C 34.84375 67.949219 34.691406 67.949219 34.539062 67.945312 C 27.058594 67.84375 19.960938 65.246094 14.226562 60.574219 L 15.242188 60.722656 C 15.34375 60.734375 15.449219 60.742188 15.550781 60.742188 C 16.121094 60.742188 16.660156 60.519531 17.070312 60.109375 C 17.554688 59.625 17.777344 58.957031 17.683594 58.28125 L 17.519531 57.140625 C 22.488281 61.082031 28.582031 63.210938 34.996094 63.210938 C 35.199219 63.210938 35.40625 63.207031 35.613281 63.203125 C 41.425781 63.078125 46.980469 61.1875 51.671875 57.726562 C 56.0625 54.492188 59.390625 50.132812 61.332031 45.085938 L 66.363281 45.085938 C 61.984375 58.679688 49.351562 67.949219 34.996094 67.949219 Z M 34.996094 67.949219 "/>
<path style=" stroke:none;fill-rule:nonzero;fill:rgb(0%,0%,0%);fill-opacity:1;" d="M 42.703125 30.234375 C 42.703125 30.226562 42.699219 30.214844 42.695312 30.207031 C 42.503906 29.742188 42.054688 29.445312 41.554688 29.445312 C 41.054688 29.445312 40.605469 29.746094 40.417969 30.210938 C 40.414062 30.21875 40.410156 30.226562 40.40625 30.234375 L 37.003906 39.164062 C 36.804688 39.695312 37.070312 40.285156 37.597656 40.488281 C 37.71875 40.535156 37.84375 40.554688 37.964844 40.554688 C 38.375 40.554688 38.765625 40.304688 38.921875 39.894531 L 39.519531 38.332031 L 43.566406 38.332031 L 44.15625 39.890625 C 44.355469 40.421875 44.949219 40.691406 45.480469 40.488281 C 46.007812 40.289062 46.277344 39.699219 46.074219 39.167969 Z M 40.296875 36.28125 L 41.550781 32.988281 L 42.792969 36.28125 Z M 40.296875 36.28125 "/>
<path style=" stroke:none;fill-rule:nonzero;fill:rgb(0%,0%,0%);fill-opacity:1;" d="M 63.089844 31.535156 C 63.65625 31.535156 64.117188 31.078125 64.117188 30.511719 C 64.117188 29.945312 63.65625 29.484375 63.089844 29.484375 L 59.308594 29.484375 C 58.742188 29.484375 58.285156 29.945312 58.285156 30.511719 L 58.285156 39.488281 C 58.285156 40.054688 58.742188 40.515625 59.308594 40.515625 L 63.089844 40.515625 C 63.65625 40.515625 64.117188 40.054688 64.117188 39.488281 C 64.117188 38.921875 63.65625 38.464844 63.089844 38.464844 L 60.335938 38.464844 L 60.335938 36.023438 L 62.8125 36.023438 C 63.378906 36.023438 63.839844 35.566406 63.839844 35 C 63.839844 34.433594 63.378906 33.976562 62.8125 33.976562 L 60.335938 33.976562 L 60.335938 31.535156 Z M 63.089844 31.535156 "/>
<path style=" stroke:none;fill-rule:nonzero;fill:rgb(0%,0%,0%);fill-opacity:1;" d="M 29.882812 29.578125 L 27.394531 29.578125 C 27.121094 29.578125 26.859375 29.6875 26.667969 29.878906 C 26.476562 30.074219 26.367188 30.332031 26.367188 30.605469 L 26.367188 39.253906 C 26.367188 39.324219 26.375 39.394531 26.386719 39.460938 C 26.40625 39.710938 26.511719 39.945312 26.6875 40.125 C 26.878906 40.3125 27.140625 40.421875 27.410156 40.421875 L 27.414062 40.421875 C 27.488281 40.421875 29.265625 40.414062 29.972656 40.402344 C 32.574219 40.355469 34.457031 38.085938 34.457031 35 C 34.460938 31.757812 32.621094 29.578125 29.882812 29.578125 Z M 29.9375 38.351562 C 29.59375 38.355469 28.972656 38.363281 28.433594 38.367188 C 28.429688 37.324219 28.425781 35.765625 28.425781 34.992188 C 28.425781 34.34375 28.421875 32.710938 28.421875 31.628906 L 29.882812 31.628906 C 31.746094 31.628906 32.410156 33.371094 32.410156 35 C 32.410156 36.648438 31.644531 38.320312 29.9375 38.351562 Z M 29.9375 38.351562 "/>
<path style=" stroke:none;fill-rule:nonzero;fill:rgb(0%,0%,0%);fill-opacity:1;" d="M 13.203125 29.445312 C 12.636719 29.445312 12.179688 29.902344 12.179688 30.46875 L 12.179688 36.699219 C 12.179688 37.164062 12.046875 37.761719 11.035156 38.273438 C 10.726562 38.425781 10.382812 38.503906 10.003906 38.503906 C 10.003906 38.503906 10.003906 38.503906 10 38.503906 C 9.582031 38.503906 9.214844 38.402344 8.882812 38.1875 C 8.09375 37.6875 7.933594 37.230469 7.933594 36.703125 L 7.933594 30.46875 C 7.933594 29.902344 7.476562 29.445312 6.910156 29.445312 C 6.34375 29.445312 5.882812 29.902344 5.882812 30.46875 L 5.882812 36.703125 C 5.882812 38.050781 6.503906 39.101562 7.777344 39.917969 C 8.441406 40.339844 9.1875 40.554688 10 40.554688 L 10.003906 40.554688 C 10.707031 40.554688 11.363281 40.402344 11.957031 40.101562 C 13.835938 39.15625 14.230469 37.730469 14.230469 36.699219 L 14.230469 30.46875 C 14.230469 29.902344 13.769531 29.445312 13.203125 29.445312 Z M 13.203125 29.445312 "/>
<path style=" stroke:none;fill-rule:nonzero;fill:rgb(0%,0%,0%);fill-opacity:1;" d="M 54.648438 29.445312 L 49.648438 29.445312 C 49.078125 29.445312 48.621094 29.902344 48.621094 30.46875 C 48.621094 31.035156 49.078125 31.496094 49.648438 31.496094 L 51.113281 31.496094 L 51.113281 39.53125 C 51.113281 40.097656 51.570312 40.554688 52.136719 40.554688 C 52.703125 40.554688 53.164062 40.097656 53.164062 39.53125 L 53.164062 31.496094 L 54.648438 31.496094 C 55.214844 31.496094 55.675781 31.035156 55.675781 30.46875 C 55.675781 29.902344 55.214844 29.445312 54.648438 29.445312 Z M 54.648438 29.445312 "/>
<path style=" stroke:none;fill-rule:nonzero;fill:rgb(0%,0%,0%);fill-opacity:1;" d="M 20.257812 29.445312 L 17.734375 29.445312 C 17.167969 29.445312 16.707031 29.902344 16.707031 30.46875 L 16.707031 39.53125 C 16.707031 40.097656 17.167969 40.554688 17.734375 40.554688 C 18.300781 40.554688 18.757812 40.097656 18.757812 39.53125 L 18.757812 36.613281 C 19.292969 36.613281 19.910156 36.609375 20.257812 36.609375 C 22.257812 36.609375 23.886719 35.003906 23.886719 33.027344 C 23.886719 31.050781 22.257812 29.445312 20.257812 29.445312 Z M 20.257812 34.558594 C 19.914062 34.558594 19.304688 34.5625 18.769531 34.5625 C 18.769531 34.015625 18.765625 33.378906 18.765625 33.027344 C 18.765625 32.730469 18.765625 32.070312 18.761719 31.496094 L 20.257812 31.496094 C 21.113281 31.496094 21.835938 32.195312 21.835938 33.027344 C 21.835938 33.855469 21.113281 34.558594 20.257812 34.558594 Z M 20.257812 34.558594 "/>
</g>
</svg>
