<?xml version="1.0" encoding="UTF-8"?>
<svg xmlns="http://www.w3.org/2000/svg" xmlns:xlink="http://www.w3.org/1999/xlink" width="80px" height="80px" viewBox="0 0 80 80" version="1.1">
<g id="surface1">
<path style=" stroke:none;fill-rule:evenodd;fill:#003f70;fill-opacity:1;" d="M 19.648438 70.433594 L 20.632812 72.175781 C 21.46875 73.660156 20.9375 75.550781 19.464844 76.382812 L 15.972656 78.359375 C 15.972656 78.363281 15.972656 78.363281 15.96875 78.363281 C 14.488281 79.195312 12.597656 78.667969 11.765625 77.195312 L 1.5 59.054688 C 0.660156 57.570312 1.1875 55.675781 2.660156 54.84375 L 6.15625 52.867188 L 6.160156 52.863281 C 7.632812 52.03125 9.523438 52.554688 10.363281 54.03125 L 10.367188 54.03125 L 11.164062 55.441406 L 20.289062 50.160156 C 23.042969 48.566406 25.855469 47.527344 28.878906 48.511719 C 31.820312 49.464844 36.617188 51.515625 41.511719 52.402344 C 41.570312 52.414062 41.625 52.425781 41.675781 52.441406 C 44.15625 53.246094 45.664062 55.753906 44.988281 58.273438 C 44.886719 58.648438 44.753906 59 44.59375 59.320312 C 45.113281 59.167969 45.621094 58.949219 46.121094 58.660156 L 58.570312 51.410156 C 63.074219 48.785156 66.078125 49.070312 67.78125 50.210938 C 69.246094 51.195312 69.925781 52.871094 69.878906 54.519531 C 69.835938 56.183594 69.042969 57.773438 67.738281 58.578125 L 45.148438 72.484375 C 42.769531 73.953125 40.160156 74.300781 37.460938 73.578125 L 37.457031 73.578125 L 21.574219 69.320312 Z M 18.445312 73.40625 L 8.183594 55.269531 L 8.179688 55.269531 C 8.023438 54.996094 7.667969 54.894531 7.394531 55.050781 L 3.898438 57.027344 C 3.621094 57.183594 3.527344 57.539062 3.683594 57.816406 L 13.949219 75.957031 C 14.105469 76.234375 14.460938 76.332031 14.738281 76.175781 L 18.226562 74.199219 L 18.230469 74.199219 C 18.507812 74.042969 18.601562 73.6875 18.445312 73.40625 Z M 18.410156 68.25 L 20.769531 66.886719 C 21.058594 66.722656 21.402344 66.675781 21.722656 66.761719 L 38.105469 71.152344 C 40.117188 71.691406 42.058594 71.441406 43.832031 70.351562 L 43.832031 70.347656 L 66.421875 56.441406 C 67 56.082031 67.300781 55.363281 67.363281 54.628906 C 67.457031 53.492188 66.925781 52.238281 65.519531 51.945312 C 64.203125 51.667969 62.351562 52.109375 59.832031 53.578125 L 47.382812 60.828125 C 45.382812 61.992188 43.289062 62.316406 41.003906 61.953125 C 41.003906 61.953125 41 61.953125 41 61.953125 L 39.457031 61.699219 C 39.457031 61.699219 33.988281 60.265625 31.09375 59.488281 C 30.425781 59.308594 30.027344 58.617188 30.207031 57.949219 C 30.390625 57.28125 31.078125 56.882812 31.746094 57.0625 C 34.570312 57.824219 37.113281 58.65625 39.855469 59.222656 C 41.234375 59.375 42.246094 58.804688 42.5625 57.621094 C 42.886719 56.425781 42.136719 55.269531 40.976562 54.855469 C 35.984375 53.9375 31.101562 51.867188 28.105469 50.898438 C 25.785156 50.144531 23.660156 51.109375 21.546875 52.332031 L 12.398438 57.628906 Z M 6.886719 57.171875 C 7.679688 57.050781 8.414062 57.601562 8.535156 58.390625 C 8.648438 59.183594 8.101562 59.925781 7.308594 60.039062 C 6.515625 60.15625 5.78125 59.605469 5.660156 58.8125 C 5.546875 58.019531 6.09375 57.285156 6.886719 57.171875 Z M 68.964844 19.257812 C 69.5625 21.382812 69.882812 23.625 69.882812 25.9375 C 69.882812 39.570312 58.816406 50.636719 45.183594 50.636719 C 31.554688 50.636719 20.488281 39.570312 20.488281 25.9375 C 20.488281 21.21875 21.816406 16.808594 24.113281 13.054688 L 21.441406 10.15625 C 21.113281 9.796875 21.019531 9.28125 21.203125 8.832031 C 21.386719 8.382812 21.816406 8.078125 22.300781 8.054688 L 28.496094 7.738281 C 32.894531 3.703125 38.753906 1.242188 45.183594 1.242188 C 52.269531 1.242188 58.664062 4.230469 63.167969 9.015625 L 69.234375 2.90625 C 71.433594 0.695312 75.023438 0.683594 77.234375 2.886719 C 79.445312 5.085938 79.460938 8.660156 77.261719 10.882812 C 75.105469 13.058594 72.144531 16.050781 68.964844 19.257812 Z M 61.398438 10.800781 C 57.347656 6.464844 51.582031 3.75 45.183594 3.75 C 40.609375 3.75 36.355469 5.140625 32.820312 7.519531 L 33.609375 7.476562 C 33.984375 7.460938 34.34375 7.605469 34.597656 7.882812 C 34.851562 8.15625 34.96875 8.527344 34.917969 8.898438 L 34.855469 9.382812 C 37.851562 7.507812 41.390625 6.421875 45.183594 6.421875 C 50.847656 6.421875 55.949219 8.839844 59.515625 12.695312 Z M 57.746094 14.480469 C 54.636719 11.074219 50.15625 8.933594 45.183594 8.933594 C 41.09375 8.933594 37.335938 10.382812 34.398438 12.796875 L 33.421875 20.121094 C 33.359375 20.605469 33.023438 21.003906 32.558594 21.152344 C 32.09375 21.300781 31.585938 21.164062 31.257812 20.804688 L 29.636719 19.046875 C 28.699219 21.152344 28.179688 23.484375 28.179688 25.9375 C 28.179688 35.324219 35.800781 42.945312 45.183594 42.945312 C 54.519531 42.945312 62.105469 35.410156 62.191406 26.097656 C 58.933594 29.378906 55.882812 32.449219 53.667969 34.660156 C 51.460938 36.871094 47.871094 36.871094 45.660156 34.660156 L 35.894531 24.886719 C 33.683594 22.675781 33.679688 19.097656 35.890625 16.878906 L 35.894531 16.875 C 38.105469 14.664062 41.691406 14.664062 43.902344 16.875 L 49.65625 22.628906 Z M 64.570312 23.695312 C 64.65625 24.429688 64.699219 25.179688 64.699219 25.9375 C 64.699219 36.710938 55.957031 45.453125 45.183594 45.453125 C 34.414062 45.453125 25.671875 36.710938 25.671875 25.9375 C 25.671875 22.421875 26.601562 19.117188 28.234375 16.265625 C 28.269531 16.203125 28.308594 16.144531 28.355469 16.085938 C 28.433594 15.988281 28.523438 15.90625 28.621094 15.835938 C 28.796875 15.714844 28.996094 15.644531 29.195312 15.621094 C 29.398438 15.601562 29.605469 15.625 29.800781 15.703125 C 29.914062 15.75 30.019531 15.8125 30.117188 15.890625 C 30.175781 15.933594 30.226562 15.984375 30.273438 16.039062 L 31.289062 17.136719 L 32.230469 10.0625 C 32.230469 10.0625 25.101562 10.425781 25.101562 10.425781 L 26.601562 12.050781 C 26.65625 12.109375 26.707031 12.171875 26.75 12.242188 C 26.863281 12.417969 26.929688 12.617188 26.945312 12.820312 C 26.960938 13.023438 26.925781 13.230469 26.84375 13.421875 C 26.808594 13.496094 26.769531 13.566406 26.722656 13.632812 C 24.371094 17.15625 22.996094 21.386719 22.996094 25.9375 C 22.996094 38.183594 32.941406 48.125 45.183594 48.125 C 57.429688 48.125 67.371094 38.183594 67.371094 25.9375 C 67.371094 24.363281 67.207031 22.828125 66.894531 21.347656 C 66.125 22.128906 65.347656 22.914062 64.570312 23.695312 Z M 51.894531 32.886719 C 55.5 29.28125 73.207031 11.410156 75.476562 9.117188 C 76.703125 7.882812 76.695312 5.890625 75.464844 4.664062 C 74.234375 3.441406 72.238281 3.445312 71.015625 4.675781 L 50.550781 25.292969 C 50.316406 25.527344 49.996094 25.660156 49.664062 25.660156 C 49.328125 25.664062 49.007812 25.53125 48.773438 25.292969 L 42.128906 18.652344 C 40.898438 17.421875 38.902344 17.417969 37.667969 18.648438 C 36.4375 19.886719 36.4375 21.878906 37.667969 23.113281 L 47.433594 32.886719 C 48.664062 34.117188 50.664062 34.117188 51.894531 32.886719 Z M 51.894531 32.886719 "/>
</g>
</svg>
