<?xml version="1.0" encoding="UTF-8"?>
<svg xmlns="http://www.w3.org/2000/svg" xmlns:xlink="http://www.w3.org/1999/xlink" width="80px" height="80px" viewBox="0 0 80 80" version="1.1">
<g id="surface1">
<path style=" stroke:none;fill-rule:nonzero;fill:rgb(0%,24.705882%,43.921569%);fill-opacity:1;" d="M 45.867188 67.734375 C 45.867188 66.261719 44.671875 65.066406 43.199219 65.066406 C 41.726562 65.066406 40.535156 66.261719 40.535156 67.734375 C 40.535156 69.207031 41.726562 70.398438 43.199219 70.398438 C 44.671875 70.398438 45.867188 69.207031 45.867188 67.734375 Z M 45.867188 67.734375 "/>
<path style=" stroke:none;fill-rule:nonzero;fill:rgb(0%,24.705882%,43.921569%);fill-opacity:1;" d="M 34.132812 20.800781 C 34.132812 19.917969 33.417969 19.199219 32.535156 19.199219 C 31.648438 19.199219 30.933594 19.917969 30.933594 20.800781 C 30.933594 21.683594 31.648438 22.398438 32.535156 22.398438 C 33.417969 22.398438 34.132812 21.683594 34.132812 20.800781 Z M 34.132812 20.800781 "/>
<path style=" stroke:none;fill-rule:nonzero;fill:rgb(0%,24.705882%,43.921569%);fill-opacity:1;" d="M 38.398438 20.800781 C 38.398438 19.917969 37.683594 19.199219 36.800781 19.199219 C 35.917969 19.199219 35.199219 19.917969 35.199219 20.800781 C 35.199219 21.683594 35.917969 22.398438 36.800781 22.398438 C 37.683594 22.398438 38.398438 21.683594 38.398438 20.800781 Z M 38.398438 20.800781 "/>
<path style=" stroke:none;fill-rule:nonzero;fill:rgb(0%,24.705882%,43.921569%);fill-opacity:1;" d="M 42.667969 20.800781 C 42.667969 19.917969 41.949219 19.199219 41.066406 19.199219 C 40.183594 19.199219 39.464844 19.917969 39.464844 20.800781 C 39.464844 21.683594 40.183594 22.398438 41.066406 22.398438 C 41.949219 22.398438 42.667969 21.683594 42.667969 20.800781 Z M 42.667969 20.800781 "/>
<path style=" stroke:none;fill-rule:nonzero;fill:rgb(0%,24.705882%,43.921569%);fill-opacity:1;" d="M 23.464844 44.800781 L 17.066406 44.800781 C 16.476562 44.800781 16 45.277344 16 45.867188 C 16 46.457031 16.476562 46.933594 17.066406 46.933594 L 23.464844 46.933594 C 24.054688 46.933594 24.535156 46.457031 24.535156 45.867188 C 24.535156 45.277344 24.054688 44.800781 23.464844 44.800781 Z M 29.867188 44.800781 L 26.667969 44.800781 C 26.078125 44.800781 25.601562 45.277344 25.601562 45.867188 C 25.601562 46.457031 26.078125 46.933594 26.667969 46.933594 L 29.867188 46.933594 C 30.457031 46.933594 30.933594 46.457031 30.933594 45.867188 C 30.933594 45.277344 30.457031 44.800781 29.867188 44.800781 Z M 29.867188 44.800781 "/>
<path style=" stroke:none;fill-rule:nonzero;fill:rgb(0%,24.705882%,43.921569%);fill-opacity:1;" d="M 70.398438 16 C 70.398438 10.707031 66.09375 6.398438 60.800781 6.398438 C 56.242188 6.398438 52.421875 9.597656 51.445312 13.867188 L 29.996094 13.867188 C 27.574219 13.867188 25.601562 15.839844 25.601562 18.265625 L 25.601562 30.933594 L 14.066406 30.933594 C 12.78125 30.933594 11.734375 31.980469 11.734375 33.265625 L 11.734375 48.867188 C 11.734375 50.152344 12.78125 51.199219 14.066406 51.199219 L 42.46875 51.199219 C 43.753906 51.199219 44.800781 50.152344 44.800781 48.867188 L 44.800781 33.265625 C 44.800781 31.980469 43.753906 30.933594 42.46875 30.933594 L 27.734375 30.933594 L 27.734375 18.265625 C 27.734375 17.015625 28.75 16 29.996094 16 L 51.199219 16 C 51.199219 20.933594 54.941406 25.003906 59.734375 25.535156 L 59.734375 61.859375 L 27.734375 61.859375 L 27.734375 54.464844 C 27.734375 53.875 27.253906 53.398438 26.667969 53.398438 C 26.078125 53.398438 25.601562 53.875 25.601562 54.464844 L 25.601562 69.203125 C 25.601562 71.625 27.574219 73.601562 29.996094 73.601562 L 57.46875 73.601562 C 59.894531 73.601562 61.867188 71.625 61.867188 69.203125 L 61.867188 25.535156 C 66.660156 25.003906 70.398438 20.933594 70.398438 16 Z M 13.867188 38.398438 L 42.667969 38.398438 L 42.667969 40.535156 L 13.867188 40.535156 Z M 42.46875 49.066406 L 14.066406 49.066406 C 13.957031 49.066406 13.867188 48.976562 13.867188 48.867188 L 13.867188 42.667969 L 42.667969 42.667969 L 42.667969 48.867188 C 42.667969 48.976562 42.578125 49.066406 42.46875 49.066406 Z M 42.667969 33.265625 L 42.667969 36.265625 L 13.867188 36.265625 L 13.867188 33.265625 C 13.867188 33.15625 13.957031 33.066406 14.066406 33.066406 L 42.46875 33.066406 C 42.578125 33.066406 42.667969 33.15625 42.667969 33.265625 Z M 59.734375 69.203125 C 59.734375 70.453125 58.71875 71.464844 57.46875 71.464844 L 29.996094 71.464844 C 28.75 71.464844 27.734375 70.449219 27.734375 69.203125 L 27.734375 63.992188 L 59.734375 63.992188 Z M 60.800781 23.464844 C 56.683594 23.464844 53.332031 20.117188 53.332031 16 C 53.332031 11.882812 56.683594 8.535156 60.800781 8.535156 C 64.917969 8.535156 68.265625 11.882812 68.265625 16 C 68.265625 20.117188 64.917969 23.464844 60.800781 23.464844 Z M 60.800781 23.464844 "/>
<path style=" stroke:none;fill-rule:nonzero;fill:rgb(0%,24.705882%,43.921569%);fill-opacity:1;" d="M 63.113281 12.207031 L 59.566406 17.527344 L 58.355469 16.3125 C 58.085938 16.035156 57.691406 15.921875 57.316406 16.019531 C 56.945312 16.117188 56.652344 16.410156 56.554688 16.78125 C 56.457031 17.15625 56.570312 17.550781 56.847656 17.820312 L 58.980469 19.953125 C 59.203125 20.179688 59.519531 20.292969 59.839844 20.261719 C 60.15625 20.230469 60.445312 20.058594 60.621094 19.792969 L 64.886719 13.390625 C 65.214844 12.902344 65.082031 12.238281 64.59375 11.914062 C 64.355469 11.753906 64.070312 11.699219 63.789062 11.753906 C 63.511719 11.808594 63.269531 11.972656 63.113281 12.207031 Z M 21.332031 21.332031 C 21.921875 21.332031 22.398438 20.855469 22.398438 20.265625 L 22.398438 14.933594 C 22.398438 14.34375 21.921875 13.867188 21.332031 13.867188 C 20.746094 13.867188 20.265625 14.34375 20.265625 14.933594 L 20.265625 20.265625 C 20.265625 20.855469 20.746094 21.332031 21.332031 21.332031 Z M 17.066406 25.601562 C 17.066406 25.011719 16.589844 24.535156 16 24.535156 L 10.667969 24.535156 C 10.078125 24.535156 9.601562 25.011719 9.601562 25.601562 C 9.601562 26.191406 10.078125 26.667969 10.667969 26.667969 L 16 26.667969 C 16.589844 26.667969 17.066406 26.191406 17.066406 25.601562 Z M 16.382812 22.007812 C 16.589844 22.214844 16.863281 22.320312 17.136719 22.320312 C 17.410156 22.320312 17.683594 22.214844 17.890625 22.007812 C 18.308594 21.589844 18.308594 20.914062 17.890625 20.496094 L 14.097656 16.707031 C 13.832031 16.429688 13.433594 16.316406 13.0625 16.414062 C 12.6875 16.511719 12.398438 16.804688 12.300781 17.175781 C 12.203125 17.550781 12.3125 17.945312 12.589844 18.214844 Z M 16.382812 22.007812 "/>
</g>
</svg>
