<?xml version="1.0" encoding="UTF-8"?>
<svg xmlns="http://www.w3.org/2000/svg" xmlns:xlink="http://www.w3.org/1999/xlink" width="80px" height="80px" viewBox="0 0 80 80" version="1.1">
<g id="surface1">
<path style=" stroke:none;fill-rule:evenodd;fill:#003f70;fill-opacity:1;" d="M 30.59375 62.859375 C 14.246094 62.578125 1.097656 49.25 1.097656 32.835938 C 1.097656 16.246094 14.535156 2.808594 31.125 2.808594 C 47.714844 2.808594 61.152344 16.246094 61.152344 32.835938 C 61.152344 35.929688 60.6875 38.910156 59.820312 41.714844 L 74.332031 41.714844 C 75.542969 41.714844 76.707031 42.195312 77.5625 43.054688 C 78.421875 43.910156 78.902344 45.074219 78.902344 46.285156 L 78.902344 72.617188 C 78.902344 73.832031 78.421875 74.992188 77.5625 75.851562 C 76.707031 76.707031 75.542969 77.191406 74.332031 77.191406 L 35.164062 77.191406 C 33.953125 77.191406 32.789062 76.707031 31.929688 75.851562 C 31.074219 74.992188 30.59375 73.832031 30.59375 72.617188 Z M 57.183594 41.714844 C 58.128906 38.929688 58.644531 35.945312 58.644531 32.835938 C 58.644531 17.632812 46.328125 5.320312 31.125 5.320312 C 15.921875 5.320312 3.609375 17.632812 3.609375 32.835938 C 3.609375 47.863281 15.632812 60.066406 30.59375 60.351562 L 30.59375 54.472656 C 18.925781 54.167969 9.5625 44.617188 9.5625 32.878906 C 9.5625 20.945312 19.234375 11.277344 31.167969 11.277344 C 43.097656 11.277344 52.769531 20.945312 52.769531 32.878906 C 52.769531 36.027344 52.097656 39.015625 50.886719 41.714844 Z M 30.59375 51.964844 L 30.59375 46.285156 C 30.59375 45.074219 31.074219 43.910156 31.929688 43.054688 C 32.789062 42.195312 33.953125 41.714844 35.164062 41.714844 L 41.839844 41.714844 C 39.503906 38.320312 35.59375 36.097656 31.167969 36.097656 C 24.695312 36.097656 19.332031 40.847656 18.371094 47.050781 C 21.625 49.988281 25.894531 51.824219 30.59375 51.964844 Z M 44.777344 41.714844 L 48.097656 41.714844 C 49.480469 39.074219 50.257812 36.066406 50.257812 32.878906 C 50.257812 22.332031 41.710938 13.785156 31.167969 13.785156 C 20.621094 13.785156 12.074219 22.332031 12.074219 32.878906 C 12.074219 37.410156 13.652344 41.570312 16.285156 44.84375 C 17.664062 39.964844 21.375 36.066406 26.136719 34.425781 C 24.070312 32.882812 22.726562 30.421875 22.726562 27.65625 C 22.726562 23.011719 26.523438 19.214844 31.167969 19.214844 C 35.8125 19.214844 39.609375 23.011719 39.609375 27.65625 C 39.609375 30.421875 38.261719 32.882812 36.195312 34.425781 C 39.886719 35.695312 42.945312 38.324219 44.777344 41.714844 Z M 31.167969 33.589844 C 34.429688 33.589844 37.097656 30.921875 37.097656 27.65625 C 37.097656 24.394531 34.429688 21.726562 31.167969 21.726562 C 27.902344 21.726562 25.234375 24.394531 25.234375 27.65625 C 25.234375 30.921875 27.902344 33.589844 31.167969 33.589844 Z M 76.390625 46.285156 C 76.390625 45.738281 76.175781 45.214844 75.789062 44.828125 C 75.402344 44.441406 74.878906 44.222656 74.332031 44.222656 L 35.164062 44.222656 C 34.617188 44.222656 34.09375 44.441406 33.707031 44.828125 C 33.320312 45.214844 33.101562 45.738281 33.101562 46.285156 L 33.101562 72.617188 C 33.101562 73.164062 33.320312 73.691406 33.707031 74.078125 C 34.09375 74.464844 34.617188 74.679688 35.164062 74.679688 L 74.332031 74.679688 C 74.878906 74.679688 75.402344 74.464844 75.789062 74.078125 C 76.175781 73.691406 76.390625 73.164062 76.390625 72.617188 Z M 48.054688 69.378906 L 37.996094 69.378906 C 37.304688 69.378906 36.742188 68.816406 36.742188 68.125 C 36.742188 67.429688 37.304688 66.871094 37.996094 66.871094 L 48.054688 66.871094 C 48.585938 65.234375 50.121094 64.050781 51.929688 64.050781 C 53.738281 64.050781 55.273438 65.234375 55.804688 66.871094 L 71.496094 66.871094 C 72.191406 66.871094 72.75 67.429688 72.75 68.125 C 72.75 68.816406 72.191406 69.378906 71.496094 69.378906 L 55.804688 69.378906 C 55.273438 71.011719 53.738281 72.195312 51.929688 72.195312 C 50.121094 72.195312 48.585938 71.011719 48.054688 69.378906 Z M 53.492188 68.125 C 53.492188 67.261719 52.792969 66.5625 51.929688 66.5625 C 51.066406 66.5625 50.367188 67.261719 50.367188 68.125 C 50.367188 68.988281 51.066406 69.6875 51.929688 69.6875 C 52.792969 69.6875 53.492188 68.988281 53.492188 68.125 Z M 42.71875 52.035156 L 37.996094 52.035156 C 37.304688 52.035156 36.742188 51.472656 36.742188 50.78125 C 36.742188 50.085938 37.304688 49.523438 37.996094 49.523438 L 42.71875 49.523438 C 43.246094 47.890625 44.785156 46.707031 46.59375 46.707031 C 48.402344 46.707031 49.9375 47.890625 50.46875 49.523438 L 71.496094 49.523438 C 72.191406 49.523438 72.75 50.085938 72.75 50.78125 C 72.75 51.472656 72.191406 52.035156 71.496094 52.035156 L 50.46875 52.035156 C 49.9375 53.667969 48.402344 54.851562 46.59375 54.851562 C 44.785156 54.851562 43.246094 53.667969 42.71875 52.035156 Z M 48.15625 50.78125 C 48.15625 49.917969 47.457031 49.21875 46.59375 49.21875 C 45.730469 49.21875 45.03125 49.917969 45.03125 50.78125 C 45.03125 51.640625 45.730469 52.34375 46.59375 52.34375 C 47.457031 52.34375 48.15625 51.640625 48.15625 50.78125 Z M 58.507812 60.707031 L 37.996094 60.707031 C 37.304688 60.707031 36.742188 60.144531 36.742188 59.453125 C 36.742188 58.757812 37.304688 58.199219 37.996094 58.199219 L 58.507812 58.199219 C 59.035156 56.5625 60.570312 55.378906 62.382812 55.378906 C 64.191406 55.378906 65.726562 56.5625 66.257812 58.199219 L 71.496094 58.199219 C 72.191406 58.199219 72.75 58.757812 72.75 59.453125 C 72.75 60.144531 72.191406 60.707031 71.496094 60.707031 L 66.257812 60.707031 C 65.726562 62.339844 64.191406 63.523438 62.382812 63.523438 C 60.570312 63.523438 59.035156 62.339844 58.507812 60.707031 Z M 63.945312 59.453125 C 63.945312 58.589844 63.242188 57.890625 62.382812 57.890625 C 61.519531 57.890625 60.820312 58.589844 60.820312 59.453125 C 60.820312 60.316406 61.519531 61.015625 62.382812 61.015625 C 63.242188 61.015625 63.945312 60.316406 63.945312 59.453125 Z M 63.945312 59.453125 "/>
</g>
</svg>
