<?xml version="1.0" encoding="UTF-8"?>
<svg xmlns="http://www.w3.org/2000/svg" xmlns:xlink="http://www.w3.org/1999/xlink" width="40px" height="40px" viewBox="0 0 40 40" version="1.1">
<g id="surface1">
<path style=" stroke:none;fill-rule:nonzero;fill:rgb(0%,0%,0%);fill-opacity:1;" d="M 38.78125 25.753906 L 33.660156 15.011719 C 33.605469 14.898438 33.511719 14.8125 33.390625 14.769531 C 33.273438 14.726562 33.144531 14.734375 33.03125 14.789062 L 29.078125 16.703125 C 28.84375 16.816406 28.746094 17.09375 28.859375 17.324219 L 29.332031 18.320312 C 28.703125 18.363281 27.894531 18.28125 26.996094 18.148438 C 29.335938 14.722656 29.152344 11.023438 28.882812 5.582031 L 28.878906 5.496094 C 28.867188 5.277344 28.703125 5.09375 28.488281 5.058594 C 26.765625 4.777344 25.625 3.808594 25.003906 2.101562 C 24.9375 1.917969 24.761719 1.792969 24.566406 1.792969 L 15.4375 1.792969 C 15.238281 1.792969 15.0625 1.917969 14.996094 2.101562 C 14.375 3.808594 13.234375 4.777344 11.515625 5.058594 C 11.296875 5.09375 11.132812 5.277344 11.121094 5.496094 L 11.117188 5.582031 C 10.800781 11.996094 10.605469 15.917969 14.402344 19.851562 C 14.367188 19.941406 14.339844 20.03125 14.3125 20.125 C 13.3125 20.328125 11.992188 20.1875 11.15625 19.542969 L 11.328125 19.199219 C 11.382812 19.085938 11.394531 18.957031 11.351562 18.839844 C 11.3125 18.722656 11.226562 18.625 11.117188 18.570312 L 7.175781 16.621094 C 6.945312 16.507812 6.664062 16.601562 6.550781 16.832031 L 1.222656 27.472656 C 1.164062 27.585938 1.15625 27.714844 1.195312 27.832031 C 1.234375 27.953125 1.320312 28.050781 1.433594 28.105469 L 5.371094 30.050781 C 5.4375 30.082031 5.511719 30.097656 5.578125 30.097656 C 5.75 30.097656 5.917969 30.003906 6 29.839844 L 6.117188 29.601562 L 7.445312 30.414062 L 7.023438 31.246094 C 6.53125 32.222656 6.925781 33.417969 7.902344 33.910156 C 8.179688 34.050781 8.484375 34.121094 8.789062 34.121094 C 8.855469 34.121094 8.921875 34.117188 8.988281 34.109375 C 8.660156 35.035156 9.066406 36.085938 9.964844 36.539062 C 10.242188 36.679688 10.546875 36.75 10.851562 36.75 C 11.058594 36.75 11.269531 36.714844 11.476562 36.648438 C 11.695312 36.578125 11.894531 36.46875 12.070312 36.332031 C 12.253906 36.742188 12.570312 37.078125 12.976562 37.28125 C 13.257812 37.421875 13.558594 37.492188 13.863281 37.492188 C 14.074219 37.492188 14.285156 37.460938 14.488281 37.390625 C 14.71875 37.316406 14.921875 37.203125 15.105469 37.058594 C 15.289062 37.464844 15.605469 37.792969 16.007812 37.996094 C 16.285156 38.136719 16.589844 38.207031 16.894531 38.207031 C 17.101562 38.207031 17.3125 38.171875 17.519531 38.105469 C 18 37.945312 18.394531 37.617188 18.636719 37.175781 L 19.722656 37.847656 C 20.046875 38.046875 20.40625 38.144531 20.761719 38.144531 C 21.425781 38.144531 22.078125 37.808594 22.453125 37.203125 C 22.582031 36.988281 22.671875 36.753906 22.714844 36.515625 C 22.957031 36.613281 23.210938 36.667969 23.472656 36.667969 C 23.625 36.667969 23.78125 36.648438 23.933594 36.613281 C 24.449219 36.492188 24.886719 36.175781 25.164062 35.726562 C 25.367188 35.402344 25.460938 35.039062 25.460938 34.683594 L 25.464844 34.6875 C 25.789062 34.886719 26.148438 34.980469 26.503906 34.980469 C 27.167969 34.980469 27.820312 34.648438 28.195312 34.042969 C 28.390625 33.722656 28.488281 33.363281 28.488281 32.996094 L 28.765625 33.167969 C 29.089844 33.367188 29.449219 33.464844 29.804688 33.464844 C 30.46875 33.464844 31.121094 33.128906 31.496094 32.523438 C 31.773438 32.074219 31.859375 31.542969 31.734375 31.027344 C 31.625 30.550781 31.347656 30.144531 30.949219 29.863281 C 31.523438 28.605469 32.40625 27.777344 33.636719 27.34375 L 33.980469 28.066406 C 34.035156 28.179688 34.128906 28.265625 34.246094 28.308594 C 34.296875 28.328125 34.351562 28.335938 34.402344 28.335938 C 34.472656 28.335938 34.542969 28.320312 34.605469 28.289062 L 38.5625 26.375 C 38.796875 26.265625 38.894531 25.984375 38.78125 25.753906 Z M 12.039062 5.910156 C 13.792969 5.515625 15.042969 4.449219 15.757812 2.730469 L 24.242188 2.730469 C 24.960938 4.449219 26.207031 5.515625 27.960938 5.910156 C 28.230469 11.378906 28.355469 14.769531 25.964844 17.980469 C 25.628906 17.921875 25.289062 17.859375 24.941406 17.796875 C 24.839844 17.78125 24.738281 17.761719 24.636719 17.742188 C 27.105469 14.914062 26.964844 12.019531 26.734375 7.4375 L 26.734375 7.375 C 26.722656 7.15625 26.558594 6.972656 26.339844 6.9375 C 25.105469 6.734375 24.285156 6.039062 23.839844 4.8125 C 23.773438 4.625 23.597656 4.503906 23.398438 4.503906 L 16.601562 4.503906 C 16.40625 4.503906 16.226562 4.625 16.160156 4.8125 C 15.714844 6.039062 14.898438 6.734375 13.660156 6.9375 C 13.441406 6.972656 13.28125 7.15625 13.269531 7.375 L 13.265625 7.4375 C 13.03125 12.191406 12.882812 15.148438 15.679688 18.089844 C 15.351562 18.332031 15.074219 18.621094 14.847656 18.957031 C 11.621094 15.453125 11.742188 11.964844 12.039062 5.910156 Z M 16.523438 17.613281 C 13.890625 14.957031 13.960938 12.34375 14.1875 7.785156 C 15.460938 7.476562 16.378906 6.6875 16.917969 5.441406 L 23.082031 5.441406 C 23.621094 6.6875 24.539062 7.476562 25.8125 7.785156 C 26.039062 12.324219 26.105469 14.917969 23.535156 17.550781 C 21.832031 17.261719 20.046875 17.027344 18.523438 17.152344 C 17.757812 17.214844 17.09375 17.371094 16.523438 17.613281 Z M 5.371094 29.003906 L 2.269531 27.472656 L 7.179688 17.667969 L 10.277344 19.199219 Z M 8.324219 33.074219 C 7.808594 32.8125 7.601562 32.183594 7.859375 31.667969 L 8.476562 30.453125 C 8.601562 30.203125 8.816406 30.019531 9.082031 29.933594 C 9.347656 29.84375 9.628906 29.863281 9.878906 29.988281 C 10.390625 30.25 10.597656 30.878906 10.339844 31.390625 L 9.726562 32.609375 C 9.601562 32.859375 9.386719 33.042969 9.121094 33.128906 C 8.855469 33.21875 8.570312 33.199219 8.324219 33.074219 Z M 11.183594 35.761719 C 10.917969 35.847656 10.632812 35.828125 10.386719 35.703125 C 9.871094 35.441406 9.664062 34.8125 9.921875 34.300781 L 11.175781 31.8125 C 11.175781 31.8125 11.175781 31.8125 11.179688 31.8125 L 11.816406 30.546875 C 12 30.179688 12.367188 29.972656 12.75 29.972656 C 12.910156 29.972656 13.070312 30.007812 13.21875 30.082031 C 13.734375 30.34375 13.941406 30.972656 13.683594 31.484375 L 12.101562 34.621094 L 11.789062 35.238281 C 11.664062 35.488281 11.449219 35.671875 11.183594 35.761719 Z M 14.199219 36.503906 C 13.929688 36.589844 13.648438 36.570312 13.402344 36.445312 C 13.152344 36.320312 12.96875 36.105469 12.878906 35.839844 C 12.792969 35.574219 12.8125 35.292969 12.9375 35.042969 L 14.207031 32.527344 C 14.332031 32.28125 14.546875 32.097656 14.8125 32.007812 C 15.078125 31.921875 15.363281 31.941406 15.609375 32.066406 C 16.125 32.324219 16.332031 32.953125 16.070312 33.46875 L 15.128906 35.335938 L 14.804688 35.984375 C 14.679688 36.230469 14.464844 36.417969 14.199219 36.503906 Z M 17.226562 37.21875 C 16.960938 37.304688 16.675781 37.285156 16.429688 37.160156 C 16.183594 37.035156 15.996094 36.820312 15.910156 36.554688 C 15.820312 36.289062 15.84375 36.003906 15.964844 35.757812 L 16.582031 34.539062 C 16.707031 34.292969 16.921875 34.105469 17.1875 34.019531 C 17.453125 33.933594 17.738281 33.953125 17.984375 34.078125 C 18.230469 34.203125 18.417969 34.417969 18.503906 34.683594 C 18.59375 34.949219 18.570312 35.234375 18.445312 35.480469 L 17.832031 36.699219 C 17.707031 36.945312 17.492188 37.128906 17.226562 37.21875 Z M 30.699219 32.03125 C 30.394531 32.523438 29.75 32.675781 29.261719 32.371094 L 26.976562 30.960938 L 26.410156 30.613281 C 26.191406 30.476562 25.902344 30.542969 25.765625 30.765625 C 25.628906 30.984375 25.699219 31.273438 25.917969 31.410156 L 27.058594 32.113281 C 27.292969 32.257812 27.457031 32.488281 27.523438 32.761719 C 27.585938 33.035156 27.542969 33.3125 27.398438 33.550781 C 27.09375 34.039062 26.449219 34.191406 25.960938 33.890625 L 24.523438 33.003906 C 24.519531 33.003906 24.519531 33 24.519531 33 L 23.804688 32.5625 C 23.585938 32.425781 23.296875 32.492188 23.160156 32.714844 C 23.023438 32.933594 23.09375 33.222656 23.3125 33.359375 L 24.027344 33.800781 C 24.515625 34.101562 24.667969 34.746094 24.367188 35.238281 C 24.222656 35.472656 23.992188 35.636719 23.71875 35.703125 C 23.445312 35.765625 23.167969 35.722656 22.929688 35.578125 L 21.203125 34.507812 C 20.980469 34.375 20.691406 34.441406 20.558594 34.660156 C 20.421875 34.882812 20.488281 35.171875 20.710938 35.308594 L 21.789062 35.972656 C 21.835938 36.226562 21.789062 36.488281 21.652344 36.710938 C 21.351562 37.203125 20.707031 37.355469 20.214844 37.050781 L 19.0625 36.339844 L 19.28125 35.902344 C 19.519531 35.429688 19.558594 34.894531 19.394531 34.390625 C 19.226562 33.886719 18.875 33.476562 18.40625 33.238281 C 18.003906 33.039062 17.554688 32.980469 17.117188 33.070312 C 17.144531 32.320312 16.742188 31.585938 16.03125 31.230469 C 15.625 31.023438 15.167969 30.96875 14.730469 31.0625 C 14.746094 30.320312 14.34375 29.601562 13.640625 29.246094 C 12.742188 28.792969 11.65625 29.09375 11.105469 29.90625 C 10.921875 29.59375 10.648438 29.328125 10.296875 29.152344 C 9.828125 28.914062 9.289062 28.875 8.785156 29.042969 C 8.449219 29.152344 8.152344 29.351562 7.921875 29.609375 L 6.539062 28.761719 L 10.726562 20.390625 C 11.492188 20.917969 12.488281 21.148438 13.425781 21.148438 C 13.609375 21.148438 13.789062 21.136719 13.96875 21.121094 C 13.890625 21.273438 13.804688 21.421875 13.703125 21.578125 L 11.738281 24.566406 C 11.664062 24.675781 11.640625 24.8125 11.675781 24.941406 C 11.707031 25.070312 11.792969 25.175781 11.910156 25.238281 C 12.738281 25.675781 13.476562 25.886719 14.164062 25.886719 C 14.546875 25.886719 14.910156 25.824219 15.269531 25.691406 C 16.222656 25.34375 17.074219 24.550781 17.929688 23.207031 L 30.355469 30.59375 C 30.847656 30.898438 31 31.542969 30.699219 32.03125 Z M 30.144531 29.375 L 24.445312 25.988281 C 25.394531 25.863281 26.1875 25.332031 26.703125 24.425781 C 26.828125 24.203125 26.75 23.917969 26.527344 23.789062 C 26.300781 23.660156 26.015625 23.738281 25.886719 23.964844 C 25.222656 25.132812 23.96875 25.402344 22.449219 24.703125 C 22.375 24.667969 22.292969 24.65625 22.214844 24.660156 L 18.011719 22.164062 C 18.011719 22.164062 18.011719 22.164062 18.011719 22.160156 C 17.789062 22.03125 17.503906 22.105469 17.371094 22.328125 C 15.757812 25.058594 14.398438 25.320312 12.816406 24.632812 L 14.488281 22.089844 C 14.820312 21.585938 15.03125 21.101562 15.175781 20.511719 C 16.007812 17.140625 20.664062 17.980469 24.773438 18.71875 C 26.777344 19.082031 28.535156 19.394531 29.757812 19.214844 L 33.230469 26.496094 C 31.84375 27.011719 30.808594 27.976562 30.144531 29.375 Z M 34.625 27.238281 L 30.441406 18.472656 L 29.90625 17.34375 L 33.015625 15.839844 L 37.734375 25.734375 Z M 18.582031 15.425781 L 16.339844 13.179688 C 16.15625 13 16.15625 12.703125 16.339844 12.519531 C 16.523438 12.335938 16.820312 12.335938 17 12.519531 L 18.914062 14.429688 L 22.996094 10.347656 C 23.179688 10.164062 23.476562 10.164062 23.660156 10.347656 C 23.84375 10.53125 23.84375 10.828125 23.660156 11.011719 L 19.246094 15.425781 C 19.152344 15.515625 19.035156 15.5625 18.914062 15.5625 C 18.792969 15.5625 18.675781 15.515625 18.582031 15.425781 Z M 18.582031 15.425781 "/>
</g>
</svg>
