<?xml version="1.0" encoding="UTF-8"?>
<svg xmlns="http://www.w3.org/2000/svg" xmlns:xlink="http://www.w3.org/1999/xlink" width="45px" height="45px" viewBox="0 0 45 45" version="1.1">
<g id="surface1">
<path style=" stroke:none;fill-rule:nonzero;fill:rgb(0%,0%,0%);fill-opacity:1;" d="M 25.960938 26.15625 C 26.070312 26.226562 26.191406 26.253906 26.316406 26.253906 C 26.445312 26.253906 26.5625 26.21875 26.675781 26.15625 C 34.179688 21.53125 39.242188 15.34375 39.875 10.011719 C 40.164062 7.574219 39.496094 5.449219 37.925781 3.875 C 36.378906 2.304688 34.328125 1.476562 32.132812 1.519531 C 29.988281 1.566406 27.949219 2.445312 26.3125 4.015625 C 24.671875 2.445312 22.632812 1.566406 20.488281 1.519531 C 18.289062 1.46875 16.25 2.304688 14.695312 3.875 C 13.132812 5.457031 12.460938 7.578125 12.746094 10.011719 C 13.402344 15.34375 18.457031 21.523438 25.960938 26.15625 Z M 15.679688 4.832031 C 16.925781 3.570312 18.570312 2.882812 20.320312 2.882812 L 20.46875 2.882812 C 22.457031 2.925781 24.355469 3.839844 25.8125 5.449219 C 26.070312 5.738281 26.5625 5.738281 26.824219 5.449219 C 28.28125 3.839844 30.179688 2.925781 32.167969 2.882812 C 33.96875 2.839844 35.675781 3.535156 36.957031 4.832031 C 38.234375 6.125 38.757812 7.8125 38.515625 9.851562 C 37.949219 14.617188 33.171875 20.441406 26.3125 24.769531 C 19.449219 20.441406 14.675781 14.617188 14.105469 9.851562 C 13.871094 7.8125 14.398438 6.125 15.679688 4.832031 Z M 15.679688 4.832031 "/>
<path style=" stroke:none;fill-rule:nonzero;fill:rgb(0%,0%,0%);fill-opacity:1;" d="M 44.550781 29.769531 C 43.753906 28.511719 42.136719 28.027344 40.78125 28.636719 L 31.203125 32.996094 C 31.210938 32.933594 31.226562 32.871094 31.226562 32.808594 C 31.226562 31.367188 30.050781 30.191406 28.601562 30.191406 L 22.332031 30.191406 C 22 30.191406 21.671875 30.109375 21.367188 29.953125 L 16.074219 27.160156 C 15.589844 26.902344 15.03125 26.769531 14.484375 26.769531 L 10.257812 26.769531 L 10.257812 25.574219 C 10.257812 25.191406 9.957031 24.890625 9.578125 24.890625 L 1.878906 24.890625 C 1.519531 24.890625 1.222656 25.164062 1.195312 25.523438 L 0 41.246094 C -0.015625 41.433594 0.0507812 41.617188 0.183594 41.757812 C 0.308594 41.898438 0.492188 41.976562 0.683594 41.976562 L 9.570312 41.976562 C 9.949219 41.976562 10.25 41.675781 10.25 41.292969 L 10.25 40.042969 L 13.308594 40.042969 C 13.550781 40.042969 13.78125 40.085938 14.007812 40.167969 L 22.273438 43.15625 C 22.878906 43.375 23.503906 43.480469 24.132812 43.480469 C 25.015625 43.480469 25.894531 43.269531 26.683594 42.847656 L 43.410156 34.011719 C 44.394531 33.484375 45 32.46875 45 31.359375 C 45 30.796875 44.84375 30.25 44.550781 29.769531 Z M 8.886719 40.621094 L 1.421875 40.621094 L 2.511719 26.261719 L 8.886719 26.261719 Z M 42.777344 32.800781 L 26.042969 41.640625 C 25.03125 42.179688 23.820312 42.265625 22.730469 41.871094 L 14.46875 38.882812 C 14.097656 38.75 13.703125 38.679688 13.308594 38.679688 L 10.25 38.679688 L 10.25 28.132812 L 14.476562 28.132812 C 14.808594 28.132812 15.136719 28.214844 15.433594 28.371094 L 20.734375 31.164062 C 21.226562 31.414062 21.78125 31.554688 22.324219 31.554688 L 28.597656 31.554688 C 29.292969 31.554688 29.855469 32.117188 29.855469 32.808594 C 29.855469 33.238281 29.652344 33.53125 29.488281 33.699219 C 29.410156 33.777344 29.3125 33.847656 29.207031 33.910156 L 29.117188 33.953125 C 28.949219 34.03125 28.773438 34.074219 28.597656 34.074219 L 20.511719 34.074219 C 19.1875 34.074219 18.121094 35.148438 18.121094 36.464844 C 18.121094 36.84375 18.421875 37.144531 18.800781 37.144531 C 19.179688 37.144531 19.484375 36.84375 19.484375 36.464844 C 19.484375 35.894531 19.949219 35.4375 20.511719 35.4375 L 28.597656 35.4375 C 28.96875 35.4375 29.339844 35.351562 29.6875 35.191406 L 29.769531 35.148438 C 29.792969 35.140625 29.8125 35.136719 29.832031 35.121094 L 41.335938 29.882812 C 42.074219 29.546875 42.953125 29.8125 43.390625 30.5 C 43.550781 30.761719 43.636719 31.058594 43.636719 31.367188 C 43.636719 31.964844 43.304688 32.519531 42.777344 32.800781 Z M 42.777344 32.800781 "/>
</g>
</svg>
