<?xml version="1.0" encoding="UTF-8"?>
<svg xmlns="http://www.w3.org/2000/svg" xmlns:xlink="http://www.w3.org/1999/xlink" width="50px" height="50px" viewBox="0 0 50 50" version="1.1">
<g id="surface1">
<path style=" stroke:none;fill-rule:nonzero;fill:rgb(0%,0%,0%);fill-opacity:1;" d="M 10.15625 20.3125 C 8 20.3125 6.25 18.5625 6.25 16.40625 C 6.25 14.25 8 12.5 10.15625 12.5 C 12.3125 12.5 14.0625 14.25 14.0625 16.40625 C 14.058594 18.5625 12.3125 20.308594 10.15625 20.3125 Z M 10.15625 14.0625 C 8.863281 14.0625 7.8125 15.113281 7.8125 16.40625 C 7.8125 17.699219 8.863281 18.75 10.15625 18.75 C 11.449219 18.75 12.5 17.699219 12.5 16.40625 C 12.5 15.113281 11.449219 14.0625 10.15625 14.0625 Z M 10.15625 14.0625 "/>
<path style=" stroke:none;fill-rule:nonzero;fill:rgb(0%,0%,0%);fill-opacity:1;" d="M 7.8125 36.71875 L 1.5625 36.71875 C 1.132812 36.71875 0.78125 36.367188 0.78125 35.9375 C 0.777344 33.773438 1.191406 31.628906 1.996094 29.621094 L 4.550781 23.238281 C 5.253906 21.476562 7.113281 20.46875 8.976562 20.84375 C 10.035156 21.054688 10.964844 21.695312 11.539062 22.613281 L 14.53125 27.402344 L 18.203125 27.925781 C 19.480469 28.109375 20.398438 29.246094 20.308594 30.53125 C 20.214844 31.816406 19.144531 32.8125 17.855469 32.8125 L 11.71875 32.8125 C 11.421875 32.8125 11.152344 32.644531 11.019531 32.378906 L 9.722656 29.789062 L 8.582031 36.078125 C 8.511719 36.449219 8.191406 36.71875 7.8125 36.71875 Z M 2.363281 35.15625 L 7.160156 35.15625 L 8.605469 27.203125 C 8.667969 26.875 8.933594 26.617188 9.265625 26.570312 C 9.597656 26.523438 9.921875 26.695312 10.074219 26.996094 L 12.203125 31.25 L 17.855469 31.25 C 18.324219 31.25 18.710938 30.886719 18.746094 30.421875 C 18.777344 29.957031 18.445312 29.542969 17.984375 29.476562 L 13.953125 28.898438 C 13.722656 28.867188 13.523438 28.734375 13.398438 28.539062 L 10.214844 23.441406 C 9.742188 22.6875 8.882812 22.257812 7.992188 22.339844 C 7.101562 22.417969 6.332031 22.988281 6 23.820312 L 3.449219 30.199219 C 2.816406 31.78125 2.449219 33.457031 2.363281 35.15625 Z M 2.363281 35.15625 "/>
<path style=" stroke:none;fill-rule:nonzero;fill:rgb(0%,0%,0%);fill-opacity:1;" d="M 39.84375 20.3125 C 37.6875 20.3125 35.9375 18.5625 35.9375 16.40625 C 35.9375 14.25 37.6875 12.5 39.84375 12.5 C 42 12.5 43.75 14.25 43.75 16.40625 C 43.746094 18.5625 42 20.308594 39.84375 20.3125 Z M 39.84375 14.0625 C 38.550781 14.0625 37.5 15.113281 37.5 16.40625 C 37.5 17.699219 38.550781 18.75 39.84375 18.75 C 41.136719 18.75 42.1875 17.699219 42.1875 16.40625 C 42.1875 15.113281 41.136719 14.0625 39.84375 14.0625 Z M 39.84375 14.0625 "/>
<path style=" stroke:none;fill-rule:nonzero;fill:rgb(0%,0%,0%);fill-opacity:1;" d="M 48.4375 36.71875 L 42.1875 36.71875 C 41.808594 36.71875 41.488281 36.449219 41.417969 36.078125 L 40.277344 29.789062 L 38.984375 32.378906 C 38.851562 32.648438 38.578125 32.8125 38.28125 32.8125 L 32.144531 32.8125 C 30.851562 32.816406 29.78125 31.820312 29.691406 30.53125 C 29.597656 29.246094 30.519531 28.109375 31.792969 27.925781 L 35.464844 27.402344 L 38.460938 22.613281 C 39.035156 21.695312 39.960938 21.054688 41.023438 20.84375 C 42.882812 20.46875 44.746094 21.476562 45.449219 23.238281 L 48 29.621094 C 48.808594 31.628906 49.222656 33.773438 49.21875 35.9375 C 49.21875 36.367188 48.867188 36.71875 48.4375 36.71875 Z M 42.839844 35.15625 L 47.636719 35.15625 C 47.550781 33.457031 47.183594 31.78125 46.550781 30.199219 L 44 23.820312 C 43.667969 22.988281 42.898438 22.417969 42.007812 22.335938 C 41.117188 22.257812 40.257812 22.683594 39.785156 23.441406 L 36.601562 28.539062 C 36.476562 28.734375 36.277344 28.867188 36.046875 28.898438 L 32.015625 29.476562 C 31.554688 29.542969 31.222656 29.957031 31.253906 30.421875 C 31.289062 30.886719 31.675781 31.25 32.144531 31.25 L 37.796875 31.25 L 39.925781 26.996094 C 40.078125 26.695312 40.402344 26.523438 40.734375 26.570312 C 41.066406 26.617188 41.332031 26.875 41.394531 27.203125 Z M 42.839844 35.15625 "/>
<path style=" stroke:none;fill-rule:nonzero;fill:rgb(0%,0%,0%);fill-opacity:1;" d="M 34.871094 25.285156 L 33.839844 22.65625 L 16.160156 22.65625 L 15.4375 24.503906 L 13.984375 23.933594 L 14.902344 21.589844 C 15.015625 21.292969 15.304688 21.09375 15.625 21.09375 L 34.375 21.09375 C 34.695312 21.09375 34.984375 21.289062 35.101562 21.589844 L 36.324219 24.714844 Z M 34.871094 25.285156 "/>
<path style=" stroke:none;fill-rule:nonzero;fill:rgb(0%,0%,0%);fill-opacity:1;" d="M 25 39.84375 C 22.414062 39.839844 20.316406 37.742188 20.3125 35.15625 L 20.3125 34.375 C 20.3125 31.785156 22.410156 29.6875 25 29.6875 C 27.589844 29.6875 29.6875 31.785156 29.6875 34.375 L 29.6875 35.15625 C 29.683594 37.742188 27.585938 39.839844 25 39.84375 Z M 25 31.25 C 23.273438 31.25 21.875 32.648438 21.875 34.375 L 21.875 35.15625 C 21.875 36.882812 23.273438 38.28125 25 38.28125 C 26.726562 38.28125 28.125 36.882812 28.125 35.15625 L 28.125 34.375 C 28.125 32.648438 26.726562 31.25 25 31.25 Z M 25 31.25 "/>
<path style=" stroke:none;fill-rule:nonzero;fill:rgb(0%,0%,0%);fill-opacity:1;" d="M 33.59375 48.4375 L 32.03125 48.4375 L 32.03125 44.53125 C 32.03125 43.238281 30.980469 42.1875 29.6875 42.1875 L 20.3125 42.1875 C 19.019531 42.1875 17.96875 43.238281 17.96875 44.53125 L 17.96875 48.4375 L 16.40625 48.4375 L 16.40625 44.53125 C 16.410156 42.375 18.15625 40.628906 20.3125 40.625 L 29.6875 40.625 C 31.84375 40.628906 33.589844 42.375 33.59375 44.53125 Z M 33.59375 48.4375 "/>
<path style=" stroke:none;fill-rule:nonzero;fill:rgb(0%,0%,0%);fill-opacity:1;" d="M 41.40625 43.75 L 34.375 43.75 L 34.375 42.1875 L 40.625 42.1875 L 40.625 39.992188 L 38.234375 33.878906 L 39.6875 33.308594 L 42.132812 39.558594 C 42.167969 39.648438 42.1875 39.746094 42.1875 39.84375 L 42.1875 42.96875 C 42.1875 43.398438 41.835938 43.75 41.40625 43.75 Z M 41.40625 43.75 "/>
<path style=" stroke:none;fill-rule:nonzero;fill:rgb(0%,0%,0%);fill-opacity:1;" d="M 15.625 43.75 L 8.59375 43.75 C 8.164062 43.75 7.8125 43.398438 7.8125 42.96875 L 7.8125 39.84375 C 7.8125 39.746094 7.832031 39.648438 7.867188 39.558594 L 10.3125 33.308594 L 11.769531 33.878906 L 9.375 39.992188 L 9.375 42.1875 L 15.625 42.1875 Z M 15.625 43.75 "/>
<path style=" stroke:none;fill-rule:nonzero;fill:rgb(0%,0%,0%);fill-opacity:1;" d="M 46.875 21.875 L 45.3125 21.875 L 45.3125 2.34375 L 4.6875 2.34375 L 4.6875 21.875 L 3.125 21.875 L 3.125 1.5625 C 3.125 1.132812 3.476562 0.78125 3.90625 0.78125 L 46.09375 0.78125 C 46.523438 0.78125 46.875 1.132812 46.875 1.5625 Z M 46.875 21.875 "/>
<path style=" stroke:none;fill-rule:nonzero;fill:rgb(0%,0%,0%);fill-opacity:1;" d="M 16.957031 16.957031 L 15.855469 15.855469 L 21.324219 10.386719 C 21.628906 10.082031 22.121094 10.082031 22.425781 10.386719 L 26.5625 14.519531 L 36.167969 4.917969 L 37.269531 6.019531 L 27.113281 16.175781 C 26.808594 16.480469 26.316406 16.480469 26.011719 16.175781 L 21.875 12.042969 Z M 16.957031 16.957031 "/>
<path style=" stroke:none;fill-rule:nonzero;fill:rgb(0%,0%,0%);fill-opacity:1;" d="M 37.5 10.15625 L 35.9375 10.15625 L 35.9375 6.25 L 32.03125 6.25 L 32.03125 4.6875 L 36.71875 4.6875 C 37.148438 4.6875 37.5 5.039062 37.5 5.46875 Z M 37.5 10.15625 "/>
<path style=" stroke:none;fill-rule:nonzero;fill:rgb(0%,0%,0%);fill-opacity:1;" d="M 8.59375 4.6875 L 17.96875 4.6875 L 17.96875 6.25 L 8.59375 6.25 Z M 8.59375 4.6875 "/>
<path style=" stroke:none;fill-rule:nonzero;fill:rgb(0%,0%,0%);fill-opacity:1;" d="M 8.59375 7.8125 L 14.0625 7.8125 L 14.0625 9.375 L 8.59375 9.375 Z M 8.59375 7.8125 "/>
</g>
</svg>
