<?xml version="1.0" encoding="UTF-8"?>
<svg xmlns="http://www.w3.org/2000/svg" xmlns:xlink="http://www.w3.org/1999/xlink" width="45px" height="45px" viewBox="0 0 45 45" version="1.1">
<g id="surface1">
<path style=" stroke:none;fill-rule:evenodd;fill:rgb(0%,0%,0%);fill-opacity:1;" d="M 6.457031 33.40625 L 1.714844 33.40625 C 1.511719 33.40625 1.324219 33.320312 1.1875 33.171875 C 1.054688 33.023438 0.992188 32.824219 1.011719 32.625 C 1.664062 26.546875 6.046875 21.585938 11.824219 20.082031 C 9.425781 18.769531 7.792969 16.21875 7.792969 13.296875 C 7.792969 9.046875 11.257812 5.574219 15.511719 5.574219 C 19.769531 5.574219 23.234375 9.046875 23.234375 13.296875 C 23.234375 16.21875 21.601562 18.769531 19.203125 20.082031 C 24.480469 21.457031 28.589844 25.714844 29.761719 31.070312 L 31.042969 31.070312 L 32.402344 26.875 C 32.554688 26.40625 32.992188 26.089844 33.484375 26.089844 C 33.972656 26.089844 34.410156 26.40625 34.5625 26.875 L 35.925781 31.070312 L 40.332031 31.070312 C 40.824219 31.070312 41.261719 31.386719 41.414062 31.851562 C 41.5625 32.320312 41.398438 32.832031 41 33.121094 L 37.433594 35.714844 L 38.796875 39.90625 C 38.949219 40.375 38.78125 40.886719 38.382812 41.175781 C 37.984375 41.464844 37.449219 41.464844 37.050781 41.175781 L 33.484375 38.582031 L 29.914062 41.175781 C 29.515625 41.464844 28.980469 41.464844 28.582031 41.175781 C 28.183594 40.886719 28.019531 40.375 28.167969 39.90625 L 29.53125 35.714844 L 26.359375 33.40625 L 24.566406 33.40625 C 24.714844 33.539062 24.800781 33.726562 24.800781 33.933594 L 24.800781 36.253906 C 24.800781 36.546875 24.621094 36.808594 24.351562 36.914062 C 24.351562 36.914062 23.265625 37.332031 23.265625 37.332031 C 23.097656 37.910156 22.867188 38.464844 22.578125 38.992188 L 23.046875 40.054688 C 23.167969 40.320312 23.109375 40.632812 22.902344 40.839844 L 21.261719 42.480469 C 21.054688 42.6875 20.742188 42.746094 20.476562 42.628906 C 20.476562 42.628906 19.410156 42.15625 19.410156 42.15625 C 18.886719 42.449219 18.328125 42.679688 17.75 42.84375 L 17.332031 43.929688 C 17.230469 44.203125 16.96875 44.382812 16.675781 44.382812 L 14.351562 44.382812 C 14.058594 44.382812 13.796875 44.203125 13.695312 43.929688 C 13.695312 43.929688 13.277344 42.84375 13.277344 42.84375 C 12.699219 42.679688 12.140625 42.445312 11.613281 42.15625 L 10.550781 42.628906 C 10.28125 42.746094 9.972656 42.6875 9.765625 42.480469 L 8.121094 40.839844 C 7.917969 40.632812 7.859375 40.320312 7.976562 40.054688 C 7.976562 40.054688 8.449219 38.992188 8.449219 38.992188 C 8.160156 38.464844 7.929688 37.910156 7.761719 37.332031 L 6.675781 36.914062 C 6.402344 36.808594 6.222656 36.546875 6.222656 36.253906 L 6.222656 33.933594 C 6.222656 33.726562 6.3125 33.539062 6.457031 33.40625 Z M 15.511719 21.023438 C 8.988281 21.023438 3.570312 25.765625 2.523438 31.996094 L 8.0625 31.996094 C 8.175781 31.722656 8.304688 31.453125 8.449219 31.195312 L 7.976562 30.128906 C 7.859375 29.863281 7.917969 29.550781 8.121094 29.34375 L 9.765625 27.703125 C 9.972656 27.496094 10.285156 27.4375 10.550781 27.558594 C 10.550781 27.558594 11.613281 28.03125 11.613281 28.03125 C 12.140625 27.738281 12.695312 27.507812 13.273438 27.34375 L 13.695312 26.253906 C 13.796875 25.980469 14.058594 25.804688 14.351562 25.804688 L 16.675781 25.804688 C 16.96875 25.804688 17.230469 25.984375 17.332031 26.253906 L 17.75 27.34375 C 18.328125 27.507812 18.882812 27.738281 19.410156 28.03125 L 20.472656 27.558594 C 20.742188 27.4375 21.054688 27.496094 21.261719 27.703125 L 22.902344 29.34375 C 23.109375 29.550781 23.167969 29.863281 23.046875 30.128906 C 23.046875 30.128906 22.578125 31.195312 22.578125 31.195312 C 22.722656 31.453125 22.851562 31.722656 22.964844 31.996094 L 25.515625 31.996094 C 25.527344 31.949219 25.539062 31.898438 25.554688 31.851562 C 25.703125 31.386719 26.140625 31.070312 26.632812 31.070312 L 28.3125 31.070312 C 26.910156 25.304688 21.710938 21.023438 15.511719 21.023438 Z M 27.484375 32.480469 L 30.527344 34.691406 C 30.921875 34.976562 31.089844 35.492188 30.9375 35.957031 L 29.777344 39.53125 L 32.816406 37.324219 C 33.214844 37.035156 33.75 37.035156 34.148438 37.324219 L 37.1875 39.53125 L 36.027344 35.957031 C 35.875 35.492188 36.042969 34.976562 36.441406 34.691406 L 39.480469 32.480469 L 35.722656 32.480469 C 35.230469 32.480469 34.796875 32.164062 34.644531 31.699219 L 33.484375 28.125 L 32.320312 31.699219 C 32.167969 32.164062 31.734375 32.480469 31.242188 32.480469 Z M 15.511719 19.609375 C 18.992188 19.609375 21.824219 16.773438 21.824219 13.296875 C 21.824219 9.824219 18.992188 6.988281 15.511719 6.988281 C 12.035156 6.988281 9.203125 9.824219 9.203125 13.296875 C 9.203125 16.773438 12.035156 19.609375 15.511719 19.609375 Z M 16.5625 28.1875 L 16.191406 27.214844 L 14.835938 27.214844 L 14.460938 28.1875 C 14.378906 28.402344 14.191406 28.566406 13.964844 28.621094 C 13.28125 28.78125 12.628906 29.054688 12.027344 29.421875 C 11.828125 29.546875 11.582031 29.5625 11.371094 29.46875 L 10.421875 29.042969 L 9.464844 30 L 9.886719 30.953125 C 9.980469 31.164062 9.964844 31.410156 9.84375 31.609375 C 9.472656 32.207031 9.203125 32.863281 9.035156 33.550781 C 8.984375 33.777344 8.820312 33.960938 8.605469 34.042969 C 8.605469 34.042969 7.632812 34.417969 7.632812 34.417969 L 7.632812 35.769531 L 8.605469 36.144531 C 8.820312 36.226562 8.984375 36.410156 9.035156 36.636719 C 9.203125 37.320312 9.472656 37.976562 9.84375 38.574219 C 9.964844 38.773438 9.980469 39.019531 9.886719 39.234375 C 9.886719 39.234375 9.464844 40.183594 9.464844 40.183594 L 10.421875 41.140625 L 11.371094 40.71875 C 11.585938 40.625 11.828125 40.640625 12.027344 40.765625 C 12.628906 41.132812 13.28125 41.40625 13.96875 41.566406 C 14.195312 41.621094 14.378906 41.785156 14.464844 42 C 14.464844 42 14.835938 42.96875 14.835938 42.96875 L 16.191406 42.96875 L 16.5625 42 C 16.648438 41.785156 16.832031 41.621094 17.058594 41.566406 C 17.742188 41.40625 18.398438 41.136719 18.996094 40.765625 C 19.195312 40.644531 19.441406 40.625 19.652344 40.71875 C 19.652344 40.71875 20.605469 41.140625 20.605469 41.140625 L 21.5625 40.183594 L 21.140625 39.234375 C 21.046875 39.019531 21.0625 38.777344 21.183594 38.578125 C 21.550781 37.976562 21.824219 37.324219 21.988281 36.640625 C 22.042969 36.414062 22.203125 36.226562 22.421875 36.144531 C 22.421875 36.144531 23.390625 35.769531 23.390625 35.769531 L 23.390625 34.417969 L 22.421875 34.042969 C 22.203125 33.960938 22.039062 33.773438 21.988281 33.546875 C 21.824219 32.859375 21.554688 32.207031 21.183594 31.609375 C 21.0625 31.410156 21.046875 31.164062 21.140625 30.953125 L 21.5625 30 L 20.605469 29.042969 L 19.652344 29.46875 C 19.441406 29.5625 19.195312 29.546875 18.996094 29.421875 C 18.394531 29.054688 17.742188 28.78125 17.058594 28.621094 C 16.832031 28.566406 16.648438 28.402344 16.5625 28.1875 Z M 15.511719 30.335938 C 18.140625 30.335938 20.273438 32.464844 20.273438 35.09375 C 20.273438 37.722656 18.140625 39.851562 15.511719 39.851562 C 12.882812 39.851562 10.753906 37.722656 10.753906 35.09375 C 10.753906 32.464844 12.882812 30.335938 15.511719 30.335938 Z M 15.511719 31.746094 C 13.664062 31.746094 12.167969 33.246094 12.167969 35.09375 C 12.167969 36.941406 13.664062 38.441406 15.511719 38.441406 C 17.359375 38.441406 18.859375 36.941406 18.859375 35.09375 C 18.859375 33.246094 17.359375 31.746094 15.511719 31.746094 Z M 42.160156 6.890625 C 41.164062 5.714844 38.972656 3.132812 38.203125 2.226562 L 34.246094 6.890625 L 35.667969 6.890625 C 36.058594 6.890625 36.375 7.203125 36.375 7.59375 L 36.375 20.050781 C 36.375 20.4375 36.058594 20.753906 35.667969 20.753906 C 35.277344 20.753906 34.960938 20.4375 34.960938 20.050781 L 34.960938 8.300781 L 33.464844 8.300781 C 33.039062 8.300781 32.683594 8.070312 32.507812 7.6875 C 32.335938 7.3125 32.390625 6.886719 32.664062 6.570312 C 32.664062 6.570312 37.402344 0.988281 37.402344 0.988281 C 37.605469 0.746094 37.878906 0.617188 38.203125 0.617188 C 38.515625 0.617188 38.792969 0.742188 39 0.984375 C 39 0.984375 39.003906 0.988281 39.003906 0.988281 L 43.742188 6.570312 C 44.011719 6.886719 44.070312 7.3125 43.894531 7.6875 C 43.71875 8.074219 43.359375 8.300781 42.941406 8.300781 L 41.441406 8.300781 L 41.441406 16.140625 C 41.441406 16.527344 41.125 16.84375 40.734375 16.84375 C 40.34375 16.84375 40.027344 16.527344 40.027344 16.140625 L 40.027344 7.59375 C 40.027344 7.203125 40.34375 6.890625 40.734375 6.890625 Z M 40.027344 18.09375 C 40.027344 17.703125 40.34375 17.386719 40.734375 17.386719 C 41.125 17.386719 41.441406 17.703125 41.441406 18.09375 L 41.441406 20.050781 C 41.441406 20.4375 41.125 20.753906 40.734375 20.753906 C 40.34375 20.753906 40.027344 20.4375 40.027344 20.050781 Z M 40.027344 22.003906 C 40.027344 21.613281 40.34375 21.296875 40.734375 21.296875 C 41.125 21.296875 41.441406 21.613281 41.441406 22.003906 L 41.441406 23.910156 C 41.441406 24.300781 41.125 24.617188 40.734375 24.617188 C 40.34375 24.617188 40.027344 24.300781 40.027344 23.910156 Z M 36.375 23.910156 C 36.375 24.300781 36.058594 24.617188 35.667969 24.617188 C 35.277344 24.617188 34.960938 24.300781 34.960938 23.910156 L 34.960938 22.003906 C 34.960938 21.613281 35.277344 21.296875 35.667969 21.296875 C 36.058594 21.296875 36.375 21.613281 36.375 22.003906 Z M 31.933594 14.539062 C 31.0625 13.511719 29.429688 11.589844 28.75 10.789062 L 25.566406 14.539062 L 26.574219 14.539062 C 26.964844 14.539062 27.28125 14.855469 27.28125 15.242188 L 27.28125 21.632812 C 27.28125 22.023438 26.964844 22.339844 26.574219 22.339844 C 26.1875 22.339844 25.871094 22.023438 25.871094 21.632812 L 25.871094 15.949219 L 24.679688 15.949219 C 24.277344 15.949219 23.9375 15.730469 23.769531 15.367188 C 23.605469 15.007812 23.65625 14.601562 23.917969 14.296875 C 23.917969 14.296875 27.988281 9.507812 27.988281 9.507812 C 28.179688 9.277344 28.441406 9.152344 28.75 9.152344 C 29.050781 9.152344 29.3125 9.273438 29.511719 9.5 C 29.511719 9.503906 29.511719 9.503906 29.515625 9.503906 L 33.585938 14.300781 C 33.839844 14.601562 33.894531 15.007812 33.730469 15.367188 C 33.5625 15.734375 33.21875 15.949219 32.820312 15.949219 L 31.632812 15.949219 L 31.632812 25.828125 C 31.632812 26.21875 31.316406 26.535156 30.925781 26.535156 C 30.535156 26.535156 30.21875 26.21875 30.21875 25.828125 L 30.21875 15.242188 C 30.21875 14.855469 30.535156 14.539062 30.925781 14.539062 Z M 31.933594 14.539062 "/>
</g>
</svg>
