<?xml version="1.0" encoding="UTF-8"?>
<svg xmlns="http://www.w3.org/2000/svg" xmlns:xlink="http://www.w3.org/1999/xlink" width="50px" height="50px" viewBox="0 0 50 50" version="1.1">
<g id="surface1">
<path style=" stroke:none;fill-rule:nonzero;fill:rgb(0%,0%,0%);fill-opacity:1;" d="M 28.90625 41.40625 L 28.484375 41.40625 C 29.230469 40.574219 29.6875 39.484375 29.6875 38.28125 C 29.6875 35.695312 27.585938 33.59375 25 33.59375 C 22.414062 33.59375 20.3125 35.695312 20.3125 38.28125 C 20.3125 39.484375 20.769531 40.574219 21.515625 41.40625 L 21.09375 41.40625 C 18.941406 41.40625 17.1875 43.160156 17.1875 45.3125 L 17.1875 49.21875 L 18.75 49.21875 L 18.75 45.3125 C 18.75 44.019531 19.800781 42.96875 21.09375 42.96875 L 28.90625 42.96875 C 30.199219 42.96875 31.25 44.019531 31.25 45.3125 L 31.25 49.21875 L 32.8125 49.21875 L 32.8125 45.3125 C 32.8125 43.160156 31.058594 41.40625 28.90625 41.40625 Z M 25 41.40625 C 23.277344 41.40625 21.875 40.003906 21.875 38.28125 C 21.875 36.558594 23.277344 35.15625 25 35.15625 C 26.722656 35.15625 28.125 36.558594 28.125 38.28125 C 28.125 40.003906 26.722656 41.40625 25 41.40625 Z M 25 41.40625 "/>
<path style=" stroke:none;fill-rule:nonzero;fill:rgb(0%,0%,0%);fill-opacity:1;" d="M 20.3125 45.3125 L 21.875 45.3125 L 21.875 49.21875 L 20.3125 49.21875 Z M 20.3125 45.3125 "/>
<path style=" stroke:none;fill-rule:nonzero;fill:rgb(0%,0%,0%);fill-opacity:1;" d="M 28.125 45.3125 L 29.6875 45.3125 L 29.6875 49.21875 L 28.125 49.21875 Z M 28.125 45.3125 "/>
<path style=" stroke:none;fill-rule:nonzero;fill:rgb(0%,0%,0%);fill-opacity:1;" d="M 35.171875 15.015625 C 35.171875 14.808594 35.089844 14.609375 34.945312 14.464844 L 31.628906 11.152344 C 31.324219 10.84375 30.828125 10.84375 30.523438 11.152344 L 29.597656 12.046875 C 29.132812 11.808594 28.644531 11.609375 28.125 11.441406 L 28.125 10.15625 C 28.125 9.722656 27.773438 9.375 27.34375 9.375 L 22.65625 9.375 C 22.226562 9.375 21.875 9.722656 21.875 10.15625 L 21.855469 11.445312 C 21.355469 11.609375 20.867188 11.808594 20.382812 12.058594 L 19.476562 11.148438 C 19.171875 10.84375 18.675781 10.84375 18.371094 11.148438 L 15.054688 14.464844 C 14.910156 14.609375 14.828125 14.808594 14.828125 15.015625 C 14.828125 15.222656 14.910156 15.421875 15.054688 15.570312 L 15.953125 16.496094 C 15.714844 16.960938 15.515625 17.449219 15.347656 17.96875 L 14.0625 17.96875 C 13.632812 17.96875 13.28125 18.316406 13.28125 18.75 L 13.28125 23.4375 C 13.28125 23.871094 13.632812 24.21875 14.0625 24.21875 L 15.351562 24.238281 C 15.515625 24.738281 15.714844 25.226562 15.964844 25.710938 L 15.054688 26.617188 C 14.910156 26.765625 14.828125 26.960938 14.828125 27.171875 C 14.828125 27.378906 14.910156 27.578125 15.054688 27.722656 L 18.371094 31.035156 C 18.675781 31.34375 19.167969 31.34375 19.476562 31.035156 L 20.402344 30.140625 C 20.867188 30.378906 21.355469 30.578125 21.875 30.746094 L 21.875 32.03125 C 21.875 32.464844 22.222656 32.8125 22.65625 32.8125 L 27.34375 32.8125 C 27.773438 32.8125 28.125 32.464844 28.125 32.03125 L 28.144531 30.742188 C 28.644531 30.578125 29.132812 30.378906 29.613281 30.128906 L 30.523438 31.039062 C 30.828125 31.34375 31.324219 31.34375 31.628906 31.039062 L 34.941406 27.722656 C 35.089844 27.578125 35.171875 27.378906 35.171875 27.171875 C 35.171875 26.964844 35.089844 26.765625 34.941406 26.617188 L 34.046875 25.691406 C 34.28125 25.226562 34.484375 24.738281 34.652344 24.21875 L 35.9375 24.21875 C 36.367188 24.21875 36.71875 23.871094 36.71875 23.4375 L 36.71875 18.75 C 36.71875 18.316406 36.367188 17.96875 35.9375 17.96875 L 34.648438 17.949219 C 34.484375 17.449219 34.285156 16.960938 34.035156 16.476562 L 34.945312 15.570312 C 35.089844 15.421875 35.171875 15.222656 35.171875 15.015625 Z M 34.652344 19.53125 L 35.15625 19.53125 L 35.15625 22.65625 L 34.652344 22.65625 C 33.972656 22.65625 33.375 23.097656 33.160156 23.757812 C 33.023438 24.175781 32.851562 24.589844 32.652344 24.984375 C 32.339844 25.597656 32.453125 26.335938 32.929688 26.8125 L 33.285156 27.171875 L 31.078125 29.378906 L 30.71875 29.023438 C 30.242188 28.542969 29.503906 28.429688 28.886719 28.746094 C 28.496094 28.949219 28.082031 29.117188 27.660156 29.253906 C 27.003906 29.46875 26.5625 30.070312 26.5625 30.746094 L 26.5625 31.25 L 23.4375 31.25 L 23.4375 30.746094 C 23.4375 30.070312 22.996094 29.46875 22.335938 29.253906 C 21.917969 29.117188 21.503906 28.949219 21.113281 28.75 C 20.496094 28.433594 19.757812 28.542969 19.28125 29.023438 L 18.921875 29.382812 L 16.714844 27.171875 L 17.070312 26.816406 C 17.546875 26.335938 17.660156 25.601562 17.347656 24.984375 C 17.148438 24.589844 16.976562 24.179688 16.839844 23.757812 C 16.625 23.097656 16.027344 22.65625 15.347656 22.65625 L 14.84375 22.65625 L 14.84375 19.53125 L 15.347656 19.53125 C 16.027344 19.53125 16.625 19.089844 16.839844 18.429688 C 16.976562 18.011719 17.148438 17.597656 17.347656 17.203125 C 17.660156 16.589844 17.550781 15.851562 17.070312 15.375 L 16.714844 15.015625 L 18.921875 12.808594 L 19.28125 13.164062 C 19.757812 13.640625 20.492188 13.753906 21.113281 13.441406 C 21.503906 13.238281 21.917969 13.070312 22.339844 12.933594 C 22.996094 12.71875 23.4375 12.117188 23.4375 11.441406 L 23.4375 10.9375 L 26.5625 10.9375 L 26.5625 11.441406 C 26.5625 12.117188 27.003906 12.71875 27.664062 12.933594 C 28.082031 13.070312 28.496094 13.238281 28.886719 13.4375 C 29.503906 13.753906 30.242188 13.640625 30.71875 13.164062 L 31.078125 12.804688 L 33.285156 15.015625 L 32.929688 15.371094 C 32.449219 15.851562 32.339844 16.585938 32.652344 17.203125 C 32.851562 17.597656 33.023438 18.007812 33.160156 18.429688 C 33.375 19.089844 33.972656 19.53125 34.652344 19.53125 Z M 34.652344 19.53125 "/>
<path style=" stroke:none;fill-rule:nonzero;fill:rgb(0%,0%,0%);fill-opacity:1;" d="M 25 14.0625 C 21.125 14.0625 17.96875 17.214844 17.96875 21.09375 C 17.96875 24.972656 21.125 28.125 25 28.125 C 28.875 28.125 32.03125 24.972656 32.03125 21.09375 C 32.03125 17.214844 28.875 14.0625 25 14.0625 Z M 25 26.5625 C 21.984375 26.5625 19.53125 24.109375 19.53125 21.09375 C 19.53125 18.078125 21.984375 15.625 25 15.625 C 28.015625 15.625 30.46875 18.078125 30.46875 21.09375 C 30.46875 24.109375 28.015625 26.5625 25 26.5625 Z M 25 26.5625 "/>
<path style=" stroke:none;fill-rule:nonzero;fill:rgb(0%,0%,0%);fill-opacity:1;" d="M 42.1875 0.78125 C 38.3125 0.78125 35.15625 3.933594 35.15625 7.8125 C 35.15625 11.691406 38.3125 14.84375 42.1875 14.84375 C 46.0625 14.84375 49.21875 11.691406 49.21875 7.8125 C 49.21875 3.933594 46.0625 0.78125 42.1875 0.78125 Z M 42.1875 13.28125 C 41.035156 13.28125 39.96875 12.921875 39.085938 12.3125 C 39.21875 11.109375 40.550781 10.15625 42.1875 10.15625 C 43.050781 10.15625 43.859375 10.421875 44.460938 10.894531 C 44.949219 11.292969 45.230469 11.789062 45.289062 12.3125 C 44.40625 12.921875 43.339844 13.28125 42.1875 13.28125 Z M 40.625 7.03125 C 40.625 6.167969 41.324219 5.46875 42.1875 5.46875 C 43.050781 5.46875 43.75 6.167969 43.75 7.03125 C 43.75 7.894531 43.050781 8.59375 42.1875 8.59375 C 41.324219 8.59375 40.625 7.894531 40.625 7.03125 Z M 46.554688 11.085938 C 46.3125 10.566406 45.941406 10.082031 45.4375 9.675781 C 45.152344 9.449219 44.832031 9.273438 44.5 9.113281 C 45 8.5625 45.3125 7.835938 45.3125 7.03125 C 45.3125 5.308594 43.910156 3.90625 42.1875 3.90625 C 40.464844 3.90625 39.0625 5.308594 39.0625 7.03125 C 39.0625 7.832031 39.375 8.554688 39.871094 9.109375 C 38.941406 9.550781 38.210938 10.25 37.820312 11.089844 C 37.132812 10.175781 36.71875 9.042969 36.71875 7.8125 C 36.71875 4.796875 39.171875 2.34375 42.1875 2.34375 C 45.203125 2.34375 47.65625 4.796875 47.65625 7.8125 C 47.65625 9.042969 47.242188 10.171875 46.554688 11.085938 Z M 46.554688 11.085938 "/>
<path style=" stroke:none;fill-rule:nonzero;fill:rgb(0%,0%,0%);fill-opacity:1;" d="M 14.84375 7.8125 C 14.84375 3.933594 11.6875 0.78125 7.8125 0.78125 C 3.9375 0.78125 0.78125 3.933594 0.78125 7.8125 C 0.78125 11.691406 3.9375 14.84375 7.8125 14.84375 C 11.6875 14.84375 14.84375 11.691406 14.84375 7.8125 Z M 3.445312 11.089844 C 2.757812 10.175781 2.34375 9.042969 2.34375 7.8125 C 2.34375 4.796875 4.796875 2.34375 7.8125 2.34375 C 10.828125 2.34375 13.28125 4.796875 13.28125 7.8125 C 13.28125 9.042969 12.867188 10.171875 12.179688 11.085938 C 11.9375 10.566406 11.566406 10.082031 11.0625 9.675781 C 10.777344 9.449219 10.457031 9.273438 10.125 9.113281 C 10.625 8.5625 10.9375 7.835938 10.9375 7.03125 C 10.9375 5.308594 9.535156 3.90625 7.8125 3.90625 C 6.089844 3.90625 4.6875 5.308594 4.6875 7.03125 C 4.6875 7.832031 5 8.554688 5.496094 9.109375 C 4.566406 9.550781 3.835938 10.25 3.445312 11.089844 Z M 9.375 7.03125 C 9.375 7.894531 8.675781 8.59375 7.8125 8.59375 C 6.949219 8.59375 6.25 7.894531 6.25 7.03125 C 6.25 6.167969 6.949219 5.46875 7.8125 5.46875 C 8.675781 5.46875 9.375 6.167969 9.375 7.03125 Z M 7.8125 10.15625 C 8.675781 10.15625 9.484375 10.421875 10.085938 10.894531 C 10.574219 11.292969 10.855469 11.789062 10.914062 12.3125 C 10.03125 12.921875 8.964844 13.28125 7.8125 13.28125 C 6.660156 13.28125 5.59375 12.921875 4.710938 12.3125 C 4.84375 11.109375 6.175781 10.15625 7.8125 10.15625 Z M 7.8125 10.15625 "/>
<path style=" stroke:none;fill-rule:nonzero;fill:rgb(0%,0%,0%);fill-opacity:1;" d="M 25.152344 19.335938 L 25 19.472656 L 24.847656 19.335938 C 23.984375 18.550781 22.632812 18.550781 21.769531 19.335938 C 21.332031 19.730469 21.09375 20.265625 21.09375 20.835938 C 21.09375 21.410156 21.335938 21.941406 21.769531 22.335938 L 24.472656 24.796875 C 24.625 24.933594 24.8125 25 25 25 C 25.1875 25 25.375 24.933594 25.527344 24.796875 L 28.230469 22.335938 C 28.664062 21.941406 28.90625 21.40625 28.90625 20.835938 C 28.90625 20.265625 28.667969 19.730469 28.230469 19.335938 C 27.367188 18.550781 26.011719 18.550781 25.152344 19.335938 Z M 27.179688 21.179688 L 25 23.164062 L 22.820312 21.179688 C 22.683594 21.058594 22.65625 20.925781 22.65625 20.835938 C 22.65625 20.746094 22.683594 20.617188 22.820312 20.492188 C 22.949219 20.375 23.128906 20.3125 23.308594 20.3125 C 23.488281 20.3125 23.667969 20.371094 23.796875 20.492188 L 24.472656 21.105469 C 24.773438 21.378906 25.226562 21.378906 25.523438 21.105469 L 26.203125 20.492188 C 26.460938 20.253906 26.917969 20.253906 27.179688 20.492188 C 27.316406 20.617188 27.34375 20.746094 27.34375 20.835938 C 27.34375 20.925781 27.316406 21.058594 27.179688 21.179688 Z M 27.179688 21.179688 "/>
<path style=" stroke:none;fill-rule:nonzero;fill:rgb(0%,0%,0%);fill-opacity:1;" d="M 19 39.644531 C 16.652344 38.851562 14.453125 37.570312 12.589844 35.925781 L 13.765625 34.984375 C 13.988281 34.808594 14.09375 34.527344 14.050781 34.25 C 14.003906 33.972656 13.816406 33.742188 13.550781 33.644531 L 8.863281 31.910156 C 8.605469 31.8125 8.3125 31.863281 8.097656 32.039062 C 7.882812 32.214844 7.777344 32.492188 7.824219 32.765625 L 8.601562 37.625 C 8.644531 37.898438 8.832031 38.128906 9.089844 38.230469 C 9.183594 38.265625 9.277344 38.28125 9.371094 38.28125 C 9.546875 38.28125 9.71875 38.222656 9.859375 38.109375 L 11.359375 36.914062 C 13.417969 38.78125 15.871094 40.234375 18.5 41.125 Z M 9.933594 36.050781 L 9.578125 33.839844 L 11.710938 34.628906 Z M 9.933594 36.050781 "/>
<path style=" stroke:none;fill-rule:nonzero;fill:rgb(0%,0%,0%);fill-opacity:1;" d="M 43 16.605469 C 43.496094 18.3125 43.75 20.082031 43.75 21.875 C 43.75 24.773438 43.109375 27.546875 41.839844 30.125 L 43.242188 30.8125 C 44.617188 28.019531 45.3125 25.015625 45.3125 21.875 C 45.3125 19.933594 45.039062 18.015625 44.5 16.167969 Z M 43 16.605469 "/>
<path style=" stroke:none;fill-rule:nonzero;fill:rgb(0%,0%,0%);fill-opacity:1;" d="M 16 5.421875 C 18.742188 3.917969 21.851562 3.125 25 3.125 C 28.113281 3.125 31.195312 3.902344 33.914062 5.375 L 34.660156 4 C 31.710938 2.40625 28.371094 1.5625 25 1.5625 C 21.589844 1.5625 18.21875 2.421875 15.25 4.050781 Z M 16 5.421875 "/>
<path style=" stroke:none;fill-rule:nonzero;fill:rgb(0%,0%,0%);fill-opacity:1;" d="M 6.25 21.875 C 6.25 20.082031 6.503906 18.3125 7 16.605469 L 5.5 16.167969 C 4.960938 18.015625 4.6875 19.933594 4.6875 21.875 C 4.6875 25.015625 5.382812 28.019531 6.757812 30.8125 L 8.160156 30.125 C 6.890625 27.546875 6.25 24.773438 6.25 21.875 Z M 6.25 21.875 "/>
<path style=" stroke:none;fill-rule:nonzero;fill:rgb(0%,0%,0%);fill-opacity:1;" d="M 41.132812 31.910156 L 36.449219 33.644531 C 36.183594 33.742188 35.992188 33.972656 35.945312 34.25 C 35.902344 34.527344 36.011719 34.808594 36.230469 34.984375 L 37.40625 35.925781 C 35.542969 37.570312 33.347656 38.851562 31 39.644531 L 31.5 41.125 C 34.128906 40.238281 36.582031 38.785156 38.640625 36.914062 L 40.136719 38.109375 C 40.277344 38.222656 40.449219 38.28125 40.625 38.28125 C 40.71875 38.28125 40.816406 38.265625 40.90625 38.230469 C 41.164062 38.128906 41.351562 37.898438 41.394531 37.625 L 42.175781 32.765625 C 42.21875 32.492188 42.113281 32.214844 41.898438 32.039062 C 41.683594 31.863281 41.394531 31.8125 41.132812 31.910156 Z M 40.066406 36.050781 L 38.285156 34.628906 L 40.421875 33.839844 Z M 40.066406 36.050781 "/>
</g>
</svg>
