<?xml version="1.0" encoding="UTF-8"?>
<svg xmlns="http://www.w3.org/2000/svg" xmlns:xlink="http://www.w3.org/1999/xlink" width="45px" height="45px" viewBox="0 0 45 45" version="1.1">
<g id="surface1">
<path style=" stroke:none;fill-rule:nonzero;fill:rgb(0%,0%,0%);fill-opacity:1;" d="M 42.140625 33.882812 C 41.347656 32.71875 40.007812 32.433594 38.554688 33.117188 L 28.410156 37.585938 L 28.410156 37.554688 C 28.410156 37.53125 28.410156 37.503906 28.40625 37.480469 C 28.230469 35.695312 26.867188 34.273438 25.089844 34.023438 C 25.085938 34.023438 25.078125 34.023438 25.074219 34.019531 L 18.332031 33.246094 C 16.90625 33.042969 16.207031 32.566406 14.886719 31.792969 C 12.933594 30.652344 10.703125 30.046875 8.441406 30.046875 L 8.023438 30.046875 L 8.023438 29.363281 C 8.023438 28.359375 7.203125 27.542969 6.199219 27.542969 L 4.226562 27.542969 C 3.222656 27.542969 2.40625 28.359375 2.40625 29.363281 L 2.40625 41.972656 C 2.40625 42.976562 3.222656 43.796875 4.226562 43.796875 L 6.199219 43.796875 C 7.167969 43.796875 7.960938 43.035156 8.015625 42.078125 L 14.617188 44.535156 C 15.441406 44.84375 16.308594 45 17.191406 45 L 26.285156 45 C 27.679688 45 29.039062 44.605469 30.21875 43.863281 L 41.59375 37.445312 C 42.390625 36.996094 43.085938 35.273438 42.140625 33.882812 Z M 40.878906 36.335938 L 29.554688 42.722656 C 29.546875 42.730469 29.535156 42.734375 29.527344 42.742188 C 28.554688 43.355469 27.433594 43.679688 26.285156 43.679688 L 17.191406 43.679688 C 16.464844 43.679688 15.753906 43.554688 15.078125 43.300781 L 8.023438 40.675781 L 8.023438 35.894531 C 8.023438 35.527344 7.726562 35.234375 7.363281 35.234375 C 7 35.234375 6.703125 35.527344 6.703125 35.894531 L 6.703125 41.972656 C 6.703125 42.25 6.476562 42.476562 6.199219 42.476562 L 4.226562 42.476562 C 3.949219 42.476562 3.722656 42.25 3.722656 41.972656 L 3.722656 29.363281 C 3.722656 29.085938 3.949219 28.863281 4.226562 28.863281 L 6.199219 28.863281 C 6.476562 28.863281 6.703125 29.085938 6.703125 29.363281 L 6.703125 32.808594 C 6.703125 33.175781 7 33.46875 7.363281 33.46875 C 7.726562 33.46875 8.023438 33.175781 8.023438 32.808594 L 8.023438 31.367188 L 8.441406 31.367188 C 10.472656 31.367188 12.46875 31.90625 14.21875 32.929688 C 15.621094 33.75 16.46875 34.3125 18.15625 34.550781 C 18.160156 34.550781 18.164062 34.554688 18.171875 34.554688 L 24.914062 35.332031 C 26.070312 35.496094 26.960938 36.417969 27.09375 37.578125 L 27.085938 37.941406 C 23.171875 37.894531 21.679688 38.074219 19.171875 37.707031 L 18.003906 37.535156 C 17.644531 37.484375 17.308594 37.734375 17.257812 38.09375 C 17.207031 38.453125 17.453125 38.789062 17.816406 38.839844 L 18.980469 39.011719 C 21.644531 39.398438 23.179688 39.210938 27.738281 39.261719 C 27.828125 39.261719 27.925781 39.238281 28.003906 39.203125 L 39.09375 34.320312 C 39.097656 34.320312 39.101562 34.316406 39.109375 34.316406 C 39.707031 34.03125 40.527344 33.855469 41.050781 34.625 C 41.414062 35.160156 41.339844 35.886719 40.878906 36.335938 Z M 40.878906 36.335938 "/>
<path style=" stroke:none;fill-rule:nonzero;fill:rgb(0%,0%,0%);fill-opacity:1;" d="M 10.566406 15.25 C 11.101562 15.679688 11.292969 16.394531 11.046875 17.03125 C 10.378906 18.75 11.472656 20.636719 13.289062 20.917969 C 13.734375 20.988281 14.109375 21.238281 14.347656 21.59375 L 11.261719 27.578125 C 11.074219 27.9375 11.113281 28.359375 11.363281 28.679688 C 11.613281 28.996094 12.011719 29.136719 12.40625 29.046875 L 15.773438 28.253906 L 17.078125 31.453125 C 17.230469 31.828125 17.578125 32.074219 17.980469 32.089844 C 17.996094 32.089844 18.011719 32.09375 18.027344 32.09375 C 18.414062 32.09375 18.757812 31.882812 18.933594 31.539062 L 21.824219 25.9375 C 22.273438 26.042969 22.730469 26.042969 23.179688 25.9375 L 26.070312 31.539062 C 26.246094 31.882812 26.589844 32.09375 26.976562 32.09375 C 26.992188 32.09375 27.007812 32.089844 27.023438 32.089844 C 27.429688 32.074219 27.773438 31.828125 27.925781 31.453125 L 29.230469 28.253906 L 32.597656 29.046875 C 32.992188 29.136719 33.390625 28.996094 33.640625 28.679688 C 33.890625 28.359375 33.929688 27.9375 33.742188 27.578125 L 30.65625 21.59375 C 30.894531 21.238281 31.273438 20.988281 31.714844 20.917969 C 33.535156 20.636719 34.621094 18.746094 33.960938 17.03125 C 33.710938 16.394531 33.90625 15.679688 34.4375 15.25 C 35.867188 14.097656 35.867188 11.917969 34.4375 10.765625 C 33.90625 10.335938 33.710938 9.621094 33.960938 8.984375 C 34.625 7.269531 33.53125 5.378906 31.714844 5.097656 C 31.039062 4.992188 30.515625 4.46875 30.414062 3.792969 C 30.128906 1.976562 28.238281 0.886719 26.527344 1.550781 C 25.890625 1.796875 25.175781 1.605469 24.746094 1.074219 C 23.589844 -0.359375 21.410156 -0.355469 20.257812 1.074219 C 19.832031 1.605469 19.113281 1.796875 18.476562 1.550781 C 16.761719 0.886719 14.875 1.980469 14.59375 3.792969 C 14.488281 4.46875 13.964844 4.992188 13.289062 5.097656 C 11.46875 5.378906 10.382812 7.269531 11.046875 8.984375 C 11.292969 9.621094 11.101562 10.335938 10.566406 10.765625 C 9.132812 11.917969 9.136719 14.101562 10.566406 15.25 Z M 18.058594 30.363281 L 16.898438 27.519531 C 16.707031 27.050781 16.207031 26.792969 15.714844 26.910156 L 12.726562 27.613281 L 14.96875 23.265625 C 15.675781 24.441406 17.148438 24.980469 18.476562 24.464844 C 19.113281 24.21875 19.832031 24.410156 20.257812 24.941406 C 20.375 25.089844 20.507812 25.222656 20.648438 25.339844 Z M 29.289062 26.910156 C 28.796875 26.796875 28.296875 27.050781 28.105469 27.519531 L 26.945312 30.363281 L 24.355469 25.339844 C 24.496094 25.222656 24.628906 25.089844 24.746094 24.941406 C 25.171875 24.410156 25.890625 24.21875 26.527344 24.464844 C 27.855469 24.980469 29.328125 24.441406 30.035156 23.265625 L 32.277344 27.613281 Z M 11.394531 11.792969 C 12.375 11.003906 12.730469 9.683594 12.273438 8.507812 C 11.914062 7.578125 12.507812 6.554688 13.492188 6.402344 C 14.734375 6.207031 15.703125 5.242188 15.894531 3.996094 C 16.046875 3.011719 17.074219 2.421875 18 2.78125 C 19.175781 3.234375 20.496094 2.882812 21.285156 1.902344 C 21.910156 1.125 23.09375 1.125 23.71875 1.902344 C 24.507812 2.882812 25.828125 3.234375 27.003906 2.78125 C 27.933594 2.421875 28.957031 3.011719 29.109375 3.996094 C 29.300781 5.242188 30.269531 6.207031 31.511719 6.402344 C 32.5 6.554688 33.089844 7.578125 32.730469 8.507812 C 32.273438 9.683594 32.628906 11.003906 33.609375 11.792969 C 34.386719 12.417969 34.386719 13.601562 33.609375 14.226562 C 32.628906 15.015625 32.273438 16.332031 32.730469 17.507812 C 33.089844 18.4375 32.496094 19.460938 31.511719 19.617188 C 30.269531 19.808594 29.300781 20.773438 29.109375 22.019531 C 28.957031 23.003906 27.933594 23.597656 27.003906 23.234375 C 25.828125 22.78125 24.507812 23.132812 23.71875 24.117188 C 23.09375 24.894531 21.910156 24.890625 21.285156 24.117188 C 20.496094 23.136719 19.179688 22.78125 18 23.234375 C 17.070312 23.597656 16.046875 23.003906 15.894531 22.019531 C 15.703125 20.773438 14.734375 19.808594 13.492188 19.617188 C 12.503906 19.460938 11.914062 18.4375 12.273438 17.507812 C 12.730469 16.332031 12.375 15.015625 11.394531 14.226562 C 10.617188 13.597656 10.617188 12.417969 11.394531 11.792969 Z M 11.394531 11.792969 "/>
<path style=" stroke:none;fill-rule:nonzero;fill:rgb(0%,0%,0%);fill-opacity:1;" d="M 14.195312 13.902344 C 13.835938 13.96875 13.601562 14.3125 13.667969 14.671875 C 14.460938 18.914062 18.175781 21.996094 22.5 21.996094 C 27.457031 21.996094 31.488281 17.964844 31.488281 13.007812 C 31.488281 8.050781 27.457031 4.019531 22.5 4.019531 C 18.175781 4.019531 14.460938 7.101562 13.667969 11.34375 C 13.601562 11.703125 13.835938 12.046875 14.195312 12.113281 C 14.550781 12.179688 14.898438 11.945312 14.964844 11.585938 C 15.640625 7.964844 18.8125 5.339844 22.5 5.339844 C 26.730469 5.339844 30.171875 8.777344 30.171875 13.007812 C 30.171875 17.238281 26.730469 20.679688 22.5 20.679688 C 18.8125 20.679688 15.640625 18.050781 14.964844 14.429688 C 14.898438 14.070312 14.550781 13.835938 14.195312 13.902344 Z M 14.195312 13.902344 "/>
<path style=" stroke:none;fill-rule:nonzero;fill:rgb(0%,0%,0%);fill-opacity:1;" d="M 27.355469 10.558594 L 24.425781 10.429688 L 23.394531 7.679688 C 23.085938 6.855469 21.917969 6.855469 21.609375 7.679688 L 20.578125 10.429688 L 17.648438 10.558594 C 16.769531 10.597656 16.40625 11.707031 17.097656 12.253906 L 19.390625 14.085938 L 18.609375 16.914062 C 18.375 17.761719 19.320312 18.445312 20.054688 17.960938 L 22.5 16.34375 L 24.949219 17.960938 C 25.683594 18.445312 26.628906 17.765625 26.394531 16.914062 L 25.613281 14.085938 L 27.90625 12.253906 C 28.597656 11.707031 28.234375 10.597656 27.355469 10.558594 Z M 24.601562 13.203125 C 24.300781 13.441406 24.175781 13.835938 24.277344 14.203125 L 24.863281 16.324219 L 23.027344 15.109375 C 22.867188 15.003906 22.683594 14.953125 22.5 14.953125 C 22.320312 14.953125 22.136719 15.003906 21.976562 15.109375 L 20.140625 16.324219 L 20.726562 14.203125 C 20.828125 13.835938 20.703125 13.441406 20.402344 13.203125 L 18.679688 11.832031 L 20.878906 11.734375 C 21.261719 11.71875 21.59375 11.476562 21.730469 11.117188 L 22.5 9.054688 L 23.273438 11.117188 C 23.40625 11.476562 23.742188 11.71875 24.125 11.734375 L 26.324219 11.832031 Z M 24.601562 13.203125 "/>
</g>
</svg>
