<?xml version="1.0" encoding="UTF-8"?>
<svg xmlns="http://www.w3.org/2000/svg" xmlns:xlink="http://www.w3.org/1999/xlink" width="50px" height="50px" viewBox="0 0 50 50" version="1.1">
<g id="surface1">
<path style=" stroke:none;fill-rule:nonzero;fill:rgb(0%,0%,0%);fill-opacity:1;" d="M 13.171875 10.472656 C 16.0625 10.472656 18.40625 8.125 18.40625 5.234375 C 18.40625 2.347656 16.058594 0 13.171875 0 C 10.289062 0 7.941406 2.351562 7.941406 5.234375 C 7.941406 8.125 10.289062 10.472656 13.171875 10.472656 Z M 13.171875 1.5625 C 15.199219 1.5625 16.847656 3.210938 16.847656 5.234375 C 16.847656 7.261719 15.199219 8.910156 13.171875 8.910156 C 11.148438 8.910156 9.5 7.261719 9.5 5.234375 C 9.5 3.210938 11.148438 1.5625 13.171875 1.5625 Z M 39.535156 11.226562 L 34.117188 11.226562 C 32.125 11.226562 30.253906 12.054688 28.910156 13.515625 C 28.519531 13.449219 28.117188 13.414062 27.707031 13.414062 L 22.292969 13.414062 C 21.882812 13.414062 21.484375 13.449219 21.089844 13.515625 C 19.75 12.054688 17.875 11.226562 15.882812 11.226562 L 10.46875 11.226562 C 6.558594 11.226562 3.375 14.40625 3.375 18.316406 L 3.375 22.035156 C 3.375 23.894531 4.886719 25.40625 6.746094 25.40625 L 8.9375 25.40625 C 7.367188 29.375 8.726562 33.96875 12.269531 36.433594 L 11.492188 37.78125 C 11.160156 37.65625 10.800781 37.636719 10.449219 37.726562 C 10.011719 37.84375 9.644531 38.125 9.421875 38.515625 L 4.703125 46.6875 C 4.410156 47.195312 4.332031 47.792969 4.484375 48.363281 C 4.636719 48.933594 5.003906 49.410156 5.511719 49.703125 C 5.851562 49.898438 6.230469 50 6.613281 50 C 6.804688 50 7 49.976562 7.191406 49.921875 C 7.761719 49.769531 8.238281 49.40625 8.53125 48.894531 L 13.25 40.726562 C 13.472656 40.332031 13.535156 39.875 13.414062 39.4375 C 13.320312 39.089844 13.121094 38.785156 12.847656 38.5625 L 13.625 37.214844 C 14.886719 37.808594 16.230469 38.097656 17.558594 38.097656 C 20.769531 38.097656 23.898438 36.429688 25.617188 33.457031 C 26.65625 31.660156 27.054688 29.617188 26.78125 27.59375 L 31.429688 27.59375 C 32.871094 27.59375 34.105469 26.683594 34.585938 25.410156 L 43.253906 25.410156 C 45.113281 25.410156 46.628906 23.894531 46.628906 22.035156 L 46.628906 18.316406 C 46.625 14.40625 43.445312 11.226562 39.535156 11.226562 Z M 4.9375 22.035156 L 4.9375 18.316406 C 4.9375 15.265625 7.417969 12.785156 10.46875 12.785156 L 15.882812 12.785156 C 17.175781 12.785156 18.402344 13.234375 19.382812 14.042969 C 17.121094 15.070312 15.484375 17.25 15.238281 19.824219 C 15.214844 19.832031 15.195312 19.835938 15.171875 19.84375 C 12.898438 20.453125 10.980469 21.867188 9.730469 23.84375 L 6.746094 23.84375 C 5.75 23.84375 4.9375 23.035156 4.9375 22.035156 Z M 11.894531 39.945312 L 7.179688 48.117188 C 7.09375 48.265625 6.953125 48.371094 6.785156 48.414062 C 6.617188 48.460938 6.441406 48.4375 6.292969 48.351562 C 6.144531 48.265625 6.039062 48.125 5.992188 47.960938 C 5.949219 47.792969 5.96875 47.617188 6.054688 47.46875 L 10.773438 39.296875 C 10.796875 39.257812 10.832031 39.242188 10.855469 39.238281 C 10.867188 39.234375 10.878906 39.230469 10.890625 39.230469 C 10.910156 39.230469 10.933594 39.234375 10.957031 39.25 L 11.84375 39.761719 C 11.882812 39.785156 11.902344 39.820312 11.90625 39.84375 C 11.914062 39.871094 11.917969 39.90625 11.894531 39.945312 Z M 24.261719 32.675781 C 22.140625 36.351562 17.421875 37.625 13.738281 35.515625 C 13.730469 35.511719 13.71875 35.503906 13.710938 35.5 C 13.703125 35.492188 13.691406 35.492188 13.683594 35.484375 C 10.015625 33.34375 8.761719 28.628906 10.886719 24.949219 C 11.917969 23.164062 13.582031 21.886719 15.574219 21.351562 C 15.757812 21.300781 15.941406 21.261719 16.125 21.226562 C 16.132812 21.222656 16.140625 21.222656 16.148438 21.222656 C 16.625 21.128906 17.105469 21.085938 17.585938 21.085938 C 18.925781 21.085938 20.246094 21.433594 21.4375 22.121094 C 23.222656 23.152344 24.5 24.820312 25.035156 26.8125 C 25.570312 28.804688 25.296875 30.886719 24.261719 32.675781 Z M 31.429688 26.035156 L 26.433594 26.035156 C 25.738281 23.804688 24.253906 21.945312 22.21875 20.769531 C 20.566406 19.820312 18.707031 19.40625 16.847656 19.554688 C 17.300781 16.960938 19.574219 14.976562 22.292969 14.976562 L 27.707031 14.976562 C 30.757812 14.976562 33.238281 17.457031 33.238281 20.507812 L 33.238281 24.222656 C 33.238281 25.21875 32.425781 26.035156 31.425781 26.035156 Z M 45.0625 22.035156 C 45.0625 23.035156 44.25 23.847656 43.253906 23.847656 L 34.800781 23.847656 L 34.800781 20.503906 C 34.800781 17.632812 33.082031 15.15625 30.621094 14.042969 C 31.601562 13.234375 32.828125 12.789062 34.117188 12.789062 L 39.535156 12.789062 C 42.582031 12.789062 45.0625 15.265625 45.0625 18.316406 Z M 36.828125 10.472656 C 39.714844 10.472656 42.0625 8.125 42.0625 5.234375 C 42.0625 2.347656 39.714844 0 36.828125 0 C 33.9375 0 31.589844 2.351562 31.589844 5.234375 C 31.589844 8.125 33.9375 10.472656 36.828125 10.472656 Z M 36.828125 1.5625 C 38.851562 1.5625 40.5 3.210938 40.5 5.234375 C 40.5 7.261719 38.851562 8.910156 36.828125 8.910156 C 34.800781 8.910156 33.152344 7.261719 33.152344 5.234375 C 33.152344 3.210938 34.800781 1.5625 36.828125 1.5625 Z M 25 12.660156 C 27.886719 12.660156 30.234375 10.3125 30.234375 7.425781 C 30.234375 4.539062 27.886719 2.191406 25 2.191406 C 22.113281 2.191406 19.765625 4.539062 19.765625 7.425781 C 19.765625 10.3125 22.113281 12.660156 25 12.660156 Z M 25 3.753906 C 27.023438 3.753906 28.671875 5.398438 28.671875 7.425781 C 28.671875 9.453125 27.027344 11.101562 25 11.101562 C 22.972656 11.101562 21.328125 9.453125 21.328125 7.425781 C 21.328125 5.398438 22.976562 3.753906 25 3.753906 Z M 22.082031 25.964844 C 22.386719 26.269531 22.386719 26.765625 22.082031 27.070312 L 17.492188 31.660156 C 17.339844 31.8125 17.136719 31.886719 16.9375 31.886719 C 16.738281 31.886719 16.539062 31.8125 16.386719 31.660156 L 13.066406 28.339844 C 12.761719 28.035156 12.761719 27.539062 13.066406 27.234375 C 13.371094 26.929688 13.867188 26.929688 14.171875 27.234375 L 16.9375 30.003906 L 20.976562 25.964844 C 21.28125 25.660156 21.773438 25.660156 22.082031 25.964844 Z M 22.082031 25.964844 "/>
</g>
</svg>
