<?xml version="1.0" encoding="UTF-8"?>
<svg xmlns="http://www.w3.org/2000/svg" xmlns:xlink="http://www.w3.org/1999/xlink" width="70px" height="70px" viewBox="0 0 70 70" version="1.1">
<g id="surface1">
<path style=" stroke:none;fill-rule:nonzero;fill:rgb(0%,0%,0%);fill-opacity:1;" d="M 67.613281 18.472656 C 66.445312 17.722656 65.050781 17.472656 63.695312 17.765625 C 62.339844 18.0625 61.175781 18.867188 60.425781 20.035156 L 59.304688 21.78125 L 52.765625 31.949219 L 52.765625 1.367188 C 52.765625 0.613281 52.15625 0 51.398438 0 L 1.367188 0 C 0.613281 0 0 0.613281 0 1.367188 L 0 50.800781 C 0 51.554688 0.613281 52.167969 1.367188 52.167969 C 2.125 52.167969 2.734375 51.554688 2.734375 50.800781 L 2.734375 2.734375 L 50.03125 2.734375 L 50.03125 36.203125 L 41.769531 49.058594 C 41.675781 49.203125 41.609375 49.371094 41.578125 49.539062 L 40.527344 54.945312 C 39.988281 54.75 39.371094 54.695312 38.71875 54.816406 C 37.746094 55 36.835938 55.453125 36.039062 56.058594 C 36.007812 55.597656 35.964844 55.136719 35.910156 54.640625 C 35.761719 53.25 35.148438 52.117188 34.1875 51.460938 C 32.1875 50.085938 29.765625 51.703125 28.96875 52.230469 C 26.390625 53.949219 24.179688 56.390625 22.566406 59.285156 C 22.199219 59.945312 22.4375 60.777344 23.097656 61.144531 C 23.308594 61.261719 23.535156 61.316406 23.761719 61.316406 C 24.242188 61.316406 24.707031 61.0625 24.957031 60.613281 C 26.355469 58.097656 28.269531 55.984375 30.484375 54.507812 C 32.042969 53.46875 32.527344 53.636719 32.640625 53.714844 C 33.050781 53.996094 33.164062 54.660156 33.191406 54.933594 C 33.371094 56.558594 33.417969 57.703125 33.214844 59.816406 C 33.152344 60.476562 33.570312 61.089844 34.210938 61.265625 C 34.847656 61.445312 35.523438 61.136719 35.808594 60.539062 C 36.433594 59.230469 37.808594 57.769531 39.222656 57.503906 C 39.503906 57.453125 39.660156 57.503906 39.691406 57.65625 C 39.730469 57.898438 39.691406 58.824219 39.609375 59.683594 C 39.382812 60.933594 40.863281 61.804688 41.828125 61 L 50.035156 55.148438 L 50.035156 67.265625 L 2.734375 67.265625 L 2.734375 62.832031 C 2.734375 62.074219 2.125 61.464844 1.367188 61.464844 C 0.613281 61.464844 0 62.074219 0 62.832031 L 0 68.632812 C 0 69.386719 0.613281 70 1.367188 70 L 51.398438 70 C 52.15625 70 52.765625 69.386719 52.765625 68.632812 L 52.765625 51.183594 L 68.054688 27.402344 L 69.175781 25.660156 C 70.726562 23.246094 70.023438 20.023438 67.613281 18.472656 Z M 62.726562 21.515625 C 63.453125 20.382812 65.003906 20.046875 66.132812 20.773438 C 67.277344 21.507812 67.609375 23.039062 66.875 24.179688 L 66.492188 24.777344 L 62.34375 22.109375 Z M 42.945312 56.847656 L 43.796875 52.460938 L 43.878906 52.039062 L 45.40625 53.019531 L 46.929688 54.003906 L 45.5625 54.976562 Z M 50.253906 50.039062 C 50.25 50.039062 50.25 50.042969 50.25 50.042969 L 48.957031 52.054688 L 44.808594 49.386719 L 52.550781 37.34375 C 52.550781 37.34375 52.550781 37.339844 52.554688 37.339844 L 60.867188 24.410156 L 65.015625 27.074219 Z M 50.253906 50.039062 "/>
<path style=" stroke:none;fill-rule:nonzero;fill:rgb(0%,0%,0%);fill-opacity:1;" d="M 25.667969 6.417969 L 10.457031 6.417969 C 9.699219 6.417969 9.089844 7.027344 9.089844 7.785156 L 9.089844 25.054688 C 9.089844 25.808594 9.699219 26.421875 10.457031 26.421875 L 25.667969 26.421875 C 26.425781 26.421875 27.035156 25.808594 27.035156 25.054688 L 27.035156 7.785156 C 27.035156 7.027344 26.425781 6.417969 25.667969 6.417969 Z M 24.300781 9.152344 L 24.300781 18.9375 C 23.546875 18.339844 22.714844 17.921875 21.914062 17.632812 C 22.394531 16.90625 22.675781 16.035156 22.675781 15.097656 C 22.675781 12.554688 20.605469 10.484375 18.0625 10.484375 C 15.519531 10.484375 13.449219 12.554688 13.449219 15.097656 C 13.449219 16.03125 13.730469 16.902344 14.210938 17.632812 C 13.40625 17.921875 12.578125 18.335938 11.824219 18.933594 L 11.824219 9.152344 Z M 18.0625 16.976562 C 18.058594 16.976562 18.054688 16.976562 18.050781 16.976562 C 17.019531 16.96875 16.183594 16.128906 16.183594 15.097656 C 16.183594 14.0625 17.027344 13.21875 18.0625 13.21875 C 19.097656 13.21875 19.941406 14.0625 19.941406 15.097656 C 19.941406 16.128906 19.105469 16.96875 18.074219 16.976562 C 18.070312 16.976562 18.066406 16.976562 18.0625 16.976562 Z M 11.949219 23.6875 C 12.140625 22.746094 12.550781 21.984375 13.179688 21.371094 C 14.957031 19.648438 17.953125 19.707031 18.015625 19.710938 C 18.019531 19.710938 18.023438 19.710938 18.03125 19.710938 C 18.039062 19.710938 18.050781 19.710938 18.0625 19.710938 C 18.074219 19.710938 18.085938 19.710938 18.097656 19.710938 C 18.101562 19.710938 18.105469 19.710938 18.113281 19.710938 C 18.140625 19.710938 21.15625 19.648438 22.9375 21.367188 C 23.570312 21.980469 23.980469 22.746094 24.171875 23.6875 Z M 11.949219 23.6875 "/>
<path style=" stroke:none;fill-rule:nonzero;fill:rgb(0%,0%,0%);fill-opacity:1;" d="M 33.480469 11.871094 L 43.511719 11.871094 C 44.265625 11.871094 44.878906 11.257812 44.878906 10.503906 C 44.878906 9.746094 44.265625 9.136719 43.511719 9.136719 L 33.480469 9.136719 C 32.726562 9.136719 32.113281 9.746094 32.113281 10.503906 C 32.113281 11.257812 32.726562 11.871094 33.480469 11.871094 Z M 33.480469 11.871094 "/>
<path style=" stroke:none;fill-rule:nonzero;fill:rgb(0%,0%,0%);fill-opacity:1;" d="M 33.480469 17.878906 L 43.511719 17.878906 C 44.265625 17.878906 44.878906 17.265625 44.878906 16.511719 C 44.878906 15.757812 44.265625 15.144531 43.511719 15.144531 L 33.480469 15.144531 C 32.726562 15.144531 32.113281 15.757812 32.113281 16.511719 C 32.113281 17.265625 32.726562 17.878906 33.480469 17.878906 Z M 33.480469 17.878906 "/>
<path style=" stroke:none;fill-rule:nonzero;fill:rgb(0%,0%,0%);fill-opacity:1;" d="M 33.480469 23.886719 L 43.511719 23.886719 C 44.265625 23.886719 44.878906 23.273438 44.878906 22.519531 C 44.878906 21.765625 44.265625 21.152344 43.511719 21.152344 L 33.480469 21.152344 C 32.726562 21.152344 32.113281 21.765625 32.113281 22.519531 C 32.113281 23.273438 32.726562 23.886719 33.480469 23.886719 Z M 33.480469 23.886719 "/>
<path style=" stroke:none;fill-rule:nonzero;fill:rgb(0%,0%,0%);fill-opacity:1;" d="M 9.347656 31.484375 L 9.347656 38.214844 C 9.347656 38.96875 9.960938 39.582031 10.714844 39.582031 L 43.511719 39.582031 C 44.265625 39.582031 44.878906 38.96875 44.878906 38.214844 L 44.878906 31.484375 C 44.878906 30.730469 44.265625 30.117188 43.511719 30.117188 L 10.714844 30.117188 C 9.960938 30.117188 9.347656 30.730469 9.347656 31.484375 Z M 12.082031 32.851562 L 42.144531 32.851562 L 42.144531 36.847656 L 12.082031 36.847656 Z M 12.082031 32.851562 "/>
<path style=" stroke:none;fill-rule:nonzero;fill:rgb(0%,0%,0%);fill-opacity:1;" d="M 31.421875 44.953125 C 31.421875 44.199219 30.808594 43.585938 30.054688 43.585938 L 11.195312 43.585938 C 10.441406 43.585938 9.828125 44.199219 9.828125 44.953125 C 9.828125 45.710938 10.441406 46.320312 11.195312 46.320312 L 30.054688 46.320312 C 30.808594 46.320312 31.421875 45.710938 31.421875 44.953125 Z M 31.421875 44.953125 "/>
<path style=" stroke:none;fill-rule:nonzero;fill:rgb(0%,0%,0%);fill-opacity:1;" d="M 11.195312 49.316406 C 10.441406 49.316406 9.828125 49.929688 9.828125 50.683594 C 9.828125 51.441406 10.441406 52.050781 11.195312 52.050781 L 20.074219 52.050781 C 20.832031 52.050781 21.441406 51.441406 21.441406 50.683594 C 21.441406 49.929688 20.832031 49.316406 20.074219 49.316406 Z M 11.195312 49.316406 "/>
<path style=" stroke:none;fill-rule:nonzero;fill:rgb(0%,0%,0%);fill-opacity:1;" d="M 0.230469 57.628906 C 0.644531 58.25 1.507812 58.417969 2.125 58.007812 C 2.75 57.59375 2.914062 56.730469 2.503906 56.109375 C 2.09375 55.492188 1.226562 55.320312 0.609375 55.734375 C -0.015625 56.148438 -0.175781 57.007812 0.230469 57.628906 Z M 0.230469 57.628906 "/>
</g>
</svg>
