<?xml version="1.0" encoding="UTF-8"?>
<svg xmlns="http://www.w3.org/2000/svg" xmlns:xlink="http://www.w3.org/1999/xlink" width="50px" height="50px" viewBox="0 0 50 50" version="1.1">
<g id="surface1">
<path style=" stroke:none;fill-rule:nonzero;fill:rgb(0%,0%,0%);fill-opacity:1;" d="M 41.25 3.332031 L 11.25 3.332031 C 10.789062 3.332031 10.417969 3.707031 10.417969 4.167969 L 10.417969 40.832031 L 5.417969 40.832031 C 4.957031 40.832031 4.582031 41.207031 4.582031 41.667969 L 4.582031 43.332031 C 4.582031 45.175781 6.074219 46.667969 7.917969 46.667969 L 38.75 46.667969 C 40.589844 46.667969 42.082031 45.175781 42.082031 43.332031 L 42.082031 4.167969 C 42.082031 3.707031 41.710938 3.332031 41.25 3.332031 Z M 7.917969 45 C 6.996094 45 6.25 44.253906 6.25 43.332031 L 6.25 42.5 L 35.417969 42.5 L 35.417969 43.332031 C 35.414062 43.917969 35.570312 44.492188 35.863281 45 Z M 40.417969 43.332031 C 40.417969 44.253906 39.671875 45 38.75 45 C 37.828125 45 37.082031 44.253906 37.082031 43.332031 L 37.082031 41.667969 C 37.082031 41.207031 36.710938 40.832031 36.25 40.832031 L 12.082031 40.832031 L 12.082031 5 L 40.417969 5 Z M 40.417969 43.332031 "/>
<path style=" stroke:none;fill-rule:nonzero;fill:rgb(0%,0%,0%);fill-opacity:1;" d="M 10.417969 0 C 8.574219 0 7.082031 1.492188 7.082031 3.332031 L 7.082031 6.667969 L 8.75 6.667969 L 8.75 3.332031 C 8.75 2.414062 9.496094 1.667969 10.417969 1.667969 L 19.582031 1.667969 L 19.582031 0 Z M 10.417969 0 "/>
<path style=" stroke:none;fill-rule:nonzero;fill:rgb(0%,0%,0%);fill-opacity:1;" d="M 21.25 0 L 22.917969 0 L 22.917969 1.667969 L 21.25 1.667969 Z M 21.25 0 "/>
<path style=" stroke:none;fill-rule:nonzero;fill:rgb(0%,0%,0%);fill-opacity:1;" d="M 43.75 31.667969 L 43.75 44.167969 C 43.746094 46.464844 41.882812 48.332031 39.582031 48.332031 L 35.417969 48.332031 L 35.417969 50 L 39.582031 50 C 42.804688 49.996094 45.414062 47.386719 45.417969 44.167969 L 45.417969 31.667969 Z M 43.75 31.667969 "/>
<path style=" stroke:none;fill-rule:nonzero;fill:rgb(0%,0%,0%);fill-opacity:1;" d="M 43.75 28.332031 L 45.417969 28.332031 L 45.417969 30 L 43.75 30 Z M 43.75 28.332031 "/>
<path style=" stroke:none;fill-rule:nonzero;fill:rgb(0%,0%,0%);fill-opacity:1;" d="M 32.011719 8.433594 C 30.773438 7.179688 28.753906 7.167969 27.5 8.40625 C 27.488281 8.414062 27.480469 8.425781 27.472656 8.433594 L 26.25 9.65625 L 25.027344 8.433594 C 23.785156 7.1875 21.761719 7.1875 20.515625 8.433594 C 19.273438 9.679688 19.273438 11.699219 20.515625 12.945312 L 25.660156 18.089844 C 25.816406 18.246094 26.027344 18.332031 26.25 18.332031 C 26.472656 18.332031 26.683594 18.246094 26.839844 18.089844 L 31.984375 12.945312 C 33.234375 11.707031 33.25 9.6875 32.011719 8.433594 Z M 30.804688 11.769531 L 26.25 16.320312 L 21.695312 11.769531 C 21.410156 11.484375 21.25 11.09375 21.25 10.691406 C 21.25 9.847656 21.929688 9.167969 22.773438 9.167969 C 23.175781 9.167969 23.566406 9.328125 23.851562 9.613281 L 25.660156 11.421875 C 25.984375 11.746094 26.515625 11.746094 26.839844 11.421875 L 28.648438 9.613281 C 29.246094 9.019531 30.210938 9.019531 30.804688 9.613281 C 31.089844 9.898438 31.25 10.289062 31.25 10.691406 C 31.25 11.09375 31.089844 11.484375 30.804688 11.769531 Z M 30.804688 11.769531 "/>
<path style=" stroke:none;fill-rule:nonzero;fill:rgb(0%,0%,0%);fill-opacity:1;" d="M 18.75 20 L 15.417969 20 C 14.957031 20 14.582031 20.375 14.582031 20.832031 L 14.582031 24.167969 C 14.582031 24.625 14.957031 25 15.417969 25 L 18.75 25 C 19.210938 25 19.582031 24.625 19.582031 24.167969 L 19.582031 20.832031 C 19.582031 20.375 19.210938 20 18.75 20 Z M 17.917969 23.332031 L 16.25 23.332031 L 16.25 21.667969 L 17.917969 21.667969 Z M 17.917969 23.332031 "/>
<path style=" stroke:none;fill-rule:nonzero;fill:rgb(0%,0%,0%);fill-opacity:1;" d="M 18.75 26.667969 L 15.417969 26.667969 C 14.957031 26.667969 14.582031 27.039062 14.582031 27.5 L 14.582031 30.832031 C 14.582031 31.292969 14.957031 31.667969 15.417969 31.667969 L 18.75 31.667969 C 19.210938 31.667969 19.582031 31.292969 19.582031 30.832031 L 19.582031 27.5 C 19.582031 27.039062 19.210938 26.667969 18.75 26.667969 Z M 17.917969 30 L 16.25 30 L 16.25 28.332031 L 17.917969 28.332031 Z M 17.917969 30 "/>
<path style=" stroke:none;fill-rule:nonzero;fill:rgb(0%,0%,0%);fill-opacity:1;" d="M 18.75 33.332031 L 15.417969 33.332031 C 14.957031 33.332031 14.582031 33.707031 14.582031 34.167969 L 14.582031 37.5 C 14.582031 37.960938 14.957031 38.332031 15.417969 38.332031 L 18.75 38.332031 C 19.210938 38.332031 19.582031 37.960938 19.582031 37.5 L 19.582031 34.167969 C 19.582031 33.707031 19.210938 33.332031 18.75 33.332031 Z M 17.917969 36.667969 L 16.25 36.667969 L 16.25 35 L 17.917969 35 Z M 17.917969 36.667969 "/>
<path style=" stroke:none;fill-rule:nonzero;fill:rgb(0%,0%,0%);fill-opacity:1;" d="M 22.082031 20 L 23.75 20 L 23.75 21.667969 L 22.082031 21.667969 Z M 22.082031 20 "/>
<path style=" stroke:none;fill-rule:nonzero;fill:rgb(0%,0%,0%);fill-opacity:1;" d="M 25.417969 20 L 37.917969 20 L 37.917969 21.667969 L 25.417969 21.667969 Z M 25.417969 20 "/>
<path style=" stroke:none;fill-rule:nonzero;fill:rgb(0%,0%,0%);fill-opacity:1;" d="M 22.082031 23.332031 L 34.582031 23.332031 L 34.582031 25 L 22.082031 25 Z M 22.082031 23.332031 "/>
<path style=" stroke:none;fill-rule:nonzero;fill:rgb(0%,0%,0%);fill-opacity:1;" d="M 22.082031 26.667969 L 23.75 26.667969 L 23.75 28.332031 L 22.082031 28.332031 Z M 22.082031 26.667969 "/>
<path style=" stroke:none;fill-rule:nonzero;fill:rgb(0%,0%,0%);fill-opacity:1;" d="M 25.417969 26.667969 L 37.917969 26.667969 L 37.917969 28.332031 L 25.417969 28.332031 Z M 25.417969 26.667969 "/>
<path style=" stroke:none;fill-rule:nonzero;fill:rgb(0%,0%,0%);fill-opacity:1;" d="M 22.082031 30 L 34.582031 30 L 34.582031 31.667969 L 22.082031 31.667969 Z M 22.082031 30 "/>
<path style=" stroke:none;fill-rule:nonzero;fill:rgb(0%,0%,0%);fill-opacity:1;" d="M 22.082031 33.332031 L 23.75 33.332031 L 23.75 35 L 22.082031 35 Z M 22.082031 33.332031 "/>
<path style=" stroke:none;fill-rule:nonzero;fill:rgb(0%,0%,0%);fill-opacity:1;" d="M 25.417969 33.332031 L 37.917969 33.332031 L 37.917969 35 L 25.417969 35 Z M 25.417969 33.332031 "/>
<path style=" stroke:none;fill-rule:nonzero;fill:rgb(0%,0%,0%);fill-opacity:1;" d="M 22.082031 36.667969 L 34.582031 36.667969 L 34.582031 38.332031 L 22.082031 38.332031 Z M 22.082031 36.667969 "/>
</g>
</svg>
