<?xml version="1.0" encoding="UTF-8"?>
<svg xmlns="http://www.w3.org/2000/svg" xmlns:xlink="http://www.w3.org/1999/xlink" width="50px" height="50px" viewBox="0 0 50 50" version="1.1">
<g id="surface1">
<path style=" stroke:none;fill-rule:nonzero;fill:rgb(0%,0%,0%);fill-opacity:1;" d="M 40.578125 43.546875 L 38.710938 37.945312 C 38.058594 35.992188 36.394531 34.546875 34.363281 34.179688 L 28.972656 33.199219 L 28.972656 32.78125 C 29.914062 32.234375 30.730469 31.507812 31.378906 30.644531 L 33.007812 30.644531 C 34.339844 30.644531 35.425781 29.558594 35.425781 28.226562 L 35.425781 18.546875 C 35.425781 12.769531 30.722656 8.066406 24.941406 8.066406 C 19.160156 8.066406 14.457031 12.769531 14.457031 18.546875 L 14.457031 24.195312 C 14.457031 25.75 15.5625 27.050781 17.03125 27.351562 C 17.484375 29.671875 18.929688 31.632812 20.910156 32.78125 L 20.910156 33.199219 L 15.519531 34.179688 C 13.492188 34.546875 11.828125 35.992188 11.175781 37.945312 L 10.851562 38.914062 L 8.105469 36.167969 C 7.789062 35.855469 7.789062 35.34375 8.105469 35.027344 L 11.289062 31.84375 L 5.3125 25.863281 L 1.710938 29.464844 C 0.644531 30.53125 0.0585938 31.949219 0.0585938 33.457031 C 0.0585938 34.964844 0.644531 36.378906 1.710938 37.445312 L 12.609375 48.347656 C 13.675781 49.410156 15.09375 50 16.601562 50 C 18.109375 50 19.527344 49.410156 20.570312 48.371094 L 24.496094 44.769531 L 23.273438 43.546875 Z M 33.8125 28.226562 C 33.8125 28.671875 33.453125 29.03125 33.007812 29.03125 L 32.328125 29.03125 C 32.5625 28.5 32.738281 27.9375 32.855469 27.351562 C 33.199219 27.28125 33.515625 27.144531 33.8125 26.972656 Z M 33.007812 25.582031 L 33.007812 22.804688 C 33.488281 23.085938 33.8125 23.597656 33.8125 24.195312 C 33.8125 24.789062 33.488281 25.300781 33.007812 25.582031 Z M 16.878906 25.582031 C 16.398438 25.300781 16.070312 24.789062 16.070312 24.195312 C 16.070312 23.597656 16.398438 23.085938 16.878906 22.804688 Z M 16.878906 20.160156 L 16.878906 21.082031 C 16.589844 21.15625 16.320312 21.269531 16.070312 21.417969 L 16.070312 18.546875 C 16.070312 13.65625 20.050781 9.675781 24.941406 9.675781 C 29.832031 9.675781 33.8125 13.65625 33.8125 18.546875 L 33.8125 21.417969 C 33.5625 21.269531 33.292969 21.15625 33.007812 21.082031 L 33.007812 20.160156 L 32.199219 20.160156 C 29.816406 20.160156 27.574219 19.230469 25.886719 17.546875 L 24.941406 16.601562 L 23.996094 17.546875 C 22.3125 19.230469 20.070312 20.160156 17.683594 20.160156 Z M 18.492188 25.804688 L 18.492188 21.742188 C 20.914062 21.5625 23.171875 20.5625 24.941406 18.878906 C 26.714844 20.5625 28.972656 21.5625 31.394531 21.742188 L 31.394531 25.804688 C 31.394531 26.980469 31.074219 28.082031 30.519531 29.03125 L 24.941406 29.03125 L 24.941406 30.644531 L 29.195312 30.644531 C 28.058594 31.644531 26.570312 32.257812 24.941406 32.257812 C 21.386719 32.257812 18.492188 29.363281 18.492188 25.804688 Z M 27.363281 33.5 L 27.363281 33.535156 L 24.941406 35.957031 L 22.523438 33.535156 L 22.523438 33.5 C 23.289062 33.738281 24.097656 33.871094 24.941406 33.871094 C 25.785156 33.871094 26.597656 33.738281 27.363281 33.5 Z M 12.703125 38.457031 C 13.167969 37.058594 14.359375 36.027344 15.808594 35.765625 L 21.445312 34.738281 L 24.941406 38.238281 L 28.4375 34.742188 L 34.074219 35.765625 C 35.523438 36.027344 36.714844 37.058594 37.179688 38.457031 L 38.339844 41.933594 L 21.660156 41.933594 L 18.519531 38.792969 L 15.027344 41.953125 C 14.722656 42.257812 14.191406 42.257812 13.886719 41.953125 L 12.125 40.191406 Z M 5.3125 28.144531 L 9.007812 31.84375 L 8.132812 32.71875 L 4.433594 29.019531 Z M 19.453125 47.207031 C 18.691406 47.96875 17.679688 48.386719 16.601562 48.386719 C 15.523438 48.386719 14.511719 47.96875 13.75 47.207031 L 2.851562 36.308594 C 2.089844 35.546875 1.667969 34.53125 1.667969 33.457031 C 1.667969 32.378906 2.089844 31.367188 2.851562 30.605469 L 3.292969 30.160156 L 6.992188 33.859375 L 6.964844 33.890625 C 6.019531 34.832031 6.019531 36.367188 6.964844 37.308594 L 12.746094 43.09375 C 13.203125 43.550781 13.8125 43.800781 14.457031 43.800781 C 15.105469 43.800781 15.710938 43.550781 16.140625 43.121094 L 16.199219 43.066406 L 19.914062 46.78125 Z M 21.105469 45.691406 L 17.398438 41.984375 L 18.464844 41.019531 L 22.164062 44.722656 Z M 21.105469 45.691406 "/>
<path style=" stroke:none;fill-rule:nonzero;fill:rgb(0%,0%,0%);fill-opacity:1;" d="M 47.523438 0 L 36.234375 0 C 34.898438 0 33.8125 1.085938 33.8125 2.417969 L 33.8125 8.871094 C 33.8125 10.203125 34.898438 11.289062 36.234375 11.289062 L 38.386719 11.289062 L 37.554688 16.152344 L 45.335938 11.289062 L 47.523438 11.289062 C 48.855469 11.289062 49.941406 10.203125 49.941406 8.871094 L 49.941406 2.417969 C 49.941406 1.085938 48.855469 0 47.523438 0 Z M 48.328125 8.871094 C 48.328125 9.316406 47.96875 9.675781 47.523438 9.675781 L 44.871094 9.675781 L 39.75 12.878906 L 40.300781 9.675781 L 36.234375 9.675781 C 35.789062 9.675781 35.425781 9.316406 35.425781 8.871094 L 35.425781 2.417969 C 35.425781 1.976562 35.789062 1.613281 36.234375 1.613281 L 47.523438 1.613281 C 47.96875 1.613281 48.328125 1.976562 48.328125 2.417969 Z M 48.328125 8.871094 "/>
<path style=" stroke:none;fill-rule:nonzero;fill:rgb(0%,0%,0%);fill-opacity:1;" d="M 37.039062 3.226562 L 46.714844 3.226562 L 46.714844 4.839844 L 37.039062 4.839844 Z M 37.039062 3.226562 "/>
<path style=" stroke:none;fill-rule:nonzero;fill:rgb(0%,0%,0%);fill-opacity:1;" d="M 37.039062 6.453125 L 43.492188 6.453125 L 43.492188 8.066406 L 37.039062 8.066406 Z M 37.039062 6.453125 "/>
<path style=" stroke:none;fill-rule:nonzero;fill:rgb(0%,0%,0%);fill-opacity:1;" d="M 45.105469 6.453125 L 46.714844 6.453125 L 46.714844 8.066406 L 45.105469 8.066406 Z M 45.105469 6.453125 "/>
<path style=" stroke:none;fill-rule:nonzero;fill:rgb(0%,0%,0%);fill-opacity:1;" d="M 24.941406 2.417969 C 14.40625 2.417969 5.328125 9.707031 2.96875 19.875 L 1.441406 17.328125 L 0.0585938 18.15625 L 2.890625 22.878906 L 7.617188 20.046875 L 6.785156 18.664062 L 4.601562 19.972656 C 6.886719 10.671875 15.25 4.03125 24.941406 4.03125 C 27.0625 4.03125 29.152344 4.347656 31.15625 4.96875 L 31.632812 3.425781 C 29.472656 2.757812 27.222656 2.417969 24.941406 2.417969 Z M 24.941406 2.417969 "/>
<path style=" stroke:none;fill-rule:nonzero;fill:rgb(0%,0%,0%);fill-opacity:1;" d="M 49.550781 17.855469 L 44.828125 15.023438 L 41.992188 19.746094 L 43.375 20.574219 L 44.789062 18.222656 C 45.53125 20.398438 45.910156 22.671875 45.910156 25 C 45.910156 29.796875 44.25 34.484375 41.234375 38.203125 L 42.484375 39.21875 C 45.734375 35.214844 47.523438 30.164062 47.523438 25 C 47.523438 22.53125 47.125 20.125 46.351562 17.816406 L 48.71875 19.238281 Z M 49.550781 17.855469 "/>
</g>
</svg>
