<?xml version="1.0" encoding="UTF-8"?>
<svg xmlns="http://www.w3.org/2000/svg" xmlns:xlink="http://www.w3.org/1999/xlink" width="40px" height="40px" viewBox="0 0 40 40" version="1.1">
<g id="surface1">
<path style=" stroke:none;fill-rule:evenodd;fill:rgb(0%,0%,0%);fill-opacity:1;" d="M 34.539062 25.199219 L 28.085938 30.960938 C 27.890625 31.132812 27.605469 31.148438 27.394531 30.996094 C 27.394531 30.996094 23.992188 28.511719 23.992188 28.511719 L 16.570312 32.894531 C 16.332031 33.03125 16.027344 32.976562 15.859375 32.757812 C 15.6875 32.542969 15.707031 32.230469 15.898438 32.035156 L 23.964844 23.816406 C 24.164062 23.613281 24.484375 23.597656 24.703125 23.777344 L 27.394531 25.992188 C 27.394531 25.992188 31.992188 21.914062 31.992188 21.914062 L 30.304688 20.304688 C 30.148438 20.15625 30.09375 19.929688 30.164062 19.722656 C 30.238281 19.519531 30.421875 19.378906 30.640625 19.359375 L 37.378906 18.828125 C 37.542969 18.816406 37.707031 18.878906 37.820312 18.996094 C 37.933594 19.117188 37.988281 19.28125 37.96875 19.445312 L 37.105469 26.5 C 37.082031 26.707031 36.9375 26.882812 36.742188 26.953125 C 36.542969 27.019531 36.324219 26.972656 36.175781 26.824219 Z M 34.945312 24.054688 L 36.152344 25.253906 C 36.152344 25.253906 36.796875 19.976562 36.796875 19.976562 L 31.953125 20.359375 L 33.183594 21.53125 C 33.292969 21.636719 33.355469 21.785156 33.351562 21.9375 C 33.351562 22.09375 33.285156 22.238281 33.167969 22.339844 L 27.769531 27.125 C 27.570312 27.304688 27.265625 27.308594 27.058594 27.136719 L 24.394531 24.945312 L 19.605469 29.824219 L 23.746094 27.378906 C 23.933594 27.269531 24.171875 27.28125 24.347656 27.410156 L 27.683594 29.847656 L 34.191406 24.035156 C 34.410156 23.84375 34.738281 23.851562 34.945312 24.054688 Z M 25.875 13.570312 L 21.648438 17.425781 C 21.480469 17.578125 21.242188 17.613281 21.039062 17.515625 C 20.839844 17.417969 20.714844 17.210938 20.730469 16.984375 C 20.730469 16.984375 20.953125 13.570312 20.953125 13.570312 L 20.757812 13.570312 C 19.597656 13.570312 18.664062 12.648438 18.664062 11.535156 L 18.664062 2.800781 C 18.664062 1.6875 19.597656 0.765625 20.757812 0.765625 L 37.277344 0.765625 C 38.4375 0.765625 39.371094 1.6875 39.371094 2.800781 L 39.371094 11.535156 C 39.371094 12.648438 38.4375 13.570312 37.277344 13.570312 Z M 25.664062 12.472656 L 37.277344 12.472656 C 37.820312 12.472656 38.273438 12.058594 38.273438 11.535156 L 38.273438 2.800781 C 38.273438 2.277344 37.820312 1.863281 37.277344 1.863281 L 20.757812 1.863281 C 20.214844 1.863281 19.761719 2.277344 19.761719 2.800781 L 19.761719 11.535156 C 19.761719 12.058594 20.214844 12.472656 20.757812 12.472656 L 21.539062 12.472656 C 21.691406 12.472656 21.835938 12.535156 21.9375 12.644531 C 22.042969 12.757812 22.09375 12.90625 22.085938 13.054688 C 22.085938 13.054688 21.914062 15.699219 21.914062 15.699219 L 25.292969 12.613281 C 25.394531 12.523438 25.527344 12.472656 25.664062 12.472656 Z M 29.539062 3.113281 L 30.367188 5.59375 L 33.0625 5.59375 C 33.300781 5.59375 33.511719 5.746094 33.585938 5.976562 C 33.65625 6.203125 33.574219 6.453125 33.378906 6.589844 L 31.210938 8.121094 L 32.039062 10.585938 C 32.113281 10.8125 32.035156 11.058594 31.84375 11.203125 C 31.652344 11.34375 31.394531 11.347656 31.199219 11.210938 L 29.019531 9.667969 L 26.835938 11.210938 C 26.640625 11.347656 26.382812 11.34375 26.191406 11.203125 C 26 11.058594 25.921875 10.8125 26 10.585938 L 26.824219 8.121094 L 24.660156 6.589844 C 24.464844 6.453125 24.378906 6.203125 24.453125 5.976562 C 24.523438 5.746094 24.734375 5.59375 24.976562 5.59375 L 27.667969 5.59375 L 28.496094 3.113281 C 28.574219 2.890625 28.78125 2.738281 29.019531 2.738281 C 29.253906 2.738281 29.464844 2.890625 29.539062 3.113281 Z M 29.019531 5.019531 L 28.585938 6.316406 C 28.507812 6.539062 28.300781 6.691406 28.0625 6.691406 L 26.703125 6.691406 L 27.789062 7.457031 C 27.988281 7.597656 28.070312 7.851562 27.996094 8.082031 L 27.570312 9.347656 L 28.703125 8.546875 C 28.890625 8.414062 29.144531 8.414062 29.335938 8.546875 L 30.464844 9.347656 L 30.042969 8.082031 C 29.964844 7.851562 30.046875 7.597656 30.246094 7.457031 L 31.332031 6.691406 L 29.972656 6.691406 C 29.738281 6.691406 29.527344 6.539062 29.453125 6.316406 Z M 9.742188 12.488281 C 11.757812 12.488281 13.394531 14.125 13.394531 16.144531 C 13.394531 18.160156 11.757812 19.796875 9.742188 19.796875 C 7.726562 19.796875 6.085938 18.160156 6.085938 16.144531 C 6.085938 14.125 7.726562 12.488281 9.742188 12.488281 Z M 9.742188 13.585938 C 8.332031 13.585938 7.183594 14.730469 7.183594 16.144531 C 7.183594 17.554688 8.332031 18.699219 9.742188 18.699219 C 11.152344 18.699219 12.296875 17.554688 12.296875 16.144531 C 12.296875 14.730469 11.152344 13.585938 9.742188 13.585938 Z M 9.734375 32.757812 L 8.453125 37.722656 C 8.199219 38.710938 7.246094 39.351562 6.238281 39.214844 L 5.992188 39.183594 C 5.464844 39.113281 4.984375 38.832031 4.660156 38.410156 C 4.335938 37.984375 4.195312 37.449219 4.265625 36.921875 L 5.371094 28.683594 L 5.371094 25.339844 L 3.683594 27.007812 C 2.988281 27.695312 1.867188 27.691406 1.175781 26.992188 L 1.140625 26.957031 C 0.449219 26.257812 0.457031 25.136719 1.152344 24.449219 L 4.238281 21.398438 C 5.171875 20.476562 6.429688 19.960938 7.742188 19.960938 L 13.71875 19.960938 L 17.09375 16.621094 C 17.792969 15.933594 18.914062 15.9375 19.601562 16.636719 L 19.640625 16.671875 C 20.328125 17.371094 20.324219 18.492188 19.625 19.179688 L 14.113281 24.632812 L 14.113281 28.683594 L 15.214844 36.921875 C 15.289062 37.449219 15.144531 37.984375 14.820312 38.410156 C 14.496094 38.832031 14.019531 39.113281 13.488281 39.183594 L 13.242188 39.214844 C 12.234375 39.351562 11.285156 38.710938 11.027344 37.726562 Z M 9.199219 30.433594 C 9.355469 29.863281 10.136719 29.855469 10.265625 30.429688 L 12.089844 37.453125 C 12.207031 37.898438 12.640625 38.1875 13.097656 38.128906 L 13.34375 38.09375 C 13.585938 38.0625 13.800781 37.9375 13.949219 37.742188 C 14.097656 37.550781 14.160156 37.308594 14.128906 37.066406 L 13.019531 28.792969 C 13.015625 28.769531 13.015625 28.746094 13.015625 28.722656 L 13.015625 24.402344 C 13.015625 24.253906 13.074219 24.113281 13.175781 24.011719 L 18.855469 18.402344 C 19.121094 18.136719 19.121094 17.710938 18.859375 17.445312 L 18.824219 17.40625 C 18.558594 17.140625 18.132812 17.140625 17.867188 17.402344 L 14.328125 20.898438 C 14.226562 21 14.085938 21.058594 13.941406 21.058594 L 7.742188 21.058594 C 6.71875 21.058594 5.738281 21.460938 5.007812 22.179688 L 1.925781 25.230469 C 1.660156 25.492188 1.660156 25.917969 1.921875 26.183594 L 1.957031 26.222656 C 2.21875 26.488281 2.648438 26.488281 2.914062 26.226562 L 5.535156 23.636719 C 5.691406 23.480469 5.925781 23.433594 6.132812 23.519531 C 6.335938 23.605469 6.46875 23.804688 6.46875 24.027344 L 6.46875 28.722656 C 6.46875 28.746094 6.46875 28.769531 6.464844 28.792969 L 5.355469 37.066406 C 5.324219 37.308594 5.386719 37.550781 5.535156 37.742188 C 5.679688 37.9375 5.898438 38.0625 6.140625 38.09375 L 6.382812 38.128906 C 6.84375 38.1875 7.273438 37.898438 7.390625 37.449219 Z M 9.199219 30.433594 "/>
</g>
</svg>
