<?xml version="1.0" encoding="UTF-8"?>
<svg xmlns="http://www.w3.org/2000/svg" xmlns:xlink="http://www.w3.org/1999/xlink" width="40px" height="40px" viewBox="0 0 40 40" version="1.1">
<g id="surface1">
<path style=" stroke:none;fill-rule:nonzero;fill:rgb(0%,0%,0%);fill-opacity:1;" d="M 12.335938 14.523438 C 12.085938 14.320312 11.714844 14.359375 11.511719 14.609375 C 11.273438 14.902344 10.960938 15.0625 10.628906 15.0625 C 10.292969 15.0625 9.980469 14.902344 9.742188 14.609375 C 9.539062 14.359375 9.171875 14.320312 8.917969 14.523438 C 8.667969 14.726562 8.628906 15.097656 8.832031 15.347656 C 9.289062 15.910156 9.945312 16.234375 10.628906 16.234375 C 11.3125 16.234375 11.964844 15.910156 12.421875 15.347656 C 12.625 15.097656 12.585938 14.726562 12.335938 14.523438 Z M 12.335938 14.523438 "/>
<path style=" stroke:none;fill-rule:nonzero;fill:rgb(0%,0%,0%);fill-opacity:1;" d="M 7.949219 11.046875 C 7.625 11.046875 7.363281 11.308594 7.363281 11.632812 L 7.363281 12.300781 C 7.363281 12.625 7.625 12.886719 7.949219 12.886719 C 8.273438 12.886719 8.535156 12.625 8.535156 12.300781 L 8.535156 11.632812 C 8.535156 11.308594 8.273438 11.046875 7.949219 11.046875 Z M 7.949219 11.046875 "/>
<path style=" stroke:none;fill-rule:nonzero;fill:rgb(0%,0%,0%);fill-opacity:1;" d="M 13.304688 11.046875 C 12.980469 11.046875 12.71875 11.308594 12.71875 11.632812 L 12.71875 12.300781 C 12.71875 12.625 12.980469 12.886719 13.304688 12.886719 C 13.628906 12.886719 13.890625 12.625 13.890625 12.300781 L 13.890625 11.632812 C 13.890625 11.308594 13.628906 11.046875 13.304688 11.046875 Z M 13.304688 11.046875 "/>
<path style=" stroke:none;fill-rule:nonzero;fill:rgb(0%,0%,0%);fill-opacity:1;" d="M 31.75 17.871094 C 31.5 17.667969 31.128906 17.707031 30.925781 17.957031 C 30.6875 18.25 30.375 18.410156 30.042969 18.410156 C 29.707031 18.410156 29.394531 18.25 29.15625 17.957031 C 28.953125 17.707031 28.585938 17.667969 28.335938 17.871094 C 28.082031 18.074219 28.042969 18.445312 28.25 18.695312 C 28.703125 19.257812 29.359375 19.582031 30.042969 19.582031 C 30.726562 19.582031 31.378906 19.257812 31.835938 18.695312 C 32.039062 18.445312 32 18.074219 31.75 17.871094 Z M 31.75 17.871094 "/>
<path style=" stroke:none;fill-rule:nonzero;fill:rgb(0%,0%,0%);fill-opacity:1;" d="M 27.363281 14.394531 C 27.039062 14.394531 26.777344 14.65625 26.777344 14.980469 L 26.777344 15.648438 C 26.777344 15.972656 27.039062 16.234375 27.363281 16.234375 C 27.6875 16.234375 27.949219 15.972656 27.949219 15.648438 L 27.949219 14.980469 C 27.949219 14.65625 27.6875 14.394531 27.363281 14.394531 Z M 27.363281 14.394531 "/>
<path style=" stroke:none;fill-rule:nonzero;fill:rgb(0%,0%,0%);fill-opacity:1;" d="M 32.71875 14.394531 C 32.394531 14.394531 32.132812 14.65625 32.132812 14.980469 L 32.132812 15.648438 C 32.132812 15.972656 32.394531 16.234375 32.71875 16.234375 C 33.042969 16.234375 33.304688 15.972656 33.304688 15.648438 L 33.304688 14.980469 C 33.304688 14.65625 33.042969 14.394531 32.71875 14.394531 Z M 32.71875 14.394531 "/>
<path style=" stroke:none;fill-rule:nonzero;fill:rgb(0%,0%,0%);fill-opacity:1;" d="M 38.371094 25.980469 L 33.777344 24.144531 C 33.753906 24.132812 33.730469 24.121094 33.707031 24.109375 C 36.878906 23.386719 38.378906 22.179688 38.445312 22.125 C 38.605469 21.996094 38.683594 21.792969 38.65625 21.589844 C 38.648438 21.542969 37.992188 16.894531 37.992188 12.300781 C 37.992188 7.917969 34.425781 4.351562 30.042969 4.351562 C 25.65625 4.351562 22.09375 7.917969 22.09375 12.300781 C 22.09375 13.503906 22.039062 14.972656 21.949219 16.363281 L 20.667969 17 L 16.914062 15.125 C 16.902344 15.121094 16.894531 15.117188 16.882812 15.109375 C 17.058594 14.589844 17.175781 14.042969 17.21875 13.472656 C 18.003906 13.230469 18.578125 12.496094 18.578125 11.632812 C 18.578125 11.050781 18.316406 10.527344 17.90625 10.175781 L 17.90625 6.277344 C 17.90625 5.199219 17.363281 4.191406 16.472656 3.585938 C 16.167969 2.460938 15.160156 1.671875 13.976562 1.671875 L 8.621094 1.671875 C 5.710938 1.671875 3.347656 4.039062 3.347656 6.945312 L 3.347656 10.175781 C 2.9375 10.527344 2.675781 11.050781 2.675781 11.632812 C 2.675781 12.496094 3.25 13.230469 4.035156 13.472656 C 4.183594 15.4375 5.195312 17.167969 6.695312 18.277344 L 6.695312 19.898438 L 1.847656 21.351562 C 0.742188 21.683594 0 22.683594 0 23.835938 L 0 30.375 C 0 30.699219 0.261719 30.960938 0.585938 30.960938 L 0.667969 30.960938 L 0.667969 37.742188 C 0.667969 38.0625 0.933594 38.328125 1.253906 38.328125 C 1.578125 38.328125 1.839844 38.0625 1.839844 37.742188 L 1.839844 30.960938 L 4.015625 30.960938 L 4.015625 37.742188 C 4.015625 38.0625 4.277344 38.328125 4.601562 38.328125 C 4.925781 38.328125 5.1875 38.0625 5.1875 37.742188 L 5.1875 27.636719 C 5.1875 27.125 5.039062 26.625 4.753906 26.199219 L 3.75 24.695312 C 3.570312 24.425781 3.207031 24.355469 2.9375 24.535156 C 2.667969 24.710938 2.597656 25.078125 2.777344 25.347656 L 3.777344 26.847656 C 3.933594 27.082031 4.015625 27.355469 4.015625 27.636719 L 4.015625 29.789062 L 1.171875 29.789062 L 1.171875 23.835938 C 1.171875 23.203125 1.578125 22.65625 2.1875 22.476562 L 4.195312 21.871094 C 4.898438 24.804688 7.558594 26.945312 10.628906 26.945312 C 11.730469 26.945312 12.800781 26.671875 13.761719 26.15625 C 14.113281 26.632812 14.675781 26.945312 15.3125 26.945312 L 15.398438 26.945312 L 15.398438 27.027344 C 15.398438 28.992188 16.476562 30.710938 18.074219 31.617188 L 18.074219 32.570312 C 18.074219 32.609375 18.050781 32.640625 18.019531 32.652344 L 15.832031 33.378906 C 14.769531 33.734375 14.058594 34.722656 14.058594 35.839844 L 14.058594 37.742188 C 14.058594 38.0625 14.320312 38.328125 14.644531 38.328125 C 14.96875 38.328125 15.230469 38.0625 15.230469 37.742188 L 15.230469 35.839844 C 15.230469 35.226562 15.621094 34.683594 16.203125 34.492188 L 16.847656 34.277344 C 17.695312 35.546875 19.125 36.316406 20.667969 36.316406 C 22.214844 36.316406 23.644531 35.546875 24.492188 34.277344 L 25.136719 34.492188 C 25.71875 34.683594 26.109375 35.226562 26.109375 35.839844 L 26.109375 37.742188 C 26.109375 38.0625 26.371094 38.328125 26.695312 38.328125 C 27.019531 38.328125 27.28125 38.0625 27.28125 37.742188 L 27.28125 35.839844 C 27.28125 34.722656 26.566406 33.734375 25.507812 33.378906 L 23.320312 32.652344 C 23.285156 32.640625 23.265625 32.609375 23.265625 32.570312 L 23.265625 31.617188 C 24.460938 30.9375 25.363281 29.804688 25.746094 28.453125 C 26.851562 29.613281 28.398438 30.292969 30.042969 30.292969 C 32.636719 30.292969 34.914062 28.617188 35.699219 26.171875 L 37.933594 27.070312 C 38.476562 27.285156 38.828125 27.804688 38.828125 28.390625 L 38.828125 31.128906 L 36.652344 31.128906 L 36.652344 30.375 C 36.652344 30.054688 36.390625 29.789062 36.066406 29.789062 C 35.742188 29.789062 35.480469 30.054688 35.480469 30.375 L 35.480469 37.742188 C 35.480469 38.0625 35.742188 38.328125 36.066406 38.328125 C 36.390625 38.328125 36.652344 38.0625 36.652344 37.742188 L 36.652344 32.300781 L 38.160156 32.300781 L 38.160156 37.742188 C 38.160156 38.0625 38.421875 38.328125 38.746094 38.328125 C 39.066406 38.328125 39.332031 38.0625 39.332031 37.742188 L 39.332031 32.300781 L 39.414062 32.300781 C 39.570312 32.300781 39.71875 32.238281 39.828125 32.128906 C 39.9375 32.019531 40 31.871094 40 31.714844 L 40 28.390625 C 40 27.320312 39.359375 26.375 38.371094 25.980469 Z M 23.265625 12.300781 C 23.265625 8.5625 26.304688 5.523438 30.042969 5.523438 C 33.78125 5.523438 36.820312 8.5625 36.820312 12.300781 C 36.820312 16.234375 37.292969 20.214844 37.449219 21.402344 C 36.921875 21.746094 35.578125 22.5 33.304688 23 L 33.304688 22.066406 C 33.617188 21.890625 33.914062 21.6875 34.195312 21.460938 C 35.347656 20.53125 36.164062 19.226562 36.488281 17.785156 C 36.597656 17.308594 36.652344 16.8125 36.652344 16.316406 C 36.652344 13.007812 34.257812 12.53125 31.941406 12.070312 C 30.46875 11.777344 28.945312 11.476562 27.730469 10.503906 C 27.554688 10.363281 27.3125 10.335938 27.109375 10.433594 C 26.90625 10.53125 26.777344 10.738281 26.777344 10.960938 C 26.777344 10.976562 26.753906 12.519531 24.542969 13.070312 C 24.230469 13.148438 24.039062 13.46875 24.117188 13.78125 C 24.195312 14.097656 24.515625 14.289062 24.828125 14.207031 C 26.675781 13.746094 27.429688 12.710938 27.738281 11.929688 C 29.007812 12.683594 30.433594 12.964844 31.714844 13.21875 C 34.1875 13.710938 35.480469 14.074219 35.480469 16.316406 C 35.480469 16.726562 35.4375 17.132812 35.347656 17.527344 C 35.078125 18.710938 34.40625 19.785156 33.457031 20.550781 C 32.480469 21.339844 31.300781 21.757812 30.042969 21.757812 C 28.894531 21.757812 27.804688 21.40625 26.875 20.742188 C 26.535156 19.8125 25.992188 18.964844 25.273438 18.269531 L 25.273438 15.648438 C 25.273438 15.445312 25.167969 15.257812 24.996094 15.148438 C 24.820312 15.042969 24.605469 15.035156 24.425781 15.125 L 23.160156 15.757812 C 23.230469 14.535156 23.265625 13.375 23.265625 12.300781 Z M 24.101562 16.597656 L 24.101562 18.71875 L 21.980469 17.65625 Z M 17.238281 16.597656 L 19.359375 17.65625 L 17.238281 18.71875 Z M 14.058594 23.011719 L 14.058594 23.570312 C 13.640625 23.929688 13.390625 24.460938 13.390625 25.019531 C 12.554688 25.515625 11.605469 25.773438 10.628906 25.773438 C 8.078125 25.773438 5.875 23.980469 5.320312 21.535156 L 6.769531 21.101562 C 7.125 22.902344 8.722656 24.269531 10.628906 24.269531 C 12.140625 24.269531 13.457031 23.40625 14.117188 22.148438 C 14.078125 22.433594 14.058594 22.722656 14.058594 23.011719 Z M 7.867188 20.332031 L 7.867188 18.976562 C 8.707031 19.363281 9.640625 19.582031 10.628906 19.582031 C 11.613281 19.582031 12.546875 19.363281 13.390625 18.976562 L 13.390625 20.335938 C 13.390625 21.855469 12.152344 23.097656 10.628906 23.097656 C 9.109375 23.097656 7.871094 21.859375 7.867188 20.34375 C 7.867188 20.339844 7.867188 20.335938 7.867188 20.332031 Z M 10.628906 18.410156 C 7.628906 18.410156 5.1875 15.96875 5.1875 12.96875 C 5.1875 12.648438 4.925781 12.382812 4.601562 12.382812 C 4.1875 12.382812 3.851562 12.046875 3.851562 11.632812 C 3.851562 11.214844 4.1875 10.878906 4.601562 10.878906 L 5.941406 10.878906 C 6.195312 10.878906 6.417969 10.71875 6.496094 10.476562 L 7.035156 8.863281 C 8.382812 8.835938 12.554688 8.644531 14.90625 7.46875 C 15.195312 7.324219 15.3125 6.972656 15.167969 6.683594 C 15.023438 6.394531 14.671875 6.277344 14.382812 6.421875 C 11.859375 7.683594 6.664062 7.699219 6.609375 7.699219 C 6.359375 7.699219 6.136719 7.859375 6.054688 8.097656 L 5.519531 9.707031 L 4.601562 9.707031 C 4.574219 9.707031 4.546875 9.707031 4.519531 9.710938 L 4.519531 6.945312 C 4.519531 4.683594 6.359375 2.84375 8.621094 2.84375 L 13.976562 2.84375 C 14.675781 2.84375 15.261719 3.351562 15.371094 4.042969 C 15.402344 4.222656 15.507812 4.375 15.664062 4.460938 C 16.324219 4.835938 16.738281 5.53125 16.738281 6.277344 L 16.738281 9.707031 C 16.707031 9.707031 16.679688 9.707031 16.652344 9.707031 L 15.984375 9.707031 C 15.660156 9.707031 15.398438 9.96875 15.398438 10.292969 C 15.398438 10.617188 15.660156 10.878906 15.984375 10.878906 L 16.652344 10.878906 C 17.066406 10.878906 17.40625 11.214844 17.40625 11.632812 C 17.40625 12.046875 17.066406 12.382812 16.652344 12.382812 C 16.328125 12.382812 16.066406 12.648438 16.066406 12.96875 C 16.066406 15.96875 13.628906 18.410156 10.628906 18.410156 Z M 14.5625 20.335938 L 14.5625 18.277344 C 15.144531 17.847656 15.652344 17.320312 16.066406 16.722656 L 16.066406 18.269531 C 15.410156 18.90625 14.898438 19.664062 14.558594 20.496094 C 14.558594 20.445312 14.5625 20.390625 14.5625 20.335938 Z M 23.324219 33.886719 C 22.679688 34.675781 21.710938 35.144531 20.667969 35.144531 C 19.628906 35.144531 18.660156 34.675781 18.015625 33.886719 L 18.390625 33.761719 C 18.902344 33.589844 19.246094 33.113281 19.246094 32.570312 L 19.246094 32.105469 C 19.699219 32.230469 20.175781 32.300781 20.667969 32.300781 C 21.164062 32.300781 21.640625 32.230469 22.09375 32.105469 L 22.09375 32.570312 C 22.09375 33.113281 22.4375 33.589844 22.949219 33.761719 Z M 25.355469 25.773438 C 25.03125 25.773438 24.769531 26.035156 24.769531 26.359375 L 24.769531 26.941406 C 24.769531 26.949219 24.769531 26.953125 24.769531 26.957031 L 24.769531 27.027344 C 24.769531 29.289062 22.929688 31.128906 20.667969 31.128906 C 18.410156 31.128906 16.570312 29.289062 16.570312 27.027344 L 16.570312 26.359375 C 16.570312 26.035156 16.308594 25.773438 15.984375 25.773438 L 15.3125 25.773438 C 14.898438 25.773438 14.5625 25.4375 14.5625 25.019531 C 14.5625 24.753906 14.703125 24.511719 14.9375 24.375 C 14.992188 24.34375 15.039062 24.304688 15.078125 24.261719 C 16.527344 24.21875 21.222656 23.945312 24.308594 22.183594 C 24.589844 22.023438 24.6875 21.664062 24.527344 21.382812 C 24.363281 21.101562 24.007812 21.003906 23.726562 21.164062 C 21.023438 22.710938 16.773438 23.019531 15.230469 23.082031 L 15.230469 23.011719 C 15.230469 21.921875 15.558594 20.867188 16.160156 19.976562 C 16.207031 20.050781 16.269531 20.117188 16.34375 20.164062 C 16.4375 20.222656 16.546875 20.25 16.652344 20.25 C 16.742188 20.25 16.832031 20.230469 16.914062 20.1875 L 20.667969 18.3125 L 24.425781 20.1875 C 24.507812 20.230469 24.597656 20.25 24.6875 20.25 C 24.792969 20.25 24.898438 20.222656 24.996094 20.164062 C 25.070312 20.117188 25.132812 20.050781 25.179688 19.976562 C 25.777344 20.867188 26.109375 21.921875 26.109375 23.011719 L 26.109375 23.867188 C 26.109375 24.078125 26.21875 24.269531 26.398438 24.375 C 26.636719 24.511719 26.777344 24.753906 26.777344 25.019531 C 26.777344 25.4375 26.441406 25.773438 26.023438 25.773438 Z M 30.042969 29.121094 C 28.417969 29.121094 26.914062 28.296875 26.039062 26.945312 C 27.09375 26.9375 27.949219 26.078125 27.949219 25.019531 C 27.949219 24.460938 27.699219 23.929688 27.28125 23.570312 L 27.28125 23.011719 C 27.28125 22.777344 27.269531 22.542969 27.242188 22.308594 C 28.113281 22.71875 29.058594 22.929688 30.042969 22.929688 C 30.757812 22.929688 31.464844 22.8125 32.132812 22.585938 L 32.132812 23.445312 C 32.132812 24.238281 32.609375 24.9375 33.34375 25.230469 L 34.605469 25.738281 C 34 27.738281 32.152344 29.121094 30.042969 29.121094 Z M 30.042969 29.121094 "/>
<path style=" stroke:none;fill-rule:nonzero;fill:rgb(0%,0%,0%);fill-opacity:1;" d="M 22.378906 27.914062 C 22.125 27.710938 21.757812 27.746094 21.554688 28 C 21.316406 28.289062 21.003906 28.453125 20.667969 28.453125 C 20.335938 28.453125 20.023438 28.289062 19.785156 28 C 19.582031 27.746094 19.214844 27.710938 18.960938 27.914062 C 18.710938 28.117188 18.671875 28.484375 18.875 28.738281 C 19.332031 29.300781 19.988281 29.625 20.667969 29.625 C 21.351562 29.625 22.007812 29.300781 22.464844 28.738281 C 22.667969 28.484375 22.628906 28.117188 22.378906 27.914062 Z M 22.378906 27.914062 "/>
<path style=" stroke:none;fill-rule:nonzero;fill:rgb(0%,0%,0%);fill-opacity:1;" d="M 19.257812 25.691406 C 19.257812 25.371094 18.996094 25.105469 18.671875 25.105469 C 18.347656 25.105469 18.085938 25.371094 18.085938 25.691406 C 18.085938 26.015625 18.347656 26.277344 18.671875 26.277344 C 18.996094 26.277344 19.257812 26.015625 19.257812 25.691406 Z M 19.257812 25.691406 "/>
<path style=" stroke:none;fill-rule:nonzero;fill:rgb(0%,0%,0%);fill-opacity:1;" d="M 23.242188 25.691406 C 23.242188 25.371094 22.980469 25.105469 22.65625 25.105469 C 22.332031 25.105469 22.070312 25.371094 22.070312 25.691406 C 22.070312 26.015625 22.332031 26.277344 22.65625 26.277344 C 22.980469 26.277344 23.242188 26.015625 23.242188 25.691406 Z M 23.242188 25.691406 "/>
</g>
</svg>
