<?xml version="1.0" encoding="UTF-8"?>
<svg xmlns="http://www.w3.org/2000/svg" xmlns:xlink="http://www.w3.org/1999/xlink" width="45px" height="45px" viewBox="0 0 45 45" version="1.1">
<g id="surface1">
<path style=" stroke:none;fill-rule:nonzero;fill:#21a96a;fill-opacity:1;" d="M 42.820312 3.300781 L 42.726562 3.199219 C 41.765625 2.171875 40.136719 2.117188 39.089844 3.074219 L 32.960938 8.722656 C 32.246094 9.378906 31.4375 9.699219 30.492188 9.699219 L 24.664062 9.699219 C 23.867188 9.699219 23.109375 9.96875 22.5 10.457031 C 21.902344 9.984375 21.152344 9.699219 20.335938 9.699219 L 14.507812 9.699219 C 13.5625 9.699219 12.753906 9.378906 12.039062 8.722656 L 5.910156 3.074219 C 4.863281 2.117188 3.234375 2.171875 2.277344 3.195312 L 2.175781 3.304688 C 1.703125 3.808594 1.457031 4.46875 1.480469 5.160156 C 1.503906 5.847656 1.796875 6.484375 2.296875 6.945312 L 10.230469 14.277344 C 10.808594 14.816406 11.167969 15.460938 11.304688 16.203125 L 11.296875 16.203125 C 10.535156 16.203125 9.914062 16.824219 9.914062 17.585938 L 9.914062 20.992188 C 9.914062 21.753906 10.535156 22.375 11.296875 22.375 L 11.367188 22.375 L 11.367188 41.539062 C 11.367188 43.445312 12.921875 45 14.832031 45 C 15.957031 45 16.960938 44.460938 17.59375 43.625 C 18.226562 44.460938 19.226562 45 20.355469 45 C 21.164062 45 21.910156 44.71875 22.5 44.253906 C 23.105469 44.734375 23.855469 45 24.644531 45 C 25.769531 45 26.773438 44.460938 27.40625 43.625 C 28.039062 44.460938 29.039062 45 30.167969 45 C 32.078125 45 33.628906 43.445312 33.628906 41.539062 L 33.628906 22.371094 L 33.703125 22.371094 C 34.460938 22.371094 35.082031 21.753906 35.082031 20.988281 L 35.082031 17.585938 C 35.082031 16.820312 34.460938 16.203125 33.703125 16.203125 L 33.691406 16.203125 C 33.828125 15.460938 34.1875 14.8125 34.765625 14.277344 L 42.699219 6.945312 C 43.199219 6.484375 43.492188 5.847656 43.515625 5.160156 C 43.542969 4.46875 43.296875 3.808594 42.820312 3.300781 Z M 2.886719 5.109375 C 2.875 4.792969 2.988281 4.492188 3.199219 4.269531 L 3.300781 4.160156 C 3.738281 3.695312 4.480469 3.671875 4.957031 4.109375 L 9.355469 8.160156 L 7.589844 9.921875 L 3.253906 5.914062 C 3.027344 5.707031 2.898438 5.421875 2.886719 5.109375 Z M 11.320312 17.605469 L 12.820312 17.605469 L 12.820312 20.96875 L 11.320312 20.96875 Z M 12.847656 22.371094 C 13.605469 22.371094 14.226562 21.753906 14.226562 20.988281 L 14.226562 17.585938 C 14.226562 16.820312 13.605469 16.203125 12.847656 16.203125 L 12.726562 16.203125 C 12.574219 15.058594 12.050781 14.046875 11.183594 13.246094 L 8.621094 10.878906 L 10.390625 9.113281 L 11.089844 9.753906 C 12.058594 10.652344 13.210938 11.105469 14.507812 11.105469 L 20.335938 11.105469 C 20.992188 11.105469 21.574219 11.410156 21.953125 11.882812 C 21.957031 11.882812 21.957031 11.882812 21.957031 11.886719 C 22.242188 12.242188 22.414062 12.691406 22.414062 13.179688 L 22.414062 24.117188 L 12.773438 24.117188 L 12.773438 22.375 L 12.847656 22.375 Z M 18.296875 41.539062 L 18.296875 29.53125 C 18.296875 29.144531 17.980469 28.828125 17.59375 28.828125 C 17.207031 28.828125 16.890625 29.144531 16.890625 29.53125 L 16.890625 41.539062 C 16.890625 42.671875 15.96875 43.59375 14.832031 43.59375 C 13.699219 43.59375 12.773438 42.671875 12.773438 41.539062 L 12.773438 25.523438 L 22.414062 25.523438 L 22.414062 41.539062 C 22.414062 42.019531 22.246094 42.464844 21.964844 42.816406 C 21.957031 42.824219 21.949219 42.835938 21.941406 42.847656 C 21.5625 43.304688 20.992188 43.59375 20.355469 43.59375 C 19.21875 43.59375 18.296875 42.671875 18.296875 41.539062 Z M 30.167969 43.59375 C 29.03125 43.59375 28.109375 42.671875 28.109375 41.539062 L 28.109375 29.53125 C 28.109375 29.144531 27.792969 28.828125 27.40625 28.828125 C 27.019531 28.828125 26.703125 29.144531 26.703125 29.53125 L 26.703125 41.539062 C 26.703125 42.671875 25.78125 43.59375 24.644531 43.59375 C 24.195312 43.59375 23.761719 43.445312 23.40625 43.175781 C 23.667969 42.6875 23.820312 42.128906 23.820312 41.539062 L 23.820312 25.523438 L 32.226562 25.523438 L 32.226562 41.539062 C 32.226562 42.671875 31.304688 43.59375 30.167969 43.59375 Z M 33.679688 20.96875 L 32.179688 20.96875 L 32.179688 17.605469 L 33.679688 17.605469 Z M 33.8125 13.246094 C 32.949219 14.046875 32.425781 15.058594 32.273438 16.203125 L 32.152344 16.203125 C 31.394531 16.203125 30.773438 16.824219 30.773438 17.585938 L 30.773438 20.988281 C 30.773438 21.753906 31.394531 22.371094 32.152344 22.371094 L 32.226562 22.371094 L 32.226562 24.117188 L 23.820312 24.117188 L 23.820312 13.179688 C 23.820312 12.582031 23.667969 12.023438 23.402344 11.53125 C 23.761719 11.257812 24.199219 11.105469 24.660156 11.105469 L 30.492188 11.105469 C 31.789062 11.105469 32.941406 10.648438 33.910156 9.753906 L 34.609375 9.113281 L 36.378906 10.878906 Z M 41.746094 5.914062 L 37.410156 9.921875 L 35.644531 8.160156 L 40.042969 4.109375 C 40.519531 3.671875 41.261719 3.691406 41.703125 4.164062 L 41.800781 4.265625 C 42.011719 4.492188 42.125 4.792969 42.113281 5.109375 C 42.101562 5.421875 41.972656 5.707031 41.746094 5.914062 Z M 27.40625 9.335938 C 29.980469 9.335938 32.070312 7.242188 32.070312 4.667969 C 32.070312 2.09375 29.980469 0 27.40625 0 C 24.832031 0 22.738281 2.09375 22.738281 4.667969 C 22.738281 7.242188 24.832031 9.335938 27.40625 9.335938 Z M 27.40625 1.40625 C 29.203125 1.40625 30.664062 2.867188 30.664062 4.667969 C 30.664062 6.46875 29.203125 7.929688 27.40625 7.929688 C 25.605469 7.929688 24.144531 6.464844 24.144531 4.667969 C 24.144531 2.867188 25.605469 1.40625 27.40625 1.40625 Z M 17.59375 9.335938 C 20.167969 9.335938 22.261719 7.242188 22.261719 4.667969 C 22.261719 2.09375 20.167969 0 17.59375 0 C 15.023438 0 12.929688 2.09375 12.929688 4.667969 C 12.929688 7.242188 15.019531 9.335938 17.59375 9.335938 Z M 17.59375 1.40625 C 19.394531 1.40625 20.855469 2.867188 20.855469 4.667969 C 20.855469 6.46875 19.394531 7.929688 17.59375 7.929688 C 15.796875 7.929688 14.335938 6.464844 14.335938 4.667969 C 14.332031 2.867188 15.796875 1.40625 17.59375 1.40625 Z M 17.59375 1.40625 "/>
</g>
</svg>
