<?xml version="1.0" encoding="UTF-8"?>
<svg xmlns="http://www.w3.org/2000/svg" xmlns:xlink="http://www.w3.org/1999/xlink" width="45px" height="45px" viewBox="0 0 45 45" version="1.1">
<g id="surface1">
<path style=" stroke:none;fill-rule:evenodd;fill:rgb(0%,0%,0%);fill-opacity:1;" d="M 23.035156 35.929688 C 22.839844 35.851562 22.636719 35.769531 22.425781 35.671875 L 22.476562 43.671875 C 22.480469 43.859375 22.40625 44.039062 22.273438 44.175781 C 22.140625 44.308594 21.960938 44.382812 21.773438 44.382812 L 11.363281 44.382812 C 10.992188 44.382812 10.6875 44.097656 10.65625 43.730469 C 10.65625 43.730469 9.925781 33.894531 9.925781 33.894531 C 8.957031 33.171875 5.558594 30.566406 3.171875 27.796875 C 1.894531 26.316406 0.914062 24.78125 0.648438 23.445312 C 0.644531 23.433594 0.640625 23.417969 0.640625 23.40625 C 0.640625 23.40625 0.398438 21.492188 1.78125 20.46875 C 1.785156 20.46875 1.785156 20.46875 1.785156 20.464844 C 2.765625 19.75 4.109375 19.78125 5.054688 20.542969 C 5.660156 21.03125 6.492188 21.925781 7.429688 23.601562 C 9.09375 26.566406 12.183594 27.183594 13.679688 27.320312 C 14.796875 27.425781 17.820312 27.574219 19.933594 27.847656 C 22.109375 26.0625 23.804688 26.238281 25.671875 26.730469 C 27.316406 27.160156 29.113281 27.898438 31.695312 27.335938 C 33.179688 27.011719 36.347656 26.597656 38.03125 23.601562 C 38.96875 21.925781 39.800781 21.03125 40.40625 20.542969 C 41.351562 19.78125 42.695312 19.75 43.675781 20.464844 C 43.675781 20.46875 43.675781 20.46875 43.679688 20.46875 C 45.0625 21.492188 44.820312 23.40625 44.820312 23.40625 C 44.820312 23.417969 44.816406 23.433594 44.8125 23.445312 C 44.546875 24.78125 43.566406 26.316406 42.289062 27.796875 C 39.902344 30.566406 36.503906 33.171875 35.535156 33.894531 L 34.804688 43.730469 C 34.777344 44.097656 34.46875 44.382812 34.097656 44.382812 L 23.6875 44.382812 C 23.5 44.382812 23.320312 44.308594 23.1875 44.175781 C 23.054688 44.039062 22.980469 43.859375 22.984375 43.671875 C 22.984375 43.671875 23.015625 38.484375 23.035156 35.929688 Z M 19.960938 29.277344 C 17.867188 28.984375 14.695312 28.832031 13.550781 28.726562 C 11.78125 28.5625 8.164062 27.792969 6.199219 24.292969 C 5.390625 22.847656 4.691406 22.0625 4.167969 21.644531 L 4.167969 21.640625 C 3.71875 21.28125 3.085938 21.265625 2.621094 21.605469 C 1.933594 22.113281 2.015625 23.039062 2.035156 23.191406 C 2.355469 24.734375 3.835938 26.546875 5.460938 28.191406 C 8.027344 30.792969 11.015625 32.945312 11.015625 32.945312 C 11.1875 33.066406 11.292969 33.257812 11.308594 33.464844 L 12.015625 42.96875 L 21.0625 42.96875 L 21.007812 34.527344 C 21.003906 34.273438 21.136719 34.039062 21.355469 33.914062 C 21.570312 33.785156 21.839844 33.78125 22.058594 33.90625 C 22.398438 34.097656 22.726562 34.261719 23.035156 34.398438 C 22.976562 33.121094 22.910156 31.953125 22.238281 30.964844 C 21.792969 30.316406 21.082031 29.757812 19.960938 29.277344 Z M 13.304688 35.621094 C 12.914062 35.621094 12.597656 35.304688 12.597656 34.914062 C 12.597656 34.523438 12.914062 34.207031 13.304688 34.207031 L 14.65625 34.207031 C 15.046875 34.207031 15.363281 34.523438 15.363281 34.914062 C 15.363281 35.304688 15.046875 35.621094 14.65625 35.621094 Z M 33.445312 42.96875 L 34.152344 33.464844 C 34.167969 33.257812 34.273438 33.066406 34.445312 32.945312 C 34.445312 32.945312 37.433594 30.792969 40 28.191406 C 41.625 26.546875 43.105469 24.734375 43.425781 23.191406 C 43.445312 23.035156 43.527344 22.113281 42.839844 21.601562 C 42.375 21.265625 41.742188 21.28125 41.292969 21.640625 L 41.292969 21.644531 C 40.769531 22.0625 40.070312 22.847656 39.261719 24.292969 C 37.316406 27.757812 33.714844 28.339844 31.996094 28.714844 C 29.132812 29.339844 27.132812 28.574219 25.3125 28.09375 C 24.050781 27.761719 22.886719 27.605469 21.492188 28.464844 C 22.375 28.972656 22.976562 29.546875 23.402344 30.171875 C 24.25 31.410156 24.375 32.867188 24.453125 34.488281 C 24.453125 34.5 24.398438 42.96875 24.398438 42.96875 Z M 16.207031 17.167969 C 18.503906 17.167969 20.421875 19.285156 20.421875 21.949219 C 20.421875 24.613281 18.503906 26.726562 16.207031 26.726562 C 13.910156 26.726562 11.988281 24.613281 11.988281 21.949219 C 11.988281 19.285156 13.910156 17.167969 16.207031 17.167969 Z M 16.207031 18.582031 C 14.628906 18.582031 13.402344 20.117188 13.402344 21.949219 C 13.402344 23.777344 14.628906 25.3125 16.207031 25.3125 C 17.785156 25.3125 19.011719 23.777344 19.011719 21.949219 C 19.011719 20.117188 17.785156 18.582031 16.207031 18.582031 Z M 22.777344 0.675781 L 29.65625 3.625 C 29.917969 3.734375 30.085938 3.988281 30.085938 4.273438 L 30.085938 9.835938 C 30.085938 14.046875 27.019531 17.6875 22.871094 18.410156 L 22.621094 18.453125 C 22.542969 18.46875 22.457031 18.46875 22.378906 18.453125 L 22.128906 18.410156 C 17.980469 17.6875 14.914062 14.046875 14.914062 9.835938 L 14.914062 4.273438 C 14.914062 3.988281 15.082031 3.734375 15.34375 3.625 L 22.222656 0.675781 C 22.398438 0.597656 22.601562 0.597656 22.777344 0.675781 Z M 22.5 2.089844 C 22.5 2.089844 16.328125 4.738281 16.328125 4.738281 L 16.328125 9.835938 C 16.328125 13.363281 18.894531 16.414062 22.371094 17.019531 L 22.5 17.042969 L 22.628906 17.019531 C 26.105469 16.414062 28.671875 13.363281 28.671875 9.835938 L 28.671875 4.738281 Z M 22.777344 2.664062 L 27.828125 4.828125 C 28.089844 4.9375 28.257812 5.195312 28.257812 5.476562 L 28.257812 9.835938 C 28.257812 13.132812 25.867188 15.996094 22.628906 16.59375 C 22.542969 16.613281 22.457031 16.613281 22.371094 16.59375 C 19.132812 15.996094 16.742188 13.132812 16.742188 9.835938 L 16.742188 5.476562 C 16.742188 5.195312 16.910156 4.9375 17.171875 4.828125 L 22.222656 2.664062 C 22.398438 2.589844 22.601562 2.589844 22.777344 2.664062 Z M 22.5 4.082031 L 18.15625 5.941406 L 18.15625 9.835938 C 18.15625 12.414062 19.992188 14.65625 22.5 15.183594 C 25.007812 14.65625 26.847656 12.414062 26.847656 9.835938 L 26.847656 5.941406 Z M 19.964844 9.949219 C 19.6875 9.671875 19.6875 9.226562 19.964844 8.949219 C 20.238281 8.675781 20.6875 8.675781 20.960938 8.949219 C 20.960938 8.949219 21.867188 9.855469 21.867188 9.855469 L 24.722656 7.265625 C 25.011719 7.003906 25.457031 7.023438 25.71875 7.3125 C 25.980469 7.601562 25.960938 8.050781 25.671875 8.3125 L 22.316406 11.351562 C 22.039062 11.605469 21.609375 11.59375 21.34375 11.328125 Z M 29.253906 17.167969 C 31.550781 17.167969 33.472656 19.285156 33.472656 21.949219 C 33.472656 24.613281 31.550781 26.726562 29.253906 26.726562 C 26.957031 26.726562 25.039062 24.613281 25.039062 21.949219 C 25.039062 19.285156 26.957031 17.167969 29.253906 17.167969 Z M 29.253906 18.582031 C 27.675781 18.582031 26.449219 20.117188 26.449219 21.949219 C 26.449219 23.777344 27.675781 25.3125 29.253906 25.3125 C 30.832031 25.3125 32.058594 23.777344 32.058594 21.949219 C 32.058594 20.117188 30.832031 18.582031 29.253906 18.582031 Z M 29.253906 18.582031 "/>
</g>
</svg>
