<?xml version="1.0" encoding="UTF-8"?>
<svg xmlns="http://www.w3.org/2000/svg" xmlns:xlink="http://www.w3.org/1999/xlink" width="30px" height="30px" viewBox="0 0 30 30" version="1.1">
<g id="surface1">
<path style=" stroke:none;fill-rule:nonzero;fill:rgb(0%,0%,0%);fill-opacity:1;" d="M 16.539062 15.050781 C 16.957031 14.644531 17.214844 14.082031 17.214844 13.457031 C 17.214844 12.238281 16.222656 11.242188 15 11.242188 C 13.777344 11.242188 12.785156 12.238281 12.785156 13.457031 C 12.785156 14.082031 13.042969 14.644531 13.460938 15.050781 C 12.1875 15.589844 11.253906 16.785156 11.097656 18.238281 C 11.085938 18.371094 11.128906 18.503906 11.214844 18.601562 C 11.304688 18.699219 11.433594 18.757812 11.566406 18.757812 L 18.433594 18.757812 C 18.566406 18.757812 18.695312 18.699219 18.785156 18.601562 C 18.871094 18.503906 18.914062 18.371094 18.902344 18.238281 C 18.746094 16.785156 17.8125 15.589844 16.539062 15.050781 Z M 15 12.179688 C 15.703125 12.179688 16.277344 12.753906 16.277344 13.457031 C 16.277344 14.164062 15.703125 14.738281 15 14.738281 C 14.296875 14.738281 13.722656 14.164062 13.722656 13.457031 C 13.722656 12.753906 14.296875 12.179688 15 12.179688 Z M 12.132812 17.820312 C 12.496094 16.566406 13.648438 15.675781 15 15.675781 C 16.351562 15.675781 17.503906 16.566406 17.867188 17.820312 Z M 2.238281 5.074219 L 2.566406 5.074219 L 2.566406 8.597656 C 2.566406 8.855469 2.777344 9.066406 3.035156 9.066406 L 8.242188 9.066406 C 8.503906 9.066406 8.710938 8.855469 8.710938 8.597656 L 8.710938 5.074219 L 9.039062 5.074219 C 9.308594 5.074219 9.535156 4.902344 9.613281 4.648438 C 9.6875 4.394531 9.589844 4.125 9.367188 3.980469 L 5.894531 1.714844 C 5.738281 1.617188 5.539062 1.617188 5.382812 1.714844 L 1.910156 3.980469 C 1.6875 4.125 1.589844 4.394531 1.664062 4.648438 C 1.742188 4.902344 1.972656 5.074219 2.238281 5.074219 Z M 6.207031 8.128906 L 5.070312 8.128906 L 5.070312 7.058594 L 6.207031 7.058594 Z M 7.773438 8.128906 L 7.144531 8.128906 L 7.144531 6.71875 C 7.144531 6.390625 6.875 6.121094 6.546875 6.121094 L 4.730469 6.121094 C 4.402344 6.121094 4.132812 6.390625 4.132812 6.71875 L 4.132812 8.128906 L 3.503906 8.128906 L 3.503906 5.074219 L 7.773438 5.074219 Z M 5.640625 2.667969 L 7.894531 4.136719 L 3.382812 4.136719 Z M 10.660156 3.648438 L 11.867188 4.632812 C 12.050781 4.785156 12.324219 4.769531 12.492188 4.597656 L 12.675781 4.414062 L 12.675781 7.214844 C 12.675781 7.476562 12.886719 7.683594 13.144531 7.683594 L 16.855469 7.683594 C 17.113281 7.683594 17.324219 7.476562 17.324219 7.214844 L 17.324219 4.414062 L 17.507812 4.597656 C 17.675781 4.769531 17.949219 4.785156 18.132812 4.632812 L 19.339844 3.648438 C 19.445312 3.558594 19.511719 3.429688 19.511719 3.289062 C 19.511719 3.152344 19.453125 3.019531 19.347656 2.929688 L 16.605469 0.582031 C 16.472656 0.46875 16.292969 0.4375 16.128906 0.5 C 15.359375 0.796875 14.640625 0.796875 13.871094 0.5 C 13.707031 0.4375 13.527344 0.46875 13.394531 0.582031 L 10.652344 2.925781 C 10.546875 3.019531 10.488281 3.148438 10.488281 3.289062 C 10.488281 3.429688 10.554688 3.558594 10.660156 3.648438 Z M 13.800781 1.46875 C 14.605469 1.722656 15.394531 1.722656 16.199219 1.46875 L 18.3125 3.277344 L 17.871094 3.636719 L 17.183594 2.953125 C 17.050781 2.820312 16.851562 2.777344 16.675781 2.851562 C 16.5 2.921875 16.386719 3.09375 16.386719 3.285156 L 16.386719 6.746094 L 13.613281 6.746094 L 13.613281 3.285156 C 13.613281 3.09375 13.5 2.921875 13.324219 2.851562 C 13.148438 2.777344 12.949219 2.820312 12.816406 2.953125 L 12.128906 3.636719 L 11.6875 3.277344 Z M 5.769531 17.691406 C 6.027344 17.691406 6.238281 17.480469 6.238281 17.222656 C 6.238281 16.96875 6.039062 16.765625 5.792969 16.753906 C 5.828125 16.707031 5.859375 16.660156 5.890625 16.609375 C 7.445312 15.855469 8.070312 14.726562 8.136719 13.972656 C 8.179688 13.460938 7.988281 13.023438 7.617188 12.773438 C 7.394531 12.621094 6.945312 12.445312 6.21875 12.648438 C 6.160156 12.453125 5.980469 12.308594 5.765625 12.308594 L 0.941406 12.308594 C 0.679688 12.308594 0.472656 12.519531 0.472656 12.777344 L 0.472656 15.402344 C 0.472656 15.90625 0.636719 16.375 0.914062 16.753906 C 0.667969 16.765625 0.46875 16.96875 0.46875 17.222656 C 0.46875 17.480469 0.679688 17.691406 0.9375 17.691406 Z M 7.09375 13.550781 C 7.207031 13.625 7.207031 13.796875 7.199219 13.894531 C 7.167969 14.285156 6.851562 14.828125 6.234375 15.304688 L 6.234375 13.632812 C 6.683594 13.453125 6.972656 13.46875 7.09375 13.550781 Z M 1.410156 13.246094 L 5.296875 13.246094 L 5.296875 15.402344 C 5.296875 16.148438 4.691406 16.753906 3.949219 16.753906 L 2.757812 16.753906 C 2.015625 16.753906 1.410156 16.148438 1.410156 15.402344 Z M 24.230469 12.804688 C 23.644531 13.390625 23.320312 14.171875 23.320312 15 C 23.320312 15.828125 23.644531 16.609375 24.230469 17.195312 C 24.835938 17.800781 25.628906 18.105469 26.425781 18.105469 C 27.222656 18.105469 28.015625 17.800781 28.621094 17.195312 C 29.207031 16.609375 29.53125 15.828125 29.53125 15 C 29.53125 14.171875 29.207031 13.390625 28.621094 12.804688 C 28.035156 12.21875 27.253906 11.894531 26.425781 11.894531 C 25.597656 11.894531 24.816406 12.21875 24.230469 12.804688 Z M 28.59375 15 C 28.59375 15.578125 28.367188 16.125 27.957031 16.53125 C 27.113281 17.378906 25.738281 17.378906 24.894531 16.53125 C 24.484375 16.125 24.257812 15.578125 24.257812 15 C 24.257812 14.421875 24.484375 13.875 24.894531 13.46875 C 25.300781 13.058594 25.847656 12.832031 26.425781 12.832031 C 27.003906 12.832031 27.550781 13.058594 27.957031 13.46875 C 28.367188 13.875 28.59375 14.421875 28.59375 15 Z M 26.425781 13.398438 C 26.683594 13.398438 26.894531 13.609375 26.894531 13.867188 L 26.894531 14.53125 L 27.558594 14.53125 C 27.816406 14.53125 28.027344 14.742188 28.027344 15 C 28.027344 15.257812 27.816406 15.46875 27.558594 15.46875 L 26.894531 15.46875 L 26.894531 16.132812 C 26.894531 16.390625 26.683594 16.601562 26.425781 16.601562 C 26.167969 16.601562 25.957031 16.390625 25.957031 16.132812 L 25.957031 15.46875 L 25.292969 15.46875 C 25.035156 15.46875 24.824219 15.257812 24.824219 15 C 24.824219 14.742188 25.035156 14.53125 25.292969 14.53125 L 25.957031 14.53125 L 25.957031 13.867188 C 25.957031 13.609375 26.167969 13.398438 26.425781 13.398438 Z M 29.0625 22.390625 L 28.34375 22.390625 C 28.339844 22.132812 28.132812 21.929688 27.875 21.929688 C 26.316406 21.929688 25.816406 22.0625 24.816406 22.332031 C 24.769531 22.347656 24.71875 22.359375 24.671875 22.375 C 24.621094 22.359375 24.570312 22.347656 24.523438 22.332031 C 23.523438 22.0625 23.023438 21.929688 21.464844 21.929688 C 21.207031 21.929688 21 22.132812 20.996094 22.390625 L 20.277344 22.390625 C 20.019531 22.390625 19.808594 22.601562 19.808594 22.859375 L 19.808594 29.0625 C 19.808594 29.320312 20.019531 29.53125 20.277344 29.53125 L 29.0625 29.53125 C 29.320312 29.53125 29.53125 29.320312 29.53125 29.0625 L 29.53125 22.859375 C 29.53125 22.601562 29.320312 22.390625 29.0625 22.390625 Z M 25.140625 23.21875 C 25.925781 23.003906 26.363281 22.894531 27.40625 22.871094 L 27.40625 27.429688 C 26.496094 27.457031 25.746094 27.574219 25.140625 27.777344 Z M 21.933594 22.871094 C 22.976562 22.894531 23.414062 23.003906 24.203125 23.21875 L 24.203125 27.777344 C 23.59375 27.574219 22.84375 27.457031 21.933594 27.429688 Z M 20.746094 23.328125 L 20.996094 23.328125 L 20.996094 27.890625 C 20.996094 28.148438 21.207031 28.359375 21.464844 28.359375 C 22.347656 28.359375 23.078125 28.4375 23.65625 28.59375 L 20.746094 28.59375 Z M 28.59375 28.59375 L 25.683594 28.59375 C 26.261719 28.4375 26.992188 28.359375 27.875 28.359375 C 28.132812 28.359375 28.34375 28.148438 28.34375 27.890625 L 28.34375 23.328125 L 28.59375 23.328125 Z M 7.03125 21.289062 C 6.152344 21.289062 5.460938 22.144531 5.460938 23.230469 C 5.460938 24.117188 5.917969 24.847656 6.5625 25.089844 L 6.5625 27.640625 C 6.5625 27.902344 6.773438 28.109375 7.03125 28.109375 C 7.292969 28.109375 7.5 27.902344 7.5 27.640625 L 7.5 25.089844 C 8.148438 24.847656 8.605469 24.117188 8.605469 23.230469 C 8.605469 22.144531 7.914062 21.289062 7.03125 21.289062 Z M 7.03125 24.238281 C 6.730469 24.238281 6.398438 23.824219 6.398438 23.230469 C 6.398438 22.640625 6.730469 22.226562 7.03125 22.226562 C 7.332031 22.226562 7.667969 22.640625 7.667969 23.230469 C 7.667969 23.824219 7.332031 24.238281 7.03125 24.238281 Z M 4.832031 21.757812 L 4.832031 23.699219 C 4.832031 24.410156 4.328125 25.003906 3.660156 25.144531 L 3.660156 27.640625 C 3.660156 27.902344 3.453125 28.109375 3.191406 28.109375 C 2.933594 28.109375 2.722656 27.902344 2.722656 27.640625 L 2.722656 25.144531 C 2.054688 25.003906 1.550781 24.410156 1.550781 23.699219 L 1.550781 21.757812 C 1.550781 21.5 1.761719 21.289062 2.019531 21.289062 C 2.28125 21.289062 2.488281 21.5 2.488281 21.757812 L 2.488281 23.699219 C 2.488281 23.882812 2.582031 24.046875 2.722656 24.144531 L 2.722656 21.757812 C 2.722656 21.5 2.933594 21.289062 3.191406 21.289062 C 3.453125 21.289062 3.660156 21.5 3.660156 21.757812 L 3.660156 24.144531 C 3.804688 24.046875 3.894531 23.882812 3.894531 23.699219 L 3.894531 21.757812 C 3.894531 21.5 4.105469 21.289062 4.363281 21.289062 C 4.625 21.289062 4.832031 21.5 4.832031 21.757812 Z M 17.679688 23.546875 L 15.183594 22.480469 C 15.066406 22.429688 14.933594 22.429688 14.816406 22.480469 L 12.320312 23.546875 C 12.148438 23.621094 12.035156 23.792969 12.035156 23.980469 L 12.035156 26.097656 C 12.035156 27.792969 13.25 29.234375 14.917969 29.523438 C 14.945312 29.527344 14.972656 29.53125 15 29.53125 C 15.027344 29.53125 15.054688 29.527344 15.082031 29.523438 C 16.75 29.234375 17.964844 27.792969 17.964844 26.097656 L 17.964844 23.980469 C 17.964844 23.792969 17.851562 23.621094 17.679688 23.546875 Z M 17.027344 26.097656 C 17.027344 27.289062 16.160156 28.34375 15 28.585938 C 13.839844 28.34375 12.972656 27.289062 12.972656 26.097656 L 12.972656 24.289062 L 15 23.421875 L 17.027344 24.289062 Z M 14.761719 26.121094 L 15.785156 24.855469 C 15.945312 24.65625 16.242188 24.625 16.445312 24.785156 C 16.644531 24.949219 16.675781 25.246094 16.511719 25.445312 L 15.164062 27.117188 C 15.078125 27.21875 14.957031 27.28125 14.824219 27.289062 C 14.8125 27.289062 14.804688 27.289062 14.796875 27.289062 C 14.675781 27.289062 14.554688 27.242188 14.464844 27.152344 L 13.519531 26.207031 C 13.335938 26.023438 13.335938 25.726562 13.519531 25.542969 C 13.703125 25.359375 14 25.359375 14.183594 25.542969 Z M 24.667969 10.226562 C 26.703125 10.226562 28.359375 8.570312 28.359375 6.535156 C 28.359375 4.660156 26.953125 3.105469 25.136719 2.875 L 25.136719 2.578125 L 25.433594 2.578125 C 25.695312 2.578125 25.902344 2.367188 25.902344 2.109375 C 25.902344 1.851562 25.695312 1.640625 25.433594 1.640625 L 23.902344 1.640625 C 23.640625 1.640625 23.433594 1.851562 23.433594 2.109375 C 23.433594 2.367188 23.640625 2.578125 23.902344 2.578125 L 24.199219 2.578125 L 24.199219 2.875 C 22.382812 3.105469 20.976562 4.660156 20.976562 6.535156 C 20.976562 8.570312 22.632812 10.226562 24.667969 10.226562 Z M 24.667969 3.78125 C 26.1875 3.78125 27.421875 5.015625 27.421875 6.535156 C 27.421875 8.054688 26.1875 9.289062 24.667969 9.289062 C 23.148438 9.289062 21.914062 8.054688 21.914062 6.535156 C 21.914062 5.015625 23.148438 3.78125 24.667969 3.78125 Z M 24.199219 6.535156 L 24.199219 5.070312 C 24.199219 4.8125 24.410156 4.601562 24.667969 4.601562 C 24.925781 4.601562 25.136719 4.8125 25.136719 5.070312 L 25.136719 6.265625 L 25.878906 6.691406 C 26.101562 6.824219 26.179688 7.109375 26.050781 7.332031 C 25.964844 7.484375 25.804688 7.566406 25.644531 7.566406 C 25.566406 7.566406 25.484375 7.546875 25.410156 7.503906 L 24.433594 6.941406 C 24.289062 6.855469 24.199219 6.703125 24.199219 6.535156 Z M 15 8.191406 C 15.257812 8.191406 15.46875 8.402344 15.46875 8.660156 L 15.46875 10.234375 C 15.46875 10.492188 15.257812 10.703125 15 10.703125 C 14.742188 10.703125 14.53125 10.492188 14.53125 10.234375 L 14.53125 8.660156 C 14.53125 8.402344 14.742188 8.191406 15 8.191406 Z M 19.8125 10.1875 C 19.996094 10.371094 19.996094 10.667969 19.8125 10.847656 L 18.699219 11.960938 C 18.609375 12.054688 18.488281 12.097656 18.371094 12.097656 C 18.25 12.097656 18.128906 12.054688 18.039062 11.960938 C 17.855469 11.777344 17.855469 11.480469 18.039062 11.300781 L 19.152344 10.1875 C 19.332031 10.003906 19.628906 10.003906 19.8125 10.1875 Z M 21.339844 14.53125 C 21.597656 14.53125 21.808594 14.742188 21.808594 15 C 21.808594 15.257812 21.597656 15.46875 21.339844 15.46875 L 19.765625 15.46875 C 19.507812 15.46875 19.296875 15.257812 19.296875 15 C 19.296875 14.742188 19.507812 14.53125 19.765625 14.53125 Z M 20.265625 20.925781 L 19.152344 19.8125 C 18.96875 19.628906 18.96875 19.332031 19.152344 19.152344 C 19.332031 18.96875 19.628906 18.96875 19.8125 19.152344 L 20.925781 20.265625 C 21.109375 20.445312 21.109375 20.742188 20.925781 20.925781 C 20.835938 21.019531 20.714844 21.0625 20.59375 21.0625 C 20.476562 21.0625 20.355469 21.019531 20.265625 20.925781 Z M 15 21.808594 C 14.742188 21.808594 14.53125 21.597656 14.53125 21.339844 L 14.53125 19.765625 C 14.53125 19.507812 14.742188 19.296875 15 19.296875 C 15.257812 19.296875 15.46875 19.507812 15.46875 19.765625 L 15.46875 21.339844 C 15.46875 21.597656 15.257812 21.808594 15 21.808594 Z M 10.847656 19.152344 C 11.03125 19.332031 11.03125 19.628906 10.847656 19.8125 L 9.734375 20.925781 C 9.644531 21.019531 9.523438 21.0625 9.40625 21.0625 C 9.285156 21.0625 9.164062 21.019531 9.074219 20.925781 C 8.890625 20.742188 8.890625 20.445312 9.074219 20.265625 L 10.1875 19.152344 C 10.371094 18.96875 10.667969 18.96875 10.847656 19.152344 Z M 10.234375 15.46875 L 8.660156 15.46875 C 8.402344 15.46875 8.191406 15.257812 8.191406 15 C 8.191406 14.742188 8.402344 14.53125 8.660156 14.53125 L 10.234375 14.53125 C 10.492188 14.53125 10.703125 14.742188 10.703125 15 C 10.703125 15.257812 10.492188 15.46875 10.234375 15.46875 Z M 10.1875 10.847656 C 10.003906 10.667969 10.003906 10.371094 10.1875 10.1875 C 10.371094 10.003906 10.667969 10.003906 10.847656 10.1875 L 11.960938 11.300781 C 12.144531 11.484375 12.144531 11.777344 11.960938 11.960938 C 11.871094 12.054688 11.75 12.097656 11.628906 12.097656 C 11.511719 12.097656 11.390625 12.054688 11.300781 11.960938 Z M 10.1875 10.847656 "/>
</g>
</svg>
