<?xml version="1.0" encoding="UTF-8"?>
<svg xmlns="http://www.w3.org/2000/svg" xmlns:xlink="http://www.w3.org/1999/xlink" width="45px" height="45px" viewBox="0 0 45 45" version="1.1">
<g id="surface1">
<path style=" stroke:none;fill-rule:nonzero;fill:#21a96a;fill-opacity:1;" d="M 6.921875 21.238281 C 6.632812 21.238281 6.402344 21.46875 6.402344 21.757812 L 6.402344 22.941406 C 6.402344 23.230469 6.632812 23.460938 6.921875 23.460938 C 7.207031 23.460938 7.4375 23.230469 7.4375 22.941406 L 7.4375 21.757812 C 7.4375 21.46875 7.207031 21.238281 6.921875 21.238281 Z M 6.921875 21.238281 "/>
<path style=" stroke:none;fill-rule:nonzero;fill:rgb(0%,0%,0%);fill-opacity:1;" d="M 7.4375 18.789062 C 7.4375 18.503906 7.207031 18.273438 6.921875 18.273438 C 6.632812 18.273438 6.410156 18.503906 6.410156 18.789062 L 6.410156 19.976562 C 6.410156 20.261719 6.640625 20.496094 6.925781 20.496094 C 7.214844 20.496094 7.445312 20.261719 7.445312 19.976562 L 7.445312 18.789062 Z M 7.4375 18.789062 "/>
<path style=" stroke:none;fill-rule:nonzero;fill:rgb(0%,0%,0%);fill-opacity:1;" d="M 26.160156 13.773438 C 28.269531 11.664062 31.070312 10.507812 34.0625 10.507812 C 37.058594 10.507812 39.859375 11.664062 41.964844 13.773438 C 42.066406 13.875 42.199219 13.921875 42.328125 13.921875 C 42.457031 13.921875 42.59375 13.875 42.6875 13.773438 C 42.894531 13.566406 42.894531 13.246094 42.6875 13.042969 C 40.390625 10.746094 37.324219 9.476562 34.0625 9.476562 C 30.796875 9.476562 27.738281 10.746094 25.4375 13.042969 C 25.234375 13.246094 25.234375 13.566406 25.4375 13.773438 C 25.644531 13.976562 25.964844 13.96875 26.160156 13.773438 Z M 26.160156 13.773438 "/>
<path style=" stroke:none;fill-rule:nonzero;fill:rgb(0%,0%,0%);fill-opacity:1;" d="M 39.761719 16.488281 C 39.894531 16.488281 40.03125 16.4375 40.125 16.335938 C 40.328125 16.132812 40.328125 15.8125 40.125 15.605469 C 38.507812 13.992188 36.355469 13.097656 34.0625 13.097656 C 31.773438 13.097656 29.617188 13.992188 28.003906 15.605469 C 27.796875 15.8125 27.796875 16.132812 28.003906 16.335938 C 28.207031 16.539062 28.527344 16.539062 28.730469 16.335938 C 30.15625 14.910156 32.050781 14.128906 34.070312 14.128906 C 36.089844 14.128906 37.984375 14.910156 39.402344 16.335938 C 39.496094 16.4375 39.628906 16.488281 39.761719 16.488281 Z M 39.761719 16.488281 "/>
<path style=" stroke:none;fill-rule:nonzero;fill:rgb(0%,0%,0%);fill-opacity:1;" d="M 37.199219 19.050781 C 37.328125 19.050781 37.464844 19.003906 37.5625 18.898438 C 37.765625 18.695312 37.765625 18.375 37.5625 18.171875 C 36.628906 17.238281 35.386719 16.71875 34.0625 16.71875 C 32.742188 16.71875 31.5 17.238281 30.566406 18.171875 C 30.363281 18.375 30.363281 18.695312 30.566406 18.898438 C 30.769531 19.105469 31.089844 19.105469 31.296875 18.898438 C 32.039062 18.15625 33.019531 17.753906 34.070312 17.753906 C 35.121094 17.753906 36.101562 18.164062 36.839844 18.898438 C 36.933594 19.003906 37.0625 19.050781 37.199219 19.050781 Z M 37.199219 19.050781 "/>
<path style=" stroke:none;fill-rule:nonzero;fill:rgb(0%,0%,0%);fill-opacity:1;" d="M 34.0625 19.539062 C 33.523438 19.539062 33.019531 19.753906 32.636719 20.132812 C 31.855469 20.917969 31.855469 22.191406 32.636719 22.976562 C 33.019531 23.359375 33.523438 23.570312 34.0625 23.570312 L 34.070312 23.570312 C 34.601562 23.570312 35.105469 23.359375 35.480469 22.976562 C 35.863281 22.59375 36.074219 22.089844 36.074219 21.558594 C 36.074219 21.019531 35.863281 20.515625 35.480469 20.140625 C 35.105469 19.757812 34.601562 19.546875 34.0625 19.539062 Z M 35.046875 21.558594 C 35.046875 21.816406 34.941406 22.0625 34.757812 22.246094 C 34.757812 22.246094 34.757812 22.246094 34.753906 22.253906 C 34.566406 22.4375 34.324219 22.539062 34.0625 22.539062 C 33.804688 22.539062 33.550781 22.4375 33.367188 22.246094 C 32.988281 21.867188 32.988281 21.246094 33.367188 20.863281 C 33.558594 20.671875 33.804688 20.570312 34.0625 20.570312 C 34.324219 20.570312 34.566406 20.671875 34.753906 20.863281 C 34.941406 21.054688 35.046875 21.300781 35.046875 21.558594 Z M 35.046875 21.558594 "/>
<path style=" stroke:none;fill-rule:nonzero;fill:rgb(0%,0%,0%);fill-opacity:1;" d="M 3.019531 11.5625 C 3.265625 11.421875 3.355469 11.105469 3.210938 10.863281 C 1.976562 8.707031 1.71875 7.546875 1.71875 6.953125 C 1.71875 4.085938 4.058594 1.746094 6.925781 1.746094 C 9.796875 1.746094 12.128906 4.085938 12.128906 6.953125 C 12.128906 9.203125 8.6875 14.03125 6.925781 16.246094 C 6.429688 15.621094 5.535156 14.453125 4.636719 13.125 C 4.480469 12.894531 4.160156 12.824219 3.921875 12.988281 C 3.683594 13.152344 3.621094 13.464844 3.785156 13.703125 C 5.160156 15.738281 6.519531 17.378906 6.53125 17.398438 C 6.628906 17.515625 6.777344 17.589844 6.925781 17.589844 C 7.085938 17.589844 7.226562 17.523438 7.324219 17.398438 C 7.5625 17.113281 13.160156 10.269531 13.160156 6.953125 C 13.160156 3.511719 10.363281 0.714844 6.925781 0.714844 C 3.484375 0.710938 0.683594 3.511719 0.683594 6.949219 C 0.683594 8.011719 1.214844 9.457031 2.3125 11.371094 C 2.453125 11.617188 2.769531 11.707031 3.019531 11.5625 Z M 3.019531 11.5625 "/>
<path style=" stroke:none;fill-rule:nonzero;fill:rgb(0%,0%,0%);fill-opacity:1;" d="M 6.921875 9.914062 C 8.660156 9.914062 10.078125 8.496094 10.078125 6.757812 C 10.078125 5.019531 8.660156 3.601562 6.921875 3.601562 C 5.183594 3.601562 3.757812 5.011719 3.757812 6.75 C 3.757812 8.488281 5.175781 9.914062 6.921875 9.914062 Z M 6.921875 4.621094 C 8.09375 4.621094 9.046875 5.578125 9.046875 6.75 C 9.046875 7.921875 8.09375 8.878906 6.921875 8.878906 C 5.746094 8.878906 4.792969 7.921875 4.792969 6.75 C 4.785156 5.578125 5.746094 4.621094 6.921875 4.621094 Z M 6.921875 4.621094 "/>
<path style=" stroke:none;fill-rule:nonzero;fill:rgb(0%,0%,0%);fill-opacity:1;" d="M 43.800781 43.261719 L 36.410156 43.261719 C 37.382812 42.449219 38.011719 41.230469 38.011719 39.859375 C 38.011719 39.257812 37.886719 38.679688 37.671875 38.160156 L 42.886719 38.160156 C 43.105469 38.160156 43.28125 38.339844 43.28125 38.558594 L 43.28125 38.953125 C 43.28125 39.171875 43.105469 39.347656 42.886719 39.347656 L 39.574219 39.347656 C 39.285156 39.347656 39.054688 39.578125 39.054688 39.867188 C 39.054688 40.152344 39.285156 40.382812 39.574219 40.382812 L 42.886719 40.382812 C 43.671875 40.382812 44.3125 39.742188 44.3125 38.960938 L 44.3125 38.5625 C 44.3125 37.78125 43.671875 37.136719 42.886719 37.136719 L 42.710938 37.136719 L 42.710938 34.957031 C 42.832031 32.753906 41.835938 31.480469 40.976562 30.796875 C 40.273438 30.246094 39.375 29.890625 38.386719 29.78125 L 32.480469 29.105469 C 32.222656 29.078125 31.992188 28.9375 31.847656 28.710938 C 30.574219 26.636719 29.699219 25.125 29.394531 24.464844 C 28.996094 23.617188 28.5 22.964844 27.921875 22.527344 C 27.007812 21.824219 25.8125 21.441406 24.574219 21.441406 L 23.460938 21.441406 C 23.175781 21.441406 22.941406 21.675781 22.941406 21.960938 C 22.941406 22.246094 23.175781 22.480469 23.460938 22.480469 L 24.574219 22.480469 C 25.59375 22.480469 26.558594 22.785156 27.300781 23.351562 C 27.742188 23.6875 28.136719 24.210938 28.460938 24.90625 C 28.875 25.800781 30.054688 27.769531 30.976562 29.261719 C 31.28125 29.761719 31.792969 30.082031 32.371094 30.144531 L 38.039062 30.789062 C 37.964844 31.070312 37.914062 31.355469 37.914062 31.644531 C 37.914062 33.410156 39.355469 34.839844 41.121094 34.839844 C 41.3125 34.839844 41.496094 34.8125 41.679688 34.785156 L 41.679688 37.152344 L 37.0625 37.152344 C 36.253906 36.117188 34.992188 35.449219 33.578125 35.449219 C 32.167969 35.449219 30.914062 36.117188 30.101562 37.152344 L 15.382812 37.152344 C 15.09375 37.152344 14.863281 37.382812 14.863281 37.671875 C 14.863281 37.957031 15.09375 38.1875 15.382812 38.1875 L 29.496094 38.1875 C 29.277344 38.714844 29.15625 39.285156 29.15625 39.886719 C 29.15625 41.25 29.773438 42.46875 30.75 43.289062 L 13.226562 43.289062 C 14.078125 42.578125 14.660156 41.558594 14.789062 40.398438 L 27.867188 40.398438 C 28.152344 40.398438 28.382812 40.164062 28.382812 39.878906 C 28.382812 39.59375 28.152344 39.363281 27.867188 39.363281 L 14.789062 39.363281 C 14.53125 37.160156 12.660156 35.449219 10.398438 35.449219 C 8.128906 35.449219 6.257812 37.160156 6 39.363281 L 2.304688 39.363281 C 1.976562 39.363281 1.710938 39.09375 1.710938 38.769531 C 1.710938 38.441406 1.976562 38.175781 2.304688 38.175781 L 4.96875 38.175781 C 5.257812 38.175781 5.488281 37.941406 5.488281 37.65625 C 5.488281 37.371094 5.257812 37.136719 4.96875 37.136719 L 3.15625 37.136719 L 3.15625 36.175781 L 4.269531 36.175781 C 5.269531 36.175781 6.089844 35.359375 6.089844 34.355469 C 6.089844 33.347656 5.269531 32.53125 4.269531 32.53125 L 3.15625 32.53125 L 3.15625 31.992188 C 3.191406 31.8125 3.429688 30.988281 4.601562 30.878906 C 7.003906 30.648438 8.277344 26.851562 8.613281 25.691406 C 9.300781 23.316406 11.71875 22.472656 13.589844 22.472656 L 21.089844 22.472656 C 21.375 22.472656 21.605469 22.242188 21.605469 21.953125 C 21.605469 21.667969 21.375 21.4375 21.089844 21.4375 L 13.589844 21.4375 C 11.367188 21.4375 8.476562 22.472656 7.621094 25.398438 C 7.5625 25.609375 7.492188 25.828125 7.417969 26.046875 C 7.433594 25.996094 7.445312 25.957031 7.445312 25.910156 L 7.445312 24.722656 C 7.445312 24.4375 7.214844 24.203125 6.925781 24.203125 C 6.640625 24.203125 6.410156 24.4375 6.410156 24.722656 L 6.410156 25.910156 C 6.410156 26.195312 6.640625 26.425781 6.925781 26.425781 C 7.132812 26.425781 7.300781 26.304688 7.382812 26.132812 C 7.261719 26.488281 7.117188 26.835938 6.96875 27.183594 C 6.953125 27.183594 6.941406 27.175781 6.925781 27.175781 C 6.640625 27.175781 6.410156 27.410156 6.410156 27.695312 L 6.410156 28.253906 C 5.871094 29.132812 5.214844 29.789062 4.5 29.855469 C 2.84375 30 2.222656 31.234375 2.128906 31.863281 C 2.128906 31.886719 2.121094 31.910156 2.121094 31.9375 L 2.121094 37.144531 C 1.316406 37.242188 0.683594 37.914062 0.683594 38.746094 C 0.683594 39.640625 1.410156 40.371094 2.304688 40.371094 L 6 40.371094 C 6.136719 41.53125 6.714844 42.550781 7.566406 43.261719 L 1.199219 43.261719 C 0.914062 43.261719 0.683594 43.492188 0.683594 43.773438 C 0.683594 44.058594 0.914062 44.289062 1.199219 44.289062 L 43.808594 44.289062 C 44.09375 44.289062 44.324219 44.058594 44.324219 43.773438 C 44.316406 43.492188 44.085938 43.261719 43.800781 43.261719 Z M 38.945312 31.628906 C 38.945312 31.40625 38.980469 31.179688 39.046875 30.96875 C 39.53125 31.113281 39.96875 31.316406 40.335938 31.601562 C 41.019531 32.148438 41.441406 32.863281 41.605469 33.742188 C 41.449219 33.777344 41.285156 33.796875 41.121094 33.796875 C 39.921875 33.789062 38.945312 32.824219 38.945312 31.628906 Z M 30.183594 39.859375 C 30.183594 37.984375 31.703125 36.457031 33.578125 36.457031 C 35.453125 36.457031 36.980469 37.984375 36.980469 39.859375 C 36.980469 41.726562 35.453125 43.253906 33.578125 43.253906 C 31.703125 43.253906 30.183594 41.734375 30.183594 39.859375 Z M 4.269531 33.550781 C 4.703125 33.550781 5.058594 33.90625 5.058594 34.351562 C 5.058594 34.785156 4.703125 35.132812 4.269531 35.132812 L 3.15625 35.132812 L 3.15625 33.550781 Z M 6.996094 39.859375 C 6.996094 37.984375 8.523438 36.457031 10.398438 36.457031 C 12.265625 36.457031 13.792969 37.984375 13.792969 39.859375 C 13.792969 41.726562 12.273438 43.253906 10.398438 43.253906 C 8.523438 43.253906 6.996094 41.734375 6.996094 39.859375 Z M 6.996094 39.859375 "/>
<path style=" stroke:none;fill-rule:nonzero;fill:rgb(0%,0%,0%);fill-opacity:1;" d="M 10.398438 41.773438 C 11.453125 41.773438 12.320312 40.914062 12.320312 39.851562 C 12.320312 38.796875 11.460938 37.929688 10.398438 37.929688 C 9.339844 37.929688 8.476562 38.789062 8.476562 39.851562 C 8.476562 40.914062 9.335938 41.773438 10.398438 41.773438 Z M 10.398438 38.964844 C 10.886719 38.964844 11.285156 39.367188 11.285156 39.859375 C 11.285156 40.351562 10.886719 40.746094 10.398438 40.746094 C 9.90625 40.746094 9.503906 40.351562 9.503906 39.859375 C 9.503906 39.367188 9.90625 38.964844 10.398438 38.964844 Z M 10.398438 38.964844 "/>
<path style=" stroke:none;fill-rule:nonzero;fill:rgb(0%,0%,0%);fill-opacity:1;" d="M 18.980469 27.203125 C 19.269531 27.203125 19.5 26.972656 19.5 26.6875 L 19.5 24.804688 L 25.0625 24.804688 C 25.378906 24.804688 25.671875 24.886719 25.8125 24.988281 C 25.8125 24.988281 25.910156 25.089844 26.046875 25.382812 C 26.121094 25.539062 26.289062 25.914062 26.78125 26.796875 C 26.917969 27.039062 27.238281 27.136719 27.484375 26.992188 C 27.730469 26.855469 27.816406 26.535156 27.683594 26.289062 C 27.203125 25.445312 27.046875 25.097656 26.980469 24.949219 C 26.742188 24.441406 26.550781 24.253906 26.46875 24.199219 C 26.113281 23.925781 25.617188 23.773438 25.0625 23.773438 L 13.105469 23.773438 C 13.003906 23.773438 10.621094 23.796875 10.152344 25.417969 C 9.769531 26.734375 9.074219 28.636719 7.910156 30.203125 C 7.792969 30.363281 7.773438 30.566406 7.863281 30.742188 C 7.949219 30.921875 8.128906 31.03125 8.324219 31.03125 L 29.652344 31.03125 C 29.851562 31.03125 30.027344 30.921875 30.117188 30.742188 C 30.203125 30.566406 30.183594 30.363281 30.066406 30.203125 C 30.035156 30.15625 30 30.117188 29.964844 30.074219 C 29.925781 30.027344 29.882812 29.980469 29.851562 29.925781 C 29.386719 29.167969 28.992188 28.519531 28.664062 27.96875 C 28.519531 27.722656 28.199219 27.640625 27.953125 27.789062 C 27.710938 27.933594 27.628906 28.253906 27.777344 28.5 C 28.035156 28.9375 28.335938 29.433594 28.683594 30 L 19.5 30 L 19.5 28.703125 C 19.5 28.417969 19.269531 28.1875 18.980469 28.1875 C 18.695312 28.1875 18.464844 28.417969 18.464844 28.703125 L 18.464844 30.007812 L 9.292969 30.007812 C 10.21875 28.511719 10.808594 26.890625 11.140625 25.710938 C 11.351562 24.988281 12.660156 24.8125 13.105469 24.8125 L 18.46875 24.8125 L 18.46875 26.691406 C 18.46875 26.972656 18.703125 27.203125 18.980469 27.203125 Z M 18.980469 27.203125 "/>
<path style=" stroke:none;fill-rule:nonzero;fill:rgb(0%,0%,0%);fill-opacity:1;" d="M 33.585938 41.773438 C 34.644531 41.773438 35.507812 40.914062 35.507812 39.851562 C 35.507812 38.796875 34.648438 37.929688 33.585938 37.929688 C 32.53125 37.929688 31.664062 38.789062 31.664062 39.851562 C 31.664062 40.914062 32.523438 41.773438 33.585938 41.773438 Z M 33.585938 38.964844 C 34.078125 38.964844 34.472656 39.367188 34.472656 39.859375 C 34.472656 40.351562 34.078125 40.746094 33.585938 40.746094 C 33.09375 40.746094 32.691406 40.351562 32.691406 39.859375 C 32.691406 39.367188 33.089844 38.964844 33.585938 38.964844 Z M 33.585938 38.964844 "/>
<path style=" stroke:none;fill-rule:nonzero;fill:rgb(0%,0%,0%);fill-opacity:1;" d="M 19.921875 32.058594 C 19.636719 32.058594 19.40625 32.289062 19.40625 32.578125 C 19.40625 32.863281 19.636719 33.09375 19.921875 33.09375 L 21.394531 33.09375 C 21.683594 33.09375 21.914062 32.863281 21.914062 32.578125 C 21.914062 32.289062 21.683594 32.058594 21.394531 32.058594 Z M 19.921875 32.058594 "/>
</g>
</svg>
