<?xml version="1.0" encoding="UTF-8"?>
<svg xmlns="http://www.w3.org/2000/svg" xmlns:xlink="http://www.w3.org/1999/xlink" width="70px" height="70px" viewBox="0 0 70 70" version="1.1">
<g id="surface1">
<path style=" stroke:none;fill-rule:nonzero;fill:rgb(0%,0%,0%);fill-opacity:1;" d="M 68.90625 14.054688 L 68.90625 35.257812 C 68.90625 35.367188 68.890625 35.464844 68.851562 35.558594 C 66.046875 43.804688 62.125 52.117188 57.1875 60.265625 L 58.023438 66.570312 C 58.09375 67.085938 57.722656 67.566406 57.203125 67.648438 C 57.164062 67.648438 57.121094 67.664062 57.082031 67.664062 C 56.601562 67.664062 56.191406 67.304688 56.136719 66.828125 L 55.261719 60.195312 C 55.234375 59.976562 55.277344 59.757812 55.398438 59.566406 C 60.320312 51.488281 64.230469 43.257812 67.019531 35.109375 L 67.019531 14.054688 C 67.019531 14 66.964844 13.945312 66.910156 13.945312 C 64.941406 13.945312 63.371094 15.542969 63.246094 17.664062 L 62.425781 31.949219 C 62.414062 32.128906 62.359375 32.304688 62.25 32.457031 L 55.496094 41.6875 L 54.003906 48.371094 C 53.894531 48.890625 53.375 49.21875 52.871094 49.09375 C 52.351562 48.984375 52.023438 48.464844 52.144531 47.960938 L 55.195312 33.972656 C 55.453125 32.757812 55.03125 31.71875 54.101562 31.335938 C 53.171875 30.953125 51.816406 31.210938 51.023438 33.152344 L 44.339844 49.574219 C 43.394531 51.882812 43.09375 54.207031 43.3125 57.378906 L 43.96875 66.625 C 44.011719 67.15625 43.613281 67.605469 43.082031 67.648438 C 42.5625 67.6875 42.097656 67.292969 42.054688 66.757812 L 41.398438 57.515625 C 41.152344 54.03125 41.507812 51.445312 42.5625 48.847656 L 49.246094 32.429688 C 50.476562 29.40625 52.992188 28.820312 54.824219 29.558594 C 56.628906 30.296875 57.546875 32.222656 57.082031 34.371094 L 56.492188 37.050781 L 60.527344 31.539062 L 61.332031 17.539062 C 61.511719 14.394531 63.902344 12.015625 66.898438 12.015625 C 68.003906 12.03125 68.90625 12.933594 68.90625 14.054688 Z M 20.753906 32.429688 C 19.523438 29.40625 17.007812 28.820312 15.191406 29.558594 C 13.371094 30.296875 12.46875 32.226562 12.933594 34.371094 L 13.523438 37.050781 L 9.488281 31.539062 L 8.683594 17.539062 C 8.503906 14.394531 6.109375 12.03125 3.117188 12.03125 C 1.996094 12.03125 1.09375 12.933594 1.09375 14.054688 L 1.09375 35.257812 C 1.09375 35.367188 1.109375 35.464844 1.148438 35.558594 C 3.9375 43.789062 7.863281 52.101562 12.8125 60.265625 L 11.976562 66.570312 C 11.910156 67.085938 12.277344 67.566406 12.796875 67.648438 C 12.835938 67.648438 12.878906 67.664062 12.921875 67.664062 C 13.398438 67.664062 13.808594 67.304688 13.863281 66.828125 L 14.738281 60.195312 C 14.765625 59.976562 14.726562 59.757812 14.601562 59.566406 C 9.667969 51.472656 5.757812 43.242188 2.980469 35.109375 L 2.980469 14.054688 C 2.980469 14 3.035156 13.945312 3.089844 13.945312 C 5.058594 13.945312 6.632812 15.542969 6.753906 17.664062 L 7.574219 31.949219 C 7.589844 32.128906 7.644531 32.304688 7.753906 32.457031 L 14.507812 41.6875 L 15.96875 48.371094 C 16.078125 48.890625 16.597656 49.21875 17.105469 49.09375 C 17.625 48.984375 17.953125 48.464844 17.828125 47.960938 L 14.78125 33.972656 C 14.519531 32.757812 14.945312 31.71875 15.875 31.335938 C 16.804688 30.953125 18.15625 31.210938 18.949219 33.152344 L 25.636719 49.574219 C 26.578125 51.882812 26.878906 54.207031 26.660156 57.378906 L 26.003906 66.625 C 25.960938 67.15625 26.359375 67.605469 26.894531 67.648438 C 27.414062 67.6875 27.875 67.292969 27.917969 66.757812 L 28.574219 57.515625 C 28.820312 54.03125 28.464844 51.445312 27.414062 48.847656 Z M 35.4375 44.585938 C 35.300781 44.652344 35.148438 44.695312 35 44.695312 C 34.851562 44.695312 34.699219 44.652344 34.5625 44.585938 C 30.449219 42.453125 27.371094 40.03125 25.429688 37.390625 C 23.734375 35.09375 22.941406 32.632812 23.132812 30.296875 C 23.203125 29.492188 23.378906 28.710938 23.667969 27.984375 L 14.070312 27.984375 C 13.535156 27.984375 13.113281 27.5625 13.113281 27.03125 L 13.113281 18.796875 C 13.113281 15.996094 15.449219 13.699219 18.390625 13.535156 C 17.460938 12.289062 16.96875 10.609375 16.96875 8.96875 C 16.96875 6.152344 19.265625 3.855469 22.082031 3.855469 C 24.898438 3.855469 27.195312 6.152344 27.195312 8.96875 C 27.195312 10.609375 26.703125 12.289062 25.773438 13.535156 C 26.429688 13.578125 27.085938 13.710938 27.699219 13.972656 C 28.671875 13.25 29.886719 12.796875 31.214844 12.757812 C 30.160156 11.429688 29.613281 9.570312 29.613281 7.78125 C 29.613281 4.785156 32.046875 2.363281 35.027344 2.363281 C 38.007812 2.363281 40.441406 4.796875 40.441406 7.78125 C 40.441406 9.570312 39.894531 11.429688 38.84375 12.757812 C 40.167969 12.796875 41.386719 13.246094 42.355469 13.972656 C 42.957031 13.726562 43.613281 13.578125 44.269531 13.535156 C 43.328125 12.289062 42.847656 10.609375 42.847656 8.96875 C 42.847656 6.152344 45.144531 3.855469 47.960938 3.855469 C 50.777344 3.855469 53.046875 6.152344 53.046875 8.96875 C 53.046875 10.609375 52.554688 12.289062 51.625 13.535156 C 54.566406 13.6875 56.902344 15.996094 56.902344 18.796875 L 56.902344 27.03125 C 56.902344 27.5625 56.480469 27.984375 55.945312 27.984375 L 46.347656 27.984375 C 46.636719 28.710938 46.8125 29.492188 46.882812 30.296875 C 47.058594 32.632812 46.265625 35.09375 44.585938 37.390625 C 42.628906 40.03125 39.566406 42.453125 35.4375 44.585938 Z M 51.296875 15.4375 L 44.570312 15.4375 C 44.296875 15.4375 44.023438 15.464844 43.765625 15.519531 C 44.285156 16.339844 44.570312 17.308594 44.570312 18.320312 L 44.570312 25.238281 C 44.828125 25.5 45.0625 25.773438 45.28125 26.058594 L 50.65625 26.058594 L 50.65625 20.835938 C 50.65625 20.304688 51.078125 19.878906 51.609375 19.878906 C 52.144531 19.878906 52.570312 20.304688 52.570312 20.835938 L 52.570312 26.058594 L 54.976562 26.058594 L 54.976562 18.785156 C 54.988281 16.941406 53.335938 15.4375 51.296875 15.4375 Z M 44.734375 8.96875 C 44.734375 10.855469 45.71875 13.523438 47.933594 13.523438 C 50.136719 13.523438 51.132812 10.855469 51.132812 8.96875 C 51.132812 7.207031 49.695312 5.769531 47.933594 5.769531 C 46.171875 5.769531 44.734375 7.207031 44.734375 8.96875 Z M 31.5 7.765625 C 31.5 9.832031 32.59375 12.742188 35 12.742188 C 37.40625 12.742188 38.5 9.832031 38.5 7.765625 C 38.5 5.839844 36.929688 4.265625 35 4.265625 C 33.074219 4.265625 31.5 5.839844 31.5 7.765625 Z M 27.34375 18.335938 L 27.34375 23.898438 C 27.589844 23.773438 27.851562 23.679688 28.109375 23.585938 C 28.535156 23.445312 28.972656 23.351562 29.394531 23.296875 L 29.394531 19.140625 C 29.394531 18.609375 29.820312 18.183594 30.351562 18.183594 C 30.886719 18.183594 31.308594 18.609375 31.308594 19.140625 L 31.308594 23.40625 C 32.484375 23.679688 33.566406 24.335938 34.441406 25.347656 L 35 25.976562 L 35.5625 25.347656 C 36.4375 24.347656 37.53125 23.691406 38.691406 23.40625 L 38.691406 19.140625 C 38.691406 18.609375 39.117188 18.183594 39.648438 18.183594 C 40.183594 18.183594 40.605469 18.609375 40.605469 19.140625 L 40.605469 23.296875 C 41.03125 23.339844 41.453125 23.433594 41.890625 23.585938 C 42.148438 23.664062 42.410156 23.773438 42.65625 23.898438 L 42.65625 18.335938 C 42.65625 16.3125 40.851562 14.65625 38.625 14.65625 L 31.390625 14.65625 C 29.164062 14.65625 27.34375 16.296875 27.34375 18.335938 Z M 18.867188 8.96875 C 18.867188 10.855469 19.851562 13.523438 22.066406 13.523438 C 24.28125 13.523438 25.265625 10.855469 25.265625 8.96875 C 25.265625 7.207031 23.832031 5.769531 22.066406 5.769531 C 20.304688 5.769531 18.867188 7.207031 18.867188 8.96875 Z M 24.71875 26.074219 C 24.9375 25.785156 25.183594 25.511719 25.429688 25.253906 L 25.429688 18.335938 C 25.429688 17.308594 25.730469 16.351562 26.234375 15.519531 C 25.976562 15.464844 25.703125 15.4375 25.429688 15.4375 L 18.703125 15.4375 C 16.664062 15.4375 15.011719 16.941406 15.011719 18.785156 L 15.011719 26.058594 L 17.417969 26.058594 L 17.417969 20.835938 C 17.417969 20.304688 17.84375 19.878906 18.375 19.878906 C 18.90625 19.878906 19.332031 20.304688 19.332031 20.835938 L 19.332031 26.058594 L 24.71875 26.058594 Z M 44.96875 30.433594 C 44.761719 27.742188 42.96875 25.964844 41.289062 25.402344 C 39.703125 24.867188 38.144531 25.320312 36.996094 26.621094 L 35.726562 28.070312 C 35.546875 28.273438 35.289062 28.398438 35 28.398438 C 34.710938 28.398438 34.46875 28.273438 34.273438 28.070312 L 33.003906 26.621094 C 32.171875 25.675781 31.132812 25.183594 30.007812 25.183594 C 29.585938 25.183594 29.148438 25.253906 28.710938 25.402344 C 27.027344 25.960938 25.238281 27.742188 25.03125 30.433594 C 24.703125 34.660156 28.328125 39.089844 35 42.644531 C 41.671875 39.089844 45.292969 34.660156 44.96875 30.433594 Z M 40.304688 32.414062 L 40.304688 35.546875 C 40.304688 36.078125 39.878906 36.503906 39.347656 36.503906 L 37.515625 36.503906 L 37.515625 38.335938 C 37.515625 38.867188 37.089844 39.292969 36.558594 39.292969 L 33.425781 39.292969 C 32.894531 39.292969 32.46875 38.867188 32.46875 38.335938 L 32.46875 36.503906 L 30.636719 36.503906 C 30.105469 36.503906 29.679688 36.078125 29.679688 35.546875 L 29.679688 32.414062 C 29.679688 31.882812 30.105469 31.460938 30.636719 31.460938 L 32.46875 31.460938 L 32.46875 29.625 C 32.46875 29.09375 32.894531 28.671875 33.425781 28.671875 L 36.558594 28.671875 C 37.089844 28.671875 37.515625 29.09375 37.515625 29.625 L 37.515625 31.460938 L 39.347656 31.460938 C 39.878906 31.460938 40.304688 31.882812 40.304688 32.414062 Z M 38.390625 33.375 L 36.558594 33.375 C 36.023438 33.375 35.601562 32.949219 35.601562 32.414062 L 35.601562 30.585938 L 34.382812 30.585938 L 34.382812 32.414062 C 34.382812 32.949219 33.960938 33.375 33.425781 33.375 L 31.59375 33.375 L 31.59375 34.589844 L 33.425781 34.589844 C 33.960938 34.589844 34.382812 35.015625 34.382812 35.546875 L 34.382812 37.378906 L 35.601562 37.378906 L 35.601562 35.546875 C 35.601562 35.015625 36.023438 34.589844 36.558594 34.589844 L 38.390625 34.589844 Z M 38.390625 33.375 "/>
</g>
</svg>
