<?xml version="1.0" encoding="UTF-8"?>
<svg xmlns="http://www.w3.org/2000/svg" xmlns:xlink="http://www.w3.org/1999/xlink" width="45px" height="45px" viewBox="0 0 45 45" version="1.1">
<g id="surface1">
<path style=" stroke:none;fill-rule:nonzero;fill:#21a96a;fill-opacity:1;" d="M 40.757812 8.070312 C 40.03125 8.070312 39.375 8.359375 38.886719 8.820312 C 38.222656 8.46875 37.429688 8.398438 36.699219 8.660156 C 35.285156 9.160156 34.542969 10.714844 35.046875 12.132812 C 37.378906 18.707031 37.25 18.316406 37.257812 18.417969 L 36.566406 19.214844 C 36.417969 18.703125 36.128906 18.238281 35.722656 17.871094 C 34.542969 16.800781 32.757812 16.859375 31.652344 18.003906 L 25.207031 24.664062 C 24.355469 25.542969 23.886719 26.703125 23.886719 27.929688 L 23.886719 33.53125 L 23.417969 33.53125 C 23.070312 33.53125 22.75 33.644531 22.484375 33.835938 C 22.222656 33.644531 21.902344 33.53125 21.554688 33.53125 L 21.085938 33.53125 L 21.085938 27.929688 C 21.085938 26.703125 20.617188 25.542969 19.765625 24.664062 L 13.320312 18.003906 C 12.214844 16.859375 10.429688 16.800781 9.25 17.871094 C 8.84375 18.238281 8.554688 18.703125 8.40625 19.214844 L 7.714844 18.417969 C 7.71875 18.375 7.726562 18.328125 7.742188 18.285156 L 9.925781 12.132812 C 10.757812 9.785156 8.257812 7.667969 6.085938 8.820312 C 4.363281 7.183594 1.496094 8.40625 1.496094 10.792969 L 1.496094 17.039062 C 1.496094 18.585938 2.003906 20.125 2.925781 21.359375 L 7.777344 28.035156 C 8.960938 29.660156 9.714844 31.546875 9.980469 33.53125 L 9.769531 33.53125 C 8.894531 33.53125 8.179688 34.242188 8.179688 35.121094 L 8.179688 43.410156 C 8.179688 44.285156 8.894531 45 9.769531 45 L 21.554688 45 C 21.902344 45 22.222656 44.886719 22.484375 44.695312 C 22.75 44.886719 23.070312 45 23.417969 45 L 35.203125 45 C 36.078125 45 36.792969 44.285156 36.792969 43.410156 L 36.792969 42.539062 C 36.792969 42.171875 36.496094 41.878906 36.132812 41.878906 C 35.769531 41.878906 35.472656 42.171875 35.472656 42.539062 L 35.472656 43.410156 C 35.472656 43.558594 35.351562 43.679688 35.203125 43.679688 L 23.417969 43.679688 C 23.265625 43.679688 23.144531 43.558594 23.144531 43.410156 L 23.144531 38.316406 L 35.472656 38.316406 L 35.472656 39.460938 C 35.472656 39.824219 35.769531 40.121094 36.132812 40.121094 C 36.496094 40.121094 36.792969 39.824219 36.792969 39.460938 C 36.792969 38.5625 36.792969 36.019531 36.792969 35.121094 C 36.792969 34.242188 36.078125 33.53125 35.203125 33.53125 L 34.992188 33.53125 C 35.257812 31.546875 36.011719 29.660156 37.195312 28.035156 L 42.042969 21.363281 C 42.96875 20.125 43.476562 18.585938 43.476562 17.039062 L 43.476562 10.792969 C 43.476562 9.292969 42.257812 8.070312 40.757812 8.070312 Z M 8.683594 11.691406 L 6.933594 16.621094 L 6.933594 10.792969 C 6.933594 10.5 6.886719 10.210938 6.796875 9.941406 C 7.90625 9.449219 9.097656 10.523438 8.683594 11.691406 Z M 8.84375 27.257812 L 3.988281 20.574219 C 3.230469 19.5625 2.8125 18.304688 2.8125 17.039062 L 2.8125 10.792969 C 2.8125 10.019531 3.441406 9.390625 4.214844 9.390625 C 4.988281 9.390625 5.617188 10.023438 5.617188 10.792969 L 5.617188 17.320312 C 5.617188 17.785156 5.792969 18.222656 6.074219 18.542969 C 10.511719 23.644531 7.75 20.601562 12.804688 26.066406 C 13.050781 26.335938 13.46875 26.351562 13.738281 26.101562 C 14.003906 25.855469 14.019531 25.4375 13.773438 25.171875 C 10.109375 21.207031 10.882812 22.058594 9.828125 20.847656 C 9.457031 20.214844 9.554688 19.375 10.136719 18.847656 C 10.785156 18.261719 11.765625 18.292969 12.375 18.921875 L 18.816406 25.578125 C 19.429688 26.214844 19.765625 27.046875 19.765625 27.929688 L 19.765625 33.53125 L 11.3125 33.53125 C 11.039062 31.265625 10.191406 29.109375 8.84375 27.257812 Z M 21.828125 43.410156 C 21.828125 43.558594 21.707031 43.679688 21.554688 43.679688 L 9.769531 43.679688 C 9.621094 43.679688 9.5 43.558594 9.5 43.410156 L 9.5 38.316406 L 21.828125 38.316406 Z M 21.828125 37 L 9.5 37 L 9.5 35.121094 C 9.5 34.972656 9.621094 34.847656 9.769531 34.847656 L 21.554688 34.847656 C 21.707031 34.847656 21.828125 34.972656 21.828125 35.121094 Z M 36.289062 11.691406 C 36.03125 10.960938 36.410156 10.160156 37.140625 9.902344 C 37.480469 9.78125 37.847656 9.796875 38.175781 9.941406 C 38.085938 10.210938 38.039062 10.503906 38.039062 10.792969 L 38.039062 16.621094 Z M 35.203125 34.847656 C 35.351562 34.847656 35.472656 34.972656 35.472656 35.121094 L 35.472656 37 L 23.144531 37 L 23.144531 35.121094 C 23.144531 34.972656 23.265625 34.847656 23.417969 34.847656 Z M 42.160156 17.039062 C 42.160156 18.304688 41.742188 19.5625 40.980469 20.582031 L 36.128906 27.257812 C 34.78125 29.109375 33.933594 31.265625 33.660156 33.53125 L 25.207031 33.53125 L 25.207031 27.929688 C 25.207031 27.046875 25.542969 26.214844 26.15625 25.578125 L 32.597656 18.921875 C 33.207031 18.292969 34.1875 18.261719 34.835938 18.847656 C 35.417969 19.375 35.515625 20.21875 35.144531 20.847656 C 34.089844 22.058594 34.863281 21.207031 31.199219 25.171875 C 30.953125 25.4375 30.96875 25.855469 31.234375 26.101562 C 31.503906 26.351562 31.917969 26.335938 32.167969 26.066406 C 37.285156 20.53125 34.6875 23.378906 38.769531 18.691406 C 38.917969 18.519531 39.355469 18.085938 39.355469 17.320312 L 39.355469 10.792969 C 39.355469 10.019531 39.984375 9.390625 40.757812 9.390625 C 41.53125 9.390625 42.160156 10.019531 42.160156 10.792969 Z M 42.160156 17.039062 "/>
<path style=" stroke:none;fill-rule:nonzero;fill:rgb(0%,0%,0%);fill-opacity:1;" d="M 23.953125 14.882812 C 23.589844 14.882812 23.292969 15.179688 23.292969 15.542969 C 23.292969 15.90625 23.589844 16.203125 23.953125 16.203125 L 32.425781 16.203125 C 33.0625 16.203125 33.578125 15.683594 33.578125 15.050781 L 33.578125 11.769531 C 33.578125 10.089844 32.621094 8.628906 31.222656 7.90625 C 31.726562 7.398438 32.039062 6.695312 32.039062 5.925781 C 32.039062 4.375 30.777344 3.113281 29.226562 3.113281 C 27.679688 3.113281 26.417969 4.375 26.417969 5.925781 C 26.417969 6.695312 26.730469 7.394531 27.234375 7.90625 C 27.171875 7.9375 27.109375 7.972656 27.046875 8.007812 C 26.507812 7.058594 25.679688 6.292969 24.6875 5.832031 C 25.378906 5.21875 25.816406 4.328125 25.816406 3.332031 C 25.816406 1.496094 24.324219 0 22.484375 0 C 20.648438 0 19.15625 1.496094 19.15625 3.332031 C 19.15625 4.328125 19.59375 5.21875 20.285156 5.832031 C 19.289062 6.292969 18.464844 7.058594 17.925781 8.007812 C 17.863281 7.972656 17.800781 7.9375 17.738281 7.90625 C 18.242188 7.394531 18.554688 6.695312 18.554688 5.925781 C 18.554688 4.375 17.292969 3.113281 15.742188 3.113281 C 14.191406 3.113281 12.929688 4.375 12.929688 5.925781 C 12.929688 6.695312 13.242188 7.398438 13.75 7.90625 C 12.351562 8.628906 11.390625 10.089844 11.390625 11.769531 L 11.390625 15.050781 C 11.390625 15.683594 11.910156 16.203125 12.546875 16.203125 L 20.878906 16.203125 C 21.242188 16.203125 21.535156 15.90625 21.535156 15.542969 C 21.535156 15.179688 21.242188 14.882812 20.878906 14.882812 L 18.5625 14.882812 L 18.5625 10.585938 C 18.5625 8.433594 20.3125 6.664062 22.484375 6.664062 C 24.652344 6.664062 26.410156 8.429688 26.410156 10.585938 L 26.410156 14.882812 Z M 29.226562 4.433594 C 30.050781 4.433594 30.722656 5.101562 30.722656 5.925781 C 30.722656 6.75 30.050781 7.417969 29.226562 7.417969 C 28.40625 7.417969 27.734375 6.75 27.734375 5.925781 C 27.734375 5.101562 28.40625 4.433594 29.226562 4.433594 Z M 32.261719 11.769531 L 32.261719 14.882812 L 27.726562 14.882812 L 27.726562 10.585938 C 27.726562 10.117188 27.664062 9.65625 27.554688 9.242188 C 29.566406 7.90625 32.261719 9.359375 32.261719 11.769531 Z M 15.742188 4.433594 C 16.566406 4.433594 17.238281 5.101562 17.238281 5.925781 C 17.238281 6.75 16.566406 7.417969 15.742188 7.417969 C 14.917969 7.417969 14.25 6.75 14.25 5.925781 C 14.25 5.101562 14.917969 4.433594 15.742188 4.433594 Z M 17.242188 10.585938 L 17.242188 14.882812 L 12.710938 14.882812 L 12.710938 11.769531 C 12.710938 9.363281 15.40625 7.90625 17.417969 9.242188 C 17.308594 9.652344 17.242188 10.117188 17.242188 10.585938 Z M 22.484375 5.34375 C 21.375 5.34375 20.472656 4.441406 20.472656 3.332031 C 20.472656 2.222656 21.375 1.316406 22.484375 1.316406 C 23.597656 1.316406 24.5 2.222656 24.5 3.332031 C 24.5 4.441406 23.597656 5.34375 22.484375 5.34375 Z M 22.484375 5.34375 "/>
</g>
</svg>
