<?xml version="1.0" encoding="UTF-8"?>
<svg xmlns="http://www.w3.org/2000/svg" xmlns:xlink="http://www.w3.org/1999/xlink" width="40px" height="40px" viewBox="0 0 40 40" version="1.1">
<g id="surface1">
<path style=" stroke:none;fill-rule:nonzero;fill:rgb(0%,0%,0%);fill-opacity:1;" d="M 32.523438 12.523438 C 30.835938 12.523438 29.273438 13.089844 28.019531 14.039062 L 25.960938 11.980469 C 26.910156 10.726562 27.476562 9.164062 27.476562 7.476562 C 27.476562 5.558594 26.75 3.738281 25.4375 2.34375 C 25.214844 2.109375 24.84375 2.097656 24.609375 2.320312 C 24.375 2.542969 24.363281 2.914062 24.585938 3.148438 C 25.691406 4.324219 26.300781 5.859375 26.300781 7.472656 C 26.300781 10.949219 23.476562 13.777344 20 13.777344 C 16.523438 13.777344 13.695312 10.949219 13.695312 7.472656 C 13.695312 4 16.523438 1.171875 20 1.171875 C 20.917969 1.171875 21.804688 1.363281 22.628906 1.746094 C 22.925781 1.878906 23.273438 1.75 23.40625 1.457031 C 23.542969 1.164062 23.414062 0.816406 23.121094 0.679688 C 22.136719 0.230469 21.089844 0 20 0 C 15.878906 0 12.523438 3.351562 12.523438 7.476562 C 12.523438 9.324219 13.203125 11.019531 14.320312 12.328125 L 12.328125 14.320312 C 11.019531 13.199219 9.324219 12.523438 7.476562 12.523438 C 3.355469 12.523438 0 15.878906 0 20 C 0 24.121094 3.355469 27.472656 7.476562 27.472656 C 9.164062 27.472656 10.726562 26.910156 11.980469 25.960938 L 14.039062 28.015625 C 13.519531 28.703125 13.117188 29.484375 12.855469 30.328125 C 11.644531 34.265625 13.863281 38.457031 17.800781 39.667969 C 18.53125 39.894531 19.269531 40 19.996094 40 C 23.191406 40 26.15625 37.933594 27.144531 34.722656 C 27.730469 32.8125 27.539062 30.792969 26.605469 29.027344 C 26.347656 28.535156 26.035156 28.082031 25.683594 27.667969 L 27.671875 25.679688 C 28.980469 26.796875 30.675781 27.472656 32.523438 27.472656 C 36.648438 27.472656 40 24.121094 40 20 C 40 15.878906 36.644531 12.523438 32.523438 12.523438 Z M 1.171875 20 C 1.171875 16.523438 4 13.695312 7.476562 13.695312 C 10.949219 13.695312 13.777344 16.523438 13.777344 20 C 13.777344 23.476562 10.949219 26.300781 7.476562 26.300781 C 4 26.300781 1.171875 23.476562 1.171875 20 Z M 26.023438 34.378906 C 25.003906 37.699219 21.46875 39.570312 18.144531 38.546875 C 14.824219 37.527344 12.953125 33.992188 13.976562 30.671875 C 14.449219 29.128906 15.484375 27.839844 16.890625 27.042969 C 17.171875 26.882812 17.269531 26.527344 17.109375 26.242188 C 16.949219 25.960938 16.59375 25.863281 16.3125 26.023438 C 15.761719 26.335938 15.261719 26.710938 14.816406 27.140625 L 12.859375 25.179688 C 14.152344 23.835938 14.949219 22.007812 14.949219 20 C 14.949219 18.148438 14.273438 16.453125 13.15625 15.148438 L 15.148438 13.15625 C 16.453125 14.273438 18.148438 14.949219 20 14.949219 C 22.007812 14.949219 23.835938 14.152344 25.179688 12.859375 L 27.140625 14.820312 C 25.847656 16.164062 25.050781 17.992188 25.050781 20 C 25.050781 21.851562 25.726562 23.546875 26.84375 24.851562 L 24.855469 26.839844 C 24.089844 26.183594 23.191406 25.6875 22.199219 25.378906 C 21.15625 25.058594 20.085938 24.96875 19.015625 25.113281 C 18.695312 25.15625 18.46875 25.449219 18.511719 25.773438 C 18.554688 26.09375 18.851562 26.316406 19.171875 26.273438 C 20.074219 26.15625 20.976562 26.230469 21.855469 26.5 C 23.460938 26.996094 24.78125 28.085938 25.570312 29.574219 C 26.359375 31.0625 26.519531 32.769531 26.023438 34.378906 Z M 32.523438 26.300781 C 29.050781 26.300781 26.222656 23.476562 26.222656 20 C 26.222656 16.523438 29.050781 13.695312 32.523438 13.695312 C 36 13.695312 38.828125 16.523438 38.828125 20 C 38.828125 23.476562 36 26.300781 32.523438 26.300781 Z M 32.523438 26.300781 "/>
<path style=" stroke:none;fill-rule:nonzero;fill:rgb(0%,0%,0%);fill-opacity:1;" d="M 18.222656 6.484375 C 18.371094 6.773438 18.722656 6.890625 19.011719 6.746094 C 19.300781 6.597656 19.417969 6.246094 19.269531 5.957031 C 18.980469 5.382812 18.28125 5.011719 17.496094 5.011719 C 16.707031 5.011719 16.011719 5.382812 15.71875 5.957031 C 15.574219 6.246094 15.6875 6.597656 15.976562 6.746094 C 16.0625 6.789062 16.152344 6.808594 16.242188 6.808594 C 16.457031 6.808594 16.664062 6.691406 16.765625 6.484375 C 16.839844 6.339844 17.121094 6.183594 17.496094 6.183594 C 17.867188 6.183594 18.148438 6.339844 18.222656 6.484375 Z M 18.222656 6.484375 "/>
<path style=" stroke:none;fill-rule:nonzero;fill:rgb(0%,0%,0%);fill-opacity:1;" d="M 20.730469 5.957031 C 20.582031 6.246094 20.699219 6.597656 20.988281 6.746094 C 21.277344 6.890625 21.628906 6.773438 21.777344 6.484375 C 21.851562 6.339844 22.132812 6.183594 22.503906 6.183594 C 22.878906 6.183594 23.160156 6.339844 23.234375 6.484375 C 23.335938 6.691406 23.542969 6.808594 23.757812 6.808594 C 23.847656 6.808594 23.9375 6.789062 24.023438 6.746094 C 24.3125 6.597656 24.425781 6.246094 24.28125 5.957031 C 23.988281 5.382812 23.292969 5.011719 22.503906 5.011719 C 21.71875 5.011719 21.019531 5.382812 20.730469 5.957031 Z M 20.730469 5.957031 "/>
<path style=" stroke:none;fill-rule:nonzero;fill:rgb(0%,0%,0%);fill-opacity:1;" d="M 20 11.191406 C 21.34375 11.191406 22.523438 10.652344 23.011719 9.820312 C 23.175781 9.539062 23.078125 9.179688 22.800781 9.015625 C 22.519531 8.855469 22.164062 8.949219 22 9.226562 C 21.777344 9.609375 21.054688 10.019531 20 10.019531 C 18.945312 10.019531 18.222656 9.609375 18 9.226562 C 17.839844 8.949219 17.480469 8.855469 17.199219 9.015625 C 16.921875 9.179688 16.824219 9.539062 16.988281 9.820312 C 17.476562 10.652344 18.65625 11.191406 20 11.191406 Z M 20 11.191406 "/>
<path style=" stroke:none;fill-rule:nonzero;fill:rgb(0%,0%,0%);fill-opacity:1;" d="M 24.023438 30.75 C 23.734375 30.601562 23.378906 30.71875 23.234375 31.007812 C 23.160156 31.15625 22.878906 31.3125 22.503906 31.3125 C 22.132812 31.3125 21.851562 31.15625 21.777344 31.007812 C 21.628906 30.71875 21.277344 30.601562 20.988281 30.75 C 20.699219 30.894531 20.582031 31.246094 20.730469 31.535156 C 21.019531 32.113281 21.71875 32.484375 22.503906 32.484375 C 23.292969 32.484375 23.988281 32.113281 24.28125 31.535156 C 24.425781 31.246094 24.308594 30.894531 24.023438 30.75 Z M 24.023438 30.75 "/>
<path style=" stroke:none;fill-rule:nonzero;fill:rgb(0%,0%,0%);fill-opacity:1;" d="M 19.269531 31.535156 C 19.417969 31.246094 19.300781 30.894531 19.011719 30.75 C 18.722656 30.601562 18.371094 30.71875 18.222656 31.007812 C 18.148438 31.15625 17.867188 31.3125 17.496094 31.3125 C 17.121094 31.3125 16.839844 31.15625 16.765625 31.007812 C 16.621094 30.71875 16.265625 30.601562 15.976562 30.75 C 15.691406 30.894531 15.574219 31.246094 15.71875 31.535156 C 16.011719 32.113281 16.707031 32.484375 17.496094 32.484375 C 18.28125 32.484375 18.980469 32.113281 19.269531 31.535156 Z M 19.269531 31.535156 "/>
<path style=" stroke:none;fill-rule:nonzero;fill:rgb(0%,0%,0%);fill-opacity:1;" d="M 20 33.988281 C 18.65625 33.988281 17.476562 34.527344 16.988281 35.359375 C 16.824219 35.640625 16.921875 36 17.199219 36.160156 C 17.480469 36.324219 17.835938 36.230469 18 35.953125 C 18.222656 35.570312 18.945312 35.160156 20 35.160156 C 21.054688 35.160156 21.777344 35.570312 22 35.953125 C 22.109375 36.136719 22.304688 36.242188 22.503906 36.242188 C 22.605469 36.242188 22.707031 36.214844 22.800781 36.160156 C 23.078125 36 23.175781 35.640625 23.011719 35.359375 C 22.523438 34.527344 21.34375 33.988281 20 33.988281 Z M 20 33.988281 "/>
<path style=" stroke:none;fill-rule:nonzero;fill:rgb(0%,0%,0%);fill-opacity:1;" d="M 7.476562 21.460938 C 6.132812 21.460938 4.953125 22 4.464844 22.835938 C 4.300781 23.113281 4.394531 23.472656 4.675781 23.636719 C 4.953125 23.800781 5.3125 23.707031 5.476562 23.425781 C 5.699219 23.042969 6.417969 22.632812 7.476562 22.632812 C 8.53125 22.632812 9.25 23.042969 9.472656 23.425781 C 9.582031 23.613281 9.777344 23.71875 9.980469 23.71875 C 10.082031 23.71875 10.183594 23.691406 10.273438 23.636719 C 10.554688 23.472656 10.648438 23.113281 10.484375 22.835938 C 10 22 8.816406 21.460938 7.476562 21.460938 Z M 7.476562 21.460938 "/>
<path style=" stroke:none;fill-rule:nonzero;fill:rgb(0%,0%,0%);fill-opacity:1;" d="M 5.597656 19.332031 C 5.8125 19.332031 6.019531 19.214844 6.121094 19.007812 C 6.265625 18.71875 6.148438 18.367188 5.859375 18.222656 L 4.605469 17.597656 C 4.316406 17.453125 3.964844 17.570312 3.820312 17.859375 C 3.675781 18.148438 3.792969 18.5 4.082031 18.644531 L 5.335938 19.269531 C 5.417969 19.3125 5.507812 19.332031 5.597656 19.332031 Z M 5.597656 19.332031 "/>
<path style=" stroke:none;fill-rule:nonzero;fill:rgb(0%,0%,0%);fill-opacity:1;" d="M 10.34375 17.597656 L 9.09375 18.222656 C 8.800781 18.367188 8.683594 18.71875 8.828125 19.007812 C 8.933594 19.214844 9.140625 19.332031 9.355469 19.332031 C 9.441406 19.332031 9.53125 19.3125 9.617188 19.269531 L 10.867188 18.644531 C 11.15625 18.5 11.273438 18.148438 11.128906 17.859375 C 10.984375 17.570312 10.632812 17.453125 10.34375 17.597656 Z M 10.34375 17.597656 "/>
<path style=" stroke:none;fill-rule:nonzero;fill:rgb(0%,0%,0%);fill-opacity:1;" d="M 34.402344 21.917969 L 30.644531 21.917969 C 30.324219 21.917969 30.058594 22.179688 30.058594 22.503906 C 30.058594 22.828125 30.324219 23.089844 30.644531 23.089844 L 34.402344 23.089844 C 34.726562 23.089844 34.988281 22.828125 34.988281 22.503906 C 34.988281 22.179688 34.726562 21.917969 34.402344 21.917969 Z M 34.402344 21.917969 "/>
<path style=" stroke:none;fill-rule:nonzero;fill:rgb(0%,0%,0%);fill-opacity:1;" d="M 30.605469 19.375 L 30.605469 18.746094 C 30.605469 18.421875 30.34375 18.160156 30.019531 18.160156 C 29.695312 18.160156 29.433594 18.421875 29.433594 18.746094 L 29.433594 19.375 C 29.433594 19.695312 29.695312 19.960938 30.019531 19.960938 C 30.34375 19.960938 30.605469 19.695312 30.605469 19.375 Z M 30.605469 19.375 "/>
<path style=" stroke:none;fill-rule:nonzero;fill:rgb(0%,0%,0%);fill-opacity:1;" d="M 35.03125 18.160156 C 34.707031 18.160156 34.445312 18.421875 34.445312 18.746094 L 34.445312 19.375 C 34.445312 19.695312 34.707031 19.960938 35.03125 19.960938 C 35.355469 19.960938 35.617188 19.695312 35.617188 19.375 L 35.617188 18.746094 C 35.617188 18.421875 35.355469 18.160156 35.03125 18.160156 Z M 35.03125 18.160156 "/>
</g>
</svg>
