<?xml version="1.0" encoding="UTF-8"?>
<svg xmlns="http://www.w3.org/2000/svg" xmlns:xlink="http://www.w3.org/1999/xlink" width="40px" height="40px" viewBox="0 0 40 40" version="1.1">
<g id="surface1">
<path style=" stroke:none;fill-rule:nonzero;fill:rgb(0%,0%,0%);fill-opacity:1;" d="M 29.800781 33.625 C 29.746094 33.308594 29.441406 33.09375 29.125 33.148438 C 28.804688 33.203125 28.589844 33.507812 28.648438 33.828125 L 29.632812 39.515625 C 29.679688 39.800781 29.929688 40 30.207031 40 C 30.242188 40 30.273438 39.996094 30.308594 39.992188 C 30.628906 39.9375 30.839844 39.632812 30.785156 39.3125 Z M 29.800781 33.625 "/>
<path style=" stroke:none;fill-rule:nonzero;fill:rgb(0%,0%,0%);fill-opacity:1;" d="M 37.902344 7.242188 L 36.6875 7.054688 C 36.59375 6.773438 36.480469 6.5 36.351562 6.234375 L 37.074219 5.242188 C 37.648438 4.457031 37.566406 3.382812 36.875 2.691406 C 36.183594 2 35.109375 1.917969 34.320312 2.492188 L 33.332031 3.214844 C 33.066406 3.085938 32.792969 2.972656 32.511719 2.875 L 32.324219 1.664062 C 32.171875 0.699219 31.355469 0 30.378906 0 C 29.402344 0 28.582031 0.699219 28.433594 1.664062 L 28.242188 2.875 C 27.964844 2.972656 27.691406 3.085938 27.425781 3.214844 L 26.433594 2.492188 C 25.644531 1.917969 24.570312 2 23.878906 2.691406 C 23.714844 2.855469 23.585938 3.042969 23.488281 3.246094 C 21.613281 2.359375 19.542969 1.894531 17.457031 1.894531 C 17.453125 1.894531 17.449219 1.894531 17.445312 1.894531 C 14.429688 1.894531 11.554688 2.84375 9.125 4.640625 C 8.863281 4.832031 8.808594 5.199219 9 5.457031 C 9.117188 5.613281 9.292969 5.695312 9.472656 5.695312 C 9.59375 5.695312 9.714844 5.660156 9.820312 5.582031 C 12.046875 3.9375 14.683594 3.066406 17.449219 3.066406 L 17.457031 3.066406 C 19.503906 3.066406 21.53125 3.554688 23.34375 4.476562 C 23.398438 4.746094 23.511719 5.007812 23.683594 5.242188 L 24.40625 6.234375 C 24.296875 6.453125 24.203125 6.679688 24.117188 6.910156 C 23.378906 6.320312 22.511719 5.933594 21.574219 5.785156 C 21.058594 5.117188 20.273438 4.730469 19.417969 4.730469 C 19.097656 4.730469 18.777344 4.789062 18.476562 4.898438 C 17.925781 4.613281 17.316406 4.464844 16.691406 4.464844 C 15.65625 4.464844 14.679688 4.871094 13.953125 5.59375 C 13.6875 5.527344 13.410156 5.496094 13.136719 5.496094 C 11.417969 5.496094 9.992188 6.757812 9.734375 8.402344 C 8.492188 8.65625 7.554688 9.757812 7.554688 11.074219 C 7.554688 11.582031 7.695312 12.074219 7.957031 12.503906 C 7.695312 12.929688 7.554688 13.421875 7.554688 13.929688 C 7.554688 15.433594 8.777344 16.65625 10.28125 16.65625 C 10.363281 16.65625 10.441406 16.652344 10.523438 16.644531 C 10.929688 18.101562 12.277344 19.167969 13.835938 19.167969 C 14.355469 19.167969 14.863281 19.050781 15.324219 18.828125 C 16.027344 19.429688 16.925781 19.765625 17.855469 19.765625 C 18.011719 19.765625 18.164062 19.757812 18.320312 19.738281 L 19.261719 21.371094 C 19.703125 22.136719 19.9375 23.007812 19.9375 23.894531 L 19.9375 24.277344 C 19.9375 24.949219 20.484375 25.496094 21.152344 25.496094 L 22.417969 25.496094 C 23.089844 25.496094 23.632812 24.949219 23.632812 24.277344 L 23.632812 20.582031 C 25.820312 19.992188 27.484375 18.101562 27.707031 15.765625 C 27.808594 15.652344 27.898438 15.53125 27.984375 15.40625 C 28.070312 15.4375 28.15625 15.46875 28.242188 15.5 L 28.433594 16.710938 C 28.574219 17.621094 29.308594 18.292969 30.210938 18.367188 C 29.367188 22.988281 26.035156 26.855469 21.539062 28.347656 C 20.890625 28.5625 20.328125 28.953125 19.921875 29.484375 L 19.1875 30.4375 C 17.226562 32.980469 14.140625 34.496094 10.929688 34.496094 L 7.460938 34.496094 C 6.289062 34.496094 5.335938 33.542969 5.335938 32.371094 L 5.335938 30.234375 C 5.335938 30.023438 5.277344 29.820312 5.160156 29.636719 L 4.765625 29.027344 C 4.96875 28.796875 5.070312 28.492188 5.035156 28.179688 C 5 27.847656 4.816406 27.554688 4.535156 27.371094 L 4.113281 27.105469 L 4.457031 26.042969 C 4.507812 25.886719 4.492188 25.722656 4.414062 25.578125 C 4.335938 25.4375 4.203125 25.335938 4.046875 25.292969 L 1.847656 24.722656 C 1.679688 24.679688 1.578125 24.511719 1.613281 24.339844 C 1.617188 24.316406 1.628906 24.28125 1.65625 24.230469 L 3.636719 20.703125 C 4.191406 19.710938 4.488281 18.589844 4.488281 17.457031 L 4.488281 16.164062 C 4.488281 12.894531 5.691406 9.761719 7.882812 7.335938 C 8.101562 7.097656 8.082031 6.726562 7.84375 6.511719 C 7.601562 6.292969 7.230469 6.3125 7.015625 6.550781 C 4.628906 9.191406 3.316406 12.605469 3.316406 16.164062 L 3.316406 17.457031 C 3.316406 18.390625 3.074219 19.3125 2.617188 20.128906 L 0.632812 23.660156 C 0.550781 23.808594 0.492188 23.964844 0.460938 24.113281 C 0.3125 24.894531 0.792969 25.660156 1.554688 25.855469 L 3.152344 26.269531 L 2.980469 26.796875 C 2.824219 27.273438 3.011719 27.789062 3.433594 28.058594 L 3.828125 28.3125 C 3.523438 28.675781 3.484375 29.207031 3.75 29.613281 L 4.164062 30.253906 L 4.164062 32.371094 C 4.164062 34.1875 5.644531 35.667969 7.460938 35.667969 L 10.929688 35.667969 C 10.984375 35.667969 11.039062 35.667969 11.09375 35.664062 L 10.433594 39.308594 C 10.375 39.628906 10.589844 39.933594 10.90625 39.992188 C 10.941406 39.996094 10.976562 40 11.011719 40 C 11.289062 40 11.535156 39.800781 11.585938 39.519531 L 12.296875 35.585938 C 13.597656 35.429688 14.875 35.054688 16.046875 34.476562 C 17.628906 33.699219 19.035156 32.550781 20.113281 31.152344 L 20.847656 30.199219 C 21.113281 29.855469 21.480469 29.601562 21.90625 29.457031 C 23.972656 28.773438 25.8125 27.628906 27.320312 26.15625 L 28.179688 31.132812 C 28.230469 31.417969 28.476562 31.617188 28.757812 31.617188 C 28.789062 31.617188 28.824219 31.617188 28.855469 31.609375 C 29.175781 31.554688 29.390625 31.25 29.335938 30.933594 L 28.320312 25.074219 C 29.964844 23.097656 31.074219 20.679688 31.449219 18.058594 C 31.90625 17.765625 32.234375 17.285156 32.324219 16.710938 L 32.511719 15.5 C 32.792969 15.40625 33.066406 15.292969 33.332031 15.160156 L 34.320312 15.882812 C 35.109375 16.457031 36.183594 16.375 36.875 15.683594 C 37.566406 14.996094 37.648438 13.921875 37.074219 13.132812 L 36.351562 12.140625 C 36.480469 11.875 36.59375 11.601562 36.6875 11.324219 L 37.902344 11.132812 C 38.867188 10.984375 39.566406 10.164062 39.566406 9.1875 C 39.566406 8.210938 38.867188 7.394531 37.902344 7.242188 Z M 22.460938 24.277344 C 22.460938 24.304688 22.441406 24.324219 22.417969 24.324219 L 21.15625 24.324219 C 21.128906 24.324219 21.109375 24.304688 21.109375 24.277344 L 21.109375 23.894531 C 21.109375 22.804688 20.820312 21.730469 20.277344 20.785156 L 20.007812 20.320312 C 20.695312 20.617188 21.4375 20.769531 22.195312 20.769531 C 22.285156 20.769531 22.375 20.769531 22.460938 20.765625 Z M 22.195312 19.597656 C 21.152344 19.597656 20.140625 19.222656 19.351562 18.542969 C 19.191406 18.40625 18.96875 18.363281 18.769531 18.4375 C 18.476562 18.542969 18.167969 18.59375 17.855469 18.59375 C 17.09375 18.59375 16.363281 18.273438 15.851562 17.710938 C 15.65625 17.496094 15.332031 17.457031 15.09375 17.617188 C 14.71875 17.863281 14.285156 17.996094 13.835938 17.996094 C 12.660156 17.996094 11.667969 17.078125 11.578125 15.902344 C 11.5625 15.722656 11.464844 15.558594 11.3125 15.457031 C 11.160156 15.359375 10.96875 15.335938 10.796875 15.394531 C 10.628906 15.453125 10.457031 15.484375 10.28125 15.484375 C 9.421875 15.484375 8.726562 14.785156 8.726562 13.929688 C 8.726562 13.546875 8.867188 13.179688 9.121094 12.894531 C 9.320312 12.671875 9.320312 12.335938 9.121094 12.113281 C 8.867188 11.828125 8.726562 11.457031 8.726562 11.074219 C 8.726562 10.21875 9.421875 9.519531 10.28125 9.519531 C 10.605469 9.519531 10.867188 9.257812 10.867188 8.933594 C 10.867188 7.683594 11.882812 6.667969 13.136719 6.667969 C 13.40625 6.667969 13.675781 6.714844 13.929688 6.808594 C 14.164062 6.898438 14.429688 6.828125 14.589844 6.632812 C 15.109375 6 15.875 5.636719 16.691406 5.636719 C 17.203125 5.636719 17.699219 5.777344 18.132812 6.046875 C 18.304688 6.160156 18.527344 6.167969 18.710938 6.074219 C 18.933594 5.960938 19.171875 5.902344 19.417969 5.902344 C 19.960938 5.902344 20.457031 6.175781 20.742188 6.636719 C 20.835938 6.789062 20.996094 6.890625 21.175781 6.910156 C 21.664062 6.96875 22.132812 7.101562 22.566406 7.3125 C 21.753906 7.566406 21.191406 8.3125 21.191406 9.1875 C 21.191406 10.164062 21.890625 10.984375 22.855469 11.132812 L 24.066406 11.324219 C 24.160156 11.601562 24.273438 11.875 24.40625 12.140625 L 23.683594 13.132812 C 23.105469 13.921875 23.191406 14.996094 23.878906 15.683594 C 24.570312 16.375 25.644531 16.457031 26.433594 15.882812 L 26.519531 15.820312 C 26.234375 17.964844 24.394531 19.597656 22.195312 19.597656 Z M 37.71875 9.976562 L 36.144531 10.222656 C 35.917969 10.257812 35.734375 10.421875 35.671875 10.644531 C 35.550781 11.082031 35.375 11.503906 35.152344 11.898438 C 35.035156 12.101562 35.050781 12.347656 35.1875 12.535156 L 36.125 13.824219 C 36.359375 14.140625 36.324219 14.578125 36.046875 14.855469 C 35.765625 15.136719 35.332031 15.167969 35.011719 14.9375 L 33.726562 13.996094 C 33.539062 13.863281 33.289062 13.847656 33.089844 13.960938 C 32.695312 14.1875 32.273438 14.363281 31.835938 14.480469 C 31.613281 14.542969 31.445312 14.730469 31.410156 14.957031 L 31.164062 16.53125 C 31.105469 16.921875 30.773438 17.203125 30.378906 17.203125 C 29.980469 17.203125 29.652344 16.921875 29.589844 16.53125 L 29.34375 14.957031 C 29.308594 14.730469 29.144531 14.542969 28.921875 14.480469 C 28.484375 14.363281 28.0625 14.1875 27.664062 13.960938 C 27.574219 13.910156 27.476562 13.882812 27.375 13.882812 C 27.253906 13.882812 27.132812 13.921875 27.03125 13.996094 L 25.742188 14.9375 C 25.421875 15.167969 24.988281 15.136719 24.710938 14.855469 C 24.429688 14.578125 24.394531 14.140625 24.628906 13.824219 L 25.570312 12.535156 C 25.703125 12.347656 25.71875 12.101562 25.605469 11.898438 C 25.378906 11.503906 25.203125 11.082031 25.082031 10.644531 C 25.023438 10.421875 24.835938 10.257812 24.609375 10.222656 L 23.035156 9.976562 C 22.644531 9.914062 22.363281 9.582031 22.363281 9.1875 C 22.363281 8.792969 22.644531 8.460938 23.035156 8.402344 L 24.609375 8.15625 C 24.835938 8.117188 25.023438 7.953125 25.082031 7.730469 C 25.203125 7.292969 25.378906 6.871094 25.605469 6.476562 C 25.71875 6.277344 25.703125 6.027344 25.570312 5.839844 L 24.628906 4.554688 C 24.394531 4.234375 24.429688 3.800781 24.710938 3.519531 C 24.988281 3.238281 25.421875 3.207031 25.742188 3.441406 L 27.03125 4.378906 C 27.214844 4.515625 27.464844 4.527344 27.664062 4.414062 C 28.0625 4.191406 28.484375 4.015625 28.921875 3.894531 C 29.144531 3.832031 29.308594 3.648438 29.34375 3.417969 L 29.589844 1.847656 C 29.652344 1.457031 29.980469 1.171875 30.378906 1.171875 C 30.773438 1.171875 31.105469 1.457031 31.164062 1.847656 L 31.410156 3.417969 C 31.445312 3.648438 31.613281 3.832031 31.835938 3.894531 C 32.273438 4.015625 32.695312 4.191406 33.089844 4.414062 C 33.289062 4.527344 33.539062 4.515625 33.726562 4.378906 L 35.011719 3.441406 C 35.332031 3.207031 35.765625 3.238281 36.046875 3.519531 C 36.324219 3.800781 36.359375 4.234375 36.125 4.554688 L 35.1875 5.839844 C 35.050781 6.027344 35.035156 6.277344 35.152344 6.476562 C 35.375 6.871094 35.550781 7.292969 35.671875 7.730469 C 35.734375 7.953125 35.917969 8.117188 36.144531 8.15625 L 37.71875 8.402344 C 38.109375 8.460938 38.394531 8.792969 38.394531 9.1875 C 38.394531 9.582031 38.109375 9.914062 37.71875 9.976562 Z M 37.71875 9.976562 "/>
<path style=" stroke:none;fill-rule:nonzero;fill:rgb(0%,0%,0%);fill-opacity:1;" d="M 32.277344 7.421875 C 31.996094 7.585938 31.898438 7.941406 32.058594 8.222656 C 32.226562 8.515625 32.316406 8.847656 32.316406 9.1875 C 32.316406 10.257812 31.445312 11.128906 30.378906 11.128906 C 29.308594 11.128906 28.4375 10.257812 28.4375 9.1875 C 28.4375 8.15625 29.246094 7.304688 30.277344 7.25 C 30.601562 7.234375 30.847656 6.960938 30.832031 6.636719 C 30.816406 6.3125 30.542969 6.0625 30.21875 6.082031 C 28.5625 6.164062 27.265625 7.53125 27.265625 9.1875 C 27.265625 10.902344 28.660156 12.300781 30.378906 12.300781 C 32.09375 12.300781 33.488281 10.902344 33.488281 9.1875 C 33.488281 8.644531 33.347656 8.109375 33.078125 7.640625 C 32.914062 7.359375 32.558594 7.261719 32.277344 7.421875 Z M 32.277344 7.421875 "/>
</g>
</svg>
