<?xml version="1.0" encoding="UTF-8"?>
<svg xmlns="http://www.w3.org/2000/svg" xmlns:xlink="http://www.w3.org/1999/xlink" width="40px" height="40px" viewBox="0 0 40 40" version="1.1">
<g id="surface1">
<path style=" stroke:none;fill-rule:nonzero;fill:rgb(0%,0%,0%);fill-opacity:1;" d="M 27.230469 16.269531 L 27.230469 13.683594 C 27.230469 12.382812 26.167969 11.324219 24.867188 11.324219 C 24.371094 11.324219 23.914062 11.476562 23.53125 11.738281 C 23.15625 10.9375 22.339844 10.378906 21.394531 10.378906 C 20.453125 10.378906 19.636719 10.9375 19.257812 11.738281 C 18.878906 11.476562 18.417969 11.324219 17.925781 11.324219 C 17.050781 11.324219 16.285156 11.800781 15.878906 12.507812 C 15.480469 12.207031 14.988281 12.027344 14.453125 12.027344 C 13.148438 12.027344 12.089844 13.089844 12.089844 14.390625 L 12.089844 21.234375 C 12.089844 22.136719 12.292969 22.921875 12.726562 23.710938 L 13.351562 24.84375 C 13.683594 25.453125 13.832031 26.03125 13.832031 26.71875 L 13.832031 28.503906 L 13.390625 28.503906 C 12.605469 28.503906 11.964844 29.144531 11.964844 29.933594 L 11.964844 33.015625 C 11.964844 33.800781 12.605469 34.441406 13.390625 34.441406 L 25.574219 34.441406 C 26.359375 34.441406 26.996094 33.800781 26.996094 33.015625 L 26.996094 29.933594 C 26.996094 29.144531 26.359375 28.503906 25.574219 28.503906 L 25.132812 28.503906 L 25.132812 27.011719 C 25.132812 26.15625 25.363281 25.4375 25.863281 24.742188 L 26.109375 24.398438 C 26.484375 23.871094 26.726562 23.359375 26.890625 22.738281 L 27.949219 18.789062 C 28.199219 17.847656 27.890625 16.890625 27.230469 16.269531 Z M 24.867188 12.570312 C 25.480469 12.570312 25.980469 13.070312 25.980469 13.683594 L 25.980469 15.621094 L 23.757812 15.027344 L 23.757812 13.683594 C 23.757812 13.070312 24.253906 12.570312 24.867188 12.570312 Z M 20.285156 12.738281 C 20.285156 12.125 20.78125 11.628906 21.394531 11.628906 C 22.007812 11.628906 22.507812 12.125 22.507812 12.738281 L 22.507812 14.691406 L 21.929688 14.539062 C 21.359375 14.382812 20.777344 14.457031 20.285156 14.699219 Z M 16.8125 13.683594 C 16.8125 13.070312 17.308594 12.570312 17.921875 12.570312 C 18.535156 12.570312 19.035156 13.070312 19.035156 13.683594 L 19.035156 16.21875 C 18.941406 16.574219 18.933594 16.9375 19.007812 17.289062 C 18.894531 17.789062 18.445312 18.15625 17.921875 18.15625 C 17.308594 18.15625 16.8125 17.65625 16.8125 17.042969 Z M 13.339844 14.390625 C 13.339844 13.777344 13.835938 13.277344 14.449219 13.277344 C 15.0625 13.277344 15.5625 13.777344 15.5625 14.390625 L 15.5625 17.746094 C 15.5625 18.359375 15.0625 18.859375 14.449219 18.859375 C 13.835938 18.859375 13.339844 18.359375 13.339844 17.746094 Z M 25.746094 29.929688 L 25.746094 33.015625 C 25.746094 33.109375 25.667969 33.191406 25.570312 33.191406 L 13.390625 33.191406 C 13.292969 33.191406 13.210938 33.109375 13.210938 33.015625 L 13.210938 29.929688 C 13.210938 29.835938 13.292969 29.753906 13.390625 29.753906 L 25.570312 29.753906 C 25.667969 29.753906 25.746094 29.835938 25.746094 29.929688 Z M 26.742188 18.464844 L 25.683594 22.414062 C 25.558594 22.890625 25.378906 23.265625 25.089844 23.671875 L 24.84375 24.015625 C 24.195312 24.917969 23.882812 25.898438 23.882812 27.011719 L 23.882812 28.503906 L 15.078125 28.503906 L 15.078125 26.71875 C 15.078125 25.824219 14.878906 25.035156 14.445312 24.242188 L 13.820312 23.109375 C 13.488281 22.503906 13.339844 21.925781 13.339844 21.234375 L 13.339844 19.828125 C 13.667969 20.003906 14.046875 20.105469 14.449219 20.105469 C 15.324219 20.105469 16.089844 19.628906 16.496094 18.921875 C 16.894531 19.222656 17.386719 19.402344 17.921875 19.402344 C 18.640625 19.402344 19.292969 19.078125 19.726562 18.558594 C 20.003906 18.8125 20.339844 18.996094 20.707031 19.09375 L 22.824219 19.664062 L 22.421875 21.179688 C 20.277344 21.203125 18.542969 22.953125 18.542969 25.101562 C 18.542969 25.445312 18.820312 25.726562 19.164062 25.726562 C 19.511719 25.726562 19.789062 25.445312 19.789062 25.101562 C 19.789062 23.625 20.988281 22.429688 22.460938 22.429688 L 22.898438 22.429688 C 23.179688 22.429688 23.429688 22.238281 23.5 21.964844 L 24.191406 19.386719 C 24.28125 19.050781 24.082031 18.710938 23.75 18.621094 L 21.03125 17.890625 C 20.746094 17.8125 20.503906 17.628906 20.355469 17.371094 C 20.207031 17.113281 20.167969 16.8125 20.242188 16.527344 C 20.402344 15.9375 21.015625 15.582031 21.605469 15.742188 L 22.941406 16.101562 C 22.941406 16.101562 22.941406 16.101562 22.945312 16.101562 C 22.953125 16.105469 22.960938 16.105469 22.96875 16.109375 L 25.824219 16.871094 C 26.515625 17.058594 26.929688 17.773438 26.742188 18.464844 Z M 19.375 8.148438 L 19.375 6.183594 C 19.375 5.839844 19.65625 5.558594 20 5.558594 C 20.34375 5.558594 20.625 5.839844 20.625 6.183594 L 20.625 8.148438 C 20.625 8.492188 20.34375 8.773438 20 8.773438 C 19.65625 8.773438 19.375 8.492188 19.375 8.148438 Z M 24.421875 9.164062 L 25.402344 7.464844 C 25.578125 7.164062 25.957031 7.0625 26.257812 7.234375 C 26.554688 7.410156 26.65625 7.789062 26.484375 8.089844 L 25.5 9.789062 C 25.386719 9.988281 25.175781 10.101562 24.960938 10.101562 C 24.855469 10.101562 24.746094 10.074219 24.648438 10.019531 C 24.347656 9.84375 24.246094 9.464844 24.421875 9.164062 Z M 30.609375 11.007812 L 28.90625 11.992188 C 28.804688 12.046875 28.699219 12.074219 28.59375 12.074219 C 28.378906 12.074219 28.167969 11.964844 28.050781 11.761719 C 27.878906 11.464844 27.980469 11.082031 28.28125 10.910156 L 29.984375 9.925781 C 30.28125 9.753906 30.664062 9.855469 30.835938 10.15625 C 31.007812 10.453125 30.90625 10.835938 30.609375 11.007812 Z M 13.515625 8.089844 C 13.34375 7.789062 13.445312 7.410156 13.746094 7.234375 C 14.042969 7.0625 14.425781 7.167969 14.597656 7.464844 L 15.578125 9.164062 C 15.75 9.464844 15.648438 9.847656 15.351562 10.019531 C 15.25 10.074219 15.144531 10.101562 15.039062 10.101562 C 14.824219 10.101562 14.613281 9.988281 14.496094 9.789062 Z M 11.945312 11.761719 C 11.832031 11.964844 11.621094 12.074219 11.40625 12.074219 C 11.296875 12.074219 11.191406 12.046875 11.09375 11.992188 L 9.390625 11.007812 C 9.09375 10.835938 8.992188 10.453125 9.164062 10.15625 C 9.335938 9.855469 9.71875 9.753906 10.015625 9.925781 L 11.71875 10.910156 C 12.015625 11.082031 12.117188 11.464844 11.945312 11.761719 Z M 39.691406 16.984375 L 35.488281 12.777344 C 35.082031 12.371094 34.417969 12.371094 34.011719 12.777344 L 29.808594 16.980469 C 29.503906 17.28125 29.414062 17.726562 29.578125 18.117188 C 29.742188 18.515625 30.113281 18.765625 30.542969 18.765625 L 31.917969 18.765625 L 31.917969 28.40625 C 31.917969 29.046875 32.4375 29.566406 33.078125 29.566406 L 36.417969 29.566406 C 37.058594 29.566406 37.578125 29.046875 37.578125 28.40625 L 37.578125 18.765625 L 38.953125 18.765625 C 39.378906 18.765625 39.757812 18.511719 39.917969 18.121094 C 40.082031 17.730469 39.992188 17.285156 39.691406 16.984375 Z M 36.953125 17.515625 C 36.609375 17.515625 36.332031 17.796875 36.332031 18.140625 L 36.332031 28.320312 L 33.167969 28.320312 L 33.167969 18.140625 C 33.167969 17.796875 32.886719 17.515625 32.542969 17.515625 L 31.039062 17.515625 L 34.75 13.804688 L 38.460938 17.515625 Z M 5.988281 12.777344 C 5.582031 12.371094 4.921875 12.371094 4.511719 12.777344 L 0.308594 16.984375 C 0.0078125 17.285156 -0.0820312 17.730469 0.0820312 18.117188 C 0.242188 18.511719 0.621094 18.765625 1.046875 18.765625 L 2.421875 18.765625 L 2.421875 28.40625 C 2.421875 29.046875 2.941406 29.566406 3.582031 29.566406 L 6.921875 29.566406 C 7.5625 29.566406 8.082031 29.046875 8.082031 28.40625 L 8.082031 18.765625 L 9.457031 18.765625 C 9.882812 18.765625 10.261719 18.511719 10.421875 18.121094 C 10.582031 17.730469 10.496094 17.285156 10.195312 16.984375 Z M 7.457031 17.515625 C 7.113281 17.515625 6.832031 17.796875 6.832031 18.140625 L 6.832031 28.320312 L 3.671875 28.320312 L 3.671875 18.140625 C 3.671875 17.796875 3.390625 17.515625 3.046875 17.515625 L 1.542969 17.515625 L 5.25 13.804688 L 8.960938 17.515625 Z M 7.457031 17.515625 "/>
</g>
</svg>
