<?xml version="1.0" encoding="UTF-8"?>
<svg xmlns="http://www.w3.org/2000/svg" xmlns:xlink="http://www.w3.org/1999/xlink" width="70px" height="70px" viewBox="0 0 70 70" version="1.1">
<g id="surface1">
<path style=" stroke:none;fill-rule:nonzero;fill:rgb(0%,0%,0%);fill-opacity:1;" d="M 13.546875 23.710938 C 13.546875 26.824219 16.082031 29.355469 19.195312 29.355469 C 22.304688 29.355469 24.839844 26.824219 24.839844 23.710938 L 24.839844 20.207031 C 26.28125 18.734375 27.097656 16.746094 27.097656 14.675781 C 27.097656 12.558594 26.269531 10.570312 24.769531 9.074219 C 23.269531 7.582031 21.273438 6.761719 19.15625 6.773438 C 17.121094 6.785156 15.1875 7.574219 13.710938 9 C 12.230469 10.425781 11.375 12.332031 11.296875 14.367188 C 11.210938 16.554688 12.027344 18.65625 13.546875 20.207031 Z M 19.195312 27.097656 C 17.722656 27.097656 16.464844 26.152344 16 24.839844 L 22.386719 24.839844 C 21.921875 26.152344 20.664062 27.097656 19.195312 27.097656 Z M 18.066406 14.675781 C 18.066406 14.054688 18.570312 13.546875 19.195312 13.546875 C 19.816406 13.546875 20.324219 14.054688 20.324219 14.675781 C 20.324219 15.300781 19.816406 15.804688 19.195312 15.804688 C 18.570312 15.804688 18.066406 15.300781 18.066406 14.675781 Z M 13.554688 14.453125 C 13.667969 11.476562 16.1875 9.046875 19.167969 9.03125 L 19.195312 9.03125 C 20.695312 9.03125 22.109375 9.617188 23.175781 10.675781 C 24.25 11.742188 24.839844 13.164062 24.839844 14.675781 C 24.839844 16.28125 24.152344 17.8125 22.957031 18.882812 L 22.582031 19.21875 L 22.582031 22.582031 L 20.324219 22.582031 L 20.324219 17.871094 C 21.636719 17.40625 22.582031 16.148438 22.582031 14.675781 C 22.582031 12.808594 21.0625 11.289062 19.195312 11.289062 C 17.324219 11.289062 15.804688 12.808594 15.804688 14.675781 C 15.804688 16.148438 16.75 17.40625 18.066406 17.871094 L 18.066406 22.582031 L 15.804688 22.582031 L 15.804688 19.21875 L 15.429688 18.882812 C 14.171875 17.757812 13.488281 16.140625 13.554688 14.453125 Z M 13.554688 14.453125 "/>
<path style=" stroke:none;fill-rule:nonzero;fill:rgb(0%,0%,0%);fill-opacity:1;" d="M 18.066406 0 L 20.324219 0 L 20.324219 4.515625 L 18.066406 4.515625 Z M 18.066406 0 "/>
<path style=" stroke:none;fill-rule:nonzero;fill:rgb(0%,0%,0%);fill-opacity:1;" d="M 12.535156 1.546875 L 14.621094 0.679688 L 16.351562 4.851562 L 14.265625 5.71875 Z M 12.535156 1.546875 "/>
<path style=" stroke:none;fill-rule:nonzero;fill:rgb(0%,0%,0%);fill-opacity:1;" d="M 22.046875 4.855469 L 23.777344 0.683594 L 25.863281 1.546875 L 24.132812 5.71875 Z M 22.046875 4.855469 "/>
<path style=" stroke:none;fill-rule:nonzero;fill:rgb(0%,0%,0%);fill-opacity:1;" d="M 11.289062 39.515625 C 11.289062 43.875 14.835938 47.417969 19.195312 47.417969 C 23.550781 47.417969 27.097656 43.875 27.097656 39.515625 L 27.097656 38.386719 L 11.289062 38.386719 Z M 24.726562 40.644531 C 24.199219 43.21875 21.917969 45.160156 19.195312 45.160156 C 16.46875 45.160156 14.1875 43.21875 13.660156 40.644531 Z M 24.726562 40.644531 "/>
<path style=" stroke:none;fill-rule:nonzero;fill:rgb(0%,0%,0%);fill-opacity:1;" d="M 42.902344 67.742188 C 42.902344 67.117188 42.398438 66.613281 41.773438 66.613281 C 41.152344 66.613281 40.644531 67.117188 40.644531 67.742188 C 40.644531 68.367188 41.152344 68.871094 41.773438 68.871094 C 42.398438 68.871094 42.902344 68.367188 42.902344 67.742188 Z M 42.902344 67.742188 "/>
<path style=" stroke:none;fill-rule:nonzero;fill:rgb(0%,0%,0%);fill-opacity:1;" d="M 47.417969 67.742188 C 47.417969 67.117188 46.914062 66.613281 46.289062 66.613281 C 45.667969 66.613281 45.160156 67.117188 45.160156 67.742188 C 45.160156 68.367188 45.667969 68.871094 46.289062 68.871094 C 46.914062 68.871094 47.417969 68.367188 47.417969 67.742188 Z M 47.417969 67.742188 "/>
<path style=" stroke:none;fill-rule:nonzero;fill:rgb(0%,0%,0%);fill-opacity:1;" d="M 51.933594 67.742188 C 51.933594 67.117188 51.429688 66.613281 50.804688 66.613281 C 50.183594 66.613281 49.675781 67.117188 49.675781 67.742188 C 49.675781 68.367188 50.183594 68.871094 50.804688 68.871094 C 51.429688 68.871094 51.933594 68.367188 51.933594 67.742188 Z M 51.933594 67.742188 "/>
<path style=" stroke:none;fill-rule:nonzero;fill:rgb(0%,0%,0%);fill-opacity:1;" d="M 67.742188 18.066406 L 60.96875 18.066406 L 60.96875 10.160156 C 60.96875 4.558594 56.410156 0 50.804688 0 L 46.289062 0 C 41.730469 0 37.859375 3.019531 36.578125 7.167969 C 36.109375 6.917969 35.570312 6.773438 35 6.773438 L 27.097656 6.773438 L 27.097656 9.03125 L 35 9.03125 C 35.621094 9.03125 36.128906 9.539062 36.128906 10.160156 L 36.128906 28.226562 C 36.128906 28.847656 35.621094 29.355469 35 29.355469 L 24.839844 29.355469 C 23.777344 29.355469 22.765625 29.863281 22.128906 30.710938 L 20.097656 33.417969 C 19.882812 33.703125 19.546875 33.871094 19.195312 33.871094 C 18.839844 33.871094 18.503906 33.703125 18.289062 33.417969 L 16.257812 30.710938 C 15.621094 29.863281 14.609375 29.355469 13.546875 29.355469 L 3.386719 29.355469 C 2.765625 29.355469 2.257812 28.847656 2.257812 28.226562 L 2.257812 10.160156 C 2.257812 9.539062 2.765625 9.03125 3.386719 9.03125 L 11.289062 9.03125 L 11.289062 6.773438 L 3.386719 6.773438 C 1.519531 6.773438 0 8.292969 0 10.160156 L 0 28.226562 C 0 29.699219 0.945312 30.953125 2.257812 31.417969 L 2.257812 32.742188 C 2.257812 35.46875 4.199219 37.75 6.773438 38.273438 L 6.773438 42.808594 C 6.773438 47.019531 9.570312 50.621094 13.546875 51.710938 L 13.546875 52.183594 L 7.695312 53.644531 C 3.164062 54.777344 0 58.832031 0 63.503906 L 0 70 L 38.386719 70 L 38.386719 63.503906 C 38.386719 58.832031 35.222656 54.777344 30.691406 53.644531 L 24.839844 52.183594 L 24.839844 51.710938 C 28.816406 50.621094 31.613281 47.019531 31.613281 42.808594 L 31.613281 40.644531 L 33.871094 40.644531 L 33.871094 44.914062 L 36.742188 45.632812 C 36.941406 46.234375 37.183594 46.824219 37.472656 47.394531 L 35.949219 49.933594 L 40.390625 54.371094 L 42.929688 52.847656 C 43.5 53.136719 44.085938 53.382812 44.691406 53.578125 L 45.410156 56.453125 L 51.6875 56.453125 L 52.40625 53.582031 C 53.007812 53.382812 53.597656 53.136719 54.167969 52.847656 L 56.707031 54.371094 L 61.148438 49.933594 L 59.625 47.394531 C 59.914062 46.824219 60.15625 46.234375 60.355469 45.632812 L 63.226562 44.914062 L 63.226562 40.644531 L 67.742188 40.644531 C 68.988281 40.644531 70 39.632812 70 38.386719 L 70 20.324219 C 70 19.078125 68.988281 18.066406 67.742188 18.066406 Z M 54.195312 41.773438 C 54.195312 44.886719 51.660156 47.417969 48.546875 47.417969 C 45.4375 47.417969 42.902344 44.886719 42.902344 41.773438 C 42.902344 41.390625 42.941406 41.015625 43.015625 40.644531 L 44.464844 40.644531 L 45.90625 43.527344 C 46.410156 44.535156 47.421875 45.160156 48.546875 45.160156 C 49.675781 45.160156 50.6875 44.535156 51.191406 43.527344 L 52.632812 40.644531 L 54.078125 40.644531 C 54.15625 41.015625 54.195312 41.390625 54.195312 41.773438 Z M 51.238281 38.386719 L 49.171875 42.515625 C 49.054688 42.753906 48.8125 42.902344 48.546875 42.902344 C 48.28125 42.902344 48.042969 42.753906 47.925781 42.515625 L 45.859375 38.386719 L 38.386719 38.386719 C 38.417969 35.277344 40.261719 32.550781 42.960938 31.292969 C 43.355469 34.023438 45.710938 36.128906 48.546875 36.128906 C 51.273438 36.128906 53.554688 34.1875 54.078125 31.613281 L 54.761719 31.613281 C 57.183594 33.011719 58.683594 35.578125 58.707031 38.386719 Z M 46.5625 26 C 44.410156 25.460938 42.902344 23.535156 42.902344 21.3125 L 42.902344 15.691406 C 44.441406 15.378906 45.753906 14.4375 46.5625 13.148438 C 47.800781 14.761719 49.746094 15.804688 51.933594 15.804688 L 54.195312 15.804688 L 54.195312 21.3125 C 54.195312 22.675781 53.628906 23.953125 52.632812 24.867188 C 50.96875 25.078125 49.675781 26.503906 49.675781 28.226562 C 49.675781 29.652344 50.566406 30.875 51.816406 31.375 C 51.425781 32.8125 50.109375 33.871094 48.546875 33.871094 C 46.730469 33.871094 45.246094 32.433594 45.164062 30.636719 C 45.214844 30.628906 45.261719 30.621094 45.308594 30.613281 L 47.417969 30.351562 L 47.417969 26.214844 Z M 40.644531 20.324219 C 39.398438 20.324219 38.386719 19.308594 38.386719 18.066406 C 38.386719 16.820312 39.398438 15.804688 40.644531 15.804688 Z M 53.066406 29.355469 C 52.441406 29.355469 51.933594 28.847656 51.933594 28.226562 C 51.933594 27.601562 52.441406 27.097656 53.066406 27.097656 L 55.324219 27.097656 C 55.945312 27.097656 56.453125 27.601562 56.453125 28.226562 C 56.453125 28.847656 55.945312 29.355469 55.324219 29.355469 Z M 56.453125 15.804688 C 57.695312 15.804688 58.710938 16.820312 58.710938 18.066406 C 58.710938 19.308594 57.695312 20.324219 56.453125 20.324219 Z M 55.507812 24.847656 C 55.910156 24.148438 56.191406 23.382812 56.335938 22.582031 L 56.453125 22.582031 C 57.273438 22.582031 58.042969 22.359375 58.710938 21.972656 L 58.710938 25.96875 C 58.710938 26.363281 58.640625 26.742188 58.515625 27.097656 C 58.070312 25.839844 56.898438 24.921875 55.507812 24.847656 Z M 46.289062 2.257812 L 50.804688 2.257812 C 55.164062 2.257812 58.710938 5.804688 58.710938 10.160156 L 58.710938 14.15625 C 58.042969 13.769531 57.273438 13.546875 56.453125 13.546875 L 56.453125 9.03125 L 54.195312 9.03125 L 54.195312 13.546875 L 51.933594 13.546875 C 49.445312 13.546875 47.417969 11.523438 47.417969 9.03125 L 45.160156 9.03125 L 45.160156 10.160156 C 45.160156 11.632812 44.21875 12.886719 42.902344 13.355469 L 42.902344 9.03125 L 40.644531 9.03125 L 40.644531 13.546875 C 39.824219 13.546875 39.050781 13.769531 38.386719 14.15625 L 38.386719 10.160156 C 38.386719 5.804688 41.933594 2.257812 46.289062 2.257812 Z M 31.613281 31.613281 L 33.871094 31.613281 L 33.871094 32.742188 C 33.871094 34.214844 32.925781 35.46875 31.613281 35.933594 Z M 4.515625 32.742188 L 4.515625 31.613281 L 6.773438 31.613281 L 6.773438 35.933594 C 5.460938 35.46875 4.515625 34.214844 4.515625 32.742188 Z M 14.332031 54.316406 L 17.597656 57.582031 L 15.117188 60.058594 L 13.082031 54.628906 Z M 36.128906 63.503906 L 36.128906 67.742188 L 2.257812 67.742188 L 2.257812 63.503906 C 2.257812 59.871094 4.71875 56.71875 8.246094 55.835938 L 10.878906 55.179688 L 14.234375 64.136719 L 19.195312 59.175781 L 24.152344 64.136719 L 27.511719 55.179688 L 30.144531 55.835938 C 33.667969 56.71875 36.128906 59.871094 36.128906 63.503906 Z M 25.304688 54.628906 L 23.269531 60.058594 L 20.789062 57.582031 L 24.054688 54.316406 Z M 23.523438 49.691406 L 22.582031 49.851562 L 22.582031 52.597656 L 19.195312 55.984375 L 15.804688 52.597656 L 15.804688 49.851562 L 14.863281 49.691406 C 11.484375 49.128906 9.03125 46.234375 9.03125 42.808594 L 9.03125 31.613281 L 13.546875 31.613281 C 13.902344 31.613281 14.238281 31.78125 14.453125 32.066406 L 16.484375 34.773438 C 17.121094 35.621094 18.132812 36.128906 19.195312 36.128906 C 20.253906 36.128906 21.265625 35.621094 21.902344 34.773438 L 23.933594 32.066406 C 24.148438 31.78125 24.484375 31.613281 24.839844 31.613281 L 29.355469 31.613281 L 29.355469 42.808594 C 29.355469 46.234375 26.902344 49.128906 23.523438 49.691406 Z M 31.613281 38.273438 C 34.1875 37.75 36.128906 35.46875 36.128906 32.742188 L 36.128906 31.417969 C 37.441406 30.953125 38.386719 29.699219 38.386719 28.226562 L 38.386719 21.972656 C 39.050781 22.359375 39.824219 22.582031 40.644531 22.582031 L 40.757812 22.582031 C 41.195312 24.996094 42.855469 27.023438 45.160156 27.921875 L 45.160156 28.359375 L 45.03125 28.375 C 39.980469 29.003906 36.164062 33.304688 36.128906 38.386719 L 31.613281 38.386719 Z M 60.96875 43.152344 L 58.535156 43.757812 L 58.363281 44.402344 C 58.136719 45.257812 57.792969 46.082031 57.347656 46.855469 L 57.011719 47.429688 L 58.304688 49.582031 L 56.355469 51.53125 L 54.207031 50.238281 L 53.628906 50.574219 C 52.855469 51.019531 52.03125 51.363281 51.175781 51.589844 L 50.53125 51.761719 L 49.925781 54.195312 L 47.171875 54.195312 L 46.5625 51.761719 L 45.921875 51.589844 C 45.066406 51.363281 44.242188 51.019531 43.46875 50.570312 L 42.890625 50.238281 L 40.738281 51.53125 L 38.792969 49.582031 L 40.082031 47.429688 L 39.75 46.855469 C 39.304688 46.082031 38.960938 45.257812 38.730469 44.402344 L 38.558594 43.757812 L 36.128906 43.152344 L 36.128906 40.644531 L 40.726562 40.644531 C 40.671875 41.015625 40.644531 41.394531 40.644531 41.773438 C 40.644531 46.132812 44.191406 49.675781 48.546875 49.675781 C 52.90625 49.675781 56.453125 46.132812 56.453125 41.773438 C 56.453125 41.394531 56.421875 41.015625 56.371094 40.644531 L 60.96875 40.644531 Z M 67.742188 38.386719 L 60.964844 38.386719 C 60.945312 35.566406 59.769531 32.933594 57.769531 31.054688 C 59.660156 30.140625 60.96875 28.203125 60.96875 25.96875 L 60.96875 20.324219 L 67.742188 20.324219 Z M 67.742188 38.386719 "/>
</g>
</svg>
