<?xml version="1.0" encoding="UTF-8"?>
<svg xmlns="http://www.w3.org/2000/svg" xmlns:xlink="http://www.w3.org/1999/xlink" width="40px" height="40px" viewBox="0 0 40 40" version="1.1">
<g id="surface1">
<path style=" stroke:none;fill-rule:nonzero;fill:rgb(0%,0%,0%);fill-opacity:1;" d="M 37.332031 8 C 35.863281 8 34.667969 9.195312 34.667969 10.667969 C 34.667969 12.136719 35.863281 13.332031 37.332031 13.332031 C 38.804688 13.332031 40 12.136719 40 10.667969 C 40 9.195312 38.804688 8 37.332031 8 Z M 37.332031 12 C 36.597656 12 36 11.402344 36 10.667969 C 36 9.929688 36.597656 9.332031 37.332031 9.332031 C 38.070312 9.332031 38.667969 9.929688 38.667969 10.667969 C 38.667969 11.402344 38.070312 12 37.332031 12 Z M 37.332031 12 "/>
<path style=" stroke:none;fill-rule:nonzero;fill:rgb(0%,0%,0%);fill-opacity:1;" d="M 2.667969 30 C 1.195312 30 0 31.195312 0 32.667969 C 0 34.136719 1.195312 35.332031 2.667969 35.332031 C 4.136719 35.332031 5.332031 34.136719 5.332031 32.667969 C 5.332031 31.195312 4.136719 30 2.667969 30 Z M 2.667969 34 C 1.929688 34 1.332031 33.402344 1.332031 32.667969 C 1.332031 31.929688 1.929688 31.332031 2.667969 31.332031 C 3.402344 31.332031 4 31.929688 4 32.667969 C 4 33.402344 3.402344 34 2.667969 34 Z M 2.667969 34 "/>
<path style=" stroke:none;fill-rule:nonzero;fill:rgb(0%,0%,0%);fill-opacity:1;" d="M 36.039062 8.84375 L 30.289062 6.066406 C 29.957031 5.90625 29.558594 6.046875 29.398438 6.375 C 29.238281 6.707031 29.378906 7.105469 29.710938 7.265625 L 35.460938 10.042969 C 35.554688 10.089844 35.652344 10.109375 35.75 10.109375 C 36 10.109375 36.238281 9.972656 36.351562 9.734375 C 36.511719 9.402344 36.371094 9.003906 36.039062 8.84375 Z M 36.039062 8.84375 "/>
<path style=" stroke:none;fill-rule:nonzero;fill:rgb(0%,0%,0%);fill-opacity:1;" d="M 30 34.667969 C 28.53125 34.667969 27.332031 35.863281 27.332031 37.332031 C 27.332031 38.804688 28.53125 40 30 40 C 31.46875 40 32.667969 38.804688 32.667969 37.332031 C 32.667969 35.863281 31.46875 34.667969 30 34.667969 Z M 30 38.667969 C 29.265625 38.667969 28.667969 38.070312 28.667969 37.332031 C 28.667969 36.597656 29.265625 36 30 36 C 30.734375 36 31.332031 36.597656 31.332031 37.332031 C 31.332031 38.070312 30.734375 38.667969 30 38.667969 Z M 30 38.667969 "/>
<path style=" stroke:none;fill-rule:nonzero;fill:rgb(0%,0%,0%);fill-opacity:1;" d="M 28.707031 35.507812 L 22.957031 32.734375 C 22.625 32.570312 22.226562 32.710938 22.066406 33.042969 C 21.90625 33.375 22.046875 33.773438 22.375 33.933594 L 28.128906 36.710938 C 28.222656 36.753906 28.320312 36.777344 28.417969 36.777344 C 28.664062 36.777344 28.902344 36.636719 29.019531 36.398438 C 29.179688 36.066406 29.039062 35.667969 28.707031 35.507812 Z M 28.707031 35.507812 "/>
<path style=" stroke:none;fill-rule:nonzero;fill:rgb(0%,0%,0%);fill-opacity:1;" d="M 20 18 C 18.53125 18 17.332031 19.195312 17.332031 20.667969 C 17.332031 22.136719 18.53125 23.332031 20 23.332031 C 21.46875 23.332031 22.667969 22.136719 22.667969 20.667969 C 22.667969 19.195312 21.46875 18 20 18 Z M 20 22 C 19.265625 22 18.667969 21.402344 18.667969 20.667969 C 18.667969 19.929688 19.265625 19.332031 20 19.332031 C 20.734375 19.332031 21.332031 19.929688 21.332031 20.667969 C 21.332031 21.402344 20.734375 22 20 22 Z M 20 22 "/>
<path style=" stroke:none;fill-rule:nonzero;fill:rgb(0%,0%,0%);fill-opacity:1;" d="M 18.828125 18.917969 L 14.410156 15.472656 C 14.121094 15.25 13.699219 15.300781 13.472656 15.589844 C 13.246094 15.878906 13.300781 16.300781 13.589844 16.527344 L 18.007812 19.96875 C 18.128906 20.0625 18.273438 20.109375 18.417969 20.109375 C 18.617188 20.109375 18.8125 20.023438 18.945312 19.851562 C 19.171875 19.5625 19.117188 19.144531 18.828125 18.917969 Z M 18.828125 18.917969 "/>
<path style=" stroke:none;fill-rule:nonzero;fill:rgb(0%,0%,0%);fill-opacity:1;" d="M 32 17.332031 C 27.957031 17.332031 24.667969 20.625 24.667969 24.667969 C 24.667969 28.710938 27.957031 32 32 32 C 36.042969 32 39.332031 28.710938 39.332031 24.667969 C 39.332031 20.625 36.042969 17.332031 32 17.332031 Z M 32 30.667969 C 28.691406 30.667969 26 27.976562 26 24.667969 C 26 21.359375 28.691406 18.667969 32 18.667969 C 35.308594 18.667969 38 21.359375 38 24.667969 C 38 27.976562 35.308594 30.667969 32 30.667969 Z M 32 30.667969 "/>
<path style=" stroke:none;fill-rule:nonzero;fill:rgb(0%,0%,0%);fill-opacity:1;" d="M 32 20 C 30.53125 20 29.332031 21.195312 29.332031 22.667969 C 29.332031 24.136719 30.53125 25.332031 32 25.332031 C 33.46875 25.332031 34.667969 24.136719 34.667969 22.667969 C 34.667969 21.195312 33.46875 20 32 20 Z M 32 24 C 31.265625 24 30.667969 23.402344 30.667969 22.667969 C 30.667969 21.929688 31.265625 21.332031 32 21.332031 C 32.734375 21.332031 33.332031 21.929688 33.332031 22.667969 C 33.332031 23.402344 32.734375 24 32 24 Z M 32 24 "/>
<path style=" stroke:none;fill-rule:nonzero;fill:rgb(0%,0%,0%);fill-opacity:1;" d="M 33.933594 26.667969 L 30.066406 26.667969 C 28.925781 26.667969 28 27.570312 28 28.675781 L 28 30.433594 C 28 30.671875 28.125 30.890625 28.332031 31.011719 C 29.449219 31.65625 30.71875 32 32 32 C 33.28125 32 34.550781 31.65625 35.667969 31.011719 C 35.875 30.894531 36 30.671875 36 30.433594 L 36 28.675781 C 36 27.570312 35.074219 26.667969 33.933594 26.667969 Z M 34.667969 30.035156 C 33.007812 30.863281 30.992188 30.863281 29.332031 30.035156 L 29.332031 28.675781 C 29.332031 28.304688 29.660156 28 30.066406 28 L 33.933594 28 C 34.335938 28 34.667969 28.304688 34.667969 28.675781 Z M 34.667969 30.035156 "/>
<path style=" stroke:none;fill-rule:nonzero;fill:rgb(0%,0%,0%);fill-opacity:1;" d="M 16 25.332031 C 11.957031 25.332031 8.667969 28.625 8.667969 32.667969 C 8.667969 36.710938 11.957031 40 16 40 C 20.042969 40 23.332031 36.710938 23.332031 32.667969 C 23.332031 28.625 20.042969 25.332031 16 25.332031 Z M 16 38.667969 C 12.691406 38.667969 10 35.976562 10 32.667969 C 10 29.359375 12.691406 26.667969 16 26.667969 C 19.308594 26.667969 22 29.359375 22 32.667969 C 22 35.976562 19.308594 38.667969 16 38.667969 Z M 16 38.667969 "/>
<path style=" stroke:none;fill-rule:nonzero;fill:rgb(0%,0%,0%);fill-opacity:1;" d="M 16 28 C 14.53125 28 13.332031 29.195312 13.332031 30.667969 C 13.332031 32.136719 14.53125 33.332031 16 33.332031 C 17.46875 33.332031 18.667969 32.136719 18.667969 30.667969 C 18.667969 29.195312 17.46875 28 16 28 Z M 16 32 C 15.265625 32 14.667969 31.402344 14.667969 30.667969 C 14.667969 29.929688 15.265625 29.332031 16 29.332031 C 16.734375 29.332031 17.332031 29.929688 17.332031 30.667969 C 17.332031 31.402344 16.734375 32 16 32 Z M 16 32 "/>
<path style=" stroke:none;fill-rule:nonzero;fill:rgb(0%,0%,0%);fill-opacity:1;" d="M 17.933594 34.667969 L 14.066406 34.667969 C 12.925781 34.667969 12 35.570312 12 36.675781 L 12 38.433594 C 12 38.671875 12.125 38.890625 12.332031 39.011719 C 13.449219 39.65625 14.71875 40 16 40 C 17.28125 40 18.550781 39.65625 19.667969 39.011719 C 19.875 38.894531 20 38.671875 20 38.433594 L 20 36.675781 C 20 35.570312 19.074219 34.667969 17.933594 34.667969 Z M 18.667969 38.035156 C 17.007812 38.863281 14.992188 38.863281 13.332031 38.035156 L 13.332031 36.675781 C 13.332031 36.304688 13.660156 36 14.066406 36 L 17.933594 36 C 18.335938 36 18.667969 36.304688 18.667969 36.675781 Z M 18.667969 38.035156 "/>
<path style=" stroke:none;fill-rule:nonzero;fill:rgb(0%,0%,0%);fill-opacity:1;" d="M 7.332031 8.667969 C 3.289062 8.667969 0 11.957031 0 16 C 0 20.042969 3.289062 23.332031 7.332031 23.332031 C 11.375 23.332031 14.667969 20.042969 14.667969 16 C 14.667969 11.957031 11.375 8.667969 7.332031 8.667969 Z M 7.332031 22 C 4.023438 22 1.332031 19.308594 1.332031 16 C 1.332031 12.691406 4.023438 10 7.332031 10 C 10.640625 10 13.332031 12.691406 13.332031 16 C 13.332031 19.308594 10.640625 22 7.332031 22 Z M 7.332031 22 "/>
<path style=" stroke:none;fill-rule:nonzero;fill:rgb(0%,0%,0%);fill-opacity:1;" d="M 7.332031 11.332031 C 5.863281 11.332031 4.667969 12.53125 4.667969 14 C 4.667969 15.46875 5.863281 16.667969 7.332031 16.667969 C 8.804688 16.667969 10 15.46875 10 14 C 10 12.53125 8.804688 11.332031 7.332031 11.332031 Z M 7.332031 15.332031 C 6.597656 15.332031 6 14.734375 6 14 C 6 13.265625 6.597656 12.667969 7.332031 12.667969 C 8.070312 12.667969 8.667969 13.265625 8.667969 14 C 8.667969 14.734375 8.070312 15.332031 7.332031 15.332031 Z M 7.332031 15.332031 "/>
<path style=" stroke:none;fill-rule:nonzero;fill:rgb(0%,0%,0%);fill-opacity:1;" d="M 9.265625 18 L 5.398438 18 C 4.261719 18 3.332031 18.902344 3.332031 20.011719 L 3.332031 21.765625 C 3.332031 22.003906 3.460938 22.226562 3.667969 22.34375 C 4.785156 22.992188 6.050781 23.332031 7.332031 23.332031 C 8.617188 23.332031 9.882812 22.992188 11 22.34375 C 11.207031 22.226562 11.332031 22.003906 11.332031 21.769531 L 11.332031 20.011719 C 11.332031 18.902344 10.40625 18 9.265625 18 Z M 10 21.371094 C 8.339844 22.195312 6.324219 22.195312 4.667969 21.371094 L 4.667969 20.011719 C 4.667969 19.636719 4.996094 19.332031 5.398438 19.332031 L 9.265625 19.332031 C 9.671875 19.332031 10 19.636719 10 20.011719 Z M 10 21.371094 "/>
<path style=" stroke:none;fill-rule:nonzero;fill:rgb(0%,0%,0%);fill-opacity:1;" d="M 23.332031 0 C 19.289062 0 16 3.289062 16 7.332031 C 16 11.375 19.289062 14.667969 23.332031 14.667969 C 27.375 14.667969 30.667969 11.375 30.667969 7.332031 C 30.667969 3.289062 27.375 0 23.332031 0 Z M 23.332031 13.332031 C 20.023438 13.332031 17.332031 10.640625 17.332031 7.332031 C 17.332031 4.023438 20.023438 1.332031 23.332031 1.332031 C 26.640625 1.332031 29.332031 4.023438 29.332031 7.332031 C 29.332031 10.640625 26.640625 13.332031 23.332031 13.332031 Z M 23.332031 13.332031 "/>
<path style=" stroke:none;fill-rule:nonzero;fill:rgb(0%,0%,0%);fill-opacity:1;" d="M 23.332031 2.667969 C 21.863281 2.667969 20.667969 3.863281 20.667969 5.332031 C 20.667969 6.804688 21.863281 8 23.332031 8 C 24.804688 8 26 6.804688 26 5.332031 C 26 3.863281 24.804688 2.667969 23.332031 2.667969 Z M 23.332031 6.667969 C 22.597656 6.667969 22 6.070312 22 5.332031 C 22 4.597656 22.597656 4 23.332031 4 C 24.070312 4 24.667969 4.597656 24.667969 5.332031 C 24.667969 6.070312 24.070312 6.667969 23.332031 6.667969 Z M 23.332031 6.667969 "/>
<path style=" stroke:none;fill-rule:nonzero;fill:rgb(0%,0%,0%);fill-opacity:1;" d="M 25.265625 9.332031 L 21.398438 9.332031 C 20.261719 9.332031 19.332031 10.234375 19.332031 11.34375 L 19.332031 13.101562 C 19.332031 13.339844 19.460938 13.558594 19.664062 13.679688 C 20.785156 14.324219 22.050781 14.667969 23.332031 14.667969 C 24.617188 14.667969 25.882812 14.324219 27 13.679688 C 27.207031 13.558594 27.332031 13.339844 27.332031 13.101562 L 27.332031 11.34375 C 27.332031 10.234375 26.40625 9.332031 25.265625 9.332031 Z M 26 12.703125 C 24.339844 13.53125 22.324219 13.53125 20.667969 12.703125 L 20.667969 11.34375 C 20.667969 10.96875 20.996094 10.667969 21.398438 10.667969 L 25.265625 10.667969 C 25.671875 10.667969 26 10.96875 26 11.34375 Z M 26 12.703125 "/>
<path style=" stroke:none;fill-rule:nonzero;fill:rgb(0%,0%,0%);fill-opacity:1;" d="M 17.175781 6.898438 C 16.933594 6.621094 16.515625 6.585938 16.234375 6.828125 L 11.613281 10.78125 C 11.335938 11.019531 11.300781 11.441406 11.539062 11.71875 C 11.671875 11.875 11.859375 11.953125 12.046875 11.953125 C 12.199219 11.953125 12.355469 11.902344 12.480469 11.792969 L 17.101562 7.839844 C 17.378906 7.601562 17.414062 7.179688 17.175781 6.898438 Z M 17.175781 6.898438 "/>
<path style=" stroke:none;fill-rule:nonzero;fill:rgb(0%,0%,0%);fill-opacity:1;" d="M 31.867188 17.601562 L 27.867188 12.265625 C 27.644531 11.972656 27.226562 11.914062 26.933594 12.132812 C 26.636719 12.355469 26.578125 12.773438 26.800781 13.066406 L 30.800781 18.398438 C 30.929688 18.574219 31.132812 18.667969 31.332031 18.667969 C 31.472656 18.667969 31.613281 18.625 31.734375 18.535156 C 32.027344 18.3125 32.085938 17.894531 31.867188 17.601562 Z M 31.867188 17.601562 "/>
<path style=" stroke:none;fill-rule:nonzero;fill:rgb(0%,0%,0%);fill-opacity:1;" d="M 26.394531 26.871094 C 26.175781 26.578125 25.757812 26.515625 25.460938 26.738281 L 21.738281 29.53125 C 21.441406 29.75 21.382812 30.167969 21.605469 30.464844 C 21.734375 30.636719 21.9375 30.730469 22.136719 30.730469 C 22.277344 30.730469 22.417969 30.6875 22.539062 30.597656 L 26.261719 27.804688 C 26.554688 27.582031 26.617188 27.164062 26.394531 26.871094 Z M 26.394531 26.871094 "/>
<path style=" stroke:none;fill-rule:nonzero;fill:rgb(0%,0%,0%);fill-opacity:1;" d="M 9.332031 32 L 4.667969 32 C 4.296875 32 4 32.296875 4 32.667969 C 4 33.035156 4.296875 33.332031 4.667969 33.332031 L 9.332031 33.332031 C 9.703125 33.332031 10 33.035156 10 32.667969 C 10 32.296875 9.703125 32 9.332031 32 Z M 9.332031 32 "/>
<path style=" stroke:none;fill-rule:nonzero;fill:rgb(0%,0%,0%);fill-opacity:1;" d="M 7.332031 0 C 5.863281 0 4.667969 1.195312 4.667969 2.667969 C 4.667969 4.136719 5.863281 5.332031 7.332031 5.332031 C 8.804688 5.332031 10 4.136719 10 2.667969 C 10 1.195312 8.804688 0 7.332031 0 Z M 7.332031 4 C 6.597656 4 6 3.402344 6 2.667969 C 6 1.929688 6.597656 1.332031 7.332031 1.332031 C 8.070312 1.332031 8.667969 1.929688 8.667969 2.667969 C 8.667969 3.402344 8.070312 4 7.332031 4 Z M 7.332031 4 "/>
<path style=" stroke:none;fill-rule:nonzero;fill:rgb(0%,0%,0%);fill-opacity:1;" d="M 7.332031 4 C 6.964844 4 6.667969 4.296875 6.667969 4.667969 L 6.667969 9.332031 C 6.667969 9.703125 6.964844 10 7.332031 10 C 7.703125 10 8 9.703125 8 9.332031 L 8 4.667969 C 8 4.296875 7.703125 4 7.332031 4 Z M 7.332031 4 "/>
</g>
</svg>
