<?xml version="1.0" encoding="UTF-8"?>
<svg xmlns="http://www.w3.org/2000/svg" xmlns:xlink="http://www.w3.org/1999/xlink" width="45px" height="45px" viewBox="0 0 45 45" version="1.1">
<g id="surface1">
<path style=" stroke:none;fill-rule:nonzero;fill:#21a96a;fill-opacity:1;" d="M 25.71875 18.96875 L 20.25 24.441406 L 19.28125 23.46875 C 18.984375 23.183594 18.519531 23.191406 18.230469 23.480469 C 17.941406 23.769531 17.933594 24.234375 18.21875 24.53125 L 19.71875 26.03125 C 20.011719 26.324219 20.488281 26.324219 20.78125 26.03125 L 26.78125 20.03125 C 27.066406 19.734375 27.058594 19.269531 26.769531 18.980469 C 26.480469 18.691406 26.015625 18.683594 25.71875 18.96875 Z M 25.71875 18.96875 "/>
<path style=" stroke:none;fill-rule:nonzero;fill:rgb(0%,0%,0%);fill-opacity:1;" d="M 34.5 24 C 34.464844 24 34.429688 24 34.394531 24 C 34.886719 20.320312 33.632812 16.617188 31.007812 13.992188 C 28.382812 11.367188 24.679688 10.113281 21 10.605469 C 21 10.570312 21 10.535156 21 10.5 C 21.007812 5.597656 17.621094 1.34375 12.839844 0.25 C 8.0625 -0.84375 3.160156 1.515625 1.039062 5.933594 C -1.085938 10.355469 0.128906 15.652344 3.964844 18.703125 C 3.976562 18.71875 3.996094 18.722656 4.007812 18.738281 C 4.960938 19.492188 6.039062 20.074219 7.191406 20.460938 C 7.207031 20.46875 7.222656 20.472656 7.238281 20.480469 C 8.289062 20.824219 9.390625 21 10.5 21 L 10.605469 21 C 10.113281 24.679688 11.367188 28.382812 13.992188 31.007812 C 16.617188 33.632812 20.320312 34.886719 24 34.394531 L 24 34.5 C 24 37.695312 25.460938 40.71875 27.964844 42.703125 C 27.976562 42.71875 27.996094 42.722656 28.007812 42.738281 C 28.960938 43.492188 30.039062 44.074219 31.191406 44.460938 C 31.207031 44.46875 31.222656 44.472656 31.238281 44.480469 C 33.355469 45.179688 35.644531 45.179688 37.761719 44.480469 C 37.777344 44.472656 37.792969 44.46875 37.808594 44.460938 C 38.960938 44.074219 40.039062 43.492188 40.992188 42.738281 C 41.007812 42.722656 41.023438 42.71875 41.035156 42.703125 C 44.53125 39.929688 45.886719 35.246094 44.414062 31.03125 C 42.941406 26.816406 38.964844 23.996094 34.5 24 Z M 34.5 36 C 33.277344 36.007812 32.128906 35.414062 31.425781 34.414062 C 30.722656 33.414062 30.554688 32.132812 30.976562 30.984375 C 31.554688 30.402344 32.074219 29.761719 32.523438 29.074219 C 33.117188 28.699219 33.800781 28.5 34.5 28.5 C 36.570312 28.5 38.25 30.179688 38.25 32.25 C 38.25 34.320312 36.570312 36 34.5 36 Z M 1.5 10.5 C 1.5 5.53125 5.53125 1.5 10.5 1.5 C 15.46875 1.5 19.5 5.53125 19.5 10.5 C 19.5 10.640625 19.496094 10.769531 19.492188 10.898438 C 17.90625 11.308594 16.421875 12.042969 15.132812 13.050781 C 14.730469 12.746094 14.28125 12.5 13.804688 12.328125 C 15.535156 10.925781 16.191406 8.589844 15.449219 6.492188 C 14.707031 4.398438 12.726562 2.996094 10.5 2.996094 C 8.277344 2.996094 6.292969 4.398438 5.550781 6.492188 C 4.808594 8.589844 5.46875 10.925781 7.195312 12.328125 C 5.386719 12.992188 4.089844 14.59375 3.808594 16.5 C 2.324219 14.855469 1.5 12.71875 1.5 10.5 Z M 6.75 8.25 C 6.75 6.179688 8.429688 4.5 10.5 4.5 C 12.570312 4.5 14.25 6.179688 14.25 8.25 C 14.25 10.320312 12.570312 12 10.5 12 C 8.429688 11.996094 6.753906 10.320312 6.75 8.25 Z M 10.5 19.5 C 9.742188 19.496094 8.984375 19.398438 8.25 19.203125 L 8.25 17.25 C 8.25 16.835938 7.914062 16.5 7.5 16.5 C 7.085938 16.5 6.75 16.835938 6.75 17.25 L 6.75 18.675781 C 6.222656 18.433594 5.71875 18.140625 5.25 17.800781 L 5.25 17.25 C 5.253906 15.179688 6.929688 13.503906 9 13.5 L 12 13.5 C 12.699219 13.5 13.382812 13.695312 13.972656 14.070312 C 12.488281 15.574219 11.425781 17.445312 10.898438 19.492188 C 10.769531 19.496094 10.640625 19.5 10.5 19.5 Z M 12 22.5 C 12 16.699219 16.699219 12 22.5 12 C 28.300781 12 33 16.699219 33 22.5 C 33 28.300781 28.300781 33 22.5 33 C 16.703125 32.992188 12.007812 28.296875 12 22.5 Z M 25.5 34.5 C 25.5 34.359375 25.503906 34.230469 25.507812 34.101562 C 26.847656 33.757812 28.117188 33.1875 29.257812 32.40625 C 29.304688 33.933594 30.011719 35.363281 31.199219 36.324219 C 29.390625 36.988281 28.089844 38.59375 27.808594 40.5 C 26.324219 38.855469 25.5 36.71875 25.5 34.5 Z M 32.25 43.199219 L 32.25 41.25 C 32.25 40.835938 31.914062 40.5 31.5 40.5 C 31.085938 40.5 30.75 40.835938 30.75 41.25 L 30.75 42.675781 C 30.222656 42.433594 29.71875 42.140625 29.25 41.800781 L 29.25 41.25 C 29.253906 39.179688 30.929688 37.503906 33 37.5 L 36 37.5 C 38.070312 37.503906 39.746094 39.179688 39.75 41.25 L 39.75 41.796875 C 39.28125 42.136719 38.777344 42.429688 38.25 42.675781 L 38.25 41.25 C 38.25 40.835938 37.914062 40.5 37.5 40.5 C 37.085938 40.5 36.75 40.835938 36.75 41.25 L 36.75 43.199219 C 35.277344 43.59375 33.722656 43.59375 32.25 43.199219 Z M 41.191406 40.5 C 40.910156 38.59375 39.609375 36.988281 37.800781 36.324219 C 39.523438 34.925781 40.179688 32.59375 39.441406 30.5 C 38.699219 28.40625 36.722656 27.003906 34.5 27 C 34.191406 27.003906 33.886719 27.03125 33.585938 27.089844 C 33.792969 26.574219 33.964844 26.046875 34.101562 25.507812 C 34.230469 25.503906 34.359375 25.5 34.5 25.5 C 38.050781 25.492188 41.273438 27.582031 42.722656 30.824219 C 44.167969 34.070312 43.566406 37.859375 41.191406 40.5 Z M 41.191406 40.5 "/>
<path style=" stroke:none;fill-rule:nonzero;fill:rgb(0%,0%,0%);fill-opacity:1;" d="M 26.78125 0.96875 C 26.488281 0.675781 26.011719 0.675781 25.71875 0.96875 L 23.46875 3.21875 C 23.175781 3.511719 23.175781 3.988281 23.46875 4.28125 L 25.71875 6.53125 C 26.015625 6.816406 26.480469 6.808594 26.769531 6.519531 C 27.058594 6.230469 27.066406 5.765625 26.78125 5.46875 L 25.847656 4.535156 C 35.339844 5.125 42.738281 12.992188 42.75 22.5 C 42.75 22.914062 43.085938 23.25 43.5 23.25 C 43.914062 23.25 44.25 22.914062 44.25 22.5 C 44.238281 12.136719 36.128906 3.589844 25.78125 3.027344 L 26.78125 2.03125 C 27.074219 1.738281 27.074219 1.261719 26.78125 0.96875 Z M 26.78125 0.96875 "/>
<path style=" stroke:none;fill-rule:nonzero;fill:rgb(0%,0%,0%);fill-opacity:1;" d="M 2.25 22.5 C 2.25 22.085938 1.914062 21.75 1.5 21.75 C 1.085938 21.75 0.75 22.085938 0.75 22.5 C 0.761719 32.863281 8.871094 41.410156 19.21875 41.972656 L 18.21875 42.96875 C 18.023438 43.15625 17.945312 43.4375 18.015625 43.699219 C 18.082031 43.960938 18.289062 44.167969 18.550781 44.234375 C 18.8125 44.304688 19.09375 44.226562 19.28125 44.03125 L 21.53125 41.78125 C 21.824219 41.488281 21.824219 41.011719 21.53125 40.71875 L 19.28125 38.46875 C 18.984375 38.183594 18.519531 38.191406 18.230469 38.480469 C 17.941406 38.769531 17.933594 39.234375 18.21875 39.53125 L 19.152344 40.464844 C 9.660156 39.875 2.261719 32.007812 2.25 22.5 Z M 2.25 22.5 "/>
</g>
</svg>
