<?xml version="1.0" encoding="UTF-8"?>
<svg xmlns="http://www.w3.org/2000/svg" xmlns:xlink="http://www.w3.org/1999/xlink" width="40px" height="40px" viewBox="0 0 40 40" version="1.1">
<g id="surface1">
<path style=" stroke:none;fill-rule:nonzero;fill:rgb(0%,0%,0%);fill-opacity:1;" d="M 21.773438 28.777344 C 21.308594 28.683594 20.882812 28.484375 20.527344 28.199219 L 20.527344 28.28125 C 20.527344 28.582031 20.28125 28.828125 19.980469 28.828125 L 19.820312 28.828125 L 19.820312 34.53125 C 19.820312 34.660156 19.8125 34.789062 19.796875 34.914062 L 20.742188 34.914062 C 21.308594 34.914062 21.773438 34.449219 21.773438 33.882812 Z M 20.527344 22.921875 C 22.421875 21.414062 25.203125 22.789062 25.203125 25.179688 L 25.203125 25.941406 C 25.203125 27.332031 24.207031 28.515625 22.867188 28.773438 L 22.867188 33.882812 C 22.867188 35.050781 21.910156 36.003906 20.742188 36.003906 L 19.4375 36.003906 C 18.34375 37.953125 15.597656 38.101562 14.308594 36.261719 C 13.023438 38.101562 10.273438 37.953125 9.183594 36.003906 L 7.875 36.003906 C 6.707031 36.003906 5.75 35.050781 5.75 33.882812 L 5.75 28.773438 C 4.410156 28.515625 3.410156 27.332031 3.410156 25.941406 L 3.410156 25.179688 C 3.410156 23.910156 4.246094 22.808594 5.421875 22.429688 L 1.894531 18.003906 C 1.675781 17.730469 1.777344 17.335938 2.074219 17.175781 L 6.558594 14.640625 C 6.792969 14.507812 7.089844 14.566406 7.253906 14.777344 L 7.253906 14.773438 L 8.269531 16.046875 C 8.628906 14.84375 9.53125 13.859375 10.695312 13.386719 C 8.988281 11.472656 9.074219 8.5625 10.890625 6.746094 C 12.777344 4.855469 15.84375 4.855469 17.734375 6.746094 C 19.546875 8.558594 19.632812 11.472656 17.925781 13.386719 C 17.976562 13.410156 18.027344 13.429688 18.074219 13.453125 L 22.347656 13.453125 L 23.84375 11.765625 C 24.640625 10.867188 25.851562 10.351562 27.058594 10.078125 C 25.675781 8.21875 25.867188 5.621094 27.503906 3.984375 C 29.332031 2.160156 32.289062 2.160156 34.113281 3.984375 C 35.871094 5.742188 35.949219 8.566406 34.285156 10.414062 C 35.914062 10.914062 38.023438 11.957031 38.023438 13.734375 L 38.023438 21.207031 C 38.023438 22.847656 36.242188 23.890625 34.8125 23.078125 L 34.8125 33.335938 C 34.8125 34.796875 33.617188 35.996094 32.152344 35.996094 C 31.304688 35.996094 30.53125 35.589844 30.042969 34.945312 C 29.066406 36.226562 27.195312 36.355469 26.054688 35.210938 C 25.574219 34.730469 25.273438 34.066406 25.273438 33.335938 L 25.273438 16.214844 C 24.652344 16.917969 24.355469 17.386719 23.355469 17.476562 C 23.144531 17.503906 20.929688 17.488281 20.527344 17.488281 Z M 22.320312 27.734375 C 23.304688 27.734375 24.109375 26.925781 24.109375 25.941406 L 24.109375 25.179688 C 24.109375 23.605469 22.191406 22.773438 21.050781 23.914062 C 20.4375 24.53125 20.527344 25.152344 20.527344 25.941406 C 20.527344 26.925781 21.332031 27.734375 22.320312 27.734375 Z M 7.222656 22.714844 C 7.234375 22.707031 7.246094 22.703125 7.253906 22.695312 L 10.644531 20.777344 L 6.691406 15.820312 L 3.148438 17.824219 L 7.101562 22.785156 Z M 9.183594 25.132812 L 9.183594 26.460938 C 10.277344 24.515625 13.019531 24.371094 14.308594 26.207031 C 15.59375 24.371094 18.335938 24.515625 19.433594 26.460938 L 19.433594 24.355469 C 19.085938 24.566406 18.679688 24.691406 18.242188 24.691406 L 14.378906 24.691406 C 12.351562 24.691406 11.332031 22.230469 12.765625 20.792969 C 13.179688 20.382812 13.75 20.128906 14.378906 20.128906 L 15.960938 20.128906 L 15.960938 17.230469 C 15.960938 16.929688 16.207031 16.683594 16.507812 16.683594 C 16.8125 16.683594 17.054688 16.929688 17.054688 17.230469 L 17.054688 20.671875 C 17.054688 20.976562 16.8125 21.21875 16.507812 21.21875 L 14.378906 21.21875 C 13.324219 21.21875 12.792969 22.5 13.539062 23.25 C 13.753906 23.464844 14.050781 23.597656 14.378906 23.597656 L 18.242188 23.597656 C 18.902344 23.597656 19.433594 23.066406 19.433594 22.410156 L 19.433594 17.230469 C 19.433594 16.023438 18.742188 15 17.695312 14.480469 C 17.457031 14.367188 17.203125 14.285156 16.9375 14.234375 C 16.179688 14.722656 15.28125 15.011719 14.308594 15.011719 C 13.339844 15.011719 12.4375 14.722656 11.679688 14.234375 C 11.003906 14.363281 10.402344 14.714844 9.957031 15.210938 C 9.484375 15.746094 9.195312 16.441406 9.1875 17.203125 L 10.917969 19.378906 L 10.917969 17.539062 C 10.917969 17.238281 11.164062 16.992188 11.464844 16.992188 C 11.769531 16.992188 12.011719 17.238281 12.011719 17.539062 L 12.011719 20.941406 C 12.011719 21.160156 11.882812 21.347656 11.699219 21.433594 L 9.183594 22.859375 Z M 8.09375 28.199219 C 7.734375 28.484375 7.308594 28.683594 6.84375 28.777344 L 6.84375 33.882812 C 6.84375 34.449219 7.308594 34.914062 7.875 34.914062 L 8.820312 34.914062 C 8.804688 34.789062 8.796875 34.660156 8.796875 34.53125 L 8.796875 28.828125 L 8.636719 28.828125 C 8.320312 28.828125 8.078125 28.578125 8.09375 28.230469 Z M 6.183594 23.390625 C 5.25 23.449219 4.503906 24.234375 4.503906 25.179688 L 4.503906 25.941406 C 4.503906 27.511719 6.425781 28.34375 7.5625 27.207031 C 7.890625 26.882812 8.089844 26.433594 8.089844 25.941406 C 8.089844 25.574219 8.113281 25.160156 8.054688 24.816406 C 7.992188 24.445312 7.757812 24.070312 7.472656 23.824219 L 7.230469 23.964844 C 6.996094 24.097656 6.699219 24.035156 6.535156 23.828125 Z M 16.960938 7.519531 C 15.496094 6.054688 13.125 6.054688 11.664062 7.519531 C 10.199219 8.980469 10.199219 11.355469 11.664062 12.816406 C 13.125 14.28125 15.5 14.28125 16.960938 12.816406 C 18.421875 11.355469 18.421875 8.980469 16.960938 7.519531 Z M 11.824219 26.003906 C 10.761719 26.003906 9.890625 26.875 9.890625 27.9375 L 9.890625 34.53125 C 9.890625 35.585938 10.753906 36.464844 11.824219 36.464844 C 12.898438 36.464844 13.761719 35.585938 13.761719 34.53125 L 13.761719 27.9375 C 13.761719 26.875 12.890625 26.003906 11.824219 26.003906 Z M 16.789062 26.003906 C 15.726562 26.003906 14.855469 26.875 14.855469 27.9375 L 14.855469 34.53125 C 14.855469 35.585938 15.71875 36.464844 16.789062 36.464844 C 17.863281 36.464844 18.726562 35.585938 18.726562 34.53125 L 18.726562 27.9375 C 18.726562 26.875 17.855469 26.003906 16.789062 26.003906 Z M 19.53125 14.546875 C 19.976562 15.066406 20.296875 15.699219 20.441406 16.394531 L 23.167969 16.394531 C 23.457031 16.382812 23.707031 16.332031 23.933594 16.078125 L 25.414062 14.414062 C 25.746094 14.035156 26.363281 14.277344 26.363281 14.773438 L 26.367188 14.773438 L 26.367188 23.378906 C 26.367188 23.941406 26.828125 24.40625 27.394531 24.40625 L 32.691406 24.40625 C 33.253906 24.40625 33.71875 23.941406 33.71875 23.378906 L 33.71875 16.945312 C 33.71875 16.644531 33.964844 16.398438 34.265625 16.398438 C 34.566406 16.398438 34.8125 16.644531 34.8125 16.945312 L 34.8125 21.207031 C 34.8125 22.132812 35.945312 22.628906 36.621094 21.953125 C 36.8125 21.761719 36.929688 21.496094 36.929688 21.207031 L 36.929688 13.738281 C 36.929688 13.257812 36.585938 12.800781 36.019531 12.402344 C 35.335938 11.917969 34.367188 11.53125 33.265625 11.269531 C 31.621094 12.285156 29.519531 12.179688 27.984375 11.011719 C 26.789062 11.195312 25.429688 11.617188 24.65625 12.488281 L 23 14.363281 C 22.890625 14.484375 22.742188 14.546875 22.589844 14.546875 Z M 30.808594 3.710938 C 28.835938 3.710938 27.230469 5.3125 27.230469 7.289062 C 27.230469 9.269531 28.832031 10.867188 30.808594 10.867188 C 32.785156 10.867188 34.390625 9.269531 34.390625 7.289062 C 34.390625 5.3125 32.785156 3.710938 30.808594 3.710938 Z M 33.71875 25.234375 C 33.410156 25.40625 33.0625 25.503906 32.691406 25.503906 L 30.589844 25.503906 L 30.589844 33.335938 C 30.589844 34.707031 32.265625 35.433594 33.257812 34.441406 C 33.542969 34.15625 33.71875 33.765625 33.71875 33.335938 Z M 29.492188 25.503906 L 27.394531 25.503906 C 27.023438 25.503906 26.671875 25.40625 26.367188 25.234375 L 26.367188 33.335938 C 26.367188 34.707031 28.042969 35.433594 29.035156 34.441406 C 29.320312 34.15625 29.496094 33.765625 29.496094 33.335938 L 29.496094 25.503906 Z M 29.492188 25.503906 "/>
</g>
</svg>
