<?xml version="1.0" encoding="UTF-8"?>
<svg id="Layer_1" data-name="Layer 1" xmlns="http://www.w3.org/2000/svg" viewBox="0 0 100 100">
  <defs>
    <style>
      .cls-1 {
        fill: #003f70;
      }
    </style>
  </defs>
  <g id="surface1">
    <path class="cls-1" d="M96.6,26.4c-1.7-1.1-3.7-1.4-5.6-1s-3.6,1.6-4.7,3.2l-1.6,2.5-9.3,14.5V2c0-1.1-.9-2-2-2H2C.9,0,0,.9,0,2v70.6c0,1.1.9,2,2,2s2-.9,2-2V3.9h67.6v47.8l-11.8,18.4c0,.2-.2.4-.3.7l-1.5,7.7c-.8-.3-1.7-.4-2.6-.2-1.4.3-2.7.9-3.8,1.8,0-.7,0-1.3-.2-2-.2-2-1.1-3.6-2.5-4.5-2.9-2-6.3.3-7.5,1.1-3.7,2.5-6.8,5.9-9.1,10.1-.5.9-.2,2.1.8,2.7.3.2.6.2.9.2.7,0,1.4-.4,1.7-1,2-3.6,4.7-6.6,7.9-8.7,2.2-1.5,2.9-1.2,3.1-1.1.6.4.7,1.4.8,1.7.3,2.3.3,4,0,7,0,.9.5,1.8,1.4,2.1s1.9-.2,2.3-1c.9-1.9,2.9-4,4.9-4.3.4,0,.6,0,.7.2,0,.3,0,1.7,0,2.9-.3,1.8,1.8,3,3.2,1.9l11.7-8.4v17.3H3.9v-6.3c0-1.1-.9-2-2-2s-2,.9-2,2v8.3c0,1.1.9,2,2,2h71.5c1.1,0,2-.9,2-2v-24.9l21.8-34,1.6-2.5c2.2-3.4,1.2-8.1-2.2-10.3v-.2ZM89.6,30.7c1-1.6,3.2-2.1,4.9-1.1,1.6,1.1,2.1,3.2,1.1,4.9l-.5.9-5.9-3.8.5-.9h0ZM61.4,81.2l1.2-6.3v-.6c0,0,2.3,1.4,2.3,1.4l2.2,1.4-2,1.4s-3.7,2.7-3.7,2.7ZM71.8,71.5h0l-1.8,2.9-5.9-3.8,11.1-17.2h0l11.9-18.5,5.9,3.8-21.1,32.8h0Z"/>
    <path class="cls-1" d="M36.7,9.2H14.9c-1.1,0-2,.9-2,2v24.7c0,1.1.9,2,2,2h21.7c1.1,0,2-.9,2-2V11.1c0-1.1-.9-2-2-2h.1ZM34.7,13.1v14c-1.1-.9-2.3-1.4-3.4-1.9.7-1,1.1-2.3,1.1-3.6,0-3.6-3-6.6-6.6-6.6s-6.6,3-6.6,6.6.4,2.6,1.1,3.6c-1.1.4-2.3,1-3.4,1.9v-14h17.8ZM25.8,24.2h0c-1.5,0-2.7-1.2-2.7-2.7s1.2-2.7,2.7-2.7,2.7,1.2,2.7,2.7-1.2,2.7-2.7,2.7h0ZM17.1,33.8c.3-1.3.9-2.4,1.8-3.3,2.5-2.5,6.8-2.4,6.9-2.4h.1s4.3,0,6.9,2.4c.9.9,1.5,2,1.8,3.3,0,0-17.5,0-17.5,0Z"/>
    <path class="cls-1" d="M47.8,17h14.3c1.1,0,2-.9,2-2s-.9-2-2-2h-14.3c-1.1,0-2,.9-2,2s.9,2,2,2Z"/>
    <path class="cls-1" d="M47.8,25.5h14.3c1.1,0,2-.9,2-2s-.9-2-2-2h-14.3c-1.1,0-2,.9-2,2s.9,2,2,2Z"/>
    <path class="cls-1" d="M47.8,34.1h14.3c1.1,0,2-.9,2-2s-.9-2-2-2h-14.3c-1.1,0-2,.9-2,2s.9,2,2,2Z"/>
    <path class="cls-1" d="M13.4,45v9.6c0,1.1.9,2,2,2h46.9c1.1,0,2-.9,2-2v-9.6c0-1.1-.9-2-2-2H15.3c-1.1,0-2,.9-2,2h0ZM17.3,46.9h42.9v5.7H17.3v-5.7Z"/>
    <path class="cls-1" d="M44.9,64.2c0-1.1-.9-2-2-2h-26.9c-1.1,0-2,.9-2,2s.9,2,2,2h26.9c1.1,0,1.9-.9,1.9-2h0Z"/>
    <path class="cls-1" d="M16,70.5c-1.1,0-2,.9-2,2s.9,2,2,2h12.7c1.1,0,2-.9,2-2s-.9-2-2-2h-12.7Z"/>
    <path class="cls-1" d="M.3,82.3c.6.9,1.8,1.1,2.7.5s1.1-1.8.5-2.7c-.6-.9-1.8-1.1-2.7-.5-.9.6-1.1,1.8-.5,2.7Z"/>
  </g>
</svg>