<?xml version="1.0" encoding="UTF-8"?>
<svg xmlns="http://www.w3.org/2000/svg" xmlns:xlink="http://www.w3.org/1999/xlink" width="100px" height="100px" viewBox="0 0 100 100" version="1.1">
<g id="surface1">
<path style=" stroke:none;fill-rule:nonzero;fill:#5ed084;fill-opacity:1;" d="M 96.589844 26.390625 C 94.917969 25.316406 92.933594 24.960938 90.992188 25.378906 C 89.054688 25.800781 87.394531 26.953125 86.324219 28.621094 L 84.722656 31.113281 L 75.382812 45.644531 L 75.382812 1.953125 C 75.382812 0.875 74.507812 0 73.429688 0 L 1.953125 0 C 0.875 0 0 0.875 0 1.953125 L 0 72.570312 C 0 73.648438 0.875 74.523438 1.953125 74.523438 C 3.035156 74.523438 3.90625 73.648438 3.90625 72.570312 L 3.90625 3.90625 L 71.476562 3.90625 L 71.476562 51.71875 L 59.671875 70.085938 C 59.539062 70.289062 59.441406 70.53125 59.398438 70.769531 L 57.898438 78.492188 C 57.128906 78.210938 56.246094 78.136719 55.3125 78.308594 C 53.921875 78.570312 52.625 79.21875 51.484375 80.082031 C 51.441406 79.425781 51.378906 78.765625 51.300781 78.054688 C 51.085938 76.070312 50.210938 74.457031 48.839844 73.515625 C 45.980469 71.550781 42.523438 73.859375 41.382812 74.617188 C 37.703125 77.074219 34.539062 80.554688 32.238281 84.691406 C 31.714844 85.632812 32.054688 86.824219 32.996094 87.347656 C 33.296875 87.515625 33.625 87.59375 33.945312 87.59375 C 34.632812 87.59375 35.296875 87.230469 35.652344 86.589844 C 37.652344 82.996094 40.382812 79.980469 43.550781 77.867188 C 45.777344 76.382812 46.46875 76.625 46.628906 76.734375 C 47.214844 77.136719 47.375 78.089844 47.417969 78.480469 C 47.671875 80.796875 47.742188 82.433594 47.449219 85.453125 C 47.359375 86.398438 47.957031 87.269531 48.871094 87.523438 C 49.785156 87.777344 50.746094 87.339844 51.15625 86.484375 C 52.050781 84.617188 54.011719 82.527344 56.03125 82.148438 C 56.433594 82.074219 56.65625 82.148438 56.699219 82.363281 C 56.757812 82.710938 56.703125 84.035156 56.585938 85.261719 C 56.261719 87.050781 58.375 88.289062 59.757812 87.144531 L 71.476562 78.785156 L 71.476562 96.09375 L 3.90625 96.09375 L 3.90625 89.757812 C 3.90625 88.679688 3.03125 87.804688 1.953125 87.804688 C 0.875 87.804688 0 88.679688 0 89.757812 L 0 98.046875 C 0 99.125 0.875 100 1.953125 100 L 73.429688 100 C 74.507812 100 75.382812 99.125 75.382812 98.046875 L 75.382812 73.117188 L 97.21875 39.148438 L 98.820312 36.65625 C 101.035156 33.210938 100.035156 28.605469 96.589844 26.390625 Z M 89.609375 30.734375 C 90.648438 29.121094 92.859375 28.636719 94.476562 29.675781 C 96.109375 30.726562 96.585938 32.910156 95.535156 34.542969 L 94.988281 35.394531 L 89.0625 31.585938 Z M 61.351562 81.207031 L 62.566406 74.945312 L 62.683594 74.34375 L 64.863281 75.746094 L 67.042969 77.144531 L 65.089844 78.539062 Z M 71.789062 71.484375 C 71.789062 71.484375 71.785156 71.488281 71.785156 71.488281 L 69.9375 74.363281 L 64.011719 70.554688 L 75.070312 53.351562 C 75.074219 53.347656 75.074219 53.34375 75.078125 53.34375 L 86.949219 34.871094 L 92.875 38.679688 Z M 71.789062 71.484375 "/>
<path style=" stroke:none;fill-rule:nonzero;fill:rgb(0%,0%,0%);fill-opacity:1;" d="M 36.671875 9.164062 L 14.9375 9.164062 C 13.859375 9.164062 12.984375 10.039062 12.984375 11.117188 L 12.984375 35.789062 C 12.984375 36.867188 13.859375 37.742188 14.9375 37.742188 L 36.671875 37.742188 C 37.75 37.742188 38.625 36.867188 38.625 35.789062 L 38.625 11.121094 C 38.625 10.039062 37.75 9.167969 36.671875 9.167969 Z M 34.71875 13.074219 L 34.71875 27.050781 C 33.636719 26.199219 32.453125 25.605469 31.304688 25.191406 C 31.992188 24.152344 32.394531 22.90625 32.394531 21.566406 C 32.394531 17.933594 29.4375 14.976562 25.804688 14.976562 C 22.167969 14.976562 19.210938 17.933594 19.210938 21.566406 C 19.210938 22.902344 19.613281 24.148438 20.300781 25.1875 C 19.152344 25.601562 17.96875 26.195312 16.890625 27.046875 L 16.890625 13.070312 Z M 25.804688 24.25 C 25.800781 24.25 25.792969 24.25 25.785156 24.25 C 24.3125 24.242188 23.117188 23.042969 23.117188 21.566406 C 23.117188 20.085938 24.324219 18.882812 25.804688 18.882812 C 27.285156 18.882812 28.488281 20.085938 28.488281 21.566406 C 28.488281 23.042969 27.292969 24.242188 25.816406 24.25 C 25.8125 24.25 25.808594 24.25 25.804688 24.25 Z M 17.074219 33.835938 C 17.347656 32.496094 17.925781 31.40625 18.828125 30.53125 C 21.367188 28.066406 25.644531 28.152344 25.738281 28.15625 C 25.742188 28.15625 25.75 28.15625 25.757812 28.15625 C 25.773438 28.15625 25.789062 28.15625 25.804688 28.15625 C 25.820312 28.15625 25.835938 28.15625 25.855469 28.15625 C 25.859375 28.15625 25.867188 28.15625 25.875 28.15625 C 25.917969 28.15625 30.222656 28.070312 32.765625 30.523438 C 33.671875 31.398438 34.257812 32.492188 34.535156 33.835938 Z M 17.074219 33.835938 "/>
<path style=" stroke:none;fill-rule:nonzero;fill:rgb(0%,0%,0%);fill-opacity:1;" d="M 47.828125 16.957031 L 62.160156 16.957031 C 63.238281 16.957031 64.113281 16.082031 64.113281 15.003906 C 64.113281 13.925781 63.238281 13.050781 62.160156 13.050781 L 47.828125 13.050781 C 46.75 13.050781 45.875 13.925781 45.875 15.003906 C 45.875 16.082031 46.75 16.957031 47.828125 16.957031 Z M 47.828125 16.957031 "/>
<path style=" stroke:none;fill-rule:nonzero;fill:rgb(0%,0%,0%);fill-opacity:1;" d="M 47.828125 25.539062 L 62.160156 25.539062 C 63.238281 25.539062 64.113281 24.667969 64.113281 23.585938 C 64.113281 22.507812 63.238281 21.632812 62.160156 21.632812 L 47.828125 21.632812 C 46.75 21.632812 45.875 22.507812 45.875 23.585938 C 45.875 24.667969 46.75 25.539062 47.828125 25.539062 Z M 47.828125 25.539062 "/>
<path style=" stroke:none;fill-rule:nonzero;fill:rgb(0%,0%,0%);fill-opacity:1;" d="M 47.828125 34.125 L 62.160156 34.125 C 63.238281 34.125 64.113281 33.25 64.113281 32.171875 C 64.113281 31.09375 63.238281 30.21875 62.160156 30.21875 L 47.828125 30.21875 C 46.75 30.21875 45.875 31.09375 45.875 32.171875 C 45.875 33.25 46.75 34.125 47.828125 34.125 Z M 47.828125 34.125 "/>
<path style=" stroke:none;fill-rule:nonzero;fill:rgb(0%,0%,0%);fill-opacity:1;" d="M 13.351562 44.980469 L 13.351562 54.589844 C 13.351562 55.667969 14.226562 56.542969 15.304688 56.542969 L 62.160156 56.542969 C 63.238281 56.542969 64.113281 55.667969 64.113281 54.589844 L 64.113281 44.980469 C 64.113281 43.902344 63.238281 43.027344 62.160156 43.027344 L 15.304688 43.027344 C 14.226562 43.027344 13.351562 43.902344 13.351562 44.980469 Z M 17.257812 46.933594 L 60.207031 46.933594 L 60.207031 52.636719 L 17.257812 52.636719 Z M 17.257812 46.933594 "/>
<path style=" stroke:none;fill-rule:nonzero;fill:rgb(0%,0%,0%);fill-opacity:1;" d="M 44.886719 64.21875 C 44.886719 63.140625 44.015625 62.265625 42.933594 62.265625 L 15.996094 62.265625 C 14.917969 62.265625 14.042969 63.140625 14.042969 64.21875 C 14.042969 65.296875 14.917969 66.171875 15.996094 66.171875 L 42.9375 66.171875 C 44.015625 66.171875 44.886719 65.296875 44.886719 64.21875 Z M 44.886719 64.21875 "/>
<path style=" stroke:none;fill-rule:nonzero;fill:rgb(0%,0%,0%);fill-opacity:1;" d="M 15.996094 70.453125 C 14.917969 70.453125 14.042969 71.328125 14.042969 72.40625 C 14.042969 73.484375 14.917969 74.359375 15.996094 74.359375 L 28.679688 74.359375 C 29.757812 74.359375 30.632812 73.484375 30.632812 72.40625 C 30.632812 71.328125 29.757812 70.453125 28.679688 70.453125 Z M 15.996094 70.453125 "/>
<path style=" stroke:none;fill-rule:nonzero;fill:rgb(0%,0%,0%);fill-opacity:1;" d="M 0.332031 82.328125 C 0.921875 83.214844 2.152344 83.453125 3.039062 82.867188 C 3.925781 82.277344 4.164062 81.042969 3.578125 80.160156 C 2.988281 79.273438 1.753906 79.03125 0.871094 79.617188 C -0.0195312 80.210938 -0.25 81.4375 0.332031 82.328125 Z M 0.332031 82.328125 "/>
</g>
</svg>
