<?xml version="1.0" encoding="UTF-8"?>
<svg xmlns="http://www.w3.org/2000/svg" xmlns:xlink="http://www.w3.org/1999/xlink" width="100px" height="100px" viewBox="0 0 100 100" version="1.1">
<g id="surface1">
<path style=" stroke:none;fill-rule:nonzero;fill:#003f70;fill-opacity:1;" d="M 94.21875 11.171875 L 86.523438 11.171875 L 86.523438 10.386719 C 86.523438 8.34375 84.855469 6.679688 82.808594 6.679688 L 80.355469 6.679688 C 79.300781 2.855469 75.78125 0.0976562 71.71875 0.0976562 C 67.652344 0.0976562 64.128906 2.855469 63.078125 6.679688 L 60.621094 6.679688 C 58.578125 6.679688 56.914062 8.34375 56.914062 10.386719 L 56.914062 11.171875 L 49.21875 11.171875 C 46.609375 11.171875 44.488281 13.289062 44.488281 15.894531 L 44.488281 21.507812 C 41.171875 18.488281 36.769531 16.648438 31.945312 16.648438 C 21.664062 16.648438 13.300781 25.011719 13.300781 35.289062 C 13.300781 36.382812 13.398438 37.472656 13.585938 38.542969 C 12.671875 39.582031 12.117188 40.945312 12.117188 42.433594 C 12.117188 45.691406 14.769531 48.34375 18.023438 48.34375 L 19.199219 48.34375 C 20.238281 51.640625 22.492188 54.40625 25.433594 56.113281 L 25.433594 56.925781 L 18.632812 60.289062 L 7.769531 62.613281 C 3.816406 63.460938 1.050781 66.882812 1.050781 70.929688 L 1.050781 93.628906 C 1.050781 97.089844 3.863281 99.902344 7.324219 99.902344 L 57.289062 99.902344 C 60.75 99.902344 63.5625 97.089844 63.5625 93.628906 L 63.5625 70.929688 C 63.5625 66.882812 60.800781 63.460938 56.839844 62.613281 L 47.21875 60.554688 L 47.21875 48.308594 C 50.183594 47.992188 52.5 45.480469 52.5 42.433594 C 52.5 40.628906 51.6875 39.011719 50.40625 37.925781 C 50.53125 37.0625 50.59375 36.179688 50.59375 35.289062 C 50.59375 31.320312 49.34375 27.632812 47.21875 24.605469 L 47.21875 15.894531 C 47.21875 14.796875 48.113281 13.902344 49.21875 13.902344 L 56.914062 13.902344 L 56.914062 19.460938 C 56.914062 21.507812 58.578125 23.171875 60.621094 23.171875 L 82.808594 23.171875 C 84.855469 23.171875 86.523438 21.507812 86.523438 19.460938 L 86.523438 13.902344 L 94.21875 13.902344 C 95.320312 13.902344 96.21875 14.796875 96.21875 15.894531 L 96.21875 70.097656 C 96.21875 70.851562 96.832031 71.460938 97.585938 71.460938 C 98.339844 71.460938 98.949219 70.851562 98.949219 70.097656 L 98.949219 15.894531 C 98.949219 13.289062 96.828125 11.171875 94.21875 11.171875 Z M 18.027344 45.613281 C 16.273438 45.613281 14.847656 44.1875 14.847656 42.433594 C 14.847656 41.472656 15.277344 40.613281 15.953125 40.03125 C 15.957031 40.023438 15.960938 40.019531 15.964844 40.015625 C 16.523438 39.539062 17.238281 39.253906 18.027344 39.253906 L 18.566406 39.253906 L 18.566406 44.226562 C 18.566406 44.695312 18.589844 45.15625 18.636719 45.613281 Z M 21.296875 44.226562 L 21.296875 37.945312 C 21.929688 38.023438 22.574219 38.0625 23.21875 38.0625 C 27.519531 38.0625 32.585938 36.164062 36.417969 33.210938 C 37.605469 35.796875 40.164062 38.019531 43.195312 38.019531 C 43.234375 38.019531 43.277344 38.019531 43.316406 38.019531 L 43.316406 44.226562 C 43.316406 48.5 40.867188 52.207031 37.300781 54.03125 C 37.234375 54.058594 37.167969 54.09375 37.109375 54.128906 C 35.65625 54.835938 34.03125 55.234375 32.308594 55.234375 C 30.597656 55.234375 28.972656 54.839844 27.523438 54.136719 C 27.457031 54.09375 27.386719 54.058594 27.308594 54.027344 C 23.746094 52.203125 21.296875 48.496094 21.296875 44.226562 Z M 44.488281 50.570312 L 44.488281 59.550781 L 39.183594 56.929688 L 39.183594 56.109375 C 41.433594 54.804688 43.28125 52.878906 44.488281 50.570312 Z M 26.429688 59.480469 L 30.945312 65.023438 L 30.945312 68.675781 L 26.609375 71.339844 L 21.023438 62.152344 Z M 35.75 57.527344 C 35.761719 57.691406 35.804688 57.851562 35.875 58 L 32.308594 62.375 L 28.742188 57.996094 C 28.808594 57.847656 28.851562 57.6875 28.863281 57.523438 C 29.964844 57.808594 31.121094 57.960938 32.308594 57.960938 C 33.496094 57.960938 34.652344 57.8125 35.75 57.527344 Z M 33.675781 65.023438 L 38.1875 59.480469 L 43.585938 62.152344 L 38.003906 71.335938 L 33.675781 68.671875 Z M 3.78125 93.628906 L 3.78125 70.929688 C 3.78125 68.179688 5.65625 65.855469 8.34375 65.28125 L 18.421875 63.125 L 24.988281 73.929688 C 25.175781 74.238281 25.480469 74.460938 25.832031 74.546875 C 25.9375 74.570312 26.046875 74.582031 26.152344 74.582031 C 26.402344 74.582031 26.652344 74.515625 26.867188 74.382812 L 30.945312 71.878906 L 30.945312 97.171875 L 18.726562 97.171875 L 18.726562 77.980469 C 18.726562 77.226562 18.117188 76.617188 17.363281 76.617188 C 16.609375 76.617188 15.996094 77.226562 15.996094 77.980469 L 15.996094 97.171875 L 7.324219 97.171875 C 5.371094 97.171875 3.78125 95.582031 3.78125 93.628906 Z M 60.832031 70.929688 L 60.832031 93.628906 C 60.832031 95.582031 59.242188 97.171875 57.289062 97.171875 L 48.621094 97.171875 L 48.621094 77.980469 C 48.621094 77.226562 48.011719 76.617188 47.257812 76.617188 C 46.503906 76.617188 45.890625 77.226562 45.890625 77.980469 L 45.890625 97.171875 L 33.675781 97.171875 L 33.675781 71.878906 L 37.746094 74.382812 C 37.960938 74.515625 38.210938 74.582031 38.460938 74.582031 C 38.566406 74.582031 38.675781 74.570312 38.78125 74.546875 C 39.132812 74.460938 39.4375 74.238281 39.625 73.925781 L 46.1875 63.125 L 56.269531 65.28125 C 58.957031 65.855469 60.832031 68.179688 60.832031 70.929688 Z M 46.585938 45.613281 L 45.976562 45.613281 C 46.023438 45.15625 46.046875 44.695312 46.046875 44.226562 L 46.046875 39.253906 L 46.585938 39.253906 C 47.152344 39.253906 47.679688 39.402344 48.140625 39.660156 C 48.1875 39.691406 48.234375 39.722656 48.285156 39.75 C 49.175781 40.3125 49.769531 41.304688 49.769531 42.433594 C 49.769531 44.1875 48.34375 45.613281 46.585938 45.613281 Z M 47.804688 36.648438 C 47.410156 36.566406 47.003906 36.523438 46.585938 36.523438 L 46.046875 36.523438 L 46.046875 36.445312 C 46.046875 36.019531 45.847656 35.613281 45.503906 35.355469 C 45.164062 35.097656 44.722656 35.015625 44.308594 35.132812 C 43.9375 35.238281 43.5625 35.289062 43.195312 35.289062 C 40.851562 35.289062 38.765625 32.832031 38.464844 30.636719 C 38.394531 30.128906 38.046875 29.703125 37.5625 29.53125 C 37.078125 29.363281 36.539062 29.480469 36.167969 29.832031 C 32.769531 33.070312 27.445312 35.335938 23.21875 35.335938 C 22.207031 35.335938 21.207031 35.21875 20.253906 34.988281 C 19.847656 34.886719 19.417969 34.980469 19.089844 35.242188 C 18.757812 35.5 18.566406 35.894531 18.566406 36.3125 L 18.566406 36.523438 L 18.027344 36.523438 C 17.355469 36.523438 16.710938 36.636719 16.105469 36.84375 C 16.058594 36.328125 16.03125 35.808594 16.03125 35.289062 C 16.03125 26.515625 23.167969 19.375 31.945312 19.375 C 40.722656 19.375 47.863281 26.515625 47.863281 35.289062 C 47.863281 35.746094 47.84375 36.199219 47.804688 36.648438 Z M 71.71875 2.828125 C 74.277344 2.828125 76.53125 4.402344 77.472656 6.679688 L 65.960938 6.679688 C 66.902344 4.402344 69.152344 2.828125 71.71875 2.828125 Z M 83.792969 19.460938 C 83.792969 20.003906 83.351562 20.441406 82.808594 20.441406 L 60.621094 20.441406 C 60.082031 20.441406 59.644531 20.003906 59.644531 19.460938 L 59.644531 10.386719 C 59.644531 9.855469 60.09375 9.410156 60.621094 9.410156 L 82.808594 9.410156 C 83.351562 9.410156 83.792969 9.847656 83.792969 10.386719 Z M 54.652344 33.71875 C 54.117188 33.1875 54.117188 32.324219 54.652344 31.789062 C 55.183594 31.257812 56.050781 31.257812 56.582031 31.789062 L 59.066406 34.273438 L 64.691406 28.648438 C 65.226562 28.117188 66.089844 28.117188 66.621094 28.652344 C 67.15625 29.183594 67.15625 30.046875 66.621094 30.582031 L 60.03125 37.167969 C 59.761719 37.433594 59.414062 37.566406 59.066406 37.566406 C 58.714844 37.566406 58.367188 37.433594 58.097656 37.167969 Z M 54.652344 50.984375 C 55.183594 50.453125 56.050781 50.453125 56.582031 50.984375 L 59.066406 53.46875 L 64.691406 47.847656 C 65.226562 47.3125 66.089844 47.3125 66.621094 47.847656 C 67.15625 48.378906 67.15625 49.246094 66.621094 49.777344 L 60.03125 56.363281 C 59.761719 56.628906 59.414062 56.761719 59.066406 56.761719 C 58.714844 56.761719 58.367188 56.628906 58.097656 56.363281 L 54.652344 52.914062 C 54.117188 52.382812 54.117188 51.519531 54.652344 50.984375 Z M 70.597656 29.445312 C 70.597656 28.691406 71.207031 28.078125 71.960938 28.078125 L 90.96875 28.078125 C 91.722656 28.078125 92.335938 28.691406 92.335938 29.445312 C 92.335938 30.199219 91.722656 30.808594 90.96875 30.808594 L 71.960938 30.808594 C 71.207031 30.808594 70.597656 30.199219 70.597656 29.445312 Z M 70.597656 36.375 C 70.597656 35.621094 71.207031 35.007812 71.960938 35.007812 L 90.96875 35.007812 C 91.722656 35.007812 92.335938 35.621094 92.335938 36.375 C 92.335938 37.128906 91.722656 37.738281 90.96875 37.738281 L 71.960938 37.738281 C 71.207031 37.738281 70.597656 37.128906 70.597656 36.375 Z M 70.597656 48.640625 C 70.597656 47.886719 71.207031 47.277344 71.960938 47.277344 L 90.96875 47.277344 C 91.722656 47.277344 92.335938 47.886719 92.335938 48.640625 C 92.335938 49.394531 91.722656 50.003906 90.96875 50.003906 L 71.960938 50.003906 C 71.207031 50.003906 70.597656 49.394531 70.597656 48.640625 Z M 70.597656 55.570312 C 70.597656 54.816406 71.207031 54.207031 71.960938 54.207031 L 90.96875 54.207031 C 91.722656 54.207031 92.335938 54.816406 92.335938 55.570312 C 92.335938 56.324219 91.722656 56.933594 90.96875 56.933594 L 71.960938 56.933594 C 71.207031 56.933594 70.597656 56.324219 70.597656 55.570312 Z M 81.273438 63.492188 C 73.171875 63.492188 66.578125 70.085938 66.578125 78.1875 C 66.578125 86.289062 73.171875 92.878906 81.273438 92.878906 C 89.375 92.878906 95.964844 86.289062 95.964844 78.1875 C 95.964844 70.085938 89.375 63.492188 81.273438 63.492188 Z M 81.273438 90.148438 C 74.675781 90.148438 69.308594 84.78125 69.308594 78.1875 C 69.308594 71.589844 74.675781 66.222656 81.273438 66.222656 C 87.867188 66.222656 93.234375 71.589844 93.234375 78.1875 C 93.234375 84.78125 87.867188 90.148438 81.273438 90.148438 Z M 87.8125 73.5625 C 88.347656 74.097656 88.347656 74.960938 87.8125 75.492188 L 80.496094 82.808594 C 80.230469 83.074219 79.882812 83.210938 79.53125 83.210938 C 79.183594 83.210938 78.835938 83.078125 78.566406 82.808594 L 74.734375 78.980469 C 74.199219 78.449219 74.199219 77.585938 74.730469 77.050781 C 75.265625 76.519531 76.128906 76.515625 76.660156 77.050781 L 79.53125 79.914062 L 85.882812 73.5625 C 86.414062 73.03125 87.28125 73.03125 87.8125 73.5625 Z M 87.8125 73.5625 "/>
</g>
</svg>
