<?xml version="1.0" encoding="UTF-8"?>
<svg xmlns="http://www.w3.org/2000/svg" xmlns:xlink="http://www.w3.org/1999/xlink" width="100px" height="100px" viewBox="0 0 100 100" version="1.1">
<g id="surface1">
<path style=" stroke:none;fill-rule:nonzero;fill:rgb(0%,0%,0%);fill-opacity:1;" d="M 81.152344 87.097656 L 77.421875 75.894531 C 76.117188 71.980469 72.785156 69.09375 68.726562 68.355469 L 57.949219 66.394531 L 57.949219 65.558594 C 59.824219 64.472656 61.457031 63.015625 62.757812 61.289062 L 66.015625 61.289062 C 68.679688 61.289062 70.851562 59.121094 70.851562 56.453125 L 70.851562 37.097656 C 70.851562 25.535156 61.445312 16.128906 49.882812 16.128906 C 38.324219 16.128906 28.917969 25.535156 28.917969 37.097656 L 28.917969 48.386719 C 28.917969 51.496094 31.128906 54.097656 34.058594 54.703125 C 34.964844 59.339844 37.863281 63.261719 41.820312 65.558594 L 41.820312 66.394531 L 31.039062 68.355469 C 26.984375 69.09375 23.652344 71.980469 22.347656 75.894531 L 21.703125 77.832031 L 16.210938 72.335938 C 15.582031 71.707031 15.582031 70.683594 16.210938 70.054688 L 22.582031 63.683594 L 10.625 51.726562 L 3.421875 58.925781 C 1.292969 61.058594 0.117188 63.894531 0.117188 66.910156 C 0.117188 69.925781 1.292969 72.761719 3.421875 74.894531 L 25.222656 96.691406 C 27.355469 98.824219 30.191406 100 33.207031 100 C 36.222656 100 39.054688 98.824219 41.136719 96.742188 L 48.996094 89.542969 L 46.542969 87.097656 Z M 67.625 56.453125 C 67.625 57.34375 66.902344 58.066406 66.015625 58.066406 L 64.65625 58.066406 C 65.125 57 65.480469 55.875 65.707031 54.703125 C 66.398438 54.5625 67.035156 54.285156 67.625 53.941406 Z M 66.015625 51.164062 L 66.015625 45.609375 C 66.972656 46.167969 67.625 47.199219 67.625 48.386719 C 67.625 49.574219 66.972656 50.605469 66.015625 51.164062 Z M 33.753906 51.164062 C 32.796875 50.605469 32.144531 49.574219 32.144531 48.386719 C 32.144531 47.199219 32.796875 46.167969 33.753906 45.609375 Z M 33.753906 40.324219 L 33.753906 42.164062 C 33.179688 42.316406 32.644531 42.539062 32.144531 42.832031 L 32.144531 37.097656 C 32.144531 27.316406 40.101562 19.355469 49.882812 19.355469 C 59.667969 19.355469 67.625 27.316406 67.625 37.097656 L 67.625 42.832031 C 67.125 42.539062 66.589844 42.3125 66.015625 42.164062 L 66.015625 40.324219 L 64.402344 40.324219 C 59.632812 40.324219 55.148438 38.464844 51.773438 35.09375 L 49.882812 33.203125 L 47.996094 35.09375 C 44.621094 38.464844 40.136719 40.324219 35.367188 40.324219 Z M 36.980469 51.613281 L 36.980469 43.488281 C 41.824219 43.121094 46.339844 41.125 49.882812 37.753906 C 53.429688 41.125 57.945312 43.125 62.789062 43.488281 L 62.789062 51.613281 C 62.789062 53.964844 62.144531 56.164062 61.042969 58.066406 L 49.882812 58.066406 L 49.882812 61.289062 L 58.390625 61.289062 C 56.117188 63.292969 53.144531 64.515625 49.882812 64.515625 C 42.769531 64.515625 36.980469 58.726562 36.980469 51.613281 Z M 54.722656 67 L 54.722656 67.074219 L 49.882812 71.914062 L 45.046875 67.074219 L 45.046875 67 C 46.574219 67.480469 48.199219 67.742188 49.882812 67.742188 C 51.570312 67.742188 53.195312 67.480469 54.722656 67 Z M 25.40625 76.914062 C 26.339844 74.121094 28.71875 72.054688 31.617188 71.527344 L 42.890625 69.480469 L 49.882812 76.472656 L 56.878906 69.480469 L 68.152344 71.527344 C 71.050781 72.058594 73.429688 74.121094 74.359375 76.914062 L 76.679688 83.871094 L 43.320312 83.871094 L 37.035156 77.589844 L 30.054688 83.902344 C 29.449219 84.515625 28.382812 84.515625 27.773438 83.902344 L 24.253906 80.378906 Z M 10.621094 56.289062 L 18.019531 63.683594 L 16.265625 65.4375 L 8.871094 58.039062 Z M 38.902344 94.414062 C 37.382812 95.933594 35.355469 96.773438 33.203125 96.773438 C 31.050781 96.773438 29.023438 95.933594 27.5 94.410156 L 5.699219 72.613281 C 4.179688 71.09375 3.339844 69.066406 3.339844 66.914062 C 3.339844 64.757812 4.179688 62.730469 5.699219 61.210938 L 6.589844 60.324219 L 13.984375 67.71875 L 13.925781 67.777344 C 12.042969 69.664062 12.042969 72.734375 13.925781 74.621094 L 25.492188 86.1875 C 26.40625 87.101562 27.621094 87.605469 28.914062 87.605469 C 30.207031 87.605469 31.421875 87.101562 32.277344 86.242188 L 32.398438 86.136719 L 39.828125 93.566406 Z M 42.210938 91.382812 L 34.796875 83.96875 L 36.925781 82.042969 L 44.328125 89.445312 Z M 42.210938 91.382812 "/>
<path style=" stroke:none;fill-rule:nonzero;fill:rgb(0%,0%,0%);fill-opacity:1;" d="M 95.046875 0 L 72.464844 0 C 69.796875 0 67.625 2.171875 67.625 4.839844 L 67.625 17.742188 C 67.625 20.410156 69.796875 22.582031 72.464844 22.582031 L 76.773438 22.582031 L 75.105469 32.308594 L 90.671875 22.582031 L 95.046875 22.582031 C 97.714844 22.582031 99.882812 20.410156 99.882812 17.742188 L 99.882812 4.839844 C 99.882812 2.171875 97.714844 0 95.046875 0 Z M 96.660156 17.742188 C 96.660156 18.628906 95.933594 19.355469 95.046875 19.355469 L 89.746094 19.355469 L 79.5 25.757812 L 80.597656 19.355469 L 72.464844 19.355469 C 71.578125 19.355469 70.851562 18.628906 70.851562 17.742188 L 70.851562 4.839844 C 70.851562 3.949219 71.578125 3.226562 72.464844 3.226562 L 95.046875 3.226562 C 95.933594 3.226562 96.660156 3.949219 96.660156 4.839844 Z M 96.660156 17.742188 "/>
<path style=" stroke:none;fill-rule:nonzero;fill:rgb(0%,0%,0%);fill-opacity:1;" d="M 74.078125 6.453125 L 93.433594 6.453125 L 93.433594 9.675781 L 74.078125 9.675781 Z M 74.078125 6.453125 "/>
<path style=" stroke:none;fill-rule:nonzero;fill:rgb(0%,0%,0%);fill-opacity:1;" d="M 74.078125 12.902344 L 86.980469 12.902344 L 86.980469 16.128906 L 74.078125 16.128906 Z M 74.078125 12.902344 "/>
<path style=" stroke:none;fill-rule:nonzero;fill:rgb(0%,0%,0%);fill-opacity:1;" d="M 90.207031 12.902344 L 93.433594 12.902344 L 93.433594 16.128906 L 90.207031 16.128906 Z M 90.207031 12.902344 "/>
<path style=" stroke:none;fill-rule:nonzero;fill:rgb(0%,0%,0%);fill-opacity:1;" d="M 49.882812 4.839844 C 28.808594 4.839844 10.65625 19.417969 5.9375 39.75 L 2.882812 34.65625 L 0.117188 36.316406 L 5.785156 45.761719 L 15.230469 40.09375 L 13.570312 37.324219 L 9.199219 39.949219 C 13.773438 21.347656 30.5 8.066406 49.882812 8.066406 C 54.121094 8.066406 58.300781 8.695312 62.308594 9.933594 L 63.265625 6.855469 C 58.949219 5.515625 54.445312 4.839844 49.882812 4.839844 Z M 49.882812 4.839844 "/>
<path style=" stroke:none;fill-rule:nonzero;fill:rgb(0%,0%,0%);fill-opacity:1;" d="M 99.101562 35.714844 L 89.652344 30.042969 L 83.984375 39.492188 L 86.753906 41.152344 L 89.574219 36.445312 C 91.058594 40.792969 91.820312 45.339844 91.820312 50 C 91.820312 59.59375 88.496094 68.96875 82.46875 76.402344 L 84.972656 78.433594 C 91.46875 70.429688 95.046875 60.328125 95.046875 50 C 95.046875 45.066406 94.25 40.25 92.699219 35.636719 L 97.441406 38.480469 Z M 99.101562 35.714844 "/>
</g>
</svg>
