<?xml version="1.0" encoding="UTF-8"?>
<svg xmlns="http://www.w3.org/2000/svg" xmlns:xlink="http://www.w3.org/1999/xlink" width="100px" height="100px" viewBox="0 0 100 100" version="1.1">
<g id="surface1">
<path style=" stroke:none;fill-rule:evenodd;fill:#5ed084;fill-opacity:1;" d="M 52.421875 64.519531 C 45.644531 64.519531 45.992188 65.105469 45.992188 61.304688 C 45.410156 61.128906 44.882812 60.894531 44.355469 60.664062 C 41.667969 63.351562 42.3125 63.117188 37.519531 58.324219 C 36.351562 57.15625 37.929688 56.046875 38.863281 55.167969 C 38.570312 54.644531 38.335938 54.058594 38.164062 53.53125 C 34.363281 53.53125 35.007812 53.882812 35.007812 47.046875 C 35.007812 45.410156 36.933594 45.757812 38.164062 45.757812 C 38.335938 45.175781 38.570312 44.648438 38.863281 44.125 C 36.175781 41.433594 36.351562 42.078125 41.144531 37.285156 C 42.3125 36.117188 43.539062 37.8125 44.355469 38.628906 C 44.882812 38.335938 45.410156 38.105469 45.992188 37.929688 C 45.992188 34.128906 45.644531 34.773438 52.421875 34.773438 C 54.058594 34.773438 53.765625 36.703125 53.765625 37.929688 C 54.292969 38.105469 54.875 38.335938 55.402344 38.628906 C 58.089844 35.941406 57.390625 36.117188 62.183594 40.910156 C 63.351562 42.078125 61.773438 43.1875 60.894531 44.125 C 61.1875 44.648438 61.363281 45.175781 61.597656 45.757812 C 65.335938 45.757812 64.753906 45.410156 64.753906 52.1875 C 64.753906 53.824219 62.824219 53.53125 61.597656 53.53125 C 61.363281 54.058594 61.1875 54.644531 60.894531 55.167969 C 63.585938 57.855469 63.410156 57.15625 58.617188 61.949219 C 57.449219 63.117188 56.222656 61.480469 55.402344 60.664062 C 54.875 60.953125 54.351562 61.128906 53.765625 61.363281 C 53.765625 62.589844 54.058594 64.519531 52.421875 64.519531 Z M 48.625 61.890625 L 51.078125 61.890625 C 51.078125 57.914062 51.488281 60.019531 54.933594 57.855469 C 56.046875 57.214844 56.804688 58.324219 57.625 59.144531 L 59.375 57.390625 C 56.628906 54.644531 58.324219 55.8125 59.257812 51.894531 C 59.609375 50.609375 60.953125 50.84375 62.125 50.84375 L 62.125 48.390625 C 58.148438 48.390625 60.253906 48.039062 58.148438 44.589844 C 57.449219 43.480469 58.558594 42.664062 59.375 41.84375 L 57.625 40.089844 C 56.804688 40.910156 56.046875 42.078125 54.933594 41.375 C 51.488281 39.214844 51.078125 41.375 51.078125 37.402344 L 48.625 37.402344 C 48.625 41.375 48.214844 39.273438 44.824219 41.375 C 43.714844 42.078125 42.894531 40.910156 42.078125 40.089844 L 40.324219 41.84375 C 43.128906 44.648438 41.375 43.421875 40.441406 47.394531 C 40.148438 48.625 38.804688 48.390625 37.636719 48.390625 L 37.636719 50.84375 C 41.609375 50.84375 39.507812 51.253906 41.609375 54.703125 C 42.3125 55.8125 41.144531 56.570312 40.324219 57.390625 L 42.078125 59.144531 C 44.882812 56.394531 43.65625 58.089844 47.628906 59.027344 C 48.855469 59.375 48.625 60.722656 48.625 61.890625 Z M 48.625 61.890625 "/>
<path style=" stroke:none;fill-rule:evenodd;fill:rgb(0%,0%,0%);fill-opacity:1;" d="M 49.851562 55.871094 C 44.355469 55.871094 41.550781 49.148438 45.46875 45.234375 C 47.921875 42.777344 51.835938 42.777344 54.234375 45.234375 C 58.148438 49.148438 55.34375 55.871094 49.851562 55.871094 Z M 49.851562 46.050781 C 45.175781 46.050781 45.175781 53.183594 49.851562 53.183594 C 54.585938 53.183594 54.585938 46.050781 49.851562 46.050781 Z M 49.851562 46.050781 "/>
<path style=" stroke:none;fill-rule:evenodd;fill:rgb(0%,0%,0%);fill-opacity:1;" d="M 73.8125 81.703125 C 73.167969 81.703125 72.644531 81.292969 72.527344 80.648438 C 71.824219 78.253906 71.066406 73.871094 73.578125 71.765625 C 75.449219 70.128906 78.429688 70.304688 82.636719 72.175781 C 83.222656 72.292969 84.273438 72.117188 85.324219 73.460938 C 86.257812 74.6875 86.433594 76.675781 85.910156 79.421875 C 85.558594 81.175781 82.929688 80.648438 83.277344 78.953125 C 83.746094 76.324219 83.511719 74.746094 82.636719 74.804688 C 80.707031 74.863281 72.234375 69.019531 75.039062 79.890625 C 75.273438 80.941406 74.6875 81.703125 73.8125 81.703125 Z M 73.8125 81.703125 "/>
<path style=" stroke:none;fill-rule:evenodd;fill:rgb(0%,0%,0%);fill-opacity:1;" d="M 79.070312 88.890625 C 76.5 88.890625 74.335938 87.195312 73.34375 84.507812 C 72.585938 83.746094 71.707031 82.167969 72.410156 80.296875 C 72.117188 79.128906 72 77.667969 72.992188 76.792969 C 74.628906 75.390625 77.257812 77.257812 78.253906 77.433594 C 79.714844 77.726562 80.242188 77.144531 80.242188 77.144531 C 80.882812 76.148438 82.460938 76.5 82.636719 77.726562 C 82.695312 78.195312 83.628906 78.253906 83.746094 78.195312 C 84.097656 77.902344 84.625 77.785156 85.089844 78.019531 C 86.375 78.546875 85.734375 80.066406 85.734375 80.296875 C 86.375 82.167969 85.558594 83.746094 84.796875 84.566406 C 83.746094 87.195312 81.585938 88.890625 79.070312 88.890625 Z M 74.863281 79.011719 C 74.921875 79.773438 75.273438 80.242188 74.980469 80.941406 C 74.335938 82.34375 75.507812 82.636719 75.742188 83.335938 C 76.96875 87.195312 81.117188 87.195312 82.402344 83.335938 C 82.636719 82.636719 83.804688 82.285156 83.105469 80.941406 C 83.105469 80.882812 83.105469 80.882812 83.105469 80.824219 C 82.226562 80.707031 81.410156 80.355469 80.824219 79.832031 C 78.253906 80.882812 76.5 79.421875 74.863281 79.011719 Z M 74.863281 79.011719 "/>
<path style=" stroke:none;fill-rule:evenodd;fill:rgb(0%,0%,0%);fill-opacity:1;" d="M 88.246094 96.953125 C 85.792969 96.953125 87.894531 93.273438 86.203125 91.578125 C 84.507812 89.882812 80.183594 92.164062 80.183594 89.589844 C 80.183594 88.832031 80.824219 88.246094 81.527344 88.246094 C 84.097656 88.246094 86.257812 87.894531 88.070312 89.707031 C 89.824219 91.460938 89.589844 93.332031 89.589844 95.609375 C 89.589844 96.371094 89.007812 96.953125 88.246094 96.953125 Z M 69.835938 96.953125 C 68.144531 96.953125 68.550781 94.851562 68.550781 93.332031 C 68.550781 90.527344 70.773438 88.246094 73.519531 88.246094 C 75.566406 88.246094 77.902344 87.835938 77.902344 89.589844 C 77.902344 91.34375 75.566406 90.933594 73.519531 90.933594 C 72.234375 90.933594 71.183594 91.988281 71.183594 93.332031 C 71.183594 94.851562 71.53125 96.953125 69.835938 96.953125 Z M 69.835938 96.953125 "/>
<path style=" stroke:none;fill-rule:evenodd;fill:rgb(0%,0%,0%);fill-opacity:1;" d="M 79.070312 93.15625 C 78.195312 93.15625 76.734375 91.460938 75.683594 90.585938 C 75.039062 89.941406 75.273438 88.1875 75.273438 86.785156 C 75.273438 85.03125 77.902344 85.03125 77.902344 86.785156 L 77.902344 89.007812 L 79.070312 90 L 80.183594 89.007812 C 80.183594 87.488281 79.832031 85.441406 81.527344 85.441406 C 83.277344 85.441406 82.871094 87.722656 82.871094 89.589844 C 82.871094 89.941406 82.695312 90.351562 82.402344 90.585938 C 81.410156 91.519531 79.949219 93.15625 79.070312 93.15625 Z M 79.070312 93.15625 "/>
<path style=" stroke:none;fill-rule:evenodd;fill:rgb(0%,0%,0%);fill-opacity:1;" d="M 15.429688 81.703125 C 14.84375 81.703125 14.257812 81.292969 14.144531 80.648438 C 13.441406 78.195312 12.742188 73.871094 15.195312 71.765625 C 17.066406 70.128906 20.046875 70.304688 24.253906 72.175781 C 25.070312 72.292969 26.007812 72.234375 26.941406 73.460938 C 27.875 74.6875 28.050781 76.675781 27.527344 79.421875 C 27.175781 81.175781 24.546875 80.648438 24.894531 78.953125 C 25.421875 76.324219 25.128906 74.746094 24.3125 74.804688 C 22.382812 74.863281 13.910156 69.019531 16.65625 79.890625 C 16.949219 80.941406 16.246094 81.703125 15.429688 81.703125 Z M 15.429688 81.703125 "/>
<path style=" stroke:none;fill-rule:evenodd;fill:rgb(0%,0%,0%);fill-opacity:1;" d="M 20.6875 88.890625 C 18.175781 88.890625 15.953125 87.195312 14.960938 84.507812 C 14.203125 83.746094 13.382812 82.167969 14.027344 80.296875 C 13.734375 79.128906 13.617188 77.667969 14.609375 76.792969 C 16.246094 75.390625 18.875 77.257812 19.929688 77.433594 C 21.332031 77.726562 21.855469 77.144531 21.855469 77.144531 C 22.558594 76.148438 24.078125 76.558594 24.253906 77.726562 C 24.3125 78.195312 25.246094 78.253906 25.363281 78.195312 C 25.714844 77.902344 26.242188 77.785156 26.707031 77.960938 C 28.050781 78.546875 27.351562 80.066406 27.351562 80.242188 C 28.050781 82.167969 27.175781 83.746094 26.414062 84.566406 C 25.421875 87.195312 23.203125 88.890625 20.6875 88.890625 Z M 16.480469 79.011719 C 16.597656 79.773438 16.949219 80.242188 16.597656 80.941406 C 15.953125 82.34375 17.125 82.636719 17.355469 83.335938 C 18.585938 87.136719 22.734375 87.195312 24.019531 83.335938 C 24.253906 82.636719 25.421875 82.285156 24.777344 80.941406 C 24.722656 80.882812 24.722656 80.882812 24.722656 80.824219 C 23.84375 80.707031 23.027344 80.355469 22.441406 79.832031 C 19.871094 80.882812 18.117188 79.421875 16.480469 79.011719 Z M 16.480469 79.011719 "/>
<path style=" stroke:none;fill-rule:evenodd;fill:rgb(0%,0%,0%);fill-opacity:1;" d="M 29.863281 96.953125 C 27.410156 96.953125 29.511719 93.273438 27.816406 91.578125 C 26.125 89.882812 21.855469 92.164062 21.855469 89.589844 C 21.855469 88.832031 22.441406 88.246094 23.144531 88.246094 C 25.714844 88.246094 27.875 87.894531 29.6875 89.707031 C 31.441406 91.460938 31.207031 93.332031 31.207031 95.609375 C 31.207031 96.371094 30.625 96.953125 29.863281 96.953125 Z M 11.511719 96.953125 C 9.816406 96.953125 10.167969 94.851562 10.167969 93.332031 C 10.167969 90.527344 12.390625 88.246094 15.136719 88.246094 C 17.183594 88.246094 19.519531 87.835938 19.519531 89.589844 C 19.519531 91.34375 17.183594 90.933594 15.136719 90.933594 C 13.851562 90.933594 12.796875 91.988281 12.796875 93.332031 C 12.796875 94.851562 13.207031 96.953125 11.511719 96.953125 Z M 11.511719 96.953125 "/>
<path style=" stroke:none;fill-rule:evenodd;fill:rgb(0%,0%,0%);fill-opacity:1;" d="M 20.6875 93.15625 C 19.8125 93.15625 18.351562 91.460938 17.296875 90.585938 C 16.65625 89.941406 16.890625 88.1875 16.890625 86.785156 C 16.890625 85.03125 19.519531 85.03125 19.519531 86.785156 L 19.519531 89.007812 L 20.6875 90 L 21.796875 89.007812 C 21.796875 87.488281 21.449219 85.441406 23.144531 85.441406 C 24.894531 85.441406 24.488281 87.722656 24.488281 89.589844 C 24.488281 89.941406 24.3125 90.351562 24.019531 90.585938 C 23.027344 91.519531 21.566406 93.15625 20.6875 93.15625 Z M 20.6875 93.15625 "/>
<path style=" stroke:none;fill-rule:evenodd;fill:rgb(0%,0%,0%);fill-opacity:1;" d="M 79.070312 99.703125 C 69.136719 99.703125 61.070312 91.636719 61.070312 81.757812 C 61.070312 71.824219 69.136719 63.757812 79.070312 63.757812 C 89.007812 63.757812 97.070312 71.824219 97.070312 81.757812 C 97.070312 91.636719 89.007812 99.703125 79.070312 99.703125 Z M 79.070312 66.390625 C 70.597656 66.390625 63.703125 73.285156 63.703125 81.757812 C 63.703125 90.175781 70.597656 97.070312 79.070312 97.070312 C 87.546875 97.070312 94.382812 90.175781 94.382812 81.757812 C 94.382812 73.285156 87.546875 66.390625 79.070312 66.390625 Z M 79.070312 66.390625 "/>
<path style=" stroke:none;fill-rule:evenodd;fill:rgb(0%,0%,0%);fill-opacity:1;" d="M 20.6875 99.703125 C 10.753906 99.703125 2.6875 91.636719 2.6875 81.757812 C 2.6875 71.824219 10.753906 63.757812 20.6875 63.757812 C 30.625 63.757812 38.6875 71.824219 38.6875 81.757812 C 38.6875 91.636719 30.625 99.703125 20.6875 99.703125 Z M 20.6875 66.390625 C 12.214844 66.390625 5.316406 73.285156 5.316406 81.757812 C 5.316406 90.175781 12.214844 97.070312 20.6875 97.070312 C 29.164062 97.070312 36 90.175781 36 81.757812 C 36 73.285156 29.164062 66.390625 20.6875 66.390625 Z M 20.6875 66.390625 "/>
<path style=" stroke:none;fill-rule:evenodd;fill:rgb(0%,0%,0%);fill-opacity:1;" d="M 91.871094 39.625 L 66.214844 39.625 C 65.511719 39.625 64.929688 39.039062 64.929688 38.277344 L 64.929688 1.34375 C 64.929688 0.585938 65.511719 0 66.214844 0 L 83.511719 0 C 83.863281 0 84.214844 0.175781 84.449219 0.410156 L 92.804688 8.765625 C 93.039062 9 93.214844 9.351562 93.214844 9.703125 L 93.214844 38.277344 C 93.214844 39.039062 92.628906 39.625 91.871094 39.625 Z M 67.558594 36.992188 L 90.527344 36.992188 L 90.527344 10.285156 L 82.988281 2.6875 L 67.558594 2.6875 Z M 67.558594 36.992188 "/>
<path style=" stroke:none;fill-rule:evenodd;fill:rgb(0%,0%,0%);fill-opacity:1;" d="M 91.871094 11.046875 L 84.390625 11.046875 C 83.164062 11.046875 82.167969 10.050781 82.167969 8.824219 L 82.167969 1.34375 C 82.167969 0.175781 83.628906 -0.410156 84.449219 0.410156 L 92.804688 8.765625 C 93.625 9.585938 93.039062 11.046875 91.871094 11.046875 Z M 84.855469 8.355469 L 88.65625 8.355469 L 84.855469 4.558594 Z M 84.855469 8.355469 "/>
<path style=" stroke:none;fill-rule:evenodd;fill:rgb(0%,0%,0%);fill-opacity:1;" d="M 71.183594 17.355469 C 69.429688 17.355469 69.429688 14.667969 71.183594 14.667969 C 72.933594 14.667969 72.933594 17.355469 71.183594 17.355469 Z M 71.183594 17.355469 "/>
<path style=" stroke:none;fill-rule:evenodd;fill:rgb(0%,0%,0%);fill-opacity:1;" d="M 86.960938 17.355469 L 75.507812 17.355469 C 73.753906 17.355469 73.753906 14.667969 75.507812 14.667969 L 86.960938 14.667969 C 88.714844 14.667969 88.65625 17.355469 86.960938 17.355469 Z M 86.960938 17.355469 "/>
<path style=" stroke:none;fill-rule:evenodd;fill:rgb(0%,0%,0%);fill-opacity:1;" d="M 71.183594 25.011719 C 69.429688 25.011719 69.429688 22.324219 71.183594 22.324219 C 72.933594 22.324219 72.933594 25.011719 71.183594 25.011719 Z M 71.183594 25.011719 "/>
<path style=" stroke:none;fill-rule:evenodd;fill:rgb(0%,0%,0%);fill-opacity:1;" d="M 86.960938 25.011719 L 75.507812 25.011719 C 73.753906 25.011719 73.753906 22.324219 75.507812 22.324219 L 86.960938 22.324219 C 88.714844 22.324219 88.65625 25.011719 86.960938 25.011719 Z M 86.960938 25.011719 "/>
<path style=" stroke:none;fill-rule:evenodd;fill:rgb(0%,0%,0%);fill-opacity:1;" d="M 71.183594 32.667969 C 69.429688 32.667969 69.429688 29.980469 71.183594 29.980469 C 72.933594 29.980469 72.933594 32.667969 71.183594 32.667969 Z M 71.183594 32.667969 "/>
<path style=" stroke:none;fill-rule:evenodd;fill:rgb(0%,0%,0%);fill-opacity:1;" d="M 86.960938 32.667969 L 75.507812 32.667969 C 73.753906 32.667969 73.753906 29.980469 75.507812 29.980469 L 86.960938 29.980469 C 88.714844 29.980469 88.65625 32.667969 86.960938 32.667969 Z M 86.960938 32.667969 "/>
<path style=" stroke:none;fill-rule:evenodd;fill:rgb(0%,0%,0%);fill-opacity:1;" d="M 78.136719 8.589844 L 71.648438 8.589844 C 69.894531 8.589844 69.894531 5.960938 71.648438 5.960938 L 78.136719 5.960938 C 79.890625 5.960938 79.890625 8.589844 78.136719 8.589844 Z M 78.136719 8.589844 "/>
<path style=" stroke:none;fill-rule:evenodd;fill:rgb(0%,0%,0%);fill-opacity:1;" d="M 33.488281 39.625 L 7.890625 39.625 C 7.128906 39.625 6.546875 39.039062 6.546875 38.277344 L 6.546875 1.34375 C 6.546875 0.585938 7.128906 0 7.890625 0 L 25.128906 0 C 25.480469 0 25.832031 0.175781 26.066406 0.410156 L 34.421875 8.765625 C 34.714844 9 34.832031 9.351562 34.832031 9.703125 L 34.832031 38.277344 C 34.832031 39.039062 34.246094 39.625 33.488281 39.625 Z M 9.175781 36.992188 L 32.203125 36.992188 L 32.203125 10.285156 L 24.605469 2.6875 L 9.175781 2.6875 Z M 9.175781 36.992188 "/>
<path style=" stroke:none;fill-rule:evenodd;fill:rgb(0%,0%,0%);fill-opacity:1;" d="M 33.488281 11.046875 L 26.066406 11.046875 C 24.777344 11.046875 23.785156 10.050781 23.785156 8.824219 L 23.785156 1.34375 C 23.785156 0.175781 25.246094 -0.410156 26.066406 0.410156 L 34.421875 8.765625 C 35.296875 9.585938 34.65625 11.046875 33.488281 11.046875 Z M 26.472656 8.355469 L 30.273438 8.355469 L 26.472656 4.558594 Z M 26.472656 8.355469 "/>
<path style=" stroke:none;fill-rule:evenodd;fill:rgb(0%,0%,0%);fill-opacity:1;" d="M 12.796875 17.355469 C 11.046875 17.355469 11.046875 14.667969 12.796875 14.667969 C 14.550781 14.667969 14.550781 17.355469 12.796875 17.355469 Z M 12.796875 17.355469 "/>
<path style=" stroke:none;fill-rule:evenodd;fill:rgb(0%,0%,0%);fill-opacity:1;" d="M 28.578125 17.355469 L 17.183594 17.355469 C 15.429688 17.355469 15.429688 14.667969 17.183594 14.667969 L 28.578125 14.667969 C 30.332031 14.667969 30.332031 17.355469 28.578125 17.355469 Z M 28.578125 17.355469 "/>
<path style=" stroke:none;fill-rule:evenodd;fill:rgb(0%,0%,0%);fill-opacity:1;" d="M 12.796875 25.011719 C 11.046875 25.011719 11.046875 22.324219 12.796875 22.324219 C 14.550781 22.324219 14.550781 25.011719 12.796875 25.011719 Z M 12.796875 25.011719 "/>
<path style=" stroke:none;fill-rule:evenodd;fill:rgb(0%,0%,0%);fill-opacity:1;" d="M 28.578125 25.011719 L 17.183594 25.011719 C 15.429688 25.011719 15.429688 22.324219 17.183594 22.324219 L 28.578125 22.324219 C 30.332031 22.324219 30.332031 25.011719 28.578125 25.011719 Z M 28.578125 25.011719 "/>
<path style=" stroke:none;fill-rule:evenodd;fill:rgb(0%,0%,0%);fill-opacity:1;" d="M 12.796875 32.667969 C 11.046875 32.667969 11.046875 29.980469 12.796875 29.980469 C 14.609375 29.980469 14.550781 32.667969 12.796875 32.667969 Z M 12.796875 32.667969 "/>
<path style=" stroke:none;fill-rule:evenodd;fill:rgb(0%,0%,0%);fill-opacity:1;" d="M 28.578125 32.667969 L 17.183594 32.667969 C 15.429688 32.667969 15.429688 29.980469 17.183594 29.980469 L 28.578125 29.980469 C 30.332031 29.980469 30.332031 32.667969 28.578125 32.667969 Z M 28.578125 32.667969 "/>
<path style=" stroke:none;fill-rule:evenodd;fill:rgb(0%,0%,0%);fill-opacity:1;" d="M 19.753906 8.589844 L 13.265625 8.589844 C 11.511719 8.589844 11.511719 5.960938 13.265625 5.960938 L 19.753906 5.960938 C 21.507812 5.960938 21.507812 8.589844 19.753906 8.589844 Z M 19.753906 8.589844 "/>
<path style=" stroke:none;fill-rule:evenodd;fill:rgb(0%,0%,0%);fill-opacity:1;" d="M 79.070312 66.390625 C 78.3125 66.390625 77.726562 65.804688 77.726562 65.046875 L 77.726562 50.960938 L 63.410156 50.960938 C 61.65625 50.960938 61.65625 48.273438 63.410156 48.273438 L 79.070312 48.273438 C 79.773438 48.273438 80.355469 48.914062 80.355469 49.617188 L 80.355469 65.046875 C 80.355469 65.804688 79.773438 66.390625 79.070312 66.390625 Z M 20.6875 66.390625 C 19.929688 66.390625 19.34375 65.804688 19.34375 65.046875 L 19.34375 49.617188 C 19.34375 48.914062 19.929688 48.273438 20.6875 48.273438 L 36.292969 48.273438 C 38.046875 48.273438 38.046875 50.960938 36.292969 50.960938 L 22.03125 50.960938 L 22.03125 65.046875 C 22.03125 65.804688 21.390625 66.390625 20.6875 66.390625 Z M 20.6875 66.390625 "/>
</g>
</svg>
