<?xml version="1.0" encoding="UTF-8"?>
<svg id="Layer_1" data-name="Layer 1" xmlns="http://www.w3.org/2000/svg" viewBox="0 0 100 100">
  <defs>
    <style>
      .cls-1 {
        fill: #003f70;
      }
    </style>
  </defs>
  <g id="surface1">
    <path class="cls-1" d="M81.2,87.1l-3.7-11.2c-1.3-3.9-4.6-6.8-8.7-7.5l-10.8-2v-.8c1.9-1.1,3.5-2.5,4.8-4.3h3.3c2.7,0,4.8-2.2,4.8-4.8v-19.4c0-11.6-9.4-21-21-21s-21,9.4-21,21v11.3c0,3.1,2.2,5.7,5.1,6.3.9,4.6,3.8,8.6,7.8,10.9v.8l-10.8,2c-4.1.7-7.4,3.6-8.7,7.5l-.6,1.9-5.5-5.5c-.6-.6-.6-1.7,0-2.3l6.4-6.4-12-12-7.2,7.2C1.3,60.9.1,63.8.1,66.8s1.2,5.9,3.3,8l21.8,21.8c2.1,2.1,5,3.3,8,3.3s5.8-1.2,7.9-3.3l7.9-7.2-2.5-2.4h34.7ZM67.6,56.5c0,.9-.7,1.6-1.6,1.6h-1.4c.5-1.1.8-2.2,1.1-3.4.7,0,1.3-.4,1.9-.8v2.5h0ZM66,51.2v-5.6c1,.6,1.6,1.6,1.6,2.8s-.7,2.2-1.6,2.8ZM33.8,51.2c-1-.6-1.6-1.6-1.6-2.8s.7-2.2,1.6-2.8v5.6ZM33.8,40.3v1.8c-.6.2-1.1.4-1.6.7v-5.7c0-9.8,8-17.7,17.7-17.7s17.7,8,17.7,17.7v5.7c-.5-.3-1-.5-1.6-.7v-1.8h-1.6c-4.8,0-9.3-1.9-12.6-5.2l-1.9-1.9-1.9,1.9c-3.4,3.4-7.9,5.2-12.6,5.2h-1.6ZM37,51.6v-8.1c4.8-.4,9.4-2.4,12.9-5.7,3.5,3.4,8.1,5.4,12.9,5.7v8.1c0,2.4-.6,4.6-1.7,6.5h-11.2v3.2h8.5c-2.3,2-5.2,3.2-8.5,3.2-7.1,0-12.9-5.8-12.9-12.9ZM54.7,67h0l-4.8,4.9-4.8-4.8h0c1.5.4,3.2.7,4.8.7s3.3-.3,4.8-.7h0ZM25.4,76.9c.9-2.8,3.3-4.9,6.2-5.4l11.3-2,7,7,7-7,11.3,2c2.9.5,5.3,2.6,6.2,5.4l2.3,7h-33.4l-6.3-6.3-7,6.3c-.6.6-1.7.6-2.3,0l-3.5-3.5s1.2-3.5,1.2-3.5ZM10.6,56.3l7.4,7.4-1.8,1.8-7.4-7.4s1.8-1.8,1.8-1.8ZM38.9,94.4c-1.5,1.5-3.5,2.4-5.7,2.4s-4.2-.8-5.7-2.4l-21.8-21.8c-1.5-1.5-2.4-3.5-2.4-5.7s.8-4.2,2.4-5.7l.9-.9,7.4,7.4h0c-1.9,1.9-1.9,5,0,6.9l11.6,11.6c.9.9,2.1,1.4,3.4,1.4s2.5-.5,3.4-1.4h0c0,0,7.4,7.3,7.4,7.3l-.9.8h0ZM42.2,91.4l-7.4-7.4,2.1-1.9,7.4,7.4-2.1,1.9Z"/>
    <path class="cls-1" d="M95,0h-22.6c-2.7,0-4.8,2.2-4.8,4.8v12.9c0,2.7,2.2,4.8,4.8,4.8h4.3l-1.7,9.7,15.6-9.7h4.4c2.7,0,4.8-2.2,4.8-4.8V4.8c0-2.7-2.2-4.8-4.8-4.8ZM96.7,17.7c0,.9-.7,1.6-1.6,1.6h-5.3l-10.2,6.4,1.1-6.4h-8.1c-.9,0-1.6-.7-1.6-1.6V4.8c0-.9.7-1.6,1.6-1.6h22.6c.9,0,1.6.7,1.6,1.6v12.9h0Z"/>
    <path class="cls-1" d="M74.1,6.5h19.4v3.2h-19.4v-3.2Z"/>
    <path class="cls-1" d="M74.1,12.9h12.9v3.2h-12.9v-3.2Z"/>
    <path class="cls-1" d="M90.2,12.9h3.2v3.2h-3.2v-3.2Z"/>
    <path class="cls-1" d="M49.9,4.8C28.8,4.8,10.7,19.4,5.9,39.8l-3.1-5.1L0,36.4l5.7,9.4,9.4-5.7-1.7-2.8-4.4,2.6C13.8,21.3,30.5,8.1,49.9,8.1s8.4.6,12.4,1.9l1-3.1c-4.3-1.3-8.8-2-13.4-2h0Z"/>
    <path class="cls-1" d="M99.1,35.7l-9.4-5.7-5.7,9.4,2.8,1.7,2.8-4.7c1.5,4.3,2.2,8.9,2.2,13.6,0,9.6-3.3,19-9.4,26.4l2.5,2c6.5-8,10.1-18.1,10.1-28.4s-.8-9.8-2.3-14.4l4.7,2.8,1.7-2.8h0Z"/>
  </g>
</svg>