<?xml version="1.0" encoding="UTF-8"?>
<svg xmlns="http://www.w3.org/2000/svg" xmlns:xlink="http://www.w3.org/1999/xlink" width="35px" height="35px" viewBox="0 0 35 35" version="1.1">
<g id="surface1">
<path style=" stroke:none;fill-rule:nonzero;fill:rgb(0%,0%,0%);fill-opacity:1;" d="M 33.804688 9.238281 C 33.222656 8.859375 32.527344 8.734375 31.847656 8.882812 C 31.167969 9.03125 30.589844 9.433594 30.214844 10.019531 L 29.652344 10.890625 L 26.382812 15.976562 L 26.382812 0.683594 C 26.382812 0.304688 26.078125 0 25.699219 0 L 0.683594 0 C 0.304688 0 0 0.304688 0 0.683594 L 0 25.398438 C 0 25.777344 0.304688 26.082031 0.683594 26.082031 C 1.0625 26.082031 1.367188 25.777344 1.367188 25.398438 L 1.367188 1.367188 L 25.015625 1.367188 L 25.015625 18.101562 L 20.886719 24.53125 C 20.839844 24.601562 20.804688 24.683594 20.789062 24.769531 L 20.265625 27.472656 C 19.996094 27.375 19.6875 27.347656 19.359375 27.410156 C 18.871094 27.5 18.417969 27.726562 18.019531 28.027344 C 18.003906 27.800781 17.984375 27.566406 17.957031 27.320312 C 17.878906 26.625 17.574219 26.058594 17.09375 25.730469 C 16.09375 25.042969 14.882812 25.851562 14.484375 26.117188 C 13.195312 26.976562 12.089844 28.195312 11.285156 29.640625 C 11.101562 29.972656 11.21875 30.386719 11.550781 30.570312 C 11.65625 30.628906 11.769531 30.65625 11.878906 30.65625 C 12.121094 30.65625 12.355469 30.53125 12.480469 30.304688 C 13.179688 29.046875 14.132812 27.992188 15.242188 27.253906 C 16.023438 26.734375 16.265625 26.820312 16.320312 26.855469 C 16.523438 26.996094 16.582031 27.332031 16.597656 27.46875 C 16.683594 28.277344 16.710938 28.851562 16.609375 29.910156 C 16.574219 30.238281 16.785156 30.542969 17.105469 30.632812 C 17.425781 30.722656 17.761719 30.566406 17.90625 30.269531 C 18.21875 29.617188 18.902344 28.882812 19.609375 28.753906 C 19.75 28.726562 19.832031 28.753906 19.84375 28.828125 C 19.863281 28.949219 19.847656 29.410156 19.804688 29.84375 C 19.691406 30.46875 20.429688 30.902344 20.914062 30.5 L 25.015625 27.574219 L 25.015625 33.632812 L 1.367188 33.632812 L 1.367188 31.414062 C 1.367188 31.039062 1.0625 30.730469 0.683594 30.730469 C 0.304688 30.730469 0 31.039062 0 31.414062 L 0 34.316406 C 0 34.695312 0.304688 35 0.683594 35 L 25.699219 35 C 26.078125 35 26.382812 34.695312 26.382812 34.316406 L 26.382812 25.589844 L 34.027344 13.703125 L 34.585938 12.828125 C 35.363281 11.625 35.011719 10.011719 33.804688 9.238281 Z M 31.363281 10.757812 C 31.726562 10.191406 32.5 10.023438 33.066406 10.386719 C 33.636719 10.753906 33.804688 11.519531 33.4375 12.089844 L 33.246094 12.386719 L 31.171875 11.054688 Z M 21.472656 28.421875 L 21.898438 26.230469 L 21.9375 26.019531 L 22.703125 26.511719 L 23.464844 27 L 22.78125 27.488281 Z M 25.125 25.019531 L 24.480469 26.027344 L 22.40625 24.695312 L 26.273438 18.671875 C 26.277344 18.671875 26.277344 18.671875 26.277344 18.667969 L 30.433594 12.203125 L 32.507812 13.539062 Z M 25.125 25.019531 "/>
<path style=" stroke:none;fill-rule:nonzero;fill:rgb(0%,0%,0%);fill-opacity:1;" d="M 12.835938 3.207031 L 5.226562 3.207031 C 4.851562 3.207031 4.542969 3.515625 4.542969 3.890625 L 4.542969 12.527344 C 4.542969 12.902344 4.851562 13.210938 5.226562 13.210938 L 12.835938 13.210938 C 13.210938 13.210938 13.519531 12.902344 13.519531 12.527344 L 13.519531 3.890625 C 13.519531 3.515625 13.210938 3.207031 12.835938 3.207031 Z M 12.152344 4.574219 L 12.152344 9.46875 C 11.773438 9.167969 11.359375 8.960938 10.957031 8.816406 C 11.195312 8.453125 11.339844 8.015625 11.339844 7.546875 C 11.339844 6.277344 10.304688 5.242188 9.03125 5.242188 C 7.757812 5.242188 6.722656 6.277344 6.722656 7.546875 C 6.722656 8.015625 6.863281 8.453125 7.105469 8.816406 C 6.703125 8.960938 6.289062 9.167969 5.910156 9.464844 L 5.910156 4.574219 Z M 9.03125 8.488281 C 9.03125 8.488281 9.027344 8.488281 9.027344 8.488281 C 8.511719 8.484375 8.089844 8.066406 8.089844 7.546875 C 8.089844 7.03125 8.511719 6.609375 9.03125 6.609375 C 9.550781 6.609375 9.972656 7.03125 9.972656 7.546875 C 9.972656 8.066406 9.550781 8.484375 9.035156 8.488281 C 9.035156 8.488281 9.03125 8.488281 9.03125 8.488281 Z M 5.976562 11.84375 C 6.070312 11.375 6.273438 10.992188 6.589844 10.6875 C 7.480469 9.824219 8.976562 9.855469 9.007812 9.855469 C 9.011719 9.855469 9.011719 9.855469 9.015625 9.855469 C 9.019531 9.855469 9.027344 9.855469 9.03125 9.855469 C 9.039062 9.855469 9.042969 9.855469 9.050781 9.855469 C 9.050781 9.855469 9.054688 9.855469 9.054688 9.855469 C 9.070312 9.855469 10.578125 9.824219 11.46875 10.683594 C 11.785156 10.988281 11.992188 11.371094 12.085938 11.84375 Z M 5.976562 11.84375 "/>
<path style=" stroke:none;fill-rule:nonzero;fill:rgb(0%,0%,0%);fill-opacity:1;" d="M 16.742188 5.933594 L 21.757812 5.933594 C 22.132812 5.933594 22.441406 5.628906 22.441406 5.25 C 22.441406 4.875 22.132812 4.566406 21.757812 4.566406 L 16.742188 4.566406 C 16.363281 4.566406 16.058594 4.875 16.058594 5.25 C 16.058594 5.628906 16.363281 5.933594 16.742188 5.933594 Z M 16.742188 5.933594 "/>
<path style=" stroke:none;fill-rule:nonzero;fill:rgb(0%,0%,0%);fill-opacity:1;" d="M 16.742188 8.9375 L 21.757812 8.9375 C 22.132812 8.9375 22.441406 8.632812 22.441406 8.253906 C 22.441406 7.878906 22.132812 7.570312 21.757812 7.570312 L 16.742188 7.570312 C 16.363281 7.570312 16.058594 7.878906 16.058594 8.253906 C 16.058594 8.632812 16.363281 8.9375 16.742188 8.9375 Z M 16.742188 8.9375 "/>
<path style=" stroke:none;fill-rule:nonzero;fill:rgb(0%,0%,0%);fill-opacity:1;" d="M 16.742188 11.945312 L 21.757812 11.945312 C 22.132812 11.945312 22.441406 11.636719 22.441406 11.261719 C 22.441406 10.882812 22.132812 10.578125 21.757812 10.578125 L 16.742188 10.578125 C 16.363281 10.578125 16.058594 10.882812 16.058594 11.261719 C 16.058594 11.636719 16.363281 11.945312 16.742188 11.945312 Z M 16.742188 11.945312 "/>
<path style=" stroke:none;fill-rule:nonzero;fill:rgb(0%,0%,0%);fill-opacity:1;" d="M 4.671875 15.742188 L 4.671875 19.105469 C 4.671875 19.484375 4.980469 19.789062 5.355469 19.789062 L 21.757812 19.789062 C 22.132812 19.789062 22.441406 19.484375 22.441406 19.105469 L 22.441406 15.742188 C 22.441406 15.367188 22.132812 15.058594 21.757812 15.058594 L 5.355469 15.058594 C 4.980469 15.058594 4.671875 15.367188 4.671875 15.742188 Z M 6.039062 16.425781 L 21.074219 16.425781 L 21.074219 18.421875 L 6.039062 18.421875 Z M 6.039062 16.425781 "/>
<path style=" stroke:none;fill-rule:nonzero;fill:rgb(0%,0%,0%);fill-opacity:1;" d="M 15.710938 22.476562 C 15.710938 22.097656 15.40625 21.792969 15.027344 21.792969 L 5.597656 21.792969 C 5.222656 21.792969 4.914062 22.097656 4.914062 22.476562 C 4.914062 22.855469 5.222656 23.160156 5.597656 23.160156 L 15.027344 23.160156 C 15.40625 23.160156 15.710938 22.855469 15.710938 22.476562 Z M 15.710938 22.476562 "/>
<path style=" stroke:none;fill-rule:nonzero;fill:rgb(0%,0%,0%);fill-opacity:1;" d="M 5.597656 24.660156 C 5.222656 24.660156 4.914062 24.964844 4.914062 25.34375 C 4.914062 25.71875 5.222656 26.027344 5.597656 26.027344 L 10.039062 26.027344 C 10.414062 26.027344 10.722656 25.71875 10.722656 25.34375 C 10.722656 24.964844 10.414062 24.660156 10.039062 24.660156 Z M 5.597656 24.660156 "/>
<path style=" stroke:none;fill-rule:nonzero;fill:rgb(0%,0%,0%);fill-opacity:1;" d="M 0.117188 28.816406 C 0.324219 29.125 0.753906 29.210938 1.0625 29.003906 C 1.375 28.796875 1.457031 28.363281 1.253906 28.054688 C 1.046875 27.746094 0.613281 27.660156 0.304688 27.867188 C -0.0078125 28.074219 -0.0859375 28.503906 0.117188 28.816406 Z M 0.117188 28.816406 "/>
</g>
</svg>
