<?xml version="1.0" encoding="UTF-8"?>
<svg xmlns="http://www.w3.org/2000/svg" xmlns:xlink="http://www.w3.org/1999/xlink" width="35px" height="35px" viewBox="0 0 35 35" version="1.1">
<g id="surface1">
<path style=" stroke:none;fill-rule:nonzero;fill:rgb(0%,0%,0%);fill-opacity:1;" d="M 17.4375 4.449219 C 17.820312 4.449219 18.128906 4.140625 18.128906 3.757812 L 18.128906 0.6875 C 18.128906 0.308594 17.820312 0 17.4375 0 C 17.058594 0 16.75 0.308594 16.75 0.6875 L 16.75 3.757812 C 16.75 4.140625 17.058594 4.449219 17.4375 4.449219 Z M 17.4375 4.449219 "/>
<path style=" stroke:none;fill-rule:nonzero;fill:rgb(0%,0%,0%);fill-opacity:1;" d="M 34.265625 23.652344 L 33.050781 22.4375 C 32.617188 22.007812 32.042969 21.769531 31.425781 21.769531 C 31.035156 21.769531 30.65625 21.867188 30.324219 22.050781 L 28.03125 19.761719 L 28.144531 19.648438 C 29.074219 18.71875 29.074219 17.203125 28.144531 16.273438 C 27.8125 15.941406 27.394531 15.71875 26.945312 15.625 C 27.007812 15.410156 27.039062 15.1875 27.039062 14.957031 C 27.039062 14.316406 26.789062 13.71875 26.339844 13.269531 C 26.007812 12.9375 25.59375 12.714844 25.144531 12.621094 C 25.207031 12.40625 25.238281 12.183594 25.238281 11.953125 C 25.238281 11.3125 24.988281 10.714844 24.539062 10.265625 C 24.199219 9.925781 23.78125 9.710938 23.339844 9.617188 C 23.578125 8.808594 23.375 7.898438 22.738281 7.257812 C 22.207031 6.730469 21.488281 6.503906 20.796875 6.578125 L 16.253906 5.71875 C 15.5625 5.585938 14.695312 5.5 14.148438 5.996094 C 14.117188 6.027344 14.082031 6.066406 14.046875 6.105469 C 13.199219 5.796875 12.210938 5.980469 11.535156 6.65625 C 11.085938 7.105469 10.835938 7.707031 10.835938 8.34375 C 10.835938 8.574219 10.871094 8.800781 10.929688 9.015625 C 10.480469 9.109375 10.066406 9.332031 9.734375 9.660156 C 9.285156 10.109375 9.035156 10.710938 9.035156 11.347656 C 9.035156 11.578125 9.066406 11.804688 9.128906 12.019531 C 8.679688 12.113281 8.265625 12.332031 7.933594 12.664062 C 7.480469 13.117188 7.234375 13.714844 7.234375 14.355469 C 7.234375 14.84375 7.378906 15.308594 7.652344 15.703125 C 7.308594 15.820312 6.996094 16.011719 6.734375 16.273438 C 5.804688 17.203125 5.804688 18.71875 6.734375 19.648438 L 6.84375 19.761719 L 4.554688 22.050781 C 3.703125 21.648438 2.652344 21.796875 1.949219 22.5 L 0.730469 23.714844 C 0.300781 24.144531 0.0625 24.722656 0.0625 25.335938 C 0.0625 25.953125 0.300781 26.527344 0.730469 26.960938 L 2.25 28.476562 C 2.519531 28.746094 2.957031 28.746094 3.226562 28.476562 C 3.492188 28.207031 3.492188 27.773438 3.222656 27.503906 L 1.707031 25.988281 C 1.53125 25.816406 1.4375 25.585938 1.4375 25.335938 C 1.4375 25.089844 1.53125 24.859375 1.703125 24.6875 L 2.921875 23.476562 C 3.226562 23.171875 3.691406 23.125 4.042969 23.335938 C 4.070312 23.375 4.097656 23.410156 4.132812 23.441406 C 4.191406 23.503906 4.257812 23.546875 4.328125 23.582031 L 11.308594 30.550781 C 11.339844 30.621094 11.386719 30.691406 11.445312 30.75 C 11.503906 30.808594 11.570312 30.851562 11.640625 30.882812 C 11.789062 31.050781 11.871094 31.265625 11.871094 31.492188 C 11.871094 31.738281 11.773438 31.96875 11.601562 32.140625 L 10.386719 33.355469 C 10.027344 33.714844 9.441406 33.714844 9.085938 33.355469 L 7.566406 31.839844 C 7.296875 31.570312 6.859375 31.570312 6.59375 31.839844 C 6.324219 32.105469 6.324219 32.542969 6.59375 32.8125 L 8.113281 34.332031 C 8.558594 34.777344 9.148438 35 9.734375 35 C 10.324219 35 10.910156 34.777344 11.359375 34.332031 L 12.574219 33.117188 C 13.007812 32.683594 13.246094 32.105469 13.246094 31.492188 C 13.246094 31.054688 13.125 30.632812 12.898438 30.273438 L 15.476562 27.695312 C 15.480469 27.695312 15.484375 27.691406 15.484375 27.6875 C 15.78125 27.382812 16.601562 27.441406 17.398438 27.496094 C 17.964844 27.535156 18.59375 27.578125 19.210938 27.507812 L 22.035156 30.328125 C 21.851562 30.664062 21.753906 31.039062 21.753906 31.429688 C 21.753906 32.046875 21.992188 32.621094 22.425781 33.054688 L 23.640625 34.269531 C 24.074219 34.703125 24.652344 34.9375 25.265625 34.9375 C 25.878906 34.9375 26.457031 34.703125 26.890625 34.269531 L 34.269531 26.898438 C 34.699219 26.46875 34.9375 25.890625 34.9375 25.277344 C 34.9375 24.660156 34.699219 24.085938 34.265625 23.652344 Z M 15.996094 7.070312 L 18.984375 7.636719 L 17.195312 9.421875 C 16.917969 9.289062 16.539062 9.042969 16.125 8.644531 C 15.554688 8.101562 15.148438 7.472656 15.113281 7.078125 C 15.109375 7.050781 15.109375 7.027344 15.109375 7.011719 C 15.199219 6.988281 15.4375 6.964844 15.996094 7.070312 Z M 12.507812 7.632812 C 12.855469 7.285156 13.398438 7.242188 13.792969 7.511719 C 14.015625 8.445312 14.8125 9.296875 15.171875 9.640625 C 15.441406 9.894531 16.292969 10.65625 17.15625 10.867188 C 17.273438 11.035156 17.335938 11.234375 17.335938 11.445312 C 17.335938 11.714844 17.234375 11.96875 17.042969 12.160156 C 16.851562 12.347656 16.597656 12.453125 16.328125 12.453125 C 16.054688 12.453125 15.800781 12.347656 15.613281 12.160156 L 15.613281 12.15625 L 12.507812 9.058594 C 12.316406 8.871094 12.214844 8.617188 12.214844 8.34375 C 12.214844 8.074219 12.316406 7.820312 12.507812 7.632812 Z M 10.707031 10.636719 C 10.898438 10.445312 11.152344 10.34375 11.421875 10.34375 C 11.695312 10.34375 11.949219 10.445312 12.140625 10.636719 L 14.640625 13.132812 C 15.03125 13.527344 15.03125 14.167969 14.640625 14.5625 C 14.449219 14.75 14.195312 14.855469 13.921875 14.855469 C 13.652344 14.855469 13.394531 14.75 13.207031 14.5625 L 11.308594 12.664062 C 11.308594 12.664062 11.304688 12.660156 11.300781 12.65625 L 10.707031 12.0625 C 10.515625 11.875 10.414062 11.621094 10.414062 11.347656 C 10.414062 11.078125 10.515625 10.828125 10.707031 10.636719 Z M 8.90625 13.640625 C 9.09375 13.449219 9.347656 13.347656 9.621094 13.347656 C 9.890625 13.347656 10.144531 13.449219 10.332031 13.636719 L 12.234375 15.535156 C 12.425781 15.726562 12.527344 15.980469 12.527344 16.25 C 12.527344 16.519531 12.425781 16.773438 12.234375 16.960938 C 12.042969 17.152344 11.789062 17.257812 11.519531 17.257812 C 11.246094 17.257812 10.992188 17.152344 10.800781 16.960938 L 10.113281 16.273438 L 8.90625 15.070312 C 8.714844 14.878906 8.609375 14.625 8.609375 14.355469 C 8.609375 14.082031 8.714844 13.828125 8.90625 13.640625 Z M 7.707031 17.25 C 7.898438 17.058594 8.152344 16.953125 8.421875 16.953125 C 8.695312 16.953125 8.949219 17.058594 9.140625 17.246094 L 9.828125 17.9375 C 10.019531 18.125 10.125 18.378906 10.125 18.652344 C 10.125 18.921875 10.019531 19.175781 9.828125 19.363281 C 9.640625 19.554688 9.386719 19.660156 9.113281 19.660156 C 8.84375 19.660156 8.589844 19.554688 8.398438 19.363281 L 8.3125 19.277344 C 8.308594 19.277344 8.308594 19.273438 8.308594 19.273438 C 8.308594 19.273438 8.304688 19.273438 8.304688 19.269531 L 7.707031 18.675781 C 7.3125 18.28125 7.3125 17.640625 7.707031 17.25 Z M 21.738281 25.074219 C 21.46875 24.804688 21.03125 24.804688 20.761719 25.070312 L 20.152344 25.683594 C 19.570312 26.265625 18.515625 26.191406 17.492188 26.121094 C 16.386719 26.042969 15.242188 25.964844 14.5 26.726562 L 11.964844 29.257812 L 5.625 22.925781 L 7.867188 20.6875 C 8.238281 20.914062 8.667969 21.035156 9.113281 21.035156 C 9.753906 21.035156 10.355469 20.789062 10.800781 20.339844 C 11.253906 19.890625 11.5 19.289062 11.5 18.652344 C 11.5 18.644531 11.5 18.640625 11.5 18.632812 C 11.507812 18.632812 11.511719 18.632812 11.519531 18.632812 C 12.15625 18.632812 12.757812 18.386719 13.207031 17.9375 C 13.65625 17.488281 13.90625 16.890625 13.90625 16.25 C 13.90625 16.242188 13.90625 16.238281 13.90625 16.230469 C 13.910156 16.230469 13.917969 16.230469 13.921875 16.230469 C 14.5625 16.230469 15.160156 15.984375 15.613281 15.535156 C 16.082031 15.066406 16.3125 14.445312 16.308594 13.832031 C 16.316406 13.832031 16.320312 13.832031 16.328125 13.832031 C 16.96875 13.832031 17.566406 13.582031 18.015625 13.132812 C 18.464844 12.683594 18.714844 12.085938 18.714844 11.445312 C 18.714844 11 18.59375 10.570312 18.367188 10.199219 L 20.332031 8.234375 C 20.480469 8.089844 20.660156 7.996094 20.847656 7.960938 C 20.871094 7.957031 20.890625 7.953125 20.910156 7.949219 C 21.214844 7.90625 21.535156 8 21.765625 8.234375 C 22.160156 8.628906 22.160156 9.269531 21.765625 9.664062 L 21.167969 10.257812 C 21.167969 10.261719 21.164062 10.261719 21.164062 10.265625 L 20.472656 10.953125 C 20.203125 11.222656 20.203125 11.65625 20.472656 11.925781 C 20.742188 12.195312 21.175781 12.195312 21.445312 11.925781 L 22.046875 11.328125 L 22.136719 11.234375 C 22.53125 10.84375 23.171875 10.84375 23.566406 11.238281 C 23.757812 11.429688 23.859375 11.679688 23.859375 11.953125 C 23.859375 12.222656 23.757812 12.476562 23.566406 12.667969 L 22.960938 13.269531 L 22.273438 13.957031 C 22.003906 14.226562 22.003906 14.660156 22.269531 14.929688 C 22.539062 15.199219 22.976562 15.199219 23.246094 14.933594 L 23.9375 14.242188 C 24.125 14.054688 24.378906 13.949219 24.652344 13.949219 C 24.921875 13.949219 25.175781 14.054688 25.367188 14.242188 C 25.558594 14.433594 25.664062 14.6875 25.664062 14.957031 C 25.664062 15.226562 25.558594 15.480469 25.367188 15.671875 L 24.167969 16.871094 C 23.898438 17.140625 23.898438 17.578125 24.167969 17.847656 C 24.300781 17.980469 24.476562 18.046875 24.652344 18.046875 C 24.828125 18.046875 25.003906 17.980469 25.140625 17.84375 L 25.726562 17.257812 C 25.730469 17.253906 25.734375 17.25 25.738281 17.246094 C 25.929688 17.058594 26.183594 16.953125 26.453125 16.953125 C 26.726562 16.953125 26.980469 17.058594 27.167969 17.25 C 27.5625 17.640625 27.5625 18.28125 27.167969 18.675781 L 25.621094 20.222656 C 25.351562 20.492188 25.351562 20.925781 25.617188 21.195312 C 25.753906 21.332031 25.929688 21.398438 26.105469 21.398438 C 26.28125 21.398438 26.457031 21.332031 26.59375 21.195312 L 27.058594 20.734375 L 29.285156 22.957031 L 22.941406 29.289062 L 20.671875 27.019531 C 20.828125 26.917969 20.980469 26.800781 21.125 26.65625 L 21.734375 26.046875 C 22.003906 25.777344 22.003906 25.339844 21.738281 25.074219 Z M 33.292969 25.925781 L 25.914062 33.292969 C 25.742188 33.46875 25.511719 33.5625 25.265625 33.5625 C 25.019531 33.5625 24.789062 33.46875 24.613281 33.292969 L 23.398438 32.078125 C 23.226562 31.90625 23.128906 31.675781 23.128906 31.429688 C 23.128906 31.183594 23.226562 30.953125 23.398438 30.78125 L 30.777344 23.414062 C 30.949219 23.238281 31.179688 23.144531 31.425781 23.144531 C 31.675781 23.144531 31.90625 23.238281 32.078125 23.414062 L 33.292969 24.625 C 33.46875 24.796875 33.5625 25.027344 33.5625 25.277344 C 33.5625 25.523438 33.46875 25.753906 33.292969 25.925781 Z M 33.292969 25.925781 "/>
<path style=" stroke:none;fill-rule:nonzero;fill:rgb(0%,0%,0%);fill-opacity:1;" d="M 8.296875 3.867188 C 8.433594 4 8.609375 4.066406 8.785156 4.066406 C 8.960938 4.066406 9.136719 4 9.269531 3.867188 C 9.539062 3.597656 9.539062 3.160156 9.269531 2.890625 L 6.761719 0.390625 C 6.492188 0.121094 6.054688 0.121094 5.789062 0.390625 C 5.519531 0.660156 5.519531 1.09375 5.789062 1.363281 Z M 8.296875 3.867188 "/>
<path style=" stroke:none;fill-rule:nonzero;fill:rgb(0%,0%,0%);fill-opacity:1;" d="M 26.09375 4.066406 C 26.269531 4.066406 26.445312 4 26.582031 3.867188 L 29.085938 1.363281 C 29.355469 1.09375 29.355469 0.660156 29.089844 0.390625 C 28.820312 0.121094 28.382812 0.121094 28.113281 0.390625 L 25.609375 2.894531 C 25.339844 3.160156 25.339844 3.597656 25.605469 3.867188 C 25.742188 4 25.917969 4.066406 26.09375 4.066406 Z M 26.09375 4.066406 "/>
<path style=" stroke:none;fill-rule:nonzero;fill:rgb(0%,0%,0%);fill-opacity:1;" d="M 4.292969 29.613281 C 4.027344 29.882812 4.03125 30.320312 4.300781 30.585938 L 4.304688 30.589844 C 4.4375 30.71875 4.613281 30.785156 4.785156 30.785156 C 4.964844 30.785156 5.140625 30.71875 5.277344 30.578125 C 5.542969 30.308594 5.539062 29.871094 5.269531 29.605469 C 4.996094 29.339844 4.5625 29.34375 4.292969 29.613281 Z M 4.292969 29.613281 "/>
<path style=" stroke:none;fill-rule:nonzero;fill:rgb(0%,0%,0%);fill-opacity:1;" d="M 23.421875 24.082031 C 23.523438 24.082031 23.632812 24.058594 23.730469 24.007812 C 24.070312 23.835938 24.207031 23.421875 24.035156 23.082031 C 23.863281 22.742188 23.449219 22.605469 23.109375 22.777344 L 23.105469 22.777344 C 22.769531 22.949219 22.632812 23.363281 22.804688 23.703125 C 22.925781 23.941406 23.167969 24.082031 23.421875 24.082031 Z M 23.421875 24.082031 "/>
</g>
</svg>
