<?xml version="1.0" encoding="UTF-8"?>
<svg xmlns="http://www.w3.org/2000/svg" xmlns:xlink="http://www.w3.org/1999/xlink" width="70px" height="70px" viewBox="0 0 70 70" version="1.1">
<g id="surface1">
<path style=" stroke:none;fill-rule:nonzero;fill:rgb(0%,0%,0%);fill-opacity:1;" d="M 60.761719 44.378906 C 59.5 44.378906 58.378906 43.960938 57.539062 42.980469 C 56.699219 42 56.140625 40.878906 56.140625 39.761719 C 56.140625 38.640625 56.558594 37.378906 57.539062 36.539062 C 59.21875 34.859375 62.300781 34.71875 64.121094 36.539062 C 64.960938 37.378906 65.519531 38.640625 65.519531 39.761719 C 65.519531 40.878906 65.101562 42.140625 64.121094 42.980469 C 63.140625 43.820312 62.019531 44.378906 60.761719 44.378906 Z M 60.761719 36.539062 C 59.921875 36.539062 59.078125 36.820312 58.519531 37.519531 C 57.960938 38.078125 57.539062 38.921875 57.539062 39.761719 C 57.539062 40.601562 57.820312 41.441406 58.519531 42 C 59.78125 43.261719 61.878906 43.261719 63.140625 42 C 63.699219 41.441406 64.121094 40.601562 64.121094 39.761719 C 64.121094 38.921875 63.839844 38.078125 63.140625 37.519531 C 62.441406 36.820312 61.601562 36.539062 60.761719 36.539062 Z M 60.761719 36.539062 "/>
<path style=" stroke:none;fill-rule:nonzero;fill:rgb(0%,0%,0%);fill-opacity:1;" d="M 62.859375 51.941406 L 58.660156 51.941406 C 56.558594 51.941406 54.738281 50.539062 54.320312 48.578125 C 54.179688 47.878906 54.039062 47.320312 54.039062 46.761719 C 54.039062 44.378906 55.441406 42.558594 57.820312 41.859375 L 58.238281 41.71875 L 58.519531 42 C 59.78125 43.261719 61.878906 43.261719 63.140625 42 L 63.421875 41.71875 L 63.839844 41.859375 C 66.21875 42.558594 67.621094 44.238281 67.621094 46.761719 C 67.621094 47.320312 67.480469 47.878906 67.339844 48.578125 C 66.78125 50.539062 64.960938 51.941406 62.859375 51.941406 Z M 57.820312 43.398438 C 56.28125 43.960938 55.441406 45.078125 55.441406 46.761719 C 55.441406 47.179688 55.441406 47.738281 55.578125 48.300781 C 55.859375 49.558594 57.121094 50.539062 58.660156 50.539062 L 62.859375 50.539062 C 64.261719 50.539062 65.519531 49.558594 65.800781 48.300781 C 65.941406 47.738281 65.941406 47.179688 65.941406 46.761719 C 65.941406 45.078125 65.101562 43.960938 63.558594 43.398438 C 62.019531 44.800781 59.5 44.800781 57.820312 43.398438 Z M 57.820312 43.398438 "/>
<path style=" stroke:none;fill-rule:nonzero;fill:rgb(0%,0%,0%);fill-opacity:1;" d="M 9.238281 44.378906 C 7.980469 44.378906 6.859375 43.960938 6.019531 42.980469 C 5.179688 42.140625 4.621094 40.878906 4.621094 39.761719 C 4.621094 38.640625 5.039062 37.378906 6.019531 36.539062 C 7.839844 34.859375 10.78125 34.859375 12.601562 36.539062 C 13.441406 37.378906 14 38.640625 14 39.761719 C 14 40.878906 13.578125 42.140625 12.601562 42.980469 C 11.621094 43.820312 10.5 44.378906 9.238281 44.378906 Z M 9.238281 36.539062 C 8.398438 36.539062 7.558594 36.820312 7 37.519531 C 6.441406 38.078125 6.019531 38.921875 6.019531 39.761719 C 6.019531 40.601562 6.300781 41.441406 7 42 C 8.261719 43.261719 10.359375 43.261719 11.621094 42 C 12.179688 41.441406 12.601562 40.601562 12.601562 39.761719 C 12.601562 38.921875 12.320312 38.078125 11.621094 37.519531 C 10.921875 36.960938 10.078125 36.539062 9.238281 36.539062 Z M 9.238281 36.539062 "/>
<path style=" stroke:none;fill-rule:nonzero;fill:rgb(0%,0%,0%);fill-opacity:1;" d="M 11.339844 51.941406 L 7.140625 51.941406 C 5.039062 51.941406 3.21875 50.539062 2.800781 48.578125 C 2.660156 47.878906 2.519531 47.320312 2.519531 46.761719 C 2.519531 44.378906 3.921875 42.558594 6.300781 41.859375 L 6.71875 41.71875 L 7 42.140625 C 8.261719 43.398438 10.359375 43.398438 11.621094 42.140625 L 11.898438 41.859375 L 12.320312 42 C 14.699219 42.699219 16.101562 44.378906 16.101562 46.898438 C 16.101562 47.460938 15.960938 48.019531 15.820312 48.71875 C 15.261719 50.539062 13.441406 51.941406 11.339844 51.941406 Z M 6.300781 43.398438 C 4.761719 43.960938 3.921875 45.078125 3.921875 46.761719 C 3.921875 47.179688 3.921875 47.738281 4.058594 48.300781 C 4.339844 49.558594 5.601562 50.539062 7.140625 50.539062 L 11.339844 50.539062 C 12.738281 50.539062 14 49.558594 14.28125 48.300781 C 14.421875 47.738281 14.421875 47.179688 14.421875 46.761719 C 14.421875 45.078125 13.578125 43.960938 12.039062 43.398438 C 10.5 44.800781 7.980469 44.800781 6.300781 43.398438 Z M 6.300781 43.398438 "/>
<path style=" stroke:none;fill-rule:nonzero;fill:rgb(0%,0%,0%);fill-opacity:1;" d="M 40.179688 32.761719 C 40.039062 32.761719 39.761719 32.621094 39.621094 32.480469 C 39.480469 32.339844 36.398438 28.699219 38.5 23.800781 C 38.21875 23.378906 37.941406 22.960938 37.800781 22.679688 C 36.820312 20.441406 37.101562 16.660156 38.640625 12.320312 C 39.898438 8.960938 42.140625 4.761719 44.800781 3.640625 C 48.441406 1.960938 55.441406 3.359375 60.339844 5.460938 C 64.960938 7.421875 68.039062 9.941406 68.878906 12.460938 C 70.421875 17.078125 67.058594 29.679688 61.878906 31.5 C 57.398438 33.179688 48.578125 30.800781 43.121094 27.578125 C 41.859375 28.558594 41.160156 30.101562 40.878906 32.058594 C 40.878906 32.339844 40.601562 32.621094 40.460938 32.621094 C 40.320312 32.761719 40.320312 32.761719 40.179688 32.761719 Z M 42.980469 26.179688 C 43.121094 26.179688 43.261719 26.179688 43.398438 26.320312 C 49 29.820312 57.539062 31.640625 61.320312 30.378906 C 65.378906 28.980469 69.019531 17.5 67.480469 13.019531 C 66.78125 10.921875 63.839844 8.679688 59.640625 6.859375 C 54.039062 4.480469 48.019531 3.78125 45.21875 5.039062 C 43.398438 5.878906 41.300781 9.101562 39.761719 13.019531 C 38.359375 16.941406 38.078125 20.578125 38.921875 22.261719 C 39.058594 22.679688 39.339844 23.101562 39.761719 23.519531 C 39.898438 23.800781 40.039062 24.078125 39.898438 24.359375 C 38.640625 26.878906 39.199219 28.980469 39.761719 30.378906 C 40.179688 28.699219 41.160156 27.441406 42.558594 26.460938 C 42.699219 26.179688 42.839844 26.179688 42.980469 26.179688 Z M 42.980469 26.179688 "/>
<path style=" stroke:none;fill-rule:nonzero;fill:rgb(0%,0%,0%);fill-opacity:1;" d="M 29.820312 32.761719 C 29.679688 32.761719 29.679688 32.761719 29.539062 32.761719 C 29.261719 32.621094 29.121094 32.480469 29.121094 32.199219 C 28.980469 30.238281 28.28125 28.699219 26.878906 27.71875 C 21.558594 30.800781 12.601562 33.179688 8.121094 31.5 C 2.941406 29.679688 -0.558594 17.078125 1.121094 12.460938 C 1.960938 9.941406 5.039062 7.421875 9.660156 5.460938 C 14.558594 3.359375 21.421875 1.960938 25.199219 3.640625 C 27.859375 4.898438 30.101562 8.960938 31.359375 12.320312 C 32.898438 16.660156 33.179688 20.578125 32.199219 22.679688 C 32.058594 23.101562 31.78125 23.519531 31.5 23.800781 C 33.601562 28.699219 30.519531 32.199219 30.378906 32.480469 C 30.238281 32.761719 29.960938 32.761719 29.820312 32.761719 Z M 21 4.339844 C 17.921875 4.339844 14 5.179688 10.21875 6.859375 C 6.019531 8.679688 3.078125 10.921875 2.378906 13.019531 C 0.839844 17.359375 4.480469 28.839844 8.539062 30.378906 C 12.320312 31.78125 20.859375 29.820312 26.460938 26.320312 C 26.738281 26.179688 27.019531 26.179688 27.160156 26.320312 C 28.558594 27.300781 29.398438 28.558594 29.960938 30.238281 C 30.519531 28.839844 31.078125 26.738281 29.820312 24.21875 C 29.679688 23.941406 29.679688 23.660156 29.960938 23.378906 C 30.238281 22.960938 30.519531 22.539062 30.800781 22.121094 C 31.640625 20.300781 31.359375 16.660156 29.960938 12.878906 C 28.558594 8.960938 26.460938 5.738281 24.5 4.898438 C 23.660156 4.480469 22.398438 4.339844 21 4.339844 Z M 21 4.339844 "/>
<path style=" stroke:none;fill-rule:nonzero;fill:rgb(0%,0%,0%);fill-opacity:1;" d="M 55.019531 23.941406 C 54.878906 23.941406 54.601562 23.800781 54.460938 23.800781 L 52.078125 21.421875 L 48.71875 21.980469 C 48.441406 21.980469 48.160156 21.980469 48.019531 21.699219 C 47.878906 21.421875 47.878906 21.140625 48.019531 21 L 49.558594 17.921875 L 47.878906 14.980469 C 47.738281 14.699219 47.738281 14.421875 47.878906 14.28125 C 48.019531 14 48.300781 14 48.578125 14 L 51.941406 14.558594 L 54.320312 12.039062 C 54.460938 11.898438 54.738281 11.761719 55.019531 11.898438 C 55.300781 12.039062 55.441406 12.179688 55.441406 12.460938 L 56 15.820312 L 59.078125 17.21875 C 59.359375 17.359375 59.5 17.640625 59.5 17.78125 C 59.5 17.921875 59.359375 18.339844 59.078125 18.480469 L 56 20.019531 L 55.578125 23.378906 C 55.578125 23.660156 55.300781 23.800781 55.160156 23.941406 C 55.300781 23.941406 55.160156 23.941406 55.019531 23.941406 Z M 52.359375 19.878906 C 52.5 19.878906 52.78125 20.019531 52.921875 20.019531 L 54.601562 21.699219 L 54.878906 19.320312 C 54.878906 19.039062 55.019531 18.898438 55.300781 18.761719 L 57.398438 17.640625 L 55.160156 16.800781 C 55.019531 16.660156 54.738281 16.519531 54.738281 16.238281 L 54.460938 14 L 52.78125 15.679688 C 52.640625 15.820312 52.359375 15.960938 52.21875 15.820312 L 49.839844 15.398438 L 50.960938 17.5 C 51.101562 17.640625 51.101562 17.921875 50.960938 18.199219 L 49.839844 20.300781 Z M 52.359375 19.878906 "/>
<path style=" stroke:none;fill-rule:nonzero;fill:rgb(0%,0%,0%);fill-opacity:1;" d="M 18.199219 24.359375 C 17.78125 24.359375 10.921875 22.960938 9.238281 18.898438 C 8.820312 17.921875 8.820312 16.941406 9.238281 15.960938 C 9.660156 14.980469 10.359375 14.28125 11.339844 13.859375 C 12.179688 13.441406 13.300781 13.441406 14.140625 13.859375 C 14.558594 13.019531 15.261719 12.320312 16.238281 11.898438 C 17.21875 11.480469 18.199219 11.480469 19.179688 11.898438 C 20.160156 12.320312 20.859375 13.019531 21.28125 14 C 22.960938 18.058594 18.898438 23.941406 18.761719 24.078125 C 18.761719 24.21875 18.480469 24.359375 18.199219 24.359375 Z M 12.878906 14.839844 C 12.601562 14.839844 12.179688 14.839844 11.898438 14.980469 C 11.339844 15.261719 10.78125 15.679688 10.5 16.378906 C 10.21875 16.941406 10.21875 17.640625 10.5 18.339844 C 11.621094 21.140625 16.378906 22.539062 17.921875 22.960938 C 18.761719 21.699219 21.140625 17.359375 20.019531 14.558594 C 19.738281 14 19.320312 13.441406 18.621094 13.160156 C 18.058594 12.878906 17.359375 12.878906 16.800781 13.160156 C 16.101562 13.441406 15.539062 14.140625 15.261719 14.839844 C 15.261719 15.121094 15.121094 15.261719 14.839844 15.261719 C 14.699219 15.398438 14.421875 15.261719 14.140625 15.261719 C 13.859375 14.980469 13.300781 14.839844 12.878906 14.839844 Z M 12.878906 14.839844 "/>
<path style=" stroke:none;fill-rule:nonzero;fill:rgb(0%,0%,0%);fill-opacity:1;" d="M 46.621094 67.058594 L 29.261719 67.058594 C 27.578125 67.058594 26.179688 65.660156 26.179688 63.980469 L 26.179688 50.398438 C 26.179688 48.71875 27.578125 47.320312 29.261719 47.320312 L 30.660156 47.320312 C 31.5 47.320312 32.199219 46.898438 32.480469 46.339844 L 33.460938 44.941406 C 34.160156 43.820312 34.441406 42.699219 34.441406 41.441406 L 34.441406 40.320312 C 34.441406 39.199219 35.28125 38.359375 36.398438 38.359375 C 39.199219 38.359375 41.300781 40.601562 41.300781 43.261719 C 41.300781 44.519531 41.019531 45.640625 40.320312 46.761719 L 39.761719 47.601562 L 49 47.601562 C 49.699219 47.601562 51.378906 47.878906 51.378906 50.539062 C 51.378906 51.378906 51.238281 52.078125 50.820312 52.5 C 50.679688 52.78125 50.398438 53.058594 50.121094 53.199219 C 50.398438 53.621094 50.539062 54.320312 50.539062 55.019531 C 50.539062 55.859375 50.398438 56.558594 49.980469 56.980469 C 49.839844 57.261719 49.558594 57.539062 49.28125 57.679688 C 49.558594 58.101562 49.699219 58.800781 49.699219 59.5 C 49.699219 60.339844 49.558594 61.039062 49.140625 61.460938 C 49 61.738281 48.71875 62.019531 48.441406 62.160156 C 48.71875 62.578125 48.859375 63.28125 48.859375 63.980469 C 48.859375 64.820312 48.71875 65.519531 48.300781 65.941406 C 48.160156 66.78125 47.460938 67.058594 46.621094 67.058594 Z M 29.261719 48.859375 C 28.421875 48.859375 27.578125 49.558594 27.578125 50.539062 L 27.578125 64.121094 C 27.578125 64.960938 28.28125 65.800781 29.261719 65.800781 L 46.621094 65.800781 C 47.039062 65.800781 47.179688 65.660156 47.320312 65.519531 C 47.460938 65.238281 47.601562 64.820312 47.601562 64.261719 C 47.601562 62.71875 46.898438 62.71875 46.621094 62.71875 C 46.199219 62.71875 45.921875 62.441406 45.921875 62.019531 C 45.921875 61.601562 46.199219 61.320312 46.621094 61.320312 L 47.460938 61.320312 C 47.878906 61.320312 48.019531 61.179688 48.160156 61.039062 C 48.300781 60.761719 48.441406 60.339844 48.441406 59.78125 C 48.441406 58.238281 47.738281 58.238281 47.460938 58.238281 C 47.039062 58.238281 46.761719 57.960938 46.761719 57.539062 C 46.761719 57.121094 47.039062 56.839844 47.460938 56.839844 L 48.300781 56.839844 C 48.71875 56.839844 48.859375 56.699219 49 56.558594 C 49.140625 56.28125 49.28125 55.859375 49.28125 55.300781 C 49.28125 53.761719 48.578125 53.761719 48.300781 53.761719 C 47.878906 53.761719 47.601562 53.480469 47.601562 53.058594 C 47.601562 52.640625 47.878906 52.359375 48.300781 52.359375 L 49.140625 52.359375 C 49.558594 52.359375 49.699219 52.21875 49.839844 52.078125 C 49.980469 51.800781 50.121094 51.378906 50.121094 50.820312 C 50.121094 49.28125 49.421875 49.28125 49.140625 49.28125 L 38.640625 49.28125 C 38.359375 49.28125 38.078125 49.140625 38.078125 48.859375 C 37.941406 48.578125 37.941406 48.300781 38.078125 48.160156 L 39.199219 46.339844 C 39.761719 45.5 40.039062 44.660156 40.039062 43.679688 C 40.039062 41.71875 38.5 40.179688 36.539062 40.179688 C 36.261719 40.179688 35.980469 40.460938 35.980469 40.738281 L 35.980469 41.859375 C 35.980469 43.398438 35.558594 44.800781 34.71875 46.058594 L 33.738281 47.460938 C 33.039062 48.578125 31.921875 49.140625 30.660156 49.140625 L 29.261719 49.140625 Z M 29.261719 48.859375 "/>
<path style=" stroke:none;fill-rule:nonzero;fill:rgb(0%,0%,0%);fill-opacity:1;" d="M 48.300781 53.480469 L 44.941406 53.480469 C 44.519531 53.480469 44.238281 53.199219 44.238281 52.78125 C 44.238281 52.359375 44.519531 52.078125 44.941406 52.078125 L 48.300781 52.078125 C 48.71875 52.078125 49 52.359375 49 52.78125 C 49 53.199219 48.71875 53.480469 48.300781 53.480469 Z M 48.300781 53.480469 "/>
<path style=" stroke:none;fill-rule:nonzero;fill:rgb(0%,0%,0%);fill-opacity:1;" d="M 48.300781 57.960938 L 44.101562 57.960938 C 43.679688 57.960938 43.398438 57.679688 43.398438 57.261719 C 43.398438 56.839844 43.679688 56.558594 44.101562 56.558594 L 48.300781 56.558594 C 48.71875 56.558594 49 56.839844 49 57.261719 C 49 57.679688 48.71875 57.960938 48.300781 57.960938 Z M 48.300781 57.960938 "/>
<path style=" stroke:none;fill-rule:nonzero;fill:rgb(0%,0%,0%);fill-opacity:1;" d="M 24.078125 67.058594 L 21.980469 67.058594 C 20.019531 67.058594 18.480469 65.519531 18.480469 63.558594 L 18.480469 51.101562 C 18.480469 49.140625 20.019531 47.601562 21.980469 47.601562 L 24.078125 47.601562 C 26.039062 47.601562 27.578125 49.140625 27.578125 51.101562 L 27.578125 63.558594 C 27.71875 65.519531 26.039062 67.058594 24.078125 67.058594 Z M 21.980469 48.859375 C 20.859375 48.859375 19.878906 49.839844 19.878906 50.960938 L 19.878906 63.421875 C 19.878906 64.539062 20.859375 65.519531 21.980469 65.519531 L 24.078125 65.519531 C 25.199219 65.519531 26.179688 64.539062 26.179688 63.421875 L 26.179688 50.960938 C 26.179688 49.839844 25.199219 48.859375 24.078125 48.859375 Z M 21.980469 48.859375 "/>
<path style=" stroke:none;fill-rule:nonzero;fill:rgb(0%,0%,0%);fill-opacity:1;" d="M 23.101562 54.039062 C 21.980469 54.039062 21.140625 53.058594 21.140625 51.941406 C 21.140625 50.820312 21.980469 49.839844 23.101562 49.839844 C 24.21875 49.839844 25.058594 50.820312 25.058594 51.941406 C 25.058594 53.199219 24.21875 54.039062 23.101562 54.039062 Z M 23.101562 51.378906 C 22.820312 51.378906 22.539062 51.660156 22.539062 52.078125 C 22.539062 52.5 22.820312 52.78125 23.101562 52.78125 C 23.378906 52.78125 23.660156 52.5 23.660156 52.078125 C 23.660156 51.660156 23.378906 51.378906 23.101562 51.378906 Z M 23.101562 51.378906 "/>
</g>
</svg>
