<?xml version="1.0" encoding="UTF-8"?>
<svg xmlns="http://www.w3.org/2000/svg" xmlns:xlink="http://www.w3.org/1999/xlink" width="70px" height="70px" viewBox="0 0 70 70" version="1.1">
<g id="surface1">
<path style=" stroke:none;fill-rule:nonzero;fill:rgb(0%,0%,0%);fill-opacity:1;" d="M 37.582031 52.160156 L 31.855469 52.160156 C 31.445312 52.160156 31.109375 51.824219 31.109375 51.414062 L 31.109375 48.722656 C 30.601562 48.550781 30.105469 48.347656 29.625 48.105469 L 27.714844 50.011719 C 27.425781 50.304688 26.953125 50.304688 26.660156 50.011719 L 22.613281 45.972656 C 22.320312 45.621094 22.320312 45.265625 22.613281 44.914062 L 24.519531 43.011719 C 24.28125 42.53125 24.074219 42.039062 23.90625 41.53125 L 21.207031 41.53125 C 20.792969 41.53125 20.460938 41.195312 20.460938 40.785156 L 20.460938 35.070312 C 20.460938 34.660156 20.792969 34.324219 21.207031 34.324219 L 23.90625 34.324219 C 24.074219 33.816406 24.28125 33.324219 24.519531 32.84375 L 22.613281 30.941406 C 22.320312 30.589844 22.320312 30.234375 22.613281 29.882812 L 26.660156 25.84375 C 26.953125 25.554688 27.425781 25.554688 27.714844 25.84375 L 29.625 27.75 C 30.105469 27.507812 30.601562 27.304688 31.109375 27.136719 L 31.109375 24.445312 C 31.109375 24.03125 31.445312 23.695312 31.855469 23.695312 L 37.582031 23.695312 C 37.992188 23.695312 38.328125 24.03125 38.328125 24.445312 L 38.328125 27.136719 C 38.835938 27.304688 39.332031 27.507812 39.8125 27.75 L 41.722656 25.84375 C 42.011719 25.554688 42.488281 25.554688 42.777344 25.84375 L 46.824219 29.882812 C 47.117188 30.234375 47.117188 30.589844 46.824219 30.941406 L 44.917969 32.84375 C 45.15625 33.324219 45.363281 33.816406 45.53125 34.324219 L 48.230469 34.324219 C 48.644531 34.324219 48.980469 34.660156 48.980469 35.070312 L 48.980469 40.785156 C 48.980469 41.195312 48.644531 41.53125 48.230469 41.53125 L 45.53125 41.53125 C 45.363281 42.039062 45.15625 42.53125 44.917969 43.011719 L 46.824219 44.914062 C 47.117188 45.265625 47.117188 45.621094 46.824219 45.972656 L 42.777344 50.011719 C 42.484375 50.304688 42.011719 50.304688 41.722656 50.011719 L 39.8125 48.105469 C 39.332031 48.347656 38.835938 48.550781 38.328125 48.722656 L 38.328125 51.414062 C 38.328125 51.824219 37.992188 52.160156 37.582031 52.160156 Z M 32.605469 50.664062 L 36.832031 50.664062 L 36.832031 48.167969 C 36.832031 47.832031 37.058594 47.539062 37.378906 47.449219 C 38.148438 47.234375 38.886719 46.929688 39.582031 46.535156 C 39.875 46.371094 40.242188 46.421875 40.480469 46.65625 L 42.25 48.425781 L 45.238281 45.441406 L 43.46875 43.679688 C 43.230469 43.441406 43.179688 43.074219 43.347656 42.78125 C 43.738281 42.085938 44.046875 41.347656 44.257812 40.582031 C 44.351562 40.257812 44.644531 40.035156 44.980469 40.035156 L 47.484375 40.035156 L 47.484375 35.820312 L 44.980469 35.820312 C 44.644531 35.820312 44.351562 35.597656 44.257812 35.273438 C 44.046875 34.507812 43.738281 33.769531 43.347656 33.074219 C 43.179688 32.78125 43.230469 32.414062 43.46875 32.179688 L 45.238281 30.414062 L 42.25 27.429688 L 40.480469 29.199219 C 40.242188 29.433594 39.875 29.484375 39.582031 29.320312 C 38.886719 28.929688 38.148438 28.621094 37.378906 28.410156 C 37.058594 28.320312 36.832031 28.023438 36.832031 27.6875 L 36.832031 25.191406 L 32.605469 25.191406 L 32.605469 27.6875 C 32.605469 28.023438 32.382812 28.320312 32.058594 28.410156 C 31.289062 28.621094 30.550781 28.929688 29.855469 29.320312 C 29.5625 29.484375 29.195312 29.433594 28.960938 29.199219 L 27.1875 27.429688 L 24.199219 30.414062 L 25.96875 32.179688 C 26.207031 32.414062 26.257812 32.78125 26.089844 33.074219 C 25.699219 33.769531 25.390625 34.507812 25.179688 35.273438 C 25.089844 35.597656 24.792969 35.820312 24.457031 35.820312 L 21.953125 35.820312 L 21.953125 40.035156 L 24.457031 40.035156 C 24.792969 40.035156 25.089844 40.257812 25.179688 40.582031 C 25.390625 41.347656 25.699219 42.085938 26.089844 42.78125 C 26.257812 43.074219 26.207031 43.441406 25.96875 43.679688 L 24.199219 45.441406 L 27.1875 48.425781 L 28.960938 46.65625 C 29.195312 46.421875 29.5625 46.371094 29.855469 46.535156 C 30.550781 46.929688 31.289062 47.234375 32.058594 47.449219 C 32.382812 47.539062 32.605469 47.832031 32.605469 48.167969 Z M 32.605469 50.664062 "/>
<path style=" stroke:none;fill-rule:nonzero;fill:rgb(0%,0%,0%);fill-opacity:1;" d="M 34.71875 41.199219 C 34.304688 41.199219 33.972656 40.863281 33.972656 40.449219 L 33.972656 38.160156 C 33.972656 37.746094 34.304688 37.414062 34.71875 37.414062 C 35.949219 37.414062 36.949219 36.339844 36.949219 35.019531 C 36.949219 33.699219 35.949219 32.628906 34.71875 32.628906 C 33.492188 32.628906 32.492188 33.699219 32.492188 35.019531 C 32.492188 35.433594 32.15625 35.769531 31.742188 35.769531 C 31.328125 35.769531 30.996094 35.433594 30.996094 35.019531 C 30.996094 32.875 32.664062 31.132812 34.71875 31.132812 C 36.773438 31.132812 38.441406 32.875 38.441406 35.019531 C 38.441406 36.898438 37.164062 38.46875 35.46875 38.828125 L 35.46875 40.449219 C 35.46875 40.863281 35.132812 41.199219 34.71875 41.199219 Z M 34.71875 41.199219 "/>
<path style=" stroke:none;fill-rule:nonzero;fill:rgb(0%,0%,0%);fill-opacity:1;" d="M 35.839844 43.640625 C 35.839844 43.019531 35.339844 42.515625 34.71875 42.515625 C 34.097656 42.515625 33.597656 43.019531 33.597656 43.640625 C 33.597656 44.257812 34.097656 44.761719 34.71875 44.761719 C 35.339844 44.761719 35.839844 44.257812 35.839844 43.640625 Z M 35.839844 43.640625 "/>
<path style=" stroke:none;fill-rule:nonzero;fill:rgb(0%,0%,0%);fill-opacity:1;" d="M 58.78125 26.773438 C 54.246094 26.773438 50.554688 23.082031 50.554688 18.546875 C 50.554688 14.011719 54.246094 10.320312 58.78125 10.320312 C 63.316406 10.320312 67.007812 14.011719 67.007812 18.546875 C 67.007812 23.082031 63.316406 26.773438 58.78125 26.773438 Z M 58.78125 11.816406 C 55.070312 11.816406 52.050781 14.835938 52.050781 18.546875 C 52.050781 22.257812 55.070312 25.277344 58.78125 25.277344 C 62.492188 25.277344 65.511719 22.257812 65.511719 18.546875 C 65.511719 14.835938 62.492188 11.816406 58.78125 11.816406 Z M 58.78125 11.816406 "/>
<path style=" stroke:none;fill-rule:nonzero;fill:rgb(0%,0%,0%);fill-opacity:1;" d="M 60.71875 22.140625 L 56.84375 22.140625 C 56.429688 22.140625 56.097656 21.804688 56.097656 21.394531 C 56.097656 20.980469 56.429688 20.644531 56.84375 20.644531 L 60.71875 20.644531 C 61.132812 20.644531 61.46875 20.980469 61.46875 21.394531 C 61.46875 21.804688 61.132812 22.140625 60.71875 22.140625 Z M 60.71875 22.140625 "/>
<path style=" stroke:none;fill-rule:nonzero;fill:rgb(0%,0%,0%);fill-opacity:1;" d="M 62.066406 16.816406 C 62.066406 16.238281 61.664062 15.769531 61.167969 15.769531 C 60.671875 15.769531 60.269531 16.238281 60.269531 16.816406 C 60.269531 17.394531 60.671875 17.863281 61.167969 17.863281 C 61.664062 17.863281 62.066406 17.394531 62.066406 16.816406 Z M 62.066406 16.816406 "/>
<path style=" stroke:none;fill-rule:nonzero;fill:rgb(0%,0%,0%);fill-opacity:1;" d="M 57.292969 16.816406 C 57.292969 16.238281 56.890625 15.769531 56.398438 15.769531 C 55.902344 15.769531 55.5 16.238281 55.5 16.816406 C 55.5 17.394531 55.902344 17.863281 56.398438 17.863281 C 56.890625 17.863281 57.292969 17.394531 57.292969 16.816406 Z M 57.292969 16.816406 "/>
<path style=" stroke:none;fill-rule:nonzero;fill:rgb(0%,0%,0%);fill-opacity:1;" d="M 11.21875 26.773438 C 6.683594 26.773438 2.992188 23.082031 2.992188 18.546875 C 2.992188 14.011719 6.683594 10.320312 11.21875 10.320312 C 15.753906 10.320312 19.445312 14.011719 19.445312 18.546875 C 19.445312 23.082031 15.753906 26.773438 11.21875 26.773438 Z M 11.21875 11.816406 C 7.507812 11.816406 4.488281 14.835938 4.488281 18.546875 C 4.488281 22.257812 7.507812 25.277344 11.21875 25.277344 C 14.929688 25.277344 17.949219 22.257812 17.949219 18.546875 C 17.949219 14.835938 14.929688 11.816406 11.21875 11.816406 Z M 11.21875 11.816406 "/>
<path style=" stroke:none;fill-rule:nonzero;fill:rgb(0%,0%,0%);fill-opacity:1;" d="M 13.421875 22.503906 C 13.210938 22.503906 13.003906 22.414062 12.855469 22.242188 C 12.007812 21.253906 10.429688 21.253906 9.582031 22.242188 C 9.3125 22.554688 8.839844 22.59375 8.527344 22.324219 C 8.214844 22.054688 8.175781 21.582031 8.445312 21.269531 C 9.867188 19.609375 12.5625 19.605469 13.988281 21.269531 C 14.382812 21.726562 14.015625 22.503906 13.421875 22.503906 Z M 13.421875 22.503906 "/>
<path style=" stroke:none;fill-rule:nonzero;fill:rgb(0%,0%,0%);fill-opacity:1;" d="M 14.5 17.042969 C 14.5 16.464844 14.097656 15.996094 13.601562 15.996094 C 13.109375 15.996094 12.707031 16.464844 12.707031 17.042969 C 12.707031 17.621094 13.109375 18.089844 13.601562 18.089844 C 14.097656 18.089844 14.5 17.621094 14.5 17.042969 Z M 14.5 17.042969 "/>
<path style=" stroke:none;fill-rule:nonzero;fill:rgb(0%,0%,0%);fill-opacity:1;" d="M 9.730469 17.042969 C 9.730469 16.464844 9.328125 15.996094 8.832031 15.996094 C 8.335938 15.996094 7.933594 16.464844 7.933594 17.042969 C 7.933594 17.621094 8.335938 18.089844 8.832031 18.089844 C 9.328125 18.089844 9.730469 17.621094 9.730469 17.042969 Z M 9.730469 17.042969 "/>
<path style=" stroke:none;fill-rule:nonzero;fill:rgb(0%,0%,0%);fill-opacity:1;" d="M 61.773438 44.9375 C 60.707031 44.9375 59.695312 44.476562 59 43.664062 C 58.734375 43.351562 58.769531 42.878906 59.082031 42.609375 C 59.394531 42.34375 59.867188 42.378906 60.136719 42.691406 C 60.984375 43.679688 62.5625 43.679688 63.410156 42.691406 C 63.679688 42.378906 64.152344 42.34375 64.464844 42.609375 C 64.777344 42.878906 64.8125 43.351562 64.546875 43.664062 C 63.851562 44.476562 62.839844 44.9375 61.773438 44.9375 Z M 61.773438 44.9375 "/>
<path style=" stroke:none;fill-rule:nonzero;fill:rgb(0%,0%,0%);fill-opacity:1;" d="M 65.054688 39.480469 C 65.054688 38.902344 64.65625 38.433594 64.160156 38.433594 C 63.664062 38.433594 63.261719 38.902344 63.261719 39.480469 C 63.261719 40.058594 63.664062 40.527344 64.160156 40.527344 C 64.65625 40.527344 65.054688 40.058594 65.054688 39.480469 Z M 65.054688 39.480469 "/>
<path style=" stroke:none;fill-rule:nonzero;fill:rgb(0%,0%,0%);fill-opacity:1;" d="M 60.285156 39.480469 C 60.285156 38.902344 59.882812 38.433594 59.386719 38.433594 C 58.890625 38.433594 58.492188 38.902344 58.492188 39.480469 C 58.492188 40.058594 58.890625 40.527344 59.386719 40.527344 C 59.882812 40.527344 60.285156 40.058594 60.285156 39.480469 Z M 60.285156 39.480469 "/>
<path style=" stroke:none;fill-rule:nonzero;fill:rgb(0%,0%,0%);fill-opacity:1;" d="M 35 16.453125 C 30.464844 16.453125 26.773438 12.761719 26.773438 8.226562 C 26.773438 3.691406 30.464844 0 35 0 C 39.535156 0 43.226562 3.691406 43.226562 8.226562 C 43.226562 12.761719 39.535156 16.453125 35 16.453125 Z M 35 1.496094 C 31.289062 1.496094 28.269531 4.515625 28.269531 8.226562 C 28.269531 11.9375 31.289062 14.957031 35 14.957031 C 38.710938 14.957031 41.730469 11.9375 41.730469 8.226562 C 41.730469 4.515625 38.710938 1.496094 35 1.496094 Z M 35 1.496094 "/>
<path style=" stroke:none;fill-rule:nonzero;fill:rgb(0%,0%,0%);fill-opacity:1;" d="M 37.203125 12.183594 C 36.992188 12.183594 36.785156 12.09375 36.636719 11.921875 C 35.789062 10.933594 34.210938 10.933594 33.363281 11.921875 C 32.734375 12.65625 31.597656 11.683594 32.226562 10.949219 C 33.652344 9.289062 36.34375 9.285156 37.773438 10.949219 C 38.164062 11.40625 37.800781 12.183594 37.203125 12.183594 Z M 37.203125 12.183594 "/>
<path style=" stroke:none;fill-rule:nonzero;fill:rgb(0%,0%,0%);fill-opacity:1;" d="M 37.386719 7.28125 C 36.5625 7.28125 35.890625 6.542969 35.890625 5.636719 C 35.890625 5.441406 36.015625 5.269531 36.203125 5.210938 C 36.390625 5.148438 36.59375 5.21875 36.707031 5.378906 C 36.863281 5.605469 37.109375 5.734375 37.386719 5.734375 C 37.660156 5.734375 37.90625 5.605469 38.066406 5.378906 C 38.175781 5.21875 38.378906 5.148438 38.566406 5.210938 C 38.753906 5.269531 38.882812 5.441406 38.882812 5.636719 C 38.882812 6.542969 38.210938 7.28125 37.386719 7.28125 Z M 37.386719 7.28125 "/>
<path style=" stroke:none;fill-rule:nonzero;fill:rgb(0%,0%,0%);fill-opacity:1;" d="M 32.613281 7.28125 C 31.789062 7.28125 31.117188 6.542969 31.117188 5.636719 C 31.117188 5.441406 31.246094 5.269531 31.433594 5.210938 C 31.621094 5.148438 31.824219 5.21875 31.933594 5.378906 C 32.09375 5.605469 32.339844 5.734375 32.613281 5.734375 C 32.886719 5.734375 33.136719 5.605469 33.292969 5.378906 C 33.40625 5.21875 33.609375 5.148438 33.796875 5.210938 C 33.984375 5.269531 34.109375 5.441406 34.109375 5.636719 C 34.109375 6.542969 33.4375 7.28125 32.613281 7.28125 Z M 32.613281 7.28125 "/>
<path style=" stroke:none;fill-rule:nonzero;fill:rgb(0%,0%,0%);fill-opacity:1;" d="M 61.773438 32.757812 C 59.007812 32.757812 56.558594 34.128906 55.066406 36.230469 C 54.265625 31.089844 52.285156 26.84375 49.15625 23.585938 C 45.515625 19.792969 40.140625 17.683594 34.023438 17.648438 C 26.023438 17.609375 18.960938 22.382812 15.980469 29.785156 C 15.214844 31.679688 14.722656 33.652344 14.5 35.667969 C 12.988281 33.890625 10.738281 32.757812 8.226562 32.757812 C 3.691406 32.757812 0 36.445312 0 40.984375 C 0 45.519531 3.691406 49.210938 8.226562 49.210938 C 11.3125 49.210938 14.007812 47.5 15.414062 44.976562 C 15.949219 46.679688 16.679688 48.308594 17.605469 49.839844 L 17.683594 49.976562 C 19.324219 52.667969 20.183594 55.730469 20.171875 58.832031 L 20.121094 69.25 C 20.121094 69.660156 20.453125 70 20.867188 70 L 20.871094 70 C 21.28125 70 21.613281 69.667969 21.617188 69.253906 L 21.667969 58.839844 C 21.683594 55.460938 20.746094 52.125 18.964844 49.199219 L 18.886719 49.070312 C 17.664062 47.039062 16.796875 44.832031 16.308594 42.503906 C 16.597656 40.964844 16.441406 39.367188 15.859375 37.917969 C 15.886719 35.304688 16.394531 32.757812 17.367188 30.34375 C 20.195312 23.324219 26.371094 19.144531 33.898438 19.144531 C 33.9375 19.144531 33.976562 19.144531 34.015625 19.144531 C 39.726562 19.179688 44.71875 21.121094 48.078125 24.621094 C 51.617188 28.304688 53.726562 33.664062 53.851562 38.769531 C 53.65625 39.472656 53.546875 40.214844 53.546875 40.984375 C 53.546875 43.289062 54.5 45.375 56.035156 46.867188 C 56.601562 48.035156 57.253906 49.261719 57.867188 50.339844 C 58.203125 50.925781 57.921875 52.019531 57.097656 52.019531 L 54.613281 52.019531 C 54.199219 52.019531 53.863281 52.355469 53.863281 52.769531 L 53.863281 60.335938 C 53.863281 63.378906 51.359375 65.859375 48.28125 65.859375 L 46 65.859375 C 43.222656 65.699219 40.28125 64.914062 37.257812 63.519531 C 36.882812 63.347656 36.4375 63.511719 36.265625 63.886719 C 36.089844 64.261719 36.253906 64.707031 36.628906 64.878906 C 39.578125 66.238281 42.46875 67.046875 45.226562 67.300781 L 45.226562 69.253906 C 45.226562 69.664062 45.558594 70 45.972656 70 C 46.386719 70 46.71875 69.664062 46.71875 69.253906 L 46.71875 67.355469 L 48.28125 67.355469 C 52.183594 67.355469 55.359375 64.203125 55.359375 60.335938 L 55.359375 53.515625 L 57.097656 53.515625 C 59.019531 53.515625 60.109375 51.167969 59.164062 49.585938 C 58.976562 49.261719 58.785156 48.917969 58.59375 48.570312 C 59.574219 48.980469 60.648438 49.210938 61.773438 49.210938 C 66.308594 49.210938 70 45.519531 70 40.984375 C 70 36.445312 66.308594 32.757812 61.773438 32.757812 Z M 8.226562 47.714844 C 4.515625 47.714844 1.496094 44.695312 1.496094 40.984375 C 1.496094 37.273438 4.515625 34.253906 8.226562 34.253906 C 11.9375 34.253906 14.957031 37.273438 14.957031 40.984375 C 14.957031 44.695312 11.9375 47.714844 8.226562 47.714844 Z M 61.773438 47.714844 C 58.0625 47.714844 55.042969 44.695312 55.042969 40.984375 C 55.042969 37.273438 58.0625 34.253906 61.773438 34.253906 C 65.484375 34.253906 68.503906 37.273438 68.503906 40.984375 C 68.503906 44.695312 65.484375 47.714844 61.773438 47.714844 Z M 61.773438 47.714844 "/>
<path style=" stroke:none;fill-rule:nonzero;fill:rgb(0%,0%,0%);fill-opacity:1;" d="M 11.808594 39.253906 C 11.808594 38.675781 11.40625 38.207031 10.910156 38.207031 C 10.414062 38.207031 10.015625 38.675781 10.015625 39.253906 C 10.015625 39.832031 10.414062 40.300781 10.910156 40.300781 C 11.40625 40.300781 11.808594 39.832031 11.808594 39.253906 Z M 11.808594 39.253906 "/>
<path style=" stroke:none;fill-rule:nonzero;fill:rgb(0%,0%,0%);fill-opacity:1;" d="M 6.4375 39.253906 C 6.4375 38.675781 6.039062 38.207031 5.542969 38.207031 C 5.046875 38.207031 4.644531 38.675781 4.644531 39.253906 C 4.644531 39.832031 5.046875 40.300781 5.542969 40.300781 C 6.039062 40.300781 6.4375 39.832031 6.4375 39.253906 Z M 6.4375 39.253906 "/>
<path style=" stroke:none;fill-rule:nonzero;fill:rgb(0%,0%,0%);fill-opacity:1;" d="M 9.722656 44.21875 C 9.722656 43.390625 9.050781 42.722656 8.226562 42.722656 C 7.402344 42.722656 6.730469 43.390625 6.730469 44.21875 C 6.730469 45.042969 7.402344 45.710938 8.226562 45.710938 C 9.050781 45.710938 9.722656 45.042969 9.722656 44.21875 Z M 9.722656 44.21875 "/>
</g>
</svg>
