<?xml version="1.0" encoding="UTF-8"?>
<svg xmlns="http://www.w3.org/2000/svg" xmlns:xlink="http://www.w3.org/1999/xlink" width="45px" height="45px" viewBox="0 0 45 45" version="1.1">
<g id="surface1">
<path style=" stroke:none;fill-rule:evenodd;fill:#21a96a;fill-opacity:1;" d="M 3.757812 30.285156 L 2.207031 30.285156 C 1.816406 30.285156 1.5 29.96875 1.5 29.578125 L 1.5 15.738281 C 1.5 13.8125 3.074219 12.238281 4.996094 12.238281 L 9.449219 12.238281 C 11.371094 12.238281 12.945312 13.8125 12.945312 15.738281 L 12.945312 20.914062 L 13.148438 21.125 L 19.511719 21.125 C 20.898438 21.125 22.023438 22.25 22.023438 23.636719 C 22.023438 25.023438 20.898438 26.148438 19.511719 26.148438 L 12.945312 26.148438 L 12.945312 29.578125 C 12.945312 29.96875 12.628906 30.285156 12.242188 30.285156 L 10.6875 30.285156 L 10.6875 43.3125 C 10.6875 43.703125 10.371094 44.015625 9.980469 44.015625 L 4.464844 44.015625 C 4.074219 44.015625 3.757812 43.703125 3.757812 43.3125 Z M 11.535156 19.421875 L 11.535156 15.738281 C 11.535156 14.589844 10.597656 13.652344 9.449219 13.652344 L 4.996094 13.652344 C 3.851562 13.652344 2.910156 14.589844 2.910156 15.738281 L 2.910156 28.871094 L 11.535156 28.871094 L 11.535156 26.085938 C 11.0625 25.980469 10.613281 25.742188 10.257812 25.363281 L 4.824219 19.632812 C 3.867188 18.628906 3.910156 17.042969 4.910156 16.085938 C 5.914062 15.132812 7.503906 15.171875 8.457031 16.175781 Z M 5.171875 30.285156 L 5.171875 42.605469 L 9.277344 42.605469 L 9.277344 30.285156 Z M 12.074219 24.738281 L 19.511719 24.738281 C 20.117188 24.738281 20.609375 24.246094 20.609375 23.636719 C 20.609375 23.027344 20.117188 22.535156 19.511719 22.535156 L 12.539062 22.535156 L 7.433594 17.148438 C 7.015625 16.710938 6.324219 16.695312 5.882812 17.109375 C 5.445312 17.527344 5.429688 18.222656 5.847656 18.660156 L 11.28125 24.390625 C 11.496094 24.617188 11.785156 24.730469 12.074219 24.730469 Z M 32.054688 26.148438 L 25.488281 26.148438 C 24.101562 26.148438 22.976562 25.023438 22.976562 23.636719 C 22.976562 22.25 24.101562 21.125 25.488281 21.125 L 31.851562 21.125 L 32.054688 20.914062 L 32.054688 15.738281 C 32.054688 13.8125 33.628906 12.238281 35.550781 12.238281 L 40.003906 12.238281 C 41.925781 12.238281 43.5 13.8125 43.5 15.738281 L 43.5 29.578125 C 43.5 29.96875 43.183594 30.285156 42.792969 30.285156 L 41.242188 30.285156 L 41.242188 43.3125 C 41.242188 43.703125 40.925781 44.015625 40.535156 44.015625 L 35.019531 44.015625 C 34.628906 44.015625 34.3125 43.703125 34.3125 43.3125 L 34.3125 30.285156 L 32.757812 30.285156 C 32.371094 30.285156 32.054688 29.96875 32.054688 29.578125 Z M 33.464844 19.421875 L 36.542969 16.175781 C 37.496094 15.171875 39.085938 15.132812 40.089844 16.085938 C 41.089844 17.042969 41.132812 18.628906 40.175781 19.632812 L 34.742188 25.363281 C 34.386719 25.742188 33.9375 25.980469 33.464844 26.085938 L 33.464844 28.871094 L 42.089844 28.871094 L 42.089844 15.738281 C 42.089844 14.589844 41.148438 13.652344 40.003906 13.652344 L 35.550781 13.652344 C 34.402344 13.652344 33.464844 14.589844 33.464844 15.738281 Z M 35.722656 30.285156 L 35.722656 42.605469 L 39.828125 42.605469 L 39.828125 30.285156 Z M 32.925781 24.738281 L 32.925781 24.730469 C 33.214844 24.730469 33.503906 24.617188 33.71875 24.390625 L 39.152344 18.660156 C 39.570312 18.222656 39.554688 17.527344 39.117188 17.109375 C 38.675781 16.695312 37.984375 16.710938 37.566406 17.148438 L 32.460938 22.535156 L 25.488281 22.535156 C 24.882812 22.535156 24.390625 23.027344 24.390625 23.636719 C 24.390625 24.246094 24.882812 24.738281 25.488281 24.738281 Z M 7.222656 2.796875 C 9.703125 2.796875 11.714844 4.808594 11.714844 7.289062 C 11.714844 9.769531 9.703125 11.78125 7.222656 11.78125 C 4.742188 11.78125 2.730469 9.769531 2.730469 7.289062 C 2.730469 4.808594 4.742188 2.796875 7.222656 2.796875 Z M 7.222656 4.207031 C 5.519531 4.207031 4.140625 5.585938 4.140625 7.289062 C 4.140625 8.992188 5.519531 10.371094 7.222656 10.371094 C 8.925781 10.371094 10.304688 8.992188 10.304688 7.289062 C 10.304688 5.585938 8.925781 4.207031 7.222656 4.207031 Z M 37.777344 2.796875 C 40.257812 2.796875 42.269531 4.808594 42.269531 7.289062 C 42.269531 9.769531 40.257812 11.78125 37.777344 11.78125 C 35.296875 11.78125 33.285156 9.769531 33.285156 7.289062 C 33.285156 4.808594 35.296875 2.796875 37.777344 2.796875 Z M 37.777344 4.207031 C 36.074219 4.207031 34.695312 5.585938 34.695312 7.289062 C 34.695312 8.992188 36.074219 10.371094 37.777344 10.371094 C 39.480469 10.371094 40.859375 8.992188 40.859375 7.289062 C 40.859375 5.585938 39.480469 4.207031 37.777344 4.207031 Z M 24.800781 2.570312 C 25.402344 2.746094 25.984375 2.984375 26.535156 3.289062 L 27.644531 2.796875 C 27.914062 2.675781 28.226562 2.734375 28.433594 2.941406 L 30.132812 4.640625 C 30.335938 4.847656 30.394531 5.160156 30.277344 5.425781 C 30.277344 5.425781 29.785156 6.539062 29.785156 6.539062 C 30.089844 7.089844 30.332031 7.671875 30.503906 8.277344 L 31.640625 8.714844 C 31.910156 8.820312 32.089844 9.082031 32.089844 9.371094 L 32.089844 11.777344 C 32.089844 12.070312 31.910156 12.332031 31.640625 12.4375 C 31.640625 12.4375 30.503906 12.871094 30.503906 12.871094 C 30.332031 13.476562 30.089844 14.058594 29.785156 14.605469 L 30.277344 15.71875 C 30.394531 15.988281 30.335938 16.300781 30.132812 16.503906 L 28.433594 18.203125 C 28.226562 18.410156 27.914062 18.46875 27.648438 18.351562 C 27.648438 18.351562 26.535156 17.859375 26.535156 17.859375 C 25.984375 18.164062 25.402344 18.40625 24.796875 18.578125 L 24.363281 19.710938 C 24.257812 19.984375 23.996094 20.164062 23.703125 20.164062 L 21.300781 20.164062 C 21.007812 20.164062 20.746094 19.984375 20.640625 19.710938 C 20.640625 19.710938 20.203125 18.578125 20.203125 18.578125 C 19.597656 18.40625 19.015625 18.164062 18.464844 17.859375 L 17.351562 18.351562 C 17.085938 18.46875 16.773438 18.410156 16.566406 18.203125 L 14.867188 16.503906 C 14.660156 16.300781 14.605469 15.988281 14.722656 15.71875 C 14.722656 15.71875 15.21875 14.609375 15.21875 14.609375 C 14.910156 14.058594 14.671875 13.476562 14.496094 12.871094 L 13.359375 12.4375 C 13.089844 12.332031 12.910156 12.070312 12.910156 11.777344 L 12.910156 9.371094 C 12.910156 9.082031 13.089844 8.820312 13.359375 8.714844 C 13.359375 8.714844 14.496094 8.277344 14.496094 8.277344 C 14.671875 7.671875 14.910156 7.089844 15.21875 6.539062 L 14.722656 5.425781 C 14.605469 5.160156 14.660156 4.847656 14.867188 4.640625 L 16.566406 2.941406 C 16.773438 2.734375 17.085938 2.675781 17.355469 2.796875 C 17.355469 2.796875 18.464844 3.289062 18.464844 3.289062 C 19.015625 2.984375 19.597656 2.746094 20.203125 2.570312 L 20.640625 1.433594 C 20.746094 1.160156 21.007812 0.984375 21.300781 0.984375 L 23.703125 0.984375 C 23.996094 0.984375 24.257812 1.164062 24.363281 1.433594 Z M 23.609375 3.414062 L 23.21875 2.394531 L 21.785156 2.394531 L 21.390625 3.417969 C 21.304688 3.632812 21.121094 3.796875 20.894531 3.847656 C 20.183594 4.019531 19.503906 4.300781 18.878906 4.683594 C 18.683594 4.804688 18.4375 4.824219 18.222656 4.726562 L 17.222656 4.285156 C 17.222656 4.285156 16.210938 5.296875 16.210938 5.296875 L 16.652344 6.296875 C 16.75 6.507812 16.730469 6.753906 16.609375 6.953125 C 16.226562 7.578125 15.945312 8.257812 15.773438 8.972656 C 15.71875 9.195312 15.558594 9.382812 15.339844 9.464844 L 14.320312 9.855469 L 14.320312 11.292969 L 15.339844 11.683594 C 15.558594 11.769531 15.71875 11.953125 15.773438 12.179688 C 15.945312 12.890625 16.226562 13.570312 16.609375 14.191406 C 16.730469 14.390625 16.75 14.636719 16.652344 14.851562 L 16.210938 15.851562 L 17.222656 16.863281 L 18.222656 16.421875 C 18.4375 16.328125 18.679688 16.34375 18.878906 16.464844 C 19.503906 16.847656 20.179688 17.128906 20.894531 17.300781 C 21.121094 17.355469 21.308594 17.515625 21.390625 17.734375 L 21.785156 18.753906 L 23.21875 18.753906 L 23.609375 17.734375 C 23.695312 17.515625 23.878906 17.355469 24.105469 17.300781 C 24.816406 17.132812 25.496094 16.851562 26.117188 16.464844 C 26.316406 16.34375 26.5625 16.328125 26.777344 16.421875 L 27.777344 16.863281 L 28.789062 15.851562 L 28.347656 14.847656 C 28.253906 14.636719 28.269531 14.390625 28.390625 14.195312 C 28.773438 13.570312 29.058594 12.890625 29.226562 12.179688 C 29.28125 11.953125 29.441406 11.769531 29.660156 11.683594 L 30.679688 11.292969 L 30.679688 9.855469 L 29.660156 9.464844 C 29.441406 9.382812 29.28125 9.195312 29.226562 8.96875 C 29.058594 8.253906 28.777344 7.578125 28.390625 6.953125 C 28.269531 6.757812 28.253906 6.511719 28.347656 6.296875 L 28.789062 5.296875 C 28.789062 5.296875 27.777344 4.285156 27.777344 4.285156 L 26.777344 4.726562 C 26.5625 4.824219 26.316406 4.804688 26.121094 4.683594 C 25.496094 4.300781 24.816406 4.019531 24.105469 3.847656 C 23.878906 3.796875 23.695312 3.632812 23.609375 3.414062 Z M 22.5 4.660156 C 25.765625 4.660156 28.414062 7.304688 28.414062 10.574219 C 28.414062 13.839844 25.765625 16.488281 22.5 16.488281 C 19.234375 16.488281 16.585938 13.839844 16.585938 10.574219 C 16.585938 7.304688 19.234375 4.660156 22.5 4.660156 Z M 22.5 6.070312 C 20.011719 6.070312 18 8.085938 18 10.574219 C 18 13.058594 20.011719 15.078125 22.5 15.078125 C 24.988281 15.078125 27.003906 13.058594 27.003906 10.574219 C 27.003906 8.085938 24.988281 6.070312 22.5 6.070312 Z M 20.0625 11.1875 C 19.789062 10.914062 19.789062 10.464844 20.0625 10.191406 C 20.339844 9.914062 20.785156 9.914062 21.0625 10.191406 L 21.71875 10.847656 L 23.964844 8.804688 C 24.253906 8.542969 24.699219 8.566406 24.960938 8.855469 C 25.222656 9.144531 25.203125 9.589844 24.914062 9.851562 L 22.167969 12.34375 C 21.890625 12.597656 21.460938 12.585938 21.195312 12.320312 Z M 20.0625 11.1875 "/>
</g>
</svg>
