<?xml version="1.0" encoding="UTF-8"?>
<svg xmlns="http://www.w3.org/2000/svg" xmlns:xlink="http://www.w3.org/1999/xlink" width="40px" height="40px" viewBox="0 0 40 40" version="1.1">
<g id="surface1">
<path style=" stroke:none;fill-rule:nonzero;fill:rgb(0%,0%,0%);fill-opacity:1;" d="M 27.5 27.5 L 27.5 36.875 C 27.5 37.703125 28.75 37.703125 28.75 36.875 L 28.75 27.5 C 28.75 26.671875 27.5 26.671875 27.5 27.5 Z M 27.5 27.5 "/>
<path style=" stroke:none;fill-rule:nonzero;fill:rgb(0%,0%,0%);fill-opacity:1;" d="M 30.277344 8.300781 C 30.5625 7.734375 30.691406 7.074219 30.589844 6.390625 L 30.40625 5.15625 C 30.148438 3.429688 28.585938 2.273438 26.9375 2.539062 C 25.289062 2.804688 24.15625 4.40625 24.410156 6.109375 L 24.597656 7.347656 C 24.648438 7.703125 24.769531 8.035156 24.929688 8.34375 C 23.0625 8.855469 21.507812 10.273438 20.878906 12.195312 L 20.03125 14.804688 C 19.941406 15.082031 20.058594 15.363281 20.292969 15.515625 L 19.917969 17.066406 L 19.5 17.265625 L 17.078125 14.902344 C 17.339844 14.472656 17.5 13.976562 17.5 13.4375 C 17.492188 12.882812 17.519531 12.765625 17.46875 12.410156 C 17.820312 11.652344 17.914062 10.488281 17.40625 9.582031 C 17.0625 8.96875 16.316406 8.253906 14.761719 8.148438 C 14.242188 7.3125 13.296875 6.800781 12.300781 6.859375 C 11.164062 6.925781 10.179688 7.699219 9.851562 8.789062 C 9.5625 9.742188 9.824219 10.769531 10.503906 11.46875 C 10.433594 12.027344 10.585938 12.433594 10.828125 12.828125 C 7.59375 14.625 5.382812 17.945312 4.996094 21.691406 L 4.375 33.71875 C 4.359375 34.078125 4.644531 34.375 5 34.375 L 7.5 34.375 L 7.5 36.875 C 7.5 37.703125 8.75 37.703125 8.75 36.875 L 8.75 34.375 L 10.625 34.375 L 10.625 36.875 C 10.625 37.703125 11.875 37.703125 11.875 36.875 L 11.875 34.375 L 13.75 34.375 L 13.75 36.875 C 13.75 37.703125 15 37.703125 15 36.875 L 15 34.375 L 16.25 34.375 C 16.59375 34.375 16.875 34.09375 16.875 33.75 L 16.875 23.453125 C 17.5 23.125 17.992188 22.558594 18.246094 21.46875 L 19.226562 22.089844 C 19.429688 22.21875 19.699219 22.222656 19.90625 22.082031 L 21.320312 21.144531 L 23.191406 22.550781 C 23.363281 22.679688 23.554688 22.777344 23.75 22.847656 L 23.75 36.875 C 23.75 37.703125 25 37.703125 25 36.875 L 25 25 L 31.25 25 L 31.25 36.875 C 31.25 37.703125 32.5 37.703125 32.5 36.875 L 32.5 25.902344 C 34.039062 26.800781 35.625 25.835938 35.625 24.375 L 35.625 15 C 35.625 11.761719 33.347656 9.003906 30.277344 8.300781 Z M 25.847656 9.429688 C 26.855469 10.160156 28.230469 10.230469 29.339844 9.410156 C 29.390625 9.414062 29.4375 9.421875 29.484375 9.425781 C 29.070312 10.769531 28.429688 11.5625 27.472656 12.347656 C 26.296875 11.488281 25.789062 10.605469 25.472656 9.488281 C 25.59375 9.464844 25.722656 9.449219 25.847656 9.429688 Z M 27.136719 3.773438 C 28.09375 3.617188 29.011719 4.300781 29.167969 5.339844 L 29.351562 6.578125 C 29.507812 7.605469 28.839844 8.570312 27.863281 8.726562 C 26.910156 8.878906 25.988281 8.207031 25.832031 7.160156 L 25.648438 5.921875 C 25.492188 4.894531 26.160156 3.929688 27.136719 3.773438 Z M 14.613281 12.140625 C 15.105469 12.433594 15.660156 12.601562 16.230469 12.65625 C 16.265625 12.980469 16.242188 13.015625 16.25 13.4375 C 16.25 14.300781 15.546875 15 14.6875 15 C 13.925781 15 13.292969 14.453125 13.15625 13.734375 C 13.746094 13.308594 14.25 12.773438 14.613281 12.140625 Z M 11.046875 9.152344 C 11.226562 8.5625 11.757812 8.144531 12.371094 8.109375 C 12.972656 8.082031 13.558594 8.433594 13.800781 8.996094 C 13.890625 9.203125 14.109375 9.378906 14.378906 9.375 C 15.359375 9.375 16.011719 9.652344 16.316406 10.195312 C 16.527344 10.566406 16.546875 11.035156 16.480469 11.421875 C 15.859375 11.402344 15.285156 11.136719 14.800781 10.742188 C 14.277344 10.3125 13.832031 10.722656 13.789062 10.976562 C 13.523438 11.679688 13.042969 12.28125 12.433594 12.71875 C 12.234375 12.601562 11.949219 12.347656 11.820312 12.066406 C 11.722656 11.855469 11.710938 11.660156 11.78125 11.476562 C 11.875 11.238281 11.769531 10.898438 11.574219 10.75 C 11.082031 10.382812 10.871094 9.738281 11.046875 9.152344 Z M 15.625 33.125 L 5.65625 33.125 L 6.242188 21.789062 C 6.597656 18.359375 8.699219 15.316406 11.75 13.761719 C 11.804688 13.792969 11.859375 13.820312 11.917969 13.851562 C 12.117188 15.203125 13.277344 16.25 14.6875 16.25 C 15.207031 16.25 15.691406 16.097656 16.109375 15.847656 C 16.3125 16.285156 16.3125 16.796875 16.078125 17.242188 C 15.375 18.597656 13.335938 18.25 13.117188 16.734375 C 13.003906 15.914062 11.765625 16.09375 11.882812 16.910156 C 12.246094 19.457031 15.546875 20.226562 17.003906 18.121094 C 17.175781 19.230469 17.347656 21.128906 16.679688 22.023438 C 16.199219 22.667969 15.117188 22.535156 14.976562 22.328125 C 14.761719 21.566406 13.617188 21.835938 13.761719 22.613281 C 13.839844 23.035156 14.320312 23.75 15.625 23.75 Z M 19.554688 20.816406 L 18.402344 20.085938 C 18.417969 19.289062 18.332031 18.476562 18.214844 17.761719 L 18.9375 18.46875 C 19.109375 18.636719 19.351562 18.683594 19.570312 18.609375 C 19.519531 19.261719 19.777344 19.902344 20.269531 20.34375 Z M 21.160156 19.464844 C 20.882812 19.257812 20.757812 18.90625 20.839844 18.566406 L 21.472656 15.941406 L 23.039062 16.464844 L 22.578125 18.054688 C 22.503906 18.300781 22.589844 18.566406 22.792969 18.722656 L 25.074219 20.5 C 25.789062 21.058594 24.757812 22.164062 23.941406 21.550781 Z M 25 23.75 L 25 22.902344 C 26.625 22.472656 27.089844 20.488281 25.84375 19.515625 L 23.894531 17.996094 L 24.226562 16.851562 C 24.574219 16.9375 24.871094 16.734375 24.96875 16.445312 L 25.59375 14.570312 C 25.855469 13.789062 24.667969 13.390625 24.40625 14.175781 L 23.980469 15.457031 L 21.410156 14.601562 L 22.070312 12.582031 C 22.449219 11.417969 23.261719 10.484375 24.296875 9.929688 C 24.71875 11.359375 25.4375 12.527344 27.160156 13.648438 C 27.378906 13.792969 27.671875 13.78125 27.882812 13.621094 C 29.195312 12.609375 30.140625 11.566406 30.695312 9.722656 C 32.847656 10.519531 34.375 12.601562 34.375 15 L 34.375 16.875 L 32.5 16.875 L 32.5 15.625 C 32.5 14.796875 31.25 14.796875 31.25 15.625 L 31.25 23.75 Z M 32.5 23.75 L 32.5 18.125 L 34.375 18.125 L 34.375 24.375 C 34.375 25.4375 32.5 25.082031 32.5 23.75 Z M 32.5 23.75 "/>
<path style=" stroke:none;fill-rule:nonzero;fill:rgb(0%,0%,0%);fill-opacity:1;" d="M 12.5 23.542969 L 12.5 21.875 C 12.84375 21.875 13.125 21.59375 13.125 21.25 L 13.125 20 C 13.125 19.171875 11.875 19.171875 11.875 20 L 11.875 20.625 L 9.375 20.625 L 9.375 17.5 C 9.375 16.671875 8.125 16.671875 8.125 17.5 L 8.125 21.25 C 8.125 21.59375 8.40625 21.875 8.75 21.875 L 8.75 24.375 C 8.75 24.5 8.785156 24.621094 8.855469 24.722656 L 10.25 26.816406 C 11.042969 28 12.71875 28.167969 13.726562 27.160156 C 14.210938 26.675781 14.265625 25.894531 13.855469 25.347656 Z M 12.03125 26.566406 C 11.726562 26.535156 11.457031 26.375 11.289062 26.121094 L 10 24.1875 L 10 21.875 L 11.25 21.875 L 11.25 23.75 C 11.25 23.886719 11.292969 24.015625 11.375 24.125 L 12.851562 26.09375 C 13.019531 26.320312 12.40625 26.597656 12.03125 26.566406 Z M 12.03125 26.566406 "/>
</g>
</svg>
