<?xml version="1.0" encoding="UTF-8"?>
<svg xmlns="http://www.w3.org/2000/svg" xmlns:xlink="http://www.w3.org/1999/xlink" width="45px" height="45px" viewBox="0 0 45 45" version="1.1">
<g id="surface1">
<path style=" stroke:none;fill-rule:nonzero;fill:#21a96a;fill-opacity:1;" d="M 41.117188 7.625 C 40.777344 7.4375 40.65625 7.011719 40.84375 6.671875 C 41.03125 6.332031 41.460938 6.210938 41.796875 6.398438 C 42.765625 6.9375 43.570312 7.6875 44.128906 8.578125 C 44.679688 9.453125 44.992188 10.457031 44.992188 11.523438 L 44.992188 17.171875 C 44.992188 17.558594 44.675781 17.875 44.289062 17.875 L 30.933594 17.875 C 30.546875 17.875 30.230469 17.558594 30.230469 17.171875 L 30.230469 11.523438 C 30.230469 10.457031 30.542969 9.453125 31.09375 8.578125 C 31.652344 7.6875 32.457031 6.9375 33.425781 6.398438 C 33.765625 6.210938 34.191406 6.332031 34.378906 6.671875 C 34.566406 7.011719 34.445312 7.4375 34.105469 7.625 C 33.34375 8.046875 32.714844 8.632812 32.28125 9.328125 C 31.871094 9.976562 31.636719 10.726562 31.636719 11.523438 L 31.636719 16.46875 L 43.585938 16.46875 L 43.585938 11.523438 C 43.585938 10.726562 43.351562 9.976562 42.945312 9.328125 C 42.507812 8.632812 41.878906 8.046875 41.117188 7.625 Z M 41.117188 7.625 "/>
<path style=" stroke:none;fill-rule:nonzero;fill:rgb(0%,0%,0%);fill-opacity:1;" d="M 37.613281 0 C 38.480469 0 39.273438 0.355469 39.847656 0.933594 C 40.417969 1.507812 40.777344 2.300781 40.777344 3.167969 L 40.777344 4.394531 C 40.777344 5.261719 40.410156 6.207031 39.824219 6.910156 C 39.261719 7.589844 38.484375 8.0625 37.613281 8.0625 C 36.738281 8.0625 35.960938 7.589844 35.394531 6.910156 C 34.8125 6.207031 34.445312 5.261719 34.445312 4.394531 L 34.445312 3.167969 C 34.445312 2.300781 34.804688 1.507812 35.375 0.933594 C 35.949219 0.359375 36.742188 0 37.613281 0 Z M 38.851562 1.921875 C 38.535156 1.605469 38.09375 1.40625 37.613281 1.40625 C 37.125 1.40625 36.6875 1.605469 36.371094 1.921875 C 36.050781 2.242188 35.851562 2.683594 35.851562 3.167969 L 35.851562 4.394531 C 35.851562 4.945312 36.09375 5.554688 36.472656 6.015625 C 36.789062 6.394531 37.191406 6.65625 37.613281 6.65625 C 38.03125 6.65625 38.433594 6.394531 38.75 6.015625 C 39.128906 5.554688 39.371094 4.945312 39.371094 4.394531 L 39.371094 3.167969 C 39.371094 2.683594 39.171875 2.242188 38.851562 1.921875 Z M 38.851562 1.921875 "/>
<path style=" stroke:none;fill-rule:nonzero;fill:rgb(0%,0%,0%);fill-opacity:1;" d="M 34.886719 17.171875 C 34.886719 17.558594 34.574219 17.875 34.183594 17.875 C 33.796875 17.875 33.484375 17.558594 33.484375 17.171875 L 33.484375 12.757812 C 33.484375 12.367188 33.796875 12.054688 34.183594 12.054688 C 34.574219 12.054688 34.886719 12.367188 34.886719 12.757812 Z M 41.742188 17.171875 C 41.742188 17.558594 41.425781 17.875 41.039062 17.875 C 40.648438 17.875 40.335938 17.558594 40.335938 17.171875 L 40.335938 12.757812 C 40.335938 12.367188 40.648438 12.054688 41.039062 12.054688 C 41.425781 12.054688 41.742188 12.367188 41.742188 12.757812 Z M 41.742188 17.171875 "/>
<path style=" stroke:none;fill-rule:nonzero;fill:rgb(0%,0%,0%);fill-opacity:1;" d="M 10.878906 7.625 C 10.539062 7.4375 10.417969 7.011719 10.605469 6.671875 C 10.792969 6.332031 11.222656 6.210938 11.558594 6.398438 C 12.527344 6.9375 13.332031 7.6875 13.890625 8.578125 C 14.441406 9.453125 14.753906 10.457031 14.753906 11.523438 L 14.753906 17.171875 C 14.753906 17.558594 14.4375 17.875 14.050781 17.875 L 0.695312 17.875 C 0.308594 17.875 -0.0078125 17.558594 -0.0078125 17.171875 L -0.0078125 11.523438 C -0.0078125 10.457031 0.304688 9.453125 0.855469 8.578125 C 1.414062 7.6875 2.21875 6.9375 3.1875 6.398438 C 3.527344 6.210938 3.953125 6.332031 4.140625 6.671875 C 4.328125 7.011719 4.207031 7.4375 3.867188 7.625 C 3.109375 8.046875 2.476562 8.632812 2.042969 9.328125 C 1.632812 9.976562 1.398438 10.726562 1.398438 11.523438 L 1.398438 16.46875 L 13.347656 16.46875 L 13.347656 11.523438 C 13.347656 10.726562 13.117188 9.976562 12.707031 9.328125 C 12.269531 8.632812 11.640625 8.046875 10.878906 7.625 Z M 10.878906 7.625 "/>
<path style=" stroke:none;fill-rule:nonzero;fill:rgb(0%,0%,0%);fill-opacity:1;" d="M 7.375 0 C 8.242188 0 9.035156 0.355469 9.609375 0.933594 C 10.183594 1.507812 10.539062 2.300781 10.539062 3.167969 L 10.539062 4.394531 C 10.539062 5.261719 10.171875 6.207031 9.589844 6.910156 C 9.023438 7.589844 8.246094 8.0625 7.375 8.0625 C 6.5 8.0625 5.726562 7.589844 5.160156 6.910156 C 4.574219 6.207031 4.210938 5.261719 4.210938 4.394531 L 4.210938 3.167969 C 4.210938 2.300781 4.566406 1.507812 5.140625 0.933594 C 5.710938 0.359375 6.503906 0 7.375 0 Z M 8.613281 1.921875 C 8.296875 1.605469 7.859375 1.40625 7.375 1.40625 C 6.890625 1.40625 6.449219 1.605469 6.132812 1.921875 C 5.8125 2.242188 5.613281 2.683594 5.613281 3.167969 L 5.613281 4.394531 C 5.613281 4.945312 5.855469 5.554688 6.234375 6.015625 C 6.550781 6.394531 6.953125 6.65625 7.375 6.65625 C 7.792969 6.65625 8.195312 6.394531 8.511719 6.015625 C 8.890625 5.554688 9.132812 4.945312 9.132812 4.394531 L 9.132812 3.167969 C 9.132812 2.683594 8.933594 2.242188 8.613281 1.921875 Z M 8.613281 1.921875 "/>
<path style=" stroke:none;fill-rule:nonzero;fill:rgb(0%,0%,0%);fill-opacity:1;" d="M 4.652344 17.171875 C 4.652344 17.558594 4.335938 17.875 3.945312 17.875 C 3.558594 17.875 3.242188 17.558594 3.242188 17.171875 L 3.242188 12.757812 C 3.242188 12.367188 3.558594 12.054688 3.945312 12.054688 C 4.335938 12.054688 4.652344 12.367188 4.652344 12.757812 Z M 11.503906 17.171875 C 11.503906 17.558594 11.1875 17.875 10.800781 17.875 C 10.410156 17.875 10.097656 17.558594 10.097656 17.171875 L 10.097656 12.757812 C 10.097656 12.367188 10.410156 12.054688 10.800781 12.054688 C 11.1875 12.054688 11.503906 12.367188 11.503906 12.757812 Z M 11.503906 17.171875 "/>
<path style=" stroke:none;fill-rule:nonzero;fill:rgb(0%,0%,0%);fill-opacity:1;" d="M 4.722656 23.90625 C 4.335938 23.90625 4.019531 23.589844 4.019531 23.203125 C 4.019531 22.816406 4.335938 22.5 4.722656 22.5 L 12.105469 22.5 C 12.496094 22.5 12.808594 22.816406 12.808594 23.203125 C 12.808594 23.589844 12.496094 23.90625 12.105469 23.90625 Z M 4.722656 23.90625 "/>
<path style=" stroke:none;fill-rule:nonzero;fill:rgb(0%,0%,0%);fill-opacity:1;" d="M 10.558594 26 C 10.300781 26.289062 9.855469 26.316406 9.566406 26.058594 C 9.277344 25.800781 9.25 25.355469 9.507812 25.066406 L 11.164062 23.203125 L 9.507812 21.339844 C 9.25 21.050781 9.277344 20.605469 9.566406 20.347656 C 9.855469 20.089844 10.300781 20.117188 10.558594 20.40625 L 12.625 22.730469 C 12.863281 22.992188 12.871094 23.398438 12.628906 23.671875 Z M 10.558594 26 "/>
<path style=" stroke:none;fill-rule:nonzero;fill:rgb(0%,0%,0%);fill-opacity:1;" d="M 40.261719 22.5 C 40.652344 22.5 40.964844 22.816406 40.964844 23.203125 C 40.964844 23.589844 40.648438 23.90625 40.261719 23.90625 L 32.878906 23.90625 C 32.488281 23.90625 32.175781 23.589844 32.175781 23.203125 C 32.175781 22.816406 32.488281 22.5 32.878906 22.5 Z M 40.261719 22.5 "/>
<path style=" stroke:none;fill-rule:nonzero;fill:rgb(0%,0%,0%);fill-opacity:1;" d="M 35.476562 25.066406 C 35.734375 25.355469 35.707031 25.800781 35.417969 26.058594 C 35.128906 26.316406 34.6875 26.289062 34.429688 26 L 32.355469 23.671875 C 32.113281 23.398438 32.121094 22.992188 32.359375 22.730469 L 34.429688 20.40625 C 34.6875 20.117188 35.128906 20.089844 35.421875 20.347656 C 35.710938 20.605469 35.734375 21.050781 35.476562 21.339844 L 33.820312 23.203125 Z M 35.476562 25.066406 "/>
<path style=" stroke:none;fill-rule:nonzero;fill:rgb(0%,0%,0%);fill-opacity:1;" d="M 23.195312 40.121094 C 23.195312 40.511719 22.882812 40.824219 22.492188 40.824219 C 22.105469 40.824219 21.789062 40.511719 21.789062 40.121094 L 21.789062 32.738281 C 21.789062 32.347656 22.105469 32.035156 22.492188 32.035156 C 22.882812 32.035156 23.195312 32.347656 23.195312 32.738281 Z M 23.195312 40.121094 "/>
<path style=" stroke:none;fill-rule:nonzero;fill:rgb(0%,0%,0%);fill-opacity:1;" d="M 25.289062 34.285156 C 25.578125 34.542969 25.605469 34.988281 25.347656 35.277344 C 25.089844 35.566406 24.644531 35.59375 24.355469 35.335938 L 22.492188 33.675781 L 20.628906 35.335938 C 20.339844 35.59375 19.894531 35.566406 19.640625 35.277344 C 19.382812 34.988281 19.40625 34.542969 19.695312 34.285156 L 22.019531 32.21875 C 22.28125 31.976562 22.6875 31.972656 22.960938 32.210938 Z M 25.289062 34.285156 "/>
<path style=" stroke:none;fill-rule:nonzero;fill:rgb(0%,0%,0%);fill-opacity:1;" d="M 21.789062 6.285156 C 21.789062 5.894531 22.105469 5.582031 22.492188 5.582031 C 22.878906 5.582031 23.195312 5.894531 23.195312 6.285156 L 23.195312 13.667969 C 23.195312 14.058594 22.878906 14.371094 22.492188 14.371094 C 22.105469 14.371094 21.789062 14.058594 21.789062 13.667969 Z M 21.789062 6.285156 "/>
<path style=" stroke:none;fill-rule:nonzero;fill:rgb(0%,0%,0%);fill-opacity:1;" d="M 24.355469 11.070312 C 24.644531 10.8125 25.089844 10.839844 25.347656 11.128906 C 25.605469 11.417969 25.578125 11.863281 25.289062 12.121094 L 22.957031 14.195312 C 22.6875 14.433594 22.28125 14.425781 22.019531 14.1875 L 19.695312 12.121094 C 19.40625 11.863281 19.378906 11.417969 19.636719 11.128906 C 19.894531 10.839844 20.339844 10.8125 20.628906 11.070312 L 22.492188 12.730469 Z M 24.355469 11.070312 "/>
<path style=" stroke:none;fill-rule:nonzero;fill:rgb(0%,0%,0%);fill-opacity:1;" d="M 18.699219 17.171875 L 26.285156 17.171875 C 26.898438 17.171875 27.457031 17.421875 27.863281 17.828125 L 27.867188 17.832031 C 28.273438 18.238281 28.523438 18.796875 28.523438 19.410156 L 28.523438 26.996094 C 28.523438 27.609375 28.273438 28.167969 27.867188 28.574219 L 27.859375 28.582031 C 27.453125 28.984375 26.894531 29.234375 26.285156 29.234375 L 18.699219 29.234375 C 18.082031 29.234375 17.523438 28.984375 17.117188 28.578125 C 17.101562 28.5625 17.089844 28.546875 17.074219 28.53125 C 16.695312 28.128906 16.460938 27.585938 16.460938 26.996094 L 16.460938 19.410156 C 16.460938 18.792969 16.710938 18.234375 17.117188 17.828125 C 17.523438 17.421875 18.082031 17.171875 18.699219 17.171875 Z M 26.285156 18.578125 L 18.699219 18.578125 C 18.472656 18.578125 18.261719 18.671875 18.113281 18.824219 C 17.960938 18.972656 17.867188 19.183594 17.867188 19.410156 L 17.867188 26.996094 C 17.867188 27.210938 17.949219 27.410156 18.085938 27.558594 C 18.09375 27.566406 18.101562 27.574219 18.113281 27.582031 C 18.261719 27.734375 18.472656 27.828125 18.699219 27.828125 L 26.285156 27.828125 C 26.515625 27.828125 26.722656 27.734375 26.871094 27.585938 L 26.875 27.582031 C 27.023438 27.433594 27.117188 27.226562 27.117188 26.996094 L 27.117188 19.410156 C 27.117188 19.183594 27.023438 18.972656 26.875 18.820312 C 26.722656 18.671875 26.515625 18.578125 26.285156 18.578125 Z M 26.285156 18.578125 "/>
<path style=" stroke:none;fill-rule:nonzero;fill:rgb(0%,0%,0%);fill-opacity:1;" d="M 41.117188 34.75 C 40.777344 34.5625 40.65625 34.136719 40.84375 33.796875 C 41.03125 33.460938 41.460938 33.335938 41.796875 33.527344 C 42.765625 34.0625 43.570312 34.8125 44.128906 35.703125 C 44.679688 36.578125 44.992188 37.582031 44.992188 38.648438 L 44.992188 44.296875 C 44.992188 44.683594 44.675781 45 44.289062 45 L 30.933594 45 C 30.546875 45 30.230469 44.683594 30.230469 44.296875 L 30.230469 38.648438 C 30.230469 37.582031 30.542969 36.578125 31.09375 35.703125 C 31.652344 34.8125 32.457031 34.0625 33.425781 33.527344 C 33.765625 33.335938 34.191406 33.460938 34.378906 33.796875 C 34.566406 34.136719 34.445312 34.5625 34.105469 34.75 C 33.34375 35.171875 32.714844 35.757812 32.28125 36.453125 C 31.871094 37.101562 31.636719 37.851562 31.636719 38.648438 L 31.636719 43.59375 L 43.585938 43.59375 L 43.585938 38.648438 C 43.585938 37.851562 43.351562 37.105469 42.945312 36.453125 C 42.507812 35.757812 41.878906 35.171875 41.117188 34.75 Z M 41.117188 34.75 "/>
<path style=" stroke:none;fill-rule:nonzero;fill:rgb(0%,0%,0%);fill-opacity:1;" d="M 37.613281 27.125 C 38.480469 27.125 39.273438 27.484375 39.847656 28.058594 C 40.417969 28.632812 40.777344 29.425781 40.777344 30.292969 L 40.777344 31.519531 C 40.777344 32.386719 40.410156 33.332031 39.824219 34.035156 C 39.261719 34.714844 38.484375 35.1875 37.613281 35.1875 C 36.738281 35.1875 35.960938 34.714844 35.394531 34.035156 C 34.8125 33.332031 34.445312 32.386719 34.445312 31.519531 L 34.445312 30.292969 C 34.445312 29.421875 34.804688 28.632812 35.375 28.058594 C 35.949219 27.484375 36.742188 27.125 37.613281 27.125 Z M 38.851562 29.046875 C 38.535156 28.730469 38.097656 28.53125 37.613281 28.53125 C 37.128906 28.53125 36.6875 28.730469 36.371094 29.046875 C 36.050781 29.367188 35.851562 29.808594 35.851562 30.296875 L 35.851562 31.519531 C 35.851562 32.070312 36.09375 32.679688 36.472656 33.140625 C 36.789062 33.519531 37.191406 33.78125 37.613281 33.78125 C 38.03125 33.78125 38.433594 33.519531 38.75 33.140625 C 39.128906 32.679688 39.371094 32.070312 39.371094 31.519531 L 39.371094 30.296875 C 39.371094 29.808594 39.171875 29.367188 38.851562 29.046875 Z M 38.851562 29.046875 "/>
<path style=" stroke:none;fill-rule:nonzero;fill:rgb(0%,0%,0%);fill-opacity:1;" d="M 34.886719 44.296875 C 34.886719 44.683594 34.574219 45 34.183594 45 C 33.796875 45 33.484375 44.683594 33.484375 44.296875 L 33.484375 39.882812 C 33.484375 39.492188 33.796875 39.179688 34.183594 39.179688 C 34.574219 39.179688 34.886719 39.492188 34.886719 39.882812 Z M 41.742188 44.296875 C 41.742188 44.683594 41.425781 45 41.039062 45 C 40.648438 45 40.335938 44.683594 40.335938 44.296875 L 40.335938 39.882812 C 40.335938 39.492188 40.648438 39.179688 41.039062 39.179688 C 41.425781 39.179688 41.742188 39.492188 41.742188 39.882812 Z M 41.742188 44.296875 "/>
<path style=" stroke:none;fill-rule:nonzero;fill:rgb(0%,0%,0%);fill-opacity:1;" d="M 10.878906 34.75 C 10.539062 34.5625 10.417969 34.136719 10.605469 33.796875 C 10.792969 33.460938 11.222656 33.335938 11.558594 33.527344 C 12.527344 34.0625 13.332031 34.8125 13.890625 35.703125 C 14.441406 36.578125 14.753906 37.582031 14.753906 38.648438 L 14.753906 44.296875 C 14.753906 44.683594 14.4375 45 14.050781 45 L 0.695312 45 C 0.308594 45 -0.0078125 44.683594 -0.0078125 44.296875 L -0.0078125 38.648438 C -0.0078125 37.582031 0.304688 36.578125 0.855469 35.703125 C 1.414062 34.8125 2.21875 34.0625 3.1875 33.527344 C 3.527344 33.335938 3.953125 33.460938 4.140625 33.796875 C 4.328125 34.136719 4.207031 34.5625 3.867188 34.75 C 3.109375 35.171875 2.476562 35.757812 2.042969 36.453125 C 1.632812 37.101562 1.398438 37.851562 1.398438 38.648438 L 1.398438 43.59375 L 13.347656 43.59375 L 13.347656 38.648438 C 13.347656 37.851562 13.117188 37.105469 12.707031 36.453125 C 12.269531 35.757812 11.640625 35.171875 10.878906 34.75 Z M 10.878906 34.75 "/>
<path style=" stroke:none;fill-rule:nonzero;fill:rgb(0%,0%,0%);fill-opacity:1;" d="M 7.375 27.125 C 8.242188 27.125 9.035156 27.484375 9.609375 28.058594 C 10.183594 28.632812 10.539062 29.425781 10.539062 30.292969 L 10.539062 31.519531 C 10.539062 32.386719 10.171875 33.332031 9.589844 34.035156 C 9.023438 34.714844 8.246094 35.1875 7.375 35.1875 C 6.5 35.1875 5.726562 34.714844 5.160156 34.035156 C 4.574219 33.332031 4.210938 32.386719 4.210938 31.519531 L 4.210938 30.292969 C 4.210938 29.421875 4.566406 28.632812 5.140625 28.058594 C 5.710938 27.484375 6.503906 27.125 7.375 27.125 Z M 8.613281 29.046875 C 8.296875 28.730469 7.859375 28.53125 7.375 28.53125 C 6.890625 28.53125 6.449219 28.730469 6.132812 29.046875 C 5.8125 29.367188 5.613281 29.808594 5.613281 30.296875 L 5.613281 31.519531 C 5.613281 32.070312 5.855469 32.679688 6.234375 33.140625 C 6.550781 33.519531 6.953125 33.78125 7.375 33.78125 C 7.792969 33.78125 8.195312 33.519531 8.511719 33.140625 C 8.890625 32.679688 9.132812 32.070312 9.132812 31.519531 L 9.132812 30.296875 C 9.132812 29.808594 8.933594 29.367188 8.613281 29.046875 Z M 8.613281 29.046875 "/>
<path style=" stroke:none;fill-rule:nonzero;fill:rgb(0%,0%,0%);fill-opacity:1;" d="M 4.652344 44.296875 C 4.652344 44.683594 4.335938 45 3.945312 45 C 3.558594 45 3.242188 44.683594 3.242188 44.296875 L 3.242188 39.882812 C 3.242188 39.492188 3.558594 39.179688 3.945312 39.179688 C 4.335938 39.179688 4.652344 39.492188 4.652344 39.882812 Z M 11.503906 44.296875 C 11.503906 44.683594 11.1875 45 10.800781 45 C 10.410156 45 10.097656 44.683594 10.097656 44.296875 L 10.097656 39.882812 C 10.097656 39.492188 10.410156 39.179688 10.800781 39.179688 C 11.1875 39.179688 11.503906 39.492188 11.503906 39.882812 Z M 11.503906 44.296875 "/>
<path style=" stroke:none;fill-rule:nonzero;fill:rgb(0%,0%,0%);fill-opacity:1;" d="M 21.789062 20.792969 C 21.789062 20.40625 22.105469 20.089844 22.492188 20.089844 C 22.878906 20.089844 23.195312 20.40625 23.195312 20.792969 L 23.195312 25.613281 C 23.195312 26 22.878906 26.316406 22.492188 26.316406 C 22.105469 26.316406 21.789062 26 21.789062 25.613281 Z M 21.789062 20.792969 "/>
<path style=" stroke:none;fill-rule:nonzero;fill:rgb(0%,0%,0%);fill-opacity:1;" d="M 24.902344 22.5 C 25.289062 22.5 25.605469 22.816406 25.605469 23.203125 C 25.605469 23.589844 25.289062 23.90625 24.902344 23.90625 L 20.082031 23.90625 C 19.695312 23.90625 19.378906 23.589844 19.378906 23.203125 C 19.378906 22.816406 19.695312 22.5 20.082031 22.5 Z M 24.902344 22.5 "/>
</g>
</svg>
